M48
;Layer_Color=9474304
;FILE_FORMAT=4:4
METRIC,LZ
;TYPE=PLATED
T01F00S00C0.3000
T04F00S00C0.7620
%
T01
X000381Y00041656
X00057404
X00047752Y00051308
X000381Y0006096
X00057404
X00076708
X00067056Y00051308
X00076708Y00041656
X0008636Y00051308
X00096012Y00041656
Y0006096
X00115316
X00105664Y00051308
X00115316Y00041656
X00124968Y00051308
X0013462Y0006096
X00144272Y00051308
X00153924Y00041656
X0013462
X00153924Y0006096
X00173228
X00163576Y00051308
X00173228Y00041656
X0018288Y00051308
X00192532Y00041656
Y0006096
X00211836
X00202184Y00051308
X00221488
X00211836Y00041656
X0023114
Y0006096
X00240792Y00051308
X00250444Y0006096
X00269748
X00260096Y00051308
X00250444Y00041656
X00269748
X002794Y00051308
X00289052Y0006096
X00298704Y00051308
X00308356Y00041656
X00289052
X00308356Y0006096
X0032766
X00318008Y00051308
X00337312
X00346964Y0006096
X00356616Y00051308
X00366268Y00041656
X00346964
X0032766
X00337058Y00088646
X00327406Y00098298
X00308102
X00288798
X00279146Y00088646
X00259842
X00240538
X00221234
X0020193
X00182626
X00163322
X00144018
X00124714
X0010541
X00086106
X00076454Y00098298
X0005715
X00047498Y00088646
X00037846Y00098298
Y00117602
X00037454Y0013191
X00033474Y0013589
X00037454Y0013987
X00041434Y0013589
X00045304Y00151346
X00035652
Y00160998
X00040478Y00156172
X00045304Y00160998
X0005013Y00156172
X00054956Y00151346
X00064608
X00059782Y00156172
X00054956Y00160998
X00059782Y00165824
X00069434
Y00156172
X0007426Y00151346
X00083912
X00089408Y0014859
Y00138938
X0009906
Y0014859
X00094234Y00143764
X00083912Y00160998
X00079086Y00156172
X0007426Y00160998
X00079086Y00165824
X00083912Y0017065
X00079086Y00175476
X00083912Y00180302
X0007426
X00069434Y00175476
X00064608Y0017065
Y00160998
X0005013Y00165824
X00040478
X00035652Y0017065
X00045304
X00054956
X00059782Y00175476
X0005013
X00040478
X00035652Y00180302
X00045304
X0005013Y00185128
X00059782
X00064608Y00189954
X00069434Y00185128
X00079086
X00083912Y00189954
X0007426
Y0017065
X00064608Y00180302
X00054956
Y00189954
X00045304
X00040478Y00185128
X00035652Y00189954
X00031496Y00225298
X00041148
X00045974Y00230124
X00055626
X00060452Y0023495
X00070104
X00079756
Y00225298
X0007493Y00230124
X00070104Y00225298
X00065278Y00230124
X00060452Y00225298
X000508
Y0023495
X00041148
X00036322Y00230124
X00031496Y0023495
Y00244602
X00036322Y00239776
X00045974
X00055626
X00065278
X0007493
X00079756Y00244602
X00070104
X00060452
Y00254254
X00065278Y00249428
X0007493
X00070104Y00254254
Y00263906
Y00273558
Y0028321
X00065278Y00288036
X00060452Y00292862
X00065278Y00297688
Y0030734
Y00316992
Y00326644
Y00336296
Y00345948
X00060452Y00350774
X000508
X00045974Y003556
X00041148Y00350774
Y00341122
X00045974Y00345948
X00055626
Y003556
X00065278
X00070104Y00350774
X0007493Y003556
Y00345948
X00079756Y00341122
Y00350774
Y0033147
X0007493Y00336296
X00070104Y00341122
X00060452
X000508
X00055626Y00336296
X00060452Y0033147
X00070104
Y00321818
X0007493Y00326644
Y00316992
X00070104Y00312166
X00060452
X000508
Y00321818
X00041148
Y0033147
X00045974Y00336296
Y00326644
X00055626
X000508Y0033147
X00045974Y00316992
X00036322
Y0030734
X00031496Y00312166
Y00302514
X00041148
X000508
X00045974Y0030734
X00041148Y00312166
X00055626Y00316992
X00060452Y00321818
X00079756
Y00312166
X0007493Y0030734
X00079756Y00302514
Y00292862
X0007493Y00297688
X00070104Y00302514
X00060452
X00055626Y0030734
Y00297688
X00045974
X00036322
X00031496Y00292862
X00041148
X00036322Y00288036
X00031496Y0028321
X00041148
X000508
X00045974Y00288036
X00055626
X000508Y00292862
X00060452Y0028321
X00055626Y00278384
X00045974
X00036322
X00031496Y00273558
X00041148
Y00263906
X00036322Y00268732
X00031496Y00263906
X00036322Y0025908
Y00249428
X00045974
X000508Y00244602
Y00254254
X00055626Y00249428
Y0025908
Y00268732
X000508Y00273558
X00045974Y00268732
X000508Y00263906
X00045974Y0025908
X00041148Y00254254
Y00244602
X00031496Y00254254
X00065278Y0025908
Y00268732
Y00278384
X0007493
Y00288036
X00070104Y00292862
X00079756Y0028321
Y00273558
X0007493Y00268732
Y0025908
X00079756Y00254254
Y00263906
X00060452
Y00273558
X00100838Y00251564
X00105664
Y00246738
X0011049
X00115316
Y00241912
Y00237086
Y0023226
Y00227434
Y00222608
Y00217782
Y00212956
Y0020813
X0011049
Y00212956
Y00217782
X00105664
Y00222608
X0011049
Y00227434
Y0023226
Y00237086
Y00241912
X00105664
Y00237086
Y0023226
X00100838
Y00237086
Y00241912
Y00246738
X0011049Y00251564
X00115316
X00105664Y00227434
X00100838
Y00222608
Y00217782
Y00212956
X00105664
Y0020813
X00100838
X00174316Y00204978
X00164402Y00194311
Y00183897
X0017507Y00172975
X00175005Y00162307
X00195426Y00170716
X0019558Y00176784
X00203454Y00163322
X00231942Y00155996
X00251942Y00155728
X0026543Y00163322
X00273204Y00170716
X0027305Y00176784
X00275536Y0018181
X00304736Y00184149
Y00194563
X00307595Y00209994
X00273939Y00232156
Y0023768
X00251968Y0023241
X00246888Y00234696
X00221996
X00216916Y0023241
X00193548
X00195045Y00237727
X00229158Y00261824
X00239826
X00244094Y00203962
X00239268Y00199136
Y00189484
X00234442Y00184658
X00244094
Y0019431
X00234442
X00229616Y00199136
X0022479Y0019431
Y00203962
X00234442
X00229616Y00189484
X0022479Y00184658
X00223774Y00134184
X00234442
X00245037Y00134934
X00255778Y00134184
X00266447Y00136914
X00269926Y0013139
X00269494Y00117602
Y00098298
X00279146Y0010795
X0029845
Y00088646
X00317754
Y0010795
X00337058
X0034671Y00098298
X00356362Y00088646
X00366014Y00098298
X00375666Y00088646
X0039497
X00385318Y00098298
X0039497Y0010795
X00385318Y00117602
X00375666Y0010795
X00366014Y00117602
X00356362Y0010795
X0034671Y00117602
X00327406
X00308102
X00288798
X00259842Y0010795
X0025019Y00098298
Y00117602
X00240538Y0010795
X00230886Y00098298
Y00117602
X00221234Y0010795
X00211582Y00098298
X0020193Y0010795
X00192278Y00117602
X00211582
X00213105Y00134935
X00192278Y00098298
X00182626Y0010795
X00172974Y00117602
Y00098298
X0015367
X00163322Y0010795
X00144018
X0015367Y00117602
X00134366
Y00098298
X00115062
X00124714Y0010795
X0010541
X00095758Y00098298
Y00117602
X00115062
X00086106Y0010795
X00076454Y00117602
X00066802Y0010795
Y00088646
X0005715Y00117602
X00047498Y0010795
X00277622Y00151188
X0036957Y0014859
X00374396Y00143764
X00379222Y00138938
X0036957
X00379222Y0014859
X00385296Y00151346
X00390122Y00156172
X00394948Y00151346
Y00160998
X00390122Y00165824
X00385296Y00160998
Y0017065
X00394948
X00390122Y00175476
X00385296Y00180302
X00394948
Y00189954
X00390122Y00185128
X00385296Y00189954
X00378714Y002159
X00371602
X00368116Y00233792
X0036329
Y00238618
Y00243444
X00368116
Y0024827
Y00253096
X0036329
Y00257922
X00368116
Y00262748
Y00267574
Y002724
Y00277226
X00372942
Y002724
Y00267574
X00377768
Y002724
Y00277226
X0036329
Y002724
Y00267574
Y00262748
X00358464
Y00257922
Y00253096
Y0024827
X0036329
X00353638
Y00253096
Y00257922
Y00262748
Y00267574
X00358464
Y002724
Y00277226
X00353638
Y002724
Y00243444
Y00238618
X00358464
Y00233792
X00353638
X00358464Y00243444
X00368116Y00238618
X00389452Y0023495
X00394278Y00239776
Y00249428
X00389452Y00254254
Y00263906
Y00273558
X00394278Y00268732
Y00278384
X00389452Y0028321
Y00292862
X00394278Y00288036
Y00297688
Y0030734
X00389452Y00312166
Y00321818
X00394278Y00316992
Y00326644
X00389452Y0033147
X00394278Y00336296
Y00345948
X00389452Y00350774
X00394278Y003556
X00389452Y00341122
Y00302514
X00394278Y0025908
X00389452Y00244602
X00394278Y00230124
X00389452Y00225298
X00385572Y0006096
X00366268
X0037592Y00051308
X00395224
X00385572Y00041656
X00395478Y00387604
Y0039243
X0028321Y00360172
X00278384Y00355346
X00273558Y0035052
X00268732Y00345694
Y00355346
X00263906Y0035052
Y00360172
X00273558
X0028321Y0035052
Y00340868
X00273558
X00278384Y00345694
X00263906Y00340868
X00208534Y00341122
X00198882
X00203708Y00345948
Y003556
X00194056
X0018923Y00360426
X00198882
X00208534
Y00350774
X00198882
X00194056Y00345948
X0018923Y00341122
Y00350774
X0007366Y00387604
Y0039243
X00068834
X00064008
X00059182
X00054356
X0004953
X00044704
Y00387604
X0004953
X00054356
X00059182
X00064008
X00068834
X00400304
X0040513
X00409956
Y0039243
X00414782
Y00387604
X00419608
Y0039243
X00424434
Y00387604
X0043307Y0038227
Y00372618
X00437896Y00367792
Y00377444
X00442722Y0038227
Y00372618
X00452374
Y0038227
X00447548Y00377444
Y00367792
X00452374Y00362966
X00442722
X0043307
X0042806Y00350774
X00418408
X00408756
X00399104
X0040393Y00345948
X00399104Y00341122
Y0033147
Y00321818
Y00312166
X00408756
X0040393Y0030734
X00413582
X00408756Y00302514
Y00292862
X0040393Y00288036
Y00278384
Y00268732
X00399104Y00273558
X00408756
X00413582Y00268732
X00423234
X00432886
X0042806Y00263906
Y00273558
X00423234Y00278384
X00413582
X00418408Y00273558
Y0028321
X0042806
X00432886Y00278384
X00437712Y00273558
Y0028321
Y00292862
Y00302514
X0042806
X00423234Y0030734
X00432886
X00437712Y00312166
X0042806
X00418408
X00413582Y00316992
X0040393
Y00326644
X00413582
X00418408Y00321818
X0042806
X00423234Y00316992
X00432886
X00423234Y00326644
X0042806Y0033147
X00418408
X00423234Y00336296
Y00345948
X00413582
Y003556
X0040393
X00423234
X0042806Y00341122
X00418408
X00408756
Y0033147
Y00321818
X00413582Y00336296
X0040393
X00399104Y00302514
X0040393Y00297688
X00413582
Y00288036
X00408756Y0028321
X00399104
Y00292862
X00418408
X0042806
X00423234Y00288036
X00432886
Y00297688
X00423234
X00418408Y00302514
X00447864
X00457516
X00467168
X0047682
X00486472
X00496124
Y00312166
X00491298Y0030734
X00486472Y00312166
X0047682
X00481646Y0030734
X00471994
X00467168Y00312166
X00457516
X00462342Y0030734
X0045269
X00447864Y00312166
X0045269Y00316992
X00457516Y00321818
X00467168
X0047682
X00486472
X00496124
X00491298Y00316992
X00481646
X00471994
X00462342
Y00326644
X00467168Y0033147
Y00341122
X0047682
X00486472
X00496124
Y00350774
X00491298Y00345948
X00486472Y00350774
X0047682
X00481646Y00345948
X00471994
X00467168Y00350774
X00457516
Y00341122
X00462342Y00345948
Y003556
X00471994
X00481646
X00491298
Y00336296
X00496124Y0033147
X00491298Y00326644
X00486472Y0033147
X0047682
X00481646Y00326644
X00471994
Y00336296
X00462342
X00457516Y0033147
X00481646Y00336296
Y00297688
X00486472Y00292862
Y0028321
Y00273558
X00496124
Y00263906
X00491298Y00268732
X00486472Y00263906
X0047682
Y00273558
X00481646Y00268732
X00471994
X00467168Y00263906
Y00273558
X00457516
Y00263906
X00462342Y00268732
X0045269
X00447864Y00263906
Y00273558
Y0028321
X00457516
X00467168
X0047682
X00481646Y00278384
X00491298
X00496124Y0028321
Y00292862
X00491298Y00288036
X00481646
X0047682Y00292862
X00467168
X00471994Y00288036
Y00278384
X00462342
X0045269
Y00288036
X00457516Y00292862
X00462342Y00288036
Y00297688
X0045269
X00447864Y00292862
X00471994Y00297688
X00491298
Y0025908
X00496124Y00254254
X00486472
X0047682
X00481646Y0025908
X00471994
X00467168Y00254254
X00457516
X00462342Y0025908
X0045269
X00447864Y00254254
X0045269Y00249428
X00457516Y00244602
X00447864
X0045269Y00239776
X00457516Y0023495
X00447864
X0045269Y00230124
X00457516Y00225298
X00447864
X00437712
Y0023495
Y00244602
Y00254254
Y00263906
X00432886Y0025908
X00423234
X00413582
X0040393
X00399104Y00263906
X00408756
X00418408
Y00254254
X0042806
X00432886Y00249428
X00423234
X0042806Y00244602
X00432886Y00239776
X00423234
X00418408Y00244602
X00413582Y00249428
X0040393
X00399104Y00244602
Y00254254
X00408756
Y00244602
X00413582Y00239776
X0040393
X00399104Y0023495
X0040393Y00230124
X00413582
X00423234
X0042806Y00225298
X00432886Y00230124
X0042806Y0023495
X00418408
Y00225298
X00408756
Y0023495
X00399104Y00225298
X004046Y00189954
X00399774Y00185128
Y00175476
Y00165824
X004046Y00160998
X00414252
Y00151346
X00423904
X00433556
X0042873Y00156172
X00419078
X00409426
X004046Y00151346
X00399774Y00156172
X00409426Y00165824
X00419078
X00414252Y0017065
X004046
X00409426Y00175476
X00419078
X00414252Y00180302
X00423904
Y0017065
Y00160998
X0042873Y00165824
X00433556Y00160998
Y0017065
X0042873Y00175476
Y00185128
X00419078
X00409426
X004046Y00180302
X00414252Y00189954
X00423904
X00433556
Y00180302
X0045202
Y0017065
Y00160998
Y00151346
X00456846Y00156172
X00461672Y00151346
Y00160998
X00466498Y00156172
X0047615
X00471324Y00151346
X00480976
X00485802Y00156172
X00490628Y00160998
X00480976
Y0017065
X00485802Y00165824
X00495454
X0050028Y00160998
Y00151346
X00505968Y0014859
Y00138938
X0051562
Y0014859
X00510794Y00143764
X00495454Y00156172
X00490628Y00151346
Y0017065
X00495454Y00175476
X0050028Y0017065
Y00180302
X00490628
X00485802Y00175476
X0047615
X00471324Y0017065
Y00160998
X0047615Y00165824
X00466498
X00456846
X00461672Y0017065
Y00180302
X00466498Y00175476
X00456846
Y00185128
X00466498
X00471324Y00189954
X00480976
Y00180302
X00485802Y00185128
X00495454
X0050028Y00189954
X00490628
X0047615Y00185128
X00471324Y00180302
X00461672Y00189954
X0045202
X00467168Y00225298
Y0023495
Y00244602
X00462342Y00249428
X00471994
X0047682Y00244602
X00486472
X00481646Y00249428
X00491298
X00496124Y00244602
X00491298Y00239776
X00486472Y0023495
X0047682
X00471994Y00239776
X00462342
Y00230124
X00471994
X0047682Y00225298
X00486472
X00481646Y00230124
Y00239776
X00496124Y0023495
X00491298Y00230124
X00496124Y00225298
X00517342Y00227434
Y0023226
Y00237086
Y00241912
Y00246738
Y00251564
X00522168
Y00246738
X00526994
Y00251564
X0053182
Y00246738
Y00241912
Y00237086
X00526994
X00522168
Y0023226
Y00227434
Y00222608
X00517342
Y00217782
X00522168
X00526994
Y00222608
Y00227434
X0053182
Y00222608
Y00217782
Y0023226
X00526994
Y00241912
X00522168
X00611605Y00237727
X00610108Y0023241
X00633476
X00638556Y00234696
X00663448
X00668528Y0023241
X00690499Y00232156
Y0023768
X00656336Y00262128
X00645668
X0064135Y00203962
Y0019431
Y00184658
X00651002
X00660654
Y0019431
X00655828Y00199136
X00660654Y00203962
X00651002
X00646176Y00199136
X00651002Y0019431
X00655828Y00189484
X00646176
X00648502Y00156504
X00638502Y00155756
X00640334Y00134184
X00651002
X00661597Y00134934
X00672338Y00134184
X00683007Y00136914
X00689538Y0013139
X00694182Y00117602
Y00098298
X00674878
X00655574
X0063627
X00616966
X00607314Y00088646
X0058801
X00568706
X00549402
X00530098
X00510794
X0049149
X00472186
X00452882
X0044323Y00098298
X00433578Y00088646
X00414274
X00423926Y00098298
X00433578Y0010795
X00452882
X00462534Y00098298
X00481838
X00501142
X00520446
X0053975
X00559054
X00578358
X00597662
X00607314Y0010795
X00626618
Y00088646
X00645922
X00665226
X0068453
X00703834
X00713486Y00098298
X0073279
X00723138Y00088646
X00742442
X00752094Y00098298
X00771398
X00761746Y00088646
X0078105
X00790702Y00098298
X0078105Y0010795
X00790702Y00117602
X00771398
X00761746Y0010795
X00752094Y00117602
X00742442Y0010795
X0073279Y00117602
X00723138Y0010795
X00713486Y00117602
X00703834Y0010795
X0068453
X00665226
X00674878Y00117602
X00655574
X00645922Y0010795
X0063627Y00117602
X00616966
X00597662
X0058801Y0010795
X00568706
X00559054Y00117602
X00578358
X00549402Y0010795
X00530098
X0053975Y00117602
X00520446
X00510794Y0010795
X00501142Y00117602
X0049149Y0010795
X00481838Y00117602
X00472186Y0010795
X00462534Y00117602
X0044323
X00447548Y00124968
X00437896
X00442722Y00129794
X00447548Y0013462
X00437896
X00423926Y00117602
X00414274Y0010795
X00404622Y00098298
Y00117602
X00404876Y0006096
Y00041656
X00414528Y00051308
X0042418Y0006096
Y00041656
X00433832Y00051308
X00443484Y0006096
X00453136Y00051308
X00443484Y00041656
X00462788
Y0006096
X0047244Y00051308
X00482092Y0006096
X00491744Y00051308
X00501396Y00041656
X00482092
X00501396Y0006096
X00511048Y00051308
X005207Y00041656
Y0006096
X00540004
X00530352Y00051308
X00540004Y00041656
X00549656Y00051308
X00559308Y0006096
X0056896Y00051308
X00559308Y00041656
X00578612
Y0006096
X00588264Y00051308
X00597916Y00041656
Y0006096
X0061722
X00607568Y00051308
X0061722Y00041656
X00626872Y00051308
X00636524Y0006096
X00655828
X00646176Y00051308
X00636524Y00041656
X00655828
X0066548Y00051308
X00675132Y0006096
Y00041656
X00684784Y00051308
X00694436Y0006096
X0071374
X00704088Y00051308
X0071374Y00041656
X00694436
X00723392Y00051308
X00733044Y0006096
X00752348
X00742696Y00051308
X00733044Y00041656
X00752348
X00762Y00051308
X00771652Y0006096
Y00041656
X00781304Y00051308
X00790956Y0006096
Y00041656
X0078613Y00138938
Y0014859
X00790956Y00143764
X00791464Y00204438
Y00211382
X00787484Y00207402
X00784624Y00233792
Y00238618
Y00243444
Y0024827
Y00253096
Y00257922
X00779798
Y00253096
Y0024827
Y00243444
Y00238618
Y00233792
X00774972
X00770146
Y00238618
Y00243444
Y0024827
X00774972
Y00253096
Y00257922
Y00262748
X00779798
Y00267574
X00784624
Y002724
Y00277226
X0078945
Y002724
Y00267574
X00784624Y00262748
X00779798Y002724
X00774972
Y00267574
X00770146
Y00262748
Y00257922
Y00253096
X00774972Y00243444
Y00238618
X00770146Y002724
Y00277226
X00774972
X00779798
X00724155Y00209994
X00721296Y00194563
Y00184149
X0068961Y00176784
X00689764Y00170716
X0068199Y00163322
X00620014
X00611986Y00170716
X0061214Y00176784
X00580962Y00183897
Y00194311
X00590876Y00204978
X00602234Y00341748
X0060706Y00346574
X00611886Y003514
X00602234
X0060706Y00356226
X00611886Y00361052
X00602234
X00621538
X00616712Y00356226
X00621538Y003514
Y00341748
X00611886
X00616712Y00346574
X0067691Y00342002
X00681736Y00346828
X0067691Y00351654
Y00361306
X00686562
X00696214
Y00351654
Y00342002
X00686562
Y00351654
X00691388Y0035648
X00681736
X00691388Y00346828
X00489966Y00387604
X0048514
Y0039243
X00489966
X00480314
Y00387604
X00475488
Y0039243
X00470662
Y00387604
X00465836
Y0039243
X0046101
Y00387604
X0040513Y0039243
X00400304
X00811784
Y00387604
X0081661
Y0039243
X00821436
Y00387604
X00826262
Y0039243
X00831088
Y00387604
X00835914
Y0039243
X0084074
Y00387604
X0086106Y00389636
X00865886Y00394462
X00870712Y00389636
X00917956
X00922782Y00394462
X00927608Y00389636
X0092233Y00373634
X00913302Y00378687
X00936568Y00367862
X0094159Y00361197
X00936388Y00355419
X00952754Y00352806
X00959104Y00348306
X00964954Y0035433
X00963676Y00362458
X00973637Y00356593
X00979138Y0035709
X00979351Y00345216
X01003003Y00330465
X01006983Y00327501
X01010963Y00330465
X01006983Y00334445
X01023336Y0035999
X00991108Y00372618
X00991362Y0037973
X01003926Y00388049
X00974884Y00388977
Y00395224
X00968756
Y00389128
X00957326Y0027178
X00926846Y00257556
X0091567
X00883158Y00242316
X00854102Y00244602
Y00254254
X0084445
Y00263906
Y00273558
X00839624Y00278384
Y00288036
X00834798Y00292862
Y00302514
X00829972Y0030734
X00825146Y00312166
Y00321818
Y0033147
X00829972Y00336296
Y00345948
X00825146Y00350774
X0082032Y003556
X00810668
X00815494Y00350774
Y00341122
X00810668Y00345948
X00805842Y00350774
Y00341122
Y0033147
X00810668Y00336296
X0082032
Y00345948
X00825146Y00341122
X00834798
Y00350774
X00829972Y003556
X00839624
Y00345948
X0084445Y00350774
Y00341122
X00839624Y00336296
X00834798Y0033147
X00829972Y00326644
X0082032
X00815494Y0033147
X00810668Y00326644
X00815494Y00321818
X00810668Y00316992
X00805842Y00321818
Y00312166
X00815494
X0082032Y00316992
X00829972
X00834798Y00321818
X00839624Y00326644
X0084445Y0033147
Y00321818
X00839624Y00316992
X00849276
X00854102Y00312166
X00861568Y00312928
X00866394Y00308102
Y0029845
Y00288798
X0087122Y00293624
Y00303276
Y00312928
X00866394Y00317754
X00861568Y0032258
Y00303276
X00854102Y00302514
X0084445
Y00312166
X00839624Y0030734
X00834798Y00312166
X0082032Y0030734
X00815494Y00302514
X00810668Y0030734
X00805842Y00302514
X00810668Y00297688
X00815494Y00292862
X0082032Y00297688
X00825146Y00302514
X00829972Y00297688
X00839624
X00849276
Y0030734
X00854102Y00292862
X00861568Y00293624
X0084445Y00292862
X00849276Y00288036
X0084445Y0028321
X00834798
X00829972Y00288036
X00825146Y00292862
X0082032Y00288036
X00810668
X00805842Y00292862
Y0028321
X00815494
X00810668Y00278384
X0082032
X00825146Y0028321
Y00273558
X00829972Y00278384
X00834798Y00273558
Y00263906
X00825146
X0082032Y00268732
X00810668
X00805842Y00273558
X00815494
Y00263906
X00805842
X00810668Y0025908
X00815494Y00254254
X0082032Y0025908
X00829972
Y00268732
X00839624
X00849276
Y00278384
X00854102Y0028321
Y00273558
Y00263906
X00849276Y0025908
X00839624
X00834798Y00254254
X00825146
X00829972Y00249428
X00839624
X0084445Y00244602
X00849276Y00249428
Y00239776
X00839624
X0084445Y0023495
Y00225298
X00849276Y00230124
X00854102Y0023495
Y00225298
X00834798
Y0023495
X00829972Y00239776
X00825146Y00244602
X00815494
X0082032Y00249428
X00810668
X00805842Y00244602
Y00254254
X00810668Y00239776
X00815494Y0023495
X0082032Y00239776
Y00230124
X00829972
X00839624
X00834798Y00244602
X00825146Y0023495
Y00225298
X00815494
X00810668Y00230124
X00805842Y00225298
Y0023495
X00795444Y00207402
X00801686Y00189954
X00811338
X00806512Y00185128
Y00175476
X00811338Y0017065
Y00160998
X00816164Y00156172
X0082099Y00151346
X00830642
Y00160998
X00840294
X00849946
Y00151346
X0084512Y00156172
X00835468
X00840294Y00151346
X00825816Y00156172
Y00165824
X00816164
X00806512
Y00156172
X00801686Y00151346
X00795782Y0014859
Y00138938
X00811338Y00151346
X00801686Y00160998
Y0017065
Y00180302
X00811338
X00816164Y00175476
X0082099Y0017065
Y00160998
X00835468Y00165824
X00830642Y0017065
X00825816Y00175476
Y00185128
X00816164
X0082099Y00180302
Y00189954
X00830642
X00840294Y0017065
X0084512Y00165824
X00849946Y0017065
X0084512Y00175476
X00849946Y00180302
X00880618Y00178845
Y00183671
X00885444
Y00178845
Y00174019
Y00169193
X00880618
Y00174019
Y00193802
X00885444
Y00198628
X00880618
Y00203454
X00885444
Y0020828
X00880618
X00906018
X00910844
Y00203454
Y00198628
Y00193802
X00906018
Y00198628
Y00203454
Y00183671
Y00178845
X00910844
Y00174019
Y00169193
X00906018
Y00174019
X00910844Y00183671
X00931418
Y00178845
X00936244
Y00174019
Y00169193
X00931418
Y00174019
X00936244Y00183671
Y00193802
Y00198628
Y00203454
Y0020828
X00931418
Y00203454
Y00198628
Y00193802
X00956818
X00961644
Y00198628
Y00203454
Y0020828
X00956818
Y00203454
Y00198628
Y00183671
Y00178845
Y00174019
X00961644
Y00169193
X00956818
X00961644Y00178845
Y00183671
X00982218
X00987044
Y00178845
X00982218
Y00174019
X00987044
Y00169193
X00982218
Y00193802
X00987044
Y00198628
Y00203454
Y0020828
X00982218
Y00203454
Y00198628
X01007618
Y00193802
X01012444
Y00198628
Y00203454
X01007618
Y0020828
X01012444
X01033018
Y00203454
Y00198628
X01037844
Y00193802
X01033018
Y00183671
Y00178845
Y00174019
Y00169193
X01037844
Y00174019
Y00178845
Y00183671
Y00203454
Y0020828
X01058418
Y00203454
Y00198628
X01063244
Y00193802
X01058418
Y00183671
Y00178845
Y00174019
Y00169193
X01063244
Y00174019
Y00178845
Y00183671
Y00203454
Y0020828
X01012444Y00183671
Y00178845
Y00174019
X01007618
Y00169193
X01012444
X01007618Y00178845
Y00183671
Y00126671
Y00121845
Y00117019
Y00112193
X01012444
Y00117019
Y00121845
Y00126671
X01033018
Y00121845
Y00117019
Y00112193
X01037844
Y00117019
Y00121845
Y00126671
X01058418
Y00121845
X01063244
Y00117019
Y00112193
X01058418
Y00117019
X01063244Y00126671
Y00102062
Y00097236
Y0009241
Y00087584
X01058418
Y0009241
Y00097236
Y00102062
X01037844
Y00097236
X01033018
Y0009241
Y00087584
X01037844
Y0009241
X01033018Y00102062
X01012444
Y00097236
Y0009241
Y00087584
X01007618
Y0009241
Y00097236
Y00102062
X00987044
X00982218
Y00097236
X00987044
Y0009241
Y00087584
X00982218
Y0009241
Y00112193
Y00117019
X00987044
Y00121845
Y00126671
X00982218
Y00121845
X00987044Y00112193
X00961644
Y00117019
X00956818
Y00112193
Y00121845
X00961644
Y00126671
X00956818
X00936244
Y00121845
Y00117019
X00931418
Y00112193
X00936244
Y00102062
Y00097236
X00931418
Y0009241
Y00087584
X00936244
Y0009241
X00931418Y00102062
Y00121845
Y00126671
X00910844
Y00121845
Y00117019
Y00112193
X00906018
Y00117019
Y00121845
Y00126671
X00885444
X00880618
Y00121845
Y00117019
X00885444
Y00121845
Y00112193
X00880618
Y00102062
X00885444
Y00097236
Y0009241
Y00087584
X00880618
Y0009241
Y00097236
X00906018
X00910844
Y0009241
Y00087584
X00906018
Y0009241
Y00102062
X00910844
X00956818
Y00097236
Y0009241
Y00087584
X00961644
Y0009241
Y00097236
Y00102062
Y00045062
Y00040236
Y0003541
Y00030584
X00956818
Y0003541
Y00040236
Y00045062
X00936244
Y00040236
Y0003541
X00931418
Y00030584
X00936244
X00931418Y00040236
Y00045062
X00910844
Y00040236
Y0003541
X00906018
Y00030584
X00910844
X00906018Y00040236
Y00045062
X00885444
X00880618
Y00040236
Y0003541
X00885444
Y00040236
Y00030584
X00880618
X00848868Y00041656
Y0006096
X00829564
X0081026
X00800608Y00051308
X00819912
X0081026Y00041656
X00829564
X00839216Y00051308
X00838962Y00088646
X00819658
X00800354
X00810006Y00098298
X0082931
X00848614
X00838962Y0010795
X00848614Y00117602
X0084799Y0013191
X00844431Y00136119
X0085197Y0013589
X00848411Y00140099
X0082931Y00117602
X00819658Y0010795
X00800354
X00810006Y00117602
X00794276Y00267574
Y002724
Y00277226
X00982218Y00045062
X00987044
Y00040236
Y0003541
X00982218
Y00040236
Y00030584
X00987044
X01007618
Y0003541
X01012444
Y00030584
Y00040236
X01007618
Y00045062
X01012444
X01033018
Y00040236
Y0003541
X01037844
Y00030584
X01033018
X01037844Y00040236
Y00045062
X01058418
Y00040236
X01063244
Y0003541
Y00030584
X01058418
Y0003541
X01063244Y00045062
X01027937Y00398019
X01005332Y00415544
X01001268Y00424434
X00982724Y0042233
X00973582Y00421894
X00962914
X0096266Y00433578
X00972312
X00977138Y00438404
X0098679
Y00448056
Y00457708
X00981964Y00462534
Y00452882
Y0044323
Y00433578
X00977138Y00448056
Y00457708
X00972312Y00452882
Y0044323
X00967486Y00438404
Y00448056
X0096266Y00452882
Y00462534
X00967486Y00457708
X00972312Y00462534
X00971296Y00473964
X00961644
X00951992
X0094234
X00932688
X00923036
X00913384
X00908558Y0047879
X00898906
X0089408Y00473964
X00884428
Y00464312
Y0045466
X00879602Y00449834
X00884428Y00445008
Y00435356
X00879602Y00440182
X00874776Y00435356
Y00445008
X0086995Y00440182
X00865124Y00435356
Y00445008
Y0045466
X00855472
Y00445008
Y00435356
X00850646Y00440182
X00860298
Y00449834
X00850646
Y00459486
X00860298
X0086995
X00879602
X00874776Y0045466
Y00464312
X00879602Y00469138
X0086995
X00865124Y00464312
X00855472
X00850646Y00469138
X00860298
Y0047879
Y00488442
X00855472Y00493268
X00865124
X00874776
X0086995Y00488442
X00865124Y00483616
X00855472
Y00473964
X00865124
X0086995Y0047879
X00874776Y00483616
Y00473964
X00879602Y0047879
Y00488442
X00884428Y00493268
X00889254Y00488442
X0089408Y00493268
X00898906Y00488442
X0089408Y00483616
X00889254Y0047879
X00884428Y00483616
X00903732
Y00473964
Y00493268
X00908558Y00488442
X00913384Y00493268
X00923036
X0091821Y00488442
X00923036Y00483616
X0091821Y0047879
X00913384Y00483616
X00927862Y00488442
X00932688Y00483616
X00927862Y0047879
X00937514
X0094234Y00483616
Y00493268
X00932688
X00937514Y00488442
X00947166
Y0047879
X00951992Y00483616
Y00493268
X00956818Y00488442
X00961644Y00483616
X00956818Y0047879
X0096647
Y00488442
X00961644Y00493268
X00971296
Y00483616
X00976122Y00488442
X00980948Y00483616
X00976122Y0047879
X00980948Y00473964
X00985774Y0047879
Y00488442
X00980948Y00493268
X00984758Y00512572
X00965454
Y00531876
X0094615
X00936498Y00541528
X00917194
X0089789
X00888238Y0055118
X00878586Y00541528
X00868934Y00531876
X00888238
X00889514Y00520707
X00894513Y00523057
X00899514Y00520712
X00909514
X00919514
X00914513Y00507491
X00904513
X00907542Y00531876
X00926846
Y0055118
X00907542
X0089789Y00560832
X00888238Y00570484
X00868934
X00878586Y00560832
X00868934Y0055118
X00837946Y00555498
X00818642
X00799338
X0080899Y00545846
Y0056515
X00828294
Y00545846
Y0051308
Y00493776
X00818642Y00503428
X00799338
X0080899Y00493776
Y0051308
X00837946Y00503428
X00840232Y00469392
Y00464566
X00835406
X0083058
Y00469392
X00825754
X00820928
X00816102
X00811276
Y00464566
X00816102
Y0045974
X00820928
Y00464566
X00825754
Y0045974
Y00454914
X00820928
X00816102
X00811276
Y0045974
X0083058
X00835406
X00840232
Y00454914
X00835406
X0083058
X00835406Y00469392
X0086995Y00449834
X00870712Y00416306
X0086106
X00865886Y0041148
X00870712Y00406654
Y00399288
X0086106
Y00406654
X0084074Y00406908
Y00402082
Y00397256
X00835914
X00831088
X00826262
X00821436
X0081661
X00811784
Y00402082
X0081661
X00821436
X00826262
X00831088
X00835914
Y00406908
X00831088
X00826262
X00821436
X0081661
X00811784
X00800608Y00405756
Y00415408
Y0042506
X00795782Y00420234
Y00410582
X00917956Y00406654
Y00399288
X00927608
Y00406654
X00922782Y0041148
X00917956Y00416306
X00927608
X00933704Y00433578
X00943356
X00953008
X00957834Y00438404
X0096266Y0044323
X00957834Y00448056
X00953008Y00452882
X00957834Y00457708
X00948182
Y00448056
Y00438404
X00953008Y0044323
X00943356
X00933704
X0093853Y00438404
Y00448056
X00943356Y00452882
Y00462534
X00953008
X0093853Y00457708
X00933704Y00452882
Y00462534
X00941587Y0040386
X00960628Y0040005
X00984218Y00410107
X00989736Y00409844
X00986972Y00416306
X00992124Y00471424
X0104267Y00473964
X01052322Y00483616
X01061974Y00493268
Y00473964
X0104267Y00493268
Y00512572
X01052322Y0050292
Y00522224
X01033018
X01023366Y00531876
X01004062
Y00512572
X0099441Y00522224
X00975106
X00984758Y00531876
X00975106Y00541528
X00955802
X0094615Y0055118
Y00570484
X00926846
X00907542
X00917194Y00560832
X00936498
X00955802
X00965454Y00570484
Y0055118
X00975106Y00560832
X00984758Y00570484
X01004062
X0099441Y00560832
Y00541528
X01013714
Y00522224
X01023366Y00512572
X0104267Y00531876
X01061974
Y00512572
Y0055118
X0104267
X01033018Y00541528
X01052322
Y00560832
X01033018
X01023366Y00570484
X01013714Y00560832
X01023366Y0055118
X01004062
X00984758
X0104267Y00570484
X01061974
X00789686Y0056515
X00770382
X00751078
X00731774
X0071247
X00693166
X00673862
X00654558
X00635254
X0061595
X00596646
X00577342
X00558038
X00538734
X0051943
X00500126
X00480822
X00461518
X00442214
X0042291
X00403606
Y00545846
X00413258Y00555498
X0042291Y00545846
X00432562Y00555498
X00442214Y00545846
X00451866Y00555498
X00461518Y00545846
X0047117Y00555498
X00480822Y00545846
X00490474Y00555498
X00509778
X0051943Y00545846
X00500126
Y0051308
X00480822
X00461518
X00442214
X0042291
X00403606
Y00493776
X00413258Y00503428
X00432562
X0042291Y00493776
X00442214
X00451866Y00503428
X0047117
X00480822Y00493776
X00461518
Y00469392
X00466344
X0047117
X00475996
X00480822
X00485648
X00490474
Y00464566
Y0045974
X00485648
Y00464566
X00480822
Y0045974
X00475996
Y00464566
X0047117
Y0045974
X00466344
Y00464566
X00461518
Y0045974
Y00454914
X00466344
X0047117
X00475996
X00480822
X00485648
X00490474
X00447548Y0044958
X00437896
X00442722Y00444754
X00447548Y00439928
X00437896
X00423926Y00454914
X004191
X00414274
X00409448
X00404622
X00399796
Y0045974
Y00464566
Y00469392
X00404622
X00409448
X00414274
X004191
X00423926
Y00464566
X004191
X00414274
X00409448
X00404622
Y0045974
X00409448
X00414274
X004191
X00423926
X00424434Y00406908
Y00402082
Y00397256
X00419608
X00414782
X00409956
X0040513
X00400304
Y00402082
X0040513
X00409956
X00414782
X00419608
Y00406908
X00414782
X00409956
X0040513
X00400304
X0046101
Y00402082
Y00397256
X00465836
X00470662
X00475488
X00480314
X0048514
X00489966
Y00402082
X0048514
X00480314
X00475488
X00470662
X00465836
Y00406908
X00470662
X00475488
X00480314
X0048514
X00489966
X00542798Y00431918
X0055245
X00557276Y00436744
X00562102Y0044157
Y00431918
Y00451222
X0055245
X00547624Y00446396
X00542798Y00451222
Y0044157
X0055245
X00557276Y00446396
X00547624Y00436744
X00538734Y00493776
X0051943
X00500126
X00490474Y00503428
X00509778
X0051943Y0051308
X00538734
X00529082Y00503428
X00548386
X00558038Y0051308
Y00493776
X0056769Y00503428
X00577342Y0051308
Y00493776
X00586994Y00503428
X00596646Y0051308
X00606298Y00503428
X00596646Y00493776
X0061595
Y0051308
X00635254
X00625602Y00503428
X00644906
X00635254Y00493776
X00654558
Y0051308
X00673862
X0066421Y00503428
X00673862Y00493776
X00683514Y00503428
X00693166Y0051308
Y00493776
X00702818Y00503428
X0071247Y0051308
X00731774
X00722122Y00503428
X0071247Y00493776
X00731774
X00741426Y00503428
X00751078Y0051308
Y00493776
X0076073Y00503428
X00770382Y00493776
Y0051308
X00780034Y00503428
X00789686Y00493776
Y0051308
Y00545846
X00780034Y00555498
X0076073
X00741426
X00722122
X00702818
X00683514
X0066421
X00644906
X00625602
X00606298
X00586994
X0056769
X00548386
X00529082
X00538734Y00545846
X00558038
X00577342
X00596646
X0061595
X00635254
X00654558
X00673862
X00693166
X0071247
X00731774
X00751078
X00770382
X007366Y00451222
Y0044157
Y00431918
X00726948
X00717296
Y0044157
Y00451222
X00726948
X00731774Y00446396
X00726948Y0044157
X00722122Y00446396
Y00436744
X00731774
X00781304Y0042506
Y00415408
X00790956
Y00405756
X00781304
X0078613Y00410582
Y00420234
X00790956Y0042506
X00395478Y00406908
Y00402082
Y00397256
X0039497Y00454914
Y0045974
Y00464566
Y00469392
X00393954Y00503428
X00384302Y0051308
X00364998
X00345694
X0032639
X00307086
X00287782
X00268478
X00249174
X0022987
X00210566
X00191262
X00171958
X00152654
X0013335
X00114046
X00104394Y00503428
X0008509
X00065786
X00056134Y00493776
X0003683
X00046482Y00503428
X0003683Y0051308
Y00545846
X00056134
Y0056515
X00065786Y00555498
X00075438Y0056515
X0008509Y00555498
X00094742Y00545846
X00075438
X00094742Y0056515
X00104394Y00555498
X00114046Y0056515
X0013335
X00123698Y00555498
X0013335Y00545846
X00114046
X00143002Y00555498
X00152654Y0056515
X00171958
X00162306Y00555498
X00171958Y00545846
X00152654
X0018161Y00555498
X00191262Y0056515
X00210566
X00200914Y00555498
X00210566Y00545846
X00191262
X00220218Y00555498
X0022987Y0056515
X00239522Y00555498
X00249174Y00545846
X0022987
X00249174Y0056515
X00268478
X00258826Y00555498
X0027813
X00287782Y0056515
Y00545846
X00268478
X00297434Y00555498
X00307086Y00545846
Y0056515
X0032639
X00316738Y00555498
X00336042
X00345694Y00545846
X0032639
X00345694Y0056515
X00364998
X00355346Y00555498
X0037465
X00384302Y0056515
X00393954Y00555498
X00384302Y00545846
X00364998
X00355346Y00503428
X00336042
X00316738
X00297434
X0027813
X00258826
X00239522
X00220218
X00200914
X0018161
X00162306
X00143002
X00123698
X0013335Y00493776
X00114046
X00094742
X00075438
X00074168Y00469392
Y00464566
Y0045974
Y00454914
X00069342
X00064516
X0005969
X00054864
X00050038
X00045212
Y0045974
X00050038
Y00464566
X00045212
Y00469392
X00050038
X00054864
Y00464566
Y0045974
X0005969
X00064516
X00069342
Y00464566
X00064516
X0005969
Y00469392
X00064516
X00069342
X00084836Y0042418
X00089662Y00419354
X00099314
Y00409702
X00094488Y00414528
X00084836
Y00404876
X00094488
X0010414
Y00414528
Y0042418
X00094488
X00089662Y00409702
X0007366Y00406908
Y00402082
X00068834
X00064008
Y00406908
X00068834
X00059182
X00054356
Y00402082
X00059182
Y00397256
X00064008
X00068834
X0007366
X00054356
X0004953
Y00402082
Y00406908
X00044704
Y00402082
Y00397256
X00148844Y00431038
X0015367Y00435864
Y00445516
X00158496Y00450342
X00148844
Y0044069
X00158496
X00168148
Y00450342
X00163322Y00445516
Y00435864
X00158496Y00431038
X00168148
X00171958Y00493776
X00152654
X00191262
X00210566
X0022987
X00249174
X00268478
X00287782
X00307086
X0032639
X00345694
X00364998
X0037465Y00503428
X00384302Y00493776
X00342646Y00450342
X0033782Y00445516
X00332994Y0044069
X00328168Y00435864
Y00445516
X00323342Y0044069
Y00450342
X00332994
X00342646Y0044069
Y00431038
X0033782Y00435864
X00332994Y00431038
X00323342
X00046482Y00555498
X0003683Y0056515
T04
X00878114Y005253
X00936013
M30
