%TF.GenerationSoftware,Altium Limited,Altium Designer,24.0.1 (36)*%
G04 Layer_Physical_Order=1*
G04 Layer_Color=152*
%FSLAX45Y45*%
%MOMM*%
%TF.SameCoordinates,C70C49FB-F700-4022-ADB5-B9B597CAE3A5*%
%TF.FilePolarity,Positive*%
%TF.FileFunction,Copper,L1,Top,Signal*%
%TF.Part,Single*%
G01*
G75*
%TA.AperFunction,SMDPad,CuDef*%
%ADD10R,0.50000X0.50000*%
%TA.AperFunction,ConnectorPad*%
%ADD11R,2.99999X2.50000*%
%ADD12R,2.99999X3.49999*%
%TA.AperFunction,SMDPad,CuDef*%
%ADD13R,1.02000X1.90000*%
%ADD14R,0.85000X0.75000*%
%ADD15R,0.75000X0.85000*%
%ADD16R,1.15000X0.32500*%
%ADD17O,1.15000X0.32500*%
%ADD18O,0.32500X1.15000*%
%ADD19R,1.00000X1.00000*%
%ADD20R,0.50000X0.40000*%
%ADD21R,0.40000X0.50000*%
%ADD22O,1.00000X2.70000*%
%ADD23R,1.00000X2.70000*%
%TA.AperFunction,ConnectorPad*%
%ADD24R,1.00000X1.80000*%
%TA.AperFunction,SMDPad,CuDef*%
%ADD25R,0.66500X0.20000*%
%ADD26R,0.20000X0.66500*%
%ADD27R,2.69999X2.69999*%
%ADD28R,1.20000X0.65000*%
%ADD29R,4.50000X4.70000*%
%ADD30R,0.65000X1.20000*%
%ADD31R,4.70000X4.50000*%
%ADD32R,0.50000X0.50000*%
%ADD33R,0.75001X0.40000*%
%ADD34R,0.80000X0.40000*%
%ADD35R,2.00000X2.59999*%
%ADD36R,1.70101X1.20752*%
%ADD37R,1.70000X5.70000*%
%TA.AperFunction,ConnectorPad*%
%ADD38R,0.60000X1.24000*%
%ADD39R,0.30000X1.24000*%
%TA.AperFunction,SMDPad,CuDef*%
%ADD40R,3.20000X1.65000*%
%ADD41R,1.65000X3.20000*%
%TA.AperFunction,Conductor*%
%ADD42C,0.15240*%
%ADD43C,0.20320*%
%ADD44C,0.50800*%
%ADD45C,0.25400*%
%ADD46C,0.88900*%
%ADD47R,1.70180X4.87680*%
%TA.AperFunction,ComponentPad*%
%ADD48O,1.00000X2.10000*%
%ADD49O,1.00000X1.80000*%
%ADD50C,0.65000*%
G04:AMPARAMS|DCode=51|XSize=4mm|YSize=1mm|CornerRadius=0.25mm|HoleSize=0mm|Usage=FLASHONLY|Rotation=90.000|XOffset=0mm|YOffset=0mm|HoleType=Round|Shape=RoundedRectangle|*
%AMROUNDEDRECTD51*
21,1,4.00000,0.50000,0,0,90.0*
21,1,3.50000,1.00000,0,0,90.0*
1,1,0.50000,0.25000,1.75000*
1,1,0.50000,0.25000,-1.75000*
1,1,0.50000,-0.25000,-1.75000*
1,1,0.50000,-0.25000,1.75000*
%
%ADD51ROUNDEDRECTD51*%
%TA.AperFunction,ViaPad*%
%ADD52C,0.40000*%
G36*
X1915160Y4843780D02*
X2105660D01*
X2141220Y4879340D01*
X2590800D01*
X2628899Y4841240D01*
X2773680D01*
X2811780Y4879340D01*
X3271520D01*
X3309620Y4841240D01*
X3474720D01*
X3512820Y4879340D01*
X3832860D01*
X3865880Y4846320D01*
Y3870960D01*
X3911600Y3825240D01*
X4940300D01*
X4980940Y3865880D01*
X4980940Y4848860D01*
X5011420Y4879340D01*
X5364480D01*
X5402580Y4841240D01*
X5524500D01*
X5530000Y4846740D01*
X5532169D01*
Y4848909D01*
X5562600Y4879340D01*
X6052820D01*
X6090920Y4841240D01*
X6233160D01*
X6271260Y4879340D01*
X6751320D01*
X6789420Y4841240D01*
X6924040D01*
X6957060Y4874260D01*
X7437120D01*
X7472680Y4838700D01*
X7609840D01*
X7650480Y4879340D01*
X8002761D01*
X8037257Y4844843D01*
Y3880423D01*
X8087364Y3830315D01*
X8532950Y3830315D01*
X8569795Y3793470D01*
Y3659211D01*
X8525004Y3614420D01*
X8046308D01*
X7990051Y3558162D01*
Y3054831D01*
X7917180Y2981960D01*
X6947236D01*
X6749115Y2783840D01*
X5107940Y2783840D01*
X5036820Y2854960D01*
Y3566160D01*
X4973320Y3629660D01*
X3888740D01*
X3812540Y3553459D01*
Y3060700D01*
X3733800Y2981960D01*
X2796540Y2981960D01*
X2583180Y2768600D01*
X906780Y2768600D01*
X863600Y2811780D01*
X861060D01*
Y3563620D01*
X805180Y3619500D01*
X327660D01*
X284480Y3662680D01*
Y3792220D01*
X322580Y3830320D01*
X767080D01*
X815340Y3878580D01*
Y4553728D01*
X816596Y4556759D01*
Y4556760D01*
D01*
Y4850243D01*
X845693Y4879340D01*
X1209040D01*
X1244600Y4843780D01*
X1391920D01*
X1427480Y4879340D01*
X1879599Y4879340D01*
X1915160Y4843780D01*
D02*
G37*
G36*
X8448040Y5029200D02*
Y4554220D01*
X8422640Y4528820D01*
X8079740D01*
X8054340Y4554220D01*
X8054340Y4853940D01*
X8011160Y4897120D01*
X4998720D01*
X4963160Y4861560D01*
Y4554220D01*
X4937760Y4528820D01*
X4592320D01*
X4566920Y4554220D01*
X4566920Y4864100D01*
X4533900Y4897120D01*
X4317122Y4897119D01*
X4287520Y4867517D01*
Y4551680D01*
X4264660Y4528820D01*
X3916680D01*
X3891280Y4554220D01*
Y4861560D01*
X3855720Y4897120D01*
X838200D01*
X800100Y4859020D01*
Y4556760D01*
X772159Y4528820D01*
X312420Y4528820D01*
X261631Y4579609D01*
Y5087631D01*
X332740Y5158740D01*
X8318500D01*
X8448040Y5029200D01*
D02*
G37*
G36*
X10025380Y4632960D02*
Y4318000D01*
X9999980Y4292600D01*
X9334500D01*
X9306560Y4320540D01*
Y4643120D01*
X9339580Y4676140D01*
X9982200D01*
X10025380Y4632960D01*
D02*
G37*
G36*
X10670350Y5730454D02*
X10713845Y5712438D01*
X10752991Y5686282D01*
X10786282Y5652991D01*
X10812437Y5613846D01*
X10830454Y5570350D01*
X10839639Y5524175D01*
Y5500635D01*
Y4334699D01*
X10795000Y4290060D01*
X10342880D01*
X10314940Y4318000D01*
X10314940Y5024120D01*
X10271760Y5067300D01*
X9370060Y5067300D01*
X9357360Y5080000D01*
Y5199659D01*
X9370739D01*
X9390343Y5207780D01*
X9405348Y5222785D01*
X9413469Y5242389D01*
Y5263609D01*
X9405348Y5283214D01*
X9390343Y5298219D01*
X9370739Y5306339D01*
X9349519D01*
X9329914Y5298219D01*
X9314909Y5283214D01*
X9306789Y5263609D01*
Y5242389D01*
X9311527Y5230951D01*
X9303041Y5218251D01*
X9228674D01*
X9225018Y5227079D01*
X9215105Y5236992D01*
X9202153Y5242357D01*
X9188133D01*
X9175181Y5236992D01*
X9165268Y5227079D01*
X9161611Y5218251D01*
X9128675D01*
X9125018Y5227079D01*
X9115105Y5236992D01*
X9102153Y5242357D01*
X9088133D01*
X9075181Y5236992D01*
X9065268Y5227079D01*
X9061612Y5218251D01*
X9028675D01*
X9025018Y5227079D01*
X9015105Y5236992D01*
X9002153Y5242357D01*
X8988134D01*
X8979817Y5238912D01*
X8975004Y5250531D01*
X8965091Y5260444D01*
X8952139Y5265809D01*
X8938119D01*
X8925167Y5260444D01*
X8915254Y5250531D01*
X8910427Y5238878D01*
X8902147Y5242308D01*
X8888128D01*
X8875176Y5236943D01*
X8865263Y5227030D01*
X8861626Y5218251D01*
X8838223D01*
X8829737Y5230951D01*
X8834476Y5242389D01*
Y5263609D01*
X8826355Y5283214D01*
X8811350Y5298219D01*
X8791746Y5306339D01*
X8770526D01*
X8750921Y5298219D01*
X8735916Y5283214D01*
X8727796Y5263609D01*
Y5242389D01*
X8735916Y5222785D01*
X8750921Y5207780D01*
X8770526Y5199659D01*
X8780780D01*
Y5080000D01*
X8768080Y5067300D01*
X8542020D01*
X8336280Y5273040D01*
X337820D01*
X261631Y5349229D01*
Y5524175D01*
X270816Y5570350D01*
X288832Y5613846D01*
X314988Y5652991D01*
X348279Y5686282D01*
X387424Y5712437D01*
X430920Y5730454D01*
X477095Y5739639D01*
X10624175D01*
X10670350Y5730454D01*
D02*
G37*
G36*
X8835005Y5202072D02*
X8836662Y5202402D01*
X8838223Y5201755D01*
X8849308D01*
X8860000Y5191063D01*
Y5072362D01*
X8859999Y5068395D01*
X8866175Y5062219D01*
X8870141Y5062220D01*
X9012241D01*
X9015256Y5054943D01*
X9025169Y5045030D01*
X9038121Y5039665D01*
X9052140D01*
X9065092Y5045030D01*
X9075005Y5054943D01*
X9078020Y5062220D01*
X9112241D01*
X9115255Y5054943D01*
X9125168Y5045030D01*
X9138121Y5039665D01*
X9152140D01*
X9165092Y5045030D01*
X9175005Y5054943D01*
X9178020Y5062220D01*
X9273957D01*
X9280218Y5068480D01*
Y5201755D01*
X9303041D01*
X9304602Y5202402D01*
X9306259Y5202072D01*
X9307470Y5202881D01*
X9338619D01*
X9340846Y5200654D01*
X9340846Y5067834D01*
X9344886Y5063794D01*
Y5063771D01*
X9344909D01*
X9359160Y5049520D01*
X10266211D01*
X10297160Y5018571D01*
Y4287520D01*
X10300165Y4284515D01*
Y4282703D01*
X10301977D01*
X10314940Y4269740D01*
X10398760D01*
X10419080Y4249420D01*
Y4074160D01*
X10408920Y4064000D01*
X10210800D01*
X10167620Y4107180D01*
X10167620Y4229101D01*
X10122460Y4274260D01*
Y4276680D01*
X10120040D01*
X10050780Y4345940D01*
Y4640580D01*
X9994900Y4696460D01*
X9898380Y4792979D01*
Y4909820D01*
X9837420Y4970780D01*
X8834120D01*
X8799922Y5004977D01*
Y5196786D01*
X8806018Y5202881D01*
X8833794Y5202882D01*
X8835005Y5202072D01*
D02*
G37*
G36*
X4587240Y4279901D02*
X4587240Y4112259D01*
X4607559Y4091940D01*
X4922520D01*
X4950460Y4064000D01*
Y3886200D01*
X4914900Y3850640D01*
X4545637Y3850639D01*
X4543702Y3852575D01*
X4530750Y3857940D01*
X4516730D01*
X4503778Y3852575D01*
X4501843Y3850639D01*
X4488180D01*
X4446018Y3892802D01*
Y4278377D01*
X4470399Y4302760D01*
X4564379D01*
X4587240Y4279901D01*
D02*
G37*
G36*
X8571482Y4278377D02*
Y3892802D01*
X8529320Y3850639D01*
X8102600Y3850640D01*
X8067040Y3886200D01*
Y4064000D01*
X8094980Y4091940D01*
X8409941D01*
X8430260Y4112259D01*
X8430260Y4279901D01*
X8453121Y4302760D01*
X8547101D01*
X8571482Y4278377D01*
D02*
G37*
G36*
X4408422D02*
Y3892802D01*
X4366260Y3850639D01*
X4352597D01*
X4350662Y3852575D01*
X4337710Y3857940D01*
X4323690D01*
X4310738Y3852575D01*
X4308803Y3850639D01*
X3939540Y3850640D01*
X3903980Y3886200D01*
Y4064000D01*
X3931920Y4091940D01*
X4246881D01*
X4267200Y4112259D01*
X4267200Y4279901D01*
X4290061Y4302760D01*
X4384041D01*
X4408422Y4278377D01*
D02*
G37*
G36*
X424180Y4279901D02*
X424180Y4112259D01*
X444499Y4091940D01*
X759460D01*
X787400Y4064000D01*
Y3886200D01*
X751840Y3850640D01*
X325120Y3850639D01*
X282958Y3892802D01*
Y4278377D01*
X307339Y4302760D01*
X401319D01*
X424180Y4279901D01*
D02*
G37*
G36*
X9296400Y4213860D02*
Y4183380D01*
Y3837940D01*
X9278620Y3820160D01*
X9169400D01*
X9156700Y3832860D01*
Y4241800D01*
X9166860Y4251960D01*
X9258300D01*
X9296400Y4213860D01*
D02*
G37*
G36*
X8712200Y4251960D02*
Y3830320D01*
X8702040Y3820160D01*
X8610600D01*
X8597900Y3832860D01*
Y3911600D01*
Y4249420D01*
X8610600Y4262120D01*
X8702040D01*
X8712200Y4251960D01*
D02*
G37*
G36*
X10751820Y4244340D02*
Y3822700D01*
X10726420Y3797300D01*
X10355580D01*
X10342880Y3810000D01*
Y3944620D01*
X10359139Y3960879D01*
X10424207D01*
X10433126Y3962653D01*
X10440688Y3967706D01*
X10451030Y3978048D01*
X10456082Y3985610D01*
X10457856Y3994529D01*
Y4083520D01*
X10456082Y4092440D01*
X10451030Y4100001D01*
X10449560Y4101471D01*
Y4249420D01*
X10467340Y4267200D01*
X10728960D01*
X10751820Y4244340D01*
D02*
G37*
G36*
X9878059Y4902200D02*
X9878060Y4757419D01*
X9827259Y4706620D01*
X8930640D01*
X8882380Y4658360D01*
Y4343400D01*
D01*
X8938260Y4287520D01*
X9067800D01*
X9108440Y4246880D01*
Y3812125D01*
X9103145Y3806830D01*
X9097780Y3793878D01*
Y3779859D01*
X9103145Y3766906D01*
X9108440Y3761612D01*
Y3309620D01*
X9088120Y3289300D01*
X8619840D01*
X8598300Y3310840D01*
Y3380840D01*
Y3444340D01*
Y3514340D01*
Y3577340D01*
Y3647340D01*
Y3710840D01*
Y3780840D01*
X8619840Y3802380D01*
X8717280D01*
X8737600Y3822700D01*
Y3877859D01*
X8742360Y3889350D01*
Y3903370D01*
X8737600Y3914861D01*
Y3974379D01*
X8742360Y3985870D01*
Y3999890D01*
X8737600Y4011381D01*
Y4048039D01*
X8742360Y4059530D01*
Y4073550D01*
X8737600Y4085041D01*
Y4144559D01*
X8742360Y4156050D01*
Y4170070D01*
X8737600Y4181561D01*
Y4259581D01*
X8682874Y4314305D01*
X8566035Y4314304D01*
X8481060Y4399280D01*
Y4902200D01*
X8531860Y4953000D01*
X9827260D01*
X9878059Y4902200D01*
D02*
G37*
G36*
X10660380Y3601720D02*
Y3037840D01*
X10581640Y2959100D01*
X10327640D01*
X10256520Y2887980D01*
X10015220D01*
X9987280Y2860040D01*
Y2773680D01*
X9972040Y2758440D01*
X9799320D01*
X9784080Y2773680D01*
Y3342640D01*
X9796780Y3355340D01*
X9974580D01*
X9987280Y3342640D01*
Y3241040D01*
X10013950Y3214370D01*
X10227310Y3214370D01*
X10375900Y3362960D01*
X10375899Y3609339D01*
X10401300Y3634740D01*
X10627360D01*
X10660380Y3601720D01*
D02*
G37*
G36*
X8742680Y3233420D02*
Y2880360D01*
X8729980Y2867660D01*
X8597900D01*
X8585200Y2880360D01*
Y3238500D01*
X8597900Y3251200D01*
X8724900D01*
X8742680Y3233420D01*
D02*
G37*
G36*
X9301480Y3637280D02*
Y3408680D01*
X9329420Y3380740D01*
X9507220D01*
X9532620Y3355340D01*
Y2766060D01*
X9510258Y2743698D01*
X8795587D01*
X8763000Y2776285D01*
Y3233420D01*
X8788400Y3258820D01*
X9108440D01*
X9149080Y3299460D01*
Y3637280D01*
X9164319Y3652519D01*
X9286240Y3652520D01*
X9301480Y3637280D01*
D02*
G37*
G36*
X7960541Y2813940D02*
X7975780Y2798700D01*
X7975780Y2328800D01*
X7947840Y2300860D01*
X7701460D01*
X7681141Y2321180D01*
X7681140Y2796160D01*
X7698921Y2813941D01*
X7960541Y2813940D01*
D02*
G37*
G36*
X3795461D02*
X3810700Y2798700D01*
X3810700Y2328800D01*
X3782760Y2300860D01*
X3536380D01*
X3516061Y2321180D01*
X3516060Y2796160D01*
X3533841Y2813941D01*
X3795461Y2813940D01*
D02*
G37*
G36*
X5338519Y2532380D02*
X5338520Y2057400D01*
X5320739Y2039619D01*
X5059119Y2039620D01*
X5043880Y2054861D01*
X5043880Y2524760D01*
X5071820Y2552700D01*
X5318200D01*
X5338519Y2532380D01*
D02*
G37*
G36*
X1173479D02*
X1173480Y2057400D01*
X1155699Y2039619D01*
X894079Y2039620D01*
X878840Y2054861D01*
X878840Y2524760D01*
X906780Y2552700D01*
X1153160D01*
X1173479Y2532380D01*
D02*
G37*
G36*
X5004980Y3543300D02*
Y2037640D01*
X4984100Y2016760D01*
X4633580D01*
X4611280Y2039060D01*
Y2143760D01*
X4590960Y2164080D01*
X4479200D01*
X4451260Y2192020D01*
Y3553460D01*
X4494440Y3596640D01*
X4951640Y3596640D01*
X5004980Y3543300D01*
D02*
G37*
G36*
X841300D02*
Y2037640D01*
X820420Y2016760D01*
X469900D01*
X447600Y2039060D01*
Y2143760D01*
X427280Y2164080D01*
X315520D01*
X287580Y2192020D01*
Y3553460D01*
X330760Y3596640D01*
X787960Y3596640D01*
X841300Y3543300D01*
D02*
G37*
G36*
X8565860Y3553460D02*
Y2192020D01*
Y2073620D01*
X8509000Y2016760D01*
X8179637D01*
X8156780Y2039617D01*
Y2133600D01*
X8128840Y2161540D01*
X8034860D01*
X8012000Y2184400D01*
Y3543160D01*
X8065480Y3596640D01*
X8522680D01*
X8565860Y3553460D01*
D02*
G37*
G36*
X4401960D02*
Y2192020D01*
Y2044840D01*
X4373880Y2016760D01*
X4015736D01*
X3992880Y2039617D01*
Y2133600D01*
X3964940Y2161540D01*
X3870960D01*
X3848100Y2184400D01*
Y3543160D01*
X3901580Y3596640D01*
X4358780D01*
X4401960Y3553460D01*
D02*
G37*
G36*
X6700520Y1752600D02*
X6319520D01*
Y2133600D01*
X6700520D01*
Y1752600D01*
D02*
G37*
G36*
X2534920D02*
X2153920D01*
Y2133600D01*
X2534920D01*
Y1752600D01*
D02*
G37*
G36*
X7978140Y1549400D02*
Y1313180D01*
X7962900Y1297940D01*
X7853680Y1297940D01*
X7838440Y1313179D01*
Y1551940D01*
X7851140Y1564640D01*
X7962900Y1564640D01*
X7978140Y1549400D01*
D02*
G37*
G36*
X5166360Y1564640D02*
X5179060Y1551940D01*
Y1313179D01*
X5163820Y1297940D01*
X5054600Y1297940D01*
X5039360Y1313180D01*
Y1549400D01*
X5054600Y1564640D01*
X5166360Y1564640D01*
D02*
G37*
G36*
X3812540Y1549400D02*
Y1313180D01*
X3797300Y1297940D01*
X3688080Y1297940D01*
X3672840Y1313179D01*
Y1551940D01*
X3685540Y1564640D01*
X3797300Y1564640D01*
X3812540Y1549400D01*
D02*
G37*
G36*
X1000760Y1564640D02*
X1013460Y1551940D01*
Y1313179D01*
X998220Y1297940D01*
X889000Y1297940D01*
X873760Y1313180D01*
Y1549400D01*
X889000Y1564640D01*
X1000760Y1564640D01*
D02*
G37*
G36*
X8010161Y1953260D02*
X8513081D01*
X8551180Y1915160D01*
Y1455420D01*
X8534293Y1438533D01*
X8431213D01*
X8406400Y1413720D01*
Y1310640D01*
X8383540Y1287780D01*
X8383541D01*
X8406401Y1310640D01*
X8429261Y1287780D01*
X8463427D01*
X8472890Y1283860D01*
X8486910D01*
X8496373Y1287780D01*
X8534400D01*
X8551181Y1271000D01*
Y880379D01*
X8496299Y825500D01*
X373381D01*
X304800Y894079D01*
Y1270000D01*
X322580Y1287780D01*
X358067D01*
X367530Y1283860D01*
X381550D01*
X391013Y1287780D01*
X426720D01*
X449580Y1310640D01*
D01*
Y1413720D01*
X424768Y1438533D01*
X321687D01*
X304800Y1455420D01*
Y1915160D01*
X342900Y1953260D01*
X845820D01*
X861060Y1968500D01*
X995680D01*
X1010920Y1953260D01*
X1010920Y1605280D01*
X988751Y1583111D01*
X879531D01*
X858520Y1562100D01*
Y1305560D01*
X840740Y1287780D01*
X840741D01*
X850144Y1297183D01*
X862096Y1301515D01*
X877336Y1286276D01*
X878136Y1285944D01*
X962280Y1201800D01*
X3729801D01*
X3833560Y1305560D01*
X3833560D01*
Y1562100D01*
X3812549Y1583111D01*
X3703329D01*
X3681160Y1605280D01*
X3681160Y1953260D01*
X3696400Y1968500D01*
X3831020D01*
X3846260Y1953260D01*
X5009500D01*
X5024740Y1968500D01*
X5159360D01*
X5174600Y1953260D01*
X5174600Y1605280D01*
X5152431Y1583111D01*
X5043211D01*
X5022200Y1562100D01*
Y1305560D01*
X5004420Y1287780D01*
X5004420D01*
X5022200Y1305560D01*
X5125960Y1201800D01*
X7893701D01*
X7997461Y1305559D01*
X7997460Y1305560D01*
Y1562100D01*
X7976449Y1583111D01*
X7867229D01*
X7845060Y1605280D01*
X7845061Y1953260D01*
X7860301Y1968500D01*
X7994920D01*
X8010161Y1953260D01*
D02*
G37*
G36*
X10839639Y3739961D02*
Y2742119D01*
Y2107119D01*
X10749280Y2016760D01*
Y368300D01*
X10650220Y269240D01*
X9789160D01*
X9748520Y309880D01*
Y2058754D01*
X9748520Y2058754D01*
X9748520Y2268220D01*
X9921240Y2440940D01*
X10647680D01*
X10674600Y2467860D01*
X10675820D01*
Y2469080D01*
X10706100Y2499360D01*
Y2677160D01*
X10685780Y2697480D01*
X10347960D01*
X10292080Y2753360D01*
X10035540D01*
X10015220Y2773680D01*
Y2854960D01*
X10030460Y2870200D01*
X10269941D01*
X10342176Y2942435D01*
X10603075D01*
X10683240Y3022600D01*
Y3601713D01*
X10672381Y3612572D01*
X10672044Y3613384D01*
X10639024Y3646404D01*
X10638213Y3646740D01*
X10596880Y3688073D01*
Y3763611D01*
X10613076Y3779807D01*
X10799792D01*
X10839639Y3739961D01*
D02*
G37*
G36*
X9654540Y2113279D02*
X9692640Y2075180D01*
Y309880D01*
X9652000Y269240D01*
X8790940D01*
X8691880Y368300D01*
Y2016760D01*
X8788400Y2113280D01*
X9654540Y2113279D01*
D02*
G37*
G36*
X8551180Y663939D02*
Y316500D01*
X8496311Y261631D01*
X477095D01*
X430920Y270816D01*
X387424Y288832D01*
X348279Y314988D01*
X314988Y348279D01*
X288832Y387424D01*
X270816Y430920D01*
X261631Y477095D01*
X261631Y500635D01*
Y635011D01*
X347980Y721360D01*
X8493760D01*
X8551180Y663939D01*
D02*
G37*
%LPC*%
G36*
X4588447Y1438533D02*
X4267313D01*
X4242500Y1413720D01*
Y1294046D01*
X4242500D01*
X4242500Y1228660D01*
X4269360Y1201800D01*
X4585080D01*
X4613260Y1229980D01*
Y1287780D01*
X4613260D01*
Y1413720D01*
X4588447Y1438533D01*
D02*
G37*
%LPD*%
G36*
X4596764Y1406587D02*
Y1287780D01*
X4596764Y1287779D01*
Y1236812D01*
X4579152Y1219200D01*
X4275289D01*
X4259369Y1235120D01*
X4259369Y1404409D01*
X4276997Y1422037D01*
X4581313D01*
X4596764Y1406587D01*
D02*
G37*
%LPC*%
G36*
X10652760Y2113280D02*
X9819640D01*
X9819640Y2113279D01*
X10652760Y2113280D01*
D02*
G37*
%LPD*%
D10*
X6670543Y2488999D02*
D03*
Y2573999D02*
D03*
X6350503Y2488999D02*
D03*
Y2573999D02*
D03*
X2504943Y2488999D02*
D03*
Y2573999D02*
D03*
X2184903Y2488999D02*
D03*
Y2573999D02*
D03*
X2557780Y1402080D02*
D03*
Y1312080D02*
D03*
X2344420Y1402080D02*
D03*
Y1312080D02*
D03*
X2237740Y1402080D02*
D03*
Y1312080D02*
D03*
X6723380Y1402080D02*
D03*
Y1312080D02*
D03*
X6510020Y1402080D02*
D03*
Y1312080D02*
D03*
X6403340Y1402080D02*
D03*
Y1312080D02*
D03*
X2890520Y1937298D02*
D03*
Y1847298D02*
D03*
X1800414Y1936128D02*
D03*
Y1846128D02*
D03*
X7056120Y1937298D02*
D03*
Y1847298D02*
D03*
X5966014Y1936128D02*
D03*
Y1846128D02*
D03*
X6563863Y2486824D02*
D03*
Y2576823D02*
D03*
X6457183Y2486824D02*
D03*
Y2576823D02*
D03*
X10040620Y3450042D02*
D03*
Y3540042D02*
D03*
X9591040Y3453300D02*
D03*
Y3543300D02*
D03*
X9735820Y4248698D02*
D03*
Y4158698D02*
D03*
X9629140Y4248698D02*
D03*
Y4158698D02*
D03*
X2398263Y2486824D02*
D03*
Y2576823D02*
D03*
X2291583Y2486824D02*
D03*
Y2576823D02*
D03*
D11*
X10610449Y5615940D02*
D03*
X9710420D02*
D03*
D12*
X9855406Y4472943D02*
D03*
X10465405D02*
D03*
D13*
X10355580Y2578100D02*
D03*
Y2008100D02*
D03*
X10609580Y2578100D02*
D03*
Y2008100D02*
D03*
X10101580D02*
D03*
Y2578100D02*
D03*
X9847580Y2008100D02*
D03*
Y2578100D02*
D03*
X9593580Y2008100D02*
D03*
Y2578100D02*
D03*
X9339580Y2008100D02*
D03*
Y2578100D02*
D03*
X9085580Y2008100D02*
D03*
Y2578100D02*
D03*
X8831580Y2008100D02*
D03*
Y2578100D02*
D03*
X10355580Y1762010D02*
D03*
Y1192010D02*
D03*
X10609580Y1762010D02*
D03*
Y1192010D02*
D03*
X10101580D02*
D03*
Y1762010D02*
D03*
X9847580Y1192010D02*
D03*
Y1762010D02*
D03*
X9593580Y1192010D02*
D03*
Y1762010D02*
D03*
X9339580Y1192010D02*
D03*
Y1762010D02*
D03*
X9085580Y1192010D02*
D03*
Y1762010D02*
D03*
X8831580Y1192010D02*
D03*
Y1762010D02*
D03*
X10355580Y945920D02*
D03*
Y375920D02*
D03*
X10609580Y945920D02*
D03*
Y375920D02*
D03*
X10101580D02*
D03*
Y945920D02*
D03*
X9847580Y375920D02*
D03*
Y945920D02*
D03*
X9593580Y375920D02*
D03*
Y945920D02*
D03*
X9339580Y375920D02*
D03*
Y945920D02*
D03*
X9085580Y375920D02*
D03*
Y945920D02*
D03*
X8831580Y375920D02*
D03*
Y945920D02*
D03*
D14*
X10657840Y3887580D02*
D03*
Y3742580D02*
D03*
X7194360Y4825700D02*
D03*
Y4970700D02*
D03*
X6503480Y4825700D02*
D03*
Y4970700D02*
D03*
X7885240Y4825700D02*
D03*
Y4970700D02*
D03*
X3737420Y4825700D02*
D03*
Y4970700D02*
D03*
X3046540Y4825700D02*
D03*
Y4970700D02*
D03*
X4428300Y4825700D02*
D03*
Y4970700D02*
D03*
X5810060Y4825700D02*
D03*
Y4970700D02*
D03*
X5119180Y4825700D02*
D03*
Y4970700D02*
D03*
X10071100Y2961640D02*
D03*
Y2816640D02*
D03*
X2353120Y4825700D02*
D03*
Y4970700D02*
D03*
X1662240Y4825700D02*
D03*
Y4970700D02*
D03*
X5102860Y2076560D02*
D03*
Y1931560D02*
D03*
X7914640Y1507380D02*
D03*
Y1652380D02*
D03*
X5102860Y1509920D02*
D03*
Y1654920D02*
D03*
X7914640Y2074020D02*
D03*
Y1929020D02*
D03*
X973900Y4825700D02*
D03*
Y4970700D02*
D03*
X937260Y1509920D02*
D03*
Y1654920D02*
D03*
Y2076560D02*
D03*
Y1931560D02*
D03*
X3749040Y2076560D02*
D03*
Y1931560D02*
D03*
Y1509920D02*
D03*
Y1654920D02*
D03*
X10071100Y3158380D02*
D03*
Y3303380D02*
D03*
D15*
X7908180Y1358900D02*
D03*
X8053180D02*
D03*
X8479900D02*
D03*
X8334900D02*
D03*
X5109320D02*
D03*
X4964320D02*
D03*
X4537600D02*
D03*
X4682600D02*
D03*
X3742580D02*
D03*
X3887580D02*
D03*
X374540D02*
D03*
X519540D02*
D03*
X943720D02*
D03*
X798720D02*
D03*
X4316840D02*
D03*
X4171840D02*
D03*
X10214720Y4218940D02*
D03*
X10069720D02*
D03*
X9208880Y3863340D02*
D03*
X9063880D02*
D03*
X9208880Y4032250D02*
D03*
X9063880D02*
D03*
X9208880Y4201160D02*
D03*
X9063880D02*
D03*
X8658860Y3863340D02*
D03*
X8803860D02*
D03*
X8658860Y4032250D02*
D03*
X8803860D02*
D03*
X8658860Y4201160D02*
D03*
X8803860D02*
D03*
D16*
X6815100Y1718100D02*
D03*
X2649500D02*
D03*
D17*
X6815100Y1768100D02*
D03*
Y1818100D02*
D03*
Y1868100D02*
D03*
Y1918100D02*
D03*
Y1968100D02*
D03*
Y2018100D02*
D03*
Y2068100D02*
D03*
Y2118100D02*
D03*
Y2168100D02*
D03*
X6202400D02*
D03*
Y2118100D02*
D03*
Y2068100D02*
D03*
Y2018100D02*
D03*
Y1968100D02*
D03*
Y1918100D02*
D03*
Y1868100D02*
D03*
Y1818100D02*
D03*
Y1768100D02*
D03*
Y1718100D02*
D03*
X2649500Y1768100D02*
D03*
Y1818100D02*
D03*
Y1868100D02*
D03*
Y1918100D02*
D03*
Y1968100D02*
D03*
Y2018100D02*
D03*
Y2068100D02*
D03*
Y2118100D02*
D03*
Y2168100D02*
D03*
X2036800D02*
D03*
Y2118100D02*
D03*
Y2068100D02*
D03*
Y2018100D02*
D03*
Y1968100D02*
D03*
Y1918100D02*
D03*
Y1868100D02*
D03*
Y1818100D02*
D03*
Y1768100D02*
D03*
Y1718100D02*
D03*
D18*
X6735020Y2248180D02*
D03*
X6685020D02*
D03*
X6635020D02*
D03*
X6585020D02*
D03*
X6535020D02*
D03*
X6485020D02*
D03*
X6435020D02*
D03*
X6385020D02*
D03*
X6335020D02*
D03*
X6285020D02*
D03*
Y1638020D02*
D03*
X6335020D02*
D03*
X6385020D02*
D03*
X6435020D02*
D03*
X6485020D02*
D03*
X6535020D02*
D03*
X6585020D02*
D03*
X6635020D02*
D03*
X6685020D02*
D03*
X6735020D02*
D03*
X2569420Y2248180D02*
D03*
X2519420D02*
D03*
X2469420D02*
D03*
X2419420D02*
D03*
X2369420D02*
D03*
X2319420D02*
D03*
X2269420D02*
D03*
X2219420D02*
D03*
X2169420D02*
D03*
X2119420D02*
D03*
Y1638020D02*
D03*
X2169420D02*
D03*
X2219420D02*
D03*
X2269420D02*
D03*
X2319420D02*
D03*
X2369420D02*
D03*
X2419420D02*
D03*
X2469420D02*
D03*
X2519420D02*
D03*
X2569420D02*
D03*
D19*
X6510020Y1943100D02*
D03*
X2344420D02*
D03*
D20*
X2664468Y1403892D02*
D03*
X2664460Y1313900D02*
D03*
X6830068Y1403892D02*
D03*
X6830060Y1313900D02*
D03*
X6615980Y1404583D02*
D03*
X6615972Y1314592D02*
D03*
X2450380Y1404583D02*
D03*
X2450372Y1314592D02*
D03*
X7241540Y2044700D02*
D03*
X7241548Y2134692D02*
D03*
X3081012Y1606008D02*
D03*
X3081020Y1696000D02*
D03*
X3075940Y2044700D02*
D03*
X3075948Y2134692D02*
D03*
X2131052Y1314600D02*
D03*
X2131060Y1404592D02*
D03*
D21*
X10233660Y3660140D02*
D03*
X10143668Y3660148D02*
D03*
X10143676Y3766836D02*
D03*
X10233668Y3766828D02*
D03*
X9704578Y3513633D02*
D03*
X9794569Y3513625D02*
D03*
X9793512Y3408672D02*
D03*
X9703520Y3408680D02*
D03*
X7049948Y2049788D02*
D03*
X7139940Y2049780D02*
D03*
X5476772Y2512052D02*
D03*
X5386780Y2512060D02*
D03*
X7542188Y2512052D02*
D03*
X7632180Y2512044D02*
D03*
X5476772Y2616192D02*
D03*
X5386780Y2616200D02*
D03*
X7542188Y2616208D02*
D03*
X7632180Y2616200D02*
D03*
X5774868Y1838968D02*
D03*
X5864860Y1838960D02*
D03*
X5774868Y1943108D02*
D03*
X5864860Y1943100D02*
D03*
X7247712Y1945632D02*
D03*
X7157720Y1945640D02*
D03*
X7247712Y1841492D02*
D03*
X7157720Y1841500D02*
D03*
X5316752Y1818632D02*
D03*
X5226760Y1818640D02*
D03*
X7701280Y1816100D02*
D03*
X7791272Y1816092D02*
D03*
X5316752Y1925312D02*
D03*
X5226760Y1925320D02*
D03*
X7701280Y1922780D02*
D03*
X7791272Y1922772D02*
D03*
X2887980Y1704340D02*
D03*
X2977972Y1704332D02*
D03*
X1805940Y1623060D02*
D03*
X1715948Y1623068D02*
D03*
Y1729748D02*
D03*
X1805940Y1729740D02*
D03*
X1311732Y2512052D02*
D03*
X1221740Y2512060D02*
D03*
X2884348Y2049788D02*
D03*
X2974340Y2049780D02*
D03*
X9360628Y4038608D02*
D03*
X9450620Y4038600D02*
D03*
X9450642Y3934452D02*
D03*
X9360650Y3934460D02*
D03*
X9360658Y3614428D02*
D03*
X9450650Y3614420D02*
D03*
X3377108Y2512052D02*
D03*
X3467100Y2512044D02*
D03*
X1311732Y2616192D02*
D03*
X1221740Y2616200D02*
D03*
X3377108Y2616208D02*
D03*
X3467100Y2616200D02*
D03*
X1609268Y1838968D02*
D03*
X1699260Y1838960D02*
D03*
X1609268Y1943108D02*
D03*
X1699260Y1943100D02*
D03*
X3082112Y1945632D02*
D03*
X2992120Y1945640D02*
D03*
X3082112Y1841492D02*
D03*
X2992120Y1841500D02*
D03*
X1151712Y1818632D02*
D03*
X1061720Y1818640D02*
D03*
X3535680D02*
D03*
X3625672Y1818632D02*
D03*
X1151712Y1925312D02*
D03*
X1061720Y1925320D02*
D03*
X3535680D02*
D03*
X3625672Y1925312D02*
D03*
X6769603Y2489320D02*
D03*
X6859595Y2489312D02*
D03*
X6251443Y2489320D02*
D03*
X6161452Y2489328D02*
D03*
X2977972Y1597652D02*
D03*
X2887980Y1597660D02*
D03*
X2604003Y2489320D02*
D03*
X2693995Y2489312D02*
D03*
X2085843Y2489320D02*
D03*
X1995852Y2489328D02*
D03*
D22*
X8233219Y5596980D02*
D03*
X6850074D02*
D03*
X7541647D02*
D03*
X4083783D02*
D03*
X2700638D02*
D03*
X3392211D02*
D03*
X1317493Y466800D02*
D03*
X4775356D02*
D03*
Y5596980D02*
D03*
X6158501D02*
D03*
X5466929D02*
D03*
X1317493D02*
D03*
X625920D02*
D03*
X2009065D02*
D03*
X4083783Y466800D02*
D03*
X3392211D02*
D03*
X6850074D02*
D03*
X625920D02*
D03*
X7541647D02*
D03*
X8233219D02*
D03*
X6158501D02*
D03*
X2700638D02*
D03*
X2009065D02*
D03*
X5466929D02*
D03*
D23*
X8233219Y4996980D02*
D03*
X6850074D02*
D03*
X7541647D02*
D03*
X4083783D02*
D03*
X2700638D02*
D03*
X3392211D02*
D03*
X1317493Y1066800D02*
D03*
X4775356D02*
D03*
Y4996980D02*
D03*
X6158501D02*
D03*
X5466929D02*
D03*
X1317493D02*
D03*
X625920D02*
D03*
X2009065D02*
D03*
X4083783Y1066800D02*
D03*
X3392211D02*
D03*
X6850074D02*
D03*
X625920D02*
D03*
X7541647D02*
D03*
X8233219D02*
D03*
X6158501D02*
D03*
X2700638D02*
D03*
X2009065D02*
D03*
X5466929D02*
D03*
D24*
X10497820Y3391180D02*
D03*
Y2791180D02*
D03*
D25*
X9987534Y3960470D02*
D03*
Y3920490D02*
D03*
Y3880485D02*
D03*
Y3840480D02*
D03*
Y3800475D02*
D03*
Y3760470D02*
D03*
Y3720490D02*
D03*
X9606026Y3840480D02*
D03*
Y3800475D02*
D03*
Y3920490D02*
D03*
Y3960470D02*
D03*
Y3880485D02*
D03*
Y3760470D02*
D03*
Y3720490D02*
D03*
D26*
X9876790Y4031234D02*
D03*
X9836785D02*
D03*
X9916770D02*
D03*
X9796780D02*
D03*
X9916770Y3649726D02*
D03*
X9876790D02*
D03*
X9836785D02*
D03*
X9796780D02*
D03*
X9716770Y4031234D02*
D03*
X9756775D02*
D03*
X9676790D02*
D03*
X9716770Y3649726D02*
D03*
X9756775D02*
D03*
X9676790D02*
D03*
D27*
X9796780Y3840480D02*
D03*
D28*
X8661400Y3345180D02*
D03*
Y3479800D02*
D03*
Y3611880D02*
D03*
Y3746500D02*
D03*
X9223300Y3736340D02*
D03*
Y3609340D02*
D03*
Y3482340D02*
D03*
Y3355340D02*
D03*
X9220200Y3208020D02*
D03*
Y3073400D02*
D03*
Y2941320D02*
D03*
Y2806700D02*
D03*
X8658300Y2816860D02*
D03*
Y2943860D02*
D03*
Y3070860D02*
D03*
Y3197860D02*
D03*
X8472540Y2627440D02*
D03*
Y2492820D02*
D03*
Y2360740D02*
D03*
Y2226120D02*
D03*
X7910640Y2236280D02*
D03*
Y2363280D02*
D03*
Y2490280D02*
D03*
Y2617280D02*
D03*
X4547120Y2226120D02*
D03*
Y2360740D02*
D03*
Y2492820D02*
D03*
Y2627440D02*
D03*
X5109020Y2617280D02*
D03*
Y2490280D02*
D03*
Y2363280D02*
D03*
Y2236280D02*
D03*
X4307460Y2627440D02*
D03*
Y2492820D02*
D03*
Y2360740D02*
D03*
Y2226120D02*
D03*
X3745560Y2236280D02*
D03*
Y2363280D02*
D03*
Y2490280D02*
D03*
Y2617280D02*
D03*
X382080Y2226120D02*
D03*
Y2360740D02*
D03*
Y2492820D02*
D03*
Y2627440D02*
D03*
X943980Y2617280D02*
D03*
Y2490280D02*
D03*
Y2363280D02*
D03*
Y2236280D02*
D03*
D29*
X8873300Y3545840D02*
D03*
X9008300Y3007360D02*
D03*
X8260640Y2426780D02*
D03*
X4759020D02*
D03*
X4095560D02*
D03*
X593980D02*
D03*
D30*
X8479600Y1514360D02*
D03*
X8344980D02*
D03*
X8212900D02*
D03*
X8078280D02*
D03*
X8088440Y2076260D02*
D03*
X8215440D02*
D03*
X8342440D02*
D03*
X8469440D02*
D03*
X4941380Y1514360D02*
D03*
X4806760D02*
D03*
X4674680D02*
D03*
X4540060D02*
D03*
X4550220Y2076260D02*
D03*
X4677220D02*
D03*
X4804220D02*
D03*
X4931220D02*
D03*
X4315700Y1514360D02*
D03*
X4181080D02*
D03*
X4049000D02*
D03*
X3914380D02*
D03*
X3924540Y2076260D02*
D03*
X4051540D02*
D03*
X4178540D02*
D03*
X4305540D02*
D03*
X777700Y1514360D02*
D03*
X643080D02*
D03*
X511000D02*
D03*
X376380D02*
D03*
X386540Y2076260D02*
D03*
X513540D02*
D03*
X640540D02*
D03*
X767540D02*
D03*
D31*
X8278940Y1726260D02*
D03*
X4740720D02*
D03*
X4115040D02*
D03*
X577040D02*
D03*
D32*
X10141164Y3873508D02*
D03*
X10231164D02*
D03*
X10141164Y3980188D02*
D03*
X10231164D02*
D03*
X9839960Y4163060D02*
D03*
X9929960D02*
D03*
X5969000Y2049780D02*
D03*
X5879000D02*
D03*
X1803400D02*
D03*
X1713400D02*
D03*
X10722440Y3538220D02*
D03*
X10632440D02*
D03*
X9363880Y3505200D02*
D03*
X9453880D02*
D03*
X9363162Y3827780D02*
D03*
X9453162D02*
D03*
X9363162Y3721100D02*
D03*
X9453162D02*
D03*
D33*
X10372420Y4222471D02*
D03*
Y4157447D02*
D03*
Y4092448D02*
D03*
Y4027449D02*
D03*
D34*
X10679100Y4222471D02*
D03*
Y4157447D02*
D03*
Y4092448D02*
D03*
Y4027449D02*
D03*
D35*
X10559059Y4125417D02*
D03*
D36*
X10464800Y3573221D02*
D03*
Y3868979D02*
D03*
D37*
X9877000Y3058160D02*
D03*
X9427000D02*
D03*
D38*
X9390126Y5141011D02*
D03*
X9310141D02*
D03*
X8830132D02*
D03*
X8750148D02*
D03*
D39*
X9245143D02*
D03*
X9195130D02*
D03*
X9145143D02*
D03*
X9095130D02*
D03*
X9045143D02*
D03*
X8995131D02*
D03*
X8945143D02*
D03*
X8895131D02*
D03*
D40*
X601980Y4010660D02*
D03*
Y4610660D02*
D03*
X8252460D02*
D03*
Y4010660D02*
D03*
X4089400Y4610660D02*
D03*
Y4010660D02*
D03*
X4765040Y4610660D02*
D03*
Y4010660D02*
D03*
D41*
X9390660Y4475480D02*
D03*
X8790660D02*
D03*
D42*
X10074910Y3269930D02*
X10109630Y3304650D01*
X10072370Y3267390D02*
Y3302110D01*
X10071100Y3303380D02*
X10072370Y3302110D01*
X10069830Y3304650D02*
X10071100Y3303380D01*
X10048680Y3289460D02*
X10063600Y3274540D01*
X7912340Y2044380D02*
X7914640D01*
X7893490Y2058830D02*
X7908410Y2043910D01*
X7919720Y2039300D02*
X7954440Y2074020D01*
X7917180Y2036760D02*
Y2071480D01*
X8444310Y1361186D02*
X8484110D01*
X10069830Y3304650D02*
Y3344450D01*
X10063600Y3271080D02*
Y3274540D01*
X10030030Y3304650D02*
X10045220Y3289460D01*
X10067530Y3275010D02*
X10069830D01*
X10045220Y3289460D02*
X10048680D01*
X10030030Y3304650D02*
X10030030D01*
X6563360Y2577327D02*
Y2621280D01*
Y2577327D02*
X6563863Y2576823D01*
X6456680Y2577327D02*
Y2621280D01*
Y2577327D02*
X6457183Y2576823D01*
X7241548Y2099940D02*
Y2134692D01*
X5908760Y2049780D02*
X5911300Y2047240D01*
X5879000Y2049780D02*
X5908760D01*
X2398263Y2576823D02*
Y2618237D01*
X2291583Y2576823D02*
Y2618237D01*
X1713400Y2049780D02*
X1743160D01*
X1715948Y1623068D02*
X1750052D01*
X3075948Y2099940D02*
Y2134692D01*
X7874840Y2074020D02*
X7874840D01*
X7890030Y2058830D02*
X7893490D01*
X7874840Y2074020D02*
X7890030Y2058830D01*
X7908410Y2040450D02*
Y2043910D01*
X7914640Y2074020D02*
X7917180Y2071480D01*
X7914640Y2074020D02*
Y2113820D01*
X8484110Y1361186D02*
Y1400986D01*
X8479900Y1358900D02*
X8519700D01*
X8479900Y1319100D02*
Y1358900D01*
X374540Y1319100D02*
Y1358900D01*
X334740D02*
X374540D01*
Y1398700D01*
Y1358900D02*
X414340D01*
X9133020Y3701791D02*
Y3786868D01*
Y3701791D02*
X9155275Y3679536D01*
X9208464D01*
X9223300Y3609340D02*
Y3664700D01*
X9208464Y3679536D02*
X9223300Y3664700D01*
X10434549Y3994529D02*
Y4083520D01*
X10424207Y3984187D02*
X10434549Y3994529D01*
X10349427Y3984187D02*
X10424207D01*
X10314109Y3948869D02*
X10349427Y3984187D01*
X10425621Y4092448D02*
X10434549Y4083520D01*
X10372420Y4092448D02*
X10425621D01*
X10314109Y3837109D02*
Y3948869D01*
X10297041Y3820041D02*
X10314109Y3837109D01*
X10209552Y3820041D02*
X10297041D01*
X10187333Y3797822D02*
X10209552Y3820041D01*
X10187333Y3733164D02*
Y3797822D01*
X10173145Y3718976D02*
X10187333Y3733164D01*
X10084550Y3718976D02*
X10173145D01*
X10066224Y3737302D02*
Y3781459D01*
Y3737302D02*
X10084550Y3718976D01*
X9987534Y3800475D02*
X10047208D01*
X10066224Y3781459D01*
X9606280Y3960724D02*
Y4000500D01*
X9606026Y3960470D02*
X9606280Y3960724D01*
X9916770Y3529990D02*
Y3649726D01*
Y3529990D02*
X9936789Y3509971D01*
X9876790Y3526865D02*
Y3649726D01*
Y3526865D02*
X9924164Y3479491D01*
X10464800Y3573221D02*
Y3688289D01*
X10347959Y3708280D02*
X10444808D01*
X10464800Y3688289D01*
X10440205Y3738760D02*
X10464800Y3763355D01*
X10335334Y3738760D02*
X10440205D01*
X10464800Y3763355D02*
Y3868979D01*
X10284694Y3688120D02*
X10335334Y3738760D01*
X10240041Y3509041D02*
X10284694Y3553694D01*
Y3688120D01*
X10315174Y3675495D02*
X10347959Y3708280D01*
X10294029Y3519924D02*
X10315174Y3541069D01*
Y3675495D01*
X10294029Y3519849D02*
Y3519924D01*
X10252741Y3478561D02*
X10294029Y3519849D01*
X10071620Y3509041D02*
X10240041D01*
X10069140Y3478561D02*
X10252741D01*
X10040620Y3540042D02*
X10071620Y3509041D01*
X10040620Y3450042D02*
X10069140Y3478561D01*
X10011171Y3479491D02*
X10040620Y3450042D01*
X9924164Y3479491D02*
X10011171D01*
X9936789Y3509971D02*
X10010549D01*
X10040620Y3540042D01*
D43*
X6585020Y1982540D02*
Y2248180D01*
X2419420Y1982540D02*
Y2248180D01*
X10053320Y4155440D02*
Y4202540D01*
X10069720Y4218940D01*
X10044320Y4244340D02*
X10069720Y4218940D01*
X10012680Y4244340D02*
X10044320D01*
X9955641Y4223300D02*
X9984740Y4194201D01*
Y4071228D02*
X10025380Y4030588D01*
X9984740Y4071228D02*
Y4194201D01*
X6830060Y1313900D02*
X6895380D01*
X6723380Y1312080D02*
Y1341840D01*
X6615972Y1349344D02*
Y1354832D01*
Y1314592D02*
Y1349344D01*
X6403340Y1341840D02*
Y1349140D01*
Y1312080D02*
Y1341840D01*
X9735820Y4211638D02*
Y4218938D01*
Y4248698D01*
X9629140Y4218938D02*
Y4248698D01*
X9411108Y4038600D02*
X9415868D01*
X9450620D01*
X10231164Y3980188D02*
X10279372D01*
X10231164Y3873508D02*
Y3980188D01*
X10143668Y3616163D02*
X10155572Y3604260D01*
X10223671D02*
X10228031Y3599900D01*
X10143668Y3616163D02*
Y3660148D01*
X10155572Y3604260D02*
X10223671D01*
X10228031Y3599900D02*
X10233356D01*
X9591040Y3483060D02*
Y3484880D01*
Y3453300D02*
Y3483060D01*
X9363880Y3505200D02*
Y3554188D01*
X9415898Y3611966D02*
X9417125Y3613193D01*
X9449423D02*
X9450650Y3614420D01*
X9417125Y3613193D02*
X9449423D01*
X9363162Y3721100D02*
X9364419Y3719843D01*
Y3679873D02*
Y3719843D01*
Y3679873D02*
X9365676Y3678616D01*
X2367922Y1639518D02*
Y1703218D01*
Y1639518D02*
X2369420Y1638020D01*
X2350219Y1720920D02*
X2367922Y1703218D01*
X2281323Y1720920D02*
X2350219D01*
X2369420Y1427080D02*
Y1638020D01*
X2269420D02*
Y1709017D01*
X2281323Y1720920D01*
X8945136Y5230562D02*
X8948894Y5226804D01*
X8945129Y5230569D02*
X8945136Y5230562D01*
Y5141018D02*
Y5230562D01*
X8948894Y5219100D02*
Y5226804D01*
X8945136Y5141018D02*
X8945143Y5141011D01*
X9667240Y2695760D02*
Y3276600D01*
X9527540Y3416300D02*
Y3528060D01*
Y3416300D02*
X9667240Y3276600D01*
X9593580Y2578100D02*
Y2622100D01*
X9667240Y2695760D01*
X5009861Y2006600D02*
X5203255D01*
X5226760Y1983095D01*
Y1818640D02*
Y1983095D01*
X8831580Y2423160D02*
Y2578100D01*
X8784860Y2717800D02*
X9573260D01*
X8685800Y2816860D02*
X8784860Y2717800D01*
X8658300Y2816860D02*
X8685800D01*
X9839960Y4163060D02*
X9869720D01*
X9796780Y4119880D02*
X9839960Y4163060D01*
X10134347Y3880325D02*
X10142420Y3872252D01*
X10039265Y3880485D02*
X10039425Y3880325D01*
X10134347D01*
X10025380Y4030588D02*
X10369282D01*
X9942757Y4079638D02*
Y4150263D01*
X9917443Y4054324D02*
X9942757Y4079638D01*
X9929960Y4163060D02*
X9942757Y4150263D01*
X9916930Y4054324D02*
X9917443D01*
X9916770Y4054164D02*
X9916930Y4054324D01*
X9916770Y4031234D02*
Y4054164D01*
X10369282Y4030588D02*
X10372420Y4027449D01*
X9827240Y4223300D02*
X9955641D01*
X9793512Y3408672D02*
Y3452158D01*
X9793699D01*
X10142420Y3768093D02*
Y3872252D01*
Y3768093D02*
X10143676Y3766836D01*
X9704049Y3409209D02*
Y3513104D01*
X9704578Y3513633D01*
X9703520Y3408680D02*
X9704049Y3409209D01*
X9804409Y3525498D02*
X9810190D01*
X9794569Y3515658D02*
X9804409Y3525498D01*
X9836785Y3552093D02*
Y3649726D01*
X9810190Y3525498D02*
X9836785Y3552093D01*
X9794569Y3513625D02*
Y3515658D01*
X9876790Y3920490D02*
X9987534D01*
X9796780Y3840480D02*
X9876790Y3920490D01*
X9887580Y4082270D02*
Y4083341D01*
X9897357Y4093118D01*
Y4098443D01*
X9876790Y4031234D02*
X9876950Y4031394D01*
Y4071640D01*
X9887580Y4082270D01*
X9897357Y4098443D02*
X9900920Y4094881D01*
X9836945Y4090515D02*
X9842180Y4095749D01*
X9836945Y4031394D02*
Y4090515D01*
X9842180Y4095749D02*
Y4101075D01*
X9836785Y4031234D02*
X9836945Y4031394D01*
X9635534Y3625806D02*
X9636760Y3624580D01*
X9544418Y3625806D02*
X9635534D01*
X9636760Y3624580D02*
X9638816Y3626636D01*
X9676630D01*
X9465079Y3546467D02*
X9544418Y3625806D01*
X9591040Y3543300D02*
X9649535D01*
X9676630Y3626636D02*
X9676790Y3626796D01*
Y3649726D01*
X9756615Y3600333D02*
Y3649566D01*
X9752170Y3595888D02*
X9756615Y3600333D01*
X9740134Y3583610D02*
X9752170Y3595646D01*
Y3595888D01*
X9791385Y3576223D02*
X9796780Y3581618D01*
Y3649726D01*
X9791385Y3570898D02*
Y3576223D01*
X9756615Y3649566D02*
X9756775Y3649726D01*
X9465079Y3516399D02*
Y3546467D01*
X9453880Y3505200D02*
X9465079Y3516399D01*
X9649535Y3543300D02*
X9716610Y3610375D01*
Y3649566D01*
X9716770Y3649726D01*
X9195137Y5207110D02*
X9195143Y5207117D01*
X9194800Y5207460D02*
X9195143Y5207117D01*
X9195137Y5141017D02*
Y5207110D01*
X9195130Y5141011D02*
X9195137Y5141017D01*
X8895134Y5141014D02*
Y5207064D01*
X8895138Y5207068D01*
X8895131Y5141011D02*
X8895134Y5141014D01*
X9145137Y5074911D02*
X9146540Y5076314D01*
X9145130Y5074905D02*
X9145137Y5074911D01*
Y5141004D01*
X9145143Y5141011D01*
X9045130Y5074905D02*
X9045137Y5074911D01*
Y5141004D01*
X9044940Y5075095D02*
X9045130Y5074905D01*
X9045137Y5141004D02*
X9045143Y5141011D01*
X9095143Y5207117D02*
X9095740Y5207714D01*
X9095137Y5207110D02*
X9095143Y5207117D01*
X9095137Y5141017D02*
Y5207110D01*
X9095130Y5141011D02*
X9095137Y5141017D01*
X8995137Y5207110D02*
X8995143Y5207117D01*
X8994140Y5208120D02*
X8995143Y5207117D01*
X8995137Y5141017D02*
Y5207110D01*
X8995131Y5141011D02*
X8995137Y5141017D01*
X2977972Y1596168D02*
X2987812Y1606008D01*
X2977972Y1592652D02*
Y1596168D01*
X2987812Y1606008D02*
X3081012D01*
X2776220Y1511880D02*
X2897200D01*
X2977972Y1592652D01*
X2664460Y1313900D02*
X2699256D01*
X2557780Y1341840D02*
Y1349140D01*
Y1312080D02*
Y1341840D01*
X2450372Y1349344D02*
Y1357372D01*
Y1314592D02*
Y1349344D01*
X2344420Y1341840D02*
Y1349140D01*
Y1312080D02*
Y1341840D01*
X2237740D02*
Y1346600D01*
Y1312080D02*
Y1341840D01*
X2131052Y1349352D02*
Y1359183D01*
Y1314600D02*
Y1349352D01*
X2664468Y1369140D02*
Y1403892D01*
X6537960Y1727200D02*
X6711041D01*
X6428740D02*
X6537960D01*
X6535020Y1724260D02*
X6537960Y1727200D01*
X6535020Y1638020D02*
Y1724260D01*
X6485020Y1565040D02*
Y1638020D01*
X6749038Y1815769D02*
X6812769D01*
X6732200Y1798931D02*
X6749038Y1815769D01*
X6732200Y1748359D02*
Y1798931D01*
X6812769Y1815769D02*
X6815100Y1818100D01*
X6711041Y1727200D02*
X6732200Y1748359D01*
X6286433Y1749766D02*
Y1798588D01*
Y1749766D02*
X6308999Y1727200D01*
X6269253Y1815769D02*
X6286433Y1798588D01*
X6204730Y1815769D02*
X6269253D01*
X6202400Y1818100D02*
X6204730Y1815769D01*
X6535020Y1427080D02*
Y1638020D01*
X6510020Y1402080D02*
X6535020Y1427080D01*
X6308999Y1727200D02*
X6428740D01*
X6435020Y1638020D02*
Y1720920D01*
X6428740Y1727200D02*
X6435020Y1720920D01*
X2649500Y1818100D02*
X2755360D01*
X2319420Y1559960D02*
Y1638020D01*
X3076854Y1700166D02*
X3081020Y1696000D01*
X2982138Y1700166D02*
X3076854D01*
X2977972Y1704332D02*
X2982138Y1700166D01*
X2887980Y1704340D02*
Y1714500D01*
Y1628140D02*
Y1704340D01*
X2882820Y1714500D02*
X2887980D01*
X2829220Y1768100D02*
X2882820Y1714500D01*
X2649500Y1768100D02*
X2829220D01*
X2977972Y1714492D02*
X2982138Y1710326D01*
X2344420Y1402080D02*
X2369420Y1427080D01*
X6830068Y1369140D02*
Y1403892D01*
X6385020Y1557560D02*
Y1638020D01*
X2519420Y1557280D02*
Y1638020D01*
X5386780Y2512060D02*
Y2616200D01*
X5109020Y2617280D02*
X5110100Y2616200D01*
X5386780D01*
X6904475Y2376800D02*
X6908241Y2380565D01*
X6904995Y2321560D02*
X6909801D01*
X6904475D02*
X6904995D01*
X7542188Y2611208D02*
Y2616208D01*
X7527348Y2601368D02*
X7532348D01*
X7542188Y2611208D01*
X7532348Y2526892D02*
X7542188Y2517052D01*
Y2512052D02*
Y2517052D01*
X7527348Y2526892D02*
X7532348D01*
X7506620Y2547620D02*
X7527348Y2526892D01*
X7509160Y2583180D02*
X7527348Y2601368D01*
X6909801Y2321560D02*
X6919640Y2331400D01*
X6923280D01*
X7139500Y2547620D02*
X7506620D01*
X6923280Y2331400D02*
X7139500Y2547620D01*
X7124771Y2583180D02*
X7509160D01*
X6922157Y2380565D02*
X7124771Y2583180D01*
X6908241Y2380565D02*
X6922157D01*
X6925898Y2115560D02*
X7030298Y2219960D01*
X6815100Y2115560D02*
X6925898D01*
X7284720Y2184400D02*
X7348220Y2120900D01*
X7030298Y2219960D02*
X7299449D01*
X6929660Y2065560D02*
X7048500Y2184400D01*
X7284720D01*
X6815100Y2065560D02*
X6929660D01*
X7701280Y1816100D02*
Y1821100D01*
X7686440Y1830940D02*
X7691440D01*
X7701280Y1821100D01*
X7691440Y1912940D02*
X7701280Y1922780D01*
X7664332Y1853048D02*
X7686440Y1830940D01*
X7691440Y1907940D02*
Y1912940D01*
X7667108Y1888608D02*
X7686440Y1907940D01*
X7691440D01*
X7348220Y1943100D02*
X7438272Y1853048D01*
X7664332D01*
X7348220Y1943100D02*
Y2120900D01*
X7453002Y1888608D02*
X7667108D01*
X7299449Y2219960D02*
X7383780Y2135629D01*
Y1957829D02*
Y2135629D01*
Y1957829D02*
X7453002Y1888608D01*
X6815100Y1768100D02*
X6815230Y1767970D01*
X6895970D01*
X6896100Y1767840D01*
X6045377Y2068100D02*
X6202400D01*
X5332152Y1833472D02*
X5350340Y1851660D01*
X5317312Y1823632D02*
X5327152Y1833472D01*
X5332152D01*
X5317312Y1818632D02*
Y1823632D01*
X6010357Y2103120D02*
X6045377Y2068100D01*
X6045666Y2118100D02*
X6202400D01*
X6025086Y2138680D02*
X6045666Y2118100D01*
X5327152Y1910472D02*
X5332152D01*
X5317312Y1920312D02*
Y1925312D01*
X5332152Y1910472D02*
X5355404Y1887220D01*
X5317312Y1920312D02*
X5327152Y1910472D01*
X5594585Y2060299D02*
X5637406Y2103120D01*
X6010357D01*
X5622677Y2138680D02*
X6025086D01*
X5559025Y2075028D02*
X5622677Y2138680D01*
X5536724Y1851660D02*
X5594585Y1909521D01*
Y2060299D01*
X5350340Y1851660D02*
X5536724D01*
X5355404Y1887220D02*
X5521995D01*
X5559025Y1924251D02*
Y2075028D01*
X5521995Y1887220D02*
X5559025Y1924251D01*
X6859595Y2808295D02*
X6979920Y2928620D01*
X8058420D01*
X5486612Y2526892D02*
X5491612D01*
X5509800Y2545080D02*
X5884040D01*
X5476772Y2517052D02*
X5486612Y2526892D01*
X5491612D02*
X5509800Y2545080D01*
X5476772Y2512052D02*
Y2517052D01*
X5512323Y2580640D02*
X5898769D01*
X5476772Y2611192D02*
X5486612Y2601352D01*
X5491612D02*
X5512323Y2580640D01*
X5476772Y2611192D02*
Y2616192D01*
X5486612Y2601352D02*
X5491612D01*
X5966014Y1936128D02*
X6051755D01*
X6069783Y1918100D02*
X6202400D01*
X6051755Y1936128D02*
X6069783Y1918100D01*
X6080340Y1868100D02*
X6202400D01*
X6058369Y1846128D02*
X6080340Y1868100D01*
X5966014Y1846128D02*
X6058369D01*
X5864860Y1838960D02*
X5868444Y1842544D01*
X5962430D02*
X5966014Y1846128D01*
X5868444Y1842544D02*
X5962430D01*
X5864860Y1943100D02*
X5868346Y1939614D01*
X5962528D02*
X5966014Y1936128D01*
X5868346Y1939614D02*
X5962528D01*
X6335020Y1470400D02*
X6403340Y1402080D01*
X6335020Y1470400D02*
Y1638020D01*
X6610980Y1404583D02*
X6615980D01*
X6585020Y1430543D02*
Y1638020D01*
Y1430543D02*
X6610980Y1404583D01*
X6635020Y1490440D02*
X6723380Y1402080D01*
X6635020Y1490440D02*
Y1638020D01*
X6815100Y1868100D02*
X6948647D01*
X6969449Y1847298D01*
X7056120D01*
X6815100Y1918100D02*
X6957460D01*
X6976658Y1937298D02*
X7056120D01*
X6957460Y1918100D02*
X6976658Y1937298D01*
X7056120D02*
X7060291Y1941469D01*
X7153549D01*
X7157720Y1945640D01*
X7154821Y1844399D02*
X7157720Y1841500D01*
X7059019Y1844399D02*
X7154821D01*
X7056120Y1847298D02*
X7059019Y1844399D01*
X6815100Y1968100D02*
X6917618D01*
X6999307Y2049788D02*
X7049948D01*
X6917618Y1968100D02*
X6999307Y2049788D01*
X6457183Y2404858D02*
X6485020Y2377022D01*
X6457183Y2404858D02*
Y2486824D01*
X6485020Y2248180D02*
Y2377022D01*
X6535020Y2248180D02*
Y2367933D01*
X6563863Y2396776D01*
Y2486824D01*
X6457183D02*
X6563863D01*
X6616438Y2539399D01*
X6635943D01*
X6670543Y2573999D01*
X6385104Y2539399D02*
X6404608D01*
X6350503Y2573999D02*
X6385104Y2539399D01*
X6404608D02*
X6457183Y2486824D01*
X6251443Y2489320D02*
X6251604Y2489159D01*
X6350343D02*
X6350503Y2488999D01*
X6251604Y2489159D02*
X6350343D01*
X6670543Y2488999D02*
X6670704Y2489159D01*
X6769443D02*
X6769603Y2489320D01*
X6670704Y2489159D02*
X6769443D01*
X6769603Y2324013D02*
Y2489320D01*
X6735020Y2248180D02*
Y2289430D01*
X6769603Y2324013D01*
X6251443Y2323006D02*
X6285020Y2289430D01*
X6251443Y2323006D02*
Y2489320D01*
X6285020Y2248180D02*
Y2289430D01*
X6167078Y2168100D02*
X6202400D01*
X6161452Y2173726D02*
Y2489328D01*
Y2173726D02*
X6167078Y2168100D01*
X6853054D02*
X6859595Y2174641D01*
X6815100Y2168100D02*
X6853054D01*
X5774868Y1943108D02*
X5809620D01*
X5816928D01*
X5774868Y1838968D02*
X5809620D01*
X5816912D01*
X6334760Y2324100D02*
X6334890Y2323970D01*
Y2248310D02*
Y2323970D01*
Y2248310D02*
X6335020Y2248180D01*
X6385290Y2346690D02*
X6385560Y2346960D01*
X6385290Y2248450D02*
Y2346690D01*
X6385020Y2248180D02*
X6385290Y2248450D01*
X6101080Y2324100D02*
Y2328040D01*
X5884040Y2545080D02*
X6101080Y2328040D01*
X5898769Y2580640D02*
X6098372Y2381038D01*
X6112286D01*
X6116052Y2377272D01*
X6634750Y2248450D02*
X6635020Y2248180D01*
X6634750Y2248450D02*
Y2346690D01*
X6634480Y2346960D02*
X6634750Y2346690D01*
X6685020Y2248180D02*
X6685150Y2248310D01*
Y2323970D01*
X6685280Y2324100D01*
X7205668Y1841492D02*
X7212960D01*
X7247712D01*
X7205652Y1945632D02*
X7212960D01*
X7247712D01*
X7239000Y2047240D02*
X7241540Y2044700D01*
X7157720D02*
X7160260Y2047240D01*
X7239000D01*
X7157720Y1945640D02*
Y2044700D01*
X6435020Y2063680D02*
Y2248180D01*
X6739820Y1633220D02*
X6819900D01*
X6735020Y1638020D02*
X6739820Y1633220D01*
X6280220D02*
X6285020Y1638020D01*
X6200140Y1633220D02*
X6280220D01*
X6815100Y1718100D02*
X6821190Y1712010D01*
X6887460D01*
X6892315Y1707155D02*
X6897641D01*
X6887460Y1712010D02*
X6892315Y1707155D01*
X6121400Y1767840D02*
X6121530Y1767970D01*
X6202270D01*
X6202400Y1768100D01*
X6125184Y1707155D02*
X6130040Y1712010D01*
X6119859Y1707155D02*
X6125184D01*
X6130040Y1712010D02*
X6146800D01*
X6160830Y1718100D02*
X6202400D01*
X6859595Y2174641D02*
Y2489312D01*
Y2808295D01*
X6155117Y2495663D02*
X6161452Y2489328D01*
X6068060Y2735580D02*
X6155117Y2648523D01*
Y2495663D02*
Y2648523D01*
X4963160Y2735580D02*
X6068060D01*
X2743161Y2380565D02*
X2757077D01*
X2959691Y2583180D01*
X2739395Y2376800D02*
X2743161Y2380565D01*
X2959691Y2583180D02*
X3344080D01*
X2758200Y2331400D02*
X2974420Y2547620D01*
X3341540D01*
X2754560Y2331400D02*
X2758200D01*
X2739395Y2321560D02*
X2744720D01*
X2754560Y2331400D01*
X3344080Y2583180D02*
X3362268Y2601368D01*
X3341540Y2547620D02*
X3362268Y2526892D01*
X3367268D01*
X3377108Y2512052D02*
Y2517052D01*
X3367268Y2526892D02*
X3377108Y2517052D01*
X3367268Y2601368D02*
X3377108Y2611208D01*
X3362268Y2601368D02*
X3367268D01*
X3377108Y2611208D02*
Y2616208D01*
X3218180Y1960369D02*
X3287402Y1891148D01*
X3218180Y1960369D02*
Y2138169D01*
X3133849Y2222500D02*
X3218180Y2138169D01*
X3287402Y1891148D02*
X3501508D01*
X3182620Y1945640D02*
Y2123440D01*
X3272672Y1855588D02*
X3498732D01*
X3182620Y1945640D02*
X3272672Y1855588D01*
X3520840Y1910480D02*
X3525840D01*
X3501508Y1891148D02*
X3520840Y1910480D01*
X3525840D02*
Y1915480D01*
X3498732Y1855588D02*
X3520840Y1833480D01*
X3525840Y1915480D02*
X3535680Y1925320D01*
X3525840Y1833480D02*
X3535680Y1823640D01*
X3520840Y1833480D02*
X3525840D01*
X3535680Y1818640D02*
Y1823640D01*
X2649500Y2068100D02*
X2764060D01*
X2882900Y2186940D02*
X3119120D01*
X2764060Y2068100D02*
X2882900Y2186940D01*
X2864698Y2222500D02*
X3133849D01*
X3119120Y2186940D02*
X3182620Y2123440D01*
X797560Y2735580D02*
X1902460D01*
X1989517Y2495663D02*
Y2648523D01*
X1902460Y2735580D02*
X1989517Y2648523D01*
Y2495663D02*
X1995852Y2489328D01*
X2814320Y2928620D02*
X3894520D01*
X2693995Y2808295D02*
X2814320Y2928620D01*
X2693995Y2489312D02*
Y2808295D01*
Y2174641D02*
Y2489312D01*
X3887280Y2839341D02*
X3894520Y2832100D01*
X1981200Y1463040D02*
Y1704070D01*
X1995230Y1718100D02*
X2036800D01*
X1981200Y1704070D02*
X1995230Y1718100D01*
X1964440Y1712010D02*
X1981200D01*
Y1463040D02*
X2039648Y1404592D01*
X1954259Y1707155D02*
X1959584D01*
X1964440Y1712010D01*
X2036670Y1767970D02*
X2036800Y1768100D01*
X1955930Y1767970D02*
X2036670D01*
X1955800Y1767840D02*
X1955930Y1767970D01*
X2721860Y1712010D02*
X2726715Y1707155D01*
X2732041D01*
X2655590Y1712010D02*
X2721860D01*
X2649500Y1718100D02*
X2655590Y1712010D01*
X2039648Y1404592D02*
X2131060D01*
X2034540Y1633220D02*
X2114620D01*
X2119420Y1638020D01*
X2569420D02*
X2574220Y1633220D01*
X2654300D01*
X2269420Y2063680D02*
Y2248180D01*
X2649500Y2118100D02*
X2760298D01*
X2864698Y2222500D01*
X2992120Y1945640D02*
Y2044700D01*
X2994660Y2047240D02*
X3073400D01*
X2992120Y2044700D02*
X2994660Y2047240D01*
X3073400D02*
X3075940Y2044700D01*
X9987534Y3960470D02*
X10121445D01*
X10141164Y3980188D01*
X10233664Y3660144D02*
Y3766824D01*
X10233660Y3660140D02*
X10233664Y3660144D01*
Y3766824D02*
X10233668Y3766828D01*
X9796780Y4031234D02*
Y4119880D01*
X9312762Y3667325D02*
Y3777380D01*
X9363162Y3827780D01*
X9312762Y3667325D02*
X9360658Y3619428D01*
Y3614428D02*
Y3619428D01*
X9360628Y4038608D02*
X9360639Y4038597D01*
Y3934471D02*
X9360650Y3934460D01*
X9360639Y3934471D02*
Y4038597D01*
X9450642Y3929452D02*
Y3934452D01*
X9504449Y3880645D02*
X9605866D01*
X9450642Y3929452D02*
X9460482Y3919612D01*
X9465482D01*
X9504449Y3880645D01*
X9453162Y3827780D02*
X9465862Y3840480D01*
X9606026D01*
X9453162Y3721100D02*
Y3827780D01*
X9605866Y3880645D02*
X9606026Y3880485D01*
X854772Y2006600D02*
X1015236D01*
X448625Y1986675D02*
X834847D01*
X854772Y2006600D01*
X386540Y2048760D02*
X448625Y1986675D01*
X386540Y2048760D02*
Y2076260D01*
X1055385Y1936655D02*
X1061720Y1930320D01*
X1015236Y2006600D02*
X1055385Y1966450D01*
Y1936655D02*
Y1966450D01*
X1061720Y1818640D02*
Y1930320D01*
X3047360Y1945632D02*
X3082112D01*
X3040052D02*
X3047360D01*
Y1841492D02*
X3082112D01*
X3040068D02*
X3047360D01*
X2519550Y2323970D02*
X2519680Y2324100D01*
X2519550Y2248310D02*
Y2323970D01*
X2519420Y2248180D02*
X2519550Y2248310D01*
X2468880Y2346960D02*
X2469150Y2346690D01*
Y2248450D02*
Y2346690D01*
Y2248450D02*
X2469420Y2248180D01*
X1750700Y1729748D02*
X1760532D01*
X1715948D02*
X1750700D01*
X1946686Y2381038D02*
X1950452Y2377272D01*
X1932772Y2381038D02*
X1946686D01*
X1733169Y2580640D02*
X1932772Y2381038D01*
X1342284Y2580640D02*
X1733169D01*
X1311732Y2611192D02*
X1342284Y2580640D01*
X1311732Y2611192D02*
Y2616192D01*
Y2512052D02*
Y2517052D01*
X1321572Y2526892D02*
X1326572D01*
X1344760Y2545080D02*
X1718440D01*
X1326572Y2526892D02*
X1344760Y2545080D01*
X1718440D02*
X1935480Y2328040D01*
X1311732Y2517052D02*
X1321572Y2526892D01*
X1935480Y2324100D02*
Y2328040D01*
X2219420Y2248180D02*
X2219690Y2248450D01*
Y2346690D01*
X2219960Y2346960D01*
X2169290Y2248310D02*
X2169420Y2248180D01*
X2169290Y2248310D02*
Y2323970D01*
X2169160Y2324100D02*
X2169290Y2323970D01*
X1644020Y1838968D02*
X1651312D01*
X1609268D02*
X1644020D01*
Y1943108D02*
X1651328D01*
X1609268D02*
X1644020D01*
X1356395Y1887220D02*
X1393425Y1924251D01*
Y2075028D01*
X1189804Y1887220D02*
X1356395D01*
X1184740Y1851660D02*
X1371124D01*
X1428985Y1909521D02*
Y2060299D01*
X1371124Y1851660D02*
X1428985Y1909521D01*
X1393425Y2075028D02*
X1457077Y2138680D01*
X1859486D01*
X1471806Y2103120D02*
X1844757D01*
X1428985Y2060299D02*
X1471806Y2103120D01*
X1151712Y1920312D02*
X1161552Y1910472D01*
X1166552D02*
X1189804Y1887220D01*
X1151712Y1920312D02*
Y1925312D01*
X1161552Y1910472D02*
X1166552D01*
X1859486Y2138680D02*
X1880066Y2118100D01*
X2036800D01*
X1844757Y2103120D02*
X1879777Y2068100D01*
X1151712Y1818632D02*
Y1823632D01*
X1161552Y1833472D02*
X1166552D01*
X1151712Y1823632D02*
X1161552Y1833472D01*
X1166552D02*
X1184740Y1851660D01*
X7632180Y2291600D02*
X7687500Y2236280D01*
X7632180Y2291600D02*
Y2512044D01*
X7687500Y2236280D02*
X7910640D01*
X7791272Y1956892D02*
X7833360Y1998980D01*
X7791272Y1922772D02*
Y1956892D01*
Y1816092D02*
Y1922772D01*
X7833360Y1998980D02*
X8038660D01*
X8088440Y2048760D01*
Y2076260D01*
X7632180Y2512044D02*
Y2616200D01*
X3870880Y1995100D02*
X3924540Y2048760D01*
Y2076260D01*
X3687080Y1995100D02*
X3870880D01*
X3625672Y1818632D02*
Y1925312D01*
X3635512Y1935152D01*
Y1943532D01*
X3687080Y1995100D01*
X1879777Y2068100D02*
X2036800D01*
X2649500Y2168100D02*
X2687454D01*
X2693995Y2174641D01*
X1995852Y2173726D02*
X2001478Y2168100D01*
X1995852Y2173726D02*
Y2489328D01*
X2001478Y2168100D02*
X2036800D01*
X2119420Y2248180D02*
Y2289430D01*
X2085843Y2323006D02*
Y2489320D01*
Y2323006D02*
X2119420Y2289430D01*
X2569420D02*
X2604003Y2324013D01*
X2569420Y2248180D02*
Y2289430D01*
X2604003Y2324013D02*
Y2489320D01*
X2505104Y2489159D02*
X2603843D01*
X2604003Y2489320D01*
X2504943Y2488999D02*
X2505104Y2489159D01*
X2086004D02*
X2184743D01*
X2184903Y2488999D01*
X2085843Y2489320D02*
X2086004Y2489159D01*
X2239008Y2539399D02*
X2291583Y2486824D01*
X2184903Y2573999D02*
X2219504Y2539399D01*
X2239008D01*
X2470343D02*
X2504943Y2573999D01*
X2450838Y2539399D02*
X2470343D01*
X2398263Y2486824D02*
X2450838Y2539399D01*
X2291583Y2486824D02*
X2398263D01*
Y2396776D02*
Y2486824D01*
X2369420Y2367933D02*
X2398263Y2396776D01*
X2369420Y2248180D02*
Y2367933D01*
X2319420Y2248180D02*
Y2377022D01*
X2291583Y2404858D02*
Y2486824D01*
Y2404858D02*
X2319420Y2377022D01*
X2752018Y1968100D02*
X2833707Y2049788D01*
X2884348D01*
X2649500Y1968100D02*
X2752018D01*
X2890520Y1847298D02*
X2893419Y1844399D01*
X2989221D01*
X2992120Y1841500D01*
X2987949Y1941469D02*
X2992120Y1945640D01*
X2894691Y1941469D02*
X2987949D01*
X2890520Y1937298D02*
X2894691Y1941469D01*
X2791860Y1918100D02*
X2811058Y1937298D01*
X2890520D01*
X2649500Y1918100D02*
X2791860D01*
X2803849Y1847298D02*
X2890520D01*
X2783047Y1868100D02*
X2803849Y1847298D01*
X2649500Y1868100D02*
X2783047D01*
X2469420Y1490440D02*
Y1638020D01*
Y1490440D02*
X2557780Y1402080D01*
X2419420Y1430543D02*
X2445380Y1404583D01*
X2419420Y1430543D02*
Y1638020D01*
X2445380Y1404583D02*
X2450380D01*
X2169420Y1470400D02*
Y1638020D01*
Y1470400D02*
X2237740Y1402080D01*
X1805940Y1623060D02*
Y1729740D01*
X1811108Y1734908D02*
X1856420D01*
X1939612Y1818100D01*
X2036800D01*
X1805940Y1729740D02*
X1811108Y1734908D01*
X1702746Y1939614D02*
X1796928D01*
X1800414Y1936128D01*
X1699260Y1943100D02*
X1702746Y1939614D01*
X1702844Y1842544D02*
X1796830D01*
X1800414Y1846128D01*
X1699260Y1838960D02*
X1702844Y1842544D01*
X1800414Y1846128D02*
X1892769D01*
X1914740Y1868100D01*
X2036800D01*
X1886155Y1936128D02*
X1904183Y1918100D01*
X2036800D01*
X1800414Y1936128D02*
X1886155D01*
X1221740Y2512060D02*
Y2616200D01*
X943980Y2617280D02*
X945060Y2616200D01*
X1221740D01*
X3467100Y2296160D02*
Y2512044D01*
Y2296160D02*
X3526980Y2236280D01*
X3745560D01*
X3467100Y2512044D02*
Y2616200D01*
X4994121Y1990860D02*
X5009861Y2006600D01*
X4608120Y1990860D02*
X4994121D01*
X4550220Y2048760D02*
X4608120Y1990860D01*
X4550220Y2048760D02*
Y2076260D01*
D44*
X3751580Y2079100D02*
Y2159000D01*
X3749040Y2076560D02*
X3751580Y2079100D01*
D45*
X9276215Y4290060D02*
X9332095Y4234180D01*
X9147780Y4290060D02*
X9276215D01*
X9332095Y4234180D02*
X9502140D01*
X9088120Y2575560D02*
X9156700D01*
X9085580Y2578100D02*
X9088120Y2575560D01*
X9337040D02*
X9339580Y2578100D01*
X9268460Y2575560D02*
X9337040D01*
X5661660Y1925320D02*
X5732388Y1996048D01*
X5561440Y1654920D02*
X5661660Y1755140D01*
X5102860Y1654920D02*
X5561440D01*
X5661660Y1755140D02*
Y1925320D01*
X5969000Y1996440D02*
Y2049780D01*
X6065512Y1996048D02*
X6093460Y1968100D01*
X5732388Y1996048D02*
X6065512D01*
X6093460Y1968100D02*
X6202400D01*
X1927860D02*
X2036800D01*
X1566788Y1996048D02*
X1899912D01*
X1927860Y1968100D01*
X1803400Y1996440D02*
Y2049780D01*
X1496060Y1755140D02*
Y1925320D01*
X937260Y1654920D02*
X1395840D01*
X1496060Y1755140D01*
Y1925320D02*
X1566788Y1996048D01*
X9577622Y4158698D02*
X9629140D01*
X9502140Y4234180D02*
X9577622Y4158698D01*
X9735820D02*
X9756775Y4137743D01*
Y4031234D02*
Y4137743D01*
X9629140Y4158698D02*
X9735820D01*
X9063880Y4206160D02*
X9147780Y4290060D01*
X9063880Y4201160D02*
Y4206160D01*
X9390660Y4397980D02*
Y4475480D01*
D46*
X8900047Y2321560D02*
X9635040D01*
X8485297Y1906810D02*
X8900047Y2321560D01*
X9635040D02*
X9847580Y2534100D01*
X8306420Y1706500D02*
Y1730499D01*
X8482730Y1906810D01*
X8485297D01*
X10355580Y2578100D02*
X10609580D01*
X10101580D02*
X10355580D01*
X9847580D02*
X10101580D01*
X9847580Y2534100D02*
Y2578100D01*
X8278940Y1726260D02*
X8288940D01*
D47*
X4428490Y4622800D02*
D03*
D48*
X8638134Y5203012D02*
D03*
X9502140D02*
D03*
D49*
X8638134Y5621020D02*
D03*
X9502140D02*
D03*
D50*
X9360129Y5252999D02*
D03*
X8781136D02*
D03*
D51*
X8511540Y3380740D02*
D03*
Y4100740D02*
D03*
X4348352Y3380740D02*
D03*
Y4100740D02*
D03*
X342900Y4091940D02*
D03*
Y3371940D02*
D03*
X4506088D02*
D03*
Y4091940D02*
D03*
D52*
X4378960Y4495800D02*
D03*
X4427220Y4447540D02*
D03*
X4475480Y4495800D02*
D03*
Y4399280D02*
D03*
X4378960D02*
D03*
X9921240Y4714240D02*
D03*
X8610600Y3992880D02*
D03*
X8658860Y3944620D02*
D03*
X8707120Y3992880D02*
D03*
Y3896360D02*
D03*
X8610600D02*
D03*
Y4163060D02*
D03*
X8658860Y4114800D02*
D03*
X8707120Y4163060D02*
D03*
Y4066540D02*
D03*
X8610600D02*
D03*
X9179560Y3992880D02*
D03*
X9227820Y3944620D02*
D03*
X9276080Y3992880D02*
D03*
Y3896360D02*
D03*
X9179560D02*
D03*
Y4163060D02*
D03*
X9227820Y4114800D02*
D03*
X9276080Y4163060D02*
D03*
Y4066540D02*
D03*
X9179560D02*
D03*
X10053320Y4155440D02*
D03*
X10012680Y4244340D02*
D03*
X9913620Y3797300D02*
D03*
X9911080Y3726180D02*
D03*
X9748840Y3889765D02*
D03*
X9687560Y3891280D02*
D03*
X9748840Y3952240D02*
D03*
X9687560D02*
D03*
X10030030Y3304650D02*
D03*
X10109630D02*
D03*
X10069830Y3344450D02*
D03*
Y3275010D02*
D03*
X6723380Y1341840D02*
D03*
X6615972Y1349344D02*
D03*
X6403340Y1341840D02*
D03*
X9735820Y4218938D02*
D03*
X9629140D02*
D03*
X9415868Y4038600D02*
D03*
X10279372Y3980188D02*
D03*
X10233356Y3599900D02*
D03*
X9591040Y3483060D02*
D03*
X9363880Y3554188D02*
D03*
X9415898Y3611966D02*
D03*
X9365676Y3678616D02*
D03*
X894080Y1485900D02*
D03*
X990600Y1389380D02*
D03*
X894080D02*
D03*
X990600Y1485900D02*
D03*
X942340Y1437640D02*
D03*
X7957820Y1485900D02*
D03*
X7861300Y1389380D02*
D03*
X7957820D02*
D03*
X7861300Y1485900D02*
D03*
X7909560Y1437640D02*
D03*
X5059680Y1485900D02*
D03*
X5156200Y1389380D02*
D03*
X5059680D02*
D03*
X5156200Y1485900D02*
D03*
X5107940Y1437640D02*
D03*
X3743960D02*
D03*
X3695700Y1485900D02*
D03*
X3792220Y1389380D02*
D03*
X3695700D02*
D03*
X3792220Y1485900D02*
D03*
X8006080Y4057560D02*
D03*
X7909560Y4154080D02*
D03*
X7813040D02*
D03*
Y4057560D02*
D03*
X7909560D02*
D03*
Y4250600D02*
D03*
X7813040D02*
D03*
X8006080D02*
D03*
Y4154080D02*
D03*
X7957820Y4202340D02*
D03*
X7861300D02*
D03*
Y4105820D02*
D03*
X7957820D02*
D03*
X7366000Y4415700D02*
D03*
X7269480Y4319180D02*
D03*
X7366000D02*
D03*
X7172960D02*
D03*
Y4512220D02*
D03*
Y4415700D02*
D03*
X7366000Y4512220D02*
D03*
X7269480D02*
D03*
X7317740Y4463960D02*
D03*
X7269480Y4415700D02*
D03*
X7221220Y4463960D02*
D03*
Y4367440D02*
D03*
X7317740D02*
D03*
X5621020Y4415700D02*
D03*
X5572760Y4367440D02*
D03*
X5621020Y4319180D02*
D03*
X5427980D02*
D03*
X5524500D02*
D03*
Y4512220D02*
D03*
X5476240Y4463960D02*
D03*
X5427980Y4512220D02*
D03*
Y4415700D02*
D03*
X5621020Y4512220D02*
D03*
X5572760Y4463960D02*
D03*
X5524500Y4415700D02*
D03*
X5476240Y4367440D02*
D03*
X6962140Y3516540D02*
D03*
Y3420020D02*
D03*
X6817360Y3468280D02*
D03*
X6769100Y3516540D02*
D03*
Y3420020D02*
D03*
X6865620D02*
D03*
X6769100Y3613060D02*
D03*
X6962140D02*
D03*
X6865620D02*
D03*
X6913880Y3564800D02*
D03*
X6865620Y3516540D02*
D03*
X6817360Y3564800D02*
D03*
X6913880Y3468280D02*
D03*
X6215380Y3417480D02*
D03*
X6118860Y3514000D02*
D03*
X6070600Y3465740D02*
D03*
X6022340Y3514000D02*
D03*
Y3417480D02*
D03*
X6118860D02*
D03*
Y3610520D02*
D03*
X6070600Y3562260D02*
D03*
X6022340Y3610520D02*
D03*
X6215380D02*
D03*
X6167120Y3562260D02*
D03*
X6215380Y3514000D02*
D03*
X6167120Y3465740D02*
D03*
X2687320Y3456940D02*
D03*
X2783840Y3553460D02*
D03*
X2735580Y3505200D02*
D03*
X2687320Y3553460D02*
D03*
X2639060Y3505200D02*
D03*
Y3601720D02*
D03*
X2832100Y3505200D02*
D03*
Y3601720D02*
D03*
X2735580D02*
D03*
Y3408680D02*
D03*
X2832100D02*
D03*
X2783840Y3456940D02*
D03*
X2639060Y3408680D02*
D03*
X1940560Y3556000D02*
D03*
X1892300Y3604260D02*
D03*
X2085340D02*
D03*
X2037080Y3556000D02*
D03*
X1988820Y3604260D02*
D03*
Y3411220D02*
D03*
X2085340D02*
D03*
Y3507740D02*
D03*
X2037080Y3459480D02*
D03*
X1988820Y3507740D02*
D03*
X1892300Y3411220D02*
D03*
X1940560Y3459480D02*
D03*
X1892300Y3507740D02*
D03*
X4378960Y3677920D02*
D03*
X4330700Y3726180D02*
D03*
X4427220Y3822700D02*
D03*
X4378960Y3774440D02*
D03*
X4330700Y3822700D02*
D03*
X4427220Y3726180D02*
D03*
X4523740D02*
D03*
Y3822700D02*
D03*
X4475480Y3774440D02*
D03*
X4523740Y3629660D02*
D03*
X4475480Y3677920D02*
D03*
X4330700Y3629660D02*
D03*
X4427220D02*
D03*
X3281680Y4358640D02*
D03*
X3329940Y4406900D02*
D03*
X3281680Y4455160D02*
D03*
X3233420Y4406900D02*
D03*
Y4503420D02*
D03*
X3426460D02*
D03*
X3378200Y4455160D02*
D03*
X3329940Y4503420D02*
D03*
X3426460Y4310380D02*
D03*
Y4406900D02*
D03*
X3378200Y4358640D02*
D03*
X3233420Y4310380D02*
D03*
X3329940D02*
D03*
X1536700Y4358640D02*
D03*
Y4455160D02*
D03*
X1584960Y4503420D02*
D03*
X1488440D02*
D03*
X1584960Y4406900D02*
D03*
X1681480D02*
D03*
Y4503420D02*
D03*
X1633220Y4455160D02*
D03*
X1584960Y4310380D02*
D03*
X1681480D02*
D03*
X1633220Y4358640D02*
D03*
X1488440Y4310380D02*
D03*
Y4406900D02*
D03*
X993140Y4097020D02*
D03*
Y4193540D02*
D03*
X896620D02*
D03*
X848360Y4145280D02*
D03*
X944880D02*
D03*
X848360Y4241800D02*
D03*
X1041400D02*
D03*
X944880D02*
D03*
X1041400Y4048760D02*
D03*
Y4145280D02*
D03*
X848360Y4048760D02*
D03*
X944880D02*
D03*
X896620Y4097020D02*
D03*
X3787140Y2159000D02*
D03*
X3716020D02*
D03*
X2392680Y1894840D02*
D03*
Y1991360D02*
D03*
X2296160D02*
D03*
X2247900Y1943100D02*
D03*
Y2039620D02*
D03*
X2440940D02*
D03*
X2344420D02*
D03*
Y1846580D02*
D03*
X2440940D02*
D03*
Y1943100D02*
D03*
X2344420D02*
D03*
X2247900Y1846580D02*
D03*
X2296160Y1894840D02*
D03*
X6413500Y1943100D02*
D03*
Y1846580D02*
D03*
X6606540D02*
D03*
X6510020D02*
D03*
X6558280Y1991360D02*
D03*
X6606540Y2039620D02*
D03*
Y1943100D02*
D03*
X6413500Y2039620D02*
D03*
X6510020D02*
D03*
X6461760Y1991360D02*
D03*
X6510020Y1943100D02*
D03*
X6558280Y1894840D02*
D03*
X6461760D02*
D03*
X6563360Y2621280D02*
D03*
X6456680D02*
D03*
X7241548Y2099940D02*
D03*
X5908760Y2049780D02*
D03*
X2398263Y2618237D02*
D03*
X2291583D02*
D03*
X1743160Y2049780D02*
D03*
X1750052Y1623068D02*
D03*
X3075948Y2099940D02*
D03*
X7914640Y2044380D02*
D03*
Y2113820D02*
D03*
X7954440Y2074020D02*
D03*
X7874840D02*
D03*
X8444310Y1361186D02*
D03*
X8484110Y1400986D02*
D03*
X8519700Y1358900D02*
D03*
X8479900Y1319100D02*
D03*
X374540D02*
D03*
X334740Y1358900D02*
D03*
X374540Y1398700D02*
D03*
X414340Y1358900D02*
D03*
X4378960Y1249680D02*
D03*
X4475480D02*
D03*
Y1346200D02*
D03*
X4427220Y1297940D02*
D03*
X4378960Y1346200D02*
D03*
X8945129Y5230569D02*
D03*
X9527540Y3528060D02*
D03*
X9268460Y2575560D02*
D03*
X9156700D02*
D03*
X8831580Y2423160D02*
D03*
X9573260Y2717800D02*
D03*
X9133020Y3786868D02*
D03*
X9869720Y4163060D02*
D03*
X10039265Y3880485D02*
D03*
X9827240Y4223300D02*
D03*
X9606280Y4000500D02*
D03*
X9793512Y3452158D02*
D03*
X9223300Y3736340D02*
D03*
X9897357Y4098443D02*
D03*
X9842180Y4101075D02*
D03*
X9636760Y3624580D02*
D03*
X9649535Y3543300D02*
D03*
X9736369Y3565929D02*
D03*
X9791385Y3570898D02*
D03*
X9195143Y5207117D02*
D03*
X8895138Y5207068D02*
D03*
X9145130Y5074905D02*
D03*
X9045130D02*
D03*
X9095143Y5207117D02*
D03*
X8995143D02*
D03*
X8663940Y2984500D02*
D03*
Y2887980D02*
D03*
X8712200Y2936240D02*
D03*
X8663940Y3081020D02*
D03*
X8712200Y3032760D02*
D03*
Y3129280D02*
D03*
X8615680Y2936240D02*
D03*
Y3032760D02*
D03*
Y3225800D02*
D03*
Y3129280D02*
D03*
X8663940Y3177540D02*
D03*
X6895380Y1313900D02*
D03*
X6510020Y1341840D02*
D03*
X2776220Y1511880D02*
D03*
X2699256Y1313900D02*
D03*
X2557780Y1341840D02*
D03*
X2450372Y1349344D02*
D03*
X2344420Y1341840D02*
D03*
X2237740D02*
D03*
X2131052Y1349352D02*
D03*
X2664468Y1369140D02*
D03*
X6485020Y1565040D02*
D03*
X2755360Y1818100D02*
D03*
X2319420Y1559960D02*
D03*
X6830068Y1369140D02*
D03*
X6385020Y1557560D02*
D03*
X2519420Y1557280D02*
D03*
X5809620Y1943108D02*
D03*
Y1838968D02*
D03*
X6334760Y2324100D02*
D03*
X6385560Y2346960D02*
D03*
X6101080Y2324100D02*
D03*
X6116052Y2377272D02*
D03*
X6634480Y2346960D02*
D03*
X6685280Y2324100D02*
D03*
X7212960Y1841492D02*
D03*
Y1945632D02*
D03*
X6819900Y1633220D02*
D03*
X6200140D02*
D03*
X6897641Y1707155D02*
D03*
X6896100Y1767840D02*
D03*
X6121400D02*
D03*
X6119859Y1707155D02*
D03*
X6904995Y2321560D02*
D03*
Y2376800D02*
D03*
X2739395D02*
D03*
Y2321560D02*
D03*
X1954259Y1707155D02*
D03*
X1955800Y1767840D02*
D03*
X2730500D02*
D03*
X2732041Y1707155D02*
D03*
X2034540Y1633220D02*
D03*
X2654300D02*
D03*
X8282940Y5130800D02*
D03*
Y4937760D02*
D03*
X8186420Y5034280D02*
D03*
X8796020Y4498340D02*
D03*
X8844280Y4353560D02*
D03*
Y4450080D02*
D03*
X8796020Y4401820D02*
D03*
X8747760Y4353560D02*
D03*
Y4450080D02*
D03*
X8699500Y4401820D02*
D03*
X8651240Y4353560D02*
D03*
Y4450080D02*
D03*
Y4546600D02*
D03*
X8554720Y4353560D02*
D03*
Y4450080D02*
D03*
X8506460Y4401820D02*
D03*
X8602980D02*
D03*
X8506460Y4498340D02*
D03*
X8554720Y4546600D02*
D03*
X8602980Y4498340D02*
D03*
X8844280Y4643120D02*
D03*
Y4546600D02*
D03*
X8796020Y4594860D02*
D03*
X8699500D02*
D03*
X8747760Y4546600D02*
D03*
Y4643120D02*
D03*
X8796020Y4691380D02*
D03*
X8699500Y4498340D02*
D03*
X8651240Y4643120D02*
D03*
X8699500Y4691380D02*
D03*
X8506460Y4594860D02*
D03*
X8602980D02*
D03*
X8554720Y4643120D02*
D03*
X8506460Y4691380D02*
D03*
X8602980D02*
D03*
X8554720Y4932680D02*
D03*
X8602980Y4884420D02*
D03*
X8651240Y4932680D02*
D03*
X8602980Y4787900D02*
D03*
X8554720Y4836160D02*
D03*
Y4739640D02*
D03*
X8651240D02*
D03*
X8747760Y4932680D02*
D03*
X8651240Y4836160D02*
D03*
X8699500Y4884420D02*
D03*
X8747760Y4836160D02*
D03*
X8699500Y4787900D02*
D03*
X8747760Y4739640D02*
D03*
X8844280Y4932680D02*
D03*
X8796020Y4884420D02*
D03*
Y4787900D02*
D03*
X8844280Y4739640D02*
D03*
X8892540Y4884420D02*
D03*
X8940800Y4932680D02*
D03*
Y4739640D02*
D03*
X8989060Y4884420D02*
D03*
Y4787900D02*
D03*
X9085580D02*
D03*
X8892540D02*
D03*
X8844280Y4836160D02*
D03*
X8940800D02*
D03*
X9037320Y4739640D02*
D03*
Y4836160D02*
D03*
Y4932680D02*
D03*
X9085580Y4884420D02*
D03*
X9133840Y4739640D02*
D03*
X9230360Y4932680D02*
D03*
X9133840D02*
D03*
X9182100Y4884420D02*
D03*
X9230360Y4836160D02*
D03*
X9182100Y4787900D02*
D03*
X9133840Y4836160D02*
D03*
X9230360Y4739640D02*
D03*
X9278620Y4884420D02*
D03*
X9326880Y4836160D02*
D03*
Y4739640D02*
D03*
X9278620Y4787900D02*
D03*
X9326880Y4932680D02*
D03*
X9375140Y4787900D02*
D03*
X9423400Y4932680D02*
D03*
Y4836160D02*
D03*
X9375140Y4884420D02*
D03*
X9423400Y4739640D02*
D03*
X9471660Y4884420D02*
D03*
Y4787900D02*
D03*
X9519920Y4739640D02*
D03*
Y4932680D02*
D03*
X9616440Y4836160D02*
D03*
X9519920D02*
D03*
X9568180Y4884420D02*
D03*
Y4787900D02*
D03*
X9616440Y4739640D02*
D03*
Y4932680D02*
D03*
X9664700Y4884420D02*
D03*
X9712960Y4932680D02*
D03*
Y4836160D02*
D03*
X9664700Y4787900D02*
D03*
X9712960Y4739640D02*
D03*
X9761220Y4884420D02*
D03*
X9809480Y4836160D02*
D03*
X9761220Y4787900D02*
D03*
X9809480Y4739640D02*
D03*
Y4932680D02*
D03*
X9857740Y4884420D02*
D03*
Y4787900D02*
D03*
X8689340Y5318760D02*
D03*
X8882380Y5511800D02*
D03*
X8785860Y5415280D02*
D03*
X8978900D02*
D03*
X8882380Y5318760D02*
D03*
X9171940Y5415280D02*
D03*
X9075420Y5318760D02*
D03*
X9268460Y5511800D02*
D03*
X9364980Y5415280D02*
D03*
X9461500Y5318760D02*
D03*
X9268460D02*
D03*
X9558020Y5415280D02*
D03*
X8689340Y5704840D02*
D03*
X8882380D02*
D03*
X8785860Y5608320D02*
D03*
X8689340Y5511800D02*
D03*
X8978900Y5608320D02*
D03*
X9075420Y5511800D02*
D03*
X9268460Y5704840D02*
D03*
X9075420D02*
D03*
X9171940Y5608320D02*
D03*
X9461500Y5704840D02*
D03*
X9364980Y5608320D02*
D03*
X9461500Y5511800D02*
D03*
X9558020Y5608320D02*
D03*
X9654540Y5704840D02*
D03*
Y5511800D02*
D03*
X10426700Y4739640D02*
D03*
X10523220Y4836160D02*
D03*
X10619740Y4932680D02*
D03*
Y4739640D02*
D03*
X9654540Y5125720D02*
D03*
X10040620D02*
D03*
X10426700Y4932680D02*
D03*
Y5125720D02*
D03*
X10523220Y5029200D02*
D03*
X9654540Y5318760D02*
D03*
X9751060Y5222240D02*
D03*
X9847580Y5318760D02*
D03*
X9944100Y5222240D02*
D03*
X9847580Y5125720D02*
D03*
X10233660Y5318760D02*
D03*
X10040620D02*
D03*
X10137140Y5222240D02*
D03*
X10330180D02*
D03*
X10233660Y5125720D02*
D03*
X10619740Y5318760D02*
D03*
X10426700D02*
D03*
X10523220Y5222240D02*
D03*
X10619740Y5125720D02*
D03*
X9751060Y5415280D02*
D03*
X9944100D02*
D03*
X10137140D02*
D03*
X10330180D02*
D03*
X10619740Y5511800D02*
D03*
X10426700D02*
D03*
X10523220Y5415280D02*
D03*
X9751060Y5608320D02*
D03*
X10040620Y5704840D02*
D03*
X9847580D02*
D03*
X9944100Y5608320D02*
D03*
X9847580Y5511800D02*
D03*
X10233660Y5704840D02*
D03*
X10137140Y5608320D02*
D03*
X10233660Y5511800D02*
D03*
X10040620D02*
D03*
X10330180Y5608320D02*
D03*
X10619740Y5704840D02*
D03*
X10426700D02*
D03*
X10523220Y5608320D02*
D03*
X561340Y5458460D02*
D03*
Y5651500D02*
D03*
X657860Y5554980D02*
D03*
X754380Y5651500D02*
D03*
X850900Y5554980D02*
D03*
X947420Y5458460D02*
D03*
X754380D02*
D03*
X947420Y5651500D02*
D03*
X1043940Y5554980D02*
D03*
X9867900Y4384040D02*
D03*
Y4480560D02*
D03*
Y4577080D02*
D03*
X9819640Y4625340D02*
D03*
X9771380Y4384040D02*
D03*
X9819640Y4335780D02*
D03*
Y4432300D02*
D03*
X9771380Y4480560D02*
D03*
X9819640Y4528820D02*
D03*
X9771380Y4577080D02*
D03*
X9723120Y4335780D02*
D03*
X9674860Y4384040D02*
D03*
X9723120Y4528820D02*
D03*
Y4432300D02*
D03*
X9674860Y4480560D02*
D03*
X9626600Y4528820D02*
D03*
Y4625340D02*
D03*
X9674860Y4577080D02*
D03*
X9723120Y4625340D02*
D03*
X9626600Y4432300D02*
D03*
X9578340Y4384040D02*
D03*
X9626600Y4335780D02*
D03*
X9578340Y4480560D02*
D03*
X9530080Y4528820D02*
D03*
X9578340Y4577080D02*
D03*
X9433560Y4335780D02*
D03*
X9530080D02*
D03*
X9481820Y4384040D02*
D03*
Y4480560D02*
D03*
X9530080Y4432300D02*
D03*
X9433560Y4625340D02*
D03*
X9481820Y4577080D02*
D03*
X9530080Y4625340D02*
D03*
X9337040Y4335780D02*
D03*
Y4432300D02*
D03*
X9385300Y4384040D02*
D03*
X9433560Y4432300D02*
D03*
Y4528820D02*
D03*
X9385300Y4480560D02*
D03*
X9337040Y4528820D02*
D03*
X9385300Y4577080D02*
D03*
X9337040Y4625340D02*
D03*
X368300Y4937760D02*
D03*
X561340D02*
D03*
X464820Y5034280D02*
D03*
X368300Y5130800D02*
D03*
X657860Y5034280D02*
D03*
X754380Y4937760D02*
D03*
X850900Y5034280D02*
D03*
X947420Y4937760D02*
D03*
X1043940Y5034280D02*
D03*
X1140460Y5130800D02*
D03*
X1236980Y5034280D02*
D03*
X1333500Y4937760D02*
D03*
X1140460D02*
D03*
X1526540Y5130800D02*
D03*
X1333500D02*
D03*
X1430020Y5034280D02*
D03*
X1526540Y4937760D02*
D03*
X1719580Y5130800D02*
D03*
X1623060Y5034280D02*
D03*
X1912620Y5130800D02*
D03*
X1816100Y5034280D02*
D03*
X1719580Y4937760D02*
D03*
X2105660Y5130800D02*
D03*
X2009140Y5034280D02*
D03*
X2105660Y4937760D02*
D03*
X1912620D02*
D03*
X2202180Y5034280D02*
D03*
X2491740Y5130800D02*
D03*
X2298700D02*
D03*
X2395220Y5034280D02*
D03*
X2298700Y4937760D02*
D03*
X2588260Y5034280D02*
D03*
X2684780Y4937760D02*
D03*
X2491740D02*
D03*
X2877820Y5130800D02*
D03*
X2684780D02*
D03*
X2781300Y5034280D02*
D03*
X3070860Y5130800D02*
D03*
X2974340Y5034280D02*
D03*
X3070860Y4937760D02*
D03*
X2877820D02*
D03*
X3167380Y5034280D02*
D03*
X3263900Y5130800D02*
D03*
X3360420Y5034280D02*
D03*
X3263900Y4937760D02*
D03*
X3456940Y5130800D02*
D03*
X3553460Y5034280D02*
D03*
X3649980Y4937760D02*
D03*
X3456940D02*
D03*
X3843020Y5130800D02*
D03*
X3649980D02*
D03*
X3746500Y5034280D02*
D03*
X3939540D02*
D03*
X4036060Y4937760D02*
D03*
X3843020D02*
D03*
X4229100Y5130800D02*
D03*
X4036060D02*
D03*
X4132580Y5034280D02*
D03*
X4422140Y5130800D02*
D03*
X4325620Y5034280D02*
D03*
X4229100Y4937760D02*
D03*
X4615180Y5130800D02*
D03*
X4518660Y5034280D02*
D03*
X4422140Y4937760D02*
D03*
X4711700Y5034280D02*
D03*
X4808220Y4937760D02*
D03*
X4615180D02*
D03*
X5001260Y5130800D02*
D03*
X4808220D02*
D03*
X4904740Y5034280D02*
D03*
X5001260Y4937760D02*
D03*
X5097780Y5034280D02*
D03*
X5194300Y4937760D02*
D03*
X5387340Y5130800D02*
D03*
X5194300D02*
D03*
X5290820Y5034280D02*
D03*
X5580380Y5130800D02*
D03*
X5483860Y5034280D02*
D03*
X5580380Y4937760D02*
D03*
X5387340D02*
D03*
X5773420Y5130800D02*
D03*
X5676900Y5034280D02*
D03*
X5773420Y4937760D02*
D03*
X5869940Y5034280D02*
D03*
X5966460Y5130800D02*
D03*
X6062980Y5034280D02*
D03*
X5966460Y4937760D02*
D03*
X6352540Y5130800D02*
D03*
X6159500D02*
D03*
X6256020Y5034280D02*
D03*
X6159500Y4937760D02*
D03*
X6449060Y5034280D02*
D03*
X6352540Y4937760D02*
D03*
X6738620Y5130800D02*
D03*
X6545580D02*
D03*
X6642100Y5034280D02*
D03*
X6738620Y4937760D02*
D03*
X6545580D02*
D03*
X6931660Y5130800D02*
D03*
X6835140Y5034280D02*
D03*
X6931660Y4937760D02*
D03*
X7028180Y5034280D02*
D03*
X7317740Y5130800D02*
D03*
X7124700D02*
D03*
X7221220Y5034280D02*
D03*
X7124700Y4937760D02*
D03*
X7510780Y5130800D02*
D03*
X7414260Y5034280D02*
D03*
X7510780Y4937760D02*
D03*
X7317740D02*
D03*
X7607300Y5034280D02*
D03*
X7703820Y4937760D02*
D03*
Y5130800D02*
D03*
X7800340Y5034280D02*
D03*
X7896860Y4937760D02*
D03*
Y5130800D02*
D03*
X7993380Y5034280D02*
D03*
X8089900Y4937760D02*
D03*
Y5130800D02*
D03*
X8379460Y5034280D02*
D03*
X368300Y5458460D02*
D03*
X464820Y5554980D02*
D03*
X368300Y5651500D02*
D03*
X1333500D02*
D03*
X1140460D02*
D03*
X1236980Y5554980D02*
D03*
X1333500Y5458460D02*
D03*
X1140460D02*
D03*
X1526540Y5651500D02*
D03*
X1430020Y5554980D02*
D03*
X1719580Y5651500D02*
D03*
X1623060Y5554980D02*
D03*
X1719580Y5458460D02*
D03*
X1526540D02*
D03*
X1912620Y5651500D02*
D03*
X1816100Y5554980D02*
D03*
X2105660Y5651500D02*
D03*
X2009140Y5554980D02*
D03*
X2105660Y5458460D02*
D03*
X1912620D02*
D03*
X2298700Y5651500D02*
D03*
X2202180Y5554980D02*
D03*
X2395220D02*
D03*
X2491740Y5458460D02*
D03*
X2298700D02*
D03*
X2684780Y5651500D02*
D03*
X2491740D02*
D03*
X2588260Y5554980D02*
D03*
X2877820Y5651500D02*
D03*
X2781300Y5554980D02*
D03*
X2877820Y5458460D02*
D03*
X2684780D02*
D03*
X2974340Y5554980D02*
D03*
X3070860Y5458460D02*
D03*
X3263900Y5651500D02*
D03*
X3070860D02*
D03*
X3167380Y5554980D02*
D03*
X3360420D02*
D03*
X3456940Y5458460D02*
D03*
X3263900D02*
D03*
X3649980Y5651500D02*
D03*
X3456940D02*
D03*
X3553460Y5554980D02*
D03*
X3843020Y5651500D02*
D03*
X3746500Y5554980D02*
D03*
X3649980Y5458460D02*
D03*
X4036060Y5651500D02*
D03*
X3939540Y5554980D02*
D03*
X4036060Y5458460D02*
D03*
X3843020D02*
D03*
X4132580Y5554980D02*
D03*
X4229100Y5458460D02*
D03*
Y5651500D02*
D03*
X4325620Y5554980D02*
D03*
X4422140Y5458460D02*
D03*
X4615180Y5651500D02*
D03*
X4422140D02*
D03*
X4518660Y5554980D02*
D03*
X4615180Y5458460D02*
D03*
X4808220Y5651500D02*
D03*
X4711700Y5554980D02*
D03*
X4808220Y5458460D02*
D03*
X5001260Y5651500D02*
D03*
X4904740Y5554980D02*
D03*
X5194300Y5651500D02*
D03*
X5097780Y5554980D02*
D03*
X5194300Y5458460D02*
D03*
X5001260D02*
D03*
X5290820Y5554980D02*
D03*
X5580380Y5651500D02*
D03*
X5387340D02*
D03*
X5483860Y5554980D02*
D03*
X5387340Y5458460D02*
D03*
X5773420Y5651500D02*
D03*
X5676900Y5554980D02*
D03*
X5580380Y5458460D02*
D03*
X5966460Y5651500D02*
D03*
X5869940Y5554980D02*
D03*
X5773420Y5458460D02*
D03*
X6159500Y5651500D02*
D03*
X6062980Y5554980D02*
D03*
X5966460Y5458460D02*
D03*
X6352540Y5651500D02*
D03*
X6256020Y5554980D02*
D03*
X6352540Y5458460D02*
D03*
X6159500D02*
D03*
X6545580Y5651500D02*
D03*
X6449060Y5554980D02*
D03*
X6738620Y5651500D02*
D03*
X6642100Y5554980D02*
D03*
X6545580Y5458460D02*
D03*
X6931660Y5651500D02*
D03*
X6835140Y5554980D02*
D03*
X6738620Y5458460D02*
D03*
X7124700Y5651500D02*
D03*
X7028180Y5554980D02*
D03*
X7124700Y5458460D02*
D03*
X6931660D02*
D03*
X7317740Y5651500D02*
D03*
X7221220Y5554980D02*
D03*
X7414260D02*
D03*
X7317740Y5458460D02*
D03*
X7703820Y5651500D02*
D03*
X7510780D02*
D03*
X7607300Y5554980D02*
D03*
X7510780Y5458460D02*
D03*
X7800340Y5554980D02*
D03*
X7703820Y5458460D02*
D03*
X7896860Y5651500D02*
D03*
X7993380Y5554980D02*
D03*
X8089900Y5458460D02*
D03*
X7896860D02*
D03*
X8089900Y5651500D02*
D03*
X8186420Y5554980D02*
D03*
X8282940Y5651500D02*
D03*
X8379460Y5554980D02*
D03*
X8282940Y5458460D02*
D03*
X381000Y416560D02*
D03*
X574040D02*
D03*
X477520Y513080D02*
D03*
X381000Y609600D02*
D03*
X574040D02*
D03*
X767080D02*
D03*
X670560Y513080D02*
D03*
X767080Y416560D02*
D03*
X863600Y513080D02*
D03*
X960120Y416560D02*
D03*
X1153160Y609600D02*
D03*
X960120D02*
D03*
X1056640Y513080D02*
D03*
X1153160Y416560D02*
D03*
X1346200Y609600D02*
D03*
X1249680Y513080D02*
D03*
X1442720D02*
D03*
X1539240Y416560D02*
D03*
X1346200D02*
D03*
X1732280Y609600D02*
D03*
X1539240D02*
D03*
X1635760Y513080D02*
D03*
X1732280Y416560D02*
D03*
X1828800Y513080D02*
D03*
X1925320Y416560D02*
D03*
X2118360Y609600D02*
D03*
X1925320D02*
D03*
X2021840Y513080D02*
D03*
X2214880D02*
D03*
X2118360Y416560D02*
D03*
X2311400Y609600D02*
D03*
X2407920Y513080D02*
D03*
X2311400Y416560D02*
D03*
X2697480Y609600D02*
D03*
X2504440D02*
D03*
X2600960Y513080D02*
D03*
X2504440Y416560D02*
D03*
X2890520Y609600D02*
D03*
X2794000Y513080D02*
D03*
X2697480Y416560D02*
D03*
X2987040Y513080D02*
D03*
X3083560Y416560D02*
D03*
X2890520D02*
D03*
X3276600Y609600D02*
D03*
X3083560D02*
D03*
X3180080Y513080D02*
D03*
X3469640Y609600D02*
D03*
X3373120Y513080D02*
D03*
X3276600Y416560D02*
D03*
X3566160Y513080D02*
D03*
X3662680Y416560D02*
D03*
X3469640D02*
D03*
X3855720Y609600D02*
D03*
X3662680D02*
D03*
X3759200Y513080D02*
D03*
X3952240D02*
D03*
X4048760Y416560D02*
D03*
X3855720D02*
D03*
X4241800Y609600D02*
D03*
X4048760D02*
D03*
X4145280Y513080D02*
D03*
X4241800Y416560D02*
D03*
X4434840Y609600D02*
D03*
X4338320Y513080D02*
D03*
X4531360D02*
D03*
X4434840Y416560D02*
D03*
X4627880Y609600D02*
D03*
X4724400Y513080D02*
D03*
X4627880Y416560D02*
D03*
X4820920Y609600D02*
D03*
X4917440Y513080D02*
D03*
X5013960Y416560D02*
D03*
X4820920D02*
D03*
X5013960Y609600D02*
D03*
X5110480Y513080D02*
D03*
X5207000Y416560D02*
D03*
X5400040Y609600D02*
D03*
X5207000D02*
D03*
X5303520Y513080D02*
D03*
X5400040Y416560D02*
D03*
X5496560Y513080D02*
D03*
X5593080Y609600D02*
D03*
X5689600Y513080D02*
D03*
X5593080Y416560D02*
D03*
X5786120Y609600D02*
D03*
X5882640Y513080D02*
D03*
X5979160Y416560D02*
D03*
X5786120D02*
D03*
X6172200Y609600D02*
D03*
X5979160D02*
D03*
X6075680Y513080D02*
D03*
X6172200Y416560D02*
D03*
X6268720Y513080D02*
D03*
X6558280Y609600D02*
D03*
X6365240D02*
D03*
X6461760Y513080D02*
D03*
X6365240Y416560D02*
D03*
X6751320Y609600D02*
D03*
X6654800Y513080D02*
D03*
X6751320Y416560D02*
D03*
X6558280D02*
D03*
X6847840Y513080D02*
D03*
X7137400Y609600D02*
D03*
X6944360D02*
D03*
X7040880Y513080D02*
D03*
X7137400Y416560D02*
D03*
X6944360D02*
D03*
X7233920Y513080D02*
D03*
X7523480Y609600D02*
D03*
X7330440D02*
D03*
X7426960Y513080D02*
D03*
X7330440Y416560D02*
D03*
X7716520Y609600D02*
D03*
X7620000Y513080D02*
D03*
X7716520Y416560D02*
D03*
X7523480D02*
D03*
X7909560Y609600D02*
D03*
X7813040Y513080D02*
D03*
X7909560Y416560D02*
D03*
X8006080Y513080D02*
D03*
X8102600Y609600D02*
D03*
X8199120Y513080D02*
D03*
X8102600Y416560D02*
D03*
X8488680Y609600D02*
D03*
X8295640D02*
D03*
X8392160Y513080D02*
D03*
X8488680Y416560D02*
D03*
X8295640D02*
D03*
X474980Y886460D02*
D03*
X378460Y982980D02*
D03*
X764540D02*
D03*
X571500D02*
D03*
X668020Y886460D02*
D03*
X861060D02*
D03*
X1054100D02*
D03*
X1247140D02*
D03*
X1440180D02*
D03*
X1536700Y982980D02*
D03*
X1633220Y886460D02*
D03*
X1826260D02*
D03*
X2019300D02*
D03*
X2212340D02*
D03*
X2405380D02*
D03*
X2598420D02*
D03*
X2791460D02*
D03*
X2887980Y982980D02*
D03*
X2984500Y886460D02*
D03*
X3274060Y982980D02*
D03*
X3081020D02*
D03*
X3177540Y886460D02*
D03*
X3370580D02*
D03*
X3467100Y982980D02*
D03*
X3563620Y886460D02*
D03*
X3660140Y982980D02*
D03*
X3756660Y886460D02*
D03*
X3949700D02*
D03*
X4142740D02*
D03*
X4432300Y982980D02*
D03*
X4335780Y886460D02*
D03*
X4528820D02*
D03*
X4721860D02*
D03*
X4818380Y982980D02*
D03*
X4914900Y886460D02*
D03*
X5011420Y982980D02*
D03*
X5107940Y886460D02*
D03*
X5300980D02*
D03*
X5397500Y982980D02*
D03*
X5494020Y886460D02*
D03*
X5687060D02*
D03*
X5880100D02*
D03*
X6169660Y982980D02*
D03*
X6073140Y886460D02*
D03*
X6266180D02*
D03*
X6555740Y982980D02*
D03*
X6362700D02*
D03*
X6459220Y886460D02*
D03*
X6748780Y982980D02*
D03*
X6652260Y886460D02*
D03*
X6845300D02*
D03*
X7134860Y982980D02*
D03*
X6941820D02*
D03*
X7038340Y886460D02*
D03*
X7327900Y982980D02*
D03*
X7231380Y886460D02*
D03*
X7520940Y982980D02*
D03*
X7424420Y886460D02*
D03*
X7713980Y982980D02*
D03*
X7617460Y886460D02*
D03*
X7907020Y982980D02*
D03*
X7810500Y886460D02*
D03*
X8003540D02*
D03*
X8196580D02*
D03*
X8486140Y982980D02*
D03*
X8293100D02*
D03*
X8389620Y886460D02*
D03*
Y1079500D02*
D03*
X8486140Y1176020D02*
D03*
X8100060Y982980D02*
D03*
X8196580Y1079500D02*
D03*
X8293100Y1176020D02*
D03*
X8003540Y1079500D02*
D03*
X8100060Y1176020D02*
D03*
X7810500Y1079500D02*
D03*
X7907020Y1176020D02*
D03*
X7617460Y1079500D02*
D03*
X7520940Y1176020D02*
D03*
X7713980D02*
D03*
X7424420Y1079500D02*
D03*
X7327900Y1176020D02*
D03*
X7231380Y1079500D02*
D03*
X7134860Y1176020D02*
D03*
X7038340Y1079500D02*
D03*
X6941820Y1176020D02*
D03*
X6845300Y1079500D02*
D03*
X6652260D02*
D03*
X6748780Y1176020D02*
D03*
X6459220Y1079500D02*
D03*
X6362700Y1176020D02*
D03*
X6555740D02*
D03*
X6266180Y1079500D02*
D03*
X6169660Y1176020D02*
D03*
X5976620Y982980D02*
D03*
X6073140Y1079500D02*
D03*
X5976620Y1176020D02*
D03*
X5880100Y1079500D02*
D03*
X5783580Y982980D02*
D03*
X5687060Y1079500D02*
D03*
X5590540Y1176020D02*
D03*
X5783580D02*
D03*
X5590540Y982980D02*
D03*
X5494020Y1079500D02*
D03*
X5204460Y982980D02*
D03*
X5300980Y1079500D02*
D03*
X5397500Y1176020D02*
D03*
X5107940Y1079500D02*
D03*
X5011420Y1176020D02*
D03*
X5204460D02*
D03*
X4914900Y1079500D02*
D03*
X4818380Y1176020D02*
D03*
X4625340Y982980D02*
D03*
X4721860Y1079500D02*
D03*
X4625340Y1176020D02*
D03*
X4528820Y1079500D02*
D03*
X4239260Y982980D02*
D03*
X4335780Y1079500D02*
D03*
X4432300Y1176020D02*
D03*
X4142740Y1079500D02*
D03*
X4239260Y1176020D02*
D03*
X3853180Y982980D02*
D03*
X4046220D02*
D03*
X3949700Y1079500D02*
D03*
X3853180Y1176020D02*
D03*
X4046220D02*
D03*
X3756660Y1079500D02*
D03*
X3660140Y1176020D02*
D03*
X3563620Y1079500D02*
D03*
X3467100Y1176020D02*
D03*
X3370580Y1079500D02*
D03*
X3177540D02*
D03*
X3081020Y1176020D02*
D03*
X3274060D02*
D03*
X2984500Y1079500D02*
D03*
X2694940Y982980D02*
D03*
X2791460Y1079500D02*
D03*
X2887980Y1176020D02*
D03*
X2501900Y982980D02*
D03*
X2598420Y1079500D02*
D03*
X2501900Y1176020D02*
D03*
X2694940D02*
D03*
X2308860Y982980D02*
D03*
X2405380Y1079500D02*
D03*
X2308860Y1176020D02*
D03*
X2212340Y1079500D02*
D03*
X2115820Y982980D02*
D03*
X2019300Y1079500D02*
D03*
X1922780Y1176020D02*
D03*
X2115820D02*
D03*
X1922780Y982980D02*
D03*
X1826260Y1079500D02*
D03*
X1729740Y1176020D02*
D03*
Y982980D02*
D03*
X1633220Y1079500D02*
D03*
X1440180D02*
D03*
X1536700Y1176020D02*
D03*
X1150620Y982980D02*
D03*
X1343660D02*
D03*
X1247140Y1079500D02*
D03*
X1343660Y1176020D02*
D03*
X957580Y982980D02*
D03*
X1054100Y1079500D02*
D03*
X957580Y1176020D02*
D03*
X1150620D02*
D03*
X861060Y1079500D02*
D03*
X764540Y1176020D02*
D03*
X668020Y1079500D02*
D03*
X571500Y1176020D02*
D03*
X378460D02*
D03*
X474980Y1079500D02*
D03*
X4961240Y3507740D02*
D03*
Y3411220D02*
D03*
X4912980Y3459480D02*
D03*
X4864720Y3507740D02*
D03*
Y3411220D02*
D03*
X4768200D02*
D03*
Y3507740D02*
D03*
X4816460Y3459480D02*
D03*
X4864720Y3411220D02*
D03*
Y3507740D02*
D03*
X4671680Y3411220D02*
D03*
Y3507740D02*
D03*
X4719940Y3459480D02*
D03*
X4768200Y3411220D02*
D03*
Y3507740D02*
D03*
X4575160Y3411220D02*
D03*
Y3507740D02*
D03*
X4623420Y3459480D02*
D03*
X4671680Y3411220D02*
D03*
Y3507740D02*
D03*
X4575160Y3411220D02*
D03*
Y3507740D02*
D03*
X4961240D02*
D03*
X4912980Y3556000D02*
D03*
X4864720Y3507740D02*
D03*
X4768200D02*
D03*
X4816460Y3556000D02*
D03*
X4864720Y3507740D02*
D03*
X4671680D02*
D03*
X4719940Y3556000D02*
D03*
X4768200Y3507740D02*
D03*
X4575160D02*
D03*
X4623420Y3556000D02*
D03*
X4671680Y3507740D02*
D03*
X4575160D02*
D03*
X3942780Y3459480D02*
D03*
X3991040Y3507740D02*
D03*
X4087560D02*
D03*
X4039300Y3459480D02*
D03*
X3991040Y3411220D02*
D03*
X4184080Y3507740D02*
D03*
X4135820Y3459480D02*
D03*
X4232340D02*
D03*
X4280600Y3507740D02*
D03*
X3894520D02*
D03*
X3942780Y3556000D02*
D03*
X4039300D02*
D03*
X4135820D02*
D03*
X4232340D02*
D03*
X4961240Y3121660D02*
D03*
Y3025140D02*
D03*
X4912980Y3073400D02*
D03*
X4864720Y3121660D02*
D03*
Y3025140D02*
D03*
X4768200D02*
D03*
Y3121660D02*
D03*
X4816460Y3073400D02*
D03*
X4864720Y3025140D02*
D03*
Y3121660D02*
D03*
X4671680Y3025140D02*
D03*
Y3121660D02*
D03*
X4719940Y3073400D02*
D03*
X4768200Y3025140D02*
D03*
Y3121660D02*
D03*
X4575160Y3025140D02*
D03*
Y3121660D02*
D03*
X4623420Y3073400D02*
D03*
X4671680Y3025140D02*
D03*
Y3121660D02*
D03*
X4478640Y3025140D02*
D03*
Y3121660D02*
D03*
X4526900Y3073400D02*
D03*
X4575160Y3025140D02*
D03*
Y3121660D02*
D03*
X4961240Y3218180D02*
D03*
Y3121660D02*
D03*
X4912980Y3169920D02*
D03*
X4864720Y3218180D02*
D03*
Y3121660D02*
D03*
X4768200D02*
D03*
Y3218180D02*
D03*
X4816460Y3169920D02*
D03*
X4864720Y3121660D02*
D03*
Y3218180D02*
D03*
X4671680Y3121660D02*
D03*
Y3218180D02*
D03*
X4719940Y3169920D02*
D03*
X4768200Y3121660D02*
D03*
Y3218180D02*
D03*
X4575160Y3121660D02*
D03*
Y3218180D02*
D03*
X4623420Y3169920D02*
D03*
X4671680Y3121660D02*
D03*
Y3218180D02*
D03*
X4478640Y3121660D02*
D03*
X4526900Y3169920D02*
D03*
X4575160Y3121660D02*
D03*
Y3218180D02*
D03*
X4961240Y3314700D02*
D03*
Y3218180D02*
D03*
X4912980Y3266440D02*
D03*
X4864720Y3314700D02*
D03*
Y3218180D02*
D03*
X4768200D02*
D03*
Y3314700D02*
D03*
X4816460Y3266440D02*
D03*
X4864720Y3218180D02*
D03*
Y3314700D02*
D03*
X4671680Y3218180D02*
D03*
Y3314700D02*
D03*
X4719940Y3266440D02*
D03*
X4768200Y3218180D02*
D03*
Y3314700D02*
D03*
X4575160Y3218180D02*
D03*
Y3314700D02*
D03*
X4623420Y3266440D02*
D03*
X4671680Y3218180D02*
D03*
Y3314700D02*
D03*
X4575160Y3218180D02*
D03*
Y3314700D02*
D03*
Y3411220D02*
D03*
Y3314700D02*
D03*
X4671680Y3411220D02*
D03*
Y3314700D02*
D03*
X4623420Y3362960D02*
D03*
X4575160Y3411220D02*
D03*
Y3314700D02*
D03*
X4768200Y3411220D02*
D03*
Y3314700D02*
D03*
X4719940Y3362960D02*
D03*
X4671680Y3411220D02*
D03*
Y3314700D02*
D03*
X4864720Y3411220D02*
D03*
Y3314700D02*
D03*
X4816460Y3362960D02*
D03*
X4768200Y3411220D02*
D03*
Y3314700D02*
D03*
X4864720D02*
D03*
Y3411220D02*
D03*
X4912980Y3362960D02*
D03*
X4961240Y3314700D02*
D03*
Y3411220D02*
D03*
X3894520Y3121660D02*
D03*
X3942780Y3073400D02*
D03*
X4087560Y3121660D02*
D03*
X4039300Y3073400D02*
D03*
X3991040Y3121660D02*
D03*
X4135820Y3073400D02*
D03*
X4087560Y3025140D02*
D03*
X4280600D02*
D03*
X4232340Y3073400D02*
D03*
X4377120Y3025140D02*
D03*
Y3121660D02*
D03*
X4328860Y3073400D02*
D03*
X4280600Y3121660D02*
D03*
X3894520Y3218180D02*
D03*
X3942780Y3169920D02*
D03*
X4039300D02*
D03*
X3991040Y3218180D02*
D03*
X4184080Y3121660D02*
D03*
X4135820Y3169920D02*
D03*
X4280600Y3218180D02*
D03*
X4232340Y3169920D02*
D03*
X4184080Y3218180D02*
D03*
X4328860Y3169920D02*
D03*
X3894520Y3314700D02*
D03*
X3942780Y3266440D02*
D03*
X4039300D02*
D03*
X3991040Y3314700D02*
D03*
X4135820Y3266440D02*
D03*
X4087560Y3218180D02*
D03*
X4232340Y3266440D02*
D03*
X4280600Y3314700D02*
D03*
X4184080D02*
D03*
X4232340Y3362960D02*
D03*
X4280600Y3411220D02*
D03*
X4087560D02*
D03*
Y3314700D02*
D03*
X4135820Y3362960D02*
D03*
X4184080Y3411220D02*
D03*
X4039300Y3362960D02*
D03*
X3942780D02*
D03*
X3894520Y3411220D02*
D03*
X4961240Y2735580D02*
D03*
Y2639060D02*
D03*
X4912980Y2687320D02*
D03*
X4864720Y2735580D02*
D03*
Y2639060D02*
D03*
X4768200D02*
D03*
Y2735580D02*
D03*
X4816460Y2687320D02*
D03*
X4864720Y2639060D02*
D03*
Y2735580D02*
D03*
X4671680Y2639060D02*
D03*
Y2735580D02*
D03*
X4719940Y2687320D02*
D03*
X4768200Y2639060D02*
D03*
Y2735580D02*
D03*
X4575160Y2639060D02*
D03*
Y2735580D02*
D03*
X4623420Y2687320D02*
D03*
X4671680Y2639060D02*
D03*
Y2735580D02*
D03*
X4478640Y2639060D02*
D03*
Y2735580D02*
D03*
X4526900Y2687320D02*
D03*
X4575160Y2639060D02*
D03*
Y2735580D02*
D03*
X4961240Y2832100D02*
D03*
Y2735580D02*
D03*
X4912980Y2783840D02*
D03*
X4864720Y2832100D02*
D03*
Y2735580D02*
D03*
X4768200D02*
D03*
Y2832100D02*
D03*
X4816460Y2783840D02*
D03*
X4864720Y2735580D02*
D03*
Y2832100D02*
D03*
X4671680Y2735580D02*
D03*
Y2832100D02*
D03*
X4719940Y2783840D02*
D03*
X4768200Y2735580D02*
D03*
Y2832100D02*
D03*
X4575160Y2735580D02*
D03*
Y2832100D02*
D03*
X4623420Y2783840D02*
D03*
X4671680Y2735580D02*
D03*
Y2832100D02*
D03*
X4478640Y2735580D02*
D03*
Y2832100D02*
D03*
X4526900Y2783840D02*
D03*
X4575160Y2735580D02*
D03*
Y2832100D02*
D03*
X4961240Y2928620D02*
D03*
Y2832100D02*
D03*
X4912980Y2880360D02*
D03*
X4864720Y2928620D02*
D03*
Y2832100D02*
D03*
X4768200D02*
D03*
Y2928620D02*
D03*
X4816460Y2880360D02*
D03*
X4864720Y2832100D02*
D03*
Y2928620D02*
D03*
X4671680Y2832100D02*
D03*
Y2928620D02*
D03*
X4719940Y2880360D02*
D03*
X4768200Y2832100D02*
D03*
Y2928620D02*
D03*
X4575160Y2832100D02*
D03*
Y2928620D02*
D03*
X4623420Y2880360D02*
D03*
X4671680Y2832100D02*
D03*
Y2928620D02*
D03*
X4478640Y2832100D02*
D03*
Y2928620D02*
D03*
X4526900Y2880360D02*
D03*
X4575160Y2832100D02*
D03*
Y2928620D02*
D03*
Y3025140D02*
D03*
Y2928620D02*
D03*
X4526900Y2976880D02*
D03*
X4478640Y3025140D02*
D03*
Y2928620D02*
D03*
X4671680Y3025140D02*
D03*
Y2928620D02*
D03*
X4623420Y2976880D02*
D03*
X4575160Y3025140D02*
D03*
Y2928620D02*
D03*
X4768200Y3025140D02*
D03*
Y2928620D02*
D03*
X4719940Y2976880D02*
D03*
X4671680Y3025140D02*
D03*
Y2928620D02*
D03*
X4864720Y3025140D02*
D03*
Y2928620D02*
D03*
X4816460Y2976880D02*
D03*
X4768200Y3025140D02*
D03*
Y2928620D02*
D03*
X4864720D02*
D03*
Y3025140D02*
D03*
X4912980Y2976880D02*
D03*
X4961240Y2928620D02*
D03*
Y3025140D02*
D03*
X3894520Y2735580D02*
D03*
X3942780Y2687320D02*
D03*
X4039300D02*
D03*
X3991040Y2735580D02*
D03*
X4135820Y2687320D02*
D03*
X4232340D02*
D03*
X4328860D02*
D03*
X4280600Y2639060D02*
D03*
X3894520Y2832100D02*
D03*
X3942780Y2783840D02*
D03*
X4087560Y2735580D02*
D03*
X4039300Y2783840D02*
D03*
X4135820D02*
D03*
X4232340D02*
D03*
X4184080Y2735580D02*
D03*
X4377120D02*
D03*
X4328860Y2783840D02*
D03*
X4280600Y2735580D02*
D03*
Y2832100D02*
D03*
X3894520Y2928620D02*
D03*
X3942780Y2880360D02*
D03*
X3991040Y2832100D02*
D03*
X4087560Y2928620D02*
D03*
X4039300Y2880360D02*
D03*
X4184080Y2832100D02*
D03*
X4135820Y2880360D02*
D03*
X4087560Y2832100D02*
D03*
X4280600Y2928620D02*
D03*
X4232340Y2880360D02*
D03*
X4184080Y2928620D02*
D03*
X4377120Y2832100D02*
D03*
Y2928620D02*
D03*
X4328860Y2880360D02*
D03*
Y2976880D02*
D03*
X4184080Y3025140D02*
D03*
X4232340Y2976880D02*
D03*
X4135820D02*
D03*
X3991040Y3025140D02*
D03*
X4039300Y2976880D02*
D03*
X3991040Y2928620D02*
D03*
X3942780Y2976880D02*
D03*
X3894520Y3025140D02*
D03*
X8106680Y3556000D02*
D03*
X8251460Y3507740D02*
D03*
X8203200Y3556000D02*
D03*
X8299720D02*
D03*
X8396240D02*
D03*
X8347980Y3507740D02*
D03*
X8154940D02*
D03*
Y3411220D02*
D03*
X8106680Y3459480D02*
D03*
X8058420Y3507740D02*
D03*
Y3411220D02*
D03*
X8203200Y3459480D02*
D03*
X8299720D02*
D03*
X8396240D02*
D03*
X8347980Y3411220D02*
D03*
X8444500Y3507740D02*
D03*
X8396240Y3362960D02*
D03*
X8444500Y3411220D02*
D03*
X8251460Y3314700D02*
D03*
X8299720Y3362960D02*
D03*
X8203200D02*
D03*
X8251460Y3411220D02*
D03*
X8058420Y3314700D02*
D03*
X8106680Y3362960D02*
D03*
X8154940Y3314700D02*
D03*
X8106680Y3266440D02*
D03*
X8251460Y3218180D02*
D03*
X8203200Y3266440D02*
D03*
X8154940Y3218180D02*
D03*
X8347980Y3314700D02*
D03*
X8299720Y3266440D02*
D03*
X8396240D02*
D03*
X8444500Y3314700D02*
D03*
X8106680Y3169920D02*
D03*
X8058420Y3218180D02*
D03*
Y3121660D02*
D03*
X8251460D02*
D03*
X8203200Y3169920D02*
D03*
X8347980Y3218180D02*
D03*
X8299720Y3169920D02*
D03*
X8444500Y3218180D02*
D03*
X8396240Y3169920D02*
D03*
X8492760D02*
D03*
X8541020Y3121660D02*
D03*
X8154940D02*
D03*
Y3025140D02*
D03*
X8106680Y3073400D02*
D03*
X8058420Y3025140D02*
D03*
X8203200Y3073400D02*
D03*
X8347980Y3025140D02*
D03*
X8299720Y3073400D02*
D03*
X8444500Y3121660D02*
D03*
X8396240Y3073400D02*
D03*
X8347980Y3121660D02*
D03*
X8444500Y3025140D02*
D03*
X8492760Y3073400D02*
D03*
X8541020Y3025140D02*
D03*
Y2928620D02*
D03*
X8492760Y2976880D02*
D03*
X8347980Y2928620D02*
D03*
X8396240Y2976880D02*
D03*
X8251460Y3025140D02*
D03*
X8299720Y2976880D02*
D03*
X8154940Y2928620D02*
D03*
X8203200Y2976880D02*
D03*
X8106680D02*
D03*
Y2880360D02*
D03*
X8058420Y2928620D02*
D03*
X8251460D02*
D03*
X8203200Y2880360D02*
D03*
X8154940Y2832100D02*
D03*
X8299720Y2880360D02*
D03*
X8396240D02*
D03*
X8444500Y2928620D02*
D03*
X8492760Y2880360D02*
D03*
X8106680Y2783840D02*
D03*
X8058420Y2832100D02*
D03*
X8251460D02*
D03*
Y2735580D02*
D03*
X8203200Y2783840D02*
D03*
X8347980Y2832100D02*
D03*
X8299720Y2783840D02*
D03*
X8396240D02*
D03*
X8444500Y2735580D02*
D03*
Y2832100D02*
D03*
X8492760Y2783840D02*
D03*
X8541020Y2832100D02*
D03*
X8106680Y2687320D02*
D03*
X8058420Y2735580D02*
D03*
X8251460Y2639060D02*
D03*
X8203200Y2687320D02*
D03*
X8154940Y2735580D02*
D03*
Y2639060D02*
D03*
X8347980Y2735580D02*
D03*
Y2639060D02*
D03*
X8299720Y2687320D02*
D03*
X8396240D02*
D03*
X8444500Y2639060D02*
D03*
X8492760Y2687320D02*
D03*
X8541020Y2735580D02*
D03*
X508000Y3507740D02*
D03*
X459740Y3556000D02*
D03*
X411480Y3507740D02*
D03*
X604520D02*
D03*
X556260Y3556000D02*
D03*
X701040Y3507740D02*
D03*
X652780Y3556000D02*
D03*
X749300D02*
D03*
X411480Y3411220D02*
D03*
X459740Y3459480D02*
D03*
X556260D02*
D03*
X652780D02*
D03*
X604520Y3411220D02*
D03*
X749300Y3459480D02*
D03*
X797560Y3411220D02*
D03*
Y3507740D02*
D03*
Y3314700D02*
D03*
X749300Y3362960D02*
D03*
X701040Y3411220D02*
D03*
X652780Y3362960D02*
D03*
X701040Y3314700D02*
D03*
X508000Y3411220D02*
D03*
X556260Y3362960D02*
D03*
X604520Y3314700D02*
D03*
X459740Y3362960D02*
D03*
X411480Y3314700D02*
D03*
Y3218180D02*
D03*
X459740Y3266440D02*
D03*
X556260D02*
D03*
X508000Y3314700D02*
D03*
X652780Y3266440D02*
D03*
X701040Y3218180D02*
D03*
X749300Y3266440D02*
D03*
X363220Y3169920D02*
D03*
X508000Y3218180D02*
D03*
Y3121660D02*
D03*
X459740Y3169920D02*
D03*
X556260D02*
D03*
X652780D02*
D03*
X604520Y3218180D02*
D03*
X701040Y3121660D02*
D03*
X749300Y3169920D02*
D03*
X797560Y3218180D02*
D03*
X363220Y3073400D02*
D03*
X314960Y3121660D02*
D03*
Y3025140D02*
D03*
X508000D02*
D03*
X459740Y3073400D02*
D03*
X411480Y3121660D02*
D03*
X556260Y3073400D02*
D03*
X652780D02*
D03*
X604520Y3121660D02*
D03*
X749300Y3073400D02*
D03*
X797560Y3121660D02*
D03*
Y3025140D02*
D03*
Y2928620D02*
D03*
X749300Y2976880D02*
D03*
X701040Y3025140D02*
D03*
X604520Y2928620D02*
D03*
X652780Y2976880D02*
D03*
X556260D02*
D03*
X604520Y3025140D02*
D03*
X411480D02*
D03*
X459740Y2976880D02*
D03*
X314960Y2928620D02*
D03*
X363220Y2976880D02*
D03*
X411480Y2928620D02*
D03*
X363220Y2880360D02*
D03*
X314960Y2832100D02*
D03*
X508000D02*
D03*
X459740Y2880360D02*
D03*
X411480Y2832100D02*
D03*
X556260Y2880360D02*
D03*
X508000Y2928620D02*
D03*
X701040Y2832100D02*
D03*
X652780Y2880360D02*
D03*
X604520Y2832100D02*
D03*
X701040Y2928620D02*
D03*
X749300Y2880360D02*
D03*
X363220Y2783840D02*
D03*
X314960Y2735580D02*
D03*
X459740Y2783840D02*
D03*
X556260D02*
D03*
X652780D02*
D03*
X749300D02*
D03*
X797560Y2832100D02*
D03*
X411480Y2735580D02*
D03*
Y2639060D02*
D03*
X363220Y2687320D02*
D03*
X314960Y2639060D02*
D03*
X508000Y2735580D02*
D03*
X459740Y2687320D02*
D03*
X604520Y2735580D02*
D03*
X556260Y2687320D02*
D03*
X701040Y2735580D02*
D03*
X652780Y2687320D02*
D03*
X749300D02*
D03*
X797560Y2735580D02*
D03*
X8499460Y1513460D02*
D03*
Y1609980D02*
D03*
X8451200Y1561720D02*
D03*
X8402940Y1609980D02*
D03*
X8306420D02*
D03*
Y1513460D02*
D03*
X8354680Y1561720D02*
D03*
X8402940Y1513460D02*
D03*
X8209900D02*
D03*
X8258160Y1561720D02*
D03*
X8113380Y1609980D02*
D03*
X8161640Y1561720D02*
D03*
X8016860Y1513460D02*
D03*
X8065120Y1561720D02*
D03*
X8113380Y1513460D02*
D03*
Y1706500D02*
D03*
X8065120Y1658240D02*
D03*
X8016860Y1609980D02*
D03*
Y1706500D02*
D03*
X8161640Y1658240D02*
D03*
X8258160D02*
D03*
X8209900Y1609980D02*
D03*
X8354680Y1658240D02*
D03*
X8306420Y1706500D02*
D03*
X8451200Y1658240D02*
D03*
X8499460Y1706500D02*
D03*
X8065120Y1754760D02*
D03*
X8209900Y1706500D02*
D03*
X8161640Y1754760D02*
D03*
X8258160D02*
D03*
X8402940Y1706500D02*
D03*
X8451200Y1754760D02*
D03*
X8113380Y1899540D02*
D03*
X8065120Y1851280D02*
D03*
X8016860Y1803020D02*
D03*
Y1899540D02*
D03*
X8161640Y1851280D02*
D03*
X8113380Y1803020D02*
D03*
X8258160Y1851280D02*
D03*
X8209900Y1803020D02*
D03*
Y1899540D02*
D03*
X8306420D02*
D03*
X8499460Y1803020D02*
D03*
X4335560Y1513460D02*
D03*
X4287300Y1561720D02*
D03*
X4239040Y1513460D02*
D03*
X4142520Y1609980D02*
D03*
Y1513460D02*
D03*
X4190780Y1561720D02*
D03*
X4046000Y1609980D02*
D03*
Y1513460D02*
D03*
X4094260Y1561720D02*
D03*
X3997740D02*
D03*
X3852960Y1513460D02*
D03*
X3901220Y1561720D02*
D03*
X3949480Y1513460D02*
D03*
Y1609980D02*
D03*
X3901220Y1658240D02*
D03*
X3852960Y1609980D02*
D03*
X3997740Y1658240D02*
D03*
X4094260D02*
D03*
X4190780D02*
D03*
X4142520Y1706500D02*
D03*
X4239040Y1609980D02*
D03*
X4287300Y1658240D02*
D03*
X4335560Y1609980D02*
D03*
X3949480Y1706500D02*
D03*
X3901220Y1754760D02*
D03*
X3852960Y1706500D02*
D03*
Y1803020D02*
D03*
X4046000Y1706500D02*
D03*
X3997740Y1754760D02*
D03*
X4094260D02*
D03*
X4190780D02*
D03*
X4142520Y1803020D02*
D03*
X4239040D02*
D03*
Y1706500D02*
D03*
X4287300Y1754760D02*
D03*
X4335560Y1706500D02*
D03*
X3949480Y1803020D02*
D03*
Y1899540D02*
D03*
X3901220Y1851280D02*
D03*
X3852960Y1899540D02*
D03*
X4046000D02*
D03*
X3997740Y1851280D02*
D03*
X4094260D02*
D03*
X4046000Y1803020D02*
D03*
X4190780Y1851280D02*
D03*
X4142520Y1899540D02*
D03*
X4239040D02*
D03*
X4287300Y1851280D02*
D03*
X4335560Y1899540D02*
D03*
Y1803020D02*
D03*
X4520200Y1513460D02*
D03*
Y1609980D02*
D03*
X4568460Y1561720D02*
D03*
X4616720Y1513460D02*
D03*
Y1609980D02*
D03*
X4664980Y1561720D02*
D03*
X4761500D02*
D03*
X4713240Y1513460D02*
D03*
X4906280Y1609980D02*
D03*
X4858020Y1561720D02*
D03*
X4809760Y1609980D02*
D03*
Y1513460D02*
D03*
X5002800Y1609980D02*
D03*
Y1513460D02*
D03*
X4954540Y1561720D02*
D03*
X4906280Y1513460D02*
D03*
X4954540Y1658240D02*
D03*
X4809760Y1706500D02*
D03*
X4858020Y1658240D02*
D03*
X4713240Y1609980D02*
D03*
Y1706500D02*
D03*
X4761500Y1658240D02*
D03*
X4664980D02*
D03*
X4568460D02*
D03*
X4520200Y1706500D02*
D03*
X4906280D02*
D03*
X4954540Y1754760D02*
D03*
X5002800Y1706500D02*
D03*
Y1803020D02*
D03*
X4858020Y1754760D02*
D03*
X4761500D02*
D03*
X4809760Y1803020D02*
D03*
X4616720D02*
D03*
X4664980Y1754760D02*
D03*
X4616720Y1706500D02*
D03*
X4568460Y1754760D02*
D03*
X4520200Y1803020D02*
D03*
X4906280D02*
D03*
X4954540Y1851280D02*
D03*
X5002800Y1899540D02*
D03*
X4809760D02*
D03*
X4858020Y1851280D02*
D03*
X4906280Y1899540D02*
D03*
X4713240D02*
D03*
X4761500Y1851280D02*
D03*
X4664980D02*
D03*
X4713240Y1803020D02*
D03*
X4616720Y1899540D02*
D03*
X4568460Y1851280D02*
D03*
X4520200Y1899540D02*
D03*
X356520Y1513460D02*
D03*
Y1609980D02*
D03*
X404780Y1561720D02*
D03*
X453040Y1513460D02*
D03*
Y1609980D02*
D03*
X549560Y1513460D02*
D03*
X501300Y1561720D02*
D03*
X646080Y1513460D02*
D03*
X597820Y1561720D02*
D03*
X549560Y1609980D02*
D03*
X742600Y1513460D02*
D03*
X694340Y1561720D02*
D03*
X839120Y1609980D02*
D03*
Y1513460D02*
D03*
X790860Y1561720D02*
D03*
X742600Y1609980D02*
D03*
X790860Y1658240D02*
D03*
X839120Y1706500D02*
D03*
X694340Y1658240D02*
D03*
X597820D02*
D03*
X646080Y1609980D02*
D03*
Y1706500D02*
D03*
X501300Y1658240D02*
D03*
X404780D02*
D03*
X356520Y1706500D02*
D03*
X790860Y1754760D02*
D03*
X839120Y1803020D02*
D03*
X694340Y1754760D02*
D03*
X742600Y1706500D02*
D03*
X549560D02*
D03*
X597820Y1754760D02*
D03*
X453040Y1706500D02*
D03*
X501300Y1754760D02*
D03*
X404780D02*
D03*
X356520Y1803020D02*
D03*
X742600D02*
D03*
X790860Y1851280D02*
D03*
X839120Y1899540D02*
D03*
X646080D02*
D03*
X694340Y1851280D02*
D03*
X742600Y1899540D02*
D03*
X597820Y1851280D02*
D03*
X646080Y1803020D02*
D03*
X453040D02*
D03*
X501300Y1851280D02*
D03*
X549560Y1803020D02*
D03*
Y1899540D02*
D03*
X453040D02*
D03*
X404780Y1851280D02*
D03*
X356520Y1899540D02*
D03*
X8058420Y2639060D02*
D03*
X8106680Y2590800D02*
D03*
X8154940Y2542540D02*
D03*
X8203200Y2590800D02*
D03*
X8347980Y2542540D02*
D03*
X8299720Y2590800D02*
D03*
X8251460Y2542540D02*
D03*
X8444500D02*
D03*
X8396240Y2590800D02*
D03*
X8541020Y2542540D02*
D03*
Y2639060D02*
D03*
X8492760Y2590800D02*
D03*
X8444500Y2446020D02*
D03*
X8492760Y2494280D02*
D03*
X8396240D02*
D03*
X8299720D02*
D03*
X8154940Y2446020D02*
D03*
X8203200Y2494280D02*
D03*
X8106680D02*
D03*
X8058420Y2446020D02*
D03*
Y2542540D02*
D03*
X8492760Y2397760D02*
D03*
X8541020Y2446020D02*
D03*
X8396240Y2397760D02*
D03*
X8444500Y2349500D02*
D03*
X8251460Y2446020D02*
D03*
X8299720Y2397760D02*
D03*
X8347980Y2446020D02*
D03*
X8154940Y2349500D02*
D03*
X8203200Y2397760D02*
D03*
X8106680D02*
D03*
X8444500Y2252980D02*
D03*
X8492760Y2301240D02*
D03*
X8541020Y2349500D02*
D03*
Y2252980D02*
D03*
X8347980Y2349500D02*
D03*
Y2252980D02*
D03*
X8396240Y2301240D02*
D03*
X8299720D02*
D03*
X8203200D02*
D03*
X8251460Y2349500D02*
D03*
Y2252980D02*
D03*
X8154940D02*
D03*
X8106680Y2301240D02*
D03*
X8058420Y2252980D02*
D03*
Y2349500D02*
D03*
X3894520Y2639060D02*
D03*
Y2542540D02*
D03*
X3942780Y2590800D02*
D03*
X3991040Y2639060D02*
D03*
X4039300Y2590800D02*
D03*
X4135820D02*
D03*
X4087560Y2639060D02*
D03*
X4232340Y2590800D02*
D03*
X4184080Y2542540D02*
D03*
Y2639060D02*
D03*
X4377120Y2542540D02*
D03*
Y2639060D02*
D03*
X4328860Y2590800D02*
D03*
X4280600Y2542540D02*
D03*
X4328860Y2494280D02*
D03*
X4377120Y2446020D02*
D03*
X4232340Y2494280D02*
D03*
X4280600Y2446020D02*
D03*
X4135820Y2494280D02*
D03*
X3991040Y2446020D02*
D03*
X4039300Y2494280D02*
D03*
X4087560Y2542540D02*
D03*
X3991040D02*
D03*
X3942780Y2494280D02*
D03*
X4328860Y2397760D02*
D03*
X4377120Y2349500D02*
D03*
X4184080Y2446020D02*
D03*
X4232340Y2397760D02*
D03*
X4087560Y2446020D02*
D03*
X4135820Y2397760D02*
D03*
X3991040Y2349500D02*
D03*
X4039300Y2397760D02*
D03*
X3942780D02*
D03*
X3894520Y2446020D02*
D03*
X4280600Y2252980D02*
D03*
X4328860Y2301240D02*
D03*
X4377120Y2252980D02*
D03*
X4232340Y2301240D02*
D03*
X4280600Y2349500D02*
D03*
X4135820Y2301240D02*
D03*
X4184080Y2349500D02*
D03*
Y2252980D02*
D03*
X4039300Y2301240D02*
D03*
X4087560Y2349500D02*
D03*
Y2252980D02*
D03*
X3991040D02*
D03*
X3942780Y2301240D02*
D03*
X3894520Y2252980D02*
D03*
Y2349500D02*
D03*
X4961240Y2639060D02*
D03*
Y2542540D02*
D03*
X4912980Y2590800D02*
D03*
X4864720Y2639060D02*
D03*
Y2542540D02*
D03*
X4768200D02*
D03*
Y2639060D02*
D03*
X4816460Y2590800D02*
D03*
X4864720Y2542540D02*
D03*
Y2639060D02*
D03*
X4671680Y2542540D02*
D03*
Y2639060D02*
D03*
X4719940Y2590800D02*
D03*
X4768200Y2542540D02*
D03*
Y2639060D02*
D03*
X4575160Y2542540D02*
D03*
Y2639060D02*
D03*
X4623420Y2590800D02*
D03*
X4671680Y2542540D02*
D03*
Y2639060D02*
D03*
X4478640Y2542540D02*
D03*
Y2639060D02*
D03*
X4526900Y2590800D02*
D03*
X4575160Y2542540D02*
D03*
Y2639060D02*
D03*
Y2542540D02*
D03*
Y2446020D02*
D03*
X4526900Y2494280D02*
D03*
X4478640Y2542540D02*
D03*
Y2446020D02*
D03*
X4671680Y2542540D02*
D03*
Y2446020D02*
D03*
X4623420Y2494280D02*
D03*
X4575160Y2542540D02*
D03*
Y2446020D02*
D03*
X4768200Y2542540D02*
D03*
Y2446020D02*
D03*
X4719940Y2494280D02*
D03*
X4671680Y2542540D02*
D03*
Y2446020D02*
D03*
X4864720Y2542540D02*
D03*
Y2446020D02*
D03*
X4816460Y2494280D02*
D03*
X4768200Y2542540D02*
D03*
Y2446020D02*
D03*
X4864720D02*
D03*
Y2542540D02*
D03*
X4912980Y2494280D02*
D03*
X4961240Y2446020D02*
D03*
Y2542540D02*
D03*
X4575160Y2446020D02*
D03*
Y2349500D02*
D03*
X4526900Y2397760D02*
D03*
X4478640Y2446020D02*
D03*
Y2349500D02*
D03*
X4671680Y2446020D02*
D03*
Y2349500D02*
D03*
X4623420Y2397760D02*
D03*
X4575160Y2446020D02*
D03*
Y2349500D02*
D03*
X4768200Y2446020D02*
D03*
Y2349500D02*
D03*
X4719940Y2397760D02*
D03*
X4671680Y2446020D02*
D03*
Y2349500D02*
D03*
X4864720Y2446020D02*
D03*
Y2349500D02*
D03*
X4816460Y2397760D02*
D03*
X4768200Y2446020D02*
D03*
Y2349500D02*
D03*
X4864720D02*
D03*
Y2446020D02*
D03*
X4912980Y2397760D02*
D03*
X4961240Y2349500D02*
D03*
Y2446020D02*
D03*
X4575160Y2349500D02*
D03*
Y2252980D02*
D03*
X4526900Y2301240D02*
D03*
X4478640Y2349500D02*
D03*
Y2252980D02*
D03*
X4671680Y2349500D02*
D03*
Y2252980D02*
D03*
X4623420Y2301240D02*
D03*
X4575160Y2349500D02*
D03*
Y2252980D02*
D03*
X4768200Y2349500D02*
D03*
Y2252980D02*
D03*
X4719940Y2301240D02*
D03*
X4671680Y2349500D02*
D03*
Y2252980D02*
D03*
X4864720Y2349500D02*
D03*
Y2252980D02*
D03*
X4816460Y2301240D02*
D03*
X4768200Y2349500D02*
D03*
Y2252980D02*
D03*
X4864720D02*
D03*
Y2349500D02*
D03*
X4912980Y2301240D02*
D03*
X4961240Y2252980D02*
D03*
Y2349500D02*
D03*
X797560D02*
D03*
Y2252980D02*
D03*
X749300Y2301240D02*
D03*
X701040Y2349500D02*
D03*
Y2252980D02*
D03*
X604520Y2349500D02*
D03*
X652780Y2301240D02*
D03*
X556260D02*
D03*
X604520Y2252980D02*
D03*
X411480D02*
D03*
X459740Y2301240D02*
D03*
X508000Y2252980D02*
D03*
X314960D02*
D03*
X363220Y2301240D02*
D03*
X411480Y2349500D02*
D03*
X797560Y2446020D02*
D03*
X749300Y2397760D02*
D03*
X701040Y2446020D02*
D03*
X652780Y2397760D02*
D03*
X508000Y2349500D02*
D03*
X556260Y2397760D02*
D03*
X604520Y2446020D02*
D03*
X459740Y2397760D02*
D03*
X314960Y2349500D02*
D03*
Y2446020D02*
D03*
X363220Y2397760D02*
D03*
X749300Y2494280D02*
D03*
X604520Y2542540D02*
D03*
X652780Y2494280D02*
D03*
X701040Y2542540D02*
D03*
X508000Y2446020D02*
D03*
Y2542540D02*
D03*
X556260Y2494280D02*
D03*
X459740D02*
D03*
X363220D02*
D03*
X411480Y2446020D02*
D03*
X363220Y2590800D02*
D03*
X314960Y2542540D02*
D03*
X508000Y2639060D02*
D03*
X459740Y2590800D02*
D03*
X411480Y2542540D02*
D03*
X556260Y2590800D02*
D03*
X701040Y2639060D02*
D03*
X652780Y2590800D02*
D03*
X604520Y2639060D02*
D03*
X749300Y2590800D02*
D03*
X797560Y2542540D02*
D03*
Y2639060D02*
D03*
X645160Y4549140D02*
D03*
X596900D02*
D03*
X548640D02*
D03*
X452120D02*
D03*
X500380D02*
D03*
X693420D02*
D03*
X741680D02*
D03*
X3949700D02*
D03*
X4046220D02*
D03*
X4239260D02*
D03*
X4191000D02*
D03*
X4142740D02*
D03*
X4094480D02*
D03*
X3997960D02*
D03*
X3047360Y1945632D02*
D03*
Y1841492D02*
D03*
X2519680Y2324100D02*
D03*
X2468880Y2346960D02*
D03*
X741680Y4597400D02*
D03*
X1750700Y1729748D02*
D03*
X1950452Y2377272D02*
D03*
X1935480Y2324100D02*
D03*
X2219960Y2346960D02*
D03*
X2169160Y2324100D02*
D03*
X1644020Y1838968D02*
D03*
Y1943108D02*
D03*
X8166100Y3876040D02*
D03*
X8117840D02*
D03*
D03*
Y3924300D02*
D03*
X8166100D02*
D03*
X8117840D02*
D03*
Y3876040D02*
D03*
X8166100D02*
D03*
X8117840Y3924300D02*
D03*
Y3876040D02*
D03*
Y3924300D02*
D03*
X8166100D02*
D03*
X8214360Y3876040D02*
D03*
X8166100D02*
D03*
D03*
Y3924300D02*
D03*
X8214360D02*
D03*
X8166100D02*
D03*
Y3876040D02*
D03*
X8214360D02*
D03*
X8166100Y3924300D02*
D03*
Y3876040D02*
D03*
Y3924300D02*
D03*
X8214360D02*
D03*
X8262620D02*
D03*
X8214360D02*
D03*
Y3876040D02*
D03*
Y3924300D02*
D03*
X8262620Y3876040D02*
D03*
X8214360D02*
D03*
Y3924300D02*
D03*
X8262620D02*
D03*
X8214360D02*
D03*
Y3876040D02*
D03*
D03*
X8262620D02*
D03*
X8310880D02*
D03*
X8262620D02*
D03*
D03*
Y3924300D02*
D03*
X8310880D02*
D03*
X8262620D02*
D03*
Y3876040D02*
D03*
X8310880D02*
D03*
X8262620Y3924300D02*
D03*
Y3876040D02*
D03*
Y3924300D02*
D03*
X8310880D02*
D03*
X8359140Y3876040D02*
D03*
X8310880D02*
D03*
D03*
Y3924300D02*
D03*
X8359140D02*
D03*
X8310880D02*
D03*
Y3876040D02*
D03*
X8359140D02*
D03*
X8310880Y3924300D02*
D03*
Y3876040D02*
D03*
Y3924300D02*
D03*
X8359140D02*
D03*
X8407400D02*
D03*
X8359140D02*
D03*
Y3876040D02*
D03*
Y3924300D02*
D03*
X8407400Y3876040D02*
D03*
X8359140D02*
D03*
Y3924300D02*
D03*
X8407400D02*
D03*
X8359140D02*
D03*
Y3876040D02*
D03*
D03*
X8407400D02*
D03*
Y3924300D02*
D03*
X8359140D02*
D03*
D03*
Y3972560D02*
D03*
X8407400D02*
D03*
X8359140D02*
D03*
Y3924300D02*
D03*
X8407400D02*
D03*
X8359140Y3972560D02*
D03*
Y3924300D02*
D03*
Y3972560D02*
D03*
X8407400D02*
D03*
X8359140D02*
D03*
X8310880D02*
D03*
Y3924300D02*
D03*
Y3972560D02*
D03*
X8359140Y3924300D02*
D03*
X8310880D02*
D03*
Y3972560D02*
D03*
X8359140D02*
D03*
X8310880D02*
D03*
Y3924300D02*
D03*
D03*
X8359140D02*
D03*
X8310880Y3972560D02*
D03*
X8262620D02*
D03*
Y3924300D02*
D03*
Y3972560D02*
D03*
X8310880Y3924300D02*
D03*
X8262620D02*
D03*
Y3972560D02*
D03*
X8310880D02*
D03*
X8262620D02*
D03*
Y3924300D02*
D03*
D03*
X8310880D02*
D03*
X8262620D02*
D03*
X8214360D02*
D03*
D03*
Y3972560D02*
D03*
X8262620D02*
D03*
X8214360D02*
D03*
Y3924300D02*
D03*
X8262620D02*
D03*
X8214360Y3972560D02*
D03*
Y3924300D02*
D03*
Y3972560D02*
D03*
X8262620D02*
D03*
X8214360D02*
D03*
X8166100D02*
D03*
Y3924300D02*
D03*
Y3972560D02*
D03*
X8214360Y3924300D02*
D03*
X8166100D02*
D03*
Y3972560D02*
D03*
X8214360D02*
D03*
X8166100D02*
D03*
Y3924300D02*
D03*
D03*
X8214360D02*
D03*
X8166100Y3972560D02*
D03*
X8117840D02*
D03*
Y3924300D02*
D03*
Y3972560D02*
D03*
X8166100Y3924300D02*
D03*
X8117840D02*
D03*
Y3972560D02*
D03*
X8166100D02*
D03*
X8117840D02*
D03*
Y3924300D02*
D03*
D03*
X8166100D02*
D03*
X8407400Y3972560D02*
D03*
X8359140D02*
D03*
D03*
Y4020820D02*
D03*
X8407400D02*
D03*
X8359140D02*
D03*
Y3972560D02*
D03*
X8407400D02*
D03*
X8359140Y4020820D02*
D03*
Y3972560D02*
D03*
Y4020820D02*
D03*
X8407400D02*
D03*
X8359140D02*
D03*
X8310880D02*
D03*
Y3972560D02*
D03*
Y4020820D02*
D03*
X8359140Y3972560D02*
D03*
X8310880D02*
D03*
Y4020820D02*
D03*
X8359140D02*
D03*
X8310880D02*
D03*
Y3972560D02*
D03*
D03*
X8359140D02*
D03*
X8310880Y4020820D02*
D03*
X8262620D02*
D03*
Y3972560D02*
D03*
Y4020820D02*
D03*
X8310880Y3972560D02*
D03*
X8262620D02*
D03*
Y4020820D02*
D03*
X8310880D02*
D03*
X8262620D02*
D03*
Y3972560D02*
D03*
D03*
X8310880D02*
D03*
X8262620D02*
D03*
X8214360D02*
D03*
D03*
Y4020820D02*
D03*
X8262620D02*
D03*
X8214360D02*
D03*
Y3972560D02*
D03*
X8262620D02*
D03*
X8214360Y4020820D02*
D03*
Y3972560D02*
D03*
Y4020820D02*
D03*
X8262620D02*
D03*
X8214360D02*
D03*
X8166100D02*
D03*
Y3972560D02*
D03*
Y4020820D02*
D03*
X8214360Y3972560D02*
D03*
X8166100D02*
D03*
Y4020820D02*
D03*
X8214360D02*
D03*
X8166100D02*
D03*
Y3972560D02*
D03*
D03*
X8214360D02*
D03*
X8166100Y4020820D02*
D03*
X8117840D02*
D03*
Y3972560D02*
D03*
Y4020820D02*
D03*
X8166100Y3972560D02*
D03*
X8117840D02*
D03*
Y4020820D02*
D03*
X8166100D02*
D03*
X8117840D02*
D03*
Y3972560D02*
D03*
D03*
X8166100D02*
D03*
X8407400Y4020820D02*
D03*
X8359140D02*
D03*
D03*
Y4069080D02*
D03*
X8407400D02*
D03*
X8359140D02*
D03*
Y4020820D02*
D03*
X8407400D02*
D03*
X8359140Y4069080D02*
D03*
Y4020820D02*
D03*
Y4069080D02*
D03*
X8407400D02*
D03*
X8359140D02*
D03*
X8310880D02*
D03*
Y4020820D02*
D03*
Y4069080D02*
D03*
X8359140Y4020820D02*
D03*
X8310880D02*
D03*
Y4069080D02*
D03*
X8359140D02*
D03*
X8310880D02*
D03*
Y4020820D02*
D03*
D03*
X8359140D02*
D03*
X8310880Y4069080D02*
D03*
X8262620D02*
D03*
Y4020820D02*
D03*
Y4069080D02*
D03*
X8310880Y4020820D02*
D03*
X8262620D02*
D03*
Y4069080D02*
D03*
X8310880D02*
D03*
X8262620D02*
D03*
Y4020820D02*
D03*
D03*
X8310880D02*
D03*
X8262620D02*
D03*
X8214360D02*
D03*
D03*
Y4069080D02*
D03*
X8262620D02*
D03*
X8214360D02*
D03*
Y4020820D02*
D03*
X8262620D02*
D03*
X8214360Y4069080D02*
D03*
Y4020820D02*
D03*
Y4069080D02*
D03*
X8262620D02*
D03*
X8214360D02*
D03*
X8166100D02*
D03*
Y4020820D02*
D03*
Y4069080D02*
D03*
X8214360Y4020820D02*
D03*
X8166100D02*
D03*
Y4069080D02*
D03*
X8214360D02*
D03*
X8166100D02*
D03*
Y4020820D02*
D03*
D03*
X8214360D02*
D03*
X8166100Y4069080D02*
D03*
X8117840D02*
D03*
Y4020820D02*
D03*
Y4069080D02*
D03*
X8166100Y4020820D02*
D03*
X8117840D02*
D03*
Y4069080D02*
D03*
X8166100D02*
D03*
X8117840D02*
D03*
Y4020820D02*
D03*
D03*
X8166100D02*
D03*
X8112760Y4645660D02*
D03*
Y4693920D02*
D03*
X8161020D02*
D03*
X8209280D02*
D03*
X8305800Y4645660D02*
D03*
X8257540Y4693920D02*
D03*
X8305800D02*
D03*
X8402320Y4645660D02*
D03*
X8354060D02*
D03*
Y4693920D02*
D03*
X8402320D02*
D03*
X8209280Y4597400D02*
D03*
X8161020D02*
D03*
Y4645660D02*
D03*
X8257540D02*
D03*
X8209280D02*
D03*
X8354060Y4597400D02*
D03*
X8161020Y4549140D02*
D03*
X8112760Y4597400D02*
D03*
Y4549140D02*
D03*
X8209280D02*
D03*
X8257540D02*
D03*
X8305800Y4597400D02*
D03*
X8257540D02*
D03*
X8402320Y4549140D02*
D03*
Y4597400D02*
D03*
X8354060Y4549140D02*
D03*
X8305800D02*
D03*
X3954780Y3876040D02*
D03*
Y3924300D02*
D03*
X4051300Y3876040D02*
D03*
X4003040D02*
D03*
X4099560Y3924300D02*
D03*
Y3876040D02*
D03*
X4147820D02*
D03*
X4196080Y3924300D02*
D03*
Y3876040D02*
D03*
X4244340D02*
D03*
Y3924300D02*
D03*
X4196080Y3972560D02*
D03*
X4244340D02*
D03*
X4147820D02*
D03*
Y3924300D02*
D03*
X4051300D02*
D03*
Y3972560D02*
D03*
X4003040Y3924300D02*
D03*
Y3972560D02*
D03*
X3954780D02*
D03*
X4196080Y4020820D02*
D03*
X4099560D02*
D03*
Y3972560D02*
D03*
X4003040Y4020820D02*
D03*
X4051300D02*
D03*
X4244340D02*
D03*
Y4069080D02*
D03*
X4196080D02*
D03*
X4147820Y4020820D02*
D03*
Y4069080D02*
D03*
X4099560D02*
D03*
X4051300D02*
D03*
X4003040D02*
D03*
X3954780D02*
D03*
Y4020820D02*
D03*
X3949700Y4645660D02*
D03*
Y4693920D02*
D03*
X4046220D02*
D03*
X3997960D02*
D03*
Y4645660D02*
D03*
X4094480Y4693920D02*
D03*
X4142740D02*
D03*
X4191000D02*
D03*
X4239260D02*
D03*
Y4645660D02*
D03*
X3997960Y4597400D02*
D03*
X4046220Y4645660D02*
D03*
Y4597400D02*
D03*
X4094480Y4645660D02*
D03*
X4142740D02*
D03*
Y4597400D02*
D03*
X4191000Y4645660D02*
D03*
X3949700Y4597400D02*
D03*
X4094480D02*
D03*
X4191000D02*
D03*
X4239260D02*
D03*
X4851400Y3876040D02*
D03*
X4899660D02*
D03*
D03*
Y3924300D02*
D03*
X4851400D02*
D03*
X4899660D02*
D03*
Y3876040D02*
D03*
X4851400D02*
D03*
X4899660Y3924300D02*
D03*
Y3876040D02*
D03*
Y3924300D02*
D03*
X4851400D02*
D03*
X4803140Y3876040D02*
D03*
X4851400D02*
D03*
D03*
Y3924300D02*
D03*
X4803140D02*
D03*
X4851400D02*
D03*
Y3876040D02*
D03*
X4803140D02*
D03*
X4851400Y3924300D02*
D03*
Y3876040D02*
D03*
Y3924300D02*
D03*
X4803140D02*
D03*
X4754880D02*
D03*
X4803140D02*
D03*
Y3876040D02*
D03*
Y3924300D02*
D03*
X4754880Y3876040D02*
D03*
X4803140D02*
D03*
Y3924300D02*
D03*
X4754880D02*
D03*
X4803140D02*
D03*
Y3876040D02*
D03*
D03*
X4754880D02*
D03*
X4706620D02*
D03*
X4754880D02*
D03*
D03*
Y3924300D02*
D03*
X4706620D02*
D03*
X4754880D02*
D03*
Y3876040D02*
D03*
X4706620D02*
D03*
X4754880Y3924300D02*
D03*
Y3876040D02*
D03*
Y3924300D02*
D03*
X4706620D02*
D03*
X4658360Y3876040D02*
D03*
X4706620D02*
D03*
D03*
Y3924300D02*
D03*
X4658360D02*
D03*
X4706620D02*
D03*
Y3876040D02*
D03*
X4658360D02*
D03*
X4706620Y3924300D02*
D03*
Y3876040D02*
D03*
Y3924300D02*
D03*
X4658360D02*
D03*
X4610100D02*
D03*
X4658360D02*
D03*
Y3876040D02*
D03*
Y3924300D02*
D03*
X4610100Y3876040D02*
D03*
X4658360D02*
D03*
Y3924300D02*
D03*
X4610100D02*
D03*
X4658360D02*
D03*
Y3876040D02*
D03*
D03*
X4610100D02*
D03*
Y3924300D02*
D03*
X4658360D02*
D03*
D03*
Y3972560D02*
D03*
X4610100D02*
D03*
X4658360D02*
D03*
Y3924300D02*
D03*
X4610100D02*
D03*
X4658360Y3972560D02*
D03*
Y3924300D02*
D03*
Y3972560D02*
D03*
X4610100D02*
D03*
X4658360D02*
D03*
X4706620D02*
D03*
Y3924300D02*
D03*
Y3972560D02*
D03*
X4658360Y3924300D02*
D03*
X4706620D02*
D03*
Y3972560D02*
D03*
X4658360D02*
D03*
X4706620D02*
D03*
Y3924300D02*
D03*
D03*
X4658360D02*
D03*
X4706620Y3972560D02*
D03*
X4754880D02*
D03*
Y3924300D02*
D03*
Y3972560D02*
D03*
X4706620Y3924300D02*
D03*
X4754880D02*
D03*
Y3972560D02*
D03*
X4706620D02*
D03*
X4754880D02*
D03*
Y3924300D02*
D03*
D03*
X4706620D02*
D03*
X4754880D02*
D03*
X4803140D02*
D03*
D03*
Y3972560D02*
D03*
X4754880D02*
D03*
X4803140D02*
D03*
Y3924300D02*
D03*
X4754880D02*
D03*
X4803140Y3972560D02*
D03*
Y3924300D02*
D03*
Y3972560D02*
D03*
X4754880D02*
D03*
X4803140D02*
D03*
X4851400D02*
D03*
Y3924300D02*
D03*
Y3972560D02*
D03*
X4803140Y3924300D02*
D03*
X4851400D02*
D03*
Y3972560D02*
D03*
X4803140D02*
D03*
X4851400D02*
D03*
Y3924300D02*
D03*
D03*
X4803140D02*
D03*
X4851400Y3972560D02*
D03*
X4899660D02*
D03*
Y3924300D02*
D03*
Y3972560D02*
D03*
X4851400Y3924300D02*
D03*
X4899660D02*
D03*
Y3972560D02*
D03*
X4851400D02*
D03*
X4899660D02*
D03*
Y3924300D02*
D03*
D03*
X4851400D02*
D03*
X4610100Y3972560D02*
D03*
X4658360D02*
D03*
D03*
Y4020820D02*
D03*
X4610100D02*
D03*
X4658360D02*
D03*
Y3972560D02*
D03*
X4610100D02*
D03*
X4658360Y4020820D02*
D03*
Y3972560D02*
D03*
Y4020820D02*
D03*
X4610100D02*
D03*
X4658360D02*
D03*
X4706620D02*
D03*
Y3972560D02*
D03*
Y4020820D02*
D03*
X4658360Y3972560D02*
D03*
X4706620D02*
D03*
Y4020820D02*
D03*
X4658360D02*
D03*
X4706620D02*
D03*
Y3972560D02*
D03*
D03*
X4658360D02*
D03*
X4706620Y4020820D02*
D03*
X4754880D02*
D03*
Y3972560D02*
D03*
Y4020820D02*
D03*
X4706620Y3972560D02*
D03*
X4754880D02*
D03*
Y4020820D02*
D03*
X4706620D02*
D03*
X4754880D02*
D03*
Y3972560D02*
D03*
D03*
X4706620D02*
D03*
X4754880D02*
D03*
X4803140D02*
D03*
D03*
Y4020820D02*
D03*
X4754880D02*
D03*
X4803140D02*
D03*
Y3972560D02*
D03*
X4754880D02*
D03*
X4803140Y4020820D02*
D03*
Y3972560D02*
D03*
Y4020820D02*
D03*
X4754880D02*
D03*
X4803140D02*
D03*
X4851400D02*
D03*
Y3972560D02*
D03*
Y4020820D02*
D03*
X4803140Y3972560D02*
D03*
X4851400D02*
D03*
Y4020820D02*
D03*
X4803140D02*
D03*
X4851400D02*
D03*
Y3972560D02*
D03*
D03*
X4803140D02*
D03*
X4851400Y4020820D02*
D03*
X4899660D02*
D03*
Y3972560D02*
D03*
Y4020820D02*
D03*
X4851400Y3972560D02*
D03*
X4899660D02*
D03*
Y4020820D02*
D03*
X4851400D02*
D03*
X4899660D02*
D03*
Y3972560D02*
D03*
D03*
X4851400D02*
D03*
X4610100Y4020820D02*
D03*
X4658360D02*
D03*
D03*
Y4069080D02*
D03*
X4610100D02*
D03*
X4658360D02*
D03*
Y4020820D02*
D03*
X4610100D02*
D03*
X4658360Y4069080D02*
D03*
Y4020820D02*
D03*
Y4069080D02*
D03*
X4610100D02*
D03*
X4658360D02*
D03*
X4706620D02*
D03*
Y4020820D02*
D03*
Y4069080D02*
D03*
X4658360Y4020820D02*
D03*
X4706620D02*
D03*
Y4069080D02*
D03*
X4658360D02*
D03*
X4706620D02*
D03*
Y4020820D02*
D03*
D03*
X4658360D02*
D03*
X4706620Y4069080D02*
D03*
X4754880D02*
D03*
Y4020820D02*
D03*
Y4069080D02*
D03*
X4706620Y4020820D02*
D03*
X4754880D02*
D03*
Y4069080D02*
D03*
X4706620D02*
D03*
X4754880D02*
D03*
Y4020820D02*
D03*
D03*
X4706620D02*
D03*
X4754880D02*
D03*
X4803140D02*
D03*
D03*
Y4069080D02*
D03*
X4754880D02*
D03*
X4803140D02*
D03*
Y4020820D02*
D03*
X4754880D02*
D03*
X4803140Y4069080D02*
D03*
Y4020820D02*
D03*
Y4069080D02*
D03*
X4754880D02*
D03*
X4803140D02*
D03*
X4851400D02*
D03*
Y4020820D02*
D03*
Y4069080D02*
D03*
X4803140Y4020820D02*
D03*
X4851400D02*
D03*
Y4069080D02*
D03*
X4803140D02*
D03*
X4851400D02*
D03*
Y4020820D02*
D03*
D03*
X4803140D02*
D03*
X4851400Y4069080D02*
D03*
X4899660D02*
D03*
Y4020820D02*
D03*
Y4069080D02*
D03*
X4851400Y4020820D02*
D03*
X4899660D02*
D03*
Y4069080D02*
D03*
X4851400D02*
D03*
X4899660D02*
D03*
Y4020820D02*
D03*
D03*
X4851400D02*
D03*
X4904740Y4693920D02*
D03*
Y4645660D02*
D03*
X4856480Y4693920D02*
D03*
X4759960D02*
D03*
X4808220D02*
D03*
X4711700D02*
D03*
X4615180D02*
D03*
X4663440D02*
D03*
X4615180Y4645660D02*
D03*
X4904740Y4597400D02*
D03*
X4856480Y4645660D02*
D03*
X4808220D02*
D03*
Y4597400D02*
D03*
X4759960Y4645660D02*
D03*
Y4597400D02*
D03*
X4711700D02*
D03*
Y4645660D02*
D03*
X4663440D02*
D03*
X4615180Y4597400D02*
D03*
X4663440D02*
D03*
X4856480D02*
D03*
X4759960Y4549140D02*
D03*
X4663440D02*
D03*
X4615180D02*
D03*
X4711700D02*
D03*
X4808220D02*
D03*
X4904740D02*
D03*
X4856480D02*
D03*
X596900Y4597400D02*
D03*
X693420D02*
D03*
X645160D02*
D03*
X500380Y4645660D02*
D03*
Y4597400D02*
D03*
X452120D02*
D03*
Y4645660D02*
D03*
X548640D02*
D03*
Y4597400D02*
D03*
X645160Y4645660D02*
D03*
X693420D02*
D03*
X741680D02*
D03*
X452120Y4693920D02*
D03*
X500380D02*
D03*
X548640D02*
D03*
X596900Y4645660D02*
D03*
Y4693920D02*
D03*
X645160D02*
D03*
X693420D02*
D03*
X741680D02*
D03*
X688340Y4020820D02*
D03*
X736600D02*
D03*
Y4069080D02*
D03*
X640080Y4020820D02*
D03*
X688340Y4069080D02*
D03*
X640080D02*
D03*
X591820D02*
D03*
X543560D02*
D03*
Y4020820D02*
D03*
X495300Y4069080D02*
D03*
X447040D02*
D03*
Y4020820D02*
D03*
X736600Y3972560D02*
D03*
X640080D02*
D03*
X591820D02*
D03*
Y4020820D02*
D03*
X495300D02*
D03*
X736600Y3924300D02*
D03*
X688340Y3972560D02*
D03*
Y3924300D02*
D03*
X640080D02*
D03*
X591820D02*
D03*
X543560Y3972560D02*
D03*
X495300D02*
D03*
X447040D02*
D03*
Y3924300D02*
D03*
Y3876040D02*
D03*
X495300Y3924300D02*
D03*
X543560Y3876040D02*
D03*
Y3924300D02*
D03*
X495300Y3876040D02*
D03*
X591820D02*
D03*
X640080D02*
D03*
X688340D02*
D03*
X736600D02*
D03*
X7846240Y2772260D02*
D03*
Y2724000D02*
D03*
Y2675740D02*
D03*
X7942760D02*
D03*
X7894500D02*
D03*
Y2772260D02*
D03*
X7942760D02*
D03*
X7894500Y2724000D02*
D03*
X7942760D02*
D03*
X3681160D02*
D03*
Y2772260D02*
D03*
X3729420Y2675740D02*
D03*
X3777680D02*
D03*
Y2724000D02*
D03*
X3729420D02*
D03*
Y2772260D02*
D03*
X3777680D02*
D03*
X7797980Y2724000D02*
D03*
Y2675740D02*
D03*
X7846240Y2530960D02*
D03*
X7797980Y2579220D02*
D03*
X7846240D02*
D03*
Y2627480D02*
D03*
Y2386180D02*
D03*
Y2434440D02*
D03*
X7797980Y2482700D02*
D03*
X7846240D02*
D03*
X7797980Y2337920D02*
D03*
X7846240D02*
D03*
X7749720D02*
D03*
Y2530960D02*
D03*
X7797980D02*
D03*
Y2434440D02*
D03*
Y2386180D02*
D03*
Y2627480D02*
D03*
X7749720Y2724000D02*
D03*
X7797980Y2772260D02*
D03*
X7701460Y2337920D02*
D03*
Y2482700D02*
D03*
X7749720Y2434440D02*
D03*
Y2482700D02*
D03*
X7701460Y2434440D02*
D03*
Y2386180D02*
D03*
X7749720D02*
D03*
Y2627480D02*
D03*
X7701460Y2675740D02*
D03*
X7749720Y2579220D02*
D03*
X7701460Y2627480D02*
D03*
Y2579220D02*
D03*
Y2530960D02*
D03*
X7749720Y2675740D02*
D03*
X7701460Y2724000D02*
D03*
Y2772260D02*
D03*
X7749720D02*
D03*
X3632900D02*
D03*
Y2675740D02*
D03*
Y2579220D02*
D03*
Y2530960D02*
D03*
X3681160Y2579220D02*
D03*
Y2675740D02*
D03*
X3632900Y2627480D02*
D03*
X3681160D02*
D03*
Y2434440D02*
D03*
X3632900D02*
D03*
X3681160Y2482700D02*
D03*
Y2530960D02*
D03*
X3632900Y2337920D02*
D03*
Y2386180D02*
D03*
X3681160D02*
D03*
Y2337920D02*
D03*
X3632900Y2482700D02*
D03*
X3584640Y2530960D02*
D03*
Y2482700D02*
D03*
Y2386180D02*
D03*
Y2627480D02*
D03*
Y2579220D02*
D03*
Y2675740D02*
D03*
X3632900Y2724000D02*
D03*
X3584640D02*
D03*
Y2337920D02*
D03*
X3536380Y2386180D02*
D03*
Y2337920D02*
D03*
Y2482700D02*
D03*
Y2530960D02*
D03*
X3584640Y2434440D02*
D03*
X3536380D02*
D03*
Y2627480D02*
D03*
Y2675740D02*
D03*
Y2579220D02*
D03*
X3584640Y2772260D02*
D03*
X3536380Y2724000D02*
D03*
Y2772260D02*
D03*
X5173420Y2177820D02*
D03*
Y2322600D02*
D03*
Y2226080D02*
D03*
Y2274340D02*
D03*
X5221680Y2226080D02*
D03*
X5173420Y2419120D02*
D03*
X5221680Y2370860D02*
D03*
X5173420D02*
D03*
Y2467380D02*
D03*
X5221680Y2515640D02*
D03*
X5173420D02*
D03*
X5269940Y2467380D02*
D03*
X5221680D02*
D03*
X5269940Y2515640D02*
D03*
Y2370860D02*
D03*
X5221680Y2322600D02*
D03*
Y2419120D02*
D03*
Y2177820D02*
D03*
Y2274340D02*
D03*
X5269940D02*
D03*
X5318200Y2515640D02*
D03*
Y2370860D02*
D03*
Y2419120D02*
D03*
X5269940D02*
D03*
X5318200Y2467380D02*
D03*
X5269940Y2226080D02*
D03*
X5318200D02*
D03*
Y2274340D02*
D03*
Y2322600D02*
D03*
X5269940D02*
D03*
Y2177820D02*
D03*
X5318200D02*
D03*
X1153160Y2129560D02*
D03*
Y2081300D02*
D03*
X1104900Y2129560D02*
D03*
X1153160Y2177820D02*
D03*
Y2322600D02*
D03*
Y2274340D02*
D03*
Y2226080D02*
D03*
Y2467380D02*
D03*
Y2370860D02*
D03*
Y2419120D02*
D03*
X1104900Y2467380D02*
D03*
X1153160Y2515640D02*
D03*
X1104900Y2081300D02*
D03*
Y2177820D02*
D03*
X1056640D02*
D03*
X1104900Y2274340D02*
D03*
Y2226080D02*
D03*
X1056640D02*
D03*
X1104900Y2419120D02*
D03*
Y2322600D02*
D03*
Y2370860D02*
D03*
X1056640Y2467380D02*
D03*
X1104900Y2515640D02*
D03*
X1008380D02*
D03*
X1056640D02*
D03*
Y2322600D02*
D03*
X1008380D02*
D03*
X1056640Y2419120D02*
D03*
X1008380Y2370860D02*
D03*
X1056640D02*
D03*
X1008380Y2419120D02*
D03*
Y2467380D02*
D03*
Y2226080D02*
D03*
Y2177820D02*
D03*
Y2274340D02*
D03*
X1056640D02*
D03*
X1008380Y2129560D02*
D03*
X1056640D02*
D03*
Y2081300D02*
D03*
X1008380D02*
D03*
X8806180Y450620D02*
D03*
X8854440D02*
D03*
X8806180Y402360D02*
D03*
Y354100D02*
D03*
X8854440D02*
D03*
Y402360D02*
D03*
Y305840D02*
D03*
X8806180D02*
D03*
X9060180Y354100D02*
D03*
X9108440D02*
D03*
X9060180Y305840D02*
D03*
X9108440D02*
D03*
X9060180Y402360D02*
D03*
X9108440D02*
D03*
Y450620D02*
D03*
X9060180D02*
D03*
X9314180Y354100D02*
D03*
X9362440D02*
D03*
Y305840D02*
D03*
X9314180D02*
D03*
Y402360D02*
D03*
X9362440D02*
D03*
Y450620D02*
D03*
X9314180D02*
D03*
X9616440Y305840D02*
D03*
Y354100D02*
D03*
X9568180Y305840D02*
D03*
X9616440Y402360D02*
D03*
X9568180Y354100D02*
D03*
Y402360D02*
D03*
X9616440Y450620D02*
D03*
X9568180D02*
D03*
X9822180D02*
D03*
X9870440D02*
D03*
Y402360D02*
D03*
X9822180Y354100D02*
D03*
X9870440D02*
D03*
X9822180Y402360D02*
D03*
X9870440Y305840D02*
D03*
X9822180D02*
D03*
X10076180Y354100D02*
D03*
X10124440D02*
D03*
X10076180Y305840D02*
D03*
X10124440D02*
D03*
X10076180Y402360D02*
D03*
X10124440Y450620D02*
D03*
Y402360D02*
D03*
X10076180Y450620D02*
D03*
X10330180Y354100D02*
D03*
X10378440D02*
D03*
Y305840D02*
D03*
X10330180D02*
D03*
X10378440Y402360D02*
D03*
X10330180D02*
D03*
X10378440Y450620D02*
D03*
X10330180D02*
D03*
X10632440Y305840D02*
D03*
Y354100D02*
D03*
X10584180Y305840D02*
D03*
Y402360D02*
D03*
X10632440D02*
D03*
X10584180Y354100D02*
D03*
X10632440Y450620D02*
D03*
X10584180D02*
D03*
X9822180Y1020620D02*
D03*
X9870440D02*
D03*
X9822180Y972360D02*
D03*
X9870440Y924100D02*
D03*
Y972360D02*
D03*
Y875840D02*
D03*
X9822180D02*
D03*
Y924100D02*
D03*
X10076180Y875840D02*
D03*
X10124440D02*
D03*
X10076180Y924100D02*
D03*
X10124440D02*
D03*
Y972360D02*
D03*
X10076180D02*
D03*
X10124440Y1020620D02*
D03*
X10076180D02*
D03*
X10330180Y924100D02*
D03*
X10378440Y875840D02*
D03*
X10330180D02*
D03*
Y972360D02*
D03*
X10378440D02*
D03*
Y924100D02*
D03*
Y1020620D02*
D03*
X10330180D02*
D03*
X10632440Y924100D02*
D03*
X10584180Y875840D02*
D03*
X10632440D02*
D03*
Y972360D02*
D03*
X10584180Y924100D02*
D03*
Y972360D02*
D03*
X10632440Y1020620D02*
D03*
X10584180D02*
D03*
X9822180Y1266710D02*
D03*
X9870440D02*
D03*
X9822180Y1170190D02*
D03*
X9870440Y1218450D02*
D03*
Y1170190D02*
D03*
X9822180Y1218450D02*
D03*
Y1121930D02*
D03*
X9870440D02*
D03*
X10076180D02*
D03*
X10124440D02*
D03*
X10076180Y1170190D02*
D03*
X10124440D02*
D03*
X10076180Y1218450D02*
D03*
X10124440Y1266710D02*
D03*
Y1218450D02*
D03*
X10076180Y1266710D02*
D03*
X10378440Y1121930D02*
D03*
X10330180D02*
D03*
Y1170190D02*
D03*
X10378440D02*
D03*
Y1218450D02*
D03*
X10330180D02*
D03*
X10378440Y1266710D02*
D03*
X10330180D02*
D03*
X10632440Y1170190D02*
D03*
X10584180Y1121930D02*
D03*
X10632440D02*
D03*
Y1218450D02*
D03*
X10584180Y1170190D02*
D03*
Y1218450D02*
D03*
X10632440Y1266710D02*
D03*
X10584180D02*
D03*
X9822180Y1836710D02*
D03*
X9870440D02*
D03*
X9822180Y1788450D02*
D03*
X9870440D02*
D03*
Y1740190D02*
D03*
X9822180Y1691930D02*
D03*
X9870440D02*
D03*
X9822180Y1740190D02*
D03*
X10076180D02*
D03*
Y1691930D02*
D03*
X10124440D02*
D03*
Y1740190D02*
D03*
Y1788450D02*
D03*
X10076180D02*
D03*
X10124440Y1836710D02*
D03*
X10076180D02*
D03*
X10330180Y1740190D02*
D03*
Y1691930D02*
D03*
X10378440D02*
D03*
Y1788450D02*
D03*
Y1740190D02*
D03*
X10330180Y1788450D02*
D03*
X10378440Y1836710D02*
D03*
X10330180D02*
D03*
X10584180Y1740190D02*
D03*
Y1691930D02*
D03*
X10632440D02*
D03*
Y1740190D02*
D03*
Y1788450D02*
D03*
X10584180D02*
D03*
X10632440Y1836710D02*
D03*
X10584180D02*
D03*
X9822180Y2082800D02*
D03*
X9870440D02*
D03*
X9822180Y2034540D02*
D03*
X9870440D02*
D03*
X9822180Y1938020D02*
D03*
X9870440Y1986280D02*
D03*
Y1938020D02*
D03*
X9822180Y1986280D02*
D03*
X10076180Y1938020D02*
D03*
X10124440D02*
D03*
X10076180Y2034540D02*
D03*
X10124440D02*
D03*
X10076180Y1986280D02*
D03*
X10124440D02*
D03*
Y2082800D02*
D03*
X10076180D02*
D03*
X10330180Y1986280D02*
D03*
X10378440D02*
D03*
X10330180Y1938020D02*
D03*
X10378440D02*
D03*
Y2034540D02*
D03*
X10330180D02*
D03*
X10378440Y2082800D02*
D03*
X10330180D02*
D03*
X10584180Y1986280D02*
D03*
X10632440D02*
D03*
X10584180Y1938020D02*
D03*
X10632440D02*
D03*
Y2034540D02*
D03*
X10584180D02*
D03*
X10632440Y2082800D02*
D03*
X10584180D02*
D03*
X8806180Y1020620D02*
D03*
X8854440D02*
D03*
Y972360D02*
D03*
Y924100D02*
D03*
X8806180Y972360D02*
D03*
Y875840D02*
D03*
X8854440D02*
D03*
X8806180Y924100D02*
D03*
X9060180Y875840D02*
D03*
X9108440D02*
D03*
X9060180Y972360D02*
D03*
X9108440D02*
D03*
X9060180Y924100D02*
D03*
X9108440D02*
D03*
Y1020620D02*
D03*
X9060180D02*
D03*
X9314180Y875840D02*
D03*
X9362440D02*
D03*
X9314180Y972360D02*
D03*
X9362440D02*
D03*
X9314180Y924100D02*
D03*
X9362440D02*
D03*
Y1020620D02*
D03*
X9314180D02*
D03*
X9568180Y924100D02*
D03*
X9616440Y875840D02*
D03*
X9568180D02*
D03*
X9616440Y972360D02*
D03*
Y924100D02*
D03*
X9568180Y972360D02*
D03*
X9616440Y1020620D02*
D03*
X9568180D02*
D03*
X8806180Y1266710D02*
D03*
X8854440D02*
D03*
X8806180Y1170190D02*
D03*
X8854440Y1218450D02*
D03*
Y1170190D02*
D03*
X8806180Y1218450D02*
D03*
X8854440Y1121930D02*
D03*
X8806180D02*
D03*
X9108440Y1170190D02*
D03*
Y1121930D02*
D03*
X9060180D02*
D03*
Y1170190D02*
D03*
Y1218450D02*
D03*
X9108440Y1266710D02*
D03*
Y1218450D02*
D03*
X9060180Y1266710D02*
D03*
X9314180Y1170190D02*
D03*
X9362440Y1121930D02*
D03*
X9314180D02*
D03*
X9362440Y1218450D02*
D03*
Y1170190D02*
D03*
X9314180Y1218450D02*
D03*
X9362440Y1266710D02*
D03*
X9314180D02*
D03*
X9568180Y1170190D02*
D03*
X9616440D02*
D03*
X9568180Y1121930D02*
D03*
X9616440D02*
D03*
X9568180Y1218450D02*
D03*
X9616440D02*
D03*
Y1266710D02*
D03*
X9568180D02*
D03*
X8806180Y1836710D02*
D03*
X8854440D02*
D03*
X8806180Y1788450D02*
D03*
X8854440D02*
D03*
Y1740190D02*
D03*
Y1691930D02*
D03*
X8806180D02*
D03*
Y1740190D02*
D03*
X9108440Y1691930D02*
D03*
X9060180D02*
D03*
X9108440Y1788450D02*
D03*
X9060180Y1740190D02*
D03*
X9108440D02*
D03*
X9060180Y1788450D02*
D03*
X9108440Y1836710D02*
D03*
X9060180D02*
D03*
X9362440Y1691930D02*
D03*
X9314180D02*
D03*
Y1788450D02*
D03*
X9362440Y1740190D02*
D03*
Y1788450D02*
D03*
X9314180Y1740190D02*
D03*
X9362440Y1836710D02*
D03*
X9314180D02*
D03*
X9568180Y1740190D02*
D03*
X9616440Y1691930D02*
D03*
Y1740190D02*
D03*
X9568180Y1691930D02*
D03*
Y1788450D02*
D03*
X9616440D02*
D03*
Y1836710D02*
D03*
X9568180D02*
D03*
Y2082800D02*
D03*
X9616440D02*
D03*
Y2034540D02*
D03*
X9568180D02*
D03*
Y1938020D02*
D03*
X9616440Y1986280D02*
D03*
Y1938020D02*
D03*
X9568180Y1986280D02*
D03*
X9314180Y2082800D02*
D03*
X9362440D02*
D03*
Y1986280D02*
D03*
Y2034540D02*
D03*
X9314180D02*
D03*
X9362440Y1938020D02*
D03*
X9314180D02*
D03*
Y1986280D02*
D03*
X9060180Y2082800D02*
D03*
X9108440D02*
D03*
Y2034540D02*
D03*
Y1986280D02*
D03*
X9060180Y2034540D02*
D03*
Y1938020D02*
D03*
X9108440D02*
D03*
X9060180Y1986280D02*
D03*
X8854440Y1938020D02*
D03*
X8806180D02*
D03*
X8854440Y1986280D02*
D03*
X8806180D02*
D03*
Y2034540D02*
D03*
X8854440D02*
D03*
Y2082800D02*
D03*
X8806180D02*
D03*
%TF.MD5,a5696952f4e6c19feb3c5513b1e1470e*%
M02*
