%TF.GenerationSoftware,Altium Limited,Altium Designer,24.0.1 (36)*%
G04 Layer_Color=8388736*
%FSLAX45Y45*%
%MOMM*%
%TF.SameCoordinates,C70C49FB-F700-4022-ADB5-B9B597CAE3A5*%
%TF.FilePolarity,Negative*%
%TF.FileFunction,Soldermask,Top*%
%TF.Part,Single*%
G01*
G75*
%TA.AperFunction,SMDPad,CuDef*%
%ADD10R,0.50000X0.50000*%
%TA.AperFunction,ConnectorPad*%
%ADD11R,2.99999X2.50000*%
%ADD12R,2.99999X3.49999*%
%TA.AperFunction,SMDPad,CuDef*%
%ADD13R,1.02000X1.90000*%
%ADD14R,0.85000X0.75000*%
%ADD15R,0.75000X0.85000*%
%ADD16R,1.15000X0.32500*%
%ADD17O,1.15000X0.32500*%
%ADD18O,0.32500X1.15000*%
%ADD19R,1.00000X1.00000*%
%ADD20R,0.50000X0.40000*%
%ADD21R,0.40000X0.50000*%
%ADD22O,1.00000X2.70000*%
%ADD23R,1.00000X2.70000*%
%TA.AperFunction,ConnectorPad*%
%ADD24R,1.00000X1.80000*%
%TA.AperFunction,SMDPad,CuDef*%
%ADD25R,0.66500X0.20000*%
%ADD26R,0.20000X0.66500*%
%ADD27R,2.69999X2.69999*%
%ADD28R,1.20000X0.65000*%
%ADD29R,4.50000X4.70000*%
%ADD30R,0.65000X1.20000*%
%ADD31R,4.70000X4.50000*%
%ADD32R,0.50000X0.50000*%
%ADD33R,0.75001X0.40000*%
%ADD34R,0.80000X0.40000*%
%ADD35R,2.00000X2.59999*%
%ADD36R,1.70101X1.20752*%
%ADD37R,1.70000X5.70000*%
%TA.AperFunction,ConnectorPad*%
%ADD38R,0.60000X1.24000*%
%ADD39R,0.30000X1.24000*%
%TA.AperFunction,SMDPad,CuDef*%
%ADD40R,3.20000X1.65000*%
%ADD41R,1.65000X3.20000*%
%TA.AperFunction,ComponentPad*%
%ADD48O,1.00000X2.10000*%
%ADD49O,1.00000X1.80000*%
%ADD50C,0.65000*%
G04:AMPARAMS|DCode=51|XSize=4mm|YSize=1mm|CornerRadius=0.25mm|HoleSize=0mm|Usage=FLASHONLY|Rotation=90.000|XOffset=0mm|YOffset=0mm|HoleType=Round|Shape=RoundedRectangle|*
%AMROUNDEDRECTD51*
21,1,4.00000,0.50000,0,0,90.0*
21,1,3.50000,1.00000,0,0,90.0*
1,1,0.50000,0.25000,1.75000*
1,1,0.50000,0.25000,-1.75000*
1,1,0.50000,-0.25000,-1.75000*
1,1,0.50000,-0.25000,1.75000*
%
%ADD51ROUNDEDRECTD51*%
G36*
X8648300Y3710840D02*
X8598300D01*
Y3780840D01*
X8648300D01*
Y3710840D01*
D02*
G37*
G36*
Y3577340D02*
X8598300D01*
Y3647340D01*
X8648300D01*
Y3577340D01*
D02*
G37*
G36*
Y3444340D02*
X8598300D01*
Y3514340D01*
X8648300D01*
Y3444340D01*
D02*
G37*
G36*
Y3310840D02*
X8598300D01*
Y3380840D01*
X8648300D01*
Y3310840D01*
D02*
G37*
G36*
X9283300Y3172360D02*
X9233300D01*
Y3242360D01*
X9283300D01*
Y3172360D01*
D02*
G37*
G36*
Y3038860D02*
X9233300D01*
Y3108860D01*
X9283300D01*
Y3038860D01*
D02*
G37*
G36*
Y2905860D02*
X9233300D01*
Y2975860D01*
X9283300D01*
Y2905860D01*
D02*
G37*
G36*
Y2772360D02*
X9233300D01*
Y2842360D01*
X9283300D01*
Y2772360D01*
D02*
G37*
G36*
X8535640Y2591780D02*
X8485640D01*
Y2661780D01*
X8535640D01*
Y2591780D01*
D02*
G37*
G36*
X4534020D02*
X4484020D01*
Y2661780D01*
X4534020D01*
Y2591780D01*
D02*
G37*
G36*
X4370560D02*
X4320560D01*
Y2661780D01*
X4370560D01*
Y2591780D01*
D02*
G37*
G36*
X368980D02*
X318980D01*
Y2661780D01*
X368980D01*
Y2591780D01*
D02*
G37*
G36*
X8535640Y2458280D02*
X8485640D01*
Y2528280D01*
X8535640D01*
Y2458280D01*
D02*
G37*
G36*
X4534020D02*
X4484020D01*
Y2528280D01*
X4534020D01*
Y2458280D01*
D02*
G37*
G36*
X4370560D02*
X4320560D01*
Y2528280D01*
X4370560D01*
Y2458280D01*
D02*
G37*
G36*
X368980D02*
X318980D01*
Y2528280D01*
X368980D01*
Y2458280D01*
D02*
G37*
G36*
X8535640Y2325280D02*
X8485640D01*
Y2395280D01*
X8535640D01*
Y2325280D01*
D02*
G37*
G36*
X4534020D02*
X4484020D01*
Y2395280D01*
X4534020D01*
Y2325280D01*
D02*
G37*
G36*
X4370560D02*
X4320560D01*
Y2395280D01*
X4370560D01*
Y2325280D01*
D02*
G37*
G36*
X368980D02*
X318980D01*
Y2395280D01*
X368980D01*
Y2325280D01*
D02*
G37*
G36*
X8535640Y2191780D02*
X8485640D01*
Y2261780D01*
X8535640D01*
Y2191780D01*
D02*
G37*
G36*
X4534020D02*
X4484020D01*
Y2261780D01*
X4534020D01*
Y2191780D01*
D02*
G37*
G36*
X4370560D02*
X4320560D01*
Y2261780D01*
X4370560D01*
Y2191780D01*
D02*
G37*
G36*
X368980D02*
X318980D01*
Y2261780D01*
X368980D01*
Y2191780D01*
D02*
G37*
G36*
X6700520Y1752600D02*
X6319520D01*
Y2133600D01*
X6700520D01*
Y1752600D01*
D02*
G37*
G36*
X2534920D02*
X2153920D01*
Y2133600D01*
X2534920D01*
Y1752600D01*
D02*
G37*
G36*
X8513940Y1451260D02*
X8443940D01*
Y1501260D01*
X8513940D01*
Y1451260D01*
D02*
G37*
G36*
X8380440D02*
X8310440D01*
Y1501260D01*
X8380440D01*
Y1451260D01*
D02*
G37*
G36*
X8247440D02*
X8177440D01*
Y1501260D01*
X8247440D01*
Y1451260D01*
D02*
G37*
G36*
X8113940D02*
X8043940D01*
Y1501260D01*
X8113940D01*
Y1451260D01*
D02*
G37*
G36*
X4975720D02*
X4905720D01*
Y1501260D01*
X4975720D01*
Y1451260D01*
D02*
G37*
G36*
X4842220D02*
X4772220D01*
Y1501260D01*
X4842220D01*
Y1451260D01*
D02*
G37*
G36*
X4709220D02*
X4639220D01*
Y1501260D01*
X4709220D01*
Y1451260D01*
D02*
G37*
G36*
X4575720D02*
X4505720D01*
Y1501260D01*
X4575720D01*
Y1451260D01*
D02*
G37*
G36*
X4350040D02*
X4280040D01*
Y1501260D01*
X4350040D01*
Y1451260D01*
D02*
G37*
G36*
X4216540D02*
X4146540D01*
Y1501260D01*
X4216540D01*
Y1451260D01*
D02*
G37*
G36*
X4083540D02*
X4013540D01*
Y1501260D01*
X4083540D01*
Y1451260D01*
D02*
G37*
G36*
X3950040D02*
X3880040D01*
Y1501260D01*
X3950040D01*
Y1451260D01*
D02*
G37*
G36*
X812040D02*
X742040D01*
Y1501260D01*
X812040D01*
Y1451260D01*
D02*
G37*
G36*
X678540D02*
X608540D01*
Y1501260D01*
X678540D01*
Y1451260D01*
D02*
G37*
G36*
X545540D02*
X475540D01*
Y1501260D01*
X545540D01*
Y1451260D01*
D02*
G37*
G36*
X412040D02*
X342040D01*
Y1501260D01*
X412040D01*
Y1451260D01*
D02*
G37*
D10*
X6670543Y2488999D02*
D03*
Y2573999D02*
D03*
X6350503Y2488999D02*
D03*
Y2573999D02*
D03*
X2504943Y2488999D02*
D03*
Y2573999D02*
D03*
X2184903Y2488999D02*
D03*
Y2573999D02*
D03*
X2557780Y1402080D02*
D03*
Y1312080D02*
D03*
X2344420Y1402080D02*
D03*
Y1312080D02*
D03*
X2237740Y1402080D02*
D03*
Y1312080D02*
D03*
X6723380Y1402080D02*
D03*
Y1312080D02*
D03*
X6510020Y1402080D02*
D03*
Y1312080D02*
D03*
X6403340Y1402080D02*
D03*
Y1312080D02*
D03*
X2890520Y1937298D02*
D03*
Y1847298D02*
D03*
X1800414Y1936128D02*
D03*
Y1846128D02*
D03*
X7056120Y1937298D02*
D03*
Y1847298D02*
D03*
X5966014Y1936128D02*
D03*
Y1846128D02*
D03*
X6563863Y2486824D02*
D03*
Y2576823D02*
D03*
X6457183Y2486824D02*
D03*
Y2576823D02*
D03*
X10040620Y3450042D02*
D03*
Y3540042D02*
D03*
X9591040Y3453300D02*
D03*
Y3543300D02*
D03*
X9735820Y4248698D02*
D03*
Y4158698D02*
D03*
X9629140Y4248698D02*
D03*
Y4158698D02*
D03*
X2398263Y2486824D02*
D03*
Y2576823D02*
D03*
X2291583Y2486824D02*
D03*
Y2576823D02*
D03*
D11*
X10610449Y5615940D02*
D03*
X9710420D02*
D03*
D12*
X9855406Y4472943D02*
D03*
X10465405D02*
D03*
D13*
X10355580Y2578100D02*
D03*
Y2008100D02*
D03*
X10609580Y2578100D02*
D03*
Y2008100D02*
D03*
X10101580D02*
D03*
Y2578100D02*
D03*
X9847580Y2008100D02*
D03*
Y2578100D02*
D03*
X9593580Y2008100D02*
D03*
Y2578100D02*
D03*
X9339580Y2008100D02*
D03*
Y2578100D02*
D03*
X9085580Y2008100D02*
D03*
Y2578100D02*
D03*
X8831580Y2008100D02*
D03*
Y2578100D02*
D03*
X10355580Y1762010D02*
D03*
Y1192010D02*
D03*
X10609580Y1762010D02*
D03*
Y1192010D02*
D03*
X10101580D02*
D03*
Y1762010D02*
D03*
X9847580Y1192010D02*
D03*
Y1762010D02*
D03*
X9593580Y1192010D02*
D03*
Y1762010D02*
D03*
X9339580Y1192010D02*
D03*
Y1762010D02*
D03*
X9085580Y1192010D02*
D03*
Y1762010D02*
D03*
X8831580Y1192010D02*
D03*
Y1762010D02*
D03*
X10355580Y945920D02*
D03*
Y375920D02*
D03*
X10609580Y945920D02*
D03*
Y375920D02*
D03*
X10101580D02*
D03*
Y945920D02*
D03*
X9847580Y375920D02*
D03*
Y945920D02*
D03*
X9593580Y375920D02*
D03*
Y945920D02*
D03*
X9339580Y375920D02*
D03*
Y945920D02*
D03*
X9085580Y375920D02*
D03*
Y945920D02*
D03*
X8831580Y375920D02*
D03*
Y945920D02*
D03*
D14*
X10657840Y3887580D02*
D03*
Y3742580D02*
D03*
X7194360Y4825700D02*
D03*
Y4970700D02*
D03*
X6503480Y4825700D02*
D03*
Y4970700D02*
D03*
X7885240Y4825700D02*
D03*
Y4970700D02*
D03*
X3737420Y4825700D02*
D03*
Y4970700D02*
D03*
X3046540Y4825700D02*
D03*
Y4970700D02*
D03*
X4428300Y4825700D02*
D03*
Y4970700D02*
D03*
X5810060Y4825700D02*
D03*
Y4970700D02*
D03*
X5119180Y4825700D02*
D03*
Y4970700D02*
D03*
X10071100Y2961640D02*
D03*
Y2816640D02*
D03*
X2353120Y4825700D02*
D03*
Y4970700D02*
D03*
X1662240Y4825700D02*
D03*
Y4970700D02*
D03*
X5102860Y2076560D02*
D03*
Y1931560D02*
D03*
X7914640Y1507380D02*
D03*
Y1652380D02*
D03*
X5102860Y1509920D02*
D03*
Y1654920D02*
D03*
X7914640Y2074020D02*
D03*
Y1929020D02*
D03*
X973900Y4825700D02*
D03*
Y4970700D02*
D03*
X937260Y1509920D02*
D03*
Y1654920D02*
D03*
Y2076560D02*
D03*
Y1931560D02*
D03*
X3749040Y2076560D02*
D03*
Y1931560D02*
D03*
Y1509920D02*
D03*
Y1654920D02*
D03*
X10071100Y3158380D02*
D03*
Y3303380D02*
D03*
D15*
X7908180Y1358900D02*
D03*
X8053180D02*
D03*
X8479900D02*
D03*
X8334900D02*
D03*
X5109320D02*
D03*
X4964320D02*
D03*
X4537600D02*
D03*
X4682600D02*
D03*
X3742580D02*
D03*
X3887580D02*
D03*
X374540D02*
D03*
X519540D02*
D03*
X943720D02*
D03*
X798720D02*
D03*
X4316840D02*
D03*
X4171840D02*
D03*
X10214720Y4218940D02*
D03*
X10069720D02*
D03*
X9208880Y3863340D02*
D03*
X9063880D02*
D03*
X9208880Y4032250D02*
D03*
X9063880D02*
D03*
X9208880Y4201160D02*
D03*
X9063880D02*
D03*
X8658860Y3863340D02*
D03*
X8803860D02*
D03*
X8658860Y4032250D02*
D03*
X8803860D02*
D03*
X8658860Y4201160D02*
D03*
X8803860D02*
D03*
D16*
X6815100Y1718100D02*
D03*
X2649500D02*
D03*
D17*
X6815100Y1768100D02*
D03*
Y1818100D02*
D03*
Y1868100D02*
D03*
Y1918100D02*
D03*
Y1968100D02*
D03*
Y2018100D02*
D03*
Y2068100D02*
D03*
Y2118100D02*
D03*
Y2168100D02*
D03*
X6202400D02*
D03*
Y2118100D02*
D03*
Y2068100D02*
D03*
Y2018100D02*
D03*
Y1968100D02*
D03*
Y1918100D02*
D03*
Y1868100D02*
D03*
Y1818100D02*
D03*
Y1768100D02*
D03*
Y1718100D02*
D03*
X2649500Y1768100D02*
D03*
Y1818100D02*
D03*
Y1868100D02*
D03*
Y1918100D02*
D03*
Y1968100D02*
D03*
Y2018100D02*
D03*
Y2068100D02*
D03*
Y2118100D02*
D03*
Y2168100D02*
D03*
X2036800D02*
D03*
Y2118100D02*
D03*
Y2068100D02*
D03*
Y2018100D02*
D03*
Y1968100D02*
D03*
Y1918100D02*
D03*
Y1868100D02*
D03*
Y1818100D02*
D03*
Y1768100D02*
D03*
Y1718100D02*
D03*
D18*
X6735020Y2248180D02*
D03*
X6685020D02*
D03*
X6635020D02*
D03*
X6585020D02*
D03*
X6535020D02*
D03*
X6485020D02*
D03*
X6435020D02*
D03*
X6385020D02*
D03*
X6335020D02*
D03*
X6285020D02*
D03*
Y1638020D02*
D03*
X6335020D02*
D03*
X6385020D02*
D03*
X6435020D02*
D03*
X6485020D02*
D03*
X6535020D02*
D03*
X6585020D02*
D03*
X6635020D02*
D03*
X6685020D02*
D03*
X6735020D02*
D03*
X2569420Y2248180D02*
D03*
X2519420D02*
D03*
X2469420D02*
D03*
X2419420D02*
D03*
X2369420D02*
D03*
X2319420D02*
D03*
X2269420D02*
D03*
X2219420D02*
D03*
X2169420D02*
D03*
X2119420D02*
D03*
Y1638020D02*
D03*
X2169420D02*
D03*
X2219420D02*
D03*
X2269420D02*
D03*
X2319420D02*
D03*
X2369420D02*
D03*
X2419420D02*
D03*
X2469420D02*
D03*
X2519420D02*
D03*
X2569420D02*
D03*
D19*
X6510020Y1943100D02*
D03*
X2344420D02*
D03*
D20*
X2664468Y1403892D02*
D03*
X2664460Y1313900D02*
D03*
X6830068Y1403892D02*
D03*
X6830060Y1313900D02*
D03*
X6615980Y1404583D02*
D03*
X6615972Y1314592D02*
D03*
X2450380Y1404583D02*
D03*
X2450372Y1314592D02*
D03*
X7241540Y2044700D02*
D03*
X7241548Y2134692D02*
D03*
X3081012Y1606008D02*
D03*
X3081020Y1696000D02*
D03*
X3075940Y2044700D02*
D03*
X3075948Y2134692D02*
D03*
X2131052Y1314600D02*
D03*
X2131060Y1404592D02*
D03*
D21*
X10233660Y3660140D02*
D03*
X10143668Y3660148D02*
D03*
X10143676Y3766836D02*
D03*
X10233668Y3766828D02*
D03*
X9704578Y3513633D02*
D03*
X9794569Y3513625D02*
D03*
X9793512Y3408672D02*
D03*
X9703520Y3408680D02*
D03*
X7049948Y2049788D02*
D03*
X7139940Y2049780D02*
D03*
X5476772Y2512052D02*
D03*
X5386780Y2512060D02*
D03*
X7542188Y2512052D02*
D03*
X7632180Y2512044D02*
D03*
X5476772Y2616192D02*
D03*
X5386780Y2616200D02*
D03*
X7542188Y2616208D02*
D03*
X7632180Y2616200D02*
D03*
X5774868Y1838968D02*
D03*
X5864860Y1838960D02*
D03*
X5774868Y1943108D02*
D03*
X5864860Y1943100D02*
D03*
X7247712Y1945632D02*
D03*
X7157720Y1945640D02*
D03*
X7247712Y1841492D02*
D03*
X7157720Y1841500D02*
D03*
X5316752Y1818632D02*
D03*
X5226760Y1818640D02*
D03*
X7701280Y1816100D02*
D03*
X7791272Y1816092D02*
D03*
X5316752Y1925312D02*
D03*
X5226760Y1925320D02*
D03*
X7701280Y1922780D02*
D03*
X7791272Y1922772D02*
D03*
X2887980Y1704340D02*
D03*
X2977972Y1704332D02*
D03*
X1805940Y1623060D02*
D03*
X1715948Y1623068D02*
D03*
Y1729748D02*
D03*
X1805940Y1729740D02*
D03*
X1311732Y2512052D02*
D03*
X1221740Y2512060D02*
D03*
X2884348Y2049788D02*
D03*
X2974340Y2049780D02*
D03*
X9360628Y4038608D02*
D03*
X9450620Y4038600D02*
D03*
X9450642Y3934452D02*
D03*
X9360650Y3934460D02*
D03*
X9360658Y3614428D02*
D03*
X9450650Y3614420D02*
D03*
X3377108Y2512052D02*
D03*
X3467100Y2512044D02*
D03*
X1311732Y2616192D02*
D03*
X1221740Y2616200D02*
D03*
X3377108Y2616208D02*
D03*
X3467100Y2616200D02*
D03*
X1609268Y1838968D02*
D03*
X1699260Y1838960D02*
D03*
X1609268Y1943108D02*
D03*
X1699260Y1943100D02*
D03*
X3082112Y1945632D02*
D03*
X2992120Y1945640D02*
D03*
X3082112Y1841492D02*
D03*
X2992120Y1841500D02*
D03*
X1151712Y1818632D02*
D03*
X1061720Y1818640D02*
D03*
X3535680D02*
D03*
X3625672Y1818632D02*
D03*
X1151712Y1925312D02*
D03*
X1061720Y1925320D02*
D03*
X3535680D02*
D03*
X3625672Y1925312D02*
D03*
X6769603Y2489320D02*
D03*
X6859595Y2489312D02*
D03*
X6251443Y2489320D02*
D03*
X6161452Y2489328D02*
D03*
X2977972Y1597652D02*
D03*
X2887980Y1597660D02*
D03*
X2604003Y2489320D02*
D03*
X2693995Y2489312D02*
D03*
X2085843Y2489320D02*
D03*
X1995852Y2489328D02*
D03*
D22*
X8233219Y5596980D02*
D03*
X6850074D02*
D03*
X7541647D02*
D03*
X4083783D02*
D03*
X2700638D02*
D03*
X3392211D02*
D03*
X1317493Y466800D02*
D03*
X4775356D02*
D03*
Y5596980D02*
D03*
X6158501D02*
D03*
X5466929D02*
D03*
X1317493D02*
D03*
X625920D02*
D03*
X2009065D02*
D03*
X4083783Y466800D02*
D03*
X3392211D02*
D03*
X6850074D02*
D03*
X625920D02*
D03*
X7541647D02*
D03*
X8233219D02*
D03*
X6158501D02*
D03*
X2700638D02*
D03*
X2009065D02*
D03*
X5466929D02*
D03*
D23*
X8233219Y4996980D02*
D03*
X6850074D02*
D03*
X7541647D02*
D03*
X4083783D02*
D03*
X2700638D02*
D03*
X3392211D02*
D03*
X1317493Y1066800D02*
D03*
X4775356D02*
D03*
Y4996980D02*
D03*
X6158501D02*
D03*
X5466929D02*
D03*
X1317493D02*
D03*
X625920D02*
D03*
X2009065D02*
D03*
X4083783Y1066800D02*
D03*
X3392211D02*
D03*
X6850074D02*
D03*
X625920D02*
D03*
X7541647D02*
D03*
X8233219D02*
D03*
X6158501D02*
D03*
X2700638D02*
D03*
X2009065D02*
D03*
X5466929D02*
D03*
D24*
X10497820Y3391180D02*
D03*
Y2791180D02*
D03*
D25*
X9987534Y3960470D02*
D03*
Y3920490D02*
D03*
Y3880485D02*
D03*
Y3840480D02*
D03*
Y3800475D02*
D03*
Y3760470D02*
D03*
Y3720490D02*
D03*
X9606026Y3840480D02*
D03*
Y3800475D02*
D03*
Y3920490D02*
D03*
Y3960470D02*
D03*
Y3880485D02*
D03*
Y3760470D02*
D03*
Y3720490D02*
D03*
D26*
X9876790Y4031234D02*
D03*
X9836785D02*
D03*
X9916770D02*
D03*
X9796780D02*
D03*
X9916770Y3649726D02*
D03*
X9876790D02*
D03*
X9836785D02*
D03*
X9796780D02*
D03*
X9716770Y4031234D02*
D03*
X9756775D02*
D03*
X9676790D02*
D03*
X9716770Y3649726D02*
D03*
X9756775D02*
D03*
X9676790D02*
D03*
D27*
X9796780Y3840480D02*
D03*
D28*
X8661400Y3345180D02*
D03*
Y3479800D02*
D03*
Y3611880D02*
D03*
Y3746500D02*
D03*
X9223300Y3736340D02*
D03*
Y3609340D02*
D03*
Y3482340D02*
D03*
Y3355340D02*
D03*
X9220200Y3208020D02*
D03*
Y3073400D02*
D03*
Y2941320D02*
D03*
Y2806700D02*
D03*
X8658300Y2816860D02*
D03*
Y2943860D02*
D03*
Y3070860D02*
D03*
Y3197860D02*
D03*
X8472540Y2627440D02*
D03*
Y2492820D02*
D03*
Y2360740D02*
D03*
Y2226120D02*
D03*
X7910640Y2236280D02*
D03*
Y2363280D02*
D03*
Y2490280D02*
D03*
Y2617280D02*
D03*
X4547120Y2226120D02*
D03*
Y2360740D02*
D03*
Y2492820D02*
D03*
Y2627440D02*
D03*
X5109020Y2617280D02*
D03*
Y2490280D02*
D03*
Y2363280D02*
D03*
Y2236280D02*
D03*
X4307460Y2627440D02*
D03*
Y2492820D02*
D03*
Y2360740D02*
D03*
Y2226120D02*
D03*
X3745560Y2236280D02*
D03*
Y2363280D02*
D03*
Y2490280D02*
D03*
Y2617280D02*
D03*
X382080Y2226120D02*
D03*
Y2360740D02*
D03*
Y2492820D02*
D03*
Y2627440D02*
D03*
X943980Y2617280D02*
D03*
Y2490280D02*
D03*
Y2363280D02*
D03*
Y2236280D02*
D03*
D29*
X8873300Y3545840D02*
D03*
X9008300Y3007360D02*
D03*
X8260640Y2426780D02*
D03*
X4759020D02*
D03*
X4095560D02*
D03*
X593980D02*
D03*
D30*
X8479600Y1514360D02*
D03*
X8344980D02*
D03*
X8212900D02*
D03*
X8078280D02*
D03*
X8088440Y2076260D02*
D03*
X8215440D02*
D03*
X8342440D02*
D03*
X8469440D02*
D03*
X4941380Y1514360D02*
D03*
X4806760D02*
D03*
X4674680D02*
D03*
X4540060D02*
D03*
X4550220Y2076260D02*
D03*
X4677220D02*
D03*
X4804220D02*
D03*
X4931220D02*
D03*
X4315700Y1514360D02*
D03*
X4181080D02*
D03*
X4049000D02*
D03*
X3914380D02*
D03*
X3924540Y2076260D02*
D03*
X4051540D02*
D03*
X4178540D02*
D03*
X4305540D02*
D03*
X777700Y1514360D02*
D03*
X643080D02*
D03*
X511000D02*
D03*
X376380D02*
D03*
X386540Y2076260D02*
D03*
X513540D02*
D03*
X640540D02*
D03*
X767540D02*
D03*
D31*
X8278940Y1726260D02*
D03*
X4740720D02*
D03*
X4115040D02*
D03*
X577040D02*
D03*
D32*
X10141164Y3873508D02*
D03*
X10231164D02*
D03*
X10141164Y3980188D02*
D03*
X10231164D02*
D03*
X9839960Y4163060D02*
D03*
X9929960D02*
D03*
X5969000Y2049780D02*
D03*
X5879000D02*
D03*
X1803400D02*
D03*
X1713400D02*
D03*
X10722440Y3538220D02*
D03*
X10632440D02*
D03*
X9363880Y3505200D02*
D03*
X9453880D02*
D03*
X9363162Y3827780D02*
D03*
X9453162D02*
D03*
X9363162Y3721100D02*
D03*
X9453162D02*
D03*
D33*
X10372420Y4222471D02*
D03*
Y4157447D02*
D03*
Y4092448D02*
D03*
Y4027449D02*
D03*
D34*
X10679100Y4222471D02*
D03*
Y4157447D02*
D03*
Y4092448D02*
D03*
Y4027449D02*
D03*
D35*
X10559059Y4125417D02*
D03*
D36*
X10464800Y3573221D02*
D03*
Y3868979D02*
D03*
D37*
X9877000Y3058160D02*
D03*
X9427000D02*
D03*
D38*
X9390126Y5141011D02*
D03*
X9310141D02*
D03*
X8830132D02*
D03*
X8750148D02*
D03*
D39*
X9245143D02*
D03*
X9195130D02*
D03*
X9145143D02*
D03*
X9095130D02*
D03*
X9045143D02*
D03*
X8995131D02*
D03*
X8945143D02*
D03*
X8895131D02*
D03*
D40*
X601980Y4010660D02*
D03*
Y4610660D02*
D03*
X8252460D02*
D03*
Y4010660D02*
D03*
X4089400Y4610660D02*
D03*
Y4010660D02*
D03*
X4765040Y4610660D02*
D03*
Y4010660D02*
D03*
D41*
X9390660Y4475480D02*
D03*
X8790660D02*
D03*
D48*
X8638134Y5203012D02*
D03*
X9502140D02*
D03*
D49*
X8638134Y5621020D02*
D03*
X9502140D02*
D03*
D50*
X9360129Y5252999D02*
D03*
X8781136D02*
D03*
D51*
X8511540Y3380740D02*
D03*
Y4100740D02*
D03*
X4348352Y3380740D02*
D03*
Y4100740D02*
D03*
X342900Y4091940D02*
D03*
Y3371940D02*
D03*
X4506088D02*
D03*
Y4091940D02*
D03*
%TF.MD5,7afaa0b65b30eafe6756c5cf7af7fd3e*%
M02*
