%TF.GenerationSoftware,Altium Limited,Altium Designer,24.0.1 (36)*%
G04 Layer_Color=8421504*
%FSLAX45Y45*%
%MOMM*%
%TF.SameCoordinates,C70C49FB-F700-4022-ADB5-B9B597CAE3A5*%
%TF.FilePolarity,Positive*%
%TF.FileFunction,Paste,Top*%
%TF.Part,Single*%
G01*
G75*
%TA.AperFunction,SMDPad,CuDef*%
%ADD40R,3.20000X1.65000*%
%ADD41R,1.65000X3.20000*%
G36*
X9505871Y5710880D02*
X9508353Y5710634D01*
X9510819Y5710263D01*
X9513260Y5709768D01*
X9515673Y5709150D01*
X9518061Y5708419D01*
X9520403Y5707563D01*
X9522696Y5706598D01*
X9524944Y5705513D01*
X9527131Y5704324D01*
X9529260Y5703024D01*
X9531320Y5701619D01*
X9533308Y5700111D01*
X9535221Y5698510D01*
X9537047Y5696816D01*
X9538785Y5695028D01*
X9540441Y5693161D01*
X9541993Y5691213D01*
X9543445Y5689191D01*
X9544797Y5687090D01*
X9546044Y5684937D01*
X9547184Y5682717D01*
X9548208Y5680443D01*
X9549120Y5678124D01*
X9549910Y5675760D01*
X9550588Y5673362D01*
X9551147Y5670931D01*
X9551576Y5668475D01*
X9551886Y5666001D01*
X9552071Y5663517D01*
X9552135Y5661022D01*
Y5581020D01*
X9552071Y5578528D01*
X9551886Y5576044D01*
X9551576Y5573568D01*
X9551147Y5571112D01*
X9550588Y5568683D01*
X9549910Y5566286D01*
X9549120Y5563921D01*
X9548208Y5561599D01*
X9547184Y5559326D01*
X9546044Y5557109D01*
X9544797Y5554947D01*
X9543445Y5552854D01*
X9541993Y5550830D01*
X9540441Y5548881D01*
X9538785Y5547009D01*
X9537047Y5545226D01*
X9535221Y5543535D01*
X9533308Y5541927D01*
X9531320Y5540423D01*
X9529260Y5539019D01*
X9527131Y5537718D01*
X9524944Y5536524D01*
X9522696Y5535445D01*
X9520403Y5534475D01*
X9518061Y5533624D01*
X9515673Y5532887D01*
X9513260Y5532275D01*
X9510819Y5531780D01*
X9508353Y5531411D01*
X9505871Y5531157D01*
X9503385Y5531035D01*
X9500890D01*
X9498396Y5531157D01*
X9495914Y5531411D01*
X9493451Y5531780D01*
X9491010Y5532275D01*
X9488594Y5532887D01*
X9486214Y5533624D01*
X9483867Y5534475D01*
X9481571Y5535445D01*
X9479321Y5536524D01*
X9477134Y5537718D01*
X9475010Y5539019D01*
X9472948Y5540423D01*
X9470961Y5541927D01*
X9469049Y5543535D01*
X9467223Y5545226D01*
X9465485Y5547009D01*
X9463834Y5548881D01*
X9462277Y5550830D01*
X9460819Y5552854D01*
X9459468Y5554947D01*
X9458223Y5557109D01*
X9457085Y5559326D01*
X9456062Y5561599D01*
X9455150Y5563921D01*
X9454355Y5566286D01*
X9453682Y5568683D01*
X9453128Y5571112D01*
X9452694Y5573568D01*
X9452381Y5576044D01*
X9452196Y5578528D01*
X9452135Y5581020D01*
Y5661022D01*
X9452196Y5663517D01*
X9452381Y5666001D01*
X9452694Y5668475D01*
X9453128Y5670931D01*
X9453682Y5673362D01*
X9454355Y5675760D01*
X9455150Y5678124D01*
X9456062Y5680443D01*
X9457085Y5682717D01*
X9458223Y5684937D01*
X9459468Y5687090D01*
X9460819Y5689191D01*
X9462277Y5691213D01*
X9463834Y5693161D01*
X9465485Y5695028D01*
X9467223Y5696816D01*
X9469049Y5698510D01*
X9470961Y5700111D01*
X9472948Y5701619D01*
X9475010Y5703024D01*
X9477134Y5704324D01*
X9479321Y5705513D01*
X9481571Y5706598D01*
X9483867Y5707563D01*
X9486214Y5708419D01*
X9488594Y5709150D01*
X9491010Y5709768D01*
X9493451Y5710263D01*
X9495914Y5710634D01*
X9498396Y5710880D01*
X9500890Y5711007D01*
X9503385D01*
X9505871Y5710880D01*
D02*
G37*
G36*
X8641862D02*
X8644344Y5710634D01*
X8646808Y5710263D01*
X8649251Y5709768D01*
X8651669Y5709150D01*
X8654049Y5708419D01*
X8656396Y5707563D01*
X8658692Y5706598D01*
X8660943Y5705513D01*
X8663125Y5704324D01*
X8665253Y5703024D01*
X8667316Y5701619D01*
X8669302Y5700111D01*
X8671215Y5698510D01*
X8673038Y5696816D01*
X8674778Y5695028D01*
X8676434Y5693161D01*
X8677984Y5691213D01*
X8679444Y5689191D01*
X8680793Y5687090D01*
X8682037Y5684937D01*
X8683178Y5682717D01*
X8684199Y5680443D01*
X8685111Y5678124D01*
X8685908Y5675760D01*
X8686582Y5673362D01*
X8687135Y5670931D01*
X8687570Y5668475D01*
X8687877Y5666001D01*
X8688067Y5663517D01*
X8688126Y5661022D01*
Y5581020D01*
X8688067Y5578528D01*
X8687877Y5576044D01*
X8687570Y5573568D01*
X8687135Y5571112D01*
X8686582Y5568683D01*
X8685908Y5566286D01*
X8685111Y5563921D01*
X8684199Y5561599D01*
X8683178Y5559326D01*
X8682037Y5557109D01*
X8680793Y5554947D01*
X8679444Y5552854D01*
X8677984Y5550830D01*
X8676434Y5548881D01*
X8674778Y5547009D01*
X8673038Y5545226D01*
X8671215Y5543535D01*
X8669302Y5541927D01*
X8667316Y5540423D01*
X8665253Y5539019D01*
X8663125Y5537718D01*
X8660943Y5536524D01*
X8658692Y5535445D01*
X8656396Y5534475D01*
X8654049Y5533624D01*
X8651669Y5532887D01*
X8649251Y5532275D01*
X8646808Y5531780D01*
X8644344Y5531411D01*
X8641862Y5531157D01*
X8639373Y5531035D01*
X8636884D01*
X8634390Y5531157D01*
X8631911Y5531411D01*
X8629444Y5531780D01*
X8627001Y5532275D01*
X8624590Y5532887D01*
X8622208Y5533624D01*
X8619861Y5534475D01*
X8617562Y5535445D01*
X8615317Y5536524D01*
X8613125Y5537718D01*
X8611004Y5539019D01*
X8608944Y5540423D01*
X8606955Y5541927D01*
X8605042Y5543535D01*
X8603214Y5545226D01*
X8601479Y5547009D01*
X8599823Y5548881D01*
X8598271Y5550830D01*
X8596815Y5552854D01*
X8595467Y5554947D01*
X8594214Y5557109D01*
X8593079Y5559326D01*
X8592053Y5561599D01*
X8591144Y5563921D01*
X8590351Y5566286D01*
X8589675Y5568683D01*
X8589122Y5571112D01*
X8588687Y5573568D01*
X8588375Y5576044D01*
X8588192Y5578528D01*
X8588129Y5581020D01*
Y5661022D01*
X8588192Y5663517D01*
X8588375Y5666001D01*
X8588687Y5668475D01*
X8589122Y5670931D01*
X8589675Y5673362D01*
X8590351Y5675760D01*
X8591144Y5678124D01*
X8592053Y5680443D01*
X8593079Y5682717D01*
X8594214Y5684937D01*
X8595467Y5687090D01*
X8596815Y5689191D01*
X8598271Y5691213D01*
X8599823Y5693161D01*
X8601479Y5695028D01*
X8603214Y5696816D01*
X8605042Y5698510D01*
X8606955Y5700111D01*
X8608944Y5701619D01*
X8611004Y5703024D01*
X8613125Y5704324D01*
X8615317Y5705513D01*
X8617562Y5706598D01*
X8619861Y5707563D01*
X8622208Y5708419D01*
X8624590Y5709150D01*
X8627001Y5709768D01*
X8629444Y5710263D01*
X8631911Y5710634D01*
X8634390Y5710880D01*
X8636884Y5711007D01*
X8639373D01*
X8641862Y5710880D01*
D02*
G37*
G36*
X9505871Y5307874D02*
X9508353Y5307627D01*
X9510819Y5307256D01*
X9513260Y5306764D01*
X9515673Y5306146D01*
X9518061Y5305412D01*
X9520403Y5304559D01*
X9522696Y5303594D01*
X9524944Y5302509D01*
X9527131Y5301318D01*
X9529260Y5300015D01*
X9531320Y5298610D01*
X9533308Y5297104D01*
X9535221Y5295504D01*
X9537047Y5293812D01*
X9538785Y5292021D01*
X9540441Y5290157D01*
X9541993Y5288206D01*
X9543445Y5286179D01*
X9544797Y5284084D01*
X9546044Y5281925D01*
X9547184Y5279713D01*
X9548208Y5277437D01*
X9549120Y5275118D01*
X9549910Y5272753D01*
X9550588Y5270350D01*
X9551147Y5267922D01*
X9551576Y5265471D01*
X9551886Y5262994D01*
X9552071Y5260505D01*
X9552135Y5258016D01*
Y5148014D01*
X9552071Y5145519D01*
X9551886Y5143035D01*
X9551576Y5140561D01*
X9551147Y5138103D01*
X9550588Y5135674D01*
X9549910Y5133276D01*
X9549120Y5130912D01*
X9548208Y5128593D01*
X9547184Y5126319D01*
X9546044Y5124099D01*
X9544797Y5121940D01*
X9543445Y5119845D01*
X9541993Y5117823D01*
X9540441Y5115875D01*
X9538785Y5114003D01*
X9537047Y5112220D01*
X9535221Y5110526D01*
X9533308Y5108926D01*
X9531320Y5107414D01*
X9529260Y5106010D01*
X9527131Y5104712D01*
X9524944Y5103523D01*
X9522696Y5102438D01*
X9520403Y5101473D01*
X9518061Y5100617D01*
X9515673Y5099886D01*
X9513260Y5099266D01*
X9510819Y5098773D01*
X9508353Y5098402D01*
X9505871Y5098151D01*
X9503385Y5098026D01*
X9500890D01*
X9498396Y5098151D01*
X9495914Y5098402D01*
X9493451Y5098773D01*
X9491010Y5099266D01*
X9488594Y5099886D01*
X9486214Y5100617D01*
X9483867Y5101473D01*
X9481571Y5102438D01*
X9479321Y5103523D01*
X9477134Y5104712D01*
X9475010Y5106010D01*
X9472948Y5107414D01*
X9470961Y5108926D01*
X9469049Y5110526D01*
X9467223Y5112220D01*
X9465485Y5114003D01*
X9463834Y5115875D01*
X9462277Y5117823D01*
X9460819Y5119845D01*
X9459468Y5121940D01*
X9458223Y5124099D01*
X9457085Y5126319D01*
X9456062Y5128593D01*
X9455150Y5130912D01*
X9454355Y5133276D01*
X9453682Y5135674D01*
X9453128Y5138103D01*
X9452694Y5140561D01*
X9452381Y5143035D01*
X9452196Y5145519D01*
X9452135Y5148014D01*
Y5258016D01*
X9452196Y5260505D01*
X9452381Y5262994D01*
X9452694Y5265471D01*
X9453128Y5267922D01*
X9453682Y5270350D01*
X9454355Y5272753D01*
X9455150Y5275118D01*
X9456062Y5277437D01*
X9457085Y5279713D01*
X9458223Y5281925D01*
X9459468Y5284084D01*
X9460819Y5286179D01*
X9462277Y5288206D01*
X9463834Y5290157D01*
X9465485Y5292021D01*
X9467223Y5293812D01*
X9469049Y5295504D01*
X9470961Y5297104D01*
X9472948Y5298610D01*
X9475010Y5300015D01*
X9477134Y5301318D01*
X9479321Y5302509D01*
X9481571Y5303594D01*
X9483867Y5304559D01*
X9486214Y5305412D01*
X9488594Y5306146D01*
X9491010Y5306764D01*
X9493451Y5307256D01*
X9495914Y5307627D01*
X9498396Y5307874D01*
X9500890Y5307998D01*
X9503385D01*
X9505871Y5307874D01*
D02*
G37*
G36*
X8641862D02*
X8644344Y5307627D01*
X8646808Y5307256D01*
X8649251Y5306764D01*
X8651669Y5306146D01*
X8654049Y5305412D01*
X8656396Y5304559D01*
X8658692Y5303594D01*
X8660943Y5302509D01*
X8663125Y5301318D01*
X8665253Y5300015D01*
X8667316Y5298610D01*
X8669302Y5297104D01*
X8671215Y5295504D01*
X8673038Y5293812D01*
X8674778Y5292021D01*
X8676434Y5290157D01*
X8677984Y5288206D01*
X8679444Y5286179D01*
X8680793Y5284084D01*
X8682037Y5281925D01*
X8683178Y5279713D01*
X8684199Y5277437D01*
X8685111Y5275118D01*
X8685908Y5272753D01*
X8686582Y5270350D01*
X8687135Y5267922D01*
X8687570Y5265471D01*
X8687877Y5262994D01*
X8688067Y5260505D01*
X8688126Y5258016D01*
Y5148014D01*
X8688067Y5145519D01*
X8687877Y5143035D01*
X8687570Y5140561D01*
X8687135Y5138103D01*
X8686582Y5135674D01*
X8685908Y5133276D01*
X8685111Y5130912D01*
X8684199Y5128593D01*
X8683178Y5126319D01*
X8682037Y5124099D01*
X8680793Y5121940D01*
X8679444Y5119845D01*
X8677984Y5117823D01*
X8676434Y5115875D01*
X8674778Y5114003D01*
X8673038Y5112220D01*
X8671215Y5110526D01*
X8669302Y5108926D01*
X8667316Y5107414D01*
X8665253Y5106010D01*
X8663125Y5104712D01*
X8660943Y5103523D01*
X8658692Y5102438D01*
X8656396Y5101473D01*
X8654049Y5100617D01*
X8651669Y5099886D01*
X8649251Y5099266D01*
X8646808Y5098773D01*
X8644344Y5098402D01*
X8641862Y5098151D01*
X8639373Y5098026D01*
X8636884D01*
X8634390Y5098151D01*
X8631911Y5098402D01*
X8629444Y5098773D01*
X8627001Y5099266D01*
X8624590Y5099886D01*
X8622208Y5100617D01*
X8619861Y5101473D01*
X8617562Y5102438D01*
X8615317Y5103523D01*
X8613125Y5104712D01*
X8611004Y5106010D01*
X8608944Y5107414D01*
X8606955Y5108926D01*
X8605042Y5110526D01*
X8603214Y5112220D01*
X8601479Y5114003D01*
X8599823Y5115875D01*
X8598271Y5117823D01*
X8596815Y5119845D01*
X8595467Y5121940D01*
X8594214Y5124099D01*
X8593079Y5126319D01*
X8592053Y5128593D01*
X8591144Y5130912D01*
X8590351Y5133276D01*
X8589675Y5135674D01*
X8589122Y5138103D01*
X8588687Y5140561D01*
X8588375Y5143035D01*
X8588192Y5145519D01*
X8588129Y5148014D01*
Y5258016D01*
X8588192Y5260505D01*
X8588375Y5262994D01*
X8588687Y5265471D01*
X8589122Y5267922D01*
X8589675Y5270350D01*
X8590351Y5272753D01*
X8591144Y5275118D01*
X8592053Y5277437D01*
X8593079Y5279713D01*
X8594214Y5281925D01*
X8595467Y5284084D01*
X8596815Y5286179D01*
X8598271Y5288206D01*
X8599823Y5290157D01*
X8601479Y5292021D01*
X8603214Y5293812D01*
X8605042Y5295504D01*
X8606955Y5297104D01*
X8608944Y5298610D01*
X8611004Y5300015D01*
X8613125Y5301318D01*
X8615317Y5302509D01*
X8617562Y5303594D01*
X8619861Y5304559D01*
X8622208Y5305412D01*
X8624590Y5306146D01*
X8627001Y5306764D01*
X8629444Y5307256D01*
X8631911Y5307627D01*
X8634390Y5307874D01*
X8636884Y5307998D01*
X8639373D01*
X8641862Y5307874D01*
D02*
G37*
G36*
X9420128Y5079032D02*
X9360129D01*
Y5203035D01*
X9420128D01*
Y5079032D01*
D02*
G37*
G36*
X9340129D02*
X9280124D01*
Y5203035D01*
X9340129D01*
Y5079032D01*
D02*
G37*
G36*
X9260126D02*
X9230124D01*
Y5203035D01*
X9260126D01*
Y5079032D01*
D02*
G37*
G36*
X9210126D02*
X9180124D01*
Y5203035D01*
X9210126D01*
Y5079032D01*
D02*
G37*
G36*
X9160126D02*
X9130121D01*
Y5203035D01*
X9160126D01*
Y5079032D01*
D02*
G37*
G36*
X9110121D02*
X9080122D01*
Y5203035D01*
X9110121D01*
Y5079032D01*
D02*
G37*
G36*
X9060122D02*
X9030127D01*
Y5203035D01*
X9060122D01*
Y5079032D01*
D02*
G37*
G36*
X9010129D02*
X8980129D01*
Y5203035D01*
X9010129D01*
Y5079032D01*
D02*
G37*
G36*
X8960129D02*
X8930129D01*
Y5203035D01*
X8960129D01*
Y5079032D01*
D02*
G37*
G36*
X8910129D02*
X8880130D01*
Y5203035D01*
X8910129D01*
Y5079032D01*
D02*
G37*
G36*
X8860130D02*
X8800127D01*
Y5203035D01*
X8860130D01*
Y5079032D01*
D02*
G37*
G36*
X8780127D02*
X8720127D01*
Y5203035D01*
X8780127D01*
Y5079032D01*
D02*
G37*
G36*
X10409921Y4202471D02*
X10334920D01*
Y4242471D01*
X10409921D01*
Y4202471D01*
D02*
G37*
G36*
Y4137447D02*
X10334920D01*
Y4177447D01*
X10409921D01*
Y4137447D01*
D02*
G37*
G36*
Y4072448D02*
X10334920D01*
Y4112448D01*
X10409921D01*
Y4072448D01*
D02*
G37*
G36*
X10409920Y4007449D02*
X10334920D01*
Y4047449D01*
X10409920D01*
Y4007449D01*
D02*
G37*
G36*
X9926770Y3997984D02*
X9906770D01*
Y4064484D01*
X9926770D01*
Y3997984D01*
D02*
G37*
G36*
X9886790D02*
X9866790D01*
Y4064484D01*
X9886790D01*
Y3997984D01*
D02*
G37*
G36*
X9846785D02*
X9826785D01*
Y4064484D01*
X9846785D01*
Y3997984D01*
D02*
G37*
G36*
X9806780D02*
X9786780D01*
Y4064484D01*
X9806780D01*
Y3997984D01*
D02*
G37*
G36*
X9766775D02*
X9746775D01*
Y4064484D01*
X9766775D01*
Y3997984D01*
D02*
G37*
G36*
X9726770D02*
X9706770D01*
Y4064484D01*
X9726770D01*
Y3997984D01*
D02*
G37*
G36*
X9686790D02*
X9666790D01*
Y4064484D01*
X9686790D01*
Y3997984D01*
D02*
G37*
G36*
X10659052Y4242450D02*
X10719105D01*
Y4202471D01*
X10659052D01*
Y4177449D01*
X10719105D01*
Y4137470D01*
X10659052D01*
Y4112450D01*
X10719105D01*
Y4072471D01*
X10659052D01*
Y4047449D01*
X10719105D01*
Y4007470D01*
X10659052D01*
Y3995420D01*
X10459052D01*
Y4255414D01*
X10659052D01*
Y4242450D01*
D02*
G37*
G36*
X10020785Y3950470D02*
X9954285D01*
Y3970470D01*
X10020785D01*
Y3950470D01*
D02*
G37*
G36*
X9639276D02*
X9572776D01*
Y3970470D01*
X9639276D01*
Y3950470D01*
D02*
G37*
G36*
X10020785Y3910490D02*
X9954285D01*
Y3930490D01*
X10020785D01*
Y3910490D01*
D02*
G37*
G36*
X9639276D02*
X9572776D01*
Y3930490D01*
X9639276D01*
Y3910490D01*
D02*
G37*
G36*
X10020785Y3870485D02*
X9954285D01*
Y3890485D01*
X10020785D01*
Y3870485D01*
D02*
G37*
G36*
X9639276D02*
X9572776D01*
Y3890485D01*
X9639276D01*
Y3870485D01*
D02*
G37*
G36*
X10020785Y3830480D02*
X9954285D01*
Y3850480D01*
X10020785D01*
Y3830480D01*
D02*
G37*
G36*
X9639276D02*
X9572776D01*
Y3850480D01*
X9639276D01*
Y3830480D01*
D02*
G37*
G36*
X10549849Y3919352D02*
Y3818600D01*
X10539849Y3808600D01*
X10503718D01*
X10493718Y3818600D01*
Y3839657D01*
X10483718Y3849657D01*
X10445882D01*
X10435882Y3839657D01*
Y3818600D01*
X10425882Y3808600D01*
X10389751D01*
X10379751Y3818600D01*
Y3919352D01*
X10389751Y3929352D01*
X10539849D01*
X10549849Y3919352D01*
D02*
G37*
G36*
X10020785Y3790475D02*
X9954285D01*
Y3810475D01*
X10020785D01*
Y3790475D01*
D02*
G37*
G36*
X9639276D02*
X9572776D01*
Y3810475D01*
X9639276D01*
Y3790475D01*
D02*
G37*
G36*
X10020785Y3750470D02*
X9954285D01*
Y3770470D01*
X10020785D01*
Y3750470D01*
D02*
G37*
G36*
X9639276D02*
X9572776D01*
Y3770470D01*
X9639276D01*
Y3750470D01*
D02*
G37*
G36*
X9904786Y3732479D02*
X9688782D01*
Y3948481D01*
X9904786D01*
Y3732479D01*
D02*
G37*
G36*
X10020785Y3710490D02*
X9954285D01*
Y3730490D01*
X10020785D01*
Y3710490D01*
D02*
G37*
G36*
X9639276D02*
X9572776D01*
Y3730490D01*
X9639276D01*
Y3710490D01*
D02*
G37*
G36*
X9926770Y3616475D02*
X9906770D01*
Y3682975D01*
X9926770D01*
Y3616475D01*
D02*
G37*
G36*
X9886790D02*
X9866790D01*
Y3682975D01*
X9886790D01*
Y3616475D01*
D02*
G37*
G36*
X9846785D02*
X9826785D01*
Y3682975D01*
X9846785D01*
Y3616475D01*
D02*
G37*
G36*
X9806780D02*
X9786780D01*
Y3682975D01*
X9806780D01*
Y3616475D01*
D02*
G37*
G36*
X9766775D02*
X9746775D01*
Y3682975D01*
X9766775D01*
Y3616475D01*
D02*
G37*
G36*
X9726770D02*
X9706770D01*
Y3682975D01*
X9726770D01*
Y3616475D01*
D02*
G37*
G36*
X9686790D02*
X9666790D01*
Y3682975D01*
X9686790D01*
Y3616475D01*
D02*
G37*
G36*
X10549849Y3623600D02*
Y3522848D01*
X10539849Y3512848D01*
X10389751D01*
X10379751Y3522848D01*
Y3623600D01*
X10389751Y3633600D01*
X10425882D01*
X10435882Y3623600D01*
Y3602543D01*
X10445882Y3592543D01*
X10483718D01*
X10493718Y3602543D01*
Y3623600D01*
X10503718Y3633600D01*
X10539849D01*
X10549849Y3623600D01*
D02*
G37*
D40*
X601980Y4010660D02*
D03*
Y4610660D02*
D03*
X8252460D02*
D03*
Y4010660D02*
D03*
X4089400Y4610660D02*
D03*
Y4010660D02*
D03*
X4765040Y4610660D02*
D03*
Y4010660D02*
D03*
D41*
X9390660Y4475480D02*
D03*
X8790660D02*
D03*
%TF.MD5,883c8ccc69dfdf9c9cb5f2c61f4c129d*%
M02*
