%TF.GenerationSoftware,Altium Limited,Altium Designer,24.0.1 (36)*%
G04 Layer_Color=16711935*
%FSLAX45Y45*%
%MOMM*%
%TF.SameCoordinates,C70C49FB-F700-4022-ADB5-B9B597CAE3A5*%
%TF.FilePolarity,Negative*%
%TF.FileFunction,Soldermask,Bot*%
%TF.Part,Single*%
G01*
G75*
%TA.AperFunction,ComponentPad*%
%ADD48O,1.00000X2.10000*%
%ADD49O,1.00000X1.80000*%
%ADD50C,0.65000*%
G04:AMPARAMS|DCode=51|XSize=4mm|YSize=1mm|CornerRadius=0.25mm|HoleSize=0mm|Usage=FLASHONLY|Rotation=90.000|XOffset=0mm|YOffset=0mm|HoleType=Round|Shape=RoundedRectangle|*
%AMROUNDEDRECTD51*
21,1,4.00000,0.50000,0,0,90.0*
21,1,3.50000,1.00000,0,0,90.0*
1,1,0.50000,0.25000,1.75000*
1,1,0.50000,0.25000,-1.75000*
1,1,0.50000,-0.25000,-1.75000*
1,1,0.50000,-0.25000,1.75000*
%
%ADD51ROUNDEDRECTD51*%
%TA.AperFunction,SMDPad,CuDef*%
%ADD53R,3.00000X2.10000*%
%ADD54R,6.10000X6.10000*%
%TA.AperFunction,NonConductor*%
%ADD63R,12.00000X6.00000*%
G36*
X8448040Y4554220D02*
X8422640Y4528820D01*
X8079740D01*
X8054341Y4554220D01*
X4963159D01*
X4937760Y4528820D01*
X4592320D01*
X4566920Y4554220D01*
X4290060D01*
X4264660Y4528820D01*
X3916680D01*
X3891280Y4554220D01*
Y4556760D01*
X800099D01*
X772159Y4528820D01*
X312420D01*
X246380Y4594860D01*
Y5125520D01*
X437080Y5125520D01*
X482600Y5080000D01*
X1102360D01*
X1155700Y5133340D01*
Y5384800D01*
X8448040D01*
X8448040Y4554220D01*
D02*
G37*
G36*
X9862820Y5019040D02*
X9898379Y4983480D01*
X9898380Y4734560D01*
X9870440Y4706620D01*
X8930640D01*
X8882380Y4658360D01*
Y4343400D01*
X8859522Y4320541D01*
X8559801Y4320538D01*
X8481060Y4399280D01*
Y4955540D01*
X8544560Y5019040D01*
X9862820Y5019040D01*
D02*
G37*
G36*
X8571482Y4278377D02*
Y3892802D01*
X8529320Y3850639D01*
X8102600Y3850640D01*
X8067040Y3886200D01*
Y4064000D01*
X8094980Y4091940D01*
X8409941D01*
X8430260Y4112259D01*
X8430260Y4279901D01*
X8453121Y4302760D01*
X8547101D01*
X8571482Y4278377D01*
D02*
G37*
G36*
X4587240Y4279901D02*
X4587240Y4112259D01*
X4607559Y4091940D01*
X4922520D01*
X4950460Y4064000D01*
Y3886200D01*
X4914900Y3850640D01*
X4488180Y3850639D01*
X4446018Y3892802D01*
Y4278377D01*
X4470399Y4302760D01*
X4564379D01*
X4587240Y4279901D01*
D02*
G37*
G36*
X4408422Y4278377D02*
Y3892802D01*
X4366260Y3850639D01*
X3939540Y3850640D01*
X3903980Y3886200D01*
Y4064000D01*
X3931920Y4091940D01*
X4246881D01*
X4267200Y4112259D01*
X4267200Y4279901D01*
X4290061Y4302760D01*
X4384041D01*
X4408422Y4278377D01*
D02*
G37*
G36*
X424180Y4279901D02*
X424180Y4112259D01*
X444499Y4091940D01*
X759460D01*
X787400Y4064000D01*
Y3886200D01*
X751840Y3850640D01*
X325120Y3850639D01*
X282958Y3892802D01*
Y4278377D01*
X307339Y4302760D01*
X401319D01*
X424180Y4279901D01*
D02*
G37*
G36*
X7960541Y2813940D02*
X7975780Y2798700D01*
X7975780Y2328800D01*
X7947840Y2300860D01*
X7701460D01*
X7681141Y2321180D01*
X7681140Y2796160D01*
X7698921Y2813941D01*
X7960541Y2813940D01*
D02*
G37*
G36*
X3795461D02*
X3810700Y2798700D01*
X3810700Y2328800D01*
X3782760Y2300860D01*
X3536380D01*
X3516061Y2321180D01*
X3516060Y2796160D01*
X3533841Y2813941D01*
X3795461Y2813940D01*
D02*
G37*
G36*
X5004980Y3543300D02*
Y2200820D01*
X4968240Y2164080D01*
X4479200D01*
X4451260Y2192020D01*
Y3553460D01*
X4494440Y3596640D01*
X4951640Y3596640D01*
X5004980Y3543300D01*
D02*
G37*
G36*
X4401960Y3553460D02*
Y2184540D01*
X4378960Y2161540D01*
X3870960D01*
X3848100Y2184400D01*
Y3543160D01*
X3901580Y3596640D01*
X4358780D01*
X4401960Y3553460D01*
D02*
G37*
G36*
X10839639Y4654361D02*
Y2206179D01*
X10751820Y2118360D01*
X9776460Y2118359D01*
X9745980Y2148840D01*
Y2644140D01*
X9771380Y2669540D01*
X10203180D01*
X10340340Y2806700D01*
Y4653280D01*
X10378440Y4691380D01*
X10802620D01*
X10839639Y4654361D01*
D02*
G37*
G36*
X5338519Y2532380D02*
Y2117799D01*
X5323840Y2103120D01*
X5067300D01*
X5043879Y2126542D01*
X5043880Y2524760D01*
X5071820Y2552700D01*
X5318200D01*
X5338519Y2532380D01*
D02*
G37*
G36*
X1173479D02*
X1173480Y2057400D01*
X1155699Y2039619D01*
X894079Y2039620D01*
X878840Y2054861D01*
X878840Y2524760D01*
X906780Y2552700D01*
X1153160D01*
X1173479Y2532380D01*
D02*
G37*
G36*
X841300Y3543300D02*
Y2037640D01*
X820420Y2016760D01*
X469900D01*
X447600Y2039060D01*
Y2143760D01*
X427280Y2164080D01*
X315520D01*
X287580Y2192020D01*
Y3553460D01*
X330760Y3596640D01*
X787960Y3596640D01*
X841300Y3543300D01*
D02*
G37*
G36*
X8565860Y3553460D02*
Y2192020D01*
Y2044840D01*
X8537780Y2016760D01*
X8179637D01*
X8156780Y2039617D01*
Y2133600D01*
X8128840Y2161540D01*
X8034860D01*
X8012000Y2184400D01*
Y3543160D01*
X8065480Y3596640D01*
X8522680D01*
X8565860Y3553460D01*
D02*
G37*
G36*
X10660380Y1612900D02*
X10660379Y1341120D01*
X10619740Y1300480D01*
X9779000Y1300480D01*
X9748520Y1330960D01*
Y1623060D01*
X9781540Y1656080D01*
X10617200D01*
X10660380Y1612900D01*
D02*
G37*
G36*
X8010161Y1953260D02*
X8513081D01*
X8551180Y1915160D01*
Y1455420D01*
X8534293Y1438533D01*
X8431213D01*
X8406400Y1413720D01*
Y1310640D01*
X8429260Y1287780D01*
X8534400D01*
X8551180Y1271000D01*
Y678180D01*
X261631D01*
Y1259851D01*
X289560Y1287780D01*
X426720Y1287780D01*
X449580Y1310640D01*
Y1413720D01*
X424768Y1438533D01*
X321687D01*
X304800Y1455420D01*
Y1915160D01*
X342900Y1953260D01*
X845820D01*
X861060Y1968500D01*
X995680D01*
X1010920Y1953260D01*
X1010920Y1605280D01*
X988751Y1583111D01*
X879531D01*
X858520Y1562100D01*
Y1305560D01*
X840740Y1287780D01*
X840740D01*
X858520Y1305560D01*
X962280Y1201800D01*
X3729800D01*
X3833560Y1305560D01*
X3851340Y1287780D01*
X3851340D01*
X3833560Y1305560D01*
Y1562100D01*
X3812549Y1583111D01*
X3703329D01*
X3681160Y1605280D01*
Y1928560D01*
X3705859Y1953260D01*
X5009500D01*
X5148581Y1953259D01*
X5174599Y1927240D01*
X5174600Y1605280D01*
X5152431Y1583111D01*
X5043211D01*
X5022200Y1562100D01*
Y1305560D01*
X5004420Y1287780D01*
X5004420D01*
X5022200Y1305560D01*
X5125960Y1201800D01*
X7893700D01*
X7997461Y1305560D01*
X7997460D01*
Y1562100D01*
X7976449Y1583111D01*
X7867229D01*
X7845060Y1605280D01*
X7845061Y1953260D01*
X7860301Y1968500D01*
X7994920D01*
X8010161Y1953260D01*
D02*
G37*
G36*
X10622280Y838200D02*
X10660380Y800100D01*
Y528320D01*
X10660380D01*
X10614660Y482600D01*
X9766300D01*
X9740900Y508000D01*
Y812800D01*
X9766300Y838200D01*
X10622280Y838200D01*
Y838200D01*
D02*
G37*
%LPC*%
G36*
X4588447Y1438533D02*
X4267313D01*
X4242500Y1413720D01*
Y1287780D01*
D01*
X4242500Y1228660D01*
X4269360Y1201800D01*
X4585080D01*
X4613260Y1229980D01*
Y1287780D01*
Y1294046D01*
D01*
Y1413720D01*
X4588447Y1438533D01*
D02*
G37*
%LPD*%
D48*
X8638134Y5203012D02*
D03*
X9502140D02*
D03*
D49*
X8638134Y5621020D02*
D03*
X9502140D02*
D03*
D50*
X9360129Y5252999D02*
D03*
X8781136D02*
D03*
D51*
X8511540Y3380740D02*
D03*
Y4100740D02*
D03*
X4348352Y3380740D02*
D03*
Y4100740D02*
D03*
X342900Y4091940D02*
D03*
Y3371940D02*
D03*
X4506088D02*
D03*
Y4091940D02*
D03*
D53*
X10508300Y4524440D02*
D03*
Y4105440D02*
D03*
Y3686440D02*
D03*
Y3267440D02*
D03*
X10088300D02*
D03*
Y3686440D02*
D03*
Y4105440D02*
D03*
Y4524440D02*
D03*
D54*
X787400Y5445760D02*
D03*
X10322560Y5435600D02*
D03*
D63*
X6478980Y3514280D02*
D03*
X2348940Y3508020D02*
D03*
%TF.MD5,475254c919d728f0ba9b40d1c24a1e63*%
M02*
