%TF.GenerationSoftware,Altium Limited,Altium Designer,24.0.1 (36)*%
G04 Layer_Color=16711935*
%FSLAX45Y45*%
%MOMM*%
%TF.SameCoordinates,70CE7508-0984-45A8-9E2F-B4D31F6828AB*%
%TF.FilePolarity,Negative*%
%TF.FileFunction,Soldermask,Bot*%
%TF.Part,Single*%
G01*
G75*
%TA.AperFunction,ComponentPad*%
%ADD12C,2.10000*%
%ADD13R,2.10000X2.10000*%
%TA.AperFunction,NonConductor*%
%ADD18R,12.00000X6.00000*%
G36*
X8198040Y4554185D02*
X8172640Y4528785D01*
X7829740D01*
X7804340Y4554185D01*
X4713159D01*
X4687760Y4528785D01*
X4342320D01*
X4316920Y4554185D01*
X4040060D01*
X4014660Y4528785D01*
X3666680D01*
X3641280Y4554185D01*
Y4556725D01*
X550099D01*
X522159Y4528785D01*
X62420D01*
X-3620Y4594825D01*
Y5125485D01*
X187080Y5125485D01*
X232600Y5079965D01*
X759425D01*
X905700Y5226240D01*
X905700Y5384765D01*
X8198040D01*
X8198040Y4554185D01*
D02*
G37*
G36*
X9612820Y5019005D02*
X9648379Y4983445D01*
X9648380Y4734525D01*
X9620440Y4706585D01*
X8680640D01*
X8632380Y4658325D01*
Y4343365D01*
X8609522Y4320506D01*
X8309801Y4320503D01*
X8231060Y4399245D01*
Y4955505D01*
X8294560Y5019005D01*
X9612820Y5019005D01*
D02*
G37*
G36*
X8321482Y4278342D02*
Y3892767D01*
X8279320Y3850604D01*
X7852600Y3850605D01*
X7817040Y3886165D01*
Y4063965D01*
X7844980Y4091905D01*
X8159941D01*
X8180260Y4112224D01*
X8180260Y4279865D01*
X8203120Y4302725D01*
X8297101D01*
X8321482Y4278342D01*
D02*
G37*
G36*
X4337240Y4279865D02*
X4337240Y4112224D01*
X4357559Y4091905D01*
X4672520D01*
X4700460Y4063965D01*
Y3886165D01*
X4664900Y3850605D01*
X4238180Y3850604D01*
X4196018Y3892767D01*
Y4278342D01*
X4220399Y4302725D01*
X4314379D01*
X4337240Y4279865D01*
D02*
G37*
G36*
X4158422Y4278342D02*
Y3892767D01*
X4116260Y3850604D01*
X3689540Y3850605D01*
X3653980Y3886165D01*
Y4063965D01*
X3681920Y4091905D01*
X3996881D01*
X4017200Y4112224D01*
X4017200Y4279865D01*
X4040060Y4302725D01*
X4134041D01*
X4158422Y4278342D01*
D02*
G37*
G36*
X174180Y4279865D02*
X174180Y4112224D01*
X194499Y4091905D01*
X509460D01*
X537400Y4063965D01*
Y3886165D01*
X501840Y3850605D01*
X75120Y3850604D01*
X32958Y3892767D01*
Y4278342D01*
X57339Y4302725D01*
X151319D01*
X174180Y4279865D01*
D02*
G37*
G36*
X7710541Y2813905D02*
X7725780Y2798664D01*
X7725780Y2328765D01*
X7697840Y2300825D01*
X7451460D01*
X7431141Y2321145D01*
X7431140Y2796125D01*
X7448921Y2813905D01*
X7710541Y2813905D01*
D02*
G37*
G36*
X3545461D02*
X3560700Y2798664D01*
X3560700Y2328765D01*
X3532760Y2300825D01*
X3286380D01*
X3266061Y2321145D01*
X3266060Y2796125D01*
X3283841Y2813905D01*
X3545461Y2813905D01*
D02*
G37*
G36*
X4754980Y3543265D02*
Y2200785D01*
X4718240Y2164045D01*
X4229200D01*
X4201260Y2191985D01*
Y3553425D01*
X4244440Y3596605D01*
X4701640Y3596605D01*
X4754980Y3543265D01*
D02*
G37*
G36*
X4151960Y3553425D02*
Y2194664D01*
X4118799Y2161505D01*
X3626040D01*
X3598100Y2189445D01*
Y3543125D01*
X3651580Y3596605D01*
X4108780D01*
X4151960Y3553425D01*
D02*
G37*
G36*
X10589639Y2595501D02*
Y2206144D01*
X10501819Y2118324D01*
X9526460Y2118325D01*
X9495980Y2148805D01*
Y2644105D01*
X9521380Y2669505D01*
X10515635D01*
X10589639Y2595501D01*
D02*
G37*
G36*
X5088519Y2532345D02*
Y2117764D01*
X5073840Y2103085D01*
X4817300D01*
X4793879Y2126507D01*
X4793880Y2524725D01*
X4821820Y2552665D01*
X5068200D01*
X5088519Y2532345D01*
D02*
G37*
G36*
X923479D02*
X923480Y2057365D01*
X905699Y2039584D01*
X644079Y2039585D01*
X628840Y2054825D01*
X628840Y2524725D01*
X656780Y2552665D01*
X903160D01*
X923479Y2532345D01*
D02*
G37*
G36*
X591300Y3543265D02*
Y2037605D01*
X570420Y2016725D01*
X219900D01*
X197600Y2039025D01*
Y2143725D01*
X177280Y2164045D01*
X65520D01*
X37580Y2191985D01*
Y3553425D01*
X80760Y3596605D01*
X537960Y3596605D01*
X591300Y3543265D01*
D02*
G37*
G36*
X8315860Y3553425D02*
Y2191985D01*
Y2044805D01*
X8287780Y2016725D01*
X7929637D01*
X7906780Y2039582D01*
Y2133565D01*
X7878840Y2161505D01*
X7784860D01*
X7762000Y2184365D01*
Y3543125D01*
X7815480Y3596605D01*
X8272680D01*
X8315860Y3553425D01*
D02*
G37*
G36*
X10410380Y1612865D02*
X10410379Y1341085D01*
X10369740Y1300445D01*
X9529000Y1300445D01*
X9498520Y1330925D01*
Y1623025D01*
X9531540Y1656045D01*
X10367200D01*
X10410380Y1612865D01*
D02*
G37*
G36*
X7760161Y1953225D02*
X8263081D01*
X8301180Y1915125D01*
Y1455385D01*
X8284293Y1438498D01*
X8181213D01*
X8156400Y1413685D01*
Y1310605D01*
X8179260Y1287745D01*
X8284400D01*
X8301180Y1270965D01*
Y678145D01*
X11631D01*
Y1259816D01*
X39560Y1287745D01*
X176720Y1287745D01*
X199580Y1310605D01*
Y1413685D01*
X174767Y1438498D01*
X71687D01*
X54800Y1455385D01*
Y1915125D01*
X92900Y1953225D01*
X595820D01*
X611060Y1968465D01*
X745680D01*
X760920Y1953225D01*
X760920Y1605245D01*
X738751Y1583076D01*
X629531D01*
X608520Y1562065D01*
Y1305525D01*
X590740Y1287745D01*
X590740D01*
X608520Y1305525D01*
X712280Y1201765D01*
X3479800D01*
X3583560Y1305525D01*
X3601340Y1287745D01*
X3601340D01*
X3583560Y1305525D01*
Y1562065D01*
X3562549Y1583076D01*
X3453329D01*
X3431160Y1605245D01*
Y1928524D01*
X3455859Y1953225D01*
X4759499D01*
X4898580Y1953224D01*
X4924599Y1927205D01*
X4924600Y1605245D01*
X4902431Y1583076D01*
X4793211D01*
X4772200Y1562065D01*
Y1305525D01*
X4754420Y1287745D01*
X4754420D01*
X4772200Y1305525D01*
X4875960Y1201765D01*
X7643700D01*
X7747461Y1305525D01*
X7747460D01*
Y1562065D01*
X7726449Y1583076D01*
X7617229D01*
X7595060Y1605245D01*
X7595061Y1953225D01*
X7610301Y1968465D01*
X7744920D01*
X7760161Y1953225D01*
D02*
G37*
G36*
X0Y1231591D02*
Y678145D01*
X-102680D01*
Y1145505D01*
X-11733Y1236452D01*
X0Y1231591D01*
D02*
G37*
G36*
X10372280Y838165D02*
X10410380Y800065D01*
Y528285D01*
X10410380D01*
X10364660Y482565D01*
X9516300D01*
X9490900Y507965D01*
Y812765D01*
X9516300Y838165D01*
X10372280Y838165D01*
Y838165D01*
D02*
G37*
%LPC*%
G36*
X4338447Y1438498D02*
X4017313D01*
X3992500Y1413685D01*
Y1287745D01*
D01*
X3992500Y1228625D01*
X4019360Y1201765D01*
X4335080D01*
X4363260Y1229944D01*
Y1287745D01*
Y1294011D01*
D01*
Y1413685D01*
X4338447Y1438498D01*
D02*
G37*
%LPD*%
D12*
X10231120Y4104540D02*
D03*
Y4523540D02*
D03*
Y3266540D02*
D03*
Y3685540D02*
D03*
X9867120Y4104540D02*
D03*
Y3685540D02*
D03*
Y4523540D02*
D03*
D13*
Y3266540D02*
D03*
D18*
X2098940Y3507985D02*
D03*
X6228980Y3514245D02*
D03*
%TF.MD5,4196c37ac9bbee538be8b1a610d5028d*%
M02*
