M48
;Layer_Color=9474304
;FILE_FORMAT=4:4
METRIC,LZ
;TYPE=PLATED
T01F00S00C0.3000
T02F00S00C1.4000
%
T01
X00012846Y00098294
X00022498Y00107947
X00012846Y00117598
X0003215
X00041802Y00107947
X00051454Y00117598
X00061106Y00107947
X00070758Y00117598
X00090062
X0008041Y00107947
X00070758Y00098294
X00090062
X00099714Y00107947
X00109366Y00117598
Y00098294
X00119018Y00107947
X0012867Y00117598
X00138322Y00107947
X00147974Y00098294
Y00117598
X00157626Y00107947
X00167278Y00098294
Y00117598
X00186582
X0017693Y00107947
X00186582Y00098294
X00196234Y00107947
X00205886Y00117598
X00215538Y00107947
X00205886Y00098294
X0022519
Y00117598
X00244494
X00234842Y00107947
X00254146
X00263798Y00117598
X0027345Y00107947
X00283102Y00117598
X00302406
X00292754Y00107947
X00312058
X0032171Y00117598
X00331362Y00107947
X00341014Y00117598
X00350666Y00107947
X00360318Y00117598
X00379622
X0036997Y00107947
X00379622Y00098294
X00360318
X0036997Y00088643
X00389274
Y00107947
X00389252Y00151342
X00384426Y00156168
Y00165821
Y00175473
X003796Y00180299
X00384426Y00185124
X00389252Y00189951
X00394078Y00185124
X00389252Y00180299
X00394078Y00175473
X00389252Y00170646
X003796
X00374774Y00175473
Y00185124
X003796Y00189951
X00369948
X00360296
X00365122Y00185124
X00369948Y00180299
X00360296
Y00170646
X00365122Y00175473
X00369948Y00170646
X00374774Y00165821
X00365122
X00360296Y00160994
X00369948
Y00151342
X00365122Y00156168
X00360296Y00151342
X00374774Y00156168
X003796Y00151342
Y00160994
X00389252
X00394078Y00165821
Y00156168
X00393408Y00225294
X00383756
X00374104
X00364452
Y00234946
X00369278Y00230121
X0037893
X00383756Y00234946
X00393408
X00388582Y00230121
Y00239772
X0037893
X00369278
X00364452Y00244599
X00369278Y00249424
X00374104Y00254251
X00383756
Y00244599
X00393408
X00388582Y00249424
X0037893
X00374104Y00244599
Y00234946
X0037893Y00259076
X00383756Y00263902
X00393408
Y00254251
X00388582Y00259076
Y00268729
X00393408Y00273554
Y00283207
Y00292859
X00388582Y00297684
X0037893
X00369278
X00364452Y00302511
X00374104
Y00292859
X0037893Y00288032
X00383756Y00283207
X00388582Y00288032
X00383756Y00292859
Y00302511
X00393408
Y00312162
Y00321814
Y00331466
Y00341119
X00388582Y00336292
X0037893
X00369278
X00364452Y00341119
Y00331466
X00374104
X00383756
Y00341119
X00388582Y00345945
Y00355597
X0037893
X00369278
X00364452Y0035077
X00374104
Y00341119
X0037893Y00345945
X00383756Y0035077
X00393408
X00388582Y00326641
X00383756Y00321814
X0037893Y00326641
X00369278
X00374104Y00321814
X0037893Y00316989
X00388582
Y00307337
X0037893
X00374104Y00312162
X00369278Y00316989
X00364452Y00321814
Y00312162
X00369278Y00307337
Y00288032
X00374104Y00283207
X0037893Y00278381
X00388582
X00383756Y00273554
X00374104
Y00263902
X00369278Y00259076
X00364452Y00254251
Y00263902
X00369278Y00268729
Y00278381
X00364452Y00283207
Y00292859
Y00273554
X00352768Y00272397
Y00277222
X00347942
Y00272397
Y0026757
X00343116
Y00262745
X0033829
X00333464
X00328638
Y00257918
Y00253092
Y00248267
Y0024344
X00333464
Y00238615
X00328638
Y00233789
X00333464
X0033829
X00343116
Y00238615
X0033829
Y0024344
Y00248267
X00333464
Y00253092
Y00257918
X0033829
X00343116
Y00253092
Y00248267
Y0024344
X0033829Y00253092
Y0026757
Y00272397
X00333464
X00328638
Y00277222
X00333464
X0033829
X00343116
Y00272397
X00333464Y0026757
X00328638
X00352768
X0037893Y00268729
X00383756Y00312162
X00369278Y00345945
X00370478Y00387601
X00375304
Y00392426
X0038013
X00384956
X00389782
X00394608
Y00387601
X00389782
X00384956
X0038013
X00370478Y00392426
X0025821Y00360168
X00248558
X00238906
Y00350517
Y00340864
X00243732Y00336039
Y00326386
Y00316735
Y00307083
Y0029743
Y00287778
Y00278127
Y00268475
X00248558Y002733
X00253384Y00278127
X0025821Y002733
Y00282952
X00248558
X00238906
Y002733
Y00263648
X00248558
X0025821
X00253384Y00268475
Y00287778
Y0029743
X00248558Y00292605
X00238906
Y00302257
X00248558
X0025821
Y00292605
Y00311908
X00253384Y00316735
X00248558Y00311908
X00238906
Y00321561
X00248558
X0025821
Y00331213
X00253384Y00336039
X00248558Y00331213
X00238906
X00248558Y00340864
X0025821
X00253384Y0034569
X0025821Y00350517
X00248558
X00243732Y00355342
X00253384
X00243732Y0034569
X00253384Y00326386
Y00307083
X00183534Y00302511
X00178708Y00297684
X00169056
X0016423Y00302511
X00173882
Y00292859
Y00283207
X00169056Y00278381
X0016423Y00283207
Y00273554
X00173882
X00178708Y00278381
X00183534Y00283207
Y00273554
Y00263902
X00173882
X00178708Y00268729
X00169056
X0016423Y00263902
X00169056Y00288032
X00178708
X00183534Y00292859
X0016423
X00169056Y00307337
Y00316989
X0016423Y00321814
X00173882
X00183534
X00178708Y00316989
X00183534Y00312162
X00178708Y00307337
X00173882Y00312162
X0016423
X00169056Y00326641
Y00336292
X0016423Y00341119
X00173882
X00183534
X00178708Y00336292
X00183534Y00331466
X00178708Y00326641
X00173882Y00331466
X0016423
Y0035077
X00169056Y00345945
X00173882Y0035077
X00178708Y00345945
X00183534Y0035077
X00178708Y00355597
X00173882Y00360423
X00183534
X0016423
X00169056Y00355597
X00054756Y0035077
Y00341119
X00045104
Y00331466
X0004993Y00326641
X00054756Y00321814
Y00312162
Y00302511
X00045104
Y00292859
X0004993Y00288032
X00054756Y00283207
Y00273554
Y00263902
Y00254251
X0004993Y00259076
X00040278
X00035452Y00263902
X00045104
Y00254251
X00040278Y00249424
X00030626
Y00259076
X00020974
X00016148Y00254251
X00006496
X00011322Y00259076
Y00249424
X00016148Y00244599
X00020974Y00249424
X000258Y00254251
Y00263902
X00030626Y00268729
X00040278
X0004993
X00045104Y00273554
X00035452
X000258
X00020974Y00268729
X00011322
X00006496Y00263902
X00016148
Y00273554
X00020974Y00278381
X00030626
X00040278
X0004993
X00045104Y00283207
X00035452
X00040278Y00288032
X00030626
X000258Y00292859
X00020974Y00288032
X00016148Y00283207
X00011322Y00278381
X00006496Y00273554
Y00283207
X00011322Y00288032
X00016148Y00292859
X00011322Y00297684
X00006496Y00292859
Y00302511
X00016148
X00020974Y00297684
X00030626
X00035452Y00302511
X00040278Y00297684
X00035452Y00292859
X000258Y00283207
Y00302511
X00030626Y00307337
X00035452Y00312162
X00040278Y00307337
X0004993
Y00297684
X00054756Y00292859
X0004993Y00316989
X00045104Y00312162
X00040278Y00316989
X00035452Y00321814
X00030626Y00316989
X00020974
X00016148Y00312162
X00020974Y00307337
X00011322
X00006496Y00312162
X00011322Y00316989
X00016148Y00321814
X000258
Y00312162
Y00331466
X00030626Y00326641
X00040278
X00045104Y00321814
X00035452Y00331466
X00030626Y00336292
X00020974
Y00326641
X00016148Y00331466
Y00341119
X000258
X00035452
X00040278Y00336292
X0004993
X00054756Y00331466
X0004993Y00345945
X00040278
X00030626
X00020974
X00016148Y0035077
X00020974Y00355597
X00030626
X00040278
X0004993
X00045104Y0035077
X00035452
X000258
X0002453Y00387601
X00029356
X00034182
X00039008
X00043834
X0004866
Y00392426
X00043834
X00039008
X00034182
X00029356
X0002453
X00019704
Y00387601
X000258Y00244599
X00020974Y00239772
X00011322
X00006496Y00244599
Y00234946
X00016148
X000258
X00030626Y00239772
X00035452Y00244599
Y00254251
X0004993Y00249424
X00045104Y00244599
X00040278Y00239772
X0004993
X00054756Y00244599
Y00234946
X00045104
X00040278Y00230121
X00035452Y00225294
X000258
X00020974Y00230121
X00011322
X00006496Y00225294
X00016148
X00030626Y00230121
X00035452Y00234946
X00045104Y00225294
X0004993Y00230121
X00054756Y00225294
X00075838Y0022743
X00080664
Y00232257
Y00237083
X00075838
Y00241908
Y00246735
Y0025156
X00080664
X0008549
X00090316
Y00246735
X0008549
X00080664
Y00241908
X0008549
Y00237083
Y00232257
Y0022743
Y00222605
X00080664
X00075838
Y00217778
Y00212952
Y00208127
X00080664
Y00212952
Y00217778
X0008549
X00090316
Y00222605
Y0022743
Y00232257
Y00237083
Y00241908
X00075838Y00232257
X0008549Y00212952
Y00208127
X00090316
Y00212952
X00058912Y00189951
X0004926
X00044434Y00185124
X00039608Y00180299
X00029956
Y00189951
X00020304
X00010652
X00015478Y00185124
X0002513
X00020304Y00180299
X00010652
X00015478Y00175473
X0002513
X00020304Y00170646
X00029956
X00034782Y00175473
Y00185124
X00039608Y00189951
X00054086Y00185124
X0004926Y00180299
Y00170646
X00044434Y00175473
X00054086
X00058912Y00180299
Y00170646
X00054086Y00165821
X00044434
X00039608Y00170646
Y00160994
X00034782Y00165821
X0002513
X00015478
X00010652Y00170646
Y00160994
X00020304
X00029956
X00034782Y00156168
X00044434
X0004926Y00160994
X00054086Y00156168
X00058912Y00151342
Y00160994
X0004926Y00151342
X00039608
X00029956
X0002513Y00156168
X00020304Y00151342
X00015478Y00156168
X00010652Y00151342
X0003215Y00098294
X00041802Y00088643
X00061106
X0008041
X00099714
X00119018
X00138322
X00157626
X0017693
X00196234
X00215538
X00234842
X00244494Y00098294
X00263798
X00283102
X00292754Y00088643
X00312058
X00331362
X00350666
X00341014Y00098294
X0032171
X00302406
X0027345Y00088643
X00254146
X0012867Y00098294
X00051454
X00022498Y00088643
X00398926Y00098294
Y00117598
X0041823
X00408578Y00107947
X00427882
X00437534Y00117598
X00447186Y00107947
X00437534Y00098294
X00456838
Y00117598
X0046649Y00107947
X00476142Y00117598
X00495446
X00485794Y00107947
X00505098
X0051475Y00117598
X00524402Y00107947
X00534054Y00098294
Y00117598
X00553358
X00543706Y00107947
X00553358Y00098294
X0056301Y00107947
X00572662Y00117598
X00582314Y00107947
X00572662Y00098294
X00582314Y00088643
X00601618
Y00107947
X00591966Y00117598
X0061127
X00630574
X00620922Y00107947
X00640226
X00649878Y00117598
X0065953Y00107947
X00669182Y00117598
X00678834Y00107947
X00688486Y00117598
X00698138Y00107947
X0070779Y00117598
X00717442Y00107947
X00727094Y00117598
X00746398
X00736746Y00107947
X0075605
X00765702Y00117598
X00785006
X00775354Y00107947
X00785006Y00098294
X00775354Y00088643
X0075605
X00765702Y00098294
X00746398
X00736746Y00088643
X00717442
X00727094Y00098294
X0070779
X00698138Y00088643
X00678834
X00669182Y00098294
X00688486
X0065953Y00088643
X00640226
X00649878Y00098294
X00630574
X00620922Y00088643
X0061127Y00098294
X00591966
X0056301Y00088643
X00543706
X00524402
X0051475Y00098294
X00495446
X00505098Y00088643
X00485794
X00476142Y00098294
X0046649Y00088643
X00447186
X00427882
X00408578
X0041823Y00098294
X0042702Y00151342
X00436672
X00446324
Y00160994
X00441498Y00165821
X00436672Y00170646
X00431846Y00175473
Y00185124
X0042702Y00189951
X00436672
X00441498Y00185124
X00446324Y00180299
X0045115Y00185124
X00446324Y00189951
X00455976
X00465628
X00460802Y00185124
X00470454
X0047528Y00189951
Y00180299
X00465628
X00455976
X0045115Y00175473
X00441498
X00436672Y00180299
X0042702
Y00170646
X00431846Y00165821
X00436672Y00160994
X00441498Y00156168
X0045115
Y00165821
X00446324Y00170646
X00455976
X00460802Y00175473
X00470454
X0047528Y00170646
X00465628
X00460802Y00165821
X00470454
Y00156168
X00465628Y00151342
X0047528
Y00160994
X00465628
X00455976
Y00151342
X00460802Y00156168
X00431846
X0042702Y00160994
X00408556
Y00170646
Y00180299
Y00189951
X0040373Y00185124
X00398904Y00189951
Y00180299
X0040373Y00175473
X00398904Y00170646
X0040373Y00165821
X00398904Y00160994
Y00151342
X0040373Y00156168
X00408556Y00151342
X00412712Y00225294
X00407886Y00230121
X0040306Y00234946
X00398234Y00230121
X0040306Y00225294
X00398234Y00239772
X00407886
X00412712Y00234946
Y00244599
X0040306
X00398234Y00249424
X00407886
X0040306Y00254251
X00407886Y00259076
X00412712Y00263902
Y00254251
X00422864
Y00244599
Y00234946
X00432516
X00442168
X0045182
X00461472
X00471124
Y00225294
X00466298Y00230121
X00461472Y00225294
X0045182
X00456646Y00230121
X00446994
X00442168Y00225294
X00432516
X00437342Y00230121
X0042769
X00422864Y00225294
X0042769Y00239772
X00432516Y00244599
X00442168
X0045182
X00461472
X00471124
X00466298Y00239772
X00456646
X00446994
X00437342
Y00249424
X00442168Y00254251
X0045182
X00461472
X00471124
X00466298Y00249424
X00456646
X00446994
Y00259076
X00442168Y00263902
X00432516
Y00254251
X0042769Y00249424
Y00259076
X00422864Y00263902
Y00273554
Y00283207
Y00292859
X00432516
X00442168
X0045182
X00461472
X00471124
Y00302511
X00466298Y00297684
X00461472Y00302511
X0045182
X00456646Y00297684
X00446994
X00442168Y00302511
X00432516
X00437342Y00297684
X0042769
X00422864Y00302511
Y00312162
X00432516
Y00321814
Y00331466
X00442168
X0045182
X00461472
X00471124
Y00341119
X00466298Y00336292
X00461472Y00341119
X0045182
X00456646Y00336292
X00446994
X00442168Y00341119
X00432516
X00437342Y00336292
Y00326641
X00442168Y00321814
X0045182
X00446994Y00326641
X00456646
X00461472Y00321814
X00466298Y00326641
X00471124Y00321814
X00466298Y00316989
X00461472Y00312162
X0045182
X00442168
X00437342Y00316989
X0042769
Y00307337
X00437342
X00446994
Y00316989
X00456646
Y00307337
X00466298
X00471124Y00312162
X00466298Y00288032
X00461472Y00283207
X0045182
X00442168
X00432516
X0042769Y00288032
X00437342
X00446994
X00456646
Y00278381
X0045182Y00273554
Y00263902
X00461472
X00456646Y00259076
X00466298
X00471124Y00263902
Y00273554
Y00283207
X00466298Y00278381
X00461472Y00273554
X00456646Y00268729
X00446994
X00442168Y00273554
X00432516
X0042769Y00278381
X00437342
X00446994
X00437342Y00268729
Y00259076
X0042769Y00268729
X00412712Y00273554
Y00283207
X00407886Y00288032
Y00297684
X00398234
Y00288032
X0040306Y00292859
X00412712
Y00302511
X00407886Y00307337
Y00316989
X00398234
Y00326641
Y00336292
X0040306Y00341119
Y00331466
Y00321814
Y00312162
X00412712
X00398234Y00307337
X0040306Y00302511
Y00283207
Y00273554
X00407886Y00278381
X00398234
Y00268729
Y00259076
X0040306Y00263902
X00407886Y00268729
X00466298
X00492342Y0025156
X00497168
X00501994
X0050682
Y00246735
Y00241908
X00501994
X00497168
Y00246735
X00501994
Y00237083
Y00232257
X0050682
Y0022743
Y00222605
Y00217778
X00501994
Y00222605
Y0022743
X00497168
Y00232257
Y00237083
X00492342
Y00241908
Y00246735
Y00232257
Y0022743
Y00222605
X00497168
Y00217778
X00492342
X0050682Y00237083
X00577234Y00264529
X00586886
X00596538
Y00274181
Y00283832
X00591712Y00279007
X0058206
X00577234Y00283832
X00586886
Y00274181
X00591712Y00269354
X0058206
X00577234Y00274181
X0058206Y00288659
Y00298311
X00577234Y00303137
X00586886
X00596538
X00591712Y00298311
X00596538Y00293484
X00591712Y00288659
X00586886Y00293484
X00577234
X0058206Y00307962
Y00317614
X00577234Y0032244
X00586886
X00596538
X00591712Y00317614
X00596538Y00312789
X00591712Y00307962
X00586886Y00312789
X00577234
X0058206Y00327267
Y00336918
X00577234Y00341744
X00586886
X00596538
X00591712Y00336918
X00596538Y00332093
X00591712Y00327267
X00586886Y00332093
X00577234
Y00351396
Y00361049
X0058206Y00356222
X00591712
Y00346571
X00596538Y00351396
Y00361049
X00586886
Y00351396
X0058206Y00346571
X0065191Y00341998
Y00341491
X00656736Y00336665
Y00327012
Y0031736
Y00307708
Y00298057
Y00288405
Y00278752
Y002691
X00661562Y00273927
X00666388Y00278752
X00671214Y00273927
Y00283578
X00661562
X0065191
Y00273927
Y00264275
X00661562
X00671214
X00666388Y002691
Y00288405
Y00298057
X00661562Y0029323
X0065191
Y00302882
X00661562
X00671214
Y0029323
Y00312535
X00666388Y0031736
X00661562Y00312535
X0065191
Y00322187
X00661562
X00671214
Y00331838
X00666388Y00336665
X00661562Y00331838
X0065191
X00661562Y00341491
Y00341998
X00666388Y00346824
X00661562Y00351651
X00656736Y00356477
X00666388
X00661562Y00361302
X00671214
Y00351651
Y00341998
Y00341491
X00666388Y00327012
Y00307708
X00656736Y00346824
X0065191Y00351651
Y00361302
X00780842Y0035077
Y00341119
X00785668Y00336292
Y00326641
X00780842Y00321814
Y00312162
Y00302511
Y00292859
Y00283207
Y00273554
Y00263902
Y00254251
Y00244599
Y00234946
Y00225294
X00785668Y00230121
X00790494Y00225294
Y00234946
X00785668Y00239772
Y00249424
X00790494Y00244599
Y00254251
X00785668Y00259076
X00790494Y00263902
Y00273554
X00785668Y00268729
Y00278381
X00790494Y00283207
X00785668Y00288032
Y00297684
X00790494Y00292859
Y00302511
X00785668Y00307337
X00790494Y00312162
X00785668Y00316989
X00790494Y00321814
Y00331466
X00780842
X00785668Y00345945
X00790494Y00341119
Y0035077
X00785668Y00355597
X00786784Y00387601
Y00392426
X0079161
Y00387601
X00769276Y00277222
Y00272397
X0076445
Y00277222
X00759624
X00754798
X00749972
X00745146
Y00272397
Y0026757
X00749972
Y00262745
X00745146
Y00257918
Y00253092
Y00248267
Y0024344
Y00238615
X00749972
Y0024344
Y00248267
Y00253092
Y00257918
X00754798
Y00262745
X00759624
Y00257918
Y00253092
X00754798
Y00248267
Y0024344
Y00238615
Y00233789
X00749972
X00745146
X00759624
Y00238615
Y0024344
Y00248267
Y0026757
X00754798
Y00272397
X00749972
X00759624
X0076445Y0026757
X00769276
X00776686Y00189951
Y00180299
X00786338
X00791164Y00185124
X00781512
X00786338Y00189951
X00791164Y00175473
X00781512
X00776686Y00170646
Y00160994
X00781512Y00165821
X00791164
X00786338Y00170646
Y00160994
Y00151342
X00781512Y00156168
X00776686Y00151342
X00791164Y00156168
X00471124Y0035077
X00461472
X0045182
X00442168
X00432516
X00437342Y00355597
X00446994
X00456646
X00466298
Y00345945
X00456646
X00446994
X00437342
X00427374Y00362962
X00417722
X0040807
Y00372615
X00417722
X00422548Y00367789
Y0037744
X00427374Y00382267
Y00372615
X00412896Y0037744
X0040807Y00382267
X00417722
X00412896Y00367789
X00398234Y00355597
X0040306Y0035077
X00398234Y00345945
X00399434Y00387601
Y00392426
X0043601
X00440836
X00445662
X00450488
X00455314
X0046014
X00464966
Y00387601
X0046014
X00455314
X00450488
X00445662
X00440836
X0043601
X00796436
Y00392426
X00801262
X00806088
X00810914
X0081574
Y00387601
X00810914
X00806088
X00801262
X00804972Y00355597
Y00345945
X00800146Y00341119
X0079532Y00336292
Y00326641
Y00316989
Y00307337
Y00297684
Y00288032
Y00278381
Y00268729
Y00259076
Y00249424
Y00239772
X00800146Y00234946
Y00225294
X0079532Y00230121
X00804972
X00814624
X00809798Y00225294
Y00234946
Y00244599
X00804972Y00239772
X00800146Y00244599
X00804972Y00249424
X00814624
Y00239772
X0081945Y00234946
X00829102
Y00225294
X00824276Y00230121
X0081945Y00225294
X00824276Y00239772
X00829102Y00244599
X00824276Y00249424
X0081945Y00244599
Y00254251
X00824276Y00259076
X00829102Y00263902
Y00254251
X00814624Y00259076
X00804972
X00800146Y00254251
X00809798
Y00263902
X0081945
X00824276Y00268729
X00829102Y00273554
Y00283207
X00824276Y00278381
X0081945Y00283207
Y00273554
X00814624Y00268729
X00804972
X00809798Y00273554
X00814624Y00278381
X00804972
X00809798Y00283207
X00800146
Y00273554
Y00263902
X00804972Y00288032
X00814624
X00824276
X0081945Y00292859
X00814624Y00297684
X00804972
X00800146Y00292859
Y00302511
X00804972Y00307337
X00809798Y00312162
X00814624Y00307337
X00824276
Y00297684
X00829102Y00292859
Y00302511
X0081945
Y00312162
X00829102
X00824276Y00316989
X00814624
X0081945Y00321814
X00809798
X00804972Y00316989
X00800146Y00312162
Y00321814
X00804972Y00326641
X00814624
X0081945Y00331466
X00809798
X00804972Y00336292
X00800146Y00331466
X00814624Y00336292
X0081945Y00341119
Y0035077
X00814624Y00345945
X00809798Y00341119
Y0035077
X00814624Y00355597
X0079532
Y00345945
X00800146Y0035077
X00809798Y00302511
Y00292859
X00805642Y00189951
X0079599
Y00180299
X00800816Y00185124
Y00175473
X0079599Y00170646
X00805642
X00815294
X0082012Y00175473
X00824946Y00180299
Y00170646
X0082012Y00165821
X00810468
X00800816
X0079599Y00160994
X00800816Y00156168
X0079599Y00151342
X00805642
X00815294
X00810468Y00156168
X00805642Y00160994
X00815294
X0082012Y00156168
X00824946Y00160994
Y00151342
X00823614Y00117598
X0080431
X00794658Y00107947
X00813962
Y00088643
X0080431Y00098294
X00823614
X00794658Y00088643
X00954786Y0007747
Y00072644
Y00067818
Y00062992
Y00058166
X00959612
Y00062992
Y00067818
Y00072644
Y0007747
X00964438
Y00072644
Y00067818
Y00062992
Y00058166
Y0005334
X00959612
X00954786
X00969264
Y00058166
Y00062992
Y00067818
Y00072644
Y0007747
X0098679
Y00072644
Y00067818
Y00062992
Y00058166
X00991616
Y00062992
Y00067818
Y00072644
Y0007747
X00996442
Y00072644
Y00067818
Y00062992
Y00058166
Y0005334
X00991616
X0098679
X01001268
Y00058166
Y00062992
Y00067818
Y00072644
Y0007747
X01020064
Y00072644
Y00067818
Y00062992
Y00058166
X0102489
Y00062992
Y00067818
Y00072644
Y0007747
X01029716
Y00072644
Y00067818
Y00062992
Y00058166
Y0005334
X0102489
X01020064
X01034542
Y00058166
Y00062992
Y00067818
Y00072644
Y0007747
X0103505Y00135128
Y00139954
Y0014478
Y00149606
Y00154432
Y00159258
X01030224
Y00154432
Y00149606
Y0014478
Y00139954
Y00135128
X01025398
X01020572
Y00139954
Y0014478
Y00149606
X01025398
Y00154432
Y00159258
X01020572
Y00154432
X01025398Y0014478
Y00139954
X01001776
Y0014478
Y00149606
Y00154432
Y00159258
X0099695
Y00154432
Y00149606
Y0014478
Y00139954
Y00135128
X01001776
X00992124
X00987298
Y00139954
Y0014478
Y00149606
X00992124
Y00154432
Y00159258
X00987298
Y00154432
X00992124Y0014478
Y00139954
X00969772
Y0014478
Y00149606
Y00154432
Y00159258
X00964946
Y00154432
Y00149606
Y0014478
Y00139954
Y00135128
X00969772
X0096012
X00955294
Y00139954
Y0014478
Y00149606
X0096012
Y00154432
Y00159258
X00955294
Y00154432
X0096012Y0014478
Y00139954
X00959974Y00222507
Y00227334
X00955148
Y0023216
X00959974
Y00236985
X00955148
Y00241812
Y00246637
X00959974
Y00241812
X009648
Y00236985
Y0023216
Y00227334
Y00222507
X00969626
Y00227334
Y0023216
Y00236985
Y00241812
Y00246637
X009648
X00987152
Y00241812
Y00236985
Y0023216
Y00227334
X00991978
Y0023216
Y00236985
Y00241812
Y00246637
X00996804
Y00241812
Y00236985
Y0023216
Y00227334
Y00222507
X00991978
X00987152
X0100163
Y00227334
Y0023216
Y00236985
Y00241812
Y00246637
X01020426
Y00241812
Y00236985
Y0023216
Y00227334
X01025252
Y0023216
Y00236985
Y00241812
Y00246637
X01030078
Y00241812
Y00236985
Y0023216
Y00227334
Y00222507
X01025252
X01020426
X01034904
Y00227334
Y0023216
Y00236985
Y00241812
Y00246637
X00955148Y00222507
X00953116Y00473968
X0094829
Y00478793
X00943464
X00938638
Y00483619
X00943464
Y00488446
X00938638
Y00493271
Y00498097
X00943464
Y00493271
X0094829
Y00488446
Y00483619
X00953116
Y00488446
Y00493271
Y00498097
X0094829
X00953116Y00478793
X00943464Y00473968
X00938638
X00919842
X00915016
Y00478793
X0091019
X00905364
Y00483619
X0091019
Y00488446
X00905364
Y00493271
Y00498097
X0091019
Y00493271
X00915016
Y00488446
Y00483619
X00919842
Y00488446
Y00493271
Y00498097
X00915016
X00919842Y00478793
X0091019Y00473968
X00905364
X00887838
X00883012
Y00478793
X00878186
X0087336
Y00483619
X00878186
Y00488446
X0087336
Y00493271
Y00498097
X00878186
Y00493271
X00883012
Y00488446
Y00483619
X00887838
Y00488446
Y00493271
Y00498097
X00883012
X00887838Y00478793
X00878186Y00473968
X0087336
X00852678Y0047371
Y00478536
Y00483362
Y00488188
Y00493014
Y0049784
X00847852
Y00493014
Y00488188
Y00483362
Y00478536
Y0047371
X00843026
X008382
Y00478536
Y00483362
Y00488188
X00843026
Y00493014
Y0049784
X008382
Y00493014
X00843026Y00483362
Y00478536
X0084328Y00462534
X00848106
X00852932
Y00457708
Y00452882
Y00448056
Y0044323
Y00438404
X00848106
X0084328
X00838454
Y0044323
Y00448056
Y00452882
X0084328
X00848106
Y00457708
X0084328
X00838454
Y00462534
X0084328Y00448056
X00848106
Y0044323
X0084328
X00815232Y00454911
X00810406
X0080558
Y00459737
X00800754
Y00454911
X00795928
Y00459737
Y00464562
X00800754
Y00469389
X0080558
X00810406
X00815232
Y00464562
Y00459737
X00810406
Y00464562
X0080558
X00795928Y00469389
X00803294Y00493773
X00812946Y00503424
X00803294Y00513077
X00801262Y00406904
X00796436
Y00402079
X00801262
X00806088
Y00406904
X00810914
Y00402079
X0081574
Y00406904
Y00397253
X00810914
X00806088
X00801262
X00796436
X0079161
Y00402079
X00786784
Y00406904
X0079161
X00786784Y00397253
X00775608Y00405752
X00770782Y00410578
X0076113
Y0042023
X00770782
X00775608Y00415405
Y00425056
X00765956
X00756304
Y00415405
Y00405752
X00765956
Y00415405
X00786276Y00454911
Y00459737
X00791102
Y00454911
Y00464562
Y00469389
X00786276
Y00464562
X0078399Y00493773
Y00513077
X00774338Y00503424
X00764686Y00513077
Y00493773
X00755034Y00503424
X00745382Y00513077
Y00493773
X0073573Y00503424
X00726078Y00493773
X00706774
X00716426Y00503424
X00726078Y00513077
X00706774
X00697122Y00503424
X0068747Y00493773
Y00513077
X00677818Y00503424
X00668166Y00493773
X00658514Y00503424
X00668166Y00513077
X00648862
Y00493773
X00629558
X0063921Y00503424
X00629558Y00513077
X00619906Y00503424
X00610254Y00493773
X0059095
X00600602Y00503424
X0059095Y00513077
X00610254
X00581298Y00503424
X00571646Y00493773
Y00513077
X00561994Y00503424
X00552342Y00493773
X0054269Y00503424
X00552342Y00513077
X00533038
Y00493773
X00513734
X00523386Y00503424
X00504082
X0049443Y00513077
X00513734
X0049443Y00493773
X00484778Y00503424
X00475126Y00493773
X00465474Y00503424
X00455822Y00513077
X00475126
X00455822Y00493773
X00436518
X0044617Y00503424
X00426866
X00417214Y00493773
X0039791
X00407562Y00503424
X00417214Y00513077
X00436518
X0039791
X00398926Y00469389
Y00464562
Y00459737
Y00454911
X00412896Y00449576
Y00439925
X00422548
Y00449576
X00417722Y00444751
X00436518Y00454911
X00441344
X0044617
X00450996
X00455822
X00460648
X00465474
Y00459737
X00460648
X00455822
X00450996
X0044617
X00441344
X00436518
Y00464562
X00441344
X0044617
X00450996
X00455822
X00460648
Y00469389
X00455822
X00450996
X0044617
X00441344
X00436518
X00465474
Y00464562
X00464966Y00406904
Y00402079
X0046014
Y00406904
X00455314
Y00402079
X00450488
Y00406904
X00445662
Y00402079
X00440836
Y00406904
X0043601
Y00402079
Y00397253
X00440836
X00445662
X00450488
X00455314
X0046014
X00464966
X00399434
Y00402079
Y00406904
X00517798Y00431914
X00522624Y0043674
X0052745Y00441567
X00532276Y00446393
X00537102Y00451218
X0052745
X00517798
Y00441567
X00522624Y00446393
X0052745Y00431914
X00537102
X00532276Y0043674
X00537102Y00441567
X00692296
X00697122Y0043674
X00706774
X00701948Y00441567
X00697122Y00446393
X00706774
X00701948Y00451218
X007116
Y00441567
Y00431914
X00701948
X00692296
Y00451218
X00793642Y00503424
X00388258
X00378606Y00513077
Y00493773
X00359302
X00368954Y00503424
X0034965
X00339998Y00513077
X00359302
X00339998Y00493773
X00320694
X00330346Y00503424
X00320694Y00513077
X00311042Y00503424
X0030139Y00493773
Y00513077
X00291738Y00503424
X00282086Y00493773
X00262782
X00272434Y00503424
X00282086Y00513077
X00262782
X0025313Y00503424
X00243478Y00513077
Y00493773
X00224174
X00233826Y00503424
X00214522
X0020487Y00493773
Y00513077
X00224174
X00195218Y00503424
X00185566Y00493773
X00166262
X00175914Y00503424
X00185566Y00513077
X00166262
X0015661Y00503424
X00146958Y00493773
X00137306Y00503424
X00146958Y00513077
X00127654
Y00493773
X00118002Y00503424
X0010835Y00513077
Y00493773
X00089046
X00098698Y00503424
X00069742Y00493773
X00050438
X00031134
X0001183
X00020212Y00469389
X00025038
X00029864
X0003469
X00039516
X00044342
X00049168
Y00464562
X00044342
X00039516
X0003469
X00029864
Y00459737
X00025038
X00020212
Y00464562
X00025038
Y00454911
X00020212
X00029864
X0003469
Y00459737
X00039516
X00044342
X00049168
Y00454911
X00044342
X00039516
X00039008Y00406904
X00034182
Y00402079
Y00397253
X00029356
X0002453
X00019704
Y00402079
X0002453
Y00406904
X00019704
X00029356
Y00402079
X00039008
Y00397253
X00043834
X0004866
Y00402079
Y00406904
X00043834
Y00402079
X00059836Y00404873
X00064662Y00409698
X00069488Y00404873
X0007914
Y00414524
Y00424176
X00069488
X00059836
Y00414524
X00069488
X00064662Y00419351
X00074314
Y00409698
X00123844Y00431035
Y00440686
X00133496
X00138322Y0043586
X00143148Y00431035
X00133496
X0012867Y0043586
Y00445513
X00138322
X00143148Y00450339
Y00440686
X00133496Y00450339
X00123844
X00298342
X00307994
X0031282Y00445513
Y0043586
X00307994Y00431035
X00298342
Y00440686
X00303168Y00445513
X00307994Y00440686
X00317646
Y00431035
Y00450339
X00303168Y0043586
X0036997Y00454911
Y00459737
X00374796
X00379622
X00384448
X00389274
X003941
Y00464562
X00389274
X00384448
X00379622
X00374796
Y00469389
X00379622
X00384448
X00389274
X003941
Y00454911
X00389274
X00384448
X00379622
X00374796
X0036997Y00464562
Y00469389
X00370478Y00406904
Y00402079
X00375304
Y00406904
X0038013
X00384956
X00389782
Y00402079
X00384956
X0038013
Y00397253
X00384956
X00389782
X00394608
Y00402079
Y00406904
X00375304Y00397253
X00370478
T02
X00986712Y00326654
X01023112
Y00368554
X00986712
Y00410454
X01023112
Y00452354
X00986712
M30
