M48
;Layer_Color=9474304
;FILE_FORMAT=4:4
METRIC,LZ
;TYPE=PLATED
T01F00S00C0.3000
T02F00S00C0.9000
%
T01
X0000508Y00041402
X00009906
X00014732
X00012446Y0004572
X00017272
X0000762
X00009307Y00058052
X00014133
X00018959
X00016673Y0006237
X00011847
X00021499
X00032421Y0009285
X00037247
X00042073
X00039787Y00097168
X00034961
X00044613
X00014732Y00122936
X00009906
X0000508
X0000762Y00127254
X00012446
X00017272
X00018959Y00149746
X00014133
X00009307
X00011847Y00154064
X00016673
X00021499
X00030897Y00178956
X00035723
X00040549
X00038263Y00183274
X00033437
X00043089
X00039787Y00225184
X00034961
X00030135
X00032675Y00229502
X00037501
X00042327
X00017272Y00208788
X00012446
X0000762
X00009906Y0020447
X00014732
X0000508
X00088392
X00093218
X00098044
X00095758Y00208788
X00090932
X00100584
Y00127254
X00095758
X00090932
X00093218Y00122936
X00098044
X00088392
X00090932Y0004572
X00095758
X00100584
X00098044Y00041402
X00093218
X00088392
X00044105Y00021984
X00039279
X00034453
X00036739Y00017666
X00031913
X00041565
X0017145Y00041656
X00176276
X00181102
X00185928
X00190754
X0019558
X00200406
X00205232
X00210058
X00214884
X0021971
X00224536
X00229362
X00234188
X00239014
X0024384
X00248666
X00253492
X00258318
X00263144
X0026797
X00272796
X00277622
X00282448
X00287274
X002921
X00296926
X00301752
X00306578
X00311404
X0031623
X00321056
X00325882
X00330708
X00335534
X0034036
X00345186
X00350012
X00354838
X00359664
X0036449
X00369316
X00374142
X00378968
X00383794
X0038862
X00393446
X0039116Y00045974
X00386334
X00381508
X00376682
X00371856
X0036703
X00362204
X00357378
X00352552
X00347726
X003429
X00338074
X00333248
X00328422
X00323596
X0031877
X00313944
X00309118
X00304292
X00299466
X0029464
X00289814
X00284988
X00280162
X00275336
X0027051
X00265684
X00260858
X00256032
X00251206
X0024638
X00241554
X00236728
X00231902
X00227076
X0022225
X00217424
X00212598
X00207772
X00202946
X0019812
X00193294
X00188468
X00183642
X00178816
X0017399
X00212763Y0014605
Y00150876
Y00155702
X00217081Y00153162
Y00148336
Y0014351
X0022733Y0014605
Y00150876
Y00155702
X00231648Y00153162
Y00148336
Y0014351
X00242763Y0014605
Y00150876
Y00155702
X00247081Y00153162
Y00148336
Y0014351
X0025733Y0014605
Y00150876
Y00155702
X00261648Y00153162
Y00148336
Y0014351
X00272763Y0014605
Y00150876
Y00155702
X00277081Y00153162
Y00148336
Y0014351
X0028733Y0014605
Y00150876
Y00155702
X00291648Y00153162
Y00148336
Y0014351
X00302766Y0014605
Y00150876
Y00155702
X00307083Y00153162
Y00148336
Y0014351
X00317332Y0014605
Y00150876
Y00155702
X0032165Y00153162
Y00148336
Y0014351
X00332765Y0014605
Y00150876
Y00155702
X00337083Y00153162
Y00148336
Y0014351
X00347332Y0014605
Y00150876
Y00155702
X0035165Y00153162
Y00148336
Y0014351
X00362763Y0014605
Y00150876
Y00155702
X00367081Y00153162
Y00148336
Y0014351
X00383794Y00201676
X00387858
X00391922
X00395986
Y00206756
X00391922
X00387858
X00383794
X00381254Y00228416
Y00233242
Y00238068
X00360933
Y00233242
Y00228416
X00235172Y00235458
X00238197Y00240483
X00219346Y00240394
X00215138Y00235458
X00219456Y00209042
Y00204216
Y0019939
Y00194564
X00223774Y0019685
Y00192024
X00229362
X00239848Y00193839
X00244094Y00198374
X0024892
X00246888Y00202438
X00242062
X00237236
X0023495Y00206756
X00239776
X00244602
X00249428
X00251714Y00202438
X00223774Y00201676
Y00206502
X00212598Y00204724
X00187198Y00203962
Y00208788
X00187452Y00217424
Y0022225
Y00227076
X00187198Y00199136
Y001905
Y00185674
Y00180848
X00217851Y00176512
X0022863Y0017624
X00239268Y00176427
X00260842Y00176208
X00395986Y00045974
X00400812
X00405638
X00410464
X0041529
X00420116
X00424942
X00429768
X00434594
X0043942
X00444246
X00449072
X00453898
X00458724
X0046355
X00468376
X00473202
X00478028
X00482854
X0048768
X00492506
X00497332
X00502158
X00506984
X0051181
X00516636
X00521462
X00526288
X00531114
X0053594
X00540766
X00545592
X00550418
X00555244
X0056007
X00564896
X00569722
X00574548
X00579374
X005842
X00589026
X00593852
X00598678
X00603504
X0060833
X00613156
X00617982
X00622808
X00627634
X0063246
X00637286
X00642112
X00646938
X00651764
X0065659
X00661416
X00666242
X00671068
X00675894
X0068072
X00685546
X00690372
X00695198
X00700024
X0070485
X00709676
X00714502
X00719328
X00724154
X0072898
X00733806
X00738632
X00743458
X00748284
X0075311
X00757936
X00762762
X00767588
X00772414
X0077724
X00782066
X00786892
X00791718
X00789178Y00041656
X00784352
X00779526
X007747
X00769874
X00765048
X00760222
X00755396
X0075057
X00745744
X00740918
X00736092
X00731266
X0072644
X00721614
X00716788
X00711962
X00707136
X0070231
X00697484
X00692658
X00687832
X00683006
X0067818
X00673354
X00668528
X00663702
X00658876
X0065405
X00649224
X00644398
X00639572
X00634746
X0062992
X00625094
X00620268
X00615442
X00610616
X0060579
X00600964
X00596138
X00591312
X00586486
X0058166
X00576834
X00572008
X00567182
X00562356
X0055753
X00552704
X00547878
X00543052
X00538226
X005334
X00528574
X00523748
X00518922
X00514096
X0050927
X00504444
X00499618
X00494792
X00489966
X0048514
X00480314
X00475488
X00470662
X00465836
X0046101
X00456184
X00451358
X00446532
X00441706
X0043688
X00432054
X00427228
X00422402
X00417576
X0041275
X00407924
X00403098
X00398272
X00455168Y0009985
Y00104676
Y00109502
X00459486Y00106962
Y00102136
Y0009731
X00485168Y0009985
Y00104676
Y00109502
X00489486Y00106962
Y00102136
Y0009731
X00515168Y0009985
Y00104676
Y00109502
X00519486Y00106962
Y00102136
Y0009731
X00545168Y0009985
Y00104676
Y00109502
X00549486Y00106962
Y00102136
Y0009731
Y0014351
Y00148336
Y00153162
X00545168Y00150876
Y00155702
Y0014605
X00577314Y00149515
X00605168Y00150876
Y00155702
X00609486Y00153162
Y00148336
Y0014351
X00605168Y0014605
X00635168
Y00150876
Y00155702
X00639486Y00153162
Y00148336
Y0014351
X00665168Y0014605
Y00150876
Y00155702
X00669486Y00153162
Y00148336
Y0014351
X0069517Y0014605
Y00150876
Y00155702
X00699488Y00153162
Y00148336
Y0014351
X00707136Y0016129
X0069469Y00167385
X0068199Y00164811
X0072517Y00155702
Y00150876
Y0014605
X00729488Y00148336
Y00153162
Y0014351
X00755165Y0014605
Y00150876
Y00155702
X00759483Y00153162
Y00148336
Y0014351
X00785165Y0014605
Y00150876
Y00155702
X00789483Y00153162
Y00148336
Y0014351
Y00106962
Y00102136
Y0009731
X00785165Y0009985
Y00104676
Y00109502
X00729488Y00106962
Y00102136
Y0009731
X0072517Y0009985
Y00104676
Y00109502
X00669486Y00106962
Y00102136
Y0009731
X00665168Y0009985
Y00104676
Y00109502
X00639486Y00106962
Y00102136
Y0009731
X00635168Y0009985
Y00104676
Y00109502
X00609486Y00106962
Y00102136
Y0009731
X00605168Y0009985
Y00104676
Y00109502
X00616204Y00201676
X00620268
X00624332
X00628396
Y00206756
X00624332
X00620268
X00616204
X00612902Y00228346
Y00233172
Y00237998
X00592328
Y00233172
Y00228346
X00656082Y00240114
X00675462Y00230974
X00703512Y0023285
X00703766Y00215968
X00717296Y00205232
X00722122
X00726948
X00724408Y00200914
X00719582
X00714756
X00727964Y00228854
X0073279
X00737616
X00792734Y00185166
X00493522Y00172212
X00471678Y00176427
X00460936Y0017624
X00450261Y00176512
X00451866Y00194564
Y0019939
Y00204216
Y00209042
X00456184Y00206502
Y00201676
Y0019685
Y00192024
X00461772
X00472258Y00193839
Y00193839
X00476504Y00198374
X0048133
X00479298Y00202438
X00484124
X00481838Y00206756
X00477012
X00472186
X0046736
X00469646Y00202438
X00474472
X00445008Y00204724
X00416814Y00204215
X00411988
X00407162
Y00185927
X00411988
X00416814
Y00222504
X00411988
X00407162
X00446952Y00235598
X00451612Y00240792
X00470662
X00467582Y00235458
X00459486Y00153162
Y00148336
Y0014351
X00455168Y0014605
Y00150876
Y00155702
X0079756Y00185166
X00802386
X00829056Y0018161
X0083381Y00186254
X00825754Y00231648
X008255Y00045974
X00820674
X00815848
X00811022
X00806196
X0080137
X00796544
X0079883Y00041656
X00803656
X00808482
X00813308
X00818134
X0082296
X00827786
X00794004
T02
X00858158Y00028392
Y00053792
X00883558
X00908958
X00934358
X00959758
X00985158
X01010558
X01035958
Y00028392
X01010558
X00985158
X00959758
X00934358
X00908958
X00883558
Y00110001
X00858158
Y00135401
X00883558
X00908958
X00934358
X00959758
X00985158
X01010558
X01035958
Y00110001
X01010558
X00985158
X00959758
X00934358
X00908958
Y0019161
X00934358
X00959758
X00985158
X01010558
X01035958
Y0021701
X01010558
X00985158
X00959758
X00934358
X00908958
X00883558
X00858158
Y0019161
X00883558
M30
