%TF.GenerationSoftware,Altium Limited,Altium Designer,24.0.1 (36)*%
G04 Layer_Color=65535*
%FSLAX45Y45*%
%MOMM*%
%TF.SameCoordinates,B7AD6EBB-24D9-408D-9829-6F5F5D3501DF*%
%TF.FilePolarity,Positive*%
%TF.FileFunction,Legend,Top*%
%TF.Part,Single*%
G01*
G75*
%TA.AperFunction,NonConductor*%
%ADD39C,0.20320*%
%ADD40C,0.50000*%
%ADD41C,0.25000*%
%ADD42C,0.25400*%
%ADD43C,0.20000*%
%ADD44C,0.15240*%
%ADD45C,0.13000*%
D39*
X6823520Y2047240D02*
G03*
X6874320Y1996440I50800J0D01*
G01*
X6874320Y2098040D02*
G03*
X6823520Y2047240I0J-50800D01*
G01*
X3040380Y1876004D02*
G03*
X3038154Y1959082I6960J41755D01*
G01*
D02*
G03*
X3040380Y2042160I9186J41322D01*
G01*
D02*
G03*
X3038154Y2125238I6960J41755D01*
G01*
D02*
G03*
X3040380Y2208316I9186J41322D01*
G01*
X5364480Y1876004D02*
G03*
X5362254Y1959082I6960J41755D01*
G01*
D02*
G03*
X5364480Y2042160I9186J41322D01*
G01*
D02*
G03*
X5362254Y2125238I6960J41755D01*
G01*
D02*
G03*
X5364480Y2208316I9186J41322D01*
G01*
X6874320Y1894840D02*
Y1996440D01*
Y2098040D02*
Y2199640D01*
X2722880Y2346960D02*
X2926080D01*
X2722880Y1737360D02*
Y2346960D01*
Y1737360D02*
X2926080D01*
X3180080D02*
X3383280D01*
Y2346960D01*
X3180080D02*
X3383280D01*
X3014980D02*
X3091180D01*
X3014980Y1737360D02*
X3091180D01*
X3040380Y1799804D02*
Y1876004D01*
Y2208316D02*
Y2284516D01*
X5046980Y2346960D02*
X5250180D01*
X5046980Y1737360D02*
Y2346960D01*
Y1737360D02*
X5250180D01*
X5504180D02*
X5707380D01*
Y2346960D01*
X5504180D02*
X5707380D01*
X5339080D02*
X5415280D01*
X5339080Y1737360D02*
X5415280D01*
X5364480Y1799804D02*
Y1876004D01*
Y2208316D02*
Y2284516D01*
X5933440Y2016392D02*
X6116320D01*
X5933440Y1676392D02*
X6116320D01*
X5933440D02*
Y1808292D01*
Y1884492D02*
Y2016392D01*
X6116304Y1884492D02*
Y2016392D01*
Y1676392D02*
Y1808292D01*
X5933432Y2067912D02*
X6116312D01*
X5933432Y2407912D02*
X6116312D01*
Y2276012D02*
Y2407912D01*
Y2067912D02*
Y2199812D01*
X5933448Y2067912D02*
Y2199812D01*
Y2276012D02*
Y2407912D01*
X6136640Y2067912D02*
X6319520D01*
X6136640Y2407912D02*
X6319520D01*
Y2276012D02*
Y2407912D01*
Y2067912D02*
Y2199812D01*
X6136656Y2067912D02*
Y2199812D01*
Y2276012D02*
Y2407912D01*
X6136640Y2016392D02*
X6319520D01*
X6136640Y1676392D02*
X6319520D01*
X6136640D02*
Y1808292D01*
Y1884492D02*
Y2016392D01*
X6319504Y1884492D02*
Y2016392D01*
Y1676392D02*
Y1808292D01*
X4385388Y1676392D02*
Y1859272D01*
X4045388Y1676392D02*
Y1859272D01*
X4177288D01*
X4253488D02*
X4385388D01*
X4253488Y1676408D02*
X4385388D01*
X4045388D02*
X4177288D01*
X4385388Y1859272D02*
Y2042152D01*
X4045388Y1859272D02*
Y2042152D01*
X4177288D01*
X4253488D02*
X4385388D01*
X4253488Y1859288D02*
X4385388D01*
X4045388D02*
X4177288D01*
X4385388Y2042160D02*
Y2225040D01*
X4045388Y2042160D02*
Y2225040D01*
X4177288D01*
X4253488D02*
X4385388D01*
X4253488Y2042176D02*
X4385388D01*
X4045388D02*
X4177288D01*
X4385388Y2225032D02*
Y2407912D01*
X4045388Y2225032D02*
Y2407912D01*
X4177288D01*
X4253488D02*
X4385388D01*
X4253488Y2225048D02*
X4385388D01*
X4045388D02*
X4177288D01*
X5730248Y1676392D02*
X5913128D01*
X5730248Y2016392D02*
X5913128D01*
Y1884492D02*
Y2016392D01*
Y1676392D02*
Y1808292D01*
X5730264Y1676392D02*
Y1808292D01*
Y1884492D02*
Y2016392D01*
X7114540Y2385908D02*
X7297420D01*
X7114540Y2045908D02*
X7297420D01*
X7114540D02*
Y2177808D01*
Y2254008D02*
Y2385908D01*
X7297404Y2254008D02*
Y2385908D01*
Y2045908D02*
Y2177808D01*
X7114532Y1684200D02*
X7297412D01*
X7114532Y2024200D02*
X7297412D01*
Y1892300D02*
Y2024200D01*
Y1684200D02*
Y1816100D01*
X7114548Y1684200D02*
Y1816100D01*
Y1892300D02*
Y2024200D01*
X8231960Y1671312D02*
Y1854192D01*
X7891960Y1671312D02*
Y1854192D01*
X8023860D01*
X8100060D02*
X8231960D01*
X8100060Y1671328D02*
X8231960D01*
X7891960D02*
X8023860D01*
X3609332Y2067912D02*
X3792212D01*
X3609332Y2407912D02*
X3792212D01*
Y2276012D02*
Y2407912D01*
Y2067912D02*
Y2199812D01*
X3609348Y2067912D02*
Y2199812D01*
Y2276012D02*
Y2407912D01*
X3812540Y2016392D02*
X3995420D01*
X3812540Y1676392D02*
X3995420D01*
X3812540D02*
Y1808292D01*
Y1884492D02*
Y2016392D01*
X3995404Y1884492D02*
Y2016392D01*
Y1676392D02*
Y1808292D01*
X3609340Y2016392D02*
X3792220D01*
X3609340Y1676392D02*
X3792220D01*
X3609340D02*
Y1808292D01*
Y1884492D02*
Y2016392D01*
X3792204Y1884492D02*
Y2016392D01*
Y1676392D02*
Y1808292D01*
X3812540Y2067912D02*
X3995420D01*
X3812540Y2407912D02*
X3995420D01*
Y2276012D02*
Y2407912D01*
Y2067912D02*
Y2199812D01*
X3812556Y2067912D02*
Y2199812D01*
Y2276012D02*
Y2407912D01*
X2061288Y2225032D02*
Y2407912D01*
X1721288Y2225032D02*
Y2407912D01*
X1853188D01*
X1929388D02*
X2061288D01*
X1929388Y2225048D02*
X2061288D01*
X1721288D02*
X1853188D01*
X2061288Y1859272D02*
Y2042152D01*
X1721288Y1859272D02*
Y2042152D01*
X1853188D01*
X1929388D02*
X2061288D01*
X1929388Y1859288D02*
X2061288D01*
X1721288D02*
X1853188D01*
X5730248Y2407912D02*
X5913128D01*
X5730248Y2067912D02*
X5913128D01*
X5730248D02*
Y2199812D01*
Y2276012D02*
Y2407912D01*
X5913112Y2276012D02*
Y2407912D01*
Y2067912D02*
Y2199812D01*
X2061288Y1676392D02*
Y1859272D01*
X1721288Y1676392D02*
Y1859272D01*
X1853188D01*
X1929388D02*
X2061288D01*
X1929388Y1676408D02*
X2061288D01*
X1721288D02*
X1853188D01*
X2061288Y2042160D02*
Y2225040D01*
X1721288Y2042160D02*
Y2225040D01*
X1853188D01*
X1929388D02*
X2061288D01*
X1929388Y2042176D02*
X2061288D01*
X1721288D02*
X1853188D01*
X3406148Y2407912D02*
X3589028D01*
X3406148Y2067912D02*
X3589028D01*
X3406148D02*
Y2199812D01*
Y2276012D02*
Y2407912D01*
X3589012Y2276012D02*
Y2407912D01*
Y2067912D02*
Y2199812D01*
X3406148Y1676392D02*
X3589028D01*
X3406148Y2016392D02*
X3589028D01*
Y1884492D02*
Y2016392D01*
Y1676392D02*
Y1808292D01*
X3406164Y1676392D02*
Y1808292D01*
Y1884492D02*
Y2016392D01*
D40*
X6944570Y2301240D02*
G03*
X6944570Y2301240I-15450J0D01*
G01*
D41*
X7903820Y1917700D02*
G03*
X7903820Y1917700I-12500J0D01*
G01*
D42*
X2546180Y2261998D02*
G03*
X2546180Y2261998I-12700J0D01*
G01*
X4870280D02*
G03*
X4870280Y2261998I-12700J0D01*
G01*
X1816100Y13150D02*
X3982103D01*
X2832692D02*
X2835232Y243144D01*
X2975232D01*
Y13150D02*
Y243144D01*
X2835232Y76665D02*
X2975232D01*
X2835232Y112225D02*
X2975232D01*
X1816100Y590758D02*
Y1013145D01*
Y13150D02*
Y379532D01*
Y1013145D02*
X2062485D01*
X3135706D02*
X3262490D01*
X2835704D02*
X2962478D01*
X2535702D02*
X2662476D01*
X2235705D02*
X2362474D01*
X3982103Y13150D02*
Y379532D01*
Y590758D02*
Y1013145D01*
X3735718D02*
X3982103D01*
X3435718D02*
X3562490D01*
X7059765D02*
X7186536D01*
X5559753D02*
X5686524D01*
X5859752D02*
X5986521D01*
X6159749D02*
X6286523D01*
X6459751D02*
X6586525D01*
X6759753D02*
X6886537D01*
X4238297Y590758D02*
Y1013145D01*
X4486529D01*
X4659757D02*
X4786528D01*
X4959756D02*
X5086525D01*
X5259753D02*
X5386525D01*
X7957914D02*
X8204299D01*
Y590758D02*
Y1013145D01*
Y13150D02*
Y379532D01*
X4238297Y13150D02*
Y379532D01*
X7659723Y1013145D02*
X7786494D01*
X7359764D02*
X7486495D01*
X6158004Y76665D02*
X6298004D01*
Y13150D02*
Y243144D01*
X6158004D02*
X6298004D01*
X6155464Y13150D02*
X6158004Y243144D01*
Y112225D02*
X6298004D01*
X4238297Y13150D02*
X8204299D01*
X596480Y104340D02*
X741480Y249340D01*
X81480Y104340D02*
Y764340D01*
Y104340D02*
X596480D01*
X741480Y249340D02*
Y609340D01*
X586480Y764340D02*
X741480Y609340D01*
X81480Y764340D02*
X586480D01*
X596480Y919680D02*
X741480Y1064680D01*
X81480Y919680D02*
Y1579680D01*
Y919680D02*
X596480D01*
X741480Y1064680D02*
Y1424680D01*
X586480Y1579680D02*
X741480Y1424680D01*
X81480Y1579680D02*
X586480D01*
X596480Y1735020D02*
X741480Y1880020D01*
X81480Y1735020D02*
Y2395020D01*
Y1735020D02*
X596480D01*
X741480Y1880020D02*
Y2240020D01*
X586480Y2395020D02*
X741480Y2240020D01*
X81480Y2395020D02*
X586480D01*
X1429600Y1735020D02*
X1574600Y1880020D01*
X914600Y1735020D02*
Y2395020D01*
Y1735020D02*
X1429600D01*
X1574600Y1880020D02*
Y2240020D01*
X1419600Y2395020D02*
X1574600Y2240020D01*
X914600Y2395020D02*
X1419600D01*
X1429600Y919680D02*
X1574600Y1064680D01*
X914600Y919680D02*
Y1579680D01*
Y919680D02*
X1429600D01*
X1574600Y1064680D02*
Y1424680D01*
X1419600Y1579680D02*
X1574600Y1424680D01*
X914600Y1579680D02*
X1419600D01*
X1429600Y104340D02*
X1574600Y249340D01*
X914600Y104340D02*
Y764340D01*
Y104340D02*
X1429600D01*
X1574600Y249340D02*
Y609340D01*
X1419600Y764340D02*
X1574600Y609340D01*
X914600Y764340D02*
X1419600D01*
X1701800Y899160D02*
Y1051511D01*
X1777975D01*
X1803367Y1026119D01*
Y975335D01*
X1777975Y949943D01*
X1701800D01*
X1752583D02*
X1803367Y899160D01*
X1854151D02*
X1904934D01*
X1879543D01*
Y1051511D01*
X1854151Y1026119D01*
X1981110Y924552D02*
X2006501Y899160D01*
X2057285D01*
X2082677Y924552D01*
Y1026119D01*
X2057285Y1051511D01*
X2006501D01*
X1981110Y1026119D01*
Y1000727D01*
X2006501Y975335D01*
X2082677D01*
X1701800Y436880D02*
Y589231D01*
X1777975D01*
X1803367Y563839D01*
Y513055D01*
X1777975Y487663D01*
X1701800D01*
X1752583D02*
X1803367Y436880D01*
X1854151D02*
X1904934D01*
X1879543D01*
Y589231D01*
X1854151Y563839D01*
X1981110D02*
X2006501Y589231D01*
X2057285D01*
X2082677Y563839D01*
Y538447D01*
X2057285Y513055D01*
X2082677Y487663D01*
Y462272D01*
X2057285Y436880D01*
X2006501D01*
X1981110Y462272D01*
Y487663D01*
X2006501Y513055D01*
X1981110Y538447D01*
Y563839D01*
X2006501Y513055D02*
X2057285D01*
D43*
X726480Y434340D02*
G03*
X726480Y434340I-315000J0D01*
G01*
Y1249680D02*
G03*
X726480Y1249680I-315000J0D01*
G01*
Y2065020D02*
G03*
X726480Y2065020I-315000J0D01*
G01*
X1559600D02*
G03*
X1559600Y2065020I-315000J0D01*
G01*
Y1249680D02*
G03*
X1559600Y1249680I-315000J0D01*
G01*
Y434340D02*
G03*
X1559600Y434340I-315000J0D01*
G01*
X6374320Y2199640D02*
X6874320D01*
X6374320Y1894840D02*
X6874320D01*
X6374320D02*
Y2199640D01*
X7901320Y2133600D02*
X8211320D01*
X7901320Y2032800D02*
X8211320D01*
Y2133600D01*
X7901320Y2032800D02*
Y2133600D01*
D44*
X8252862Y2212340D02*
X8427862D01*
X8252862Y2120900D02*
X8427862D01*
X8252862D02*
Y2212340D01*
X8427862Y2120900D02*
Y2212340D01*
X2285860Y2174841D02*
Y2214620D01*
X2325639D01*
X2285860Y1899380D02*
Y1939159D01*
Y1899380D02*
X2325639D01*
X2601100D02*
Y1939159D01*
X2561321Y1899380D02*
X2601100D01*
Y2174841D02*
Y2214620D01*
X2561321D02*
X2601100D01*
X4609960Y2174841D02*
Y2214620D01*
X4649739D01*
X4609960Y1899380D02*
Y1939159D01*
Y1899380D02*
X4649739D01*
X4925200D02*
Y1939159D01*
X4885421Y1899380D02*
X4925200D01*
Y2174841D02*
Y2214620D01*
X4885421D02*
X4925200D01*
X7086739Y1897380D02*
Y1988820D01*
X6911739Y1897380D02*
Y1988820D01*
Y1897380D02*
X7086739D01*
X6911739Y1988820D02*
X7086739D01*
X7082339Y2156460D02*
Y2247900D01*
X6907339Y2156460D02*
Y2247900D01*
Y2156460D02*
X7082339D01*
X6907339Y2247900D02*
X7082339D01*
X6905441Y2329180D02*
Y2420620D01*
X7080441Y2329180D02*
Y2420620D01*
X6905441D02*
X7080441D01*
X6905441Y2329180D02*
X7080441D01*
X8303402Y2313940D02*
Y2405380D01*
X8128402Y2313940D02*
Y2405380D01*
Y2313940D02*
X8303402D01*
X8128402Y2405380D02*
X8303402D01*
X8113582Y2313940D02*
Y2405380D01*
X7938582Y2313940D02*
Y2405380D01*
Y2313940D02*
X8113582D01*
X7938582Y2405380D02*
X8113582D01*
X2080260Y2039759D02*
X2171700D01*
X2080260Y1864759D02*
X2171700D01*
Y2039759D01*
X2080260Y1864759D02*
Y2039759D01*
X2186940Y1675262D02*
X2278380D01*
X2186940Y1850262D02*
X2278380D01*
X2186940Y1675262D02*
Y1850262D01*
X2278380Y1675262D02*
Y1850262D01*
X2400300D02*
X2491740D01*
X2400300Y1675262D02*
X2491740D01*
Y1850262D01*
X2400300Y1675262D02*
Y1850262D01*
X2506980Y1675262D02*
X2598420D01*
X2506980Y1850262D02*
X2598420D01*
X2506980Y1675262D02*
Y1850262D01*
X2598420Y1675262D02*
Y1850262D01*
X2080260Y2230256D02*
X2171700D01*
X2080260Y2055256D02*
X2171700D01*
Y2230256D01*
X2080260Y2055256D02*
Y2230256D01*
X2293620Y1850262D02*
X2385060D01*
X2293620Y1675262D02*
X2385060D01*
Y1850262D01*
X2293620Y1675262D02*
Y1850262D01*
X4404360Y2039759D02*
X4495800D01*
X4404360Y1864759D02*
X4495800D01*
Y2039759D01*
X4404360Y1864759D02*
Y2039759D01*
X4511040Y1675262D02*
X4602480D01*
X4511040Y1850262D02*
X4602480D01*
X4511040Y1675262D02*
Y1850262D01*
X4602480Y1675262D02*
Y1850262D01*
X4724400D02*
X4815840D01*
X4724400Y1675262D02*
X4815840D01*
Y1850262D01*
X4724400Y1675262D02*
Y1850262D01*
X4831080Y1675262D02*
X4922520D01*
X4831080Y1850262D02*
X4922520D01*
X4831080Y1675262D02*
Y1850262D01*
X4922520Y1675262D02*
Y1850262D01*
X4404360Y2230259D02*
X4495800D01*
X4404360Y2055259D02*
X4495800D01*
Y2230259D01*
X4404360Y2055259D02*
Y2230259D01*
X4617720Y1850262D02*
X4709160D01*
X4617720Y1675262D02*
X4709160D01*
Y1850262D01*
X4617720Y1675262D02*
Y1850262D01*
X7657579Y2267092D02*
X7768961D01*
Y1791853D02*
Y2267092D01*
X7657579Y1791853D02*
X7768961D01*
X7323719Y2267092D02*
X7435101D01*
X7323719Y1791853D02*
Y2267092D01*
Y1791853D02*
X7435101D01*
X4937760Y1850262D02*
X5029200D01*
X4937760Y1675262D02*
X5029200D01*
Y1734820D01*
X4937760Y1790700D02*
Y1850256D01*
Y1675264D02*
Y1734820D01*
X5029200Y1790700D02*
Y1850256D01*
X4404360Y1850262D02*
X4495800D01*
X4404360Y1675262D02*
X4495800D01*
Y1734820D01*
X4404360Y1790700D02*
Y1850256D01*
Y1675264D02*
Y1734820D01*
X4495800Y1790700D02*
Y1850256D01*
X5029200Y2308860D02*
Y2400300D01*
X4854200Y2308860D02*
Y2400300D01*
Y2308860D02*
X4913758D01*
X4969638Y2400300D02*
X5029195D01*
X4854202D02*
X4913758D01*
X4969638Y2308860D02*
X5029195D01*
X5986772Y1833692D02*
X6062972D01*
X5986772Y1859092D02*
X6062972D01*
X6024872D02*
Y1871792D01*
Y1820992D02*
Y1833692D01*
X5986780Y2250612D02*
X6062980D01*
X5986780Y2225212D02*
X6062980D01*
X6024880Y2212512D02*
Y2225212D01*
Y2250612D02*
Y2263312D01*
X6189988Y2250612D02*
X6266188D01*
X6189988Y2225212D02*
X6266188D01*
X6228088Y2212512D02*
Y2225212D01*
Y2250612D02*
Y2263312D01*
X6189972Y1833692D02*
X6266172D01*
X6189972Y1859092D02*
X6266172D01*
X6228072D02*
Y1871792D01*
Y1820992D02*
Y1833692D01*
X4202688Y1729740D02*
Y1805940D01*
X4228088Y1729740D02*
Y1805940D01*
Y1767840D02*
X4240788D01*
X4189988D02*
X4202688D01*
Y1912620D02*
Y1988820D01*
X4228088Y1912620D02*
Y1988820D01*
Y1950720D02*
X4240788D01*
X4189988D02*
X4202688D01*
Y2095508D02*
Y2171708D01*
X4228088Y2095508D02*
Y2171708D01*
Y2133608D02*
X4240788D01*
X4189988D02*
X4202688D01*
Y2278380D02*
Y2354580D01*
X4228088Y2278380D02*
Y2354580D01*
Y2316480D02*
X4240788D01*
X4189988D02*
X4202688D01*
X5783596Y1859092D02*
X5859796D01*
X5783596Y1833692D02*
X5859796D01*
X5821696Y1820992D02*
Y1833692D01*
Y1859092D02*
Y1871792D01*
X7167872Y2203208D02*
X7244072D01*
X7167872Y2228608D02*
X7244072D01*
X7205972D02*
Y2241308D01*
Y2190508D02*
Y2203208D01*
X7167880Y1866900D02*
X7244080D01*
X7167880Y1841500D02*
X7244080D01*
X7205980Y1828800D02*
Y1841500D01*
Y1866900D02*
Y1879600D01*
X7748440Y2313940D02*
Y2405380D01*
X7923440Y2313940D02*
Y2405380D01*
X7863881D02*
X7923440D01*
X7748445Y2313940D02*
X7808001D01*
X7863881D02*
X7923438D01*
X7748445Y2405380D02*
X7808001D01*
X8244840Y1995042D02*
X8336280D01*
X8244840Y1820042D02*
X8336280D01*
Y1879600D01*
X8244840Y1935480D02*
Y1995036D01*
Y1820044D02*
Y1879600D01*
X8336280Y1935480D02*
Y1995036D01*
X8049260Y1724660D02*
Y1800860D01*
X8074660Y1724660D02*
Y1800860D01*
Y1762760D02*
X8087360D01*
X8036560D02*
X8049260D01*
X7785100Y2110317D02*
X7876540D01*
X7785100Y2285316D02*
X7876540D01*
X7785100Y2225758D02*
Y2285316D01*
X7876540Y2110322D02*
Y2169878D01*
Y2225758D02*
Y2285315D01*
X7785100Y2110322D02*
Y2169878D01*
X7319138Y2296160D02*
Y2387600D01*
X7494138Y2296160D02*
Y2387600D01*
X7434580D02*
X7494138D01*
X7319144Y2296160D02*
X7378700D01*
X7434580D02*
X7494136D01*
X7319144Y2387600D02*
X7378700D01*
X2613660Y1850262D02*
X2705100D01*
X2613660Y1675262D02*
X2705100D01*
Y1734820D01*
X2613660Y1790700D02*
Y1850256D01*
Y1675264D02*
Y1734820D01*
X2705100Y1790700D02*
Y1850256D01*
X2080260Y1850262D02*
X2171700D01*
X2080260Y1675262D02*
X2171700D01*
Y1734820D01*
X2080260Y1790700D02*
Y1850256D01*
Y1675264D02*
Y1734820D01*
X2171700Y1790700D02*
Y1850256D01*
X2705100Y2308860D02*
Y2400300D01*
X2530100Y2308860D02*
Y2400300D01*
Y2308860D02*
X2589659D01*
X2645539Y2400300D02*
X2705095D01*
X2530102D02*
X2589659D01*
X2645539Y2308860D02*
X2705095D01*
X3662680Y2250612D02*
X3738880D01*
X3662680Y2225212D02*
X3738880D01*
X3700780Y2212512D02*
Y2225212D01*
Y2250612D02*
Y2263312D01*
X3865872Y1833692D02*
X3942072D01*
X3865872Y1859092D02*
X3942072D01*
X3903972D02*
Y1871792D01*
Y1820992D02*
Y1833692D01*
X3662672D02*
X3738872D01*
X3662672Y1859092D02*
X3738872D01*
X3700772D02*
Y1871792D01*
Y1820992D02*
Y1833692D01*
X3865888Y2250612D02*
X3942088D01*
X3865888Y2225212D02*
X3942088D01*
X3903988Y2212512D02*
Y2225212D01*
Y2250612D02*
Y2263312D01*
X1878588Y2278380D02*
Y2354580D01*
X1903988Y2278380D02*
Y2354580D01*
Y2316480D02*
X1916688D01*
X1865888D02*
X1878588D01*
Y1912620D02*
Y1988820D01*
X1903988Y1912620D02*
Y1988820D01*
Y1950720D02*
X1916688D01*
X1865888D02*
X1878588D01*
X4663017Y2308860D02*
Y2400300D01*
X4838016Y2308860D02*
Y2400300D01*
X4778458D02*
X4838016D01*
X4663022Y2308860D02*
X4722578D01*
X4778458D02*
X4838015D01*
X4663022Y2400300D02*
X4722578D01*
X4475057Y2308860D02*
Y2400300D01*
X4650056Y2308860D02*
Y2400300D01*
X4590498D02*
X4650056D01*
X4475062Y2308860D02*
X4534618D01*
X4590498D02*
X4650055D01*
X4475062Y2400300D02*
X4534618D01*
X5783580Y2225212D02*
X5859780D01*
X5783580Y2250612D02*
X5859780D01*
X5821680D02*
Y2263312D01*
Y2212512D02*
Y2225212D01*
X1878588Y1729740D02*
Y1805940D01*
X1903988Y1729740D02*
Y1805940D01*
Y1767840D02*
X1916688D01*
X1865888D02*
X1878588D01*
Y2095508D02*
Y2171708D01*
X1903988Y2095508D02*
Y2171708D01*
Y2133608D02*
X1916688D01*
X1865888D02*
X1878588D01*
X3459480Y2225212D02*
X3535680D01*
X3459480Y2250612D02*
X3535680D01*
X3497580D02*
Y2263312D01*
Y2212512D02*
Y2225212D01*
X2338917Y2308860D02*
Y2400300D01*
X2513916Y2308860D02*
Y2400300D01*
X2454358D02*
X2513916D01*
X2338922Y2308860D02*
X2398478D01*
X2454358D02*
X2513915D01*
X2338922Y2400300D02*
X2398478D01*
X2150957Y2308860D02*
Y2400300D01*
X2325956Y2308860D02*
Y2400300D01*
X2266398D02*
X2325956D01*
X2150962Y2308860D02*
X2210518D01*
X2266398D02*
X2325955D01*
X2150962Y2400300D02*
X2210518D01*
X3459496Y1859092D02*
X3535696D01*
X3459496Y1833692D02*
X3535696D01*
X3497596Y1820992D02*
Y1833692D01*
Y1859092D02*
Y1871792D01*
D45*
X6901899Y1703959D02*
Y1833961D01*
X6906260Y1796887D02*
X6991274D01*
X6991901Y1703959D02*
Y1833961D01*
X7006039Y1703959D02*
Y1833961D01*
X7010400Y1796887D02*
X7095414D01*
X7096041Y1703959D02*
Y1833961D01*
%TF.MD5,df922b3fd15af21e393b7989edf81c99*%
M02*
