%TF.GenerationSoftware,Altium Limited,Altium Designer,24.0.1 (36)*%
G04 Layer_Color=16711935*
%FSLAX45Y45*%
%MOMM*%
%TF.SameCoordinates,B7AD6EBB-24D9-408D-9829-6F5F5D3501DF*%
%TF.FilePolarity,Negative*%
%TF.FileFunction,Soldermask,Bot*%
%TF.Part,Single*%
G01*
G75*
%TA.AperFunction,ComponentPad*%
%ADD65C,1.70160*%
%ADD66R,1.70160X1.70160*%
G04:AMPARAMS|DCode=67|XSize=66.6016mm|YSize=3.1016mm|CornerRadius=0.8008mm|HoleSize=0mm|Usage=FLASHONLY|Rotation=180.000|XOffset=0mm|YOffset=0mm|HoleType=Round|Shape=RoundedRectangle|*
%AMROUNDEDRECTD67*
21,1,66.60160,1.50000,0,0,180.0*
21,1,65.00000,3.10160,0,0,180.0*
1,1,1.60160,-32.50000,0.75000*
1,1,1.60160,32.50000,0.75000*
1,1,1.60160,32.50000,-0.75000*
1,1,1.60160,-32.50000,-0.75000*
%
%ADD67ROUNDEDRECTD67*%
D65*
X8581580Y1354011D02*
D03*
Y1100011D02*
D03*
X10359580Y1354011D02*
D03*
X10105580Y1100011D02*
D03*
Y1354011D02*
D03*
X9851580Y1100011D02*
D03*
Y1354011D02*
D03*
X9597580Y1100011D02*
D03*
Y1354011D02*
D03*
X9343580Y1100011D02*
D03*
Y1354011D02*
D03*
X9089580Y1100011D02*
D03*
Y1354011D02*
D03*
X8835580D02*
D03*
Y1100011D02*
D03*
X8581580Y2170101D02*
D03*
Y1916101D02*
D03*
X10359580Y2170101D02*
D03*
X10105580Y1916101D02*
D03*
Y2170101D02*
D03*
X9851580Y1916101D02*
D03*
Y2170101D02*
D03*
X9597580Y1916101D02*
D03*
Y2170101D02*
D03*
X9343580Y1916101D02*
D03*
Y2170101D02*
D03*
X9089580Y1916101D02*
D03*
Y2170101D02*
D03*
X8835580D02*
D03*
Y1916101D02*
D03*
X8581580Y537921D02*
D03*
Y283921D02*
D03*
X10359580Y537921D02*
D03*
X10105580Y283921D02*
D03*
Y537921D02*
D03*
X9851580Y283921D02*
D03*
Y537921D02*
D03*
X9597580Y283921D02*
D03*
Y537921D02*
D03*
X9343580Y283921D02*
D03*
Y537921D02*
D03*
X9089580Y283921D02*
D03*
Y537921D02*
D03*
X8835580D02*
D03*
Y283921D02*
D03*
D66*
X10359580Y1100011D02*
D03*
Y1916101D02*
D03*
Y283921D02*
D03*
D67*
X5006340Y668020D02*
D03*
Y205740D02*
D03*
%TF.MD5,accaa7c40250ad5b3e279b54479d9f46*%
M02*
