%TF.GenerationSoftware,Altium Limited,Altium Designer,24.0.1 (36)*%
G04 Layer_Physical_Order=1*
G04 Layer_Color=152*
%FSLAX45Y45*%
%MOMM*%
%TF.SameCoordinates,B7AD6EBB-24D9-408D-9829-6F5F5D3501DF*%
%TF.FilePolarity,Positive*%
%TF.FileFunction,Copper,L1,Top,Signal*%
%TF.Part,Single*%
G01*
G75*
%TA.AperFunction,SMDPad,CuDef*%
%ADD10R,0.50000X0.50000*%
%TA.AperFunction,ConnectorPad*%
%ADD11R,1.27000X2.92001*%
%ADD12R,3.42999X1.65001*%
%ADD13R,0.55000X1.80000*%
%ADD14O,0.55000X1.80000*%
%TA.AperFunction,SMDPad,CuDef*%
%ADD15R,0.45000X1.00000*%
%ADD16R,0.92601X0.97500*%
%ADD17O,0.60000X0.25199*%
%ADD18O,0.25199X0.60000*%
%ADD19R,0.50000X0.50000*%
%ADD20R,1.92001X1.72400*%
%ADD21R,1.70000X5.70000*%
%TA.AperFunction,ConnectorPad*%
%ADD22R,1.80000X1.00000*%
%TA.AperFunction,SMDPad,CuDef*%
%ADD23R,1.80000X1.00000*%
%ADD24R,1.27000X0.88900*%
%TA.AperFunction,ConnectorPad*%
%ADD25R,1.27000X0.88900*%
%TA.AperFunction,SMDPad,CuDef*%
%ADD26R,0.88900X1.27000*%
%TA.AperFunction,ConnectorPad*%
%ADD27R,0.88900X1.27000*%
%TA.AperFunction,SMDPad,CuDef*%
%ADD28R,0.60000X0.50000*%
%TA.AperFunction,Conductor*%
%ADD29C,0.20320*%
%ADD30C,0.76200*%
%ADD31C,0.15240*%
%ADD32R,0.71120X0.88900*%
%ADD33R,0.71120X0.83820*%
%TA.AperFunction,ComponentPad*%
%ADD34C,1.60000*%
%ADD35R,1.60000X1.60000*%
G04:AMPARAMS|DCode=36|XSize=66.5mm|YSize=3mm|CornerRadius=0.75mm|HoleSize=0mm|Usage=FLASHONLY|Rotation=180.000|XOffset=0mm|YOffset=0mm|HoleType=Round|Shape=RoundedRectangle|*
%AMROUNDEDRECTD36*
21,1,66.50000,1.50000,0,0,180.0*
21,1,65.00000,3.00000,0,0,180.0*
1,1,1.50000,-32.50000,0.75000*
1,1,1.50000,32.50000,0.75000*
1,1,1.50000,32.50000,-0.75000*
1,1,1.50000,-32.50000,-0.75000*
%
%ADD36ROUNDEDRECTD36*%
%TA.AperFunction,ViaPad*%
%ADD37C,0.40000*%
G36*
X6311900Y2402840D02*
Y2263140D01*
X6294120Y2245360D01*
X5737860D01*
X5720080Y2263140D01*
Y2397760D01*
X5740400Y2418080D01*
X6296660D01*
X6311900Y2402840D01*
D02*
G37*
G36*
X7403496Y2390744D02*
Y2273469D01*
X7362687Y2232660D01*
X7152640D01*
X7127240Y2258060D01*
Y2390140D01*
X7147560Y2410460D01*
X7383780D01*
X7403496Y2390744D01*
D02*
G37*
G36*
X7995920Y2275840D02*
Y2176780D01*
X7988300Y2169160D01*
X7899400D01*
X7866380Y2202180D01*
X7813040D01*
X7800340Y2214880D01*
Y2270760D01*
X7813040Y2283460D01*
X7988300D01*
X7995920Y2275840D01*
D02*
G37*
G36*
X5255260Y2329180D02*
Y1762760D01*
X5245100Y1752600D01*
X5062220D01*
X5041900Y1772920D01*
Y1818639D01*
X4986020Y1874519D01*
Y2042161D01*
X4940300Y2087879D01*
X4851399Y2087880D01*
X4820205Y2119075D01*
X4675425D01*
X4665980Y2128520D01*
X4602480D01*
X4592320Y2138680D01*
Y2156460D01*
X4602480Y2166620D01*
X4648200D01*
X4660900Y2153920D01*
X4869180D01*
X5072380Y2357120D01*
X5227320D01*
X5255260Y2329180D01*
D02*
G37*
G36*
X2931160D02*
Y1762760D01*
X2921000Y1752600D01*
X2738120D01*
X2717800Y1772920D01*
Y1818639D01*
X2661920Y1874519D01*
Y2042161D01*
X2616200Y2087879D01*
X2527299Y2087880D01*
X2496105Y2119075D01*
X2351325D01*
X2341880Y2128520D01*
X2278380D01*
X2268220Y2138680D01*
Y2156460D01*
X2278380Y2166620D01*
X2324100D01*
X2336800Y2153920D01*
X2545080D01*
X2748280Y2357120D01*
X2903220D01*
X2931160Y2329180D01*
D02*
G37*
G36*
X4658360Y2115820D02*
X4678679Y2095500D01*
X4823456Y2095500D01*
X4843777Y2075180D01*
X4932680Y2075180D01*
X4937760Y2070100D01*
Y2044700D01*
X4932680Y2039620D01*
X4881879D01*
X4864963Y2022703D01*
X4864963Y2000265D01*
X4878950Y1986280D01*
X4932680D01*
X4937760Y1981199D01*
X4937761Y1958341D01*
X4932680Y1953260D01*
X4876800D01*
X4861560Y1968500D01*
X4797214D01*
X4785360Y1956645D01*
Y1889760D01*
X4780280Y1884680D01*
X4762500D01*
X4757420Y1889760D01*
Y1955800D01*
X4739640Y1973580D01*
X4673600Y1973579D01*
X4650740Y1950720D01*
Y1907540D01*
X4627880Y1884680D01*
X4424680Y1884680D01*
X4417060Y1892300D01*
X4417060Y1943100D01*
X4427220Y1953260D01*
X4480560D01*
X4493260Y1965960D01*
Y2103120D01*
X4505960Y2115820D01*
X4602480D01*
X4592320Y2105660D01*
Y2105660D01*
X4602480Y2115820D01*
X4658360Y2115820D01*
D02*
G37*
G36*
X2334260D02*
X2354579Y2095500D01*
X2499356Y2095500D01*
X2519677Y2075180D01*
X2608580Y2075180D01*
X2613660Y2070100D01*
Y2044700D01*
X2608580Y2039620D01*
X2557779D01*
X2540863Y2022703D01*
X2540863Y2000265D01*
X2554850Y1986280D01*
X2608580D01*
X2613660Y1981199D01*
X2613661Y1958341D01*
X2608580Y1953260D01*
X2552700D01*
X2537460Y1968500D01*
X2473114D01*
X2461260Y1956645D01*
Y1889760D01*
X2456180Y1884680D01*
X2438400D01*
X2433320Y1889760D01*
Y1955800D01*
X2415540Y1973580D01*
X2349500Y1973579D01*
X2326640Y1950720D01*
Y1907540D01*
X2303780Y1884680D01*
X2100580Y1884680D01*
X2092960Y1892300D01*
X2092960Y1943100D01*
X2103120Y1953260D01*
X2156460D01*
X2169160Y1965960D01*
Y2103120D01*
X2181860Y2115820D01*
X2278380D01*
X2268220Y2105660D01*
Y2105660D01*
X2278380Y2115820D01*
X2334260Y2115820D01*
D02*
G37*
G36*
X8094980Y2094940D02*
Y1897380D01*
X8082280Y1884680D01*
X8016240D01*
X8003540Y1897380D01*
X8003539Y1998980D01*
X7985761Y2016759D01*
X7896860D01*
X7881619Y2001520D01*
X7881620Y1770380D01*
X7810500Y1699260D01*
X7447280D01*
X7419340Y1727200D01*
X7419340Y1884680D01*
X7672205Y2137546D01*
X8052374D01*
X8094980Y2094940D01*
D02*
G37*
G36*
X7663180Y2359660D02*
Y2166620D01*
X7366000Y1869440D01*
X7145020D01*
X7127240Y1887220D01*
X7127240Y2192020D01*
X7152640Y2217420D01*
X7371080D01*
X7419340Y2265680D01*
Y2374900D01*
X7439660Y2395220D01*
X7627620D01*
X7663180Y2359660D01*
D02*
G37*
G36*
X6309360Y2207260D02*
Y1856740D01*
X6291580Y1838960D01*
X5753100D01*
X5557520Y1838959D01*
X5516880Y1879600D01*
Y2202180D01*
X5542279Y2227580D01*
X6289040D01*
X6309360Y2207260D01*
D02*
G37*
G36*
X3985260D02*
Y1856740D01*
X3967480Y1838960D01*
X3429000D01*
X3233420Y1838959D01*
X3192780Y1879600D01*
Y2202180D01*
X3218179Y2227580D01*
X3964940D01*
X3985260Y2207260D01*
D02*
G37*
G36*
X4216400Y2382520D02*
Y1718701D01*
X4175146Y1677446D01*
X4112259D01*
X4109733Y1676400D01*
X4107180D01*
X4105375Y1674595D01*
X4102539Y1673420D01*
X4102539Y1673420D01*
X4026341Y1597221D01*
X4026339Y1597220D01*
X4025164Y1594384D01*
X4023360Y1592580D01*
Y1590028D01*
X4022313Y1587499D01*
X4022314Y1587498D01*
Y1319753D01*
X3939540Y1236980D01*
X2143760D01*
X2082800Y1297940D01*
X2082800Y1600200D01*
X2123440Y1640840D01*
X3375660D01*
X3423920Y1689100D01*
Y1785048D01*
X3434274Y1795402D01*
X3658274D01*
X3658356Y1795386D01*
X3832914D01*
X3834895Y1795780D01*
X3967480D01*
X4003040Y1831340D01*
Y2219960D01*
X3977640Y2245360D01*
X3441700D01*
X3413760Y2273300D01*
Y2392680D01*
X3440961Y2419880D01*
X4179040D01*
X4216400Y2382520D01*
D02*
G37*
G36*
X1897380Y2385060D02*
X1897380Y1727200D01*
X1859280Y1689100D01*
X1747520D01*
X1722120Y1714500D01*
Y2372360D01*
X1750060Y2400300D01*
X1882140D01*
X1897380Y2385060D01*
D02*
G37*
G36*
X8336280Y1991359D02*
X8336280Y1920240D01*
X8323578Y1907538D01*
X8262618D01*
X8249920Y1894840D01*
Y1706880D01*
X8232140Y1689100D01*
X8102600D01*
X8082280Y1709421D01*
Y1856740D01*
X8117840Y1892300D01*
Y1996440D01*
X8128000Y2006600D01*
X8321039D01*
X8336280Y1991359D01*
D02*
G37*
G36*
X7990840Y1991360D02*
Y1889760D01*
X8008620Y1871979D01*
X8049260D01*
X8068804Y1852436D01*
Y1713724D01*
X8044180Y1689100D01*
X7919720Y1689100D01*
X7894320Y1714500D01*
X7894319Y1991359D01*
X7907020Y2004060D01*
X7978140D01*
X7990840Y1991360D01*
D02*
G37*
G36*
X4470400Y2308860D02*
X4828540D01*
X4831080Y2306320D01*
Y2189480D01*
X4820920Y2179320D01*
X4592320D01*
X4561840Y2148840D01*
X4414520D01*
X4389120Y2123440D01*
Y1728173D01*
Y1402080D01*
X4457700Y1333500D01*
X4648200D01*
X4683760Y1369060D01*
Y1610360D01*
X4714240Y1640840D01*
X5234940D01*
X5273040Y1602740D01*
Y1249679D01*
X5224780Y1201420D01*
X4505960D01*
X4457700Y1153160D01*
Y744220D01*
X4414520Y701040D01*
X1724660D01*
X1681480Y744220D01*
Y716280D01*
X1780540Y617220D01*
X8041640D01*
X8077200Y581660D01*
X8077200Y1419860D01*
X8374380Y1717040D01*
Y1943100D01*
X8445500Y2014220D01*
X9398000D01*
X9451340Y1960880D01*
Y104140D01*
X9403080Y55880D01*
X8138160D01*
X8107680Y86360D01*
D01*
X8038450Y17130D01*
X633110Y17130D01*
X530860Y119380D01*
Y2316480D01*
X614680Y2400300D01*
X1673860Y2400300D01*
X1706880Y2367280D01*
Y1706879D01*
X1739901Y1673860D01*
X1859279Y1673860D01*
X1861828Y1676409D01*
X1869000Y1679380D01*
X1869001Y1679380D01*
X1907100Y1717479D01*
X1910080Y1717430D01*
Y2377440D01*
X1935480Y2402840D01*
X2052320D01*
X2146300Y2308860D01*
X2504440D01*
X2506980Y2306320D01*
Y2189480D01*
X2496820Y2179320D01*
X2268220D01*
X2237740Y2148840D01*
X2090420D01*
X2065020Y2123440D01*
Y1736889D01*
Y1287780D01*
X2131060Y1221740D01*
X3947160D01*
X4036060Y1310640D01*
Y1319753D01*
X4036060Y1319753D01*
X4036060Y1319754D01*
Y1587319D01*
X4037864Y1589123D01*
X4037992Y1589431D01*
X4110327Y1661767D01*
X4110635Y1661895D01*
X4112440Y1663700D01*
X4175145D01*
X4175146Y1663700D01*
X4175146Y1663700D01*
X4180840D01*
X4234180Y1717040D01*
Y2377440D01*
X4259580Y2402840D01*
X4376420D01*
X4470400Y2308860D01*
D02*
G37*
G36*
X7404100Y1780540D02*
X7404099Y1719117D01*
X7480300Y1642917D01*
Y906780D01*
X7452360Y878840D01*
X7162800D01*
X7134860Y906780D01*
Y1798320D01*
X7167880Y1831340D01*
X7353300D01*
X7404100Y1780540D01*
D02*
G37*
G36*
X6316980Y1783080D02*
Y1684020D01*
X6273800Y1640840D01*
Y1348739D01*
X6309361Y1313180D01*
X6477000D01*
X6576060Y1214120D01*
X6736080D01*
X6774180Y1176020D01*
Y911860D01*
X6741160Y878840D01*
X5900420Y878840D01*
X5864860Y914400D01*
Y1640840D01*
X5842000Y1663700D01*
X5773420D01*
X5750560Y1686560D01*
Y1783080D01*
X5763260Y1795780D01*
X6304280Y1795780D01*
X6316980Y1783080D01*
D02*
G37*
G36*
X10505440Y1953260D02*
Y226060D01*
X10449560Y170180D01*
X9540240D01*
X9484360Y226060D01*
Y1958340D01*
X9540240Y2014220D01*
X10444480D01*
X10505440Y1953260D01*
D02*
G37*
G36*
X517114Y2312446D02*
Y128494D01*
X405750Y17130D01*
X250641D01*
D01*
X227644Y17139D01*
X182537Y26124D01*
X140049Y43732D01*
X101808Y69289D01*
X69288Y101809D01*
X43731Y140050D01*
X26123Y182538D01*
X17138Y227645D01*
X17130Y250642D01*
X17130Y2419880D01*
X409679D01*
X517114Y2312446D01*
D02*
G37*
%LPC*%
G36*
X4658114Y2039620D02*
X4592320D01*
X4579620Y2026920D01*
Y1998978D01*
X4592320Y1986277D01*
Y1986278D01*
X4658358Y1986279D01*
X4671060Y1998980D01*
Y2026673D01*
X4658114Y2039620D01*
D02*
G37*
G36*
X4592320Y1958341D02*
Y1958339D01*
X4597400Y1953260D01*
X4592320Y1958341D01*
D02*
G37*
G36*
X2334014Y2039620D02*
X2268220D01*
X2255520Y2026920D01*
Y1998978D01*
X2268220Y1986277D01*
Y1986278D01*
X2334258Y1986279D01*
X2346960Y1998980D01*
Y2026673D01*
X2334014Y2039620D01*
D02*
G37*
G36*
X2268220Y1958341D02*
Y1958339D01*
X2273300Y1953260D01*
X2268220Y1958341D01*
D02*
G37*
G36*
X1047300Y2127720D02*
X841900D01*
Y2002320D01*
X1047300D01*
Y2127720D01*
D02*
G37*
G36*
Y1312380D02*
X841900D01*
Y1186980D01*
X1047300D01*
Y1312380D01*
D02*
G37*
G36*
Y497040D02*
X841900D01*
Y371640D01*
X1047300D01*
Y497040D01*
D02*
G37*
%LPD*%
D10*
X8298183Y2166620D02*
D03*
X8383183D02*
D03*
X7042060Y1943100D02*
D03*
X6957060D02*
D03*
X7037660Y2202180D02*
D03*
X6952660D02*
D03*
X6950120Y2374900D02*
D03*
X7035120D02*
D03*
X8258723Y2359660D02*
D03*
X8173723D02*
D03*
X8068903D02*
D03*
X7983903D02*
D03*
X4896697Y2354580D02*
D03*
X4986696D02*
D03*
X7880943Y2359660D02*
D03*
X7790943D02*
D03*
X7451642Y2341880D02*
D03*
X7361642D02*
D03*
X2572597Y2354580D02*
D03*
X2662597D02*
D03*
X4795520D02*
D03*
X4705520D02*
D03*
X4607560D02*
D03*
X4517560D02*
D03*
X2471420D02*
D03*
X2381420D02*
D03*
X2283460D02*
D03*
X2193460D02*
D03*
D11*
X5173142Y1495146D02*
D03*
X5473141D02*
D03*
X5773141D02*
D03*
X6073140D02*
D03*
X6373139D02*
D03*
X6673139D02*
D03*
X6973164D02*
D03*
X7273163D02*
D03*
X4573143Y1033145D02*
D03*
X4873142D02*
D03*
X5173142D02*
D03*
X5773141D02*
D03*
X6973164D02*
D03*
X7273163D02*
D03*
X7573112D02*
D03*
X5473141D02*
D03*
X6073140D02*
D03*
X7873111D02*
D03*
X3649116D02*
D03*
X3349117D02*
D03*
Y1495146D02*
D03*
X3049118D02*
D03*
X3049092Y1033145D02*
D03*
X2749093D02*
D03*
X2449093D02*
D03*
X2149094D02*
D03*
X3649091Y1495146D02*
D03*
X2749093D02*
D03*
X2449093D02*
D03*
X2149094D02*
D03*
X7573112D02*
D03*
X7873111D02*
D03*
X4873142D02*
D03*
X4573143D02*
D03*
X6373139Y1033145D02*
D03*
X6673139D02*
D03*
D12*
X4038600Y485140D02*
D03*
X1759610D02*
D03*
X8262620D02*
D03*
X4183609D02*
D03*
D13*
X6814820Y2309740D02*
D03*
D14*
X6687820D02*
D03*
X6560820D02*
D03*
X6433820D02*
D03*
X6814820Y1784740D02*
D03*
X6687820D02*
D03*
X6560820D02*
D03*
X6433820D02*
D03*
D15*
X7961320Y2222500D02*
D03*
X8056320D02*
D03*
X8151320D02*
D03*
Y1943100D02*
D03*
X8056320D02*
D03*
X7961320D02*
D03*
D16*
X2443480Y2057400D02*
D03*
X4767580D02*
D03*
D17*
X2584729Y2146992D02*
D03*
Y2102009D02*
D03*
Y2057000D02*
D03*
Y1967008D02*
D03*
X2302231D02*
D03*
Y2011991D02*
D03*
Y2057000D02*
D03*
Y2102009D02*
D03*
Y2146992D02*
D03*
X2584729Y2011991D02*
D03*
X4908829Y2146992D02*
D03*
Y2102009D02*
D03*
Y2057000D02*
D03*
Y1967008D02*
D03*
X4626331D02*
D03*
Y2011991D02*
D03*
Y2057000D02*
D03*
Y2102009D02*
D03*
Y2146992D02*
D03*
X4908829Y2011991D02*
D03*
D18*
X2533472Y1915751D02*
D03*
X2488489D02*
D03*
X2443480D02*
D03*
X2398471D02*
D03*
X2353488D02*
D03*
Y2198249D02*
D03*
X2398471D02*
D03*
X2443480D02*
D03*
X2488489D02*
D03*
X2533472D02*
D03*
X4857572Y1915751D02*
D03*
X4812589D02*
D03*
X4767580D02*
D03*
X4722571D02*
D03*
X4677588D02*
D03*
Y2198249D02*
D03*
X4722571D02*
D03*
X4767580D02*
D03*
X4812589D02*
D03*
X4857572D02*
D03*
D19*
X2125980Y1995080D02*
D03*
Y1910080D02*
D03*
X2232660Y1719940D02*
D03*
Y1804941D02*
D03*
X2446020Y1805583D02*
D03*
Y1720583D02*
D03*
X2552700Y1719940D02*
D03*
Y1804941D02*
D03*
X2125980Y2185577D02*
D03*
Y2100577D02*
D03*
X2339340Y1805583D02*
D03*
Y1720583D02*
D03*
X4450080Y1995080D02*
D03*
Y1910080D02*
D03*
X4556760Y1719940D02*
D03*
Y1804941D02*
D03*
X4770120Y1805583D02*
D03*
Y1720583D02*
D03*
X4876800Y1719940D02*
D03*
Y1804941D02*
D03*
X4450080Y2185580D02*
D03*
Y2100580D02*
D03*
X4663440Y1805583D02*
D03*
Y1720583D02*
D03*
X4983480Y1717758D02*
D03*
Y1807758D02*
D03*
X4450080Y1717758D02*
D03*
Y1807758D02*
D03*
X8290560Y1862538D02*
D03*
Y1952538D02*
D03*
X7830820Y2242820D02*
D03*
Y2152820D02*
D03*
X2659380Y1717758D02*
D03*
Y1807758D02*
D03*
X2125980Y1717758D02*
D03*
Y1807758D02*
D03*
D20*
X7546340Y1801660D02*
D03*
Y2257260D02*
D03*
D21*
X2828080Y2042160D02*
D03*
X3278080D02*
D03*
X5152180D02*
D03*
X5602180D02*
D03*
D22*
X711480Y434340D02*
D03*
X111480D02*
D03*
X711480Y1249680D02*
D03*
X111480D02*
D03*
X711480Y2065020D02*
D03*
X111480D02*
D03*
D23*
X1544600D02*
D03*
X944600D02*
D03*
X1544600Y1249680D02*
D03*
X944600D02*
D03*
X1544600Y434340D02*
D03*
X944600D02*
D03*
D24*
X6024880Y1751384D02*
D03*
Y1941384D02*
D03*
X6228080Y1751384D02*
D03*
Y1941384D02*
D03*
X5821688Y1941400D02*
D03*
Y1751400D02*
D03*
X7205980Y2120900D02*
D03*
Y2310900D02*
D03*
X7205972Y1949208D02*
D03*
Y1759208D02*
D03*
X3903980Y1751384D02*
D03*
Y1941384D02*
D03*
X3700780Y1751384D02*
D03*
Y1941384D02*
D03*
X3497588Y1941400D02*
D03*
Y1751400D02*
D03*
D25*
X6024872Y2332920D02*
D03*
Y2142920D02*
D03*
X6228080Y2332920D02*
D03*
Y2142920D02*
D03*
X3700772Y2332920D02*
D03*
Y2142920D02*
D03*
X3903980Y2332920D02*
D03*
Y2142920D02*
D03*
X5821688Y2142904D02*
D03*
Y2332904D02*
D03*
X3497588Y2142904D02*
D03*
Y2332904D02*
D03*
D26*
X4120380Y1767832D02*
D03*
X4310380D02*
D03*
X4120380Y1950712D02*
D03*
X4310380D02*
D03*
X4120380Y2133600D02*
D03*
X4310380D02*
D03*
X7966952Y1762752D02*
D03*
X8156952D02*
D03*
X1796280Y1950712D02*
D03*
X1986280D02*
D03*
X1796280Y1767832D02*
D03*
X1986280D02*
D03*
X1796280Y2133600D02*
D03*
X1986280D02*
D03*
D27*
X4120380Y2316472D02*
D03*
X4310380D02*
D03*
X1796280D02*
D03*
X1986280D02*
D03*
D28*
X6946900Y1838960D02*
D03*
Y1698960D02*
D03*
X7051040Y1838960D02*
D03*
Y1698960D02*
D03*
D29*
X8383183Y2166620D02*
X8384924Y2168360D01*
X8579840D01*
X8581580Y2170101D01*
X6560820Y2309740D02*
Y2401136D01*
X6793744Y1605253D02*
X6855081D01*
X6764461Y1634536D02*
X6793744Y1605253D01*
X6764461Y1634536D02*
Y1708099D01*
X6881370Y1631542D02*
Y1787470D01*
X6855081Y1605253D02*
X6881370Y1631542D01*
X6687820Y1754683D02*
Y1784740D01*
X6733897Y1738663D02*
X6764461Y1708099D01*
X6703840Y1738663D02*
X6733897D01*
X6687820Y1754683D02*
X6703840Y1738663D01*
X6817360Y1650653D02*
X6819900Y1648113D01*
X6817360Y1650653D02*
Y1782200D01*
X6814820Y1784740D02*
X6817360Y1782200D01*
X6814820Y1784740D02*
Y1894840D01*
X8258132Y2317072D02*
Y2359068D01*
X8257540Y2316480D02*
X8258132Y2317072D01*
Y2359068D02*
X8258723Y2359660D01*
X7035120Y2328500D02*
Y2374900D01*
X8290560Y1862538D02*
X8338102D01*
X8290560Y1816100D02*
Y1862538D01*
X7106681Y1868967D02*
X7186922Y1949208D01*
X7106681Y1749601D02*
Y1868967D01*
X7056040Y1698960D02*
X7106681Y1749601D01*
X7037660Y2159680D02*
Y2202180D01*
X6687820Y2309740D02*
X6754620D01*
X7451642Y2341880D02*
X7469422Y2359660D01*
X6841959Y1281440D02*
X6973164Y1412645D01*
Y1453895D01*
X6840389Y1248420D02*
X6973164Y1115645D01*
Y1033145D02*
Y1115645D01*
X6936456Y668020D02*
X7071360Y802924D01*
Y1612900D01*
X5006340Y668020D02*
X6936456D01*
X6560768Y1337069D02*
X6616397Y1281440D01*
X6841959D01*
X6527748Y1323392D02*
X6602720Y1248420D01*
X6840389D01*
X6560337Y1680401D02*
Y1784257D01*
X6560820Y1784740D01*
X6560768Y1337069D02*
Y1679969D01*
X6560337Y1680401D02*
X6560768Y1679969D01*
X6527748Y1323392D02*
Y1666292D01*
X6496050Y1697990D02*
X6527748Y1666292D01*
X7051040Y1698960D02*
X7056040D01*
X7186922Y1949208D02*
X7205972D01*
X6496050Y1697990D02*
Y2180590D01*
X6433820Y2242820D02*
X6496050Y2180590D01*
X6433820Y2242820D02*
Y2309740D01*
X4722571Y1915754D02*
Y1938376D01*
X4722584Y1938389D01*
X4450080Y1995083D02*
Y2100580D01*
X4856639Y1914817D02*
X4857572Y1915751D01*
X4811655Y1914817D02*
X4812589Y1915751D01*
X4676654Y1890274D02*
Y1914817D01*
X4677588Y1915751D01*
X4722571D02*
Y1938373D01*
X4722584Y1938386D01*
X4908829Y2011991D02*
X4909763Y2011058D01*
X2125980Y1995080D02*
Y2100577D01*
X6881370Y1787470D02*
X6941900Y1848000D01*
X6863080Y1943100D02*
X6957060D01*
X6814820Y1894840D02*
X6863080Y1943100D01*
X6560820Y1784740D02*
Y1910080D01*
X6641700Y1990960D02*
X6994200D01*
X6560820Y1910080D02*
X6641700Y1990960D01*
X6994200D02*
X7042060Y1943100D01*
X6941900Y1848000D02*
X7049920D01*
X6950120Y2374900D02*
X6951390Y2373630D01*
Y2203450D02*
Y2373630D01*
Y2203450D02*
X6952660Y2202180D01*
X6832160Y2374900D02*
X6950120D01*
X6814820Y2357560D02*
X6832160Y2374900D01*
X6814820Y2309740D02*
Y2357560D01*
X6262370Y1907094D02*
X6373966D01*
X6433820Y1847240D01*
X6228080Y1941384D02*
X6262370Y1907094D01*
X6433820Y1784740D02*
Y1847240D01*
X4675820Y2354580D02*
X4705520D01*
X4706070Y2355130D01*
X4516840Y2355300D02*
Y2407200D01*
X4516120Y2407920D02*
X4516840Y2407200D01*
Y2355300D02*
X4517560Y2354580D01*
X4469523Y2355981D02*
X4516159D01*
X4517560Y2354580D01*
X4706070Y2355130D02*
Y2407370D01*
X4706620Y2407920D01*
X4497439Y1765117D02*
X4502613D01*
X4450080Y1717758D02*
X4497439Y1765117D01*
X4556760Y1719940D02*
X4595456Y1758636D01*
X4605593D01*
X4609358Y1762402D01*
X2555518Y1807758D02*
X2659380D01*
X2639060Y1828078D02*
Y1988129D01*
Y1828078D02*
X2659380Y1807758D01*
X4876800Y1804941D02*
X4879618Y1807758D01*
X4983480D01*
X4908829Y2011991D02*
X4909763Y2011058D01*
X4940231D01*
X4963160Y1988129D01*
Y1828078D02*
X4983480Y1807758D01*
X4963160Y1828078D02*
Y1988129D01*
X2616131Y2011058D02*
X2639060Y1988129D01*
X2585663Y2011058D02*
X2616131D01*
X2584729Y2011991D02*
X2585663Y2011058D01*
X2552700Y1804941D02*
X2555518Y1807758D01*
X4982071Y1806349D02*
X4983480Y1807758D01*
X4876800Y1804941D02*
X4878209Y1806349D01*
X4982071D01*
X4981299Y1719939D02*
X4983480Y1717758D01*
X4935220Y1722120D02*
X4937401Y1719939D01*
X4981299D01*
X4730199Y1760504D02*
X4770120Y1720583D01*
X4720546Y1760504D02*
X4730199D01*
X4716780Y1764270D02*
X4720546Y1760504D01*
X2351720Y2354580D02*
X2381420D01*
X2381970Y2355130D01*
Y2404830D01*
X2151380Y2354580D02*
X2193460D01*
Y2403940D01*
X2125980Y1717758D02*
X2173338Y1765117D01*
X2178513D01*
X2232660Y1719940D02*
X2271356Y1758636D01*
X2282531D02*
X2286297Y1762402D01*
X2271356Y1758636D02*
X2282531D01*
X2392680Y1764270D02*
X2396446Y1760504D01*
X2406099D02*
X2446020Y1720583D01*
X2396446Y1760504D02*
X2406099D01*
X2608415Y1762081D02*
X2612181Y1758315D01*
X2618823D01*
X2659380Y1717758D01*
X4986697Y2179997D02*
Y2354580D01*
X2662597Y2179997D02*
Y2354580D01*
X4557081Y1805262D02*
X4663119D01*
X4556760Y1804941D02*
X4557081Y1805262D01*
X4663119D02*
X4663440Y1805583D01*
X4711300Y1853443D01*
X4856639Y1914817D02*
X4857572Y1915751D01*
X4856639Y1867108D02*
Y1914817D01*
X4770120Y1805583D02*
X4777792Y1797912D01*
X4815840D01*
X4811655Y1914817D02*
X4812589Y1915751D01*
X4821911Y1832381D02*
X4856639Y1867108D01*
X4821911Y1797912D02*
Y1832381D01*
Y1756556D02*
Y1797912D01*
X4843687Y1734780D02*
X4861960D01*
X4821911Y1756556D02*
X4843687Y1734780D01*
X4861960D02*
X4876800Y1719940D01*
X4663440Y1720583D02*
X4715243Y1668780D01*
X5801798Y1940560D02*
X5808980D01*
X5748719Y1818710D02*
X5982440D01*
X5982456Y1818694D01*
X4715243Y1668780D02*
X5671820D01*
X5717540Y1714500D01*
Y1787531D02*
X5748719Y1818710D01*
X5717540Y1714500D02*
Y1787531D01*
X6174740Y1907094D02*
X6209030Y1941384D01*
X6228080D01*
X6174740Y1836420D02*
Y1907094D01*
X6157014Y1818694D02*
X6174740Y1836420D01*
X5982456Y1818694D02*
X6157014D01*
X4896697Y2354580D02*
X4896697D01*
X4857572Y2315455D02*
X4881857Y2339740D01*
X4857572Y2198249D02*
Y2315455D01*
X4881857Y2339740D02*
Y2339740D01*
X4896697Y2354580D01*
X4450080Y1807758D02*
X4502511Y1860189D01*
X4646569D01*
X4676654Y1890274D01*
Y1914817D01*
X4677588Y1915751D01*
X4711300Y1853443D02*
X4787143D01*
X4811655Y1877955D02*
Y1914817D01*
X4787143Y1853443D02*
X4811655Y1877955D01*
X2463043Y1853443D02*
X2487555Y1877955D01*
Y1914817D01*
X2387200Y1853443D02*
X2463043D01*
X2398471Y1938373D02*
X2398484Y1938386D01*
X2398471Y1915751D02*
Y1938373D01*
X2352554Y1914817D02*
X2353488Y1915751D01*
X2352554Y1890274D02*
Y1914817D01*
X2322469Y1860189D02*
X2352554Y1890274D01*
X2178411Y1860189D02*
X2322469D01*
X2125980Y1807758D02*
X2178411Y1860189D01*
X2557757Y2339740D02*
X2572597Y2354580D01*
X2557757Y2339740D02*
Y2339740D01*
X2533472Y2198249D02*
Y2315455D01*
X2557757Y2339740D01*
X2572597Y2354580D02*
X2572597D01*
X3658356Y1818694D02*
X3832914D01*
X3850640Y1836420D01*
Y1907094D01*
X3884930Y1941384D02*
X3903980D01*
X3850640Y1907094D02*
X3884930Y1941384D01*
X3393440Y1714500D02*
Y1787531D01*
X3424619Y1818710D01*
X3347720Y1668780D02*
X3393440Y1714500D01*
X2391143Y1668780D02*
X3347720D01*
X3658340Y1818710D02*
X3658356Y1818694D01*
X3424619Y1818710D02*
X3658340D01*
X3477698Y1940560D02*
X3484880D01*
X2339340Y1720583D02*
X2391143Y1668780D01*
X2537860Y1734780D02*
X2552700Y1719940D01*
X2497811Y1756556D02*
X2519587Y1734780D01*
X2537860D01*
X2497811Y1756556D02*
Y1797912D01*
Y1832381D01*
X2532539Y1867108D01*
X2487555Y1914817D02*
X2488489Y1915751D01*
X2453692Y1797912D02*
X2491740D01*
X2446020Y1805583D02*
X2453692Y1797912D01*
X2532539Y1867108D02*
Y1914817D01*
X2533472Y1915751D01*
X2339340Y1805583D02*
X2387200Y1853443D01*
X2339019Y1805262D02*
X2339340Y1805583D01*
X2232660Y1804941D02*
X2232981Y1805262D01*
X2339019D01*
X8151320Y2222500D02*
Y2250000D01*
X8173723Y2272403D01*
Y2359660D01*
X8068903D02*
X8173723D01*
X7928803Y2311800D02*
X8021043D01*
X7880943Y2359660D02*
X7928803Y2311800D01*
X8021043D02*
X8068903Y2359660D01*
X7838803Y2407520D02*
X7936043D01*
X7790943Y2359660D02*
X7838803Y2407520D01*
X7936043D02*
X7983903Y2359660D01*
X7449820Y2340058D02*
X7451642Y2341880D01*
X7449820Y2334260D02*
Y2340058D01*
X7469422Y2359660D02*
X7790943D01*
D30*
X10105580Y2170101D02*
X10359580D01*
X9851580D02*
X10105580D01*
X9597580D02*
X9851580D01*
X9433421Y2334260D02*
X9597580Y2170101D01*
X8425180Y2334260D02*
X9433421D01*
X8290560Y2199640D02*
X8425180Y2334260D01*
X8290560Y1952538D02*
Y2199640D01*
D31*
X6946900Y1673846D02*
Y1698960D01*
D32*
X4607560Y2345690D02*
D03*
X2283460D02*
D03*
D33*
X4795520Y2348230D02*
D03*
X2471420D02*
D03*
D34*
X8581580Y1354011D02*
D03*
Y1100011D02*
D03*
X10359580Y1354011D02*
D03*
X10105580Y1100011D02*
D03*
Y1354011D02*
D03*
X9851580Y1100011D02*
D03*
Y1354011D02*
D03*
X9597580Y1100011D02*
D03*
Y1354011D02*
D03*
X9343580Y1100011D02*
D03*
Y1354011D02*
D03*
X9089580Y1100011D02*
D03*
Y1354011D02*
D03*
X8835580D02*
D03*
Y1100011D02*
D03*
X8581580Y2170101D02*
D03*
Y1916101D02*
D03*
X10359580Y2170101D02*
D03*
X10105580Y1916101D02*
D03*
Y2170101D02*
D03*
X9851580Y1916101D02*
D03*
Y2170101D02*
D03*
X9597580Y1916101D02*
D03*
Y2170101D02*
D03*
X9343580Y1916101D02*
D03*
Y2170101D02*
D03*
X9089580Y1916101D02*
D03*
Y2170101D02*
D03*
X8835580D02*
D03*
Y1916101D02*
D03*
X8581580Y537921D02*
D03*
Y283921D02*
D03*
X10359580Y537921D02*
D03*
X10105580Y283921D02*
D03*
Y537921D02*
D03*
X9851580Y283921D02*
D03*
Y537921D02*
D03*
X9597580Y283921D02*
D03*
Y537921D02*
D03*
X9343580Y283921D02*
D03*
Y537921D02*
D03*
X9089580Y283921D02*
D03*
Y537921D02*
D03*
X8835580D02*
D03*
Y283921D02*
D03*
D35*
X10359580Y1100011D02*
D03*
Y1916101D02*
D03*
Y283921D02*
D03*
D36*
X5006340Y668020D02*
D03*
Y205740D02*
D03*
D37*
X6560820Y2401136D02*
D03*
X6946900Y1673846D02*
D03*
X6819900Y1648113D02*
D03*
X7279640Y2288540D02*
D03*
X7327900D02*
D03*
X7376160D02*
D03*
X8257540Y2316480D02*
D03*
X7035120Y2328500D02*
D03*
X8338102Y1862538D02*
D03*
X8290560Y1816100D02*
D03*
X8023860Y1851660D02*
D03*
X7975600D02*
D03*
X7927340D02*
D03*
X7037660Y2159680D02*
D03*
X6754620Y2309740D02*
D03*
X7244080Y2009140D02*
D03*
X7269480Y2052320D02*
D03*
X7221220D02*
D03*
X7172960D02*
D03*
X7195820Y2009140D02*
D03*
X7147560D02*
D03*
X5923280Y2283460D02*
D03*
Y2331720D02*
D03*
Y2379980D02*
D03*
X6129020Y2283460D02*
D03*
Y2331720D02*
D03*
Y2379980D02*
D03*
X5773141Y1495146D02*
D03*
X8255000Y459740D02*
D03*
X8084820Y416560D02*
D03*
X7988300D02*
D03*
X8206740Y459740D02*
D03*
X8229600Y416560D02*
D03*
X8110220Y459740D02*
D03*
D03*
X8277860Y416560D02*
D03*
X8133080D02*
D03*
X8036560D02*
D03*
X8013700Y459740D02*
D03*
X8277860Y416560D02*
D03*
X8181340D02*
D03*
D03*
X8061960Y459740D02*
D03*
X8206740D02*
D03*
X8158480D02*
D03*
X8084820Y416560D02*
D03*
X7965440Y459740D02*
D03*
X7940040Y416560D02*
D03*
X7917180Y459740D02*
D03*
D03*
X8013700D02*
D03*
X7891780Y416560D02*
D03*
X7988300D02*
D03*
X5069840Y459740D02*
D03*
X4899660Y416560D02*
D03*
X5189220D02*
D03*
X4803140D02*
D03*
X5021580Y459740D02*
D03*
X5044440Y416560D02*
D03*
X4925060Y459740D02*
D03*
D03*
X5092700Y416560D02*
D03*
X5214620Y459740D02*
D03*
X4947920Y416560D02*
D03*
X5118100Y459740D02*
D03*
X4851400Y416560D02*
D03*
X5118100Y459740D02*
D03*
X4828540D02*
D03*
X5092700Y416560D02*
D03*
X4996180D02*
D03*
X5140960D02*
D03*
X4996180D02*
D03*
X4876800Y459740D02*
D03*
X5021580D02*
D03*
X4973320D02*
D03*
X5166360D02*
D03*
X4899660Y416560D02*
D03*
X5285740D02*
D03*
X5552440Y459740D02*
D03*
X5359400D02*
D03*
X5407660D02*
D03*
X5262880D02*
D03*
X5382260Y416560D02*
D03*
X5527040D02*
D03*
X5382260D02*
D03*
X5478780D02*
D03*
X5214620Y459740D02*
D03*
X5504180D02*
D03*
X5237480Y416560D02*
D03*
X5504180Y459740D02*
D03*
X5334000Y416560D02*
D03*
X5600700Y459740D02*
D03*
X5478780Y416560D02*
D03*
X5311140Y459740D02*
D03*
D03*
X5430520Y416560D02*
D03*
X5407660Y459740D02*
D03*
X5189220Y416560D02*
D03*
X5575300D02*
D03*
X5285740D02*
D03*
X5455920Y459740D02*
D03*
X6228080D02*
D03*
X6057900Y416560D02*
D03*
X6347460D02*
D03*
X5961380D02*
D03*
X6179820Y459740D02*
D03*
X6202680Y416560D02*
D03*
X6083300Y459740D02*
D03*
D03*
X6250940Y416560D02*
D03*
X6372860Y459740D02*
D03*
X6106160Y416560D02*
D03*
X6276340Y459740D02*
D03*
X6009640Y416560D02*
D03*
X6276340Y459740D02*
D03*
X5986780D02*
D03*
X6250940Y416560D02*
D03*
X6154420D02*
D03*
X6299200D02*
D03*
X6154420D02*
D03*
X6035040Y459740D02*
D03*
X6179820D02*
D03*
X6131560D02*
D03*
X6324600D02*
D03*
X6057900Y416560D02*
D03*
X5671820D02*
D03*
X5938520Y459740D02*
D03*
X5745480D02*
D03*
X5793740D02*
D03*
X5648960D02*
D03*
X5768340Y416560D02*
D03*
X5913120D02*
D03*
X5768340D02*
D03*
X5864860D02*
D03*
X5600700Y459740D02*
D03*
X5890260D02*
D03*
X5623560Y416560D02*
D03*
X5890260Y459740D02*
D03*
X5720080Y416560D02*
D03*
X5986780Y459740D02*
D03*
X5864860Y416560D02*
D03*
X5697220Y459740D02*
D03*
D03*
X5816600Y416560D02*
D03*
X5793740Y459740D02*
D03*
X5575300Y416560D02*
D03*
X5961380D02*
D03*
X5671820D02*
D03*
X5842000Y459740D02*
D03*
X7386320D02*
D03*
X7216140Y416560D02*
D03*
X7505700D02*
D03*
X7119620D02*
D03*
X7338060Y459740D02*
D03*
X7360920Y416560D02*
D03*
X7241540Y459740D02*
D03*
D03*
X7409180Y416560D02*
D03*
X7531100Y459740D02*
D03*
X7264400Y416560D02*
D03*
X7434580Y459740D02*
D03*
X7167880Y416560D02*
D03*
X7434580Y459740D02*
D03*
X7145020D02*
D03*
X7409180Y416560D02*
D03*
X7312660D02*
D03*
X7457440D02*
D03*
X7312660D02*
D03*
X7193280Y459740D02*
D03*
X7338060D02*
D03*
X7289800D02*
D03*
X7482840D02*
D03*
X7216140Y416560D02*
D03*
X7602220D02*
D03*
X7868920Y459740D02*
D03*
X7675880D02*
D03*
X7724140D02*
D03*
X7579360D02*
D03*
X7698740Y416560D02*
D03*
X7843520D02*
D03*
X7698740D02*
D03*
X7795260D02*
D03*
X7531100Y459740D02*
D03*
X7820660D02*
D03*
X7553960Y416560D02*
D03*
X7820660Y459740D02*
D03*
X7650480Y416560D02*
D03*
X7917180Y459740D02*
D03*
X7795260Y416560D02*
D03*
X7627620Y459740D02*
D03*
D03*
X7747000Y416560D02*
D03*
X7724140Y459740D02*
D03*
X7505700Y416560D02*
D03*
X7891780D02*
D03*
X7602220D02*
D03*
X7772400Y459740D02*
D03*
X7000240D02*
D03*
X6830060Y416560D02*
D03*
X7119620D02*
D03*
X6733540D02*
D03*
X6951980Y459740D02*
D03*
X6974840Y416560D02*
D03*
X6855460Y459740D02*
D03*
D03*
X7023100Y416560D02*
D03*
X7145020Y459740D02*
D03*
X6878320Y416560D02*
D03*
X7048500Y459740D02*
D03*
X6781800Y416560D02*
D03*
X7048500Y459740D02*
D03*
X6758940D02*
D03*
X7023100Y416560D02*
D03*
X6926580D02*
D03*
X7071360D02*
D03*
X6926580D02*
D03*
X6807200Y459740D02*
D03*
X6951980D02*
D03*
X6903720D02*
D03*
X7096760D02*
D03*
X6830060Y416560D02*
D03*
X6443980D02*
D03*
X6710680Y459740D02*
D03*
X6517640D02*
D03*
X6565900D02*
D03*
X6421120D02*
D03*
X6540500Y416560D02*
D03*
X6685280D02*
D03*
X6540500D02*
D03*
X6637020D02*
D03*
X6372860Y459740D02*
D03*
X6662420D02*
D03*
X6395720Y416560D02*
D03*
X6662420Y459740D02*
D03*
X6492240Y416560D02*
D03*
X6758940Y459740D02*
D03*
X6637020Y416560D02*
D03*
X6469380Y459740D02*
D03*
D03*
X6588760Y416560D02*
D03*
X6565900Y459740D02*
D03*
X6347460Y416560D02*
D03*
X6733540D02*
D03*
X6443980D02*
D03*
X6614160Y459740D02*
D03*
X3525520D02*
D03*
X3355340Y416560D02*
D03*
X3644900D02*
D03*
X3258820D02*
D03*
X3477260Y459740D02*
D03*
X3500120Y416560D02*
D03*
X3380740Y459740D02*
D03*
D03*
X3548380Y416560D02*
D03*
X3670300Y459740D02*
D03*
X3403600Y416560D02*
D03*
X3573780Y459740D02*
D03*
X3307080Y416560D02*
D03*
X3573780Y459740D02*
D03*
X3284220D02*
D03*
X3548380Y416560D02*
D03*
X3451860D02*
D03*
X3596640D02*
D03*
X3451860D02*
D03*
X3332480Y459740D02*
D03*
X3477260D02*
D03*
X3429000D02*
D03*
X3622040D02*
D03*
X3355340Y416560D02*
D03*
X3741420D02*
D03*
X4008120Y459740D02*
D03*
X3815080D02*
D03*
X3863340D02*
D03*
X3718560D02*
D03*
X3837940Y416560D02*
D03*
X3982720D02*
D03*
X3837940D02*
D03*
X3934460D02*
D03*
X3670300Y459740D02*
D03*
X3959860D02*
D03*
X3693160Y416560D02*
D03*
X3959860Y459740D02*
D03*
X3789680Y416560D02*
D03*
X4056380Y459740D02*
D03*
X3934460Y416560D02*
D03*
X3766820Y459740D02*
D03*
D03*
X3886200Y416560D02*
D03*
X3863340Y459740D02*
D03*
X3644900Y416560D02*
D03*
X4030980D02*
D03*
X3741420D02*
D03*
X3911600Y459740D02*
D03*
X4683760D02*
D03*
X4513580Y416560D02*
D03*
X4803140D02*
D03*
X4417060D02*
D03*
X4635500Y459740D02*
D03*
X4658360Y416560D02*
D03*
X4538980Y459740D02*
D03*
D03*
X4706620Y416560D02*
D03*
X4828540Y459740D02*
D03*
X4561840Y416560D02*
D03*
X4732020Y459740D02*
D03*
X4465320Y416560D02*
D03*
X4732020Y459740D02*
D03*
X4442460D02*
D03*
X4706620Y416560D02*
D03*
X4610100D02*
D03*
X4754880D02*
D03*
X4610100D02*
D03*
X4490720Y459740D02*
D03*
X4635500D02*
D03*
X4587240D02*
D03*
X4780280D02*
D03*
X4513580Y416560D02*
D03*
X4127500D02*
D03*
X4394200Y459740D02*
D03*
X4201160D02*
D03*
X4249420D02*
D03*
X4104640D02*
D03*
X4224020Y416560D02*
D03*
X4368800D02*
D03*
X4224020D02*
D03*
X4320540D02*
D03*
X4056380Y459740D02*
D03*
X4345940D02*
D03*
X4079240Y416560D02*
D03*
X4345940Y459740D02*
D03*
X4175760Y416560D02*
D03*
X4442460Y459740D02*
D03*
X4320540Y416560D02*
D03*
X4152900Y459740D02*
D03*
D03*
X4272280Y416560D02*
D03*
X4249420Y459740D02*
D03*
X4030980Y416560D02*
D03*
X4417060D02*
D03*
X4127500D02*
D03*
X4297680Y459740D02*
D03*
X2753360D02*
D03*
X2583180Y416560D02*
D03*
X2872740D02*
D03*
X2486660D02*
D03*
X2705100Y459740D02*
D03*
X2727960Y416560D02*
D03*
X2608580Y459740D02*
D03*
D03*
X2776220Y416560D02*
D03*
X2898140Y459740D02*
D03*
X2631440Y416560D02*
D03*
X2801620Y459740D02*
D03*
X2534920Y416560D02*
D03*
X2801620Y459740D02*
D03*
X2512060D02*
D03*
X2776220Y416560D02*
D03*
X2679700D02*
D03*
X2824480D02*
D03*
X2679700D02*
D03*
X2560320Y459740D02*
D03*
X2705100D02*
D03*
X2656840D02*
D03*
X2849880D02*
D03*
X2583180Y416560D02*
D03*
X2969260D02*
D03*
X3235960Y459740D02*
D03*
X3042920D02*
D03*
X3091180D02*
D03*
X2946400D02*
D03*
X3065780Y416560D02*
D03*
X3210560D02*
D03*
X3065780D02*
D03*
X3162300D02*
D03*
X2898140Y459740D02*
D03*
X3187700D02*
D03*
X2921000Y416560D02*
D03*
X3187700Y459740D02*
D03*
X3017520Y416560D02*
D03*
X3284220Y459740D02*
D03*
X3162300Y416560D02*
D03*
X2994660Y459740D02*
D03*
D03*
X3114040Y416560D02*
D03*
X3091180Y459740D02*
D03*
X2872740Y416560D02*
D03*
X3258820D02*
D03*
X2969260D02*
D03*
X3139440Y459740D02*
D03*
X2367280D02*
D03*
X2197100Y416560D02*
D03*
X2486660D02*
D03*
X2100580D02*
D03*
X2319020Y459740D02*
D03*
X2341880Y416560D02*
D03*
X2222500Y459740D02*
D03*
D03*
X2390140Y416560D02*
D03*
X2512060Y459740D02*
D03*
X2245360Y416560D02*
D03*
X2415540Y459740D02*
D03*
X2148840Y416560D02*
D03*
X2415540Y459740D02*
D03*
X2125980D02*
D03*
X2390140Y416560D02*
D03*
X2293620D02*
D03*
X2438400D02*
D03*
X2293620D02*
D03*
X2174240Y459740D02*
D03*
X2319020D02*
D03*
X2270760D02*
D03*
X2463800D02*
D03*
X2197100Y416560D02*
D03*
X1811020D02*
D03*
X2077720Y459740D02*
D03*
X1884680D02*
D03*
X1932940D02*
D03*
X1788160D02*
D03*
X1907540Y416560D02*
D03*
X2052320D02*
D03*
X1907540D02*
D03*
X2004060D02*
D03*
X1739900Y459740D02*
D03*
X2029460D02*
D03*
X1762760Y416560D02*
D03*
X2029460Y459740D02*
D03*
X1859280Y416560D02*
D03*
X2125980Y459740D02*
D03*
X2004060Y416560D02*
D03*
X1836420Y459740D02*
D03*
D03*
X1955800Y416560D02*
D03*
X1932940Y459740D02*
D03*
X1714500Y416560D02*
D03*
X2100580D02*
D03*
X1811020D02*
D03*
X1981200Y459740D02*
D03*
X4551680Y1557020D02*
D03*
X4594860Y1531620D02*
D03*
X3609332Y2380680D02*
D03*
Y2332420D02*
D03*
Y2284160D02*
D03*
X3812540Y2380680D02*
D03*
Y2332420D02*
D03*
Y2284160D02*
D03*
X4168140Y1859272D02*
D03*
X4119880D02*
D03*
X4071620D02*
D03*
X4168140Y2042152D02*
D03*
X4119880D02*
D03*
X4071620D02*
D03*
Y2225040D02*
D03*
X4119880D02*
D03*
X4168140D02*
D03*
X1874520Y2270760D02*
D03*
Y2222500D02*
D03*
Y2174240D02*
D03*
X1871980Y2087880D02*
D03*
Y2039620D02*
D03*
Y1991360D02*
D03*
Y1905000D02*
D03*
Y1856740D02*
D03*
Y1808480D02*
D03*
X2316480Y1435100D02*
D03*
Y1483360D02*
D03*
Y1531620D02*
D03*
X2273300Y1460500D02*
D03*
Y1508760D02*
D03*
Y1557020D02*
D03*
X2616479Y1435100D02*
D03*
Y1483360D02*
D03*
Y1531620D02*
D03*
X2573299Y1460500D02*
D03*
Y1508760D02*
D03*
Y1557020D02*
D03*
X2916479Y1435100D02*
D03*
Y1483360D02*
D03*
Y1531620D02*
D03*
X2873299Y1460500D02*
D03*
Y1508760D02*
D03*
Y1557020D02*
D03*
X3216504Y1435100D02*
D03*
Y1483360D02*
D03*
Y1531620D02*
D03*
X3173324Y1460500D02*
D03*
Y1508760D02*
D03*
Y1557020D02*
D03*
X3516503Y1435100D02*
D03*
Y1483360D02*
D03*
Y1531620D02*
D03*
X3473323Y1460500D02*
D03*
Y1508760D02*
D03*
Y1557020D02*
D03*
X319126Y176657D02*
D03*
X367386D02*
D03*
X415646D02*
D03*
X344526Y219837D02*
D03*
X392786D02*
D03*
X441046D02*
D03*
X93066Y580517D02*
D03*
X141326D02*
D03*
X189586D02*
D03*
X118466Y623697D02*
D03*
X166726D02*
D03*
X214986D02*
D03*
X324206Y928497D02*
D03*
X372466D02*
D03*
X420726D02*
D03*
X349606Y971677D02*
D03*
X397866D02*
D03*
X446126D02*
D03*
X301346Y2251837D02*
D03*
X349606D02*
D03*
X397866D02*
D03*
X326746Y2295017D02*
D03*
X375006D02*
D03*
X423266D02*
D03*
X93066Y1497457D02*
D03*
X141326D02*
D03*
X189586D02*
D03*
X118466Y1540637D02*
D03*
X166726D02*
D03*
X214986D02*
D03*
X308966Y1789557D02*
D03*
X357226D02*
D03*
X405486D02*
D03*
X334366Y1832737D02*
D03*
X382626D02*
D03*
X430886D02*
D03*
X6051677Y1095019D02*
D03*
Y1046759D02*
D03*
Y998499D02*
D03*
X6094857Y1069619D02*
D03*
Y1021359D02*
D03*
Y973099D02*
D03*
X6351676Y1095019D02*
D03*
Y1046759D02*
D03*
Y998499D02*
D03*
X6394856Y1069619D02*
D03*
Y1021359D02*
D03*
Y973099D02*
D03*
X6651676Y1095019D02*
D03*
Y1046759D02*
D03*
Y998499D02*
D03*
X6694856Y1069619D02*
D03*
Y1021359D02*
D03*
Y973099D02*
D03*
X7251700Y1095019D02*
D03*
Y1046759D02*
D03*
Y998499D02*
D03*
X7294880Y1069619D02*
D03*
Y1021359D02*
D03*
Y973099D02*
D03*
X7851648Y1095019D02*
D03*
Y1046759D02*
D03*
Y998499D02*
D03*
X7894828Y1069619D02*
D03*
Y1021359D02*
D03*
Y973099D02*
D03*
X7851648Y1557020D02*
D03*
Y1508760D02*
D03*
Y1460500D02*
D03*
X7894828Y1531620D02*
D03*
Y1483360D02*
D03*
Y1435100D02*
D03*
X7551649Y1557020D02*
D03*
Y1508760D02*
D03*
Y1460500D02*
D03*
X7594829Y1531620D02*
D03*
Y1483360D02*
D03*
Y1435100D02*
D03*
X7251700Y1557020D02*
D03*
Y1508760D02*
D03*
Y1460500D02*
D03*
X7294880Y1531620D02*
D03*
Y1483360D02*
D03*
Y1435100D02*
D03*
X6951701Y1557020D02*
D03*
Y1508760D02*
D03*
Y1460500D02*
D03*
X6994881Y1531620D02*
D03*
Y1483360D02*
D03*
Y1435100D02*
D03*
X6651676Y1557020D02*
D03*
Y1508760D02*
D03*
Y1460500D02*
D03*
X6694856Y1531620D02*
D03*
Y1483360D02*
D03*
Y1435100D02*
D03*
X6351676Y1557020D02*
D03*
Y1508760D02*
D03*
Y1460500D02*
D03*
X6394856Y1531620D02*
D03*
Y1483360D02*
D03*
Y1435100D02*
D03*
X6051677Y1557020D02*
D03*
Y1508760D02*
D03*
Y1460500D02*
D03*
X6094857Y1531620D02*
D03*
Y1483360D02*
D03*
Y1435100D02*
D03*
X5451678Y1557020D02*
D03*
Y1508760D02*
D03*
Y1460500D02*
D03*
X5494858Y1531620D02*
D03*
Y1483360D02*
D03*
Y1435100D02*
D03*
X3627628Y1557020D02*
D03*
Y1508760D02*
D03*
Y1460500D02*
D03*
X3670808Y1531620D02*
D03*
Y1483360D02*
D03*
Y1435100D02*
D03*
X3327654Y1557020D02*
D03*
Y1508760D02*
D03*
Y1460500D02*
D03*
X3370834Y1531620D02*
D03*
Y1483360D02*
D03*
Y1435100D02*
D03*
X3027655Y1557020D02*
D03*
Y1508760D02*
D03*
Y1460500D02*
D03*
X3070835Y1531620D02*
D03*
Y1483360D02*
D03*
Y1435100D02*
D03*
X2727630Y1557020D02*
D03*
Y1508760D02*
D03*
Y1460500D02*
D03*
X2770810Y1531620D02*
D03*
Y1483360D02*
D03*
Y1435100D02*
D03*
X2427630Y1557020D02*
D03*
Y1508760D02*
D03*
Y1460500D02*
D03*
X2470810Y1531620D02*
D03*
Y1483360D02*
D03*
Y1435100D02*
D03*
X2127631Y1557020D02*
D03*
Y1508760D02*
D03*
Y1460500D02*
D03*
X2170811Y1531620D02*
D03*
Y1483360D02*
D03*
Y1435100D02*
D03*
X5451678Y1095019D02*
D03*
Y1046759D02*
D03*
Y998499D02*
D03*
X5494858Y1069619D02*
D03*
Y1021359D02*
D03*
Y973099D02*
D03*
X5151679Y1095019D02*
D03*
Y1046759D02*
D03*
Y998499D02*
D03*
X5194859Y1069619D02*
D03*
Y1021359D02*
D03*
Y973099D02*
D03*
X4851679Y1095019D02*
D03*
Y1046759D02*
D03*
Y998499D02*
D03*
X4894859Y1069619D02*
D03*
Y1021359D02*
D03*
Y973099D02*
D03*
X4551680Y1095019D02*
D03*
Y1046759D02*
D03*
Y998499D02*
D03*
X4594860Y1069619D02*
D03*
Y1021359D02*
D03*
Y973099D02*
D03*
Y1435100D02*
D03*
Y1483360D02*
D03*
X4551680Y1460500D02*
D03*
Y1508760D02*
D03*
X172720Y2087880D02*
D03*
X124460D02*
D03*
X76200D02*
D03*
X147320Y2044700D02*
D03*
X99060D02*
D03*
X50800D02*
D03*
X172720Y1272540D02*
D03*
X124460D02*
D03*
X76200D02*
D03*
X147320Y1229360D02*
D03*
X99060D02*
D03*
X50800D02*
D03*
X172720Y457200D02*
D03*
X124460D02*
D03*
X76200D02*
D03*
X147320Y414020D02*
D03*
X99060D02*
D03*
X50800D02*
D03*
X1005840Y457200D02*
D03*
X957580D02*
D03*
X909320D02*
D03*
X980440Y414020D02*
D03*
X932180D02*
D03*
X883920D02*
D03*
X1005840Y1272540D02*
D03*
X957580D02*
D03*
X909320D02*
D03*
X980440Y1229360D02*
D03*
X932180D02*
D03*
X883920D02*
D03*
Y2044700D02*
D03*
X932180D02*
D03*
X980440D02*
D03*
X909320Y2087880D02*
D03*
X957580D02*
D03*
X1005840D02*
D03*
X3959860Y2067560D02*
D03*
X3919220D02*
D03*
X3878580D02*
D03*
X3837940D02*
D03*
X3959860Y2016760D02*
D03*
X3919220D02*
D03*
X3878580D02*
D03*
X3837940D02*
D03*
X6162040D02*
D03*
X6202680D02*
D03*
X6243320D02*
D03*
X6283960D02*
D03*
X6162040Y2067560D02*
D03*
X6202680D02*
D03*
X6243320D02*
D03*
X6283960D02*
D03*
X7071360Y1612900D02*
D03*
X4722584Y1938389D02*
D03*
X4450080Y2047243D02*
D03*
X4722584Y1938386D02*
D03*
X4818380Y2067560D02*
D03*
X4770120D02*
D03*
X4721860D02*
D03*
X4673600D02*
D03*
X4841240Y2024380D02*
D03*
X4792980D02*
D03*
X4744720D02*
D03*
X4696460D02*
D03*
X4813300Y1983740D02*
D03*
X4765040D02*
D03*
X4518660Y2090420D02*
D03*
Y2042160D02*
D03*
Y1993900D02*
D03*
Y1945640D02*
D03*
X4561840Y2065020D02*
D03*
Y2016760D02*
D03*
Y1968500D02*
D03*
Y1920240D02*
D03*
X4617720D02*
D03*
X2293620D02*
D03*
X2237740D02*
D03*
Y1968500D02*
D03*
Y2016760D02*
D03*
Y2065020D02*
D03*
X2194560Y1945640D02*
D03*
Y1993900D02*
D03*
Y2042160D02*
D03*
Y2090420D02*
D03*
X2440940Y1983740D02*
D03*
X2489200D02*
D03*
X2372360Y2024380D02*
D03*
X2420620D02*
D03*
X2468880D02*
D03*
X2517140D02*
D03*
X2349500Y2067560D02*
D03*
X2397760D02*
D03*
X2446020D02*
D03*
X2494280D02*
D03*
X2125980Y2047240D02*
D03*
X4675820Y2354580D02*
D03*
X4516120Y2407920D02*
D03*
X4469523Y2355981D02*
D03*
X4706620Y2407920D02*
D03*
X4502613Y1765117D02*
D03*
X4609358Y1762402D02*
D03*
X4935220Y1722120D02*
D03*
X4716780Y1764270D02*
D03*
X2381970Y2404830D02*
D03*
X2351720Y2354580D02*
D03*
X2193460Y2403940D02*
D03*
X2151380Y2354580D02*
D03*
X2178513Y1765117D02*
D03*
X2286297Y1762402D02*
D03*
X2392680Y1764270D02*
D03*
X2608415Y1762081D02*
D03*
X2398484Y1938386D02*
D03*
%TF.MD5,0d0c886e4848540cb4193a7c96f0de23*%
M02*
