%TF.GenerationSoftware,Altium Limited,Altium Designer,24.0.1 (36)*%
G04 Layer_Color=8421504*
%FSLAX45Y45*%
%MOMM*%
%TF.SameCoordinates,B7AD6EBB-24D9-408D-9829-6F5F5D3501DF*%
%TF.FilePolarity,Positive*%
%TF.FileFunction,Paste,Top*%
%TF.Part,Single*%
G01*
G75*
G36*
X2534204Y2228229D02*
X2534935Y2228163D01*
X2535659Y2228059D01*
X2536378Y2227909D01*
X2537087Y2227721D01*
X2537783Y2227490D01*
X2538463Y2227218D01*
X2539126Y2226908D01*
X2539771Y2226560D01*
X2540396Y2226177D01*
X2540998Y2225755D01*
X2541572Y2225300D01*
X2542118Y2224815D01*
X2542639Y2224295D01*
X2543124Y2223748D01*
X2543579Y2223174D01*
X2544000Y2222572D01*
X2544384Y2221950D01*
X2544732Y2221302D01*
X2545042Y2220639D01*
X2545314Y2219959D01*
X2545545Y2219263D01*
X2545733Y2218554D01*
X2545883Y2217835D01*
X2545987Y2217111D01*
X2546053Y2216380D01*
X2546073Y2215648D01*
Y2180848D01*
X2546053Y2180116D01*
X2545987Y2179385D01*
X2545883Y2178661D01*
X2545733Y2177942D01*
X2545545Y2177233D01*
X2545314Y2176537D01*
X2545042Y2175857D01*
X2544732Y2175194D01*
X2544384Y2174546D01*
X2544000Y2173924D01*
X2543579Y2173322D01*
X2543124Y2172748D01*
X2542639Y2172202D01*
X2542118Y2171681D01*
X2541572Y2171196D01*
X2540998Y2170741D01*
X2540396Y2170320D01*
X2539771Y2169936D01*
X2539126Y2169588D01*
X2538463Y2169278D01*
X2537783Y2169006D01*
X2537087Y2168775D01*
X2536378Y2168587D01*
X2535659Y2168437D01*
X2534935Y2168333D01*
X2534204Y2168267D01*
X2533472Y2168247D01*
X2532741Y2168267D01*
X2532009Y2168333D01*
X2531285Y2168437D01*
X2530566Y2168587D01*
X2529858Y2168775D01*
X2529162Y2169006D01*
X2528481Y2169278D01*
X2527818Y2169588D01*
X2527170Y2169936D01*
X2526548Y2170320D01*
X2525946Y2170741D01*
X2525372Y2171196D01*
X2524826Y2171681D01*
X2524305Y2172202D01*
X2523820Y2172748D01*
X2523366Y2173322D01*
X2522944Y2173924D01*
X2522560Y2174549D01*
X2522212Y2175194D01*
X2521902Y2175857D01*
X2521631Y2176537D01*
X2521400Y2177233D01*
X2521212Y2177942D01*
X2521062Y2178661D01*
X2520958Y2179385D01*
X2520892Y2180116D01*
X2520871Y2180848D01*
Y2215648D01*
X2520892Y2216380D01*
X2520958Y2217111D01*
X2521062Y2217835D01*
X2521212Y2218554D01*
X2521400Y2219263D01*
X2521631Y2219959D01*
X2521902Y2220639D01*
X2522212Y2221302D01*
X2522560Y2221948D01*
X2522944Y2222572D01*
X2523366Y2223174D01*
X2523820Y2223748D01*
X2524305Y2224295D01*
X2524826Y2224815D01*
X2525372Y2225300D01*
X2525946Y2225755D01*
X2526548Y2226177D01*
X2527170Y2226560D01*
X2527818Y2226908D01*
X2528481Y2227218D01*
X2529162Y2227490D01*
X2529858Y2227721D01*
X2530566Y2227909D01*
X2531285Y2228059D01*
X2532009Y2228163D01*
X2532741Y2228229D01*
X2533472Y2228249D01*
X2534204Y2228229D01*
D02*
G37*
G36*
X2489220D02*
X2489952Y2228163D01*
X2490676Y2228059D01*
X2491395Y2227909D01*
X2492103Y2227721D01*
X2492799Y2227490D01*
X2493480Y2227218D01*
X2494143Y2226908D01*
X2494788Y2226560D01*
X2495413Y2226177D01*
X2496015Y2225755D01*
X2496589Y2225300D01*
X2497135Y2224815D01*
X2497656Y2224295D01*
X2498141Y2223748D01*
X2498595Y2223174D01*
X2499017Y2222572D01*
X2499401Y2221950D01*
X2499749Y2221302D01*
X2500058Y2220639D01*
X2500330Y2219959D01*
X2500561Y2219263D01*
X2500749Y2218554D01*
X2500899Y2217835D01*
X2501003Y2217111D01*
X2501069Y2216380D01*
X2501090Y2215648D01*
Y2180848D01*
X2501069Y2180116D01*
X2501003Y2179385D01*
X2500899Y2178661D01*
X2500749Y2177942D01*
X2500561Y2177233D01*
X2500330Y2176537D01*
X2500058Y2175857D01*
X2499749Y2175194D01*
X2499401Y2174546D01*
X2499017Y2173924D01*
X2498595Y2173322D01*
X2498141Y2172748D01*
X2497656Y2172202D01*
X2497135Y2171681D01*
X2496589Y2171196D01*
X2496015Y2170741D01*
X2495413Y2170320D01*
X2494788Y2169936D01*
X2494143Y2169588D01*
X2493480Y2169278D01*
X2492799Y2169006D01*
X2492103Y2168775D01*
X2491395Y2168587D01*
X2490676Y2168437D01*
X2489952Y2168333D01*
X2489220Y2168267D01*
X2488489Y2168247D01*
X2487757Y2168267D01*
X2487026Y2168333D01*
X2486302Y2168437D01*
X2485583Y2168587D01*
X2484874Y2168775D01*
X2484178Y2169006D01*
X2483498Y2169278D01*
X2482835Y2169588D01*
X2482187Y2169936D01*
X2481565Y2170320D01*
X2480963Y2170741D01*
X2480389Y2171196D01*
X2479843Y2171681D01*
X2479322Y2172202D01*
X2478837Y2172748D01*
X2478382Y2173322D01*
X2477961Y2173924D01*
X2477577Y2174549D01*
X2477229Y2175194D01*
X2476919Y2175857D01*
X2476647Y2176537D01*
X2476416Y2177233D01*
X2476228Y2177942D01*
X2476078Y2178661D01*
X2475974Y2179385D01*
X2475908Y2180116D01*
X2475888Y2180848D01*
Y2215648D01*
X2475908Y2216380D01*
X2475974Y2217111D01*
X2476078Y2217835D01*
X2476228Y2218554D01*
X2476416Y2219263D01*
X2476647Y2219959D01*
X2476919Y2220639D01*
X2477229Y2221302D01*
X2477577Y2221948D01*
X2477961Y2222572D01*
X2478382Y2223174D01*
X2478837Y2223748D01*
X2479322Y2224295D01*
X2479843Y2224815D01*
X2480389Y2225300D01*
X2480963Y2225755D01*
X2481565Y2226177D01*
X2482187Y2226560D01*
X2482835Y2226908D01*
X2483498Y2227218D01*
X2484178Y2227490D01*
X2484874Y2227721D01*
X2485583Y2227909D01*
X2486302Y2228059D01*
X2487026Y2228163D01*
X2487757Y2228229D01*
X2488489Y2228249D01*
X2489220Y2228229D01*
D02*
G37*
G36*
X2444212D02*
X2444943Y2228163D01*
X2445667Y2228059D01*
X2446386Y2227909D01*
X2447094Y2227721D01*
X2447790Y2227490D01*
X2448471Y2227218D01*
X2449134Y2226908D01*
X2449779Y2226560D01*
X2450404Y2226177D01*
X2451006Y2225755D01*
X2451580Y2225300D01*
X2452126Y2224815D01*
X2452647Y2224295D01*
X2453132Y2223748D01*
X2453587Y2223174D01*
X2454008Y2222572D01*
X2454392Y2221950D01*
X2454740Y2221302D01*
X2455050Y2220639D01*
X2455321Y2219959D01*
X2455553Y2219263D01*
X2455741Y2218554D01*
X2455890Y2217835D01*
X2455995Y2217111D01*
X2456061Y2216380D01*
X2456081Y2215648D01*
Y2180848D01*
X2456061Y2180116D01*
X2455995Y2179385D01*
X2455890Y2178661D01*
X2455741Y2177942D01*
X2455553Y2177233D01*
X2455321Y2176537D01*
X2455050Y2175857D01*
X2454740Y2175194D01*
X2454392Y2174546D01*
X2454008Y2173924D01*
X2453587Y2173322D01*
X2453132Y2172748D01*
X2452647Y2172202D01*
X2452126Y2171681D01*
X2451580Y2171196D01*
X2451006Y2170741D01*
X2450404Y2170320D01*
X2449779Y2169936D01*
X2449134Y2169588D01*
X2448471Y2169278D01*
X2447790Y2169006D01*
X2447094Y2168775D01*
X2446386Y2168587D01*
X2445667Y2168437D01*
X2444943Y2168333D01*
X2444212Y2168267D01*
X2443480Y2168247D01*
X2442748Y2168267D01*
X2442017Y2168333D01*
X2441293Y2168437D01*
X2440574Y2168587D01*
X2439866Y2168775D01*
X2439170Y2169006D01*
X2438489Y2169278D01*
X2437826Y2169588D01*
X2437178Y2169936D01*
X2436556Y2170320D01*
X2435954Y2170741D01*
X2435380Y2171196D01*
X2434834Y2171681D01*
X2434313Y2172202D01*
X2433828Y2172748D01*
X2433373Y2173322D01*
X2432952Y2173924D01*
X2432568Y2174549D01*
X2432220Y2175194D01*
X2431910Y2175857D01*
X2431639Y2176537D01*
X2431407Y2177233D01*
X2431219Y2177942D01*
X2431070Y2178661D01*
X2430965Y2179385D01*
X2430899Y2180116D01*
X2430879Y2180848D01*
Y2215648D01*
X2430899Y2216380D01*
X2430965Y2217111D01*
X2431070Y2217835D01*
X2431219Y2218554D01*
X2431407Y2219263D01*
X2431639Y2219959D01*
X2431910Y2220639D01*
X2432220Y2221302D01*
X2432568Y2221948D01*
X2432952Y2222572D01*
X2433373Y2223174D01*
X2433828Y2223748D01*
X2434313Y2224295D01*
X2434834Y2224815D01*
X2435380Y2225300D01*
X2435954Y2225755D01*
X2436556Y2226177D01*
X2437178Y2226560D01*
X2437826Y2226908D01*
X2438489Y2227218D01*
X2439170Y2227490D01*
X2439866Y2227721D01*
X2440574Y2227909D01*
X2441293Y2228059D01*
X2442017Y2228163D01*
X2442748Y2228229D01*
X2443480Y2228249D01*
X2444212Y2228229D01*
D02*
G37*
G36*
X2399203D02*
X2399934Y2228163D01*
X2400658Y2228059D01*
X2401377Y2227909D01*
X2402086Y2227721D01*
X2402782Y2227490D01*
X2403462Y2227218D01*
X2404125Y2226908D01*
X2404770Y2226560D01*
X2405395Y2226177D01*
X2405997Y2225755D01*
X2406571Y2225300D01*
X2407117Y2224815D01*
X2407638Y2224295D01*
X2408123Y2223748D01*
X2408578Y2223174D01*
X2408999Y2222572D01*
X2409383Y2221950D01*
X2409731Y2221302D01*
X2410041Y2220639D01*
X2410313Y2219959D01*
X2410544Y2219263D01*
X2410732Y2218554D01*
X2410882Y2217835D01*
X2410986Y2217111D01*
X2411052Y2216380D01*
X2411072Y2215648D01*
Y2180848D01*
X2411052Y2180116D01*
X2410986Y2179385D01*
X2410882Y2178661D01*
X2410732Y2177942D01*
X2410544Y2177233D01*
X2410313Y2176537D01*
X2410041Y2175857D01*
X2409731Y2175194D01*
X2409383Y2174546D01*
X2408999Y2173924D01*
X2408578Y2173322D01*
X2408123Y2172748D01*
X2407638Y2172202D01*
X2407117Y2171681D01*
X2406571Y2171196D01*
X2405997Y2170741D01*
X2405395Y2170320D01*
X2404770Y2169936D01*
X2404125Y2169588D01*
X2403462Y2169278D01*
X2402782Y2169006D01*
X2402086Y2168775D01*
X2401377Y2168587D01*
X2400658Y2168437D01*
X2399934Y2168333D01*
X2399203Y2168267D01*
X2398471Y2168247D01*
X2397740Y2168267D01*
X2397008Y2168333D01*
X2396284Y2168437D01*
X2395565Y2168587D01*
X2394857Y2168775D01*
X2394161Y2169006D01*
X2393480Y2169278D01*
X2392817Y2169588D01*
X2392169Y2169936D01*
X2391547Y2170320D01*
X2390945Y2170741D01*
X2390371Y2171196D01*
X2389825Y2171681D01*
X2389304Y2172202D01*
X2388819Y2172748D01*
X2388365Y2173322D01*
X2387943Y2173924D01*
X2387559Y2174549D01*
X2387211Y2175194D01*
X2386902Y2175857D01*
X2386630Y2176537D01*
X2386399Y2177233D01*
X2386211Y2177942D01*
X2386061Y2178661D01*
X2385957Y2179385D01*
X2385891Y2180116D01*
X2385870Y2180848D01*
Y2215648D01*
X2385891Y2216380D01*
X2385957Y2217111D01*
X2386061Y2217835D01*
X2386211Y2218554D01*
X2386399Y2219263D01*
X2386630Y2219959D01*
X2386902Y2220639D01*
X2387211Y2221302D01*
X2387559Y2221948D01*
X2387943Y2222572D01*
X2388365Y2223174D01*
X2388819Y2223748D01*
X2389304Y2224295D01*
X2389825Y2224815D01*
X2390371Y2225300D01*
X2390945Y2225755D01*
X2391547Y2226177D01*
X2392169Y2226560D01*
X2392817Y2226908D01*
X2393480Y2227218D01*
X2394161Y2227490D01*
X2394857Y2227721D01*
X2395565Y2227909D01*
X2396284Y2228059D01*
X2397008Y2228163D01*
X2397740Y2228229D01*
X2398471Y2228249D01*
X2399203Y2228229D01*
D02*
G37*
G36*
X2354219D02*
X2354951Y2228163D01*
X2355675Y2228059D01*
X2356394Y2227909D01*
X2357102Y2227721D01*
X2357798Y2227490D01*
X2358479Y2227218D01*
X2359142Y2226908D01*
X2359787Y2226560D01*
X2360412Y2226177D01*
X2361014Y2225755D01*
X2361588Y2225300D01*
X2362134Y2224815D01*
X2362655Y2224295D01*
X2363140Y2223748D01*
X2363594Y2223174D01*
X2364016Y2222572D01*
X2364400Y2221950D01*
X2364748Y2221302D01*
X2365057Y2220639D01*
X2365329Y2219959D01*
X2365560Y2219263D01*
X2365748Y2218554D01*
X2365898Y2217835D01*
X2366002Y2217111D01*
X2366068Y2216380D01*
X2366089Y2215648D01*
Y2180848D01*
X2366068Y2180116D01*
X2366002Y2179385D01*
X2365898Y2178661D01*
X2365748Y2177942D01*
X2365560Y2177233D01*
X2365329Y2176537D01*
X2365057Y2175857D01*
X2364748Y2175194D01*
X2364400Y2174546D01*
X2364016Y2173924D01*
X2363594Y2173322D01*
X2363140Y2172748D01*
X2362655Y2172202D01*
X2362134Y2171681D01*
X2361588Y2171196D01*
X2361014Y2170741D01*
X2360412Y2170320D01*
X2359787Y2169936D01*
X2359142Y2169588D01*
X2358479Y2169278D01*
X2357798Y2169006D01*
X2357102Y2168775D01*
X2356394Y2168587D01*
X2355675Y2168437D01*
X2354951Y2168333D01*
X2354219Y2168267D01*
X2353488Y2168247D01*
X2352756Y2168267D01*
X2352025Y2168333D01*
X2351301Y2168437D01*
X2350582Y2168587D01*
X2349873Y2168775D01*
X2349177Y2169006D01*
X2348497Y2169278D01*
X2347834Y2169588D01*
X2347186Y2169936D01*
X2346564Y2170320D01*
X2345962Y2170741D01*
X2345388Y2171196D01*
X2344842Y2171681D01*
X2344321Y2172202D01*
X2343836Y2172748D01*
X2343381Y2173322D01*
X2342959Y2173924D01*
X2342576Y2174549D01*
X2342228Y2175194D01*
X2341918Y2175857D01*
X2341646Y2176537D01*
X2341415Y2177233D01*
X2341227Y2177942D01*
X2341077Y2178661D01*
X2340973Y2179385D01*
X2340907Y2180116D01*
X2340887Y2180848D01*
Y2215648D01*
X2340907Y2216380D01*
X2340973Y2217111D01*
X2341077Y2217835D01*
X2341227Y2218554D01*
X2341415Y2219263D01*
X2341646Y2219959D01*
X2341918Y2220639D01*
X2342228Y2221302D01*
X2342576Y2221948D01*
X2342959Y2222572D01*
X2343381Y2223174D01*
X2343836Y2223748D01*
X2344321Y2224295D01*
X2344842Y2224815D01*
X2345388Y2225300D01*
X2345962Y2225755D01*
X2346564Y2226177D01*
X2347186Y2226560D01*
X2347834Y2226908D01*
X2348497Y2227218D01*
X2349177Y2227490D01*
X2349873Y2227721D01*
X2350582Y2227909D01*
X2351301Y2228059D01*
X2352025Y2228163D01*
X2352756Y2228229D01*
X2353488Y2228249D01*
X2354219Y2228229D01*
D02*
G37*
G36*
X2602860Y2159573D02*
X2603591Y2159507D01*
X2604315Y2159403D01*
X2605034Y2159253D01*
X2605743Y2159065D01*
X2606439Y2158834D01*
X2607119Y2158562D01*
X2607782Y2158252D01*
X2608428Y2157904D01*
X2609052Y2157520D01*
X2609654Y2157099D01*
X2610228Y2156644D01*
X2610775Y2156159D01*
X2611295Y2155638D01*
X2611780Y2155092D01*
X2612235Y2154518D01*
X2612657Y2153916D01*
X2613040Y2153294D01*
X2613388Y2152646D01*
X2613698Y2151983D01*
X2613970Y2151303D01*
X2614201Y2150607D01*
X2614389Y2149898D01*
X2614539Y2149179D01*
X2614643Y2148455D01*
X2614709Y2147724D01*
X2614729Y2146992D01*
X2614709Y2146261D01*
X2614643Y2145529D01*
X2614539Y2144805D01*
X2614389Y2144086D01*
X2614201Y2143378D01*
X2613970Y2142682D01*
X2613698Y2142001D01*
X2613388Y2141338D01*
X2613040Y2140693D01*
X2612657Y2140068D01*
X2612235Y2139466D01*
X2611780Y2138892D01*
X2611295Y2138346D01*
X2610775Y2137825D01*
X2610228Y2137340D01*
X2609654Y2136885D01*
X2609052Y2136464D01*
X2608430Y2136080D01*
X2607782Y2135732D01*
X2607119Y2135422D01*
X2606439Y2135151D01*
X2605743Y2134920D01*
X2605034Y2134732D01*
X2604315Y2134582D01*
X2603591Y2134478D01*
X2602860Y2134412D01*
X2602128Y2134391D01*
X2567328D01*
X2566596Y2134412D01*
X2565865Y2134478D01*
X2565141Y2134582D01*
X2564422Y2134732D01*
X2563713Y2134920D01*
X2563017Y2135151D01*
X2562337Y2135422D01*
X2561674Y2135732D01*
X2561029Y2136080D01*
X2560404Y2136464D01*
X2559802Y2136885D01*
X2559228Y2137340D01*
X2558682Y2137825D01*
X2558161Y2138346D01*
X2557676Y2138892D01*
X2557221Y2139466D01*
X2556800Y2140068D01*
X2556416Y2140690D01*
X2556068Y2141338D01*
X2555758Y2142001D01*
X2555486Y2142682D01*
X2555255Y2143378D01*
X2555067Y2144086D01*
X2554917Y2144805D01*
X2554813Y2145529D01*
X2554747Y2146261D01*
X2554727Y2146992D01*
X2554747Y2147724D01*
X2554813Y2148455D01*
X2554917Y2149179D01*
X2555067Y2149898D01*
X2555255Y2150607D01*
X2555486Y2151303D01*
X2555758Y2151983D01*
X2556068Y2152646D01*
X2556416Y2153291D01*
X2556800Y2153916D01*
X2557221Y2154518D01*
X2557676Y2155092D01*
X2558161Y2155638D01*
X2558682Y2156159D01*
X2559228Y2156644D01*
X2559802Y2157099D01*
X2560404Y2157520D01*
X2561026Y2157904D01*
X2561674Y2158252D01*
X2562337Y2158562D01*
X2563017Y2158834D01*
X2563713Y2159065D01*
X2564422Y2159253D01*
X2565141Y2159403D01*
X2565865Y2159507D01*
X2566596Y2159573D01*
X2567328Y2159593D01*
X2602128D01*
X2602860Y2159573D01*
D02*
G37*
G36*
X2320361D02*
X2321093Y2159507D01*
X2321817Y2159403D01*
X2322535Y2159253D01*
X2323244Y2159065D01*
X2323940Y2158834D01*
X2324621Y2158562D01*
X2325284Y2158252D01*
X2325929Y2157904D01*
X2326554Y2157520D01*
X2327156Y2157099D01*
X2327730Y2156644D01*
X2328276Y2156159D01*
X2328796Y2155638D01*
X2329282Y2155092D01*
X2329736Y2154518D01*
X2330158Y2153916D01*
X2330541Y2153294D01*
X2330889Y2152646D01*
X2331199Y2151983D01*
X2331471Y2151303D01*
X2331702Y2150607D01*
X2331890Y2149898D01*
X2332040Y2149179D01*
X2332144Y2148455D01*
X2332210Y2147724D01*
X2332231Y2146992D01*
X2332210Y2146261D01*
X2332144Y2145529D01*
X2332040Y2144805D01*
X2331890Y2144086D01*
X2331702Y2143378D01*
X2331471Y2142682D01*
X2331199Y2142001D01*
X2330889Y2141338D01*
X2330541Y2140693D01*
X2330158Y2140068D01*
X2329736Y2139466D01*
X2329282Y2138892D01*
X2328796Y2138346D01*
X2328276Y2137825D01*
X2327730Y2137340D01*
X2327156Y2136885D01*
X2326554Y2136464D01*
X2325931Y2136080D01*
X2325284Y2135732D01*
X2324621Y2135422D01*
X2323940Y2135151D01*
X2323244Y2134920D01*
X2322535Y2134732D01*
X2321817Y2134582D01*
X2321093Y2134478D01*
X2320361Y2134412D01*
X2319630Y2134391D01*
X2284832D01*
X2284100Y2134412D01*
X2283369Y2134478D01*
X2282645Y2134582D01*
X2281926Y2134732D01*
X2281217Y2134920D01*
X2280521Y2135151D01*
X2279840Y2135422D01*
X2279178Y2135732D01*
X2278532Y2136080D01*
X2277908Y2136464D01*
X2277306Y2136885D01*
X2276732Y2137340D01*
X2276185Y2137825D01*
X2275665Y2138346D01*
X2275180Y2138892D01*
X2274725Y2139466D01*
X2274303Y2140068D01*
X2273920Y2140690D01*
X2273572Y2141338D01*
X2273262Y2142001D01*
X2272990Y2142682D01*
X2272759Y2143378D01*
X2272571Y2144086D01*
X2272421Y2144805D01*
X2272317Y2145529D01*
X2272251Y2146261D01*
X2272231Y2146992D01*
X2272251Y2147724D01*
X2272317Y2148455D01*
X2272421Y2149179D01*
X2272571Y2149898D01*
X2272759Y2150607D01*
X2272990Y2151303D01*
X2273262Y2151983D01*
X2273572Y2152646D01*
X2273920Y2153291D01*
X2274303Y2153916D01*
X2274725Y2154518D01*
X2275180Y2155092D01*
X2275665Y2155638D01*
X2276185Y2156159D01*
X2276732Y2156644D01*
X2277306Y2157099D01*
X2277908Y2157520D01*
X2278530Y2157904D01*
X2279178Y2158252D01*
X2279840Y2158562D01*
X2280521Y2158834D01*
X2281217Y2159065D01*
X2281926Y2159253D01*
X2282645Y2159403D01*
X2283369Y2159507D01*
X2284100Y2159573D01*
X2284832Y2159593D01*
X2319630D01*
X2320361Y2159573D01*
D02*
G37*
G36*
X2602860Y2114589D02*
X2603591Y2114523D01*
X2604315Y2114419D01*
X2605034Y2114269D01*
X2605743Y2114081D01*
X2606439Y2113850D01*
X2607119Y2113578D01*
X2607782Y2113269D01*
X2608428Y2112921D01*
X2609052Y2112537D01*
X2609654Y2112115D01*
X2610228Y2111661D01*
X2610775Y2111176D01*
X2611295Y2110655D01*
X2611780Y2110109D01*
X2612235Y2109535D01*
X2612657Y2108933D01*
X2613040Y2108310D01*
X2613388Y2107663D01*
X2613698Y2107000D01*
X2613970Y2106319D01*
X2614201Y2105623D01*
X2614389Y2104915D01*
X2614539Y2104196D01*
X2614643Y2103472D01*
X2614709Y2102740D01*
X2614729Y2102009D01*
X2614709Y2101277D01*
X2614643Y2100546D01*
X2614539Y2099822D01*
X2614389Y2099103D01*
X2614201Y2098394D01*
X2613970Y2097698D01*
X2613698Y2097018D01*
X2613388Y2096355D01*
X2613040Y2095710D01*
X2612657Y2095085D01*
X2612235Y2094483D01*
X2611780Y2093909D01*
X2611295Y2093363D01*
X2610775Y2092842D01*
X2610228Y2092357D01*
X2609654Y2091902D01*
X2609052Y2091480D01*
X2608430Y2091097D01*
X2607782Y2090749D01*
X2607119Y2090439D01*
X2606439Y2090167D01*
X2605743Y2089936D01*
X2605034Y2089748D01*
X2604315Y2089598D01*
X2603591Y2089494D01*
X2602860Y2089428D01*
X2602128Y2089408D01*
X2567328D01*
X2566596Y2089428D01*
X2565865Y2089494D01*
X2565141Y2089598D01*
X2564422Y2089748D01*
X2563713Y2089936D01*
X2563017Y2090167D01*
X2562337Y2090439D01*
X2561674Y2090749D01*
X2561029Y2091097D01*
X2560404Y2091480D01*
X2559802Y2091902D01*
X2559228Y2092357D01*
X2558682Y2092842D01*
X2558161Y2093363D01*
X2557676Y2093909D01*
X2557221Y2094483D01*
X2556800Y2095085D01*
X2556416Y2095707D01*
X2556068Y2096355D01*
X2555758Y2097018D01*
X2555486Y2097698D01*
X2555255Y2098394D01*
X2555067Y2099103D01*
X2554917Y2099822D01*
X2554813Y2100546D01*
X2554747Y2101277D01*
X2554727Y2102009D01*
X2554747Y2102740D01*
X2554813Y2103472D01*
X2554917Y2104196D01*
X2555067Y2104915D01*
X2555255Y2105623D01*
X2555486Y2106319D01*
X2555758Y2107000D01*
X2556068Y2107663D01*
X2556416Y2108308D01*
X2556800Y2108933D01*
X2557221Y2109535D01*
X2557676Y2110109D01*
X2558161Y2110655D01*
X2558682Y2111176D01*
X2559228Y2111661D01*
X2559802Y2112115D01*
X2560404Y2112537D01*
X2561026Y2112921D01*
X2561674Y2113269D01*
X2562337Y2113578D01*
X2563017Y2113850D01*
X2563713Y2114081D01*
X2564422Y2114269D01*
X2565141Y2114419D01*
X2565865Y2114523D01*
X2566596Y2114589D01*
X2567328Y2114610D01*
X2602128D01*
X2602860Y2114589D01*
D02*
G37*
G36*
X2320361D02*
X2321093Y2114523D01*
X2321817Y2114419D01*
X2322535Y2114269D01*
X2323244Y2114081D01*
X2323940Y2113850D01*
X2324621Y2113578D01*
X2325284Y2113269D01*
X2325929Y2112921D01*
X2326554Y2112537D01*
X2327156Y2112115D01*
X2327730Y2111661D01*
X2328276Y2111176D01*
X2328796Y2110655D01*
X2329282Y2110109D01*
X2329736Y2109535D01*
X2330158Y2108933D01*
X2330541Y2108310D01*
X2330889Y2107663D01*
X2331199Y2107000D01*
X2331471Y2106319D01*
X2331702Y2105623D01*
X2331890Y2104915D01*
X2332040Y2104196D01*
X2332144Y2103472D01*
X2332210Y2102740D01*
X2332231Y2102009D01*
X2332210Y2101277D01*
X2332144Y2100546D01*
X2332040Y2099822D01*
X2331890Y2099103D01*
X2331702Y2098394D01*
X2331471Y2097698D01*
X2331199Y2097018D01*
X2330889Y2096355D01*
X2330541Y2095710D01*
X2330158Y2095085D01*
X2329736Y2094483D01*
X2329282Y2093909D01*
X2328796Y2093363D01*
X2328276Y2092842D01*
X2327730Y2092357D01*
X2327156Y2091902D01*
X2326554Y2091480D01*
X2325931Y2091097D01*
X2325284Y2090749D01*
X2324621Y2090439D01*
X2323940Y2090167D01*
X2323244Y2089936D01*
X2322535Y2089748D01*
X2321817Y2089598D01*
X2321093Y2089494D01*
X2320361Y2089428D01*
X2319630Y2089408D01*
X2284832D01*
X2284100Y2089428D01*
X2283369Y2089494D01*
X2282645Y2089598D01*
X2281926Y2089748D01*
X2281217Y2089936D01*
X2280521Y2090167D01*
X2279840Y2090439D01*
X2279178Y2090749D01*
X2278532Y2091097D01*
X2277908Y2091480D01*
X2277306Y2091902D01*
X2276732Y2092357D01*
X2276185Y2092842D01*
X2275665Y2093363D01*
X2275180Y2093909D01*
X2274725Y2094483D01*
X2274303Y2095085D01*
X2273920Y2095707D01*
X2273572Y2096355D01*
X2273262Y2097018D01*
X2272990Y2097698D01*
X2272759Y2098394D01*
X2272571Y2099103D01*
X2272421Y2099822D01*
X2272317Y2100546D01*
X2272251Y2101277D01*
X2272231Y2102009D01*
X2272251Y2102740D01*
X2272317Y2103472D01*
X2272421Y2104196D01*
X2272571Y2104915D01*
X2272759Y2105623D01*
X2272990Y2106319D01*
X2273262Y2107000D01*
X2273572Y2107663D01*
X2273920Y2108308D01*
X2274303Y2108933D01*
X2274725Y2109535D01*
X2275180Y2110109D01*
X2275665Y2110655D01*
X2276185Y2111176D01*
X2276732Y2111661D01*
X2277306Y2112115D01*
X2277908Y2112537D01*
X2278530Y2112921D01*
X2279178Y2113269D01*
X2279840Y2113578D01*
X2280521Y2113850D01*
X2281217Y2114081D01*
X2281926Y2114269D01*
X2282645Y2114419D01*
X2283369Y2114523D01*
X2284100Y2114589D01*
X2284832Y2114610D01*
X2319630D01*
X2320361Y2114589D01*
D02*
G37*
G36*
X2602860Y2069581D02*
X2603591Y2069515D01*
X2604315Y2069410D01*
X2605034Y2069261D01*
X2605743Y2069073D01*
X2606439Y2068841D01*
X2607119Y2068570D01*
X2607782Y2068260D01*
X2608428Y2067912D01*
X2609052Y2067528D01*
X2609654Y2067107D01*
X2610228Y2066652D01*
X2610775Y2066167D01*
X2611295Y2065646D01*
X2611780Y2065100D01*
X2612235Y2064526D01*
X2612657Y2063924D01*
X2613040Y2063302D01*
X2613388Y2062654D01*
X2613698Y2061991D01*
X2613970Y2061310D01*
X2614201Y2060614D01*
X2614389Y2059906D01*
X2614539Y2059187D01*
X2614643Y2058463D01*
X2614709Y2057731D01*
X2614729Y2057000D01*
X2614709Y2056268D01*
X2614643Y2055537D01*
X2614539Y2054813D01*
X2614389Y2054094D01*
X2614201Y2053386D01*
X2613970Y2052690D01*
X2613698Y2052009D01*
X2613388Y2051346D01*
X2613040Y2050701D01*
X2612657Y2050076D01*
X2612235Y2049474D01*
X2611780Y2048900D01*
X2611295Y2048354D01*
X2610775Y2047833D01*
X2610228Y2047348D01*
X2609654Y2046893D01*
X2609052Y2046472D01*
X2608430Y2046088D01*
X2607782Y2045740D01*
X2607119Y2045430D01*
X2606439Y2045158D01*
X2605743Y2044927D01*
X2605034Y2044739D01*
X2604315Y2044590D01*
X2603591Y2044485D01*
X2602860Y2044419D01*
X2602128Y2044399D01*
X2567328D01*
X2566596Y2044419D01*
X2565865Y2044485D01*
X2565141Y2044590D01*
X2564422Y2044739D01*
X2563713Y2044927D01*
X2563017Y2045158D01*
X2562337Y2045430D01*
X2561674Y2045740D01*
X2561029Y2046088D01*
X2560404Y2046472D01*
X2559802Y2046893D01*
X2559228Y2047348D01*
X2558682Y2047833D01*
X2558161Y2048354D01*
X2557676Y2048900D01*
X2557221Y2049474D01*
X2556800Y2050076D01*
X2556416Y2050698D01*
X2556068Y2051346D01*
X2555758Y2052009D01*
X2555486Y2052690D01*
X2555255Y2053386D01*
X2555067Y2054094D01*
X2554917Y2054813D01*
X2554813Y2055537D01*
X2554747Y2056268D01*
X2554727Y2057000D01*
X2554747Y2057731D01*
X2554813Y2058463D01*
X2554917Y2059187D01*
X2555067Y2059906D01*
X2555255Y2060614D01*
X2555486Y2061310D01*
X2555758Y2061991D01*
X2556068Y2062654D01*
X2556416Y2063299D01*
X2556800Y2063924D01*
X2557221Y2064526D01*
X2557676Y2065100D01*
X2558161Y2065646D01*
X2558682Y2066167D01*
X2559228Y2066652D01*
X2559802Y2067107D01*
X2560404Y2067528D01*
X2561026Y2067912D01*
X2561674Y2068260D01*
X2562337Y2068570D01*
X2563017Y2068841D01*
X2563713Y2069073D01*
X2564422Y2069261D01*
X2565141Y2069410D01*
X2565865Y2069515D01*
X2566596Y2069581D01*
X2567328Y2069601D01*
X2602128D01*
X2602860Y2069581D01*
D02*
G37*
G36*
X2320361D02*
X2321093Y2069515D01*
X2321817Y2069410D01*
X2322535Y2069261D01*
X2323244Y2069073D01*
X2323940Y2068841D01*
X2324621Y2068570D01*
X2325284Y2068260D01*
X2325929Y2067912D01*
X2326554Y2067528D01*
X2327156Y2067107D01*
X2327730Y2066652D01*
X2328276Y2066167D01*
X2328796Y2065646D01*
X2329282Y2065100D01*
X2329736Y2064526D01*
X2330158Y2063924D01*
X2330541Y2063302D01*
X2330889Y2062654D01*
X2331199Y2061991D01*
X2331471Y2061310D01*
X2331702Y2060614D01*
X2331890Y2059906D01*
X2332040Y2059187D01*
X2332144Y2058463D01*
X2332210Y2057731D01*
X2332231Y2057000D01*
X2332210Y2056268D01*
X2332144Y2055537D01*
X2332040Y2054813D01*
X2331890Y2054094D01*
X2331702Y2053386D01*
X2331471Y2052690D01*
X2331199Y2052009D01*
X2330889Y2051346D01*
X2330541Y2050701D01*
X2330158Y2050076D01*
X2329736Y2049474D01*
X2329282Y2048900D01*
X2328796Y2048354D01*
X2328276Y2047833D01*
X2327730Y2047348D01*
X2327156Y2046893D01*
X2326554Y2046472D01*
X2325931Y2046088D01*
X2325284Y2045740D01*
X2324621Y2045430D01*
X2323940Y2045158D01*
X2323244Y2044927D01*
X2322535Y2044739D01*
X2321817Y2044590D01*
X2321093Y2044485D01*
X2320361Y2044419D01*
X2319630Y2044399D01*
X2284832D01*
X2284100Y2044419D01*
X2283369Y2044485D01*
X2282645Y2044590D01*
X2281926Y2044739D01*
X2281217Y2044927D01*
X2280521Y2045158D01*
X2279840Y2045430D01*
X2279178Y2045740D01*
X2278532Y2046088D01*
X2277908Y2046472D01*
X2277306Y2046893D01*
X2276732Y2047348D01*
X2276185Y2047833D01*
X2275665Y2048354D01*
X2275180Y2048900D01*
X2274725Y2049474D01*
X2274303Y2050076D01*
X2273920Y2050698D01*
X2273572Y2051346D01*
X2273262Y2052009D01*
X2272990Y2052690D01*
X2272759Y2053386D01*
X2272571Y2054094D01*
X2272421Y2054813D01*
X2272317Y2055537D01*
X2272251Y2056268D01*
X2272231Y2057000D01*
X2272251Y2057731D01*
X2272317Y2058463D01*
X2272421Y2059187D01*
X2272571Y2059906D01*
X2272759Y2060614D01*
X2272990Y2061310D01*
X2273262Y2061991D01*
X2273572Y2062654D01*
X2273920Y2063299D01*
X2274303Y2063924D01*
X2274725Y2064526D01*
X2275180Y2065100D01*
X2275665Y2065646D01*
X2276185Y2066167D01*
X2276732Y2066652D01*
X2277306Y2067107D01*
X2277908Y2067528D01*
X2278530Y2067912D01*
X2279178Y2068260D01*
X2279840Y2068570D01*
X2280521Y2068841D01*
X2281217Y2069073D01*
X2281926Y2069261D01*
X2282645Y2069410D01*
X2283369Y2069515D01*
X2284100Y2069581D01*
X2284832Y2069601D01*
X2319630D01*
X2320361Y2069581D01*
D02*
G37*
G36*
X2489279Y2008950D02*
X2396681D01*
Y2106450D01*
X2489279D01*
Y2008950D01*
D02*
G37*
G36*
X2602860Y2024572D02*
X2603591Y2024506D01*
X2604315Y2024402D01*
X2605034Y2024252D01*
X2605743Y2024064D01*
X2606439Y2023833D01*
X2607119Y2023561D01*
X2607782Y2023251D01*
X2608428Y2022903D01*
X2609052Y2022519D01*
X2609654Y2022098D01*
X2610228Y2021643D01*
X2610775Y2021158D01*
X2611295Y2020637D01*
X2611780Y2020091D01*
X2612235Y2019517D01*
X2612657Y2018915D01*
X2613040Y2018293D01*
X2613388Y2017645D01*
X2613698Y2016982D01*
X2613970Y2016302D01*
X2614201Y2015606D01*
X2614389Y2014897D01*
X2614539Y2014178D01*
X2614643Y2013454D01*
X2614709Y2012723D01*
X2614729Y2011991D01*
X2614709Y2011260D01*
X2614643Y2010528D01*
X2614539Y2009804D01*
X2614389Y2009085D01*
X2614201Y2008377D01*
X2613970Y2007681D01*
X2613698Y2007000D01*
X2613388Y2006337D01*
X2613040Y2005692D01*
X2612657Y2005067D01*
X2612235Y2004465D01*
X2611780Y2003891D01*
X2611295Y2003345D01*
X2610775Y2002824D01*
X2610228Y2002339D01*
X2609654Y2001884D01*
X2609052Y2001463D01*
X2608430Y2001079D01*
X2607782Y2000731D01*
X2607119Y2000421D01*
X2606439Y2000150D01*
X2605743Y1999919D01*
X2605034Y1999731D01*
X2604315Y1999581D01*
X2603591Y1999477D01*
X2602860Y1999411D01*
X2602128Y1999390D01*
X2567328D01*
X2566596Y1999411D01*
X2565865Y1999477D01*
X2565141Y1999581D01*
X2564422Y1999731D01*
X2563713Y1999919D01*
X2563017Y2000150D01*
X2562337Y2000421D01*
X2561674Y2000731D01*
X2561029Y2001079D01*
X2560404Y2001463D01*
X2559802Y2001884D01*
X2559228Y2002339D01*
X2558682Y2002824D01*
X2558161Y2003345D01*
X2557676Y2003891D01*
X2557221Y2004465D01*
X2556800Y2005067D01*
X2556416Y2005689D01*
X2556068Y2006337D01*
X2555758Y2007000D01*
X2555486Y2007681D01*
X2555255Y2008377D01*
X2555067Y2009085D01*
X2554917Y2009804D01*
X2554813Y2010528D01*
X2554747Y2011260D01*
X2554727Y2011991D01*
X2554747Y2012723D01*
X2554813Y2013454D01*
X2554917Y2014178D01*
X2555067Y2014897D01*
X2555255Y2015606D01*
X2555486Y2016302D01*
X2555758Y2016982D01*
X2556068Y2017645D01*
X2556416Y2018290D01*
X2556800Y2018915D01*
X2557221Y2019517D01*
X2557676Y2020091D01*
X2558161Y2020637D01*
X2558682Y2021158D01*
X2559228Y2021643D01*
X2559802Y2022098D01*
X2560404Y2022519D01*
X2561026Y2022903D01*
X2561674Y2023251D01*
X2562337Y2023561D01*
X2563017Y2023833D01*
X2563713Y2024064D01*
X2564422Y2024252D01*
X2565141Y2024402D01*
X2565865Y2024506D01*
X2566596Y2024572D01*
X2567328Y2024592D01*
X2602128D01*
X2602860Y2024572D01*
D02*
G37*
G36*
X2320361D02*
X2321093Y2024506D01*
X2321817Y2024402D01*
X2322535Y2024252D01*
X2323244Y2024064D01*
X2323940Y2023833D01*
X2324621Y2023561D01*
X2325284Y2023251D01*
X2325929Y2022903D01*
X2326554Y2022519D01*
X2327156Y2022098D01*
X2327730Y2021643D01*
X2328276Y2021158D01*
X2328796Y2020637D01*
X2329282Y2020091D01*
X2329736Y2019517D01*
X2330158Y2018915D01*
X2330541Y2018293D01*
X2330889Y2017645D01*
X2331199Y2016982D01*
X2331471Y2016302D01*
X2331702Y2015606D01*
X2331890Y2014897D01*
X2332040Y2014178D01*
X2332144Y2013454D01*
X2332210Y2012723D01*
X2332231Y2011991D01*
X2332210Y2011260D01*
X2332144Y2010528D01*
X2332040Y2009804D01*
X2331890Y2009085D01*
X2331702Y2008377D01*
X2331471Y2007681D01*
X2331199Y2007000D01*
X2330889Y2006337D01*
X2330541Y2005692D01*
X2330158Y2005067D01*
X2329736Y2004465D01*
X2329282Y2003891D01*
X2328796Y2003345D01*
X2328276Y2002824D01*
X2327730Y2002339D01*
X2327156Y2001884D01*
X2326554Y2001463D01*
X2325931Y2001079D01*
X2325284Y2000731D01*
X2324621Y2000421D01*
X2323940Y2000150D01*
X2323244Y1999919D01*
X2322535Y1999731D01*
X2321817Y1999581D01*
X2321093Y1999477D01*
X2320361Y1999411D01*
X2319630Y1999390D01*
X2284832D01*
X2284100Y1999411D01*
X2283369Y1999477D01*
X2282645Y1999581D01*
X2281926Y1999731D01*
X2281217Y1999919D01*
X2280521Y2000150D01*
X2279840Y2000421D01*
X2279178Y2000731D01*
X2278532Y2001079D01*
X2277908Y2001463D01*
X2277306Y2001884D01*
X2276732Y2002339D01*
X2276185Y2002824D01*
X2275665Y2003345D01*
X2275180Y2003891D01*
X2274725Y2004465D01*
X2274303Y2005067D01*
X2273920Y2005689D01*
X2273572Y2006337D01*
X2273262Y2007000D01*
X2272990Y2007681D01*
X2272759Y2008377D01*
X2272571Y2009085D01*
X2272421Y2009804D01*
X2272317Y2010528D01*
X2272251Y2011260D01*
X2272231Y2011991D01*
X2272251Y2012723D01*
X2272317Y2013454D01*
X2272421Y2014178D01*
X2272571Y2014897D01*
X2272759Y2015606D01*
X2272990Y2016302D01*
X2273262Y2016982D01*
X2273572Y2017645D01*
X2273920Y2018290D01*
X2274303Y2018915D01*
X2274725Y2019517D01*
X2275180Y2020091D01*
X2275665Y2020637D01*
X2276185Y2021158D01*
X2276732Y2021643D01*
X2277306Y2022098D01*
X2277908Y2022519D01*
X2278530Y2022903D01*
X2279178Y2023251D01*
X2279840Y2023561D01*
X2280521Y2023833D01*
X2281217Y2024064D01*
X2281926Y2024252D01*
X2282645Y2024402D01*
X2283369Y2024506D01*
X2284100Y2024572D01*
X2284832Y2024592D01*
X2319630D01*
X2320361Y2024572D01*
D02*
G37*
G36*
X2602860Y1979588D02*
X2603591Y1979522D01*
X2604315Y1979418D01*
X2605034Y1979268D01*
X2605743Y1979080D01*
X2606439Y1978849D01*
X2607119Y1978577D01*
X2607782Y1978268D01*
X2608428Y1977920D01*
X2609052Y1977536D01*
X2609654Y1977114D01*
X2610228Y1976660D01*
X2610775Y1976175D01*
X2611295Y1975654D01*
X2611780Y1975108D01*
X2612235Y1974534D01*
X2612657Y1973932D01*
X2613040Y1973309D01*
X2613388Y1972662D01*
X2613698Y1971999D01*
X2613970Y1971318D01*
X2614201Y1970622D01*
X2614389Y1969914D01*
X2614539Y1969195D01*
X2614643Y1968471D01*
X2614709Y1967739D01*
X2614729Y1967008D01*
X2614709Y1966276D01*
X2614643Y1965545D01*
X2614539Y1964821D01*
X2614389Y1964102D01*
X2614201Y1963393D01*
X2613970Y1962697D01*
X2613698Y1962017D01*
X2613388Y1961354D01*
X2613040Y1960709D01*
X2612657Y1960084D01*
X2612235Y1959482D01*
X2611780Y1958908D01*
X2611295Y1958362D01*
X2610775Y1957841D01*
X2610228Y1957356D01*
X2609654Y1956901D01*
X2609052Y1956479D01*
X2608430Y1956096D01*
X2607782Y1955748D01*
X2607119Y1955438D01*
X2606439Y1955166D01*
X2605743Y1954935D01*
X2605034Y1954747D01*
X2604315Y1954597D01*
X2603591Y1954493D01*
X2602860Y1954427D01*
X2602128Y1954407D01*
X2567328D01*
X2566596Y1954427D01*
X2565865Y1954493D01*
X2565141Y1954597D01*
X2564422Y1954747D01*
X2563713Y1954935D01*
X2563017Y1955166D01*
X2562337Y1955438D01*
X2561674Y1955748D01*
X2561029Y1956096D01*
X2560404Y1956479D01*
X2559802Y1956901D01*
X2559228Y1957356D01*
X2558682Y1957841D01*
X2558161Y1958362D01*
X2557676Y1958908D01*
X2557221Y1959482D01*
X2556800Y1960084D01*
X2556416Y1960706D01*
X2556068Y1961354D01*
X2555758Y1962017D01*
X2555486Y1962697D01*
X2555255Y1963393D01*
X2555067Y1964102D01*
X2554917Y1964821D01*
X2554813Y1965545D01*
X2554747Y1966276D01*
X2554727Y1967008D01*
X2554747Y1967739D01*
X2554813Y1968471D01*
X2554917Y1969195D01*
X2555067Y1969914D01*
X2555255Y1970622D01*
X2555486Y1971318D01*
X2555758Y1971999D01*
X2556068Y1972662D01*
X2556416Y1973307D01*
X2556800Y1973932D01*
X2557221Y1974534D01*
X2557676Y1975108D01*
X2558161Y1975654D01*
X2558682Y1976175D01*
X2559228Y1976660D01*
X2559802Y1977114D01*
X2560404Y1977536D01*
X2561026Y1977920D01*
X2561674Y1978268D01*
X2562337Y1978577D01*
X2563017Y1978849D01*
X2563713Y1979080D01*
X2564422Y1979268D01*
X2565141Y1979418D01*
X2565865Y1979522D01*
X2566596Y1979588D01*
X2567328Y1979609D01*
X2602128D01*
X2602860Y1979588D01*
D02*
G37*
G36*
X2320361D02*
X2321093Y1979522D01*
X2321817Y1979418D01*
X2322535Y1979268D01*
X2323244Y1979080D01*
X2323940Y1978849D01*
X2324621Y1978577D01*
X2325284Y1978268D01*
X2325929Y1977920D01*
X2326554Y1977536D01*
X2327156Y1977114D01*
X2327730Y1976660D01*
X2328276Y1976175D01*
X2328796Y1975654D01*
X2329282Y1975108D01*
X2329736Y1974534D01*
X2330158Y1973932D01*
X2330541Y1973309D01*
X2330889Y1972662D01*
X2331199Y1971999D01*
X2331471Y1971318D01*
X2331702Y1970622D01*
X2331890Y1969914D01*
X2332040Y1969195D01*
X2332144Y1968471D01*
X2332210Y1967739D01*
X2332231Y1967008D01*
X2332210Y1966276D01*
X2332144Y1965545D01*
X2332040Y1964821D01*
X2331890Y1964102D01*
X2331702Y1963393D01*
X2331471Y1962697D01*
X2331199Y1962017D01*
X2330889Y1961354D01*
X2330541Y1960709D01*
X2330158Y1960084D01*
X2329736Y1959482D01*
X2329282Y1958908D01*
X2328796Y1958362D01*
X2328276Y1957841D01*
X2327730Y1957356D01*
X2327156Y1956901D01*
X2326554Y1956479D01*
X2325931Y1956096D01*
X2325284Y1955748D01*
X2324621Y1955438D01*
X2323940Y1955166D01*
X2323244Y1954935D01*
X2322535Y1954747D01*
X2321817Y1954597D01*
X2321093Y1954493D01*
X2320361Y1954427D01*
X2319630Y1954407D01*
X2284832D01*
X2284100Y1954427D01*
X2283369Y1954493D01*
X2282645Y1954597D01*
X2281926Y1954747D01*
X2281217Y1954935D01*
X2280521Y1955166D01*
X2279840Y1955438D01*
X2279178Y1955748D01*
X2278532Y1956096D01*
X2277908Y1956479D01*
X2277306Y1956901D01*
X2276732Y1957356D01*
X2276185Y1957841D01*
X2275665Y1958362D01*
X2275180Y1958908D01*
X2274725Y1959482D01*
X2274303Y1960084D01*
X2273920Y1960706D01*
X2273572Y1961354D01*
X2273262Y1962017D01*
X2272990Y1962697D01*
X2272759Y1963393D01*
X2272571Y1964102D01*
X2272421Y1964821D01*
X2272317Y1965545D01*
X2272251Y1966276D01*
X2272231Y1967008D01*
X2272251Y1967739D01*
X2272317Y1968471D01*
X2272421Y1969195D01*
X2272571Y1969914D01*
X2272759Y1970622D01*
X2272990Y1971318D01*
X2273262Y1971999D01*
X2273572Y1972662D01*
X2273920Y1973307D01*
X2274303Y1973932D01*
X2274725Y1974534D01*
X2275180Y1975108D01*
X2275665Y1975654D01*
X2276185Y1976175D01*
X2276732Y1976660D01*
X2277306Y1977114D01*
X2277908Y1977536D01*
X2278530Y1977920D01*
X2279178Y1978268D01*
X2279840Y1978577D01*
X2280521Y1978849D01*
X2281217Y1979080D01*
X2281926Y1979268D01*
X2282645Y1979418D01*
X2283369Y1979522D01*
X2284100Y1979588D01*
X2284832Y1979609D01*
X2319630D01*
X2320361Y1979588D01*
D02*
G37*
G36*
X2534204Y1945730D02*
X2534935Y1945664D01*
X2535659Y1945560D01*
X2536378Y1945410D01*
X2537087Y1945222D01*
X2537783Y1944991D01*
X2538463Y1944719D01*
X2539126Y1944409D01*
X2539771Y1944061D01*
X2540396Y1943678D01*
X2540998Y1943256D01*
X2541572Y1942802D01*
X2542118Y1942316D01*
X2542639Y1941796D01*
X2543124Y1941250D01*
X2543579Y1940676D01*
X2544000Y1940074D01*
X2544384Y1939451D01*
X2544732Y1938804D01*
X2545042Y1938141D01*
X2545314Y1937460D01*
X2545545Y1936764D01*
X2545733Y1936055D01*
X2545883Y1935336D01*
X2545987Y1934613D01*
X2546053Y1933881D01*
X2546073Y1933150D01*
Y1898352D01*
X2546053Y1897620D01*
X2545987Y1896889D01*
X2545883Y1896165D01*
X2545733Y1895446D01*
X2545545Y1894737D01*
X2545314Y1894041D01*
X2545042Y1893360D01*
X2544732Y1892698D01*
X2544384Y1892050D01*
X2544000Y1891428D01*
X2543579Y1890826D01*
X2543124Y1890251D01*
X2542639Y1889705D01*
X2542118Y1889185D01*
X2541572Y1888700D01*
X2540998Y1888245D01*
X2540396Y1887823D01*
X2539771Y1887440D01*
X2539126Y1887092D01*
X2538463Y1886782D01*
X2537783Y1886510D01*
X2537087Y1886279D01*
X2536378Y1886091D01*
X2535659Y1885941D01*
X2534935Y1885837D01*
X2534204Y1885771D01*
X2533472Y1885751D01*
X2532741Y1885771D01*
X2532009Y1885837D01*
X2531285Y1885941D01*
X2530566Y1886091D01*
X2529858Y1886279D01*
X2529162Y1886510D01*
X2528481Y1886782D01*
X2527818Y1887092D01*
X2527170Y1887440D01*
X2526548Y1887823D01*
X2525946Y1888245D01*
X2525372Y1888700D01*
X2524826Y1889185D01*
X2524305Y1889705D01*
X2523820Y1890251D01*
X2523366Y1890826D01*
X2522944Y1891428D01*
X2522560Y1892052D01*
X2522212Y1892698D01*
X2521902Y1893360D01*
X2521631Y1894041D01*
X2521400Y1894737D01*
X2521212Y1895446D01*
X2521062Y1896165D01*
X2520958Y1896889D01*
X2520892Y1897620D01*
X2520871Y1898352D01*
Y1933150D01*
X2520892Y1933881D01*
X2520958Y1934613D01*
X2521062Y1935336D01*
X2521212Y1936055D01*
X2521400Y1936764D01*
X2521631Y1937460D01*
X2521902Y1938141D01*
X2522212Y1938804D01*
X2522560Y1939449D01*
X2522944Y1940074D01*
X2523366Y1940676D01*
X2523820Y1941250D01*
X2524305Y1941796D01*
X2524826Y1942316D01*
X2525372Y1942802D01*
X2525946Y1943256D01*
X2526548Y1943678D01*
X2527170Y1944061D01*
X2527818Y1944409D01*
X2528481Y1944719D01*
X2529162Y1944991D01*
X2529858Y1945222D01*
X2530566Y1945410D01*
X2531285Y1945560D01*
X2532009Y1945664D01*
X2532741Y1945730D01*
X2533472Y1945750D01*
X2534204Y1945730D01*
D02*
G37*
G36*
X2489220D02*
X2489952Y1945664D01*
X2490676Y1945560D01*
X2491395Y1945410D01*
X2492103Y1945222D01*
X2492799Y1944991D01*
X2493480Y1944719D01*
X2494143Y1944409D01*
X2494788Y1944061D01*
X2495413Y1943678D01*
X2496015Y1943256D01*
X2496589Y1942802D01*
X2497135Y1942316D01*
X2497656Y1941796D01*
X2498141Y1941250D01*
X2498595Y1940676D01*
X2499017Y1940074D01*
X2499401Y1939451D01*
X2499749Y1938804D01*
X2500058Y1938141D01*
X2500330Y1937460D01*
X2500561Y1936764D01*
X2500749Y1936055D01*
X2500899Y1935336D01*
X2501003Y1934613D01*
X2501069Y1933881D01*
X2501090Y1933150D01*
Y1898352D01*
X2501069Y1897620D01*
X2501003Y1896889D01*
X2500899Y1896165D01*
X2500749Y1895446D01*
X2500561Y1894737D01*
X2500330Y1894041D01*
X2500058Y1893360D01*
X2499749Y1892698D01*
X2499401Y1892050D01*
X2499017Y1891428D01*
X2498595Y1890826D01*
X2498141Y1890251D01*
X2497656Y1889705D01*
X2497135Y1889185D01*
X2496589Y1888700D01*
X2496015Y1888245D01*
X2495413Y1887823D01*
X2494788Y1887440D01*
X2494143Y1887092D01*
X2493480Y1886782D01*
X2492799Y1886510D01*
X2492103Y1886279D01*
X2491395Y1886091D01*
X2490676Y1885941D01*
X2489952Y1885837D01*
X2489220Y1885771D01*
X2488489Y1885751D01*
X2487757Y1885771D01*
X2487026Y1885837D01*
X2486302Y1885941D01*
X2485583Y1886091D01*
X2484874Y1886279D01*
X2484178Y1886510D01*
X2483498Y1886782D01*
X2482835Y1887092D01*
X2482187Y1887440D01*
X2481565Y1887823D01*
X2480963Y1888245D01*
X2480389Y1888700D01*
X2479843Y1889185D01*
X2479322Y1889705D01*
X2478837Y1890251D01*
X2478382Y1890826D01*
X2477961Y1891428D01*
X2477577Y1892052D01*
X2477229Y1892698D01*
X2476919Y1893360D01*
X2476647Y1894041D01*
X2476416Y1894737D01*
X2476228Y1895446D01*
X2476078Y1896165D01*
X2475974Y1896889D01*
X2475908Y1897620D01*
X2475888Y1898352D01*
Y1933150D01*
X2475908Y1933881D01*
X2475974Y1934613D01*
X2476078Y1935336D01*
X2476228Y1936055D01*
X2476416Y1936764D01*
X2476647Y1937460D01*
X2476919Y1938141D01*
X2477229Y1938804D01*
X2477577Y1939449D01*
X2477961Y1940074D01*
X2478382Y1940676D01*
X2478837Y1941250D01*
X2479322Y1941796D01*
X2479843Y1942316D01*
X2480389Y1942802D01*
X2480963Y1943256D01*
X2481565Y1943678D01*
X2482187Y1944061D01*
X2482835Y1944409D01*
X2483498Y1944719D01*
X2484178Y1944991D01*
X2484874Y1945222D01*
X2485583Y1945410D01*
X2486302Y1945560D01*
X2487026Y1945664D01*
X2487757Y1945730D01*
X2488489Y1945750D01*
X2489220Y1945730D01*
D02*
G37*
G36*
X2444212D02*
X2444943Y1945664D01*
X2445667Y1945560D01*
X2446386Y1945410D01*
X2447094Y1945222D01*
X2447790Y1944991D01*
X2448471Y1944719D01*
X2449134Y1944409D01*
X2449779Y1944061D01*
X2450404Y1943678D01*
X2451006Y1943256D01*
X2451580Y1942802D01*
X2452126Y1942316D01*
X2452647Y1941796D01*
X2453132Y1941250D01*
X2453587Y1940676D01*
X2454008Y1940074D01*
X2454392Y1939451D01*
X2454740Y1938804D01*
X2455050Y1938141D01*
X2455321Y1937460D01*
X2455553Y1936764D01*
X2455741Y1936055D01*
X2455890Y1935336D01*
X2455995Y1934613D01*
X2456061Y1933881D01*
X2456081Y1933150D01*
Y1898352D01*
X2456061Y1897620D01*
X2455995Y1896889D01*
X2455890Y1896165D01*
X2455741Y1895446D01*
X2455553Y1894737D01*
X2455321Y1894041D01*
X2455050Y1893360D01*
X2454740Y1892698D01*
X2454392Y1892050D01*
X2454008Y1891428D01*
X2453587Y1890826D01*
X2453132Y1890251D01*
X2452647Y1889705D01*
X2452126Y1889185D01*
X2451580Y1888700D01*
X2451006Y1888245D01*
X2450404Y1887823D01*
X2449779Y1887440D01*
X2449134Y1887092D01*
X2448471Y1886782D01*
X2447790Y1886510D01*
X2447094Y1886279D01*
X2446386Y1886091D01*
X2445667Y1885941D01*
X2444943Y1885837D01*
X2444212Y1885771D01*
X2443480Y1885751D01*
X2442748Y1885771D01*
X2442017Y1885837D01*
X2441293Y1885941D01*
X2440574Y1886091D01*
X2439866Y1886279D01*
X2439170Y1886510D01*
X2438489Y1886782D01*
X2437826Y1887092D01*
X2437178Y1887440D01*
X2436556Y1887823D01*
X2435954Y1888245D01*
X2435380Y1888700D01*
X2434834Y1889185D01*
X2434313Y1889705D01*
X2433828Y1890251D01*
X2433373Y1890826D01*
X2432952Y1891428D01*
X2432568Y1892052D01*
X2432220Y1892698D01*
X2431910Y1893360D01*
X2431639Y1894041D01*
X2431407Y1894737D01*
X2431219Y1895446D01*
X2431070Y1896165D01*
X2430965Y1896889D01*
X2430899Y1897620D01*
X2430879Y1898352D01*
Y1933150D01*
X2430899Y1933881D01*
X2430965Y1934613D01*
X2431070Y1935336D01*
X2431219Y1936055D01*
X2431407Y1936764D01*
X2431639Y1937460D01*
X2431910Y1938141D01*
X2432220Y1938804D01*
X2432568Y1939449D01*
X2432952Y1940074D01*
X2433373Y1940676D01*
X2433828Y1941250D01*
X2434313Y1941796D01*
X2434834Y1942316D01*
X2435380Y1942802D01*
X2435954Y1943256D01*
X2436556Y1943678D01*
X2437178Y1944061D01*
X2437826Y1944409D01*
X2438489Y1944719D01*
X2439170Y1944991D01*
X2439866Y1945222D01*
X2440574Y1945410D01*
X2441293Y1945560D01*
X2442017Y1945664D01*
X2442748Y1945730D01*
X2443480Y1945750D01*
X2444212Y1945730D01*
D02*
G37*
G36*
X2399203D02*
X2399934Y1945664D01*
X2400658Y1945560D01*
X2401377Y1945410D01*
X2402086Y1945222D01*
X2402782Y1944991D01*
X2403462Y1944719D01*
X2404125Y1944409D01*
X2404770Y1944061D01*
X2405395Y1943678D01*
X2405997Y1943256D01*
X2406571Y1942802D01*
X2407117Y1942316D01*
X2407638Y1941796D01*
X2408123Y1941250D01*
X2408578Y1940676D01*
X2408999Y1940074D01*
X2409383Y1939451D01*
X2409731Y1938804D01*
X2410041Y1938141D01*
X2410313Y1937460D01*
X2410544Y1936764D01*
X2410732Y1936055D01*
X2410882Y1935336D01*
X2410986Y1934613D01*
X2411052Y1933881D01*
X2411072Y1933150D01*
Y1898352D01*
X2411052Y1897620D01*
X2410986Y1896889D01*
X2410882Y1896165D01*
X2410732Y1895446D01*
X2410544Y1894737D01*
X2410313Y1894041D01*
X2410041Y1893360D01*
X2409731Y1892698D01*
X2409383Y1892050D01*
X2408999Y1891428D01*
X2408578Y1890826D01*
X2408123Y1890251D01*
X2407638Y1889705D01*
X2407117Y1889185D01*
X2406571Y1888700D01*
X2405997Y1888245D01*
X2405395Y1887823D01*
X2404770Y1887440D01*
X2404125Y1887092D01*
X2403462Y1886782D01*
X2402782Y1886510D01*
X2402086Y1886279D01*
X2401377Y1886091D01*
X2400658Y1885941D01*
X2399934Y1885837D01*
X2399203Y1885771D01*
X2398471Y1885751D01*
X2397740Y1885771D01*
X2397008Y1885837D01*
X2396284Y1885941D01*
X2395565Y1886091D01*
X2394857Y1886279D01*
X2394161Y1886510D01*
X2393480Y1886782D01*
X2392817Y1887092D01*
X2392169Y1887440D01*
X2391547Y1887823D01*
X2390945Y1888245D01*
X2390371Y1888700D01*
X2389825Y1889185D01*
X2389304Y1889705D01*
X2388819Y1890251D01*
X2388365Y1890826D01*
X2387943Y1891428D01*
X2387559Y1892052D01*
X2387211Y1892698D01*
X2386902Y1893360D01*
X2386630Y1894041D01*
X2386399Y1894737D01*
X2386211Y1895446D01*
X2386061Y1896165D01*
X2385957Y1896889D01*
X2385891Y1897620D01*
X2385870Y1898352D01*
Y1933150D01*
X2385891Y1933881D01*
X2385957Y1934613D01*
X2386061Y1935336D01*
X2386211Y1936055D01*
X2386399Y1936764D01*
X2386630Y1937460D01*
X2386902Y1938141D01*
X2387211Y1938804D01*
X2387559Y1939449D01*
X2387943Y1940074D01*
X2388365Y1940676D01*
X2388819Y1941250D01*
X2389304Y1941796D01*
X2389825Y1942316D01*
X2390371Y1942802D01*
X2390945Y1943256D01*
X2391547Y1943678D01*
X2392169Y1944061D01*
X2392817Y1944409D01*
X2393480Y1944719D01*
X2394161Y1944991D01*
X2394857Y1945222D01*
X2395565Y1945410D01*
X2396284Y1945560D01*
X2397008Y1945664D01*
X2397740Y1945730D01*
X2398471Y1945750D01*
X2399203Y1945730D01*
D02*
G37*
G36*
X2354219D02*
X2354951Y1945664D01*
X2355675Y1945560D01*
X2356394Y1945410D01*
X2357102Y1945222D01*
X2357798Y1944991D01*
X2358479Y1944719D01*
X2359142Y1944409D01*
X2359787Y1944061D01*
X2360412Y1943678D01*
X2361014Y1943256D01*
X2361588Y1942802D01*
X2362134Y1942316D01*
X2362655Y1941796D01*
X2363140Y1941250D01*
X2363594Y1940676D01*
X2364016Y1940074D01*
X2364400Y1939451D01*
X2364748Y1938804D01*
X2365057Y1938141D01*
X2365329Y1937460D01*
X2365560Y1936764D01*
X2365748Y1936055D01*
X2365898Y1935336D01*
X2366002Y1934613D01*
X2366068Y1933881D01*
X2366089Y1933150D01*
Y1898352D01*
X2366068Y1897620D01*
X2366002Y1896889D01*
X2365898Y1896165D01*
X2365748Y1895446D01*
X2365560Y1894737D01*
X2365329Y1894041D01*
X2365057Y1893360D01*
X2364748Y1892698D01*
X2364400Y1892050D01*
X2364016Y1891428D01*
X2363594Y1890826D01*
X2363140Y1890251D01*
X2362655Y1889705D01*
X2362134Y1889185D01*
X2361588Y1888700D01*
X2361014Y1888245D01*
X2360412Y1887823D01*
X2359787Y1887440D01*
X2359142Y1887092D01*
X2358479Y1886782D01*
X2357798Y1886510D01*
X2357102Y1886279D01*
X2356394Y1886091D01*
X2355675Y1885941D01*
X2354951Y1885837D01*
X2354219Y1885771D01*
X2353488Y1885751D01*
X2352756Y1885771D01*
X2352025Y1885837D01*
X2351301Y1885941D01*
X2350582Y1886091D01*
X2349873Y1886279D01*
X2349177Y1886510D01*
X2348497Y1886782D01*
X2347834Y1887092D01*
X2347186Y1887440D01*
X2346564Y1887823D01*
X2345962Y1888245D01*
X2345388Y1888700D01*
X2344842Y1889185D01*
X2344321Y1889705D01*
X2343836Y1890251D01*
X2343381Y1890826D01*
X2342959Y1891428D01*
X2342576Y1892052D01*
X2342228Y1892698D01*
X2341918Y1893360D01*
X2341646Y1894041D01*
X2341415Y1894737D01*
X2341227Y1895446D01*
X2341077Y1896165D01*
X2340973Y1896889D01*
X2340907Y1897620D01*
X2340887Y1898352D01*
Y1933150D01*
X2340907Y1933881D01*
X2340973Y1934613D01*
X2341077Y1935336D01*
X2341227Y1936055D01*
X2341415Y1936764D01*
X2341646Y1937460D01*
X2341918Y1938141D01*
X2342228Y1938804D01*
X2342576Y1939449D01*
X2342959Y1940074D01*
X2343381Y1940676D01*
X2343836Y1941250D01*
X2344321Y1941796D01*
X2344842Y1942316D01*
X2345388Y1942802D01*
X2345962Y1943256D01*
X2346564Y1943678D01*
X2347186Y1944061D01*
X2347834Y1944409D01*
X2348497Y1944719D01*
X2349177Y1944991D01*
X2349873Y1945222D01*
X2350582Y1945410D01*
X2351301Y1945560D01*
X2352025Y1945664D01*
X2352756Y1945730D01*
X2353488Y1945750D01*
X2354219Y1945730D01*
D02*
G37*
G36*
X4858304Y2228229D02*
X4859035Y2228163D01*
X4859759Y2228059D01*
X4860478Y2227909D01*
X4861187Y2227721D01*
X4861883Y2227490D01*
X4862563Y2227218D01*
X4863226Y2226908D01*
X4863871Y2226560D01*
X4864496Y2226177D01*
X4865098Y2225755D01*
X4865672Y2225300D01*
X4866218Y2224815D01*
X4866739Y2224295D01*
X4867224Y2223748D01*
X4867679Y2223174D01*
X4868100Y2222572D01*
X4868484Y2221950D01*
X4868832Y2221302D01*
X4869142Y2220639D01*
X4869414Y2219959D01*
X4869645Y2219263D01*
X4869833Y2218554D01*
X4869983Y2217835D01*
X4870087Y2217111D01*
X4870153Y2216380D01*
X4870173Y2215648D01*
Y2180848D01*
X4870153Y2180116D01*
X4870087Y2179385D01*
X4869983Y2178661D01*
X4869833Y2177942D01*
X4869645Y2177233D01*
X4869414Y2176537D01*
X4869142Y2175857D01*
X4868832Y2175194D01*
X4868484Y2174546D01*
X4868100Y2173924D01*
X4867679Y2173322D01*
X4867224Y2172748D01*
X4866739Y2172202D01*
X4866218Y2171681D01*
X4865672Y2171196D01*
X4865098Y2170741D01*
X4864496Y2170320D01*
X4863871Y2169936D01*
X4863226Y2169588D01*
X4862563Y2169278D01*
X4861883Y2169006D01*
X4861187Y2168775D01*
X4860478Y2168587D01*
X4859759Y2168437D01*
X4859035Y2168333D01*
X4858304Y2168267D01*
X4857572Y2168247D01*
X4856841Y2168267D01*
X4856109Y2168333D01*
X4855385Y2168437D01*
X4854666Y2168587D01*
X4853958Y2168775D01*
X4853262Y2169006D01*
X4852581Y2169278D01*
X4851918Y2169588D01*
X4851270Y2169936D01*
X4850648Y2170320D01*
X4850046Y2170741D01*
X4849472Y2171196D01*
X4848926Y2171681D01*
X4848405Y2172202D01*
X4847920Y2172748D01*
X4847466Y2173322D01*
X4847044Y2173924D01*
X4846660Y2174549D01*
X4846312Y2175194D01*
X4846003Y2175857D01*
X4845731Y2176537D01*
X4845500Y2177233D01*
X4845312Y2177942D01*
X4845162Y2178661D01*
X4845058Y2179385D01*
X4844992Y2180116D01*
X4844971Y2180848D01*
Y2215648D01*
X4844992Y2216380D01*
X4845058Y2217111D01*
X4845162Y2217835D01*
X4845312Y2218554D01*
X4845500Y2219263D01*
X4845731Y2219959D01*
X4846003Y2220639D01*
X4846312Y2221302D01*
X4846660Y2221948D01*
X4847044Y2222572D01*
X4847466Y2223174D01*
X4847920Y2223748D01*
X4848405Y2224295D01*
X4848926Y2224815D01*
X4849472Y2225300D01*
X4850046Y2225755D01*
X4850648Y2226177D01*
X4851270Y2226560D01*
X4851918Y2226908D01*
X4852581Y2227218D01*
X4853262Y2227490D01*
X4853958Y2227721D01*
X4854666Y2227909D01*
X4855385Y2228059D01*
X4856109Y2228163D01*
X4856841Y2228229D01*
X4857572Y2228249D01*
X4858304Y2228229D01*
D02*
G37*
G36*
X4813320D02*
X4814052Y2228163D01*
X4814776Y2228059D01*
X4815495Y2227909D01*
X4816203Y2227721D01*
X4816899Y2227490D01*
X4817580Y2227218D01*
X4818243Y2226908D01*
X4818888Y2226560D01*
X4819513Y2226177D01*
X4820115Y2225755D01*
X4820689Y2225300D01*
X4821235Y2224815D01*
X4821756Y2224295D01*
X4822241Y2223748D01*
X4822695Y2223174D01*
X4823117Y2222572D01*
X4823501Y2221950D01*
X4823849Y2221302D01*
X4824159Y2220639D01*
X4824430Y2219959D01*
X4824661Y2219263D01*
X4824849Y2218554D01*
X4824999Y2217835D01*
X4825103Y2217111D01*
X4825169Y2216380D01*
X4825190Y2215648D01*
Y2180848D01*
X4825169Y2180116D01*
X4825103Y2179385D01*
X4824999Y2178661D01*
X4824849Y2177942D01*
X4824661Y2177233D01*
X4824430Y2176537D01*
X4824159Y2175857D01*
X4823849Y2175194D01*
X4823501Y2174546D01*
X4823117Y2173924D01*
X4822695Y2173322D01*
X4822241Y2172748D01*
X4821756Y2172202D01*
X4821235Y2171681D01*
X4820689Y2171196D01*
X4820115Y2170741D01*
X4819513Y2170320D01*
X4818888Y2169936D01*
X4818243Y2169588D01*
X4817580Y2169278D01*
X4816899Y2169006D01*
X4816203Y2168775D01*
X4815495Y2168587D01*
X4814776Y2168437D01*
X4814052Y2168333D01*
X4813320Y2168267D01*
X4812589Y2168247D01*
X4811857Y2168267D01*
X4811126Y2168333D01*
X4810402Y2168437D01*
X4809683Y2168587D01*
X4808974Y2168775D01*
X4808278Y2169006D01*
X4807598Y2169278D01*
X4806935Y2169588D01*
X4806287Y2169936D01*
X4805665Y2170320D01*
X4805063Y2170741D01*
X4804489Y2171196D01*
X4803943Y2171681D01*
X4803422Y2172202D01*
X4802937Y2172748D01*
X4802482Y2173322D01*
X4802060Y2173924D01*
X4801677Y2174549D01*
X4801329Y2175194D01*
X4801019Y2175857D01*
X4800747Y2176537D01*
X4800516Y2177233D01*
X4800328Y2177942D01*
X4800178Y2178661D01*
X4800074Y2179385D01*
X4800008Y2180116D01*
X4799988Y2180848D01*
Y2215648D01*
X4800008Y2216380D01*
X4800074Y2217111D01*
X4800178Y2217835D01*
X4800328Y2218554D01*
X4800516Y2219263D01*
X4800747Y2219959D01*
X4801019Y2220639D01*
X4801329Y2221302D01*
X4801677Y2221948D01*
X4802060Y2222572D01*
X4802482Y2223174D01*
X4802937Y2223748D01*
X4803422Y2224295D01*
X4803943Y2224815D01*
X4804489Y2225300D01*
X4805063Y2225755D01*
X4805665Y2226177D01*
X4806287Y2226560D01*
X4806935Y2226908D01*
X4807598Y2227218D01*
X4808278Y2227490D01*
X4808974Y2227721D01*
X4809683Y2227909D01*
X4810402Y2228059D01*
X4811126Y2228163D01*
X4811857Y2228229D01*
X4812589Y2228249D01*
X4813320Y2228229D01*
D02*
G37*
G36*
X4768312D02*
X4769043Y2228163D01*
X4769767Y2228059D01*
X4770486Y2227909D01*
X4771194Y2227721D01*
X4771890Y2227490D01*
X4772571Y2227218D01*
X4773234Y2226908D01*
X4773879Y2226560D01*
X4774504Y2226177D01*
X4775106Y2225755D01*
X4775680Y2225300D01*
X4776226Y2224815D01*
X4776747Y2224295D01*
X4777232Y2223748D01*
X4777687Y2223174D01*
X4778108Y2222572D01*
X4778492Y2221950D01*
X4778840Y2221302D01*
X4779150Y2220639D01*
X4779421Y2219959D01*
X4779653Y2219263D01*
X4779841Y2218554D01*
X4779990Y2217835D01*
X4780095Y2217111D01*
X4780161Y2216380D01*
X4780181Y2215648D01*
Y2180848D01*
X4780161Y2180116D01*
X4780095Y2179385D01*
X4779990Y2178661D01*
X4779841Y2177942D01*
X4779653Y2177233D01*
X4779421Y2176537D01*
X4779150Y2175857D01*
X4778840Y2175194D01*
X4778492Y2174546D01*
X4778108Y2173924D01*
X4777687Y2173322D01*
X4777232Y2172748D01*
X4776747Y2172202D01*
X4776226Y2171681D01*
X4775680Y2171196D01*
X4775106Y2170741D01*
X4774504Y2170320D01*
X4773879Y2169936D01*
X4773234Y2169588D01*
X4772571Y2169278D01*
X4771890Y2169006D01*
X4771194Y2168775D01*
X4770486Y2168587D01*
X4769767Y2168437D01*
X4769043Y2168333D01*
X4768312Y2168267D01*
X4767580Y2168247D01*
X4766848Y2168267D01*
X4766117Y2168333D01*
X4765393Y2168437D01*
X4764674Y2168587D01*
X4763966Y2168775D01*
X4763270Y2169006D01*
X4762589Y2169278D01*
X4761926Y2169588D01*
X4761278Y2169936D01*
X4760656Y2170320D01*
X4760054Y2170741D01*
X4759480Y2171196D01*
X4758934Y2171681D01*
X4758413Y2172202D01*
X4757928Y2172748D01*
X4757473Y2173322D01*
X4757052Y2173924D01*
X4756668Y2174549D01*
X4756320Y2175194D01*
X4756010Y2175857D01*
X4755739Y2176537D01*
X4755507Y2177233D01*
X4755319Y2177942D01*
X4755170Y2178661D01*
X4755065Y2179385D01*
X4754999Y2180116D01*
X4754979Y2180848D01*
Y2215648D01*
X4754999Y2216380D01*
X4755065Y2217111D01*
X4755170Y2217835D01*
X4755319Y2218554D01*
X4755507Y2219263D01*
X4755739Y2219959D01*
X4756010Y2220639D01*
X4756320Y2221302D01*
X4756668Y2221948D01*
X4757052Y2222572D01*
X4757473Y2223174D01*
X4757928Y2223748D01*
X4758413Y2224295D01*
X4758934Y2224815D01*
X4759480Y2225300D01*
X4760054Y2225755D01*
X4760656Y2226177D01*
X4761278Y2226560D01*
X4761926Y2226908D01*
X4762589Y2227218D01*
X4763270Y2227490D01*
X4763966Y2227721D01*
X4764674Y2227909D01*
X4765393Y2228059D01*
X4766117Y2228163D01*
X4766848Y2228229D01*
X4767580Y2228249D01*
X4768312Y2228229D01*
D02*
G37*
G36*
X4723303D02*
X4724034Y2228163D01*
X4724758Y2228059D01*
X4725477Y2227909D01*
X4726186Y2227721D01*
X4726882Y2227490D01*
X4727562Y2227218D01*
X4728225Y2226908D01*
X4728870Y2226560D01*
X4729495Y2226177D01*
X4730097Y2225755D01*
X4730671Y2225300D01*
X4731217Y2224815D01*
X4731738Y2224295D01*
X4732223Y2223748D01*
X4732678Y2223174D01*
X4733099Y2222572D01*
X4733483Y2221950D01*
X4733831Y2221302D01*
X4734141Y2220639D01*
X4734413Y2219959D01*
X4734644Y2219263D01*
X4734832Y2218554D01*
X4734982Y2217835D01*
X4735086Y2217111D01*
X4735152Y2216380D01*
X4735172Y2215648D01*
Y2180848D01*
X4735152Y2180116D01*
X4735086Y2179385D01*
X4734982Y2178661D01*
X4734832Y2177942D01*
X4734644Y2177233D01*
X4734413Y2176537D01*
X4734141Y2175857D01*
X4733831Y2175194D01*
X4733483Y2174546D01*
X4733099Y2173924D01*
X4732678Y2173322D01*
X4732223Y2172748D01*
X4731738Y2172202D01*
X4731217Y2171681D01*
X4730671Y2171196D01*
X4730097Y2170741D01*
X4729495Y2170320D01*
X4728870Y2169936D01*
X4728225Y2169588D01*
X4727562Y2169278D01*
X4726882Y2169006D01*
X4726186Y2168775D01*
X4725477Y2168587D01*
X4724758Y2168437D01*
X4724034Y2168333D01*
X4723303Y2168267D01*
X4722571Y2168247D01*
X4721840Y2168267D01*
X4721108Y2168333D01*
X4720384Y2168437D01*
X4719665Y2168587D01*
X4718957Y2168775D01*
X4718261Y2169006D01*
X4717580Y2169278D01*
X4716917Y2169588D01*
X4716269Y2169936D01*
X4715647Y2170320D01*
X4715045Y2170741D01*
X4714471Y2171196D01*
X4713925Y2171681D01*
X4713404Y2172202D01*
X4712919Y2172748D01*
X4712465Y2173322D01*
X4712043Y2173924D01*
X4711659Y2174549D01*
X4711311Y2175194D01*
X4711001Y2175857D01*
X4710730Y2176537D01*
X4710499Y2177233D01*
X4710311Y2177942D01*
X4710161Y2178661D01*
X4710057Y2179385D01*
X4709991Y2180116D01*
X4709970Y2180848D01*
Y2215648D01*
X4709991Y2216380D01*
X4710057Y2217111D01*
X4710161Y2217835D01*
X4710311Y2218554D01*
X4710499Y2219263D01*
X4710730Y2219959D01*
X4711001Y2220639D01*
X4711311Y2221302D01*
X4711659Y2221948D01*
X4712043Y2222572D01*
X4712465Y2223174D01*
X4712919Y2223748D01*
X4713404Y2224295D01*
X4713925Y2224815D01*
X4714471Y2225300D01*
X4715045Y2225755D01*
X4715647Y2226177D01*
X4716269Y2226560D01*
X4716917Y2226908D01*
X4717580Y2227218D01*
X4718261Y2227490D01*
X4718957Y2227721D01*
X4719665Y2227909D01*
X4720384Y2228059D01*
X4721108Y2228163D01*
X4721840Y2228229D01*
X4722571Y2228249D01*
X4723303Y2228229D01*
D02*
G37*
G36*
X4678319D02*
X4679051Y2228163D01*
X4679775Y2228059D01*
X4680494Y2227909D01*
X4681202Y2227721D01*
X4681898Y2227490D01*
X4682579Y2227218D01*
X4683242Y2226908D01*
X4683887Y2226560D01*
X4684512Y2226177D01*
X4685114Y2225755D01*
X4685688Y2225300D01*
X4686234Y2224815D01*
X4686755Y2224295D01*
X4687240Y2223748D01*
X4687694Y2223174D01*
X4688116Y2222572D01*
X4688500Y2221950D01*
X4688848Y2221302D01*
X4689158Y2220639D01*
X4689429Y2219959D01*
X4689660Y2219263D01*
X4689848Y2218554D01*
X4689998Y2217835D01*
X4690102Y2217111D01*
X4690168Y2216380D01*
X4690189Y2215648D01*
Y2180848D01*
X4690168Y2180116D01*
X4690102Y2179385D01*
X4689998Y2178661D01*
X4689848Y2177942D01*
X4689660Y2177233D01*
X4689429Y2176537D01*
X4689158Y2175857D01*
X4688848Y2175194D01*
X4688500Y2174546D01*
X4688116Y2173924D01*
X4687694Y2173322D01*
X4687240Y2172748D01*
X4686755Y2172202D01*
X4686234Y2171681D01*
X4685688Y2171196D01*
X4685114Y2170741D01*
X4684512Y2170320D01*
X4683887Y2169936D01*
X4683242Y2169588D01*
X4682579Y2169278D01*
X4681898Y2169006D01*
X4681202Y2168775D01*
X4680494Y2168587D01*
X4679775Y2168437D01*
X4679051Y2168333D01*
X4678319Y2168267D01*
X4677588Y2168247D01*
X4676856Y2168267D01*
X4676125Y2168333D01*
X4675401Y2168437D01*
X4674682Y2168587D01*
X4673973Y2168775D01*
X4673277Y2169006D01*
X4672597Y2169278D01*
X4671934Y2169588D01*
X4671286Y2169936D01*
X4670664Y2170320D01*
X4670062Y2170741D01*
X4669488Y2171196D01*
X4668942Y2171681D01*
X4668421Y2172202D01*
X4667936Y2172748D01*
X4667481Y2173322D01*
X4667059Y2173924D01*
X4666676Y2174549D01*
X4666328Y2175194D01*
X4666018Y2175857D01*
X4665746Y2176537D01*
X4665515Y2177233D01*
X4665327Y2177942D01*
X4665177Y2178661D01*
X4665073Y2179385D01*
X4665007Y2180116D01*
X4664987Y2180848D01*
Y2215648D01*
X4665007Y2216380D01*
X4665073Y2217111D01*
X4665177Y2217835D01*
X4665327Y2218554D01*
X4665515Y2219263D01*
X4665746Y2219959D01*
X4666018Y2220639D01*
X4666328Y2221302D01*
X4666676Y2221948D01*
X4667059Y2222572D01*
X4667481Y2223174D01*
X4667936Y2223748D01*
X4668421Y2224295D01*
X4668942Y2224815D01*
X4669488Y2225300D01*
X4670062Y2225755D01*
X4670664Y2226177D01*
X4671286Y2226560D01*
X4671934Y2226908D01*
X4672597Y2227218D01*
X4673277Y2227490D01*
X4673973Y2227721D01*
X4674682Y2227909D01*
X4675401Y2228059D01*
X4676125Y2228163D01*
X4676856Y2228229D01*
X4677588Y2228249D01*
X4678319Y2228229D01*
D02*
G37*
G36*
X4926960Y2159573D02*
X4927691Y2159507D01*
X4928415Y2159403D01*
X4929134Y2159253D01*
X4929843Y2159065D01*
X4930539Y2158834D01*
X4931219Y2158562D01*
X4931882Y2158252D01*
X4932528Y2157904D01*
X4933152Y2157520D01*
X4933754Y2157099D01*
X4934328Y2156644D01*
X4934875Y2156159D01*
X4935395Y2155638D01*
X4935880Y2155092D01*
X4936335Y2154518D01*
X4936757Y2153916D01*
X4937140Y2153294D01*
X4937488Y2152646D01*
X4937798Y2151983D01*
X4938070Y2151303D01*
X4938301Y2150607D01*
X4938489Y2149898D01*
X4938639Y2149179D01*
X4938743Y2148455D01*
X4938809Y2147724D01*
X4938829Y2146992D01*
X4938809Y2146261D01*
X4938743Y2145529D01*
X4938639Y2144805D01*
X4938489Y2144086D01*
X4938301Y2143378D01*
X4938070Y2142682D01*
X4937798Y2142001D01*
X4937488Y2141338D01*
X4937140Y2140693D01*
X4936757Y2140068D01*
X4936335Y2139466D01*
X4935880Y2138892D01*
X4935395Y2138346D01*
X4934875Y2137825D01*
X4934328Y2137340D01*
X4933754Y2136885D01*
X4933152Y2136464D01*
X4932530Y2136080D01*
X4931882Y2135732D01*
X4931219Y2135422D01*
X4930539Y2135151D01*
X4929843Y2134920D01*
X4929134Y2134732D01*
X4928415Y2134582D01*
X4927691Y2134478D01*
X4926960Y2134412D01*
X4926228Y2134391D01*
X4891428D01*
X4890696Y2134412D01*
X4889965Y2134478D01*
X4889241Y2134582D01*
X4888522Y2134732D01*
X4887813Y2134920D01*
X4887117Y2135151D01*
X4886437Y2135422D01*
X4885774Y2135732D01*
X4885129Y2136080D01*
X4884504Y2136464D01*
X4883902Y2136885D01*
X4883328Y2137340D01*
X4882782Y2137825D01*
X4882261Y2138346D01*
X4881776Y2138892D01*
X4881321Y2139466D01*
X4880900Y2140068D01*
X4880516Y2140690D01*
X4880168Y2141338D01*
X4879858Y2142001D01*
X4879586Y2142682D01*
X4879355Y2143378D01*
X4879167Y2144086D01*
X4879017Y2144805D01*
X4878913Y2145529D01*
X4878847Y2146261D01*
X4878827Y2146992D01*
X4878847Y2147724D01*
X4878913Y2148455D01*
X4879017Y2149179D01*
X4879167Y2149898D01*
X4879355Y2150607D01*
X4879586Y2151303D01*
X4879858Y2151983D01*
X4880168Y2152646D01*
X4880516Y2153291D01*
X4880900Y2153916D01*
X4881321Y2154518D01*
X4881776Y2155092D01*
X4882261Y2155638D01*
X4882782Y2156159D01*
X4883328Y2156644D01*
X4883902Y2157099D01*
X4884504Y2157520D01*
X4885126Y2157904D01*
X4885774Y2158252D01*
X4886437Y2158562D01*
X4887117Y2158834D01*
X4887813Y2159065D01*
X4888522Y2159253D01*
X4889241Y2159403D01*
X4889965Y2159507D01*
X4890696Y2159573D01*
X4891428Y2159593D01*
X4926228D01*
X4926960Y2159573D01*
D02*
G37*
G36*
X4644461D02*
X4645193Y2159507D01*
X4645917Y2159403D01*
X4646635Y2159253D01*
X4647344Y2159065D01*
X4648040Y2158834D01*
X4648721Y2158562D01*
X4649384Y2158252D01*
X4650029Y2157904D01*
X4650654Y2157520D01*
X4651256Y2157099D01*
X4651830Y2156644D01*
X4652376Y2156159D01*
X4652896Y2155638D01*
X4653382Y2155092D01*
X4653836Y2154518D01*
X4654258Y2153916D01*
X4654641Y2153294D01*
X4654989Y2152646D01*
X4655299Y2151983D01*
X4655571Y2151303D01*
X4655802Y2150607D01*
X4655990Y2149898D01*
X4656140Y2149179D01*
X4656244Y2148455D01*
X4656310Y2147724D01*
X4656331Y2146992D01*
X4656310Y2146261D01*
X4656244Y2145529D01*
X4656140Y2144805D01*
X4655990Y2144086D01*
X4655802Y2143378D01*
X4655571Y2142682D01*
X4655299Y2142001D01*
X4654989Y2141338D01*
X4654641Y2140693D01*
X4654258Y2140068D01*
X4653836Y2139466D01*
X4653382Y2138892D01*
X4652896Y2138346D01*
X4652376Y2137825D01*
X4651830Y2137340D01*
X4651256Y2136885D01*
X4650654Y2136464D01*
X4650031Y2136080D01*
X4649384Y2135732D01*
X4648721Y2135422D01*
X4648040Y2135151D01*
X4647344Y2134920D01*
X4646635Y2134732D01*
X4645917Y2134582D01*
X4645193Y2134478D01*
X4644461Y2134412D01*
X4643730Y2134391D01*
X4608932D01*
X4608200Y2134412D01*
X4607469Y2134478D01*
X4606745Y2134582D01*
X4606026Y2134732D01*
X4605317Y2134920D01*
X4604621Y2135151D01*
X4603941Y2135422D01*
X4603278Y2135732D01*
X4602632Y2136080D01*
X4602008Y2136464D01*
X4601406Y2136885D01*
X4600832Y2137340D01*
X4600285Y2137825D01*
X4599765Y2138346D01*
X4599280Y2138892D01*
X4598825Y2139466D01*
X4598403Y2140068D01*
X4598020Y2140690D01*
X4597672Y2141338D01*
X4597362Y2142001D01*
X4597090Y2142682D01*
X4596859Y2143378D01*
X4596671Y2144086D01*
X4596521Y2144805D01*
X4596417Y2145529D01*
X4596351Y2146261D01*
X4596331Y2146992D01*
X4596351Y2147724D01*
X4596417Y2148455D01*
X4596521Y2149179D01*
X4596671Y2149898D01*
X4596859Y2150607D01*
X4597090Y2151303D01*
X4597362Y2151983D01*
X4597672Y2152646D01*
X4598020Y2153291D01*
X4598403Y2153916D01*
X4598825Y2154518D01*
X4599280Y2155092D01*
X4599765Y2155638D01*
X4600285Y2156159D01*
X4600832Y2156644D01*
X4601406Y2157099D01*
X4602008Y2157520D01*
X4602630Y2157904D01*
X4603278Y2158252D01*
X4603941Y2158562D01*
X4604621Y2158834D01*
X4605317Y2159065D01*
X4606026Y2159253D01*
X4606745Y2159403D01*
X4607469Y2159507D01*
X4608200Y2159573D01*
X4608932Y2159593D01*
X4643730D01*
X4644461Y2159573D01*
D02*
G37*
G36*
X4926960Y2114589D02*
X4927691Y2114523D01*
X4928415Y2114419D01*
X4929134Y2114269D01*
X4929843Y2114081D01*
X4930539Y2113850D01*
X4931219Y2113578D01*
X4931882Y2113269D01*
X4932528Y2112921D01*
X4933152Y2112537D01*
X4933754Y2112115D01*
X4934328Y2111661D01*
X4934875Y2111176D01*
X4935395Y2110655D01*
X4935880Y2110109D01*
X4936335Y2109535D01*
X4936757Y2108933D01*
X4937140Y2108310D01*
X4937488Y2107663D01*
X4937798Y2107000D01*
X4938070Y2106319D01*
X4938301Y2105623D01*
X4938489Y2104915D01*
X4938639Y2104196D01*
X4938743Y2103472D01*
X4938809Y2102740D01*
X4938829Y2102009D01*
X4938809Y2101277D01*
X4938743Y2100546D01*
X4938639Y2099822D01*
X4938489Y2099103D01*
X4938301Y2098394D01*
X4938070Y2097698D01*
X4937798Y2097018D01*
X4937488Y2096355D01*
X4937140Y2095710D01*
X4936757Y2095085D01*
X4936335Y2094483D01*
X4935880Y2093909D01*
X4935395Y2093363D01*
X4934875Y2092842D01*
X4934328Y2092357D01*
X4933754Y2091902D01*
X4933152Y2091480D01*
X4932530Y2091097D01*
X4931882Y2090749D01*
X4931219Y2090439D01*
X4930539Y2090167D01*
X4929843Y2089936D01*
X4929134Y2089748D01*
X4928415Y2089598D01*
X4927691Y2089494D01*
X4926960Y2089428D01*
X4926228Y2089408D01*
X4891428D01*
X4890696Y2089428D01*
X4889965Y2089494D01*
X4889241Y2089598D01*
X4888522Y2089748D01*
X4887813Y2089936D01*
X4887117Y2090167D01*
X4886437Y2090439D01*
X4885774Y2090749D01*
X4885129Y2091097D01*
X4884504Y2091480D01*
X4883902Y2091902D01*
X4883328Y2092357D01*
X4882782Y2092842D01*
X4882261Y2093363D01*
X4881776Y2093909D01*
X4881321Y2094483D01*
X4880900Y2095085D01*
X4880516Y2095707D01*
X4880168Y2096355D01*
X4879858Y2097018D01*
X4879586Y2097698D01*
X4879355Y2098394D01*
X4879167Y2099103D01*
X4879017Y2099822D01*
X4878913Y2100546D01*
X4878847Y2101277D01*
X4878827Y2102009D01*
X4878847Y2102740D01*
X4878913Y2103472D01*
X4879017Y2104196D01*
X4879167Y2104915D01*
X4879355Y2105623D01*
X4879586Y2106319D01*
X4879858Y2107000D01*
X4880168Y2107663D01*
X4880516Y2108308D01*
X4880900Y2108933D01*
X4881321Y2109535D01*
X4881776Y2110109D01*
X4882261Y2110655D01*
X4882782Y2111176D01*
X4883328Y2111661D01*
X4883902Y2112115D01*
X4884504Y2112537D01*
X4885126Y2112921D01*
X4885774Y2113269D01*
X4886437Y2113578D01*
X4887117Y2113850D01*
X4887813Y2114081D01*
X4888522Y2114269D01*
X4889241Y2114419D01*
X4889965Y2114523D01*
X4890696Y2114589D01*
X4891428Y2114610D01*
X4926228D01*
X4926960Y2114589D01*
D02*
G37*
G36*
X4644461D02*
X4645193Y2114523D01*
X4645917Y2114419D01*
X4646635Y2114269D01*
X4647344Y2114081D01*
X4648040Y2113850D01*
X4648721Y2113578D01*
X4649384Y2113269D01*
X4650029Y2112921D01*
X4650654Y2112537D01*
X4651256Y2112115D01*
X4651830Y2111661D01*
X4652376Y2111176D01*
X4652896Y2110655D01*
X4653382Y2110109D01*
X4653836Y2109535D01*
X4654258Y2108933D01*
X4654641Y2108310D01*
X4654989Y2107663D01*
X4655299Y2107000D01*
X4655571Y2106319D01*
X4655802Y2105623D01*
X4655990Y2104915D01*
X4656140Y2104196D01*
X4656244Y2103472D01*
X4656310Y2102740D01*
X4656331Y2102009D01*
X4656310Y2101277D01*
X4656244Y2100546D01*
X4656140Y2099822D01*
X4655990Y2099103D01*
X4655802Y2098394D01*
X4655571Y2097698D01*
X4655299Y2097018D01*
X4654989Y2096355D01*
X4654641Y2095710D01*
X4654258Y2095085D01*
X4653836Y2094483D01*
X4653382Y2093909D01*
X4652896Y2093363D01*
X4652376Y2092842D01*
X4651830Y2092357D01*
X4651256Y2091902D01*
X4650654Y2091480D01*
X4650031Y2091097D01*
X4649384Y2090749D01*
X4648721Y2090439D01*
X4648040Y2090167D01*
X4647344Y2089936D01*
X4646635Y2089748D01*
X4645917Y2089598D01*
X4645193Y2089494D01*
X4644461Y2089428D01*
X4643730Y2089408D01*
X4608932D01*
X4608200Y2089428D01*
X4607469Y2089494D01*
X4606745Y2089598D01*
X4606026Y2089748D01*
X4605317Y2089936D01*
X4604621Y2090167D01*
X4603941Y2090439D01*
X4603278Y2090749D01*
X4602632Y2091097D01*
X4602008Y2091480D01*
X4601406Y2091902D01*
X4600832Y2092357D01*
X4600285Y2092842D01*
X4599765Y2093363D01*
X4599280Y2093909D01*
X4598825Y2094483D01*
X4598403Y2095085D01*
X4598020Y2095707D01*
X4597672Y2096355D01*
X4597362Y2097018D01*
X4597090Y2097698D01*
X4596859Y2098394D01*
X4596671Y2099103D01*
X4596521Y2099822D01*
X4596417Y2100546D01*
X4596351Y2101277D01*
X4596331Y2102009D01*
X4596351Y2102740D01*
X4596417Y2103472D01*
X4596521Y2104196D01*
X4596671Y2104915D01*
X4596859Y2105623D01*
X4597090Y2106319D01*
X4597362Y2107000D01*
X4597672Y2107663D01*
X4598020Y2108308D01*
X4598403Y2108933D01*
X4598825Y2109535D01*
X4599280Y2110109D01*
X4599765Y2110655D01*
X4600285Y2111176D01*
X4600832Y2111661D01*
X4601406Y2112115D01*
X4602008Y2112537D01*
X4602630Y2112921D01*
X4603278Y2113269D01*
X4603941Y2113578D01*
X4604621Y2113850D01*
X4605317Y2114081D01*
X4606026Y2114269D01*
X4606745Y2114419D01*
X4607469Y2114523D01*
X4608200Y2114589D01*
X4608932Y2114610D01*
X4643730D01*
X4644461Y2114589D01*
D02*
G37*
G36*
X4926960Y2069581D02*
X4927691Y2069515D01*
X4928415Y2069410D01*
X4929134Y2069261D01*
X4929843Y2069073D01*
X4930539Y2068841D01*
X4931219Y2068570D01*
X4931882Y2068260D01*
X4932528Y2067912D01*
X4933152Y2067528D01*
X4933754Y2067107D01*
X4934328Y2066652D01*
X4934875Y2066167D01*
X4935395Y2065646D01*
X4935880Y2065100D01*
X4936335Y2064526D01*
X4936757Y2063924D01*
X4937140Y2063302D01*
X4937488Y2062654D01*
X4937798Y2061991D01*
X4938070Y2061310D01*
X4938301Y2060614D01*
X4938489Y2059906D01*
X4938639Y2059187D01*
X4938743Y2058463D01*
X4938809Y2057731D01*
X4938829Y2057000D01*
X4938809Y2056268D01*
X4938743Y2055537D01*
X4938639Y2054813D01*
X4938489Y2054094D01*
X4938301Y2053386D01*
X4938070Y2052690D01*
X4937798Y2052009D01*
X4937488Y2051346D01*
X4937140Y2050701D01*
X4936757Y2050076D01*
X4936335Y2049474D01*
X4935880Y2048900D01*
X4935395Y2048354D01*
X4934875Y2047833D01*
X4934328Y2047348D01*
X4933754Y2046893D01*
X4933152Y2046472D01*
X4932530Y2046088D01*
X4931882Y2045740D01*
X4931219Y2045430D01*
X4930539Y2045158D01*
X4929843Y2044927D01*
X4929134Y2044739D01*
X4928415Y2044590D01*
X4927691Y2044485D01*
X4926960Y2044419D01*
X4926228Y2044399D01*
X4891428D01*
X4890696Y2044419D01*
X4889965Y2044485D01*
X4889241Y2044590D01*
X4888522Y2044739D01*
X4887813Y2044927D01*
X4887117Y2045158D01*
X4886437Y2045430D01*
X4885774Y2045740D01*
X4885129Y2046088D01*
X4884504Y2046472D01*
X4883902Y2046893D01*
X4883328Y2047348D01*
X4882782Y2047833D01*
X4882261Y2048354D01*
X4881776Y2048900D01*
X4881321Y2049474D01*
X4880900Y2050076D01*
X4880516Y2050698D01*
X4880168Y2051346D01*
X4879858Y2052009D01*
X4879586Y2052690D01*
X4879355Y2053386D01*
X4879167Y2054094D01*
X4879017Y2054813D01*
X4878913Y2055537D01*
X4878847Y2056268D01*
X4878827Y2057000D01*
X4878847Y2057731D01*
X4878913Y2058463D01*
X4879017Y2059187D01*
X4879167Y2059906D01*
X4879355Y2060614D01*
X4879586Y2061310D01*
X4879858Y2061991D01*
X4880168Y2062654D01*
X4880516Y2063299D01*
X4880900Y2063924D01*
X4881321Y2064526D01*
X4881776Y2065100D01*
X4882261Y2065646D01*
X4882782Y2066167D01*
X4883328Y2066652D01*
X4883902Y2067107D01*
X4884504Y2067528D01*
X4885126Y2067912D01*
X4885774Y2068260D01*
X4886437Y2068570D01*
X4887117Y2068841D01*
X4887813Y2069073D01*
X4888522Y2069261D01*
X4889241Y2069410D01*
X4889965Y2069515D01*
X4890696Y2069581D01*
X4891428Y2069601D01*
X4926228D01*
X4926960Y2069581D01*
D02*
G37*
G36*
X4644461D02*
X4645193Y2069515D01*
X4645917Y2069410D01*
X4646635Y2069261D01*
X4647344Y2069073D01*
X4648040Y2068841D01*
X4648721Y2068570D01*
X4649384Y2068260D01*
X4650029Y2067912D01*
X4650654Y2067528D01*
X4651256Y2067107D01*
X4651830Y2066652D01*
X4652376Y2066167D01*
X4652896Y2065646D01*
X4653382Y2065100D01*
X4653836Y2064526D01*
X4654258Y2063924D01*
X4654641Y2063302D01*
X4654989Y2062654D01*
X4655299Y2061991D01*
X4655571Y2061310D01*
X4655802Y2060614D01*
X4655990Y2059906D01*
X4656140Y2059187D01*
X4656244Y2058463D01*
X4656310Y2057731D01*
X4656331Y2057000D01*
X4656310Y2056268D01*
X4656244Y2055537D01*
X4656140Y2054813D01*
X4655990Y2054094D01*
X4655802Y2053386D01*
X4655571Y2052690D01*
X4655299Y2052009D01*
X4654989Y2051346D01*
X4654641Y2050701D01*
X4654258Y2050076D01*
X4653836Y2049474D01*
X4653382Y2048900D01*
X4652896Y2048354D01*
X4652376Y2047833D01*
X4651830Y2047348D01*
X4651256Y2046893D01*
X4650654Y2046472D01*
X4650031Y2046088D01*
X4649384Y2045740D01*
X4648721Y2045430D01*
X4648040Y2045158D01*
X4647344Y2044927D01*
X4646635Y2044739D01*
X4645917Y2044590D01*
X4645193Y2044485D01*
X4644461Y2044419D01*
X4643730Y2044399D01*
X4608932D01*
X4608200Y2044419D01*
X4607469Y2044485D01*
X4606745Y2044590D01*
X4606026Y2044739D01*
X4605317Y2044927D01*
X4604621Y2045158D01*
X4603941Y2045430D01*
X4603278Y2045740D01*
X4602632Y2046088D01*
X4602008Y2046472D01*
X4601406Y2046893D01*
X4600832Y2047348D01*
X4600285Y2047833D01*
X4599765Y2048354D01*
X4599280Y2048900D01*
X4598825Y2049474D01*
X4598403Y2050076D01*
X4598020Y2050698D01*
X4597672Y2051346D01*
X4597362Y2052009D01*
X4597090Y2052690D01*
X4596859Y2053386D01*
X4596671Y2054094D01*
X4596521Y2054813D01*
X4596417Y2055537D01*
X4596351Y2056268D01*
X4596331Y2057000D01*
X4596351Y2057731D01*
X4596417Y2058463D01*
X4596521Y2059187D01*
X4596671Y2059906D01*
X4596859Y2060614D01*
X4597090Y2061310D01*
X4597362Y2061991D01*
X4597672Y2062654D01*
X4598020Y2063299D01*
X4598403Y2063924D01*
X4598825Y2064526D01*
X4599280Y2065100D01*
X4599765Y2065646D01*
X4600285Y2066167D01*
X4600832Y2066652D01*
X4601406Y2067107D01*
X4602008Y2067528D01*
X4602630Y2067912D01*
X4603278Y2068260D01*
X4603941Y2068570D01*
X4604621Y2068841D01*
X4605317Y2069073D01*
X4606026Y2069261D01*
X4606745Y2069410D01*
X4607469Y2069515D01*
X4608200Y2069581D01*
X4608932Y2069601D01*
X4643730D01*
X4644461Y2069581D01*
D02*
G37*
G36*
X4813379Y2008950D02*
X4720781D01*
Y2106450D01*
X4813379D01*
Y2008950D01*
D02*
G37*
G36*
X4926960Y2024572D02*
X4927691Y2024506D01*
X4928415Y2024402D01*
X4929134Y2024252D01*
X4929843Y2024064D01*
X4930539Y2023833D01*
X4931219Y2023561D01*
X4931882Y2023251D01*
X4932528Y2022903D01*
X4933152Y2022519D01*
X4933754Y2022098D01*
X4934328Y2021643D01*
X4934875Y2021158D01*
X4935395Y2020637D01*
X4935880Y2020091D01*
X4936335Y2019517D01*
X4936757Y2018915D01*
X4937140Y2018293D01*
X4937488Y2017645D01*
X4937798Y2016982D01*
X4938070Y2016302D01*
X4938301Y2015606D01*
X4938489Y2014897D01*
X4938639Y2014178D01*
X4938743Y2013454D01*
X4938809Y2012723D01*
X4938829Y2011991D01*
X4938809Y2011260D01*
X4938743Y2010528D01*
X4938639Y2009804D01*
X4938489Y2009085D01*
X4938301Y2008377D01*
X4938070Y2007681D01*
X4937798Y2007000D01*
X4937488Y2006337D01*
X4937140Y2005692D01*
X4936757Y2005067D01*
X4936335Y2004465D01*
X4935880Y2003891D01*
X4935395Y2003345D01*
X4934875Y2002824D01*
X4934328Y2002339D01*
X4933754Y2001884D01*
X4933152Y2001463D01*
X4932530Y2001079D01*
X4931882Y2000731D01*
X4931219Y2000421D01*
X4930539Y2000150D01*
X4929843Y1999919D01*
X4929134Y1999731D01*
X4928415Y1999581D01*
X4927691Y1999477D01*
X4926960Y1999411D01*
X4926228Y1999390D01*
X4891428D01*
X4890696Y1999411D01*
X4889965Y1999477D01*
X4889241Y1999581D01*
X4888522Y1999731D01*
X4887813Y1999919D01*
X4887117Y2000150D01*
X4886437Y2000421D01*
X4885774Y2000731D01*
X4885129Y2001079D01*
X4884504Y2001463D01*
X4883902Y2001884D01*
X4883328Y2002339D01*
X4882782Y2002824D01*
X4882261Y2003345D01*
X4881776Y2003891D01*
X4881321Y2004465D01*
X4880900Y2005067D01*
X4880516Y2005689D01*
X4880168Y2006337D01*
X4879858Y2007000D01*
X4879586Y2007681D01*
X4879355Y2008377D01*
X4879167Y2009085D01*
X4879017Y2009804D01*
X4878913Y2010528D01*
X4878847Y2011260D01*
X4878827Y2011991D01*
X4878847Y2012723D01*
X4878913Y2013454D01*
X4879017Y2014178D01*
X4879167Y2014897D01*
X4879355Y2015606D01*
X4879586Y2016302D01*
X4879858Y2016982D01*
X4880168Y2017645D01*
X4880516Y2018290D01*
X4880900Y2018915D01*
X4881321Y2019517D01*
X4881776Y2020091D01*
X4882261Y2020637D01*
X4882782Y2021158D01*
X4883328Y2021643D01*
X4883902Y2022098D01*
X4884504Y2022519D01*
X4885126Y2022903D01*
X4885774Y2023251D01*
X4886437Y2023561D01*
X4887117Y2023833D01*
X4887813Y2024064D01*
X4888522Y2024252D01*
X4889241Y2024402D01*
X4889965Y2024506D01*
X4890696Y2024572D01*
X4891428Y2024592D01*
X4926228D01*
X4926960Y2024572D01*
D02*
G37*
G36*
X4644461D02*
X4645193Y2024506D01*
X4645917Y2024402D01*
X4646635Y2024252D01*
X4647344Y2024064D01*
X4648040Y2023833D01*
X4648721Y2023561D01*
X4649384Y2023251D01*
X4650029Y2022903D01*
X4650654Y2022519D01*
X4651256Y2022098D01*
X4651830Y2021643D01*
X4652376Y2021158D01*
X4652896Y2020637D01*
X4653382Y2020091D01*
X4653836Y2019517D01*
X4654258Y2018915D01*
X4654641Y2018293D01*
X4654989Y2017645D01*
X4655299Y2016982D01*
X4655571Y2016302D01*
X4655802Y2015606D01*
X4655990Y2014897D01*
X4656140Y2014178D01*
X4656244Y2013454D01*
X4656310Y2012723D01*
X4656331Y2011991D01*
X4656310Y2011260D01*
X4656244Y2010528D01*
X4656140Y2009804D01*
X4655990Y2009085D01*
X4655802Y2008377D01*
X4655571Y2007681D01*
X4655299Y2007000D01*
X4654989Y2006337D01*
X4654641Y2005692D01*
X4654258Y2005067D01*
X4653836Y2004465D01*
X4653382Y2003891D01*
X4652896Y2003345D01*
X4652376Y2002824D01*
X4651830Y2002339D01*
X4651256Y2001884D01*
X4650654Y2001463D01*
X4650031Y2001079D01*
X4649384Y2000731D01*
X4648721Y2000421D01*
X4648040Y2000150D01*
X4647344Y1999919D01*
X4646635Y1999731D01*
X4645917Y1999581D01*
X4645193Y1999477D01*
X4644461Y1999411D01*
X4643730Y1999390D01*
X4608932D01*
X4608200Y1999411D01*
X4607469Y1999477D01*
X4606745Y1999581D01*
X4606026Y1999731D01*
X4605317Y1999919D01*
X4604621Y2000150D01*
X4603941Y2000421D01*
X4603278Y2000731D01*
X4602632Y2001079D01*
X4602008Y2001463D01*
X4601406Y2001884D01*
X4600832Y2002339D01*
X4600285Y2002824D01*
X4599765Y2003345D01*
X4599280Y2003891D01*
X4598825Y2004465D01*
X4598403Y2005067D01*
X4598020Y2005689D01*
X4597672Y2006337D01*
X4597362Y2007000D01*
X4597090Y2007681D01*
X4596859Y2008377D01*
X4596671Y2009085D01*
X4596521Y2009804D01*
X4596417Y2010528D01*
X4596351Y2011260D01*
X4596331Y2011991D01*
X4596351Y2012723D01*
X4596417Y2013454D01*
X4596521Y2014178D01*
X4596671Y2014897D01*
X4596859Y2015606D01*
X4597090Y2016302D01*
X4597362Y2016982D01*
X4597672Y2017645D01*
X4598020Y2018290D01*
X4598403Y2018915D01*
X4598825Y2019517D01*
X4599280Y2020091D01*
X4599765Y2020637D01*
X4600285Y2021158D01*
X4600832Y2021643D01*
X4601406Y2022098D01*
X4602008Y2022519D01*
X4602630Y2022903D01*
X4603278Y2023251D01*
X4603941Y2023561D01*
X4604621Y2023833D01*
X4605317Y2024064D01*
X4606026Y2024252D01*
X4606745Y2024402D01*
X4607469Y2024506D01*
X4608200Y2024572D01*
X4608932Y2024592D01*
X4643730D01*
X4644461Y2024572D01*
D02*
G37*
G36*
X4926960Y1979588D02*
X4927691Y1979522D01*
X4928415Y1979418D01*
X4929134Y1979268D01*
X4929843Y1979080D01*
X4930539Y1978849D01*
X4931219Y1978577D01*
X4931882Y1978268D01*
X4932528Y1977920D01*
X4933152Y1977536D01*
X4933754Y1977114D01*
X4934328Y1976660D01*
X4934875Y1976175D01*
X4935395Y1975654D01*
X4935880Y1975108D01*
X4936335Y1974534D01*
X4936757Y1973932D01*
X4937140Y1973309D01*
X4937488Y1972662D01*
X4937798Y1971999D01*
X4938070Y1971318D01*
X4938301Y1970622D01*
X4938489Y1969914D01*
X4938639Y1969195D01*
X4938743Y1968471D01*
X4938809Y1967739D01*
X4938829Y1967008D01*
X4938809Y1966276D01*
X4938743Y1965545D01*
X4938639Y1964821D01*
X4938489Y1964102D01*
X4938301Y1963393D01*
X4938070Y1962697D01*
X4937798Y1962017D01*
X4937488Y1961354D01*
X4937140Y1960709D01*
X4936757Y1960084D01*
X4936335Y1959482D01*
X4935880Y1958908D01*
X4935395Y1958362D01*
X4934875Y1957841D01*
X4934328Y1957356D01*
X4933754Y1956901D01*
X4933152Y1956479D01*
X4932530Y1956096D01*
X4931882Y1955748D01*
X4931219Y1955438D01*
X4930539Y1955166D01*
X4929843Y1954935D01*
X4929134Y1954747D01*
X4928415Y1954597D01*
X4927691Y1954493D01*
X4926960Y1954427D01*
X4926228Y1954407D01*
X4891428D01*
X4890696Y1954427D01*
X4889965Y1954493D01*
X4889241Y1954597D01*
X4888522Y1954747D01*
X4887813Y1954935D01*
X4887117Y1955166D01*
X4886437Y1955438D01*
X4885774Y1955748D01*
X4885129Y1956096D01*
X4884504Y1956479D01*
X4883902Y1956901D01*
X4883328Y1957356D01*
X4882782Y1957841D01*
X4882261Y1958362D01*
X4881776Y1958908D01*
X4881321Y1959482D01*
X4880900Y1960084D01*
X4880516Y1960706D01*
X4880168Y1961354D01*
X4879858Y1962017D01*
X4879586Y1962697D01*
X4879355Y1963393D01*
X4879167Y1964102D01*
X4879017Y1964821D01*
X4878913Y1965545D01*
X4878847Y1966276D01*
X4878827Y1967008D01*
X4878847Y1967739D01*
X4878913Y1968471D01*
X4879017Y1969195D01*
X4879167Y1969914D01*
X4879355Y1970622D01*
X4879586Y1971318D01*
X4879858Y1971999D01*
X4880168Y1972662D01*
X4880516Y1973307D01*
X4880900Y1973932D01*
X4881321Y1974534D01*
X4881776Y1975108D01*
X4882261Y1975654D01*
X4882782Y1976175D01*
X4883328Y1976660D01*
X4883902Y1977114D01*
X4884504Y1977536D01*
X4885126Y1977920D01*
X4885774Y1978268D01*
X4886437Y1978577D01*
X4887117Y1978849D01*
X4887813Y1979080D01*
X4888522Y1979268D01*
X4889241Y1979418D01*
X4889965Y1979522D01*
X4890696Y1979588D01*
X4891428Y1979609D01*
X4926228D01*
X4926960Y1979588D01*
D02*
G37*
G36*
X4644461D02*
X4645193Y1979522D01*
X4645917Y1979418D01*
X4646635Y1979268D01*
X4647344Y1979080D01*
X4648040Y1978849D01*
X4648721Y1978577D01*
X4649384Y1978268D01*
X4650029Y1977920D01*
X4650654Y1977536D01*
X4651256Y1977114D01*
X4651830Y1976660D01*
X4652376Y1976175D01*
X4652896Y1975654D01*
X4653382Y1975108D01*
X4653836Y1974534D01*
X4654258Y1973932D01*
X4654641Y1973309D01*
X4654989Y1972662D01*
X4655299Y1971999D01*
X4655571Y1971318D01*
X4655802Y1970622D01*
X4655990Y1969914D01*
X4656140Y1969195D01*
X4656244Y1968471D01*
X4656310Y1967739D01*
X4656331Y1967008D01*
X4656310Y1966276D01*
X4656244Y1965545D01*
X4656140Y1964821D01*
X4655990Y1964102D01*
X4655802Y1963393D01*
X4655571Y1962697D01*
X4655299Y1962017D01*
X4654989Y1961354D01*
X4654641Y1960709D01*
X4654258Y1960084D01*
X4653836Y1959482D01*
X4653382Y1958908D01*
X4652896Y1958362D01*
X4652376Y1957841D01*
X4651830Y1957356D01*
X4651256Y1956901D01*
X4650654Y1956479D01*
X4650031Y1956096D01*
X4649384Y1955748D01*
X4648721Y1955438D01*
X4648040Y1955166D01*
X4647344Y1954935D01*
X4646635Y1954747D01*
X4645917Y1954597D01*
X4645193Y1954493D01*
X4644461Y1954427D01*
X4643730Y1954407D01*
X4608932D01*
X4608200Y1954427D01*
X4607469Y1954493D01*
X4606745Y1954597D01*
X4606026Y1954747D01*
X4605317Y1954935D01*
X4604621Y1955166D01*
X4603941Y1955438D01*
X4603278Y1955748D01*
X4602632Y1956096D01*
X4602008Y1956479D01*
X4601406Y1956901D01*
X4600832Y1957356D01*
X4600285Y1957841D01*
X4599765Y1958362D01*
X4599280Y1958908D01*
X4598825Y1959482D01*
X4598403Y1960084D01*
X4598020Y1960706D01*
X4597672Y1961354D01*
X4597362Y1962017D01*
X4597090Y1962697D01*
X4596859Y1963393D01*
X4596671Y1964102D01*
X4596521Y1964821D01*
X4596417Y1965545D01*
X4596351Y1966276D01*
X4596331Y1967008D01*
X4596351Y1967739D01*
X4596417Y1968471D01*
X4596521Y1969195D01*
X4596671Y1969914D01*
X4596859Y1970622D01*
X4597090Y1971318D01*
X4597362Y1971999D01*
X4597672Y1972662D01*
X4598020Y1973307D01*
X4598403Y1973932D01*
X4598825Y1974534D01*
X4599280Y1975108D01*
X4599765Y1975654D01*
X4600285Y1976175D01*
X4600832Y1976660D01*
X4601406Y1977114D01*
X4602008Y1977536D01*
X4602630Y1977920D01*
X4603278Y1978268D01*
X4603941Y1978577D01*
X4604621Y1978849D01*
X4605317Y1979080D01*
X4606026Y1979268D01*
X4606745Y1979418D01*
X4607469Y1979522D01*
X4608200Y1979588D01*
X4608932Y1979609D01*
X4643730D01*
X4644461Y1979588D01*
D02*
G37*
G36*
X4858304Y1945730D02*
X4859035Y1945664D01*
X4859759Y1945560D01*
X4860478Y1945410D01*
X4861187Y1945222D01*
X4861883Y1944991D01*
X4862563Y1944719D01*
X4863226Y1944409D01*
X4863871Y1944061D01*
X4864496Y1943678D01*
X4865098Y1943256D01*
X4865672Y1942802D01*
X4866218Y1942316D01*
X4866739Y1941796D01*
X4867224Y1941250D01*
X4867679Y1940676D01*
X4868100Y1940074D01*
X4868484Y1939451D01*
X4868832Y1938804D01*
X4869142Y1938141D01*
X4869414Y1937460D01*
X4869645Y1936764D01*
X4869833Y1936055D01*
X4869983Y1935336D01*
X4870087Y1934613D01*
X4870153Y1933881D01*
X4870173Y1933150D01*
Y1898352D01*
X4870153Y1897620D01*
X4870087Y1896889D01*
X4869983Y1896165D01*
X4869833Y1895446D01*
X4869645Y1894737D01*
X4869414Y1894041D01*
X4869142Y1893360D01*
X4868832Y1892698D01*
X4868484Y1892050D01*
X4868100Y1891428D01*
X4867679Y1890826D01*
X4867224Y1890251D01*
X4866739Y1889705D01*
X4866218Y1889185D01*
X4865672Y1888700D01*
X4865098Y1888245D01*
X4864496Y1887823D01*
X4863871Y1887440D01*
X4863226Y1887092D01*
X4862563Y1886782D01*
X4861883Y1886510D01*
X4861187Y1886279D01*
X4860478Y1886091D01*
X4859759Y1885941D01*
X4859035Y1885837D01*
X4858304Y1885771D01*
X4857572Y1885751D01*
X4856841Y1885771D01*
X4856109Y1885837D01*
X4855385Y1885941D01*
X4854666Y1886091D01*
X4853958Y1886279D01*
X4853262Y1886510D01*
X4852581Y1886782D01*
X4851918Y1887092D01*
X4851270Y1887440D01*
X4850648Y1887823D01*
X4850046Y1888245D01*
X4849472Y1888700D01*
X4848926Y1889185D01*
X4848405Y1889705D01*
X4847920Y1890251D01*
X4847466Y1890826D01*
X4847044Y1891428D01*
X4846660Y1892052D01*
X4846312Y1892698D01*
X4846003Y1893360D01*
X4845731Y1894041D01*
X4845500Y1894737D01*
X4845312Y1895446D01*
X4845162Y1896165D01*
X4845058Y1896889D01*
X4844992Y1897620D01*
X4844971Y1898352D01*
Y1933150D01*
X4844992Y1933881D01*
X4845058Y1934613D01*
X4845162Y1935336D01*
X4845312Y1936055D01*
X4845500Y1936764D01*
X4845731Y1937460D01*
X4846003Y1938141D01*
X4846312Y1938804D01*
X4846660Y1939449D01*
X4847044Y1940074D01*
X4847466Y1940676D01*
X4847920Y1941250D01*
X4848405Y1941796D01*
X4848926Y1942316D01*
X4849472Y1942802D01*
X4850046Y1943256D01*
X4850648Y1943678D01*
X4851270Y1944061D01*
X4851918Y1944409D01*
X4852581Y1944719D01*
X4853262Y1944991D01*
X4853958Y1945222D01*
X4854666Y1945410D01*
X4855385Y1945560D01*
X4856109Y1945664D01*
X4856841Y1945730D01*
X4857572Y1945750D01*
X4858304Y1945730D01*
D02*
G37*
G36*
X4813320D02*
X4814052Y1945664D01*
X4814776Y1945560D01*
X4815495Y1945410D01*
X4816203Y1945222D01*
X4816899Y1944991D01*
X4817580Y1944719D01*
X4818243Y1944409D01*
X4818888Y1944061D01*
X4819513Y1943678D01*
X4820115Y1943256D01*
X4820689Y1942802D01*
X4821235Y1942316D01*
X4821756Y1941796D01*
X4822241Y1941250D01*
X4822695Y1940676D01*
X4823117Y1940074D01*
X4823501Y1939451D01*
X4823849Y1938804D01*
X4824159Y1938141D01*
X4824430Y1937460D01*
X4824661Y1936764D01*
X4824849Y1936055D01*
X4824999Y1935336D01*
X4825103Y1934613D01*
X4825169Y1933881D01*
X4825190Y1933150D01*
Y1898352D01*
X4825169Y1897620D01*
X4825103Y1896889D01*
X4824999Y1896165D01*
X4824849Y1895446D01*
X4824661Y1894737D01*
X4824430Y1894041D01*
X4824159Y1893360D01*
X4823849Y1892698D01*
X4823501Y1892050D01*
X4823117Y1891428D01*
X4822695Y1890826D01*
X4822241Y1890251D01*
X4821756Y1889705D01*
X4821235Y1889185D01*
X4820689Y1888700D01*
X4820115Y1888245D01*
X4819513Y1887823D01*
X4818888Y1887440D01*
X4818243Y1887092D01*
X4817580Y1886782D01*
X4816899Y1886510D01*
X4816203Y1886279D01*
X4815495Y1886091D01*
X4814776Y1885941D01*
X4814052Y1885837D01*
X4813320Y1885771D01*
X4812589Y1885751D01*
X4811857Y1885771D01*
X4811126Y1885837D01*
X4810402Y1885941D01*
X4809683Y1886091D01*
X4808974Y1886279D01*
X4808278Y1886510D01*
X4807598Y1886782D01*
X4806935Y1887092D01*
X4806287Y1887440D01*
X4805665Y1887823D01*
X4805063Y1888245D01*
X4804489Y1888700D01*
X4803943Y1889185D01*
X4803422Y1889705D01*
X4802937Y1890251D01*
X4802482Y1890826D01*
X4802060Y1891428D01*
X4801677Y1892052D01*
X4801329Y1892698D01*
X4801019Y1893360D01*
X4800747Y1894041D01*
X4800516Y1894737D01*
X4800328Y1895446D01*
X4800178Y1896165D01*
X4800074Y1896889D01*
X4800008Y1897620D01*
X4799988Y1898352D01*
Y1933150D01*
X4800008Y1933881D01*
X4800074Y1934613D01*
X4800178Y1935336D01*
X4800328Y1936055D01*
X4800516Y1936764D01*
X4800747Y1937460D01*
X4801019Y1938141D01*
X4801329Y1938804D01*
X4801677Y1939449D01*
X4802060Y1940074D01*
X4802482Y1940676D01*
X4802937Y1941250D01*
X4803422Y1941796D01*
X4803943Y1942316D01*
X4804489Y1942802D01*
X4805063Y1943256D01*
X4805665Y1943678D01*
X4806287Y1944061D01*
X4806935Y1944409D01*
X4807598Y1944719D01*
X4808278Y1944991D01*
X4808974Y1945222D01*
X4809683Y1945410D01*
X4810402Y1945560D01*
X4811126Y1945664D01*
X4811857Y1945730D01*
X4812589Y1945750D01*
X4813320Y1945730D01*
D02*
G37*
G36*
X4768312D02*
X4769043Y1945664D01*
X4769767Y1945560D01*
X4770486Y1945410D01*
X4771194Y1945222D01*
X4771890Y1944991D01*
X4772571Y1944719D01*
X4773234Y1944409D01*
X4773879Y1944061D01*
X4774504Y1943678D01*
X4775106Y1943256D01*
X4775680Y1942802D01*
X4776226Y1942316D01*
X4776747Y1941796D01*
X4777232Y1941250D01*
X4777687Y1940676D01*
X4778108Y1940074D01*
X4778492Y1939451D01*
X4778840Y1938804D01*
X4779150Y1938141D01*
X4779421Y1937460D01*
X4779653Y1936764D01*
X4779841Y1936055D01*
X4779990Y1935336D01*
X4780095Y1934613D01*
X4780161Y1933881D01*
X4780181Y1933150D01*
Y1898352D01*
X4780161Y1897620D01*
X4780095Y1896889D01*
X4779990Y1896165D01*
X4779841Y1895446D01*
X4779653Y1894737D01*
X4779421Y1894041D01*
X4779150Y1893360D01*
X4778840Y1892698D01*
X4778492Y1892050D01*
X4778108Y1891428D01*
X4777687Y1890826D01*
X4777232Y1890251D01*
X4776747Y1889705D01*
X4776226Y1889185D01*
X4775680Y1888700D01*
X4775106Y1888245D01*
X4774504Y1887823D01*
X4773879Y1887440D01*
X4773234Y1887092D01*
X4772571Y1886782D01*
X4771890Y1886510D01*
X4771194Y1886279D01*
X4770486Y1886091D01*
X4769767Y1885941D01*
X4769043Y1885837D01*
X4768312Y1885771D01*
X4767580Y1885751D01*
X4766848Y1885771D01*
X4766117Y1885837D01*
X4765393Y1885941D01*
X4764674Y1886091D01*
X4763966Y1886279D01*
X4763270Y1886510D01*
X4762589Y1886782D01*
X4761926Y1887092D01*
X4761278Y1887440D01*
X4760656Y1887823D01*
X4760054Y1888245D01*
X4759480Y1888700D01*
X4758934Y1889185D01*
X4758413Y1889705D01*
X4757928Y1890251D01*
X4757473Y1890826D01*
X4757052Y1891428D01*
X4756668Y1892052D01*
X4756320Y1892698D01*
X4756010Y1893360D01*
X4755739Y1894041D01*
X4755507Y1894737D01*
X4755319Y1895446D01*
X4755170Y1896165D01*
X4755065Y1896889D01*
X4754999Y1897620D01*
X4754979Y1898352D01*
Y1933150D01*
X4754999Y1933881D01*
X4755065Y1934613D01*
X4755170Y1935336D01*
X4755319Y1936055D01*
X4755507Y1936764D01*
X4755739Y1937460D01*
X4756010Y1938141D01*
X4756320Y1938804D01*
X4756668Y1939449D01*
X4757052Y1940074D01*
X4757473Y1940676D01*
X4757928Y1941250D01*
X4758413Y1941796D01*
X4758934Y1942316D01*
X4759480Y1942802D01*
X4760054Y1943256D01*
X4760656Y1943678D01*
X4761278Y1944061D01*
X4761926Y1944409D01*
X4762589Y1944719D01*
X4763270Y1944991D01*
X4763966Y1945222D01*
X4764674Y1945410D01*
X4765393Y1945560D01*
X4766117Y1945664D01*
X4766848Y1945730D01*
X4767580Y1945750D01*
X4768312Y1945730D01*
D02*
G37*
G36*
X4723303D02*
X4724034Y1945664D01*
X4724758Y1945560D01*
X4725477Y1945410D01*
X4726186Y1945222D01*
X4726882Y1944991D01*
X4727562Y1944719D01*
X4728225Y1944409D01*
X4728870Y1944061D01*
X4729495Y1943678D01*
X4730097Y1943256D01*
X4730671Y1942802D01*
X4731217Y1942316D01*
X4731738Y1941796D01*
X4732223Y1941250D01*
X4732678Y1940676D01*
X4733099Y1940074D01*
X4733483Y1939451D01*
X4733831Y1938804D01*
X4734141Y1938141D01*
X4734413Y1937460D01*
X4734644Y1936764D01*
X4734832Y1936055D01*
X4734982Y1935336D01*
X4735086Y1934613D01*
X4735152Y1933881D01*
X4735172Y1933150D01*
Y1898352D01*
X4735152Y1897620D01*
X4735086Y1896889D01*
X4734982Y1896165D01*
X4734832Y1895446D01*
X4734644Y1894737D01*
X4734413Y1894041D01*
X4734141Y1893360D01*
X4733831Y1892698D01*
X4733483Y1892050D01*
X4733099Y1891428D01*
X4732678Y1890826D01*
X4732223Y1890251D01*
X4731738Y1889705D01*
X4731217Y1889185D01*
X4730671Y1888700D01*
X4730097Y1888245D01*
X4729495Y1887823D01*
X4728870Y1887440D01*
X4728225Y1887092D01*
X4727562Y1886782D01*
X4726882Y1886510D01*
X4726186Y1886279D01*
X4725477Y1886091D01*
X4724758Y1885941D01*
X4724034Y1885837D01*
X4723303Y1885771D01*
X4722571Y1885751D01*
X4721840Y1885771D01*
X4721108Y1885837D01*
X4720384Y1885941D01*
X4719665Y1886091D01*
X4718957Y1886279D01*
X4718261Y1886510D01*
X4717580Y1886782D01*
X4716917Y1887092D01*
X4716269Y1887440D01*
X4715647Y1887823D01*
X4715045Y1888245D01*
X4714471Y1888700D01*
X4713925Y1889185D01*
X4713404Y1889705D01*
X4712919Y1890251D01*
X4712465Y1890826D01*
X4712043Y1891428D01*
X4711659Y1892052D01*
X4711311Y1892698D01*
X4711001Y1893360D01*
X4710730Y1894041D01*
X4710499Y1894737D01*
X4710311Y1895446D01*
X4710161Y1896165D01*
X4710057Y1896889D01*
X4709991Y1897620D01*
X4709970Y1898352D01*
Y1933150D01*
X4709991Y1933881D01*
X4710057Y1934613D01*
X4710161Y1935336D01*
X4710311Y1936055D01*
X4710499Y1936764D01*
X4710730Y1937460D01*
X4711001Y1938141D01*
X4711311Y1938804D01*
X4711659Y1939449D01*
X4712043Y1940074D01*
X4712465Y1940676D01*
X4712919Y1941250D01*
X4713404Y1941796D01*
X4713925Y1942316D01*
X4714471Y1942802D01*
X4715045Y1943256D01*
X4715647Y1943678D01*
X4716269Y1944061D01*
X4716917Y1944409D01*
X4717580Y1944719D01*
X4718261Y1944991D01*
X4718957Y1945222D01*
X4719665Y1945410D01*
X4720384Y1945560D01*
X4721108Y1945664D01*
X4721840Y1945730D01*
X4722571Y1945750D01*
X4723303Y1945730D01*
D02*
G37*
G36*
X4678319D02*
X4679051Y1945664D01*
X4679775Y1945560D01*
X4680494Y1945410D01*
X4681202Y1945222D01*
X4681898Y1944991D01*
X4682579Y1944719D01*
X4683242Y1944409D01*
X4683887Y1944061D01*
X4684512Y1943678D01*
X4685114Y1943256D01*
X4685688Y1942802D01*
X4686234Y1942316D01*
X4686755Y1941796D01*
X4687240Y1941250D01*
X4687694Y1940676D01*
X4688116Y1940074D01*
X4688500Y1939451D01*
X4688848Y1938804D01*
X4689158Y1938141D01*
X4689429Y1937460D01*
X4689660Y1936764D01*
X4689848Y1936055D01*
X4689998Y1935336D01*
X4690102Y1934613D01*
X4690168Y1933881D01*
X4690189Y1933150D01*
Y1898352D01*
X4690168Y1897620D01*
X4690102Y1896889D01*
X4689998Y1896165D01*
X4689848Y1895446D01*
X4689660Y1894737D01*
X4689429Y1894041D01*
X4689158Y1893360D01*
X4688848Y1892698D01*
X4688500Y1892050D01*
X4688116Y1891428D01*
X4687694Y1890826D01*
X4687240Y1890251D01*
X4686755Y1889705D01*
X4686234Y1889185D01*
X4685688Y1888700D01*
X4685114Y1888245D01*
X4684512Y1887823D01*
X4683887Y1887440D01*
X4683242Y1887092D01*
X4682579Y1886782D01*
X4681898Y1886510D01*
X4681202Y1886279D01*
X4680494Y1886091D01*
X4679775Y1885941D01*
X4679051Y1885837D01*
X4678319Y1885771D01*
X4677588Y1885751D01*
X4676856Y1885771D01*
X4676125Y1885837D01*
X4675401Y1885941D01*
X4674682Y1886091D01*
X4673973Y1886279D01*
X4673277Y1886510D01*
X4672597Y1886782D01*
X4671934Y1887092D01*
X4671286Y1887440D01*
X4670664Y1887823D01*
X4670062Y1888245D01*
X4669488Y1888700D01*
X4668942Y1889185D01*
X4668421Y1889705D01*
X4667936Y1890251D01*
X4667481Y1890826D01*
X4667059Y1891428D01*
X4666676Y1892052D01*
X4666328Y1892698D01*
X4666018Y1893360D01*
X4665746Y1894041D01*
X4665515Y1894737D01*
X4665327Y1895446D01*
X4665177Y1896165D01*
X4665073Y1896889D01*
X4665007Y1897620D01*
X4664987Y1898352D01*
Y1933150D01*
X4665007Y1933881D01*
X4665073Y1934613D01*
X4665177Y1935336D01*
X4665327Y1936055D01*
X4665515Y1936764D01*
X4665746Y1937460D01*
X4666018Y1938141D01*
X4666328Y1938804D01*
X4666676Y1939449D01*
X4667059Y1940074D01*
X4667481Y1940676D01*
X4667936Y1941250D01*
X4668421Y1941796D01*
X4668942Y1942316D01*
X4669488Y1942802D01*
X4670062Y1943256D01*
X4670664Y1943678D01*
X4671286Y1944061D01*
X4671934Y1944409D01*
X4672597Y1944719D01*
X4673277Y1944991D01*
X4673973Y1945222D01*
X4674682Y1945410D01*
X4675401Y1945560D01*
X4676125Y1945664D01*
X4676856Y1945730D01*
X4677588Y1945750D01*
X4678319Y1945730D01*
D02*
G37*
%TF.MD5,73a9b3ea4a208849c6faddd754c2f404*%
M02*
