%TF.GenerationSoftware,Altium Limited,Altium Designer,24.0.1 (36)*%
G04 Layer_Color=16711935*
%FSLAX45Y45*%
%MOMM*%
%TF.SameCoordinates,79EBFB85-6253-4421-BC9D-CD6C48D828FA*%
%TF.FilePolarity,Negative*%
%TF.FileFunction,Soldermask,Bot*%
%TF.Part,Single*%
G01*
G75*
%TA.AperFunction,SMDPad,CuDef*%
%ADD56R,0.70320X0.70320*%
%TA.AperFunction,ComponentPad*%
%ADD57C,1.45320*%
%ADD58O,2.15320X1.45320*%
%ADD59C,1.20320*%
%TA.AperFunction,SMDPad,CuDef*%
%ADD60R,0.70320X0.70320*%
%ADD61R,0.75321X1.10320*%
%ADD62R,1.60320X2.10320*%
%ADD63R,0.45321X1.10320*%
%ADD64R,2.60320X3.40319*%
%ADD65R,1.47320X1.09220*%
%ADD66R,1.20320X0.65320*%
%ADD67R,0.90320X2.20320*%
%ADD68R,3.20320X5.20320*%
%TA.AperFunction,ConnectorPad*%
%ADD69R,0.90320X2.20320*%
%ADD70R,3.20320X5.20320*%
%TA.AperFunction,SMDPad,CuDef*%
%ADD71O,1.05320X0.47820*%
%ADD72O,0.47820X1.05320*%
%ADD73R,1.20320X1.20320*%
%ADD74R,1.05320X0.47820*%
G36*
X18517059Y3722720D02*
X18197060D01*
Y3930220D01*
X18237061D01*
X18242560Y3930520D01*
X18247960Y3931320D01*
X18253259Y3932820D01*
X18258459Y3934720D01*
X18263260Y3937220D01*
X18267960Y3940220D01*
X18272160Y3943720D01*
X18276060Y3947620D01*
X18279559Y3951820D01*
X18282561Y3956520D01*
X18285060Y3961320D01*
X18286960Y3966520D01*
X18288460Y3971820D01*
X18289259Y3977220D01*
X18289560Y3982720D01*
X18289259Y3988220D01*
X18288460Y3993620D01*
X18286960Y3998920D01*
X18285060Y4004120D01*
X18282561Y4008920D01*
X18279559Y4013620D01*
X18276060Y4017820D01*
X18272160Y4021720D01*
X18267960Y4025220D01*
X18263260Y4028220D01*
X18258459Y4030720D01*
X18253259Y4032620D01*
X18247960Y4034120D01*
X18242560Y4034920D01*
X18237061Y4035220D01*
X18197060D01*
Y4242720D01*
X18517059D01*
Y3722720D01*
D02*
G37*
G36*
X10162280Y3658140D02*
Y3358140D01*
X9812280D01*
Y3708140D01*
X10112280D01*
X10162280Y3658140D01*
D02*
G37*
G36*
X18517059Y2450180D02*
X18197060D01*
Y2657680D01*
X18237061D01*
X18242560Y2657980D01*
X18247960Y2658780D01*
X18253259Y2660280D01*
X18258459Y2662180D01*
X18263260Y2664680D01*
X18267960Y2667680D01*
X18272160Y2671180D01*
X18276060Y2675080D01*
X18279559Y2679280D01*
X18282561Y2683980D01*
X18285060Y2688780D01*
X18286960Y2693980D01*
X18288460Y2699280D01*
X18289259Y2704680D01*
X18289560Y2710180D01*
X18289259Y2715680D01*
X18288460Y2721080D01*
X18286960Y2726380D01*
X18285060Y2731580D01*
X18282561Y2736380D01*
X18279559Y2741080D01*
X18276060Y2745280D01*
X18272160Y2749180D01*
X18267960Y2752680D01*
X18263260Y2755680D01*
X18258459Y2758180D01*
X18253259Y2760080D01*
X18247960Y2761580D01*
X18242560Y2762380D01*
X18237061Y2762680D01*
X18197060D01*
Y2970180D01*
X18517059D01*
Y2450180D01*
D02*
G37*
G36*
Y1177640D02*
X18197060D01*
Y1385140D01*
X18237061D01*
X18242560Y1385440D01*
X18247960Y1386240D01*
X18253259Y1387740D01*
X18258459Y1389640D01*
X18263260Y1392140D01*
X18267960Y1395140D01*
X18272160Y1398640D01*
X18276060Y1402540D01*
X18279559Y1406740D01*
X18282561Y1411440D01*
X18285060Y1416240D01*
X18286960Y1421440D01*
X18288460Y1426740D01*
X18289259Y1432140D01*
X18289560Y1437640D01*
X18289259Y1443140D01*
X18288460Y1448540D01*
X18286960Y1453840D01*
X18285060Y1459040D01*
X18282561Y1463840D01*
X18279559Y1468540D01*
X18276060Y1472740D01*
X18272160Y1476640D01*
X18267960Y1480140D01*
X18263260Y1483140D01*
X18258459Y1485640D01*
X18253259Y1487540D01*
X18247960Y1489040D01*
X18242560Y1489840D01*
X18237061Y1490140D01*
X18197060D01*
Y1697640D01*
X18517059D01*
Y1177640D01*
D02*
G37*
G36*
X19710400Y561340D02*
Y50800D01*
X19659599Y0D01*
X11330940D01*
X11280140Y50800D01*
Y576580D01*
X19695160D01*
X19710400Y561340D01*
D02*
G37*
D56*
X10038080Y3987800D02*
D03*
Y4077800D02*
D03*
X10111740Y3081020D02*
D03*
Y2991020D02*
D03*
X10144760Y3987800D02*
D03*
Y4077800D02*
D03*
X9931400Y3987800D02*
D03*
Y4077800D02*
D03*
X12763500Y1240960D02*
D03*
Y1330960D02*
D03*
Y2523660D02*
D03*
Y2613660D02*
D03*
X11346180Y742360D02*
D03*
Y827360D02*
D03*
X12763500Y3898900D02*
D03*
Y3808900D02*
D03*
X10632440Y3171280D02*
D03*
Y3256280D02*
D03*
X9339580Y3450500D02*
D03*
Y3365500D02*
D03*
X10632440Y3567520D02*
D03*
Y3652520D02*
D03*
X9339580Y3846740D02*
D03*
Y3761740D02*
D03*
Y3570060D02*
D03*
Y3655060D02*
D03*
X10632440Y3447960D02*
D03*
Y3362960D02*
D03*
Y3844200D02*
D03*
Y3759200D02*
D03*
X9339580Y3173820D02*
D03*
Y3258820D02*
D03*
D57*
X18237061Y2710180D02*
D03*
X15922060D02*
D03*
X18237061Y1437640D02*
D03*
X15922060D02*
D03*
X18237061Y3982720D02*
D03*
X15922060D02*
D03*
D58*
X7495460Y4216540D02*
D03*
Y2900540D02*
D03*
X7016460Y4216540D02*
D03*
Y2900540D02*
D03*
D59*
X7236460Y4099540D02*
D03*
Y2964540D02*
D03*
D60*
X9445445Y3653536D02*
D03*
X9530445D02*
D03*
X9445445Y3759708D02*
D03*
X9530445D02*
D03*
X9532620Y3865880D02*
D03*
X9442620D02*
D03*
X9445445Y3258820D02*
D03*
X9530445D02*
D03*
X9532620Y3509264D02*
D03*
X9442620D02*
D03*
X10441125Y3865880D02*
D03*
X10531125D02*
D03*
X10441125Y3507740D02*
D03*
X10531125D02*
D03*
X12309700Y4145280D02*
D03*
X12219700D02*
D03*
X13795457Y1303020D02*
D03*
X13885458D02*
D03*
X12307517Y1684020D02*
D03*
X12222517D02*
D03*
X12578798Y1836420D02*
D03*
X12668798D02*
D03*
X12221875Y1470660D02*
D03*
X12306875D02*
D03*
X12309700Y1577340D02*
D03*
X12219700D02*
D03*
X12221875Y2753360D02*
D03*
X12306875D02*
D03*
X12307517Y2966720D02*
D03*
X12222517D02*
D03*
X12309700Y2860040D02*
D03*
X12219700D02*
D03*
X12578798Y3119120D02*
D03*
X12668798D02*
D03*
X13795457Y2585720D02*
D03*
X13885458D02*
D03*
X12222517Y4251960D02*
D03*
X12307517D02*
D03*
X13885458Y3870960D02*
D03*
X13795457D02*
D03*
X12668798Y4404360D02*
D03*
X12578798D02*
D03*
X12306875Y4038600D02*
D03*
X12221875D02*
D03*
X10443300Y3759200D02*
D03*
X10528300D02*
D03*
X10443300Y3256280D02*
D03*
X10528300D02*
D03*
X10443300Y3652520D02*
D03*
X10528300D02*
D03*
X9530445Y3364992D02*
D03*
X9445445D02*
D03*
X10443300Y3362960D02*
D03*
X10528300D02*
D03*
D61*
X9455048Y2321585D02*
D03*
X10585044D02*
D03*
X9460395Y1184935D02*
D03*
X10590390D02*
D03*
X20029335Y3869715D02*
D03*
X21159331D02*
D03*
D62*
X9235034Y2039595D02*
D03*
X10805033D02*
D03*
X9240380Y902945D02*
D03*
X10810380D02*
D03*
X19809320Y3587725D02*
D03*
X21379320D02*
D03*
D63*
X10495026Y2321560D02*
D03*
X10445039D02*
D03*
X10395026D02*
D03*
X10345039D02*
D03*
X10295026D02*
D03*
X10245039D02*
D03*
X10195027D02*
D03*
X10145039D02*
D03*
X10095027D02*
D03*
X10045040D02*
D03*
X9995027D02*
D03*
X9945040D02*
D03*
X9895027D02*
D03*
X9845040D02*
D03*
X9795027D02*
D03*
X9745040D02*
D03*
X9695028D02*
D03*
X9645040D02*
D03*
X9595028D02*
D03*
X9545041D02*
D03*
X10500373Y1184910D02*
D03*
X10450385D02*
D03*
X10400373D02*
D03*
X10350386D02*
D03*
X10300373D02*
D03*
X10250386D02*
D03*
X10200373D02*
D03*
X10150386D02*
D03*
X10100373D02*
D03*
X10050386D02*
D03*
X10000374D02*
D03*
X9950386D02*
D03*
X9900374D02*
D03*
X9850387D02*
D03*
X9800374D02*
D03*
X9750387D02*
D03*
X9700374D02*
D03*
X9650387D02*
D03*
X9600374D02*
D03*
X9550387D02*
D03*
X21069313Y3869690D02*
D03*
X21019325D02*
D03*
X20969313D02*
D03*
X20919325D02*
D03*
X20869313D02*
D03*
X20819325D02*
D03*
X20769313D02*
D03*
X20719325D02*
D03*
X20669313D02*
D03*
X20619325D02*
D03*
X20569315D02*
D03*
X20519325D02*
D03*
X20469315D02*
D03*
X20419327D02*
D03*
X20369315D02*
D03*
X20319327D02*
D03*
X20269315D02*
D03*
X20219327D02*
D03*
X20169315D02*
D03*
X20119327D02*
D03*
D64*
X12999451Y1422400D02*
D03*
X13599451D02*
D03*
X12999451Y2705100D02*
D03*
X13599451D02*
D03*
X12999451Y3990340D02*
D03*
X13599451D02*
D03*
D65*
X13848088Y1677428D02*
D03*
Y1487428D02*
D03*
X12603480Y1105400D02*
D03*
Y1295400D02*
D03*
X14053819Y1676400D02*
D03*
Y1486400D02*
D03*
X13848088Y2960128D02*
D03*
Y2770128D02*
D03*
X14053819Y2959100D02*
D03*
Y2769100D02*
D03*
X12603480Y2388100D02*
D03*
Y2578100D02*
D03*
Y3863340D02*
D03*
Y3673340D02*
D03*
X14053819Y4054340D02*
D03*
Y4244340D02*
D03*
X13848088Y4055368D02*
D03*
Y4245368D02*
D03*
D66*
X12479020Y1669800D02*
D03*
Y1574800D02*
D03*
Y1479800D02*
D03*
X12758420D02*
D03*
Y1574800D02*
D03*
Y1669800D02*
D03*
X12479020Y2952500D02*
D03*
Y2857500D02*
D03*
Y2762500D02*
D03*
X12758420D02*
D03*
Y2857500D02*
D03*
Y2952500D02*
D03*
Y4237740D02*
D03*
Y4142740D02*
D03*
Y4047740D02*
D03*
X12479020D02*
D03*
Y4142740D02*
D03*
Y4237740D02*
D03*
D67*
X17557060Y3070180D02*
D03*
X17657060D02*
D03*
X18057060D02*
D03*
X17757060D02*
D03*
X17957060D02*
D03*
X17857060D02*
D03*
X16757060D02*
D03*
X16957060D02*
D03*
X16857060D02*
D03*
X17457060D02*
D03*
X17357060D02*
D03*
X17057060D02*
D03*
X17257060D02*
D03*
X17157060D02*
D03*
X18057060Y2350180D02*
D03*
X17757060D02*
D03*
X17957060D02*
D03*
X17857060D02*
D03*
X17057060D02*
D03*
X17157060D02*
D03*
X16757060D02*
D03*
X16957060D02*
D03*
X16857060D02*
D03*
X17557060D02*
D03*
X17657060D02*
D03*
X17257060D02*
D03*
X17457060D02*
D03*
X17357060D02*
D03*
X15757060Y3070180D02*
D03*
X16057060D02*
D03*
X15457060D02*
D03*
X15657060D02*
D03*
X15557060D02*
D03*
X16457060D02*
D03*
X16657060D02*
D03*
X16557060D02*
D03*
X16157060D02*
D03*
X16357060D02*
D03*
X16257060D02*
D03*
X14757060D02*
D03*
X14957060D02*
D03*
X14857060D02*
D03*
X15157060D02*
D03*
X15357060D02*
D03*
X15257060D02*
D03*
X15057060D02*
D03*
X16057060Y2350180D02*
D03*
X15757060D02*
D03*
X15457060D02*
D03*
X15657060D02*
D03*
X15557060D02*
D03*
X16457060D02*
D03*
X16657060D02*
D03*
X16557060D02*
D03*
X16157060D02*
D03*
X16357060D02*
D03*
X16257060D02*
D03*
X14757060D02*
D03*
X14957060D02*
D03*
X14857060D02*
D03*
X15157060D02*
D03*
X15357060D02*
D03*
X15257060D02*
D03*
X15057060D02*
D03*
X18057060Y1797640D02*
D03*
Y1077640D02*
D03*
X17957060Y1797640D02*
D03*
Y1077640D02*
D03*
X17857060Y1797640D02*
D03*
Y1077640D02*
D03*
X17757060Y1797640D02*
D03*
Y1077640D02*
D03*
X17657060Y1797640D02*
D03*
Y1077640D02*
D03*
X17557060Y1797640D02*
D03*
Y1077640D02*
D03*
X17457060Y1797640D02*
D03*
Y1077640D02*
D03*
X17357060Y1797640D02*
D03*
Y1077640D02*
D03*
X17257060Y1797640D02*
D03*
Y1077640D02*
D03*
X17157060Y1797640D02*
D03*
Y1077640D02*
D03*
X17057060Y1797640D02*
D03*
Y1077640D02*
D03*
X16957060Y1797640D02*
D03*
Y1077640D02*
D03*
X16857060Y1797640D02*
D03*
Y1077640D02*
D03*
X16757060Y1797640D02*
D03*
Y1077640D02*
D03*
X16657060Y1797640D02*
D03*
Y1077640D02*
D03*
X16557060Y1797640D02*
D03*
Y1077640D02*
D03*
X16457060Y1797640D02*
D03*
Y1077640D02*
D03*
X16357060Y1797640D02*
D03*
Y1077640D02*
D03*
X16257060Y1797640D02*
D03*
Y1077640D02*
D03*
X16157060Y1797640D02*
D03*
Y1077640D02*
D03*
X16057060Y1797640D02*
D03*
Y1077640D02*
D03*
X15757060Y1797640D02*
D03*
Y1077640D02*
D03*
X15657060Y1797640D02*
D03*
Y1077640D02*
D03*
X15557060Y1797640D02*
D03*
Y1077640D02*
D03*
X15457060Y1797640D02*
D03*
Y1077640D02*
D03*
X15357060Y1797640D02*
D03*
Y1077640D02*
D03*
X15257060Y1797640D02*
D03*
Y1077640D02*
D03*
X15157060Y1797640D02*
D03*
Y1077640D02*
D03*
X15057060Y1797640D02*
D03*
Y1077640D02*
D03*
X14957060Y1797640D02*
D03*
Y1077640D02*
D03*
X14857060Y1797640D02*
D03*
Y1077640D02*
D03*
X14757060Y1797640D02*
D03*
Y1077640D02*
D03*
D68*
X14457060Y2710180D02*
D03*
Y1437640D02*
D03*
D69*
X17557060Y4342720D02*
D03*
X17657060D02*
D03*
X18057060D02*
D03*
X17757060D02*
D03*
X17957060D02*
D03*
X17857060D02*
D03*
X16757060D02*
D03*
X16957060D02*
D03*
X16857060D02*
D03*
X17457060D02*
D03*
X17357060D02*
D03*
X17057060D02*
D03*
X17257060D02*
D03*
X17157060D02*
D03*
X18057060Y3622720D02*
D03*
X17757060D02*
D03*
X17957060D02*
D03*
X17857060D02*
D03*
X17057060D02*
D03*
X17157060D02*
D03*
X16757060D02*
D03*
X16957060D02*
D03*
X16857060D02*
D03*
X17557060D02*
D03*
X17657060D02*
D03*
X17257060D02*
D03*
X17457060D02*
D03*
X17357060D02*
D03*
X15757060Y4342720D02*
D03*
X16057060D02*
D03*
X15457060D02*
D03*
X15657060D02*
D03*
X15557060D02*
D03*
X16457060D02*
D03*
X16657060D02*
D03*
X16557060D02*
D03*
X16157060D02*
D03*
X16357060D02*
D03*
X16257060D02*
D03*
X14757060D02*
D03*
X14957060D02*
D03*
X14857060D02*
D03*
X15157060D02*
D03*
X15357060D02*
D03*
X15257060D02*
D03*
X15057060D02*
D03*
X16057060Y3622720D02*
D03*
X15757060D02*
D03*
X15457060D02*
D03*
X15657060D02*
D03*
X15557060D02*
D03*
X16457060D02*
D03*
X16657060D02*
D03*
X16557060D02*
D03*
X16157060D02*
D03*
X16357060D02*
D03*
X16257060D02*
D03*
X14757060D02*
D03*
X14957060D02*
D03*
X14857060D02*
D03*
X15157060D02*
D03*
X15357060D02*
D03*
X15257060D02*
D03*
X15057060D02*
D03*
D70*
X14457060Y3982720D02*
D03*
D71*
X9742170Y3358096D02*
D03*
Y3458121D02*
D03*
Y3408108D02*
D03*
Y3558146D02*
D03*
Y3508134D02*
D03*
X10232390D02*
D03*
Y3558146D02*
D03*
Y3408108D02*
D03*
Y3358096D02*
D03*
Y3458121D02*
D03*
X9742170Y3658171D02*
D03*
Y3608159D02*
D03*
Y3708184D02*
D03*
X10232390Y3658171D02*
D03*
Y3608159D02*
D03*
D72*
X9812236Y3288030D02*
D03*
X9962274D02*
D03*
X10012286D02*
D03*
X9862248D02*
D03*
X9912261D02*
D03*
X10162324D02*
D03*
X10062299D02*
D03*
X10112311D02*
D03*
X10062299Y3778250D02*
D03*
X10112311D02*
D03*
X9812236D02*
D03*
X9862248D02*
D03*
X9962274D02*
D03*
X10012286D02*
D03*
X9912261D02*
D03*
X10162324D02*
D03*
D73*
X9987280Y3533140D02*
D03*
D74*
X10232390Y3708197D02*
D03*
%TF.MD5,6db6d00e8f0d0bb04dd5c5eb140a0b00*%
M02*
