%TF.GenerationSoftware,Altium Limited,Altium Designer,24.0.1 (36)*%
G04 Layer_Physical_Order=4*
G04 Layer_Color=15238730*
%FSLAX45Y45*%
%MOMM*%
%TF.SameCoordinates,79EBFB85-6253-4421-BC9D-CD6C48D828FA*%
%TF.FilePolarity,Positive*%
%TF.FileFunction,Copper,L4,Bot,Signal*%
%TF.Part,Single*%
G01*
G75*
%TA.AperFunction,Conductor*%
%ADD10C,0.16205*%
%ADD11C,0.76200*%
%TA.AperFunction,SMDPad,CuDef*%
%ADD17R,0.50000X0.50000*%
%TA.AperFunction,ConnectorPad*%
%ADD18R,0.71120X4.57200*%
%ADD19R,0.71120X3.17500*%
%TA.AperFunction,Conductor*%
%ADD20C,0.25400*%
%ADD21C,0.15240*%
%TA.AperFunction,ComponentPad*%
%ADD22C,1.25000*%
%ADD23O,1.95000X1.25000*%
%ADD24C,1.00000*%
%TA.AperFunction,ViaPad*%
%ADD25C,0.40000*%
%TA.AperFunction,Conductor*%
%ADD26C,1.27000*%
%TA.AperFunction,SMDPad,CuDef*%
%ADD27R,0.50000X0.50000*%
%ADD28R,0.55001X0.90000*%
%ADD29R,1.40000X1.90000*%
%ADD30R,0.25001X0.90000*%
%ADD31R,2.40000X3.19999*%
%ADD32R,1.27000X0.88900*%
%ADD33R,1.00000X0.45000*%
%ADD34R,0.70000X2.00000*%
%ADD35R,3.00000X5.00000*%
%TA.AperFunction,ConnectorPad*%
%ADD36R,0.70000X2.00000*%
%ADD37R,3.00000X5.00000*%
%TA.AperFunction,SMDPad,CuDef*%
%ADD38O,0.85000X0.27500*%
%ADD39O,0.27500X0.85000*%
%ADD40R,1.00000X1.00000*%
%ADD41R,0.85000X0.27500*%
%TA.AperFunction,Conductor*%
%ADD42C,0.20320*%
%ADD43C,0.38100*%
%ADD44C,0.30000*%
G36*
X14150340Y4325620D02*
Y4185920D01*
X14124940Y4160520D01*
X13799820D01*
X13764259Y4124960D01*
Y3972560D01*
X13830299Y3906520D01*
Y3830320D01*
X13815060Y3815080D01*
X13479781D01*
X13456920Y3837940D01*
Y4259580D01*
X13543280Y4345940D01*
X14130020D01*
X14150340Y4325620D01*
D02*
G37*
G36*
X13157201Y4145280D02*
Y3835400D01*
X13136880Y3815080D01*
X12857480D01*
X12834621Y3837940D01*
Y4079240D01*
X12809219Y4104640D01*
X12710160D01*
X12697460Y4117340D01*
Y4170680D01*
X12705080Y4178300D01*
X13124181D01*
X13157201Y4145280D01*
D02*
G37*
G36*
X12816840Y4053840D02*
Y3881120D01*
X12796520Y3860800D01*
X12717780D01*
X12664440Y3807460D01*
X12524740D01*
X12509500Y3822700D01*
Y3962348D01*
X12619026Y4071875D01*
X12798805D01*
X12816840Y4053840D01*
D02*
G37*
G36*
X18507060Y3732720D02*
X18207060D01*
Y3920220D01*
X18237061D01*
X18243559Y3920520D01*
X18250060Y3921620D01*
X18256360Y3923320D01*
X18262460Y3925620D01*
X18268260Y3928620D01*
X18273759Y3932120D01*
X18278860Y3936320D01*
X18283459Y3940920D01*
X18287660Y3946020D01*
X18291161Y3951520D01*
X18294160Y3957320D01*
X18296460Y3963420D01*
X18298160Y3969720D01*
X18299260Y3976220D01*
X18299561Y3982720D01*
X18299260Y3989220D01*
X18298160Y3995720D01*
X18296460Y4002020D01*
X18294160Y4008120D01*
X18291161Y4013920D01*
X18287660Y4019420D01*
X18283459Y4024520D01*
X18278860Y4029120D01*
X18273759Y4033320D01*
X18268260Y4036820D01*
X18262460Y4039820D01*
X18256360Y4042120D01*
X18250060Y4043820D01*
X18243559Y4044920D01*
X18237061Y4045220D01*
X18207060D01*
Y4232720D01*
X18507060D01*
Y3732720D01*
D02*
G37*
G36*
X14653259Y4135120D02*
Y3728720D01*
X14620239Y3695700D01*
X13893800D01*
X13853160Y3736340D01*
Y3921760D01*
X13784579Y3990340D01*
Y4114800D01*
X13812520Y4142740D01*
X14150340D01*
X14239240Y4231640D01*
X14556740D01*
X14653259Y4135120D01*
D02*
G37*
G36*
X15494000Y4442460D02*
Y4241800D01*
X15697200Y4038600D01*
Y3533140D01*
X15687041Y3522980D01*
X15519400Y3522980D01*
X15506700Y3535680D01*
Y3751580D01*
X15417799Y3840480D01*
Y4442460D01*
X15427960Y4452620D01*
X15483839D01*
X15494000Y4442460D01*
D02*
G37*
G36*
X10162280Y3658140D02*
Y3358140D01*
X9812280D01*
Y3708140D01*
X10112280D01*
X10162280Y3658140D01*
D02*
G37*
G36*
X14150340Y3040380D02*
Y2900680D01*
X14124940Y2875280D01*
X13799820D01*
X13764259Y2839720D01*
Y2687320D01*
X13830299Y2621280D01*
Y2545080D01*
X13815060Y2529840D01*
X13479781D01*
X13456920Y2552700D01*
Y2974340D01*
X13543280Y3060700D01*
X14130020D01*
X14150340Y3040380D01*
D02*
G37*
G36*
X13157201Y2860040D02*
Y2550160D01*
X13136880Y2529840D01*
X12857480D01*
X12834621Y2552700D01*
Y2794000D01*
X12809219Y2819400D01*
X12710160D01*
X12697460Y2832100D01*
Y2885440D01*
X12705080Y2893060D01*
X13124181D01*
X13157201Y2860040D01*
D02*
G37*
G36*
X12816840Y2768600D02*
Y2595880D01*
X12796520Y2575560D01*
X12717780D01*
X12664440Y2522220D01*
X12524740D01*
X12509500Y2537460D01*
Y2677108D01*
X12619026Y2786635D01*
X12798805D01*
X12816840Y2768600D01*
D02*
G37*
G36*
X18507060Y2460180D02*
X18207060D01*
Y2647680D01*
X18237061D01*
X18243559Y2647980D01*
X18250060Y2649080D01*
X18256360Y2650780D01*
X18262460Y2653080D01*
X18268260Y2656080D01*
X18273759Y2659580D01*
X18278860Y2663780D01*
X18283459Y2668380D01*
X18287660Y2673480D01*
X18291161Y2678980D01*
X18294160Y2684780D01*
X18296460Y2690880D01*
X18298160Y2697180D01*
X18299260Y2703680D01*
X18299561Y2710180D01*
X18299260Y2716680D01*
X18298160Y2723180D01*
X18296460Y2729480D01*
X18294160Y2735580D01*
X18291161Y2741380D01*
X18287660Y2746880D01*
X18283459Y2751980D01*
X18278860Y2756580D01*
X18273759Y2760780D01*
X18268260Y2764280D01*
X18262460Y2767280D01*
X18256360Y2769580D01*
X18250060Y2771280D01*
X18243559Y2772380D01*
X18237061Y2772680D01*
X18207060D01*
Y2960180D01*
X18507060D01*
Y2460180D01*
D02*
G37*
G36*
X14632941Y2910840D02*
Y2453640D01*
X14589760Y2410460D01*
X13886180D01*
X13848080Y2448560D01*
Y2641600D01*
X13787120Y2702560D01*
Y2829560D01*
X13812520Y2854960D01*
X14150340D01*
X14254480Y2959100D01*
X14584680D01*
X14632941Y2910840D01*
D02*
G37*
G36*
X15494000Y3169920D02*
Y2969260D01*
X15697200Y2766060D01*
Y2260600D01*
X15687041Y2250440D01*
X15519400Y2250440D01*
X15506700Y2263140D01*
Y2479040D01*
X15417799Y2567940D01*
Y3169920D01*
X15427960Y3180080D01*
X15483839D01*
X15494000Y3169920D01*
D02*
G37*
G36*
X14150340Y1757680D02*
Y1617980D01*
X14124940Y1592580D01*
X13799820D01*
X13764259Y1557020D01*
Y1404620D01*
X13830299Y1338580D01*
Y1262380D01*
X13815060Y1247140D01*
X13479781D01*
X13456920Y1270000D01*
Y1691640D01*
X13543280Y1778000D01*
X14130020D01*
X14150340Y1757680D01*
D02*
G37*
G36*
X13157201Y1577340D02*
Y1267460D01*
X13136880Y1247140D01*
X12857480D01*
X12834621Y1270000D01*
Y1511300D01*
X12809219Y1536700D01*
X12710160D01*
X12697460Y1549400D01*
Y1602740D01*
X12705080Y1610360D01*
X13124181D01*
X13157201Y1577340D01*
D02*
G37*
G36*
X12816840Y1485900D02*
Y1313180D01*
X12796520Y1292860D01*
X12717780D01*
X12664440Y1239520D01*
X12524740D01*
X12509500Y1254760D01*
Y1394408D01*
X12619026Y1503935D01*
X12798805D01*
X12816840Y1485900D01*
D02*
G37*
G36*
X18507060Y1187640D02*
X18207060D01*
Y1375140D01*
X18237061D01*
X18243559Y1375440D01*
X18250060Y1376540D01*
X18256360Y1378240D01*
X18262460Y1380540D01*
X18268260Y1383540D01*
X18273759Y1387040D01*
X18278860Y1391240D01*
X18283459Y1395840D01*
X18287660Y1400940D01*
X18291161Y1406440D01*
X18294160Y1412240D01*
X18296460Y1418340D01*
X18298160Y1424640D01*
X18299260Y1431140D01*
X18299561Y1437640D01*
X18299260Y1444140D01*
X18298160Y1450640D01*
X18296460Y1456940D01*
X18294160Y1463040D01*
X18291161Y1468840D01*
X18287660Y1474340D01*
X18283459Y1479440D01*
X18278860Y1484040D01*
X18273759Y1488240D01*
X18268260Y1491740D01*
X18262460Y1494740D01*
X18256360Y1497040D01*
X18250060Y1498740D01*
X18243559Y1499840D01*
X18237061Y1500140D01*
X18207060D01*
Y1687640D01*
X18507060D01*
Y1187640D01*
D02*
G37*
G36*
X14640559Y1620520D02*
Y1549400D01*
Y1183640D01*
X14592300Y1135380D01*
X13909039D01*
X13850620Y1193800D01*
Y1346200D01*
X13782040Y1414780D01*
Y1536700D01*
X13809979Y1564640D01*
X14127480D01*
X14178281Y1615440D01*
Y1635760D01*
X14226540Y1684020D01*
X14577060D01*
X14640559Y1620520D01*
D02*
G37*
G36*
X15494000Y1897380D02*
Y1696720D01*
X15697200Y1493520D01*
Y988060D01*
X15687041Y977900D01*
X15519400Y977900D01*
X15506700Y990600D01*
Y1206500D01*
X15417799Y1295400D01*
Y1897380D01*
X15427960Y1907540D01*
X15483839D01*
X15494000Y1897380D01*
D02*
G37*
G36*
X12291060Y629920D02*
Y127272D01*
X12280820Y117032D01*
X12109700D01*
X12098020Y128712D01*
Y576534D01*
X12072574Y601980D01*
X12011660D01*
X12001500Y612140D01*
Y647700D01*
X12011660Y657860D01*
X12263120D01*
X12291060Y629920D01*
D02*
G37*
G36*
X11587480Y657860D02*
Y116840D01*
X11572240Y101600D01*
X11412220D01*
X11399520Y114300D01*
Y652780D01*
X11424920Y678180D01*
X11567160D01*
X11587480Y657860D01*
D02*
G37*
D10*
X8602534Y3620317D02*
G03*
X8591102Y3625037I-11433J-11485D01*
G01*
X7425125Y3742745D02*
G03*
X7412165Y3738097I-1527J-16133D01*
G01*
X7425148Y3742743D02*
G03*
X7425125Y3742745I-1550J-16131D01*
G01*
X8586306Y3625279D02*
G03*
X8591102Y3625037I4796J47408D01*
G01*
X7412200Y3778948D02*
G03*
X7423598Y3774262I11398J11519D01*
G01*
X7428408Y3774019D02*
G03*
X7423598Y3774262I-4811J-47407D01*
G01*
X8589471Y3656565D02*
G03*
X8602534Y3661202I1631J16123D01*
G01*
X7418539Y3886965D02*
G03*
X7402835Y3879554I-2013J-16080D01*
G01*
X8505361Y3725554D02*
G03*
X8512362Y3725037I7000J47133D01*
G01*
X8523794Y3720317D02*
G03*
X8512362Y3725037I-11433J-11485D01*
G01*
X7412976Y3924282D02*
G03*
X7423189Y3918072I12932J9766D01*
G01*
X8509981Y3756658D02*
G03*
X8523794Y3761202I2381J16029D01*
G01*
X7423598Y3292817D02*
G03*
X7412165Y3288097I0J-16205D01*
G01*
X7423598Y3292817D02*
G03*
X7428876Y3293111I0J47650D01*
G01*
X8591102Y3456483D02*
G03*
X8585723Y3456178I0J-47650D01*
G01*
X7412200Y3328949D02*
G03*
X7425393Y3324362I11398J11519D01*
G01*
X8591102Y3456483D02*
G03*
X8602534Y3461203I0J16205D01*
G01*
Y3420317D02*
G03*
X8589203Y3424926I-11433J-11485D01*
G01*
X8512362Y3356483D02*
G03*
X8523794Y3361203I0J16205D01*
G01*
X8512362Y3356483D02*
G03*
X8504458Y3355823I0J-47650D01*
G01*
X7412200Y3178949D02*
G03*
X7426232Y3174478I11398J11519D01*
G01*
X7423598Y3142817D02*
G03*
X7412165Y3138097I0J-16205D01*
G01*
X8509769Y3324829D02*
G03*
X8509758Y3324827I2593J-15996D01*
G01*
X8523794Y3320317D02*
G03*
X8509769Y3324829I-11433J-11485D01*
G01*
X7423598Y3142817D02*
G03*
X7431395Y3143460I0J47650D01*
G01*
X12772717Y566129D02*
G03*
X12779538Y579340I-9385J13211D01*
G01*
X12752201Y776533D02*
G03*
X12746767Y787644I-16173J-1026D01*
G01*
X12752201Y776533D02*
G03*
X12752567Y772937I47555J3017D01*
G01*
X9863449Y3230604D02*
G03*
X9862287Y3259262I-8122J14023D01*
G01*
X9863424Y3230590D02*
G03*
X9863449Y3230604I-8097J14037D01*
G01*
X9822175Y3206796D02*
G03*
X9806556Y3192277I23810J-41275D01*
G01*
X9796230Y3185468D02*
G03*
X9806498Y3192192I-3084J15909D01*
G01*
X12810983Y579340D02*
G03*
X12817744Y566171I16205J0D01*
G01*
X12787571Y790233D02*
G03*
X12783708Y777301I12186J-10683D01*
G01*
X9912261Y3259280D02*
G03*
X9902977Y3244627I6922J-14653D01*
G01*
X9879136Y3203351D02*
G03*
X9902977Y3244627I-23809J41276D01*
G01*
X9837888Y3179558D02*
G03*
X9830062Y3162509I8098J-14037D01*
G01*
X12779538Y579340D02*
G03*
X12779381Y581589I-16205J0D01*
G01*
X12810983Y579340D02*
G03*
X12810522Y585953I-47650J0D01*
G01*
X11506367Y3894055D02*
G03*
X11510684Y3902048I-11528J11389D01*
G01*
X10599337Y3325343D02*
G03*
X10615543Y3341548I0J16205D01*
G01*
X10545197D02*
G03*
X10561403Y3325343I16205J0D01*
G01*
X10649337Y3341548D02*
G03*
X10674624Y3328126I16205J0D01*
G01*
X11500594Y3886992D02*
G03*
X11505768Y3892892I-9235J13316D01*
G01*
X10561403Y3293897D02*
G03*
X10545197Y3277692I0J-16205D01*
G01*
X10615543D02*
G03*
X10599337Y3293897I-16205J0D01*
G01*
X10665543D02*
G03*
X10649337Y3277692I0J-16205D01*
G01*
X10665543Y3293897D02*
G03*
X10692245Y3302082I0J47650D01*
G01*
X11520520Y3862208D02*
G03*
X11518142Y3860896I6611J-14796D01*
G01*
X10665543Y3690137D02*
G03*
X10683930Y3693828I0J47650D01*
G01*
X10665543Y3690137D02*
G03*
X10649337Y3673932I0J-16205D01*
G01*
X10615543D02*
G03*
X10599337Y3690137I-16205J0D01*
G01*
X10561403D02*
G03*
X10545197Y3673932I0J-16205D01*
G01*
X11427896Y4039101D02*
G03*
X11436764Y4047723I-6008J15051D01*
G01*
X11427896Y4039101D02*
G03*
X11427172Y4038805I17665J-44255D01*
G01*
X10649337Y3737788D02*
G03*
X10671796Y3722838I16205J0D01*
G01*
X10545197Y3737788D02*
G03*
X10561403Y3721583I16205J0D01*
G01*
X10599337D02*
G03*
X10615543Y3737788I0J16205D01*
G01*
X11451921Y4009751D02*
G03*
X11439307Y4009796I-6360J-14905D01*
G01*
X9356477Y3344088D02*
G03*
X9372683Y3327883I16205J0D01*
G01*
X9412269Y3327629D02*
G03*
X9428548Y3343834I74J16205D01*
G01*
X9373087Y3327881D02*
G03*
X9372683Y3327883I-405J-47649D01*
G01*
X9306477D02*
G03*
X9322683Y3344088I0J16205D01*
G01*
X9306477Y3327883D02*
G03*
X9294897Y3326454I0J-47650D01*
G01*
X9543644Y2381420D02*
G03*
X9543622Y2381436I-9935J-12802D01*
G01*
X9549895Y2367830D02*
G03*
X9543644Y2381420I-16186J787D01*
G01*
X9262265Y2610212D02*
G03*
X9279358Y2584408I46118J11986D01*
G01*
X9147092Y3073630D02*
G03*
X9147577Y3051513I46580J-10042D01*
G01*
X9215249Y3306499D02*
G03*
X9192152Y3282623I7642J-30503D01*
G01*
X9428548Y3279978D02*
G03*
X9412342Y3296183I-16205J0D01*
G01*
X9412096Y3296184D02*
G03*
X9412342Y3296183I246J47650D01*
G01*
X9372787Y3296437D02*
G03*
X9356477Y3280232I-104J-16205D01*
G01*
X9322683D02*
G03*
X9302503Y3295943I-16205J0D01*
G01*
D02*
G03*
X9302489Y3295939I3974J-15710D01*
G01*
X9581359Y2368617D02*
G03*
X9562733Y2406407I-47650J0D01*
G01*
X9581359Y2368617D02*
G03*
X9590630Y2353971I16205J0D01*
G01*
X9292707Y2618092D02*
G03*
X9292700Y2618121I-15225J-3925D01*
G01*
X9292707Y2618092D02*
G03*
X9298513Y2609346I15676J4106D01*
G01*
X9177831Y3067004D02*
G03*
X9178000Y3059467I15841J-3415D01*
G01*
X9411588Y3722362D02*
G03*
X9428548Y3738550I754J16188D01*
G01*
X9374899Y3724071D02*
G03*
X9372683Y3724123I-2217J-47599D01*
G01*
X9356477Y3740328D02*
G03*
X9372683Y3724123I16205J0D01*
G01*
X9428548Y3674694D02*
G03*
X9412342Y3690899I-16205J0D01*
G01*
X9410125Y3690951D02*
G03*
X9412342Y3690899I2217J47599D01*
G01*
X9373436Y3692660D02*
G03*
X9356477Y3676472I-754J-16188D01*
G01*
X10261171Y3458055D02*
G03*
X10275793Y3448837I14621J6988D01*
G01*
X10397844Y3331059D02*
G03*
X10426403Y3341548I12353J10488D01*
G01*
X10312116Y3432028D02*
G03*
X10275793Y3448837I-36324J-30841D01*
G01*
X10288146Y3411675D02*
G03*
X10261140Y3408108I-12353J-10488D01*
G01*
X10373874Y3310707D02*
G03*
X10410197Y3293897I36324J30841D01*
G01*
X10426403Y3277692D02*
G03*
X10410197Y3293897I-16205J0D01*
G01*
X10261171Y3608093D02*
G03*
X10288105Y3604544I14621J6988D01*
G01*
X10410197Y3721583D02*
G03*
X10373993Y3704913I0J-47650D01*
G01*
X10410197Y3721583D02*
G03*
X10426403Y3737788I0J16205D01*
G01*
Y3673932D02*
G03*
X10397884Y3684468I-16205J0D01*
G01*
X10275793Y3567430D02*
G03*
X10311996Y3584099I0J47650D01*
G01*
X10275793Y3567430D02*
G03*
X10261140Y3558146I0J-16205D01*
G01*
X9547342Y3343834D02*
G03*
X9575732Y3333150I16205J0D01*
G01*
X9698767Y3448837D02*
G03*
X9662940Y3432603I0J-47650D01*
G01*
X9698767Y3448837D02*
G03*
X9713420Y3458121I0J16205D01*
G01*
X9563548Y3296183D02*
G03*
X9547342Y3279978I0J-16205D01*
G01*
X9563548Y3296183D02*
G03*
X9599375Y3312418I0J47650D01*
G01*
X9713402Y3408147D02*
G03*
X9686583Y3411871I-14635J-6960D01*
G01*
X9599723Y3705709D02*
G03*
X9563548Y3722345I-36175J-31015D01*
G01*
X9547342Y3738550D02*
G03*
X9563548Y3722345I16205J0D01*
G01*
X9686465Y3604533D02*
G03*
X9713420Y3608159I12302J10548D01*
G01*
X9575850Y3685242D02*
G03*
X9547342Y3674694I-12303J-10548D01*
G01*
X9713402Y3558184D02*
G03*
X9698767Y3567430I-14635J-6960D01*
G01*
X9662592Y3584066D02*
G03*
X9698767Y3567430I36175J31015D01*
G01*
X16236336Y3436593D02*
G03*
X16236325Y3436736I-31362J-2284D01*
G01*
X16222781Y3517157D02*
G03*
X16222781Y3517230I-31445J74D01*
G01*
X16230162Y3530823D02*
G03*
X16222781Y3517231I8825J-13592D01*
G01*
X16222781Y3517157D02*
G03*
X16223022Y3514452I16205J74D01*
G01*
X16236336Y3436592D02*
G03*
X16241875Y3425532I16162J1177D01*
G01*
X16191338Y3517231D02*
G03*
X16192043Y3509059I47650J0D01*
G01*
X16204973Y3434309D02*
G03*
X16204776Y3435911I-16163J-1177D01*
G01*
X16191338Y3517231D02*
G03*
X16184007Y3530789I-16205J0D01*
G01*
X16201096Y3422564D02*
G03*
X16204977Y3434249I-12285J10568D01*
G01*
X16236325Y3436736D02*
G03*
X16235754Y3441304I-47514J-3603D01*
G01*
X7425148Y3742743D02*
X8586306Y3625279D01*
X7425125Y3742745D02*
X7425148Y3742743D01*
X7401560Y3789540D02*
X7412200Y3778948D01*
X7428408Y3774019D02*
X8589471Y3656564D01*
X8602534Y3661202D02*
X8613140Y3671760D01*
X7401560Y3727540D02*
X7412165Y3738097D01*
X8602534Y3620317D02*
X8613140Y3609760D01*
X7418539Y3886965D02*
X7418728Y3886941D01*
X8505361Y3725554D01*
X7423348Y3918046D02*
X8509981Y3756658D01*
X7423189Y3918072D02*
X7423348Y3918046D01*
X7401560Y3939540D02*
X7412976Y3924282D01*
X8523794Y3761202D02*
X8534400Y3771760D01*
X7401560Y3877540D02*
X7402835Y3879554D01*
X8523794Y3720317D02*
X8534400Y3709760D01*
X7428876Y3293111D02*
X7428909Y3293114D01*
X7425393Y3324362D02*
X8585723Y3456178D01*
X7401560Y3339540D02*
X7412200Y3328949D01*
X8602534Y3461203D02*
X8613140Y3471760D01*
X8602534Y3420317D02*
X8613140Y3409760D01*
X7428909Y3293114D02*
X8589203Y3424926D01*
X7401560Y3277540D02*
X7412165Y3288097D01*
X8523794Y3361203D02*
X8534400Y3371760D01*
X7401560Y3189540D02*
X7412200Y3178949D01*
X7426232Y3174478D02*
X8504458Y3355823D01*
X8509758Y3324827D02*
X8509769Y3324829D01*
X7431395Y3143460D02*
X8509758Y3324827D01*
X8523794Y3320317D02*
X8534400Y3309760D01*
X7401560Y3127540D02*
X7412165Y3138097D01*
X20160043Y3789063D02*
X20164915Y3832793D01*
X20115042Y3385222D02*
X20160043Y3789063D01*
X16207547Y3319973D02*
X16212933Y3319929D01*
X16827943Y3337548D01*
X15757060Y3622720D02*
X15783958Y3530823D01*
X16207547Y3319973D01*
X16827943Y3337548D02*
X19731525Y3261419D01*
X19981070Y3279718D01*
X20106471Y3378200D01*
X20115042Y3385222D01*
X20164915Y3832793D02*
X20169315Y3869690D01*
X19951514Y3355248D02*
X19989192Y3360420D01*
X19766751Y3329881D02*
X19951514Y3355248D01*
X19766751Y3329881D02*
X19766751D01*
X20088525Y3507747D02*
X20114929Y3832793D01*
X20084283Y3455511D02*
X20088525Y3507747D01*
X19993665Y3364309D02*
X20084283Y3455511D01*
X19989192Y3360420D02*
X19993665Y3364309D01*
X20114929Y3832793D02*
X20119327Y3869690D01*
X12752567Y772937D02*
X12779381Y581589D01*
X12772717Y566129D02*
Y566129D01*
X12745260Y345632D02*
X12772717Y566129D01*
X9862248Y3259280D02*
X9862287Y3259262D01*
X9863424Y3230590D02*
X9863449Y3230604D01*
X9822175Y3206796D02*
X9863424Y3230590D01*
X9806498Y3192192D02*
X9806556Y3192277D01*
X9781540Y3182620D02*
X9796230Y3185467D01*
X12783708Y777301D02*
X12810521Y585953D01*
X12817744Y566171D02*
X12817802Y566129D01*
X12787571Y790233D02*
X12797435Y801485D01*
X9912261Y3259280D02*
Y3288030D01*
X9837888Y3179558D02*
X9879136Y3203351D01*
X9830062Y3162509D02*
X9832843Y3147806D01*
X12735560Y797560D02*
X12746767Y787644D01*
X9862248Y3259280D02*
Y3288030D01*
X12817802Y566129D02*
X12845261Y345632D01*
X10545197Y3341548D02*
Y3346063D01*
X10561403Y3325343D02*
X10599337D01*
X10649337Y3341548D02*
Y3346063D01*
X10674624Y3328126D02*
X11500520Y3886940D01*
X11500594Y3886992D01*
X11505768Y3892892D02*
X11506367Y3894055D01*
X10561403Y3293897D02*
X10599337D01*
X10615543Y3273177D02*
Y3277692D01*
X10545197Y3273177D02*
Y3277692D01*
X10692245Y3302082D02*
X11518142Y3860896D01*
X11532972Y3867771D02*
X11532972D01*
X11520520Y3862208D02*
X11532972Y3867771D01*
X10649337Y3273177D02*
Y3277692D01*
X16222783Y1266390D02*
X16238060Y1281667D01*
X16257060Y1077640D02*
Y1142640D01*
X16222783Y1176917D02*
X16257060Y1142640D01*
X16238060Y1281667D02*
Y1287780D01*
X16222783Y1176917D02*
Y1266390D01*
X11510684Y3902048D02*
X11513820Y3916680D01*
X10615543Y3346063D02*
X10632440Y3362960D01*
X10615543Y3341548D02*
Y3346063D01*
X10528300Y3362960D02*
X10545197Y3346063D01*
X16191338Y1176917D02*
Y1266390D01*
X16176060Y1281667D02*
X16191338Y1266390D01*
X16157060Y1142640D02*
X16191338Y1176917D01*
X16176060Y1281667D02*
Y1287780D01*
X16157060Y1077640D02*
Y1142640D01*
X10615543Y3273177D02*
X10632440Y3256280D01*
X10528300D02*
X10545197Y3273177D01*
X10632440Y3256280D02*
X10649337Y3273177D01*
X10632440Y3362960D02*
X10649337Y3346063D01*
X10683930Y3693828D02*
X11439307Y4009796D01*
X10649337Y3669417D02*
Y3673932D01*
X10615543Y3669417D02*
Y3673932D01*
X10561403Y3690137D02*
X10599337D01*
X10545197Y3669417D02*
Y3673932D01*
X11436764Y4047723D02*
X11442700Y4061460D01*
X10671796Y3722838D02*
X11427172Y4038805D01*
X10649337Y3737788D02*
Y3742303D01*
X10545197Y3737788D02*
Y3742303D01*
X10561403Y3721583D02*
X10599337D01*
X16191338Y2449457D02*
Y2538930D01*
X16176060Y2554207D02*
X16191338Y2538930D01*
X16157060Y2415180D02*
X16191338Y2449457D01*
X16176060Y2554207D02*
Y2560320D01*
X16157060Y2350180D02*
Y2415180D01*
X11451921Y4009751D02*
X11465684Y4003878D01*
X10632440Y3652520D02*
X10649337Y3669417D01*
X16222783Y2538930D02*
X16238060Y2554207D01*
X16257060Y2350180D02*
Y2415180D01*
X16222783Y2449457D02*
X16257060Y2415180D01*
X16238060Y2554207D02*
Y2560320D01*
X16222783Y2449457D02*
Y2538930D01*
X10632440Y3759200D02*
X10649337Y3742303D01*
X10615543Y3737788D02*
Y3742303D01*
X10632440Y3759200D01*
X10528300Y3652520D02*
X10545197Y3669417D01*
X10615543D02*
X10632440Y3652520D01*
X10528300Y3759200D02*
X10545197Y3742303D01*
X9356477Y3344088D02*
Y3348603D01*
X9373087Y3327881D02*
X9412269Y3327629D01*
X9215249Y3306499D02*
X9294897Y3326454D01*
X9549439Y2358457D02*
X9549894Y2367830D01*
X9545041Y2321560D02*
X9549439Y2358457D01*
X9543622Y2381436D02*
X9543644Y2381420D01*
X9279358Y2584407D02*
X9543622Y2381436D01*
X9147577Y3051513D02*
X9161947Y2996221D01*
X9262265Y2610212D01*
X9147092Y3073631D02*
X9192152Y3282623D01*
X9428548Y3275717D02*
Y3279978D01*
X9372787Y3296437D02*
X9412096Y3296184D01*
X9356477Y3275717D02*
Y3280232D01*
X9322683Y3275717D02*
Y3280232D01*
X9302489Y3295939D02*
X9302503Y3295943D01*
X9222891Y3275996D02*
X9302489Y3295939D01*
X9590630Y2353970D02*
Y2353971D01*
Y2353970D02*
X9595028Y2321560D01*
X9298513Y2609346D02*
X9562733Y2406407D01*
X9178011Y3059422D02*
X9190806Y3010191D01*
X9292700Y2618122D01*
X9178000Y3059467D02*
X9178011Y3059422D01*
X9428548Y3348095D02*
X9445445Y3364992D01*
X9428548Y3343834D02*
Y3348095D01*
X9339580Y3365500D02*
X9356477Y3348603D01*
X9322683Y3344088D02*
Y3348603D01*
X9339580Y3365500D01*
X9428548Y3275717D02*
X9445445Y3258820D01*
X9339580D02*
X9356477Y3275717D01*
X9322683D02*
X9339580Y3258820D01*
X9177831Y3067004D02*
X9222891Y3275996D01*
X9356477Y3740328D02*
Y3744843D01*
X9374899Y3724071D02*
X9411588Y3722362D01*
X9428548Y3670433D02*
Y3674694D01*
X9373436Y3692660D02*
X9410125Y3690951D01*
X9356477Y3671957D02*
Y3676472D01*
X9428548Y3742811D02*
X9445445Y3759708D01*
X9428548Y3738550D02*
Y3742811D01*
X9339580Y3761740D02*
X9356477Y3744843D01*
X9428548Y3670433D02*
X9445445Y3653536D01*
X9339580Y3655060D02*
X9356477Y3671957D01*
X16663480Y1804580D02*
X16663741Y1804320D01*
X16956799Y1797900D02*
X16963480Y1804580D01*
X16863480Y1739580D02*
Y1804580D01*
X16763480Y1739580D02*
Y1804580D01*
X17145261Y345632D02*
Y538672D01*
X17126260Y701514D02*
Y707627D01*
X16829202Y1705303D02*
X16863480Y1739580D01*
X16829202Y1675067D02*
X16844479Y1659789D01*
X16829202Y1675067D02*
Y1705303D01*
X16844479Y1653676D02*
Y1659789D01*
X17110983Y572949D02*
X17145261Y538672D01*
X17110983Y686237D02*
X17126260Y701514D01*
X17110983Y572949D02*
Y686237D01*
X17079536Y572949D02*
Y686237D01*
X17064259Y701514D02*
X17079536Y686237D01*
X17064259Y701514D02*
Y707627D01*
X16763480Y1739580D02*
X16797757Y1705303D01*
Y1675067D02*
Y1705303D01*
X16782480Y1659789D02*
X16797757Y1675067D01*
X16782480Y1653676D02*
Y1659789D01*
X17045261Y538672D02*
X17079536Y572949D01*
X17045261Y345632D02*
Y538672D01*
X16679536Y572949D02*
Y686237D01*
X16664259Y701514D02*
X16679536Y686237D01*
X16664259Y701514D02*
Y707627D01*
X16645261Y345632D02*
Y538672D01*
X16257060Y1732640D02*
X16291338Y1698363D01*
Y1668127D02*
Y1698363D01*
X16276060Y1652849D02*
X16291338Y1668127D01*
X16257060Y1732640D02*
Y1797640D01*
X16276060Y1646736D02*
Y1652849D01*
X16645261Y538672D02*
X16679536Y572949D01*
X16745261Y345632D02*
Y538672D01*
X16726260Y701514D02*
Y707627D01*
X16357060Y1732640D02*
Y1797640D01*
X16322781Y1698363D02*
X16357060Y1732640D01*
X16322781Y1668127D02*
X16338060Y1652849D01*
X16322781Y1668127D02*
Y1698363D01*
X16338060Y1646736D02*
Y1652849D01*
X16710983Y686237D02*
X16726260Y701514D01*
X16710983Y572949D02*
X16745261Y538672D01*
X16710983Y572949D02*
Y686237D01*
X9801034Y2159000D02*
Y2165113D01*
X9785756Y2180390D02*
X9801034Y2165113D01*
X9795027Y2289061D02*
Y2321560D01*
X9785756Y2180390D02*
Y2279790D01*
X9795027Y2289061D01*
X16164259Y701514D02*
X16179536Y686237D01*
Y572949D02*
Y686237D01*
X16145261Y538672D02*
X16179536Y572949D01*
X16164259Y701514D02*
Y707627D01*
X16145261Y345632D02*
Y538672D01*
X9745040Y2289061D02*
X9754311Y2279790D01*
Y2180390D02*
Y2279790D01*
X9739034Y2165113D02*
X9754311Y2180390D01*
X9745040Y2289061D02*
Y2321560D01*
X9739034Y2159000D02*
Y2165113D01*
X16226260Y701514D02*
Y707627D01*
X16210983Y686237D02*
X16226260Y701514D01*
X16245261Y345632D02*
Y538672D01*
X16210983Y572949D02*
X16245261Y538672D01*
X16210983Y572949D02*
Y686237D01*
X9945040Y2289061D02*
X9954311Y2279790D01*
Y2180390D02*
Y2279790D01*
X9939033Y2165113D02*
X9954311Y2180390D01*
X9945040Y2289061D02*
Y2321560D01*
X9939033Y2159000D02*
Y2165113D01*
X15826260Y701514D02*
Y707627D01*
X15810983Y686237D02*
X15826260Y701514D01*
X15845261Y345632D02*
Y538672D01*
X15810983Y572949D02*
X15845261Y538672D01*
X15810983Y572949D02*
Y686237D01*
X9985756Y2180390D02*
X10001033Y2165113D01*
Y2159000D02*
Y2165113D01*
X9995027Y2289061D02*
Y2321560D01*
X9985756Y2180390D02*
Y2279790D01*
X9995027Y2289061D01*
X15764259Y701514D02*
X15779536Y686237D01*
Y572949D02*
Y686237D01*
X15745261Y538672D02*
X15779536Y572949D01*
X15764259Y701514D02*
Y707627D01*
X15745261Y345632D02*
Y538672D01*
X15426260Y701514D02*
Y707627D01*
X15410983Y686237D02*
X15426260Y701514D01*
X15445261Y345632D02*
Y538672D01*
X15410983Y572949D02*
X15445261Y538672D01*
X15410983Y572949D02*
Y686237D01*
X10154310Y2180390D02*
Y2279790D01*
X10139033Y2165113D02*
X10154310Y2180390D01*
X10145039Y2289061D02*
X10154310Y2279790D01*
X10145039Y2289061D02*
Y2321560D01*
X10139033Y2159000D02*
Y2165113D01*
X15364259Y701514D02*
X15379536Y686237D01*
Y572949D02*
Y686237D01*
X15345261Y538672D02*
X15379536Y572949D01*
X15364259Y701514D02*
Y707627D01*
X15345261Y345632D02*
Y538672D01*
X10195027Y2289061D02*
Y2321560D01*
X10185756Y2279790D02*
X10195027Y2289061D01*
X10201033Y2159000D02*
Y2165113D01*
X10185756Y2180390D02*
Y2279790D01*
Y2180390D02*
X10201033Y2165113D01*
X10239033Y2226073D02*
X10254310Y2241350D01*
X10245039Y2289061D02*
X10254310Y2279790D01*
Y2241350D02*
Y2279790D01*
X10245039Y2289061D02*
Y2321560D01*
X10239033Y2219960D02*
Y2226073D01*
X10295026Y2289061D02*
Y2321560D01*
X10285755Y2279790D02*
X10295026Y2289061D01*
X10301033Y2219960D02*
Y2226073D01*
X10285755Y2241350D02*
Y2279790D01*
Y2241350D02*
X10301033Y2226073D01*
X15010983Y572949D02*
X15045261Y538672D01*
X15010983Y686237D02*
X15026260Y701514D01*
X15045261Y345632D02*
Y538672D01*
X15026260Y701514D02*
Y707627D01*
X15010983Y572949D02*
Y686237D01*
X10345039Y2289061D02*
Y2321560D01*
X10339033Y2165113D02*
X10354310Y2180390D01*
X10345039Y2289061D02*
X10354310Y2279790D01*
Y2180390D02*
Y2279790D01*
X10339033Y2159000D02*
Y2165113D01*
X14964259Y701514D02*
X14979536Y686237D01*
Y572949D02*
Y686237D01*
X14945261Y538672D02*
X14979536Y572949D01*
X14964259Y701514D02*
Y707627D01*
X14945261Y345632D02*
Y538672D01*
X10395026Y2289061D02*
Y2321560D01*
X10385755Y2279790D02*
X10395026Y2289061D01*
X10401033Y2159000D02*
Y2165113D01*
X10385755Y2180390D02*
Y2279790D01*
Y2180390D02*
X10401033Y2165113D01*
X9750387Y1152411D02*
X9759658Y1143140D01*
Y1104705D02*
Y1143140D01*
X9759570Y1104617D02*
X9759658Y1104705D01*
X9759570Y1051511D02*
Y1104617D01*
X9744294Y1036235D02*
X9759570Y1051511D01*
X9750387Y1152411D02*
Y1184910D01*
X9744294Y1030121D02*
X9744294Y1030121D01*
X9744294Y1030121D02*
Y1036235D01*
X14426260Y701514D02*
Y707627D01*
X14410983Y686237D02*
X14426260Y701514D01*
X14445261Y345632D02*
Y538672D01*
X14410983Y572949D02*
X14445261Y538672D01*
X14410983Y572949D02*
Y686237D01*
X9791103Y1143140D02*
X9800374Y1152411D01*
X9791015Y1050884D02*
X9806291Y1035608D01*
Y1029493D02*
Y1035608D01*
X9800374Y1152411D02*
Y1184910D01*
X9791103Y1091680D02*
Y1143140D01*
X9791015Y1050884D02*
Y1091592D01*
X9791103Y1091680D01*
X14364259Y701514D02*
X14379536Y686237D01*
Y572949D02*
Y686237D01*
X14345261Y538672D02*
X14379536Y572949D01*
X14364259Y701514D02*
Y707627D01*
X14345261Y345632D02*
Y538672D01*
X9850387Y1152411D02*
X9859658Y1143140D01*
X9850387Y1152411D02*
Y1184910D01*
X9844380Y917973D02*
X9859658Y933250D01*
Y1143140D01*
X9844380Y911860D02*
Y917973D01*
X9900374Y1152411D02*
Y1184910D01*
X9891103Y1143140D02*
X9900374Y1152411D01*
X9906380Y911860D02*
Y917973D01*
X9891103Y933250D02*
Y1143140D01*
Y933250D02*
X9906380Y917973D01*
X9950386Y1152411D02*
X9959658Y1143140D01*
Y1104705D02*
Y1143140D01*
X9959569Y1104617D02*
X9959658Y1104705D01*
X9959569Y1051511D02*
Y1104617D01*
X9944293Y1036235D02*
X9959569Y1051511D01*
X9950386Y1152411D02*
Y1184910D01*
X9944293Y1030121D02*
X9944294Y1030121D01*
X9944293Y1030121D02*
Y1036235D01*
X14026260Y701514D02*
Y707627D01*
X14010983Y686237D02*
X14026260Y701514D01*
X14045261Y345632D02*
Y538672D01*
X14010983Y572949D02*
X14045261Y538672D01*
X14010983Y572949D02*
Y686237D01*
X9991103Y1143140D02*
X10000374Y1152411D01*
X9991014Y1050884D02*
X10006290Y1035608D01*
Y1029493D02*
Y1035608D01*
X10000374Y1152411D02*
Y1184910D01*
X9991103Y1091680D02*
Y1143140D01*
X9991014Y1050884D02*
Y1091592D01*
X9991103Y1091680D01*
X13964259Y701514D02*
X13979536Y686237D01*
Y572949D02*
Y686237D01*
X13945261Y538672D02*
X13979536Y572949D01*
X13964259Y701514D02*
Y707627D01*
X13945261Y345632D02*
Y538672D01*
X10100373Y1152411D02*
Y1184910D01*
X10091102Y1143140D02*
X10100373Y1152411D01*
X10091102Y933250D02*
X10106380Y917973D01*
Y911860D02*
Y917973D01*
X10091102Y933250D02*
Y1143140D01*
X10050386Y1152411D02*
Y1184910D01*
X10044380Y917973D02*
X10059657Y933250D01*
X10050386Y1152411D02*
X10059657Y1143140D01*
Y933250D02*
Y1143140D01*
X10044380Y911860D02*
Y917973D01*
X10150386Y1152411D02*
Y1184910D01*
Y1152411D02*
X10159657Y1143140D01*
Y1104705D02*
Y1143140D01*
X10159569Y1104617D02*
X10159657Y1104705D01*
X10144293Y1036235D02*
X10159569Y1051511D01*
Y1104617D01*
X10144293Y1030121D02*
X10144293Y1030121D01*
X10144293Y1030121D02*
Y1036235D01*
X13626260Y701514D02*
Y707627D01*
X13610982Y686237D02*
X13626260Y701514D01*
X13645261Y345632D02*
Y538672D01*
X13610982Y572949D02*
X13645261Y538672D01*
X13610982Y572949D02*
Y686237D01*
X10200373Y1152411D02*
Y1184910D01*
X10191102Y1143140D02*
X10200373Y1152411D01*
X10191014Y1050884D02*
X10206290Y1035608D01*
Y1029493D02*
Y1035608D01*
X10191102Y1091680D02*
Y1143140D01*
X10191014Y1050884D02*
Y1091592D01*
X10191102Y1091680D01*
X13564259Y701514D02*
X13579536Y686237D01*
Y572949D02*
Y686237D01*
X13545261Y538672D02*
X13579536Y572949D01*
X13564259Y701514D02*
Y707627D01*
X13545261Y345632D02*
Y538672D01*
X10250386Y1152411D02*
X10259657Y1143140D01*
X10250386Y1152411D02*
Y1184910D01*
X10244380Y917973D02*
X10259657Y933250D01*
Y1143140D01*
X10244380Y911860D02*
Y917973D01*
X10300373Y1152411D02*
Y1184910D01*
X10291102Y1143140D02*
X10300373Y1152411D01*
X10306379Y911860D02*
Y917973D01*
X10291102Y933250D02*
Y1143140D01*
Y933250D02*
X10306379Y917973D01*
X13110983Y572949D02*
X13145261Y538672D01*
X13110983Y686237D02*
X13126260Y701514D01*
X13145261Y345632D02*
Y538672D01*
X13126260Y701514D02*
Y707627D01*
X13110983Y572949D02*
Y686237D01*
X10350386Y1152411D02*
Y1184910D01*
Y1152411D02*
X10359657Y1143140D01*
Y1104705D02*
Y1143140D01*
X10359568Y1104617D02*
X10359657Y1104705D01*
X10359568Y1051511D02*
Y1104617D01*
X10344292Y1036235D02*
X10359568Y1051511D01*
X10344292Y1030121D02*
Y1036235D01*
Y1030121D02*
X10344293Y1030121D01*
X13064259Y701514D02*
X13079536Y686237D01*
Y572949D02*
Y686237D01*
X13045261Y538672D02*
X13079536Y572949D01*
X13064259Y701514D02*
Y707627D01*
X13045261Y345632D02*
Y538672D01*
X10400373Y1152411D02*
Y1184910D01*
X10391102Y1091680D02*
Y1143140D01*
X10400373Y1152411D01*
X10406289Y1029493D02*
Y1035608D01*
X10391014Y1091592D02*
X10391102Y1091680D01*
X10391014Y1050884D02*
X10406289Y1035608D01*
X10391014Y1050884D02*
Y1091592D01*
X10312116Y3432027D02*
X10397844Y3331059D01*
X10261140Y3458121D02*
X10261171Y3458055D01*
X10232390Y3408108D02*
X10261140D01*
X10426403Y3273177D02*
Y3277692D01*
X10288146Y3411675D02*
X10373874Y3310707D01*
X10232390Y3458121D02*
X10261140D01*
X10426403Y3341548D02*
Y3346063D01*
Y3273177D02*
X10443300Y3256280D01*
X10426403Y3346063D02*
X10443300Y3362960D01*
X10288105Y3604544D02*
X10373993Y3704913D01*
X10261140Y3608159D02*
X10261171Y3608093D01*
X10311996Y3584099D02*
X10397884Y3684468D01*
X10426403Y3669417D02*
Y3673932D01*
X10232390Y3558146D02*
X10261140D01*
X10232390Y3608159D02*
X10261140D01*
X10426403Y3737788D02*
Y3742303D01*
Y3669417D02*
X10443300Y3652520D01*
X10426403Y3742303D02*
X10443300Y3759200D01*
X9547342Y3343834D02*
Y3348095D01*
X9575732Y3333150D02*
X9662940Y3432603D01*
X9713420Y3458121D02*
X9742170D01*
X9547342Y3275717D02*
Y3279978D01*
X9599375Y3312418D02*
X9686583Y3411871D01*
X9713402Y3408147D02*
X9713420Y3408108D01*
X9742170D01*
X9530445Y3258820D02*
X9547342Y3275717D01*
X9530445Y3364992D02*
X9547342Y3348095D01*
Y3738550D02*
Y3742811D01*
X9713420Y3608159D02*
X9742170D01*
X9599723Y3705709D02*
X9686464Y3604533D01*
X9713402Y3558184D02*
X9713420Y3558146D01*
X9575850Y3685242D02*
X9662592Y3584065D01*
X9547342Y3670433D02*
Y3674694D01*
X9713420Y3558146D02*
X9742170D01*
X9530445Y3759708D02*
X9547342Y3742811D01*
X9530445Y3653536D02*
X9547342Y3670433D01*
X20369315Y3837191D02*
Y3869690D01*
X20360043Y3827920D02*
X20369315Y3837191D01*
X20360043Y3503730D02*
X20375320Y3488453D01*
Y3482340D02*
Y3488453D01*
X20360043Y3503730D02*
Y3827920D01*
X16557060Y3622720D02*
Y3687720D01*
X16522781Y3721997D02*
X16557060Y3687720D01*
X16538060Y3767511D02*
Y3773624D01*
X16522781Y3752233D02*
X16538060Y3767511D01*
X16522781Y3721997D02*
Y3752233D01*
X20319327Y3837191D02*
X20328598Y3827920D01*
X20319327Y3837191D02*
Y3869690D01*
X20328598Y3503730D02*
Y3827920D01*
X20313321Y3488453D02*
X20328598Y3503730D01*
X20313321Y3482340D02*
Y3488453D01*
X16491338Y3721997D02*
Y3752233D01*
X16457060Y3687720D02*
X16491338Y3721997D01*
X16476060Y3767511D02*
Y3773624D01*
Y3767511D02*
X16491338Y3752233D01*
X16457060Y3622720D02*
Y3687720D01*
X16230162Y3530823D02*
X16257060Y3622720D01*
X16223022Y3514452D02*
X16235754Y3441304D01*
X16241875Y3425532D02*
X16253172Y3415722D01*
X16192043Y3509059D02*
X16204776Y3435911D01*
X16183957Y3530823D02*
X16184007Y3530789D01*
X16204973Y3434309D02*
X16204977Y3434249D01*
X20219327Y3837191D02*
X20228598Y3827920D01*
Y3397050D02*
Y3827920D01*
X20213321Y3381773D02*
X20228598Y3397050D01*
X20219327Y3837191D02*
Y3869690D01*
X20213321Y3375660D02*
Y3381773D01*
X20260043Y3397050D02*
X20275320Y3381773D01*
Y3375660D02*
Y3381773D01*
X20269315Y3837191D02*
Y3869690D01*
X20260043Y3827920D02*
X20269315Y3837191D01*
X20260043Y3397050D02*
Y3827920D01*
X16157060Y3622720D02*
X16183957Y3530823D01*
X16191338Y3411220D02*
X16201096Y3422564D01*
X21075319Y4017247D02*
Y4023360D01*
X21060042Y4001970D02*
X21075319Y4017247D01*
X21060042Y3911460D02*
Y4001970D01*
X21069313Y3869690D02*
Y3902189D01*
X21060042Y3911460D02*
X21069313Y3902189D01*
X17557060Y4277720D02*
X17591338Y4243443D01*
X17557060Y4277720D02*
Y4342720D01*
X17576060Y4197929D02*
X17591338Y4213207D01*
Y4243443D01*
X17576060Y4191816D02*
Y4197929D01*
X21028596Y3911460D02*
Y4001970D01*
X21013319Y4017247D02*
X21028596Y4001970D01*
X21019325Y3902189D02*
X21028596Y3911460D01*
X21019325Y3869690D02*
Y3902189D01*
X21013319Y4017247D02*
Y4023360D01*
X17657060Y4277720D02*
Y4342720D01*
X17622781Y4243443D02*
X17657060Y4277720D01*
X17638060Y4191816D02*
Y4197929D01*
X17622781Y4213207D02*
Y4243443D01*
Y4213207D02*
X17638060Y4197929D01*
X20769313Y3837191D02*
Y3869690D01*
X20760042Y3827920D02*
X20769313Y3837191D01*
X20760042Y3503730D02*
X20775320Y3488453D01*
Y3482340D02*
Y3488453D01*
X20760042Y3503730D02*
Y3827920D01*
X17422783Y3721997D02*
X17457060Y3687720D01*
X17422783Y3752233D02*
X17438060Y3767511D01*
Y3773624D01*
X17422783Y3721997D02*
Y3752233D01*
X17457060Y3622720D02*
Y3687720D01*
X20719325Y3837191D02*
Y3869690D01*
Y3837191D02*
X20728596Y3827920D01*
Y3503730D02*
Y3827920D01*
X20713319Y3488453D02*
X20728596Y3503730D01*
X20713319Y3482340D02*
Y3488453D01*
X17391338Y3721997D02*
Y3752233D01*
X17357060Y3687720D02*
X17391338Y3721997D01*
X17376060Y3767511D02*
Y3773624D01*
Y3767511D02*
X17391338Y3752233D01*
X17357060Y3622720D02*
Y3687720D01*
X20969313Y3837191D02*
Y3869690D01*
X20960042Y3827920D02*
X20969313Y3837191D01*
X20960042Y3503730D02*
X20975319Y3488453D01*
X20960042Y3503730D02*
Y3827920D01*
X20975319Y3482340D02*
Y3488453D01*
X17838060Y3767511D02*
Y3773624D01*
X17822781Y3752233D02*
X17838060Y3767511D01*
X17822781Y3721997D02*
X17857060Y3687720D01*
X17822781Y3721997D02*
Y3752233D01*
X17857060Y3622720D02*
Y3687720D01*
X20919325Y3837191D02*
Y3869690D01*
Y3837191D02*
X20928596Y3827920D01*
Y3503730D02*
Y3827920D01*
X20913319Y3488453D02*
X20928596Y3503730D01*
X20913319Y3482340D02*
Y3488453D01*
X17791338Y3721997D02*
Y3752233D01*
X17776060Y3767511D02*
Y3773624D01*
Y3767511D02*
X17791338Y3752233D01*
X17757060Y3622720D02*
Y3687720D01*
X17791338Y3721997D01*
X16976060Y3767511D02*
X16991338Y3752233D01*
Y3721997D02*
Y3752233D01*
X16976060Y3767511D02*
Y3773624D01*
X16957060Y3687720D02*
X16991338Y3721997D01*
X16957060Y3622720D02*
Y3687720D01*
X20528598Y3503730D02*
Y3827920D01*
X20519325Y3837191D02*
Y3869690D01*
Y3837191D02*
X20528598Y3827920D01*
X20513319Y3488453D02*
X20528598Y3503730D01*
X20513319Y3482340D02*
Y3488453D01*
X17022781Y3752233D02*
X17038060Y3767511D01*
Y3773624D01*
X17022781Y3721997D02*
Y3752233D01*
Y3721997D02*
X17057060Y3687720D01*
Y3622720D02*
Y3687720D01*
X20569315Y3837191D02*
Y3869690D01*
X20560043Y3827920D02*
X20569315Y3837191D01*
X20560043Y3503730D02*
Y3827920D01*
X20575320Y3482340D02*
Y3488453D01*
X20560043Y3503730D02*
X20575320Y3488453D01*
X20413319Y4017247D02*
X20428598Y4001970D01*
X20413319Y4017247D02*
Y4023360D01*
X20419327Y3902189D02*
X20428598Y3911460D01*
Y4001970D01*
X20419327Y3869690D02*
Y3902189D01*
X16291338Y4213207D02*
Y4243443D01*
X16257060Y4277720D02*
X16291338Y4243443D01*
X16257060Y4277720D02*
Y4342720D01*
X16276060Y4197929D02*
X16291338Y4213207D01*
X16276060Y4191816D02*
Y4197929D01*
X20460043Y4001970D02*
X20475320Y4017247D01*
Y4023360D01*
X20469315Y3869690D02*
Y3902189D01*
X20460043Y3911460D02*
Y4001970D01*
Y3911460D02*
X20469315Y3902189D01*
X16322781Y4243443D02*
X16357060Y4277720D01*
Y4342720D01*
X16322781Y4213207D02*
Y4243443D01*
X16338060Y4191816D02*
Y4197929D01*
X16322781Y4213207D02*
X16338060Y4197929D01*
X20660043Y4001970D02*
X20675320Y4017247D01*
Y4023360D01*
X20669313Y3869690D02*
Y3902189D01*
X20660043Y3911460D02*
Y4001970D01*
Y3911460D02*
X20669313Y3902189D01*
X16822781Y4243443D02*
X16857060Y4277720D01*
Y4342720D01*
X16822781Y4213207D02*
Y4243443D01*
X16838060Y4191816D02*
Y4197929D01*
X16822781Y4213207D02*
X16838060Y4197929D01*
X20613319Y4017247D02*
X20628596Y4001970D01*
X20613319Y4017247D02*
Y4023360D01*
X20619325Y3902189D02*
X20628596Y3911460D01*
Y4001970D01*
X20619325Y3869690D02*
Y3902189D01*
X16791338Y4213207D02*
Y4243443D01*
X16757060Y4277720D02*
X16791338Y4243443D01*
X16757060Y4277720D02*
Y4342720D01*
X16776060Y4197929D02*
X16791338Y4213207D01*
X16776060Y4191816D02*
Y4197929D01*
X20860042Y4001970D02*
X20875319Y4017247D01*
Y4023360D01*
X20869313Y3869690D02*
Y3902189D01*
X20860042Y3911460D02*
Y4001970D01*
Y3911460D02*
X20869313Y3902189D01*
X17222781Y4243443D02*
X17257060Y4277720D01*
Y4342720D01*
X17222781Y4213207D02*
Y4243443D01*
X17238060Y4191816D02*
Y4197929D01*
X17222781Y4213207D02*
X17238060Y4197929D01*
X20813319Y4017247D02*
X20828596Y4001970D01*
X20813319Y4017247D02*
Y4023360D01*
X20819325Y3902189D02*
X20828596Y3911460D01*
Y4001970D01*
X20819325Y3869690D02*
Y3902189D01*
X17191338Y4213207D02*
Y4243443D01*
X17157060Y4277720D02*
Y4342720D01*
Y4277720D02*
X17191338Y4243443D01*
X17176060Y4197929D02*
X17191338Y4213207D01*
X17176060Y4191816D02*
Y4197929D01*
X9895027Y2289061D02*
Y2321560D01*
X9885756Y2279790D02*
X9895027Y2289061D01*
X9901034Y2219960D02*
Y2226073D01*
X9885756Y2241350D02*
Y2279790D01*
Y2241350D02*
X9901034Y2226073D01*
X9845040Y2289061D02*
X9854311Y2279790D01*
Y2241350D02*
Y2279790D01*
X9845040Y2289061D02*
Y2321560D01*
X9839034Y2226073D02*
X9854311Y2241350D01*
X9839034Y2219960D02*
Y2226073D01*
X10039033D02*
X10054311Y2241350D01*
X10045040Y2289061D02*
X10054311Y2279790D01*
Y2241350D02*
Y2279790D01*
X10045040Y2289061D02*
Y2321560D01*
X10039033Y2219960D02*
Y2226073D01*
X10095027Y2289061D02*
Y2321560D01*
X10101033Y2219960D02*
Y2226073D01*
X10085756Y2241350D02*
Y2279790D01*
X10095027Y2289061D01*
X10085756Y2241350D02*
X10101033Y2226073D01*
X10495026Y2289061D02*
Y2321560D01*
X10485755Y2279790D02*
X10495026Y2289061D01*
X10485755Y2241350D02*
Y2279790D01*
Y2241350D02*
X10501032Y2226073D01*
Y2219960D02*
Y2226073D01*
X10445039Y2289061D02*
Y2321560D01*
Y2289061D02*
X10454310Y2279790D01*
Y2241350D02*
Y2279790D01*
X10439032Y2226073D02*
X10454310Y2241350D01*
X10439032Y2219960D02*
Y2226073D01*
X10450385Y1152411D02*
Y1184910D01*
Y1152411D02*
X10459656Y1143140D01*
Y933250D02*
Y1143140D01*
X10444379Y917973D02*
X10459656Y933250D01*
X10444379Y911860D02*
Y917973D01*
X10500373Y1152411D02*
Y1184910D01*
X10491102Y1143140D02*
X10500373Y1152411D01*
X10506379Y911860D02*
Y917973D01*
X10491102Y933250D02*
Y1143140D01*
Y933250D02*
X10506379Y917973D01*
X11346180Y827360D02*
X11348720Y829900D01*
Y896620D01*
X11345260Y741440D02*
X11346180Y742360D01*
X11345260Y415632D02*
Y741440D01*
X16776060Y2919276D02*
Y2925389D01*
X16757060Y3005180D02*
Y3070180D01*
Y3005180D02*
X16791338Y2970903D01*
Y2940667D02*
Y2970903D01*
X16776060Y2925389D02*
X16791338Y2940667D01*
X18664259Y701514D02*
X18679536Y686237D01*
Y572949D02*
Y686237D01*
X18645261Y538672D02*
X18679536Y572949D01*
X18664259Y701514D02*
Y707627D01*
X18645261Y345632D02*
Y538672D01*
X18745261Y345632D02*
Y538672D01*
X18710982Y572949D02*
X18745261Y538672D01*
X18726260Y701514D02*
Y707627D01*
X18710982Y572949D02*
Y686237D01*
X18726260Y701514D01*
X16857060Y3005180D02*
Y3070180D01*
X16822781Y2970903D02*
X16857060Y3005180D01*
X16838060Y2919276D02*
Y2925389D01*
X16822781Y2940667D02*
X16838060Y2925389D01*
X16822781Y2940667D02*
Y2970903D01*
X19064259Y701514D02*
X19079536Y686237D01*
Y572949D02*
Y686237D01*
X19045261Y538672D02*
X19079536Y572949D01*
X19064259Y701514D02*
Y707627D01*
X19045261Y345632D02*
Y538672D01*
X17157060Y3005180D02*
X17191338Y2970903D01*
Y2940667D02*
Y2970903D01*
X17176060Y2925389D02*
X17191338Y2940667D01*
X17176060Y2919276D02*
Y2925389D01*
X17157060Y3005180D02*
Y3070180D01*
X19126260Y701514D02*
Y707627D01*
X19110983Y686237D02*
X19126260Y701514D01*
X19145261Y345632D02*
Y538672D01*
X19110983Y572949D02*
X19145261Y538672D01*
X19110983Y572949D02*
Y686237D01*
X17257060Y3005180D02*
Y3070180D01*
X17222781Y2970903D02*
X17257060Y3005180D01*
X17222781Y2940667D02*
X17238060Y2925389D01*
Y2919276D02*
Y2925389D01*
X17222781Y2940667D02*
Y2970903D01*
X17910982Y572949D02*
X17945261Y538672D01*
Y345632D02*
Y538672D01*
X17926260Y701514D02*
Y707627D01*
X17910982Y572949D02*
Y686237D01*
X17926260Y701514D01*
X17657060Y1732640D02*
Y1797640D01*
X17622781Y1698363D02*
X17657060Y1732640D01*
X17622781Y1668127D02*
X17638060Y1652849D01*
X17622781Y1668127D02*
Y1698363D01*
X17638060Y1646736D02*
Y1652849D01*
X17879536Y572949D02*
Y686237D01*
X17864259Y701514D02*
X17879536Y686237D01*
X17864259Y701514D02*
Y707627D01*
X17557060Y1732640D02*
X17591338Y1698363D01*
Y1668127D02*
Y1698363D01*
X17576060Y1652849D02*
X17591338Y1668127D01*
X17557060Y1732640D02*
Y1797640D01*
X17576060Y1646736D02*
Y1652849D01*
X17845261Y538672D02*
X17879536Y572949D01*
X17845261Y345632D02*
Y538672D01*
X17545261Y345632D02*
Y538672D01*
X17526260Y701514D02*
Y707627D01*
X17510983Y572949D02*
Y686237D01*
X17257060Y1732640D02*
Y1797640D01*
X17238060Y1646736D02*
Y1652849D01*
X17222781Y1698363D02*
X17257060Y1732640D01*
X17222781Y1668127D02*
X17238060Y1652849D01*
X17222781Y1668127D02*
Y1698363D01*
X17510983Y572949D02*
X17545261Y538672D01*
X17510983Y686237D02*
X17526260Y701514D01*
X17479536Y572949D02*
Y686237D01*
X17464259Y701514D02*
X17479536Y686237D01*
X17464259Y701514D02*
Y707627D01*
X17157060Y1732640D02*
X17191338Y1698363D01*
Y1668127D02*
Y1698363D01*
X17176060Y1652849D02*
X17191338Y1668127D01*
X17157060Y1732640D02*
Y1797640D01*
X17176060Y1646736D02*
Y1652849D01*
X17445261Y538672D02*
X17479536Y572949D01*
X17445261Y345632D02*
Y538672D01*
X16476060Y1222431D02*
X16491338Y1207153D01*
X16476060Y1222431D02*
Y1228544D01*
X16491338Y1176917D02*
Y1207153D01*
X16457060Y1142640D02*
X16491338Y1176917D01*
X16457060Y1077640D02*
Y1142640D01*
X16522781Y1207153D02*
X16538060Y1222431D01*
Y1228544D01*
X16522781Y1176917D02*
X16557060Y1142640D01*
Y1077640D02*
Y1142640D01*
X16522781Y1176917D02*
Y1207153D01*
X16957060Y1142640D02*
X16991338Y1176917D01*
X16976060Y1222431D02*
Y1228544D01*
X16991338Y1176917D02*
Y1207153D01*
X16957060Y1077640D02*
Y1142640D01*
X16976060Y1222431D02*
X16991338Y1207153D01*
X17022781D02*
X17038060Y1222431D01*
X17022781Y1176917D02*
Y1207153D01*
Y1176917D02*
X17057060Y1142640D01*
Y1077640D02*
Y1142640D01*
X17038060Y1222431D02*
Y1228544D01*
X17376060Y1222431D02*
X17391338Y1207153D01*
X17376060Y1222431D02*
Y1228544D01*
X17391338Y1176917D02*
Y1207153D01*
X17357060Y1142640D02*
X17391338Y1176917D01*
X17357060Y1077640D02*
Y1142640D01*
X17422783Y1207153D02*
X17438060Y1222431D01*
Y1228544D01*
X17422783Y1176917D02*
X17457060Y1142640D01*
Y1077640D02*
Y1142640D01*
X17422783Y1176917D02*
Y1207153D01*
X17776060Y1222431D02*
X17791338Y1207153D01*
Y1176917D02*
Y1207153D01*
X17776060Y1222431D02*
Y1228544D01*
X17757060Y1142640D02*
X17791338Y1176917D01*
X17757060Y1077640D02*
Y1142640D01*
X17822781Y1207153D02*
X17838060Y1222431D01*
X17822781Y1176917D02*
X17857060Y1142640D01*
X17838060Y1222431D02*
Y1228544D01*
X17822781Y1176917D02*
Y1207153D01*
X17857060Y1077640D02*
Y1142640D01*
X17838060Y2494971D02*
Y2501084D01*
X17822781Y2479693D02*
X17838060Y2494971D01*
X17822781Y2449457D02*
Y2479693D01*
X17857060Y2350180D02*
Y2415180D01*
X17822781Y2449457D02*
X17857060Y2415180D01*
X17776060Y2494971D02*
X17791338Y2479693D01*
Y2449457D02*
Y2479693D01*
X17776060Y2494971D02*
Y2501084D01*
X17757060Y2415180D02*
X17791338Y2449457D01*
X17757060Y2350180D02*
Y2415180D01*
X17422783Y2479693D02*
X17438060Y2494971D01*
X17457060Y2350180D02*
Y2415180D01*
X17422783Y2449457D02*
X17457060Y2415180D01*
X17438060Y2494971D02*
Y2501084D01*
X17422783Y2449457D02*
Y2479693D01*
X17391338Y2449457D02*
Y2479693D01*
X17376060Y2494971D02*
Y2501084D01*
Y2494971D02*
X17391338Y2479693D01*
X17357060Y2350180D02*
Y2415180D01*
X17391338Y2449457D01*
X17038060Y2494971D02*
Y2501084D01*
X17057060Y2350180D02*
Y2415180D01*
X17022781Y2449457D02*
X17057060Y2415180D01*
X17022781Y2449457D02*
Y2479693D01*
X17038060Y2494971D01*
X16976060D02*
X16991338Y2479693D01*
X16957060Y2350180D02*
Y2415180D01*
X16991338Y2449457D02*
Y2479693D01*
X16976060Y2494971D02*
Y2501084D01*
X16957060Y2415180D02*
X16991338Y2449457D01*
X16476060Y2494971D02*
X16491338Y2479693D01*
X16457060Y2350180D02*
Y2415180D01*
X16491338Y2449457D02*
Y2479693D01*
X16476060Y2494971D02*
Y2501084D01*
X16457060Y2415180D02*
X16491338Y2449457D01*
X16538060Y2494971D02*
Y2501084D01*
X16557060Y2350180D02*
Y2415180D01*
X16522781Y2449457D02*
X16557060Y2415180D01*
X16522781Y2449457D02*
Y2479693D01*
X16538060Y2494971D01*
X18345261Y345632D02*
Y538672D01*
X18310982Y572949D02*
X18345261Y538672D01*
X18326260Y701514D02*
Y707627D01*
X18310982Y572949D02*
Y686237D01*
X18326260Y701514D01*
X16357060Y3005180D02*
Y3070180D01*
X16322781Y2970903D02*
X16357060Y3005180D01*
X16338060Y2919276D02*
Y2925389D01*
X16322781Y2940667D02*
Y2970903D01*
Y2940667D02*
X16338060Y2925389D01*
X16276060D02*
X16291338Y2940667D01*
X16257060Y3005180D02*
X16291338Y2970903D01*
Y2940667D02*
Y2970903D01*
X16257060Y3005180D02*
Y3070180D01*
X16276060Y2919276D02*
Y2925389D01*
X18264259Y701514D02*
X18279536Y686237D01*
Y572949D02*
Y686237D01*
X18245261Y538672D02*
X18279536Y572949D01*
X18264259Y701514D02*
Y707627D01*
X18245261Y345632D02*
Y538672D01*
X19464259Y701514D02*
X19479536Y686237D01*
Y572949D02*
Y686237D01*
X19445261Y538672D02*
X19479536Y572949D01*
X19464259Y701514D02*
Y707627D01*
X19445261Y345632D02*
Y538672D01*
X17557060Y3005180D02*
X17591338Y2970903D01*
Y2940667D02*
Y2970903D01*
X17576060Y2925389D02*
X17591338Y2940667D01*
X17576060Y2919276D02*
Y2925389D01*
X17557060Y3005180D02*
Y3070180D01*
X19510983Y686237D02*
X19526260Y701514D01*
X19545261Y345632D02*
Y538672D01*
X19510983Y572949D02*
X19545261Y538672D01*
X19526260Y701514D02*
Y707627D01*
X19510983Y572949D02*
Y686237D01*
X17657060Y3005180D02*
Y3070180D01*
X17622781Y2970903D02*
X17657060Y3005180D01*
X17622781Y2940667D02*
X17638060Y2925389D01*
Y2919276D02*
Y2925389D01*
X17622781Y2940667D02*
Y2970903D01*
D11*
X9363492Y4137660D02*
G03*
X9357360Y4135120I0J-8672D01*
G01*
X9063790D02*
G03*
X8884185Y4060725I0J-254000D01*
G01*
X8794215Y3970755D02*
G03*
X8719820Y3791150I179605J-179605D01*
G01*
Y2017830D02*
G03*
X8794215Y1838225I254000J0D01*
G01*
X8937525Y1694915D02*
G03*
X9117130Y1620520I179605J179605D01*
G01*
X11191975Y1546125D02*
G03*
X11012370Y1620520I-179605J-179605D01*
G01*
X11361420Y1271470D02*
G03*
X11287025Y1451075I-254000J0D01*
G01*
X9063790Y4135120D02*
X9357360D01*
X9363492Y4137660D02*
X9443720D01*
X8794215Y3970755D02*
X8884185Y4060725D01*
X8719820Y2017830D02*
Y3791150D01*
X8794215Y1838225D02*
X8937525Y1694915D01*
X9117130Y1620520D02*
X11012370D01*
X11191975Y1546125D02*
X11287025Y1451075D01*
X11361420Y1176020D02*
Y1271470D01*
X14593340Y4314689D02*
X14673801Y4234230D01*
X14725850Y4170680D02*
X15470593D01*
X14673801Y4222730D02*
Y4234230D01*
Y4222730D02*
X14725850Y4170680D01*
X14664560Y2959430D02*
X14727789Y2896200D01*
X15453960D01*
X14123857Y1735900D02*
X14627049D01*
X14079221Y1682750D02*
Y1691263D01*
X14053819Y1676400D02*
X14072870D01*
X14079221Y1682750D01*
Y1691263D02*
X14123857Y1735900D01*
X14655321Y1696130D02*
X14730930Y1620520D01*
X15491335D01*
X14655321Y1696130D02*
Y1707630D01*
X14627049Y1735900D02*
X14655321Y1707630D01*
X14060170Y2965450D02*
X14079221D01*
X14122211Y3008440D02*
X14627049D01*
X14079221Y2965450D02*
X14122211Y3008440D01*
X14627049D02*
X14664560Y2970930D01*
Y2959430D02*
Y2970930D01*
X14053819Y2959100D02*
X14060170Y2965450D01*
X14143219Y4314689D02*
X14593340D01*
X14079221Y4250690D02*
X14143219Y4314689D01*
X14053819Y4244340D02*
X14060170Y4250690D01*
X14079221D01*
D17*
X10038080Y3987800D02*
D03*
Y4077800D02*
D03*
X10111740Y3081020D02*
D03*
Y2991020D02*
D03*
X10144760Y3987800D02*
D03*
Y4077800D02*
D03*
X9931400Y3987800D02*
D03*
Y4077800D02*
D03*
X12763500Y1240960D02*
D03*
Y1330960D02*
D03*
Y2523660D02*
D03*
Y2613660D02*
D03*
X11346180Y742360D02*
D03*
Y827360D02*
D03*
X12763500Y3898900D02*
D03*
Y3808900D02*
D03*
X10632440Y3171280D02*
D03*
Y3256280D02*
D03*
X9339580Y3450500D02*
D03*
Y3365500D02*
D03*
X10632440Y3567520D02*
D03*
Y3652520D02*
D03*
X9339580Y3846740D02*
D03*
Y3761740D02*
D03*
Y3570060D02*
D03*
Y3655060D02*
D03*
X10632440Y3447960D02*
D03*
Y3362960D02*
D03*
Y3844200D02*
D03*
Y3759200D02*
D03*
X9339580Y3173820D02*
D03*
Y3258820D02*
D03*
D18*
X12345260Y345632D02*
D03*
X12245260D02*
D03*
X12145260D02*
D03*
X12045260D02*
D03*
X11945260D02*
D03*
X11845260D02*
D03*
X11745260D02*
D03*
X11645260D02*
D03*
X11545260D02*
D03*
X11445260D02*
D03*
X19645261D02*
D03*
X18645261D02*
D03*
X18745261D02*
D03*
X18845261D02*
D03*
X18945261D02*
D03*
X19045261D02*
D03*
X19145261D02*
D03*
X19245261D02*
D03*
X19345261D02*
D03*
X19445261D02*
D03*
X19545261D02*
D03*
X18345261D02*
D03*
X15645261D02*
D03*
X15745261D02*
D03*
X15845261D02*
D03*
X14745261D02*
D03*
X14845261D02*
D03*
X14945261D02*
D03*
X15045261D02*
D03*
X15145261D02*
D03*
X15245261D02*
D03*
X15345261D02*
D03*
X15445261D02*
D03*
X15545261D02*
D03*
X14645261D02*
D03*
X17645261D02*
D03*
X17745261D02*
D03*
X17845261D02*
D03*
X17945261D02*
D03*
X18045261D02*
D03*
X18145261D02*
D03*
X16345261D02*
D03*
X18245261D02*
D03*
X18445261D02*
D03*
X16645261D02*
D03*
X16745261D02*
D03*
X16845261D02*
D03*
X16945261D02*
D03*
X17045261D02*
D03*
X17145261D02*
D03*
X17245261D02*
D03*
X17345261D02*
D03*
X17445261D02*
D03*
X17545261D02*
D03*
X18545261D02*
D03*
X15945261D02*
D03*
X16045261D02*
D03*
X16145261D02*
D03*
X14245261D02*
D03*
X16245261D02*
D03*
X16445261D02*
D03*
X16545261D02*
D03*
X13545261D02*
D03*
X13445261D02*
D03*
X13345261D02*
D03*
X13245261D02*
D03*
X13145261D02*
D03*
X13045261D02*
D03*
X12945261D02*
D03*
X12845261D02*
D03*
X12745260D02*
D03*
X12645260D02*
D03*
X13645261D02*
D03*
X13745261D02*
D03*
X13845261D02*
D03*
X13945261D02*
D03*
X14045261D02*
D03*
X14145261D02*
D03*
X14345261D02*
D03*
X14445261D02*
D03*
X14545261D02*
D03*
D19*
X11345260Y415632D02*
D03*
D20*
X18003520Y2900680D02*
X18034760Y2982880D01*
X18057060Y3070180D01*
X18041620Y1625600D02*
Y1710340D01*
X18057060Y1797640D01*
X11646850Y608010D02*
X11648440Y609600D01*
X11646850Y561532D02*
X11668120D01*
X11646850D02*
Y608010D01*
X16034760Y2437480D02*
X16057060Y2350180D01*
X16014700Y2463800D02*
X16034760Y2437480D01*
X18064481Y4137660D02*
Y4255420D01*
X18057060Y4342720D02*
X18064481Y4255420D01*
X19715480Y3423920D02*
X19752020Y3505425D01*
X19809320Y3587725D01*
X19682460Y3599180D02*
X19752020D01*
X19809320Y3587725D01*
X19866620Y3505425D02*
X19951700Y3434080D01*
X19809320Y3587725D02*
X19866620Y3505425D01*
X19900900Y3756660D02*
X20014536Y3837415D01*
X20029335Y3869715D01*
X20044136Y3902015D02*
X20088860Y4013200D01*
X20029335Y3869715D02*
X20044136Y3902015D01*
X19921220Y3997960D02*
X20014536Y3902015D01*
X20029335Y3869715D01*
X21322020Y3505425D02*
X21379320Y3587725D01*
X21280119Y3477260D02*
X21322020Y3505425D01*
X21436620D02*
X21503641Y3479800D01*
X21379320Y3587725D02*
X21436620Y3505425D01*
Y3670024D02*
X21498560Y3736340D01*
X21379320Y3587725D02*
X21436620Y3670024D01*
X21262340Y3716020D02*
X21322020Y3670024D01*
X21379320Y3587725D01*
X21157208Y3870868D02*
X21174130Y3902015D01*
X21153120Y3863340D02*
X21157208Y3870868D01*
X21144530Y3837415D02*
X21153120Y3863340D01*
X21102319Y3776980D02*
X21144530Y3837415D01*
X21174130D02*
X21224240Y3799840D01*
X21153120Y3863340D02*
X21174130Y3837415D01*
Y3902015D02*
X21219160Y3952240D01*
X16070580Y3710020D02*
Y3822700D01*
X16057060Y3622720D02*
X16070580Y3710020D01*
X16065500Y1164940D02*
Y1221740D01*
X16057060Y1077640D02*
X16065500Y1164940D01*
X15034760D02*
X15057060Y1077640D01*
X14995885Y1224186D02*
X15034760Y1164940D01*
X10575590Y1217235D02*
X10590390Y1184935D01*
X10484829Y1290834D02*
X10575590Y1217235D01*
X10605191D02*
X10632440Y1267460D01*
X10590390Y1184935D02*
X10605191Y1217235D01*
Y1153160D02*
X10706100D01*
X10590390Y1184935D02*
X10605191Y1153160D01*
X10753080Y896620D02*
X10810380Y902945D01*
X10693400Y896620D02*
X10753080D01*
X10701020Y1023620D02*
X10753080Y985244D01*
X10810380Y902945D01*
X10695940Y764540D02*
X10753080Y820645D01*
X10810380Y902945D01*
X9183080Y820645D02*
X9240380Y902945D01*
X9118600Y779780D02*
X9183080Y820645D01*
X9297680D02*
X9385300Y759460D01*
X9240380Y902945D02*
X9297680Y820645D01*
X9128760Y1023620D02*
X9183080Y985244D01*
X9240380Y902945D01*
X9297680Y985244D02*
X9349740Y1038860D01*
X9240380Y902945D02*
X9297680Y985244D01*
X9398000Y1115060D02*
X9445595Y1152635D01*
X9460395Y1184935D01*
X9349740Y1242060D02*
X9445595Y1217235D01*
X9460395Y1184935D01*
X9475196Y1217235D02*
X9514840Y1275080D01*
X9460395Y1184935D02*
X9475196Y1217235D01*
Y1152635D02*
X9542780Y1102360D01*
X9460395Y1184935D02*
X9475196Y1152635D01*
X9093200Y2062480D02*
X9177734D01*
X9235034Y2039595D01*
X9260840Y1957295D01*
Y1879600D02*
Y1957295D01*
X9292333Y2100580D02*
X9458960D01*
X9235034Y2039595D02*
X9292333Y2100580D01*
X9095740Y1920240D02*
X9177734Y1957295D01*
X9235034Y2039595D01*
X9171940Y2192020D02*
X9177734Y2121894D01*
X9235034Y2039595D01*
X9370060Y2435860D02*
X9440248Y2353885D01*
X9455048Y2321585D01*
X9331960Y2204720D02*
X9440248Y2289285D01*
X9455048Y2321585D01*
X9306560Y2336800D02*
X9440248D01*
X9455048Y2321585D01*
X9469849Y2289285D02*
X9560560Y2197100D01*
X9455048Y2321585D02*
X9469849Y2289285D01*
X10747733Y1957295D02*
X10805033Y2039595D01*
X10595401Y1917669D02*
X10747733Y1957295D01*
X10805033Y2039595D02*
X10843260Y2121894D01*
Y2258060D01*
X10645140Y2054860D02*
X10747733D01*
X10805033Y2039595D01*
X10585044Y2321585D02*
X10599844Y2353885D01*
X10626656Y2432387D01*
X10599844Y2289285D02*
X10640060Y2232660D01*
X10585044Y2321585D02*
X10599844Y2289285D01*
X9344660Y3114040D02*
Y3161520D01*
X9339580Y3173820D02*
X9344660Y3161520D01*
X12645260Y345632D02*
X12668120Y561532D01*
X12689840Y695960D01*
X11645260Y345632D02*
X11668120Y561532D01*
X12759477Y4247540D02*
Y4259465D01*
X12767876Y4267865D02*
X12814301Y4305300D01*
X12758420Y4237740D02*
X12759477Y4247540D01*
Y4259465D02*
X12767876Y4267865D01*
X12814301Y4305300D02*
X12885420Y4333240D01*
X15057060Y3030160D02*
Y3070180D01*
X15052040Y3025140D02*
X15057060Y3030160D01*
X16379465Y1165127D02*
X16414084Y1226820D01*
X16379359Y1164940D02*
X16379465Y1165127D01*
X16357060Y1077640D02*
X16379359Y1164940D01*
X16600035Y1226820D02*
X16634656Y1165127D01*
X16634760Y1164940D01*
X16657060Y1077640D01*
X16879465Y1165127D02*
X16914084Y1226820D01*
X16879359Y1164940D02*
X16879465Y1165127D01*
X16857060Y1077640D02*
X16879359Y1164940D01*
X17100035Y1226820D02*
X17134656Y1165127D01*
X17134760Y1164940D01*
X17157060Y1077640D01*
X17279465Y1165127D02*
X17314084Y1226820D01*
X17279359Y1164940D02*
X17279465Y1165127D01*
X17257060Y1077640D02*
X17279359Y1164940D01*
X17500037Y1226820D02*
X17534656Y1165127D01*
X17534760Y1164940D01*
X17557060Y1077640D01*
X17679465Y1165127D02*
X17714084Y1226820D01*
X17679359Y1164940D02*
X17679465Y1165127D01*
X17657060Y1077640D02*
X17679359Y1164940D01*
X17900037Y1226820D02*
X17934656Y1165127D01*
X17934760Y1164940D01*
X17957060Y1077640D01*
X16157060Y1797640D02*
Y1797640D01*
Y1797640D02*
X16179359Y1710340D01*
X16179465Y1710154D01*
X16214084Y1648460D01*
X16434654Y1710153D02*
X16434760Y1710340D01*
X16400035Y1648460D02*
X16434654Y1710153D01*
X16434760Y1710340D02*
X16457060Y1797640D01*
X16679359Y1710340D02*
X16685886Y1701628D01*
X16720505Y1655400D01*
X16657060Y1797640D02*
X16679359Y1710340D01*
X16941074Y1735061D02*
X16957060Y1797640D01*
X16934760Y1710340D02*
X16941074Y1735061D01*
X16906454Y1655400D02*
X16934760Y1710340D01*
X17079359D02*
X17079465Y1710153D01*
X17114084Y1648460D01*
X17057060Y1797640D02*
X17079359Y1710340D01*
X17334656Y1710153D02*
X17334760Y1710340D01*
X17300037Y1648460D02*
X17334656Y1710153D01*
X17334760Y1710340D02*
X17357060Y1797640D01*
X17479359Y1710340D02*
X17479465Y1710153D01*
X17514084Y1648460D01*
X17457060Y1797640D02*
X17479359Y1710340D01*
X17734656Y1710153D02*
X17734760Y1710340D01*
X17700035Y1648460D02*
X17734656Y1710153D01*
X17734760Y1710340D02*
X17757060Y1797640D01*
X16379465Y2437667D02*
X16414084Y2499360D01*
X16379359Y2437480D02*
X16379465Y2437667D01*
X16357060Y2350180D02*
X16379359Y2437480D01*
X16600035Y2499360D02*
X16634656Y2437667D01*
X16634760Y2437480D01*
X16657060Y2350180D01*
X16879465Y2437667D02*
X16914084Y2499360D01*
X16879359Y2437480D02*
X16879465Y2437667D01*
X16857060Y2350180D02*
X16879359Y2437480D01*
X17100035Y2499360D02*
X17134656Y2437667D01*
X17134760Y2437480D01*
X17157060Y2350180D01*
X17279465Y2437667D02*
X17314084Y2499360D01*
X17279359Y2437480D02*
X17279465Y2437667D01*
X17257060Y2350180D02*
X17279359Y2437480D01*
X17500037Y2499360D02*
X17534656Y2437667D01*
X17534760Y2437480D01*
X17557060Y2350180D01*
X17679465Y2437667D02*
X17714084Y2499360D01*
X17679359Y2437480D02*
X17679465Y2437667D01*
X17657060Y2350180D02*
X17679359Y2437480D01*
X17900037Y2499360D02*
X17934656Y2437667D01*
X17934760Y2437480D01*
X17957060Y2350180D01*
X16179359Y2982880D02*
X16179465Y2982694D01*
X16214084Y2921000D01*
X16157060Y3070180D02*
Y3070180D01*
Y3070180D02*
X16179359Y2982880D01*
X16434654Y2982693D02*
X16434760Y2982880D01*
X16400035Y2921000D02*
X16434654Y2982693D01*
X16434760Y2982880D02*
X16457060Y3070180D01*
X16657060Y3070180D02*
Y3070180D01*
Y3070180D02*
X16679359Y2982880D01*
X16679465Y2982694D01*
X16714084Y2921000D01*
X16934654Y2982693D02*
X16934760Y2982880D01*
X16900035Y2921000D02*
X16934654Y2982693D01*
X16934760Y2982880D02*
X16957060Y3070180D01*
X17079359Y2982880D02*
X17079465Y2982693D01*
X17114084Y2921000D01*
X17057060Y3070180D02*
X17079359Y2982880D01*
X17334656Y2982693D02*
X17334760Y2982880D01*
X17300037Y2921000D02*
X17334656Y2982693D01*
X17334760Y2982880D02*
X17357060Y3070180D01*
X17479359Y2982880D02*
X17479465Y2982693D01*
X17514084Y2921000D01*
X17457060Y3070180D02*
X17479359Y2982880D01*
X17734656Y2982693D02*
X17734760Y2982880D01*
X17700035Y2921000D02*
X17734656Y2982693D01*
X17734760Y2982880D02*
X17757060Y3070180D01*
X16179359Y4255420D02*
X16179465Y4255234D01*
X16214084Y4193540D01*
X16157060Y4342720D02*
Y4342720D01*
Y4342720D02*
X16179359Y4255420D01*
X16434654Y4255233D02*
X16434760Y4255420D01*
X16400035Y4193540D02*
X16434654Y4255233D01*
X16434760Y4255420D02*
X16457060Y4342720D01*
X16657060Y4342720D02*
Y4342720D01*
Y4342720D02*
X16679359Y4255420D01*
X16679465Y4255234D01*
X16714084Y4193540D01*
X16934654Y4255233D02*
X16934760Y4255420D01*
X16900035Y4193540D02*
X16934654Y4255233D01*
X16934760Y4255420D02*
X16957060Y4342720D01*
X17079359Y4255420D02*
X17079465Y4255233D01*
X17114084Y4193540D01*
X17057060Y4342720D02*
X17079359Y4255420D01*
X17334656Y4255233D02*
X17334760Y4255420D01*
X17300037Y4193540D02*
X17334656Y4255233D01*
X17334760Y4255420D02*
X17357060Y4342720D01*
X17479359Y4255420D02*
X17479465Y4255233D01*
X17514084Y4193540D01*
X17457060Y4342720D02*
X17479359Y4255420D01*
X17734656Y4255233D02*
X17734760Y4255420D01*
X17700035Y4193540D02*
X17734656Y4255233D01*
X17734760Y4255420D02*
X17757060Y4342720D01*
X17279465Y3710207D02*
X17314084Y3771900D01*
X17279359Y3710020D02*
X17279465Y3710207D01*
X17257060Y3622720D02*
X17279359Y3710020D01*
X17500037Y3771900D02*
X17534656Y3710207D01*
X17534760Y3710020D01*
X17557060Y3622720D01*
X17679359Y3710020D02*
X17714084Y3771900D01*
X17657060Y3622720D02*
X17679359Y3710020D01*
X17900037Y3771900D02*
X17934656Y3710207D01*
X17934760Y3710020D01*
X17957060Y3622720D01*
X17100035Y3771900D02*
X17134656Y3710207D01*
X17134760Y3710020D01*
X17157060Y3622720D01*
X16879465Y3710207D02*
X16914084Y3771900D01*
X16879359Y3710020D02*
X16879465Y3710207D01*
X16857060Y3622720D02*
X16879359Y3710020D01*
X16600035Y3771900D02*
X16605087Y3762897D01*
X16634760Y3710020D01*
X16657060Y3622720D01*
X16409032Y3762897D02*
X16414084Y3771900D01*
X16379359Y3710020D02*
X16409032Y3762897D01*
X16357060Y3622720D02*
X16379359Y3710020D01*
X15357060Y4342720D02*
Y4419380D01*
X15057060Y4342720D02*
Y4429820D01*
Y3622720D02*
Y3754060D01*
X15357060Y3070180D02*
Y3187480D01*
X15057060Y2220020D02*
Y2350180D01*
X15357060Y1797640D02*
Y1925100D01*
X15057060Y1797640D02*
X15059660Y1795040D01*
X19588242Y706120D02*
X19622400Y561532D01*
X19645261Y345632D01*
X19368120Y561532D02*
X19402278Y706120D01*
X19345261Y345632D02*
X19368120Y561532D01*
X19188242Y706120D02*
X19222400Y561532D01*
X19245261Y345632D01*
X18945261D02*
X18968120Y561532D01*
X19002278Y706120D01*
X18822400Y561532D02*
X18845261Y345634D01*
X18845261Y345632D01*
X18788242Y706120D02*
X18822400Y561532D01*
X18568120D02*
X18602278Y706120D01*
X18545261Y345632D02*
X18568120Y561532D01*
X18422400D02*
X18445261Y345632D01*
X18388242Y706120D02*
X18422400Y561532D01*
X18145261Y345632D02*
X18168120Y561532D01*
X18202278Y706120D01*
X17988242D02*
X18022400Y561532D01*
X18045261Y345632D01*
X17768120Y561532D02*
X17802278Y706120D01*
X17745261Y472440D02*
X17768120Y561532D01*
X17622400D02*
X17645261Y345632D01*
X17588242Y706120D02*
X17622400Y561532D01*
X17345261Y345632D02*
X17368120Y561532D01*
X17402278Y706120D01*
X17188242D02*
X17222400Y561532D01*
X17245261Y345632D01*
X16945261D02*
X16968120Y561532D01*
X17002278Y706120D01*
X16788242D02*
X16822400Y561532D01*
X16845261Y345632D01*
X16545261D02*
X16568120Y561532D01*
X16602278Y706120D01*
X16322400Y561532D02*
X16345261Y345634D01*
X16345261Y345632D01*
X16288242Y706120D02*
X16322400Y561532D01*
X16045261Y345632D02*
X16068120Y561532D01*
X16102278Y706120D01*
X15922400Y561532D02*
X15945261Y345634D01*
X15945261Y345632D01*
X15888242Y706120D02*
X15922400Y561532D01*
X15668120D02*
X15702278Y706120D01*
X15645261Y345632D02*
X15668120Y561532D01*
X15488242Y706120D02*
X15522400Y561532D01*
X15545261Y345632D01*
X15268120Y561532D02*
X15302280Y706120D01*
X15245261Y345632D02*
X15268120Y561532D01*
X15088242Y706120D02*
X15122400Y561532D01*
X15145261Y345632D01*
X14868120Y561532D02*
X14902280Y706120D01*
X14845261Y345632D02*
X14868120Y561532D01*
X14522400D02*
X14545261Y345632D01*
X14488242Y706120D02*
X14522400Y561532D01*
X14245261Y345632D02*
X14268120Y561532D01*
X14302278Y706120D01*
X13845261Y345632D02*
X13868120Y561532D01*
X13902280Y706120D01*
X14122400Y561532D02*
X14145261Y345632D01*
X14088242Y706120D02*
X14122400Y561532D01*
X13688242Y706120D02*
X13722400Y561532D01*
X13745261Y345632D01*
X13445261Y548640D02*
X13468120Y561532D01*
X13502278Y706120D01*
X13188242D02*
X13222400Y561532D01*
X13245261Y345632D01*
X12968120Y561532D02*
X13002280Y706120D01*
X12945261Y510540D02*
X12968120Y561532D01*
D21*
X18351288Y3598626D02*
X19766751Y3329881D01*
X18177022Y3724342D02*
X18351288Y3598626D01*
X17803027Y3873671D02*
X18177022Y3724342D01*
X16638164Y3957683D02*
X17803027Y3873671D01*
X16283479Y4051300D02*
X16638164Y3957683D01*
X16084441Y4250340D02*
X16278468Y4054263D01*
X16283479Y4051300D01*
X16057060Y4342720D02*
X16084441Y4250340D01*
X9779068Y1352912D02*
X10404421Y1399539D01*
X9719773Y1337697D02*
X9779068Y1352912D01*
X9592284Y1304982D02*
X9719773Y1337697D01*
X9555268Y1222290D02*
X9585604Y1298302D01*
X9592284Y1304982D01*
X9550387Y1184910D02*
X9555268Y1222290D01*
X10404421Y1399539D02*
X10914326Y1398652D01*
X11267440Y1272540D01*
X12348504Y566612D02*
Y769620D01*
X12526499Y901732D02*
X15333841Y844041D01*
X15699425Y959860D01*
X15729680Y985260D02*
X15757060Y1077640D01*
X15699425Y959860D02*
X15729680Y985260D01*
X12434024Y878498D02*
X12526499Y901732D01*
X12348504Y769620D02*
X12434024Y878498D01*
X12345260Y345632D02*
X12348504Y566612D01*
X15784441Y1170020D02*
X15809840Y1690276D01*
X15757060Y1077640D02*
X15784441Y1170020D01*
X15757060Y2350180D02*
X15784441Y2257800D01*
X15809840Y1905005D01*
Y1690276D02*
Y1905005D01*
X14060170Y2965450D02*
X14063980Y2969260D01*
X12222517Y4251960D02*
Y4412017D01*
X12219700Y4145280D02*
X12221109Y4146689D01*
X12307517Y4039243D02*
X12316015Y4047740D01*
X12479020D01*
X12306875Y4038600D02*
X12307517Y4039243D01*
Y4251960D01*
X14053819Y4244340D02*
X14063980Y4254500D01*
X12222517Y4412017D02*
X12296140Y4485640D01*
X12221109Y4250551D02*
X12222517Y4251960D01*
X12221109Y4146689D02*
Y4250551D01*
X13967461Y4485640D02*
X14063980Y4389120D01*
X12296140Y4485640D02*
X13967461D01*
X14063980Y4254500D02*
Y4389120D01*
X12222517Y2966720D02*
Y3126777D01*
X12219700Y2860040D02*
X12221109Y2861449D01*
X12307517Y2754003D02*
X12316015Y2762500D01*
X12479020D01*
X12306875Y2753360D02*
X12307517Y2754003D01*
Y2966720D01*
X12222517Y3126777D02*
X12296140Y3200400D01*
X12221109Y2965311D02*
X12222517Y2966720D01*
X12221109Y2861449D02*
Y2965311D01*
X13967461Y3200400D02*
X14063980Y3103880D01*
X12296140Y3200400D02*
X13967461D01*
X14063980Y2969260D02*
Y3103880D01*
Y1686560D02*
Y1821180D01*
X12296140Y1917700D02*
X13967461D01*
X14063980Y1821180D01*
X12221109Y1578749D02*
Y1682611D01*
X12222517Y1684020D01*
Y1844077D02*
X12296140Y1917700D01*
X12307517Y1471303D02*
Y1684020D01*
X12306875Y1470660D02*
X12307517Y1471303D01*
X12316015Y1479800D02*
X12479020D01*
X12307517Y1471303D02*
X12316015Y1479800D01*
X12219700Y1577340D02*
X12221109Y1578749D01*
X12222517Y1684020D02*
Y1844077D01*
D22*
X18237061Y2710180D02*
D03*
X15922060D02*
D03*
X18237061Y1437640D02*
D03*
X15922060D02*
D03*
X18237061Y3982720D02*
D03*
X15922060D02*
D03*
D23*
X7495460Y4216540D02*
D03*
Y2900540D02*
D03*
X7016460Y4216540D02*
D03*
Y2900540D02*
D03*
D24*
X7236460Y4099540D02*
D03*
Y2964540D02*
D03*
D25*
X18003520Y2900680D02*
D03*
X18041620Y1625600D02*
D03*
X7815580Y3898900D02*
D03*
X11648440Y609600D02*
D03*
X7678420Y4056380D02*
D03*
X7160260Y3947160D02*
D03*
X7180580Y3822700D02*
D03*
X7195820Y3698240D02*
D03*
X7188200Y3525520D02*
D03*
X7185660Y3383280D02*
D03*
X7200900Y3230880D02*
D03*
X7175500Y3081020D02*
D03*
X7617460Y3111500D02*
D03*
X7638155Y3278376D02*
D03*
X7653020Y3502660D02*
D03*
X7673340Y3589020D02*
D03*
X7647940Y3680460D02*
D03*
X7401560Y3727540D02*
D03*
Y3789540D02*
D03*
Y3877540D02*
D03*
Y3939540D02*
D03*
Y3277540D02*
D03*
Y3339540D02*
D03*
Y3189540D02*
D03*
Y3127540D02*
D03*
X8534400Y3771760D02*
D03*
Y3709760D02*
D03*
X8613140Y3671760D02*
D03*
Y3609760D02*
D03*
Y3471760D02*
D03*
Y3409760D02*
D03*
X8534400Y3371760D02*
D03*
Y3309760D02*
D03*
X16014700Y2463800D02*
D03*
X9222740Y4419600D02*
D03*
X8994140Y4221480D02*
D03*
X8966200Y4406900D02*
D03*
X9225280Y4241800D02*
D03*
X8737600Y4071620D02*
D03*
X8884920Y4180840D02*
D03*
X8752840Y4160520D02*
D03*
X9194800Y2623820D02*
D03*
X9052560Y3030220D02*
D03*
X8978900Y2664460D02*
D03*
X8651560Y2926080D02*
D03*
X8912860Y2913380D02*
D03*
X18064481Y4137660D02*
D03*
X19715480Y3423920D02*
D03*
X19682460Y3599180D02*
D03*
X19951700Y3434080D02*
D03*
X19900900Y3756660D02*
D03*
X20088860Y4013200D02*
D03*
X19921220Y3997960D02*
D03*
X21280119Y3477260D02*
D03*
X21503641Y3479800D02*
D03*
X21498560Y3736340D02*
D03*
X21262340Y3716020D02*
D03*
X21102319Y3776980D02*
D03*
X21224240Y3799840D02*
D03*
X21219160Y3952240D02*
D03*
X21153120Y3863340D02*
D03*
X16070580Y3822700D02*
D03*
X16065500Y1221740D02*
D03*
X14995885Y1224186D02*
D03*
X10484829Y1290834D02*
D03*
X10632440Y1267460D02*
D03*
X10706100Y1153160D02*
D03*
X10693400Y896620D02*
D03*
X10701020Y1023620D02*
D03*
X10695940Y764540D02*
D03*
X9118600Y779780D02*
D03*
X9385300Y759460D02*
D03*
X9128760Y1023620D02*
D03*
X9349740Y1038860D02*
D03*
X9398000Y1115060D02*
D03*
X9349740Y1242060D02*
D03*
X9514840Y1275080D02*
D03*
X9542780Y1102360D02*
D03*
X9093200Y2062480D02*
D03*
X9260840Y1879600D02*
D03*
X9458960Y2100580D02*
D03*
X9095740Y1920240D02*
D03*
X9171940Y2192020D02*
D03*
X9370060Y2435860D02*
D03*
X9331960Y2204720D02*
D03*
X9306560Y2336800D02*
D03*
X9560560Y2197100D02*
D03*
X10595401Y1917669D02*
D03*
X10843260Y2258060D02*
D03*
X10645140Y2054860D02*
D03*
X10626656Y2432387D02*
D03*
X10640060Y2232660D02*
D03*
X9344660Y3114040D02*
D03*
X12735560Y797560D02*
D03*
X12797435Y801485D02*
D03*
X9578340Y1381760D02*
D03*
X9562289Y1441646D02*
D03*
X9832843Y3147806D02*
D03*
X9781540Y3182620D02*
D03*
X9664700Y3241040D02*
D03*
X12689840Y695960D02*
D03*
X9400540Y4135120D02*
D03*
X9443720Y4137660D02*
D03*
X11844020Y642620D02*
D03*
X11267440Y1272540D02*
D03*
X12348504Y769620D02*
D03*
X11361420Y1176020D02*
D03*
X12885420Y4333240D02*
D03*
X12814301Y4305300D02*
D03*
X12146280Y4053840D02*
D03*
X9357360Y4135120D02*
D03*
X9598660Y3906520D02*
D03*
X9955372Y3878442D02*
D03*
X10058119Y3880961D02*
D03*
X10161108Y3881096D02*
D03*
X10322560Y3886200D02*
D03*
X10398760Y3568700D02*
D03*
X9583420Y3560064D02*
D03*
X12207240Y629920D02*
D03*
X12141200D02*
D03*
X12077700D02*
D03*
X12026900D02*
D03*
X16238060Y1287780D02*
D03*
X11513820Y3916680D02*
D03*
X16176060Y1287780D02*
D03*
X11547618Y3864702D02*
D03*
X16176060Y2560320D02*
D03*
X11465684Y4003878D02*
D03*
X16238060Y2560320D02*
D03*
X11442700Y4061460D02*
D03*
X10688320Y3898900D02*
D03*
X10568940Y3937000D02*
D03*
X9890760Y4122420D02*
D03*
X10086340Y4130040D02*
D03*
X10215880Y4086860D02*
D03*
X9408160Y3931920D02*
D03*
X9271000Y3817620D02*
D03*
X9288780Y3492500D02*
D03*
X9278620Y3553460D02*
D03*
X9456420Y3566160D02*
D03*
X10068560Y2933700D02*
D03*
X10576560Y3144520D02*
D03*
X10579100Y3507740D02*
D03*
X10676800Y3447960D02*
D03*
X10679520Y3567520D02*
D03*
X9937280Y3483140D02*
D03*
X10037280D02*
D03*
Y3583140D02*
D03*
X9937280D02*
D03*
X10142220Y3688080D02*
D03*
Y3378200D02*
D03*
X9832340D02*
D03*
Y3688080D02*
D03*
X9987280Y3533140D02*
D03*
X13992525Y3935473D02*
D03*
X14478000Y3939540D02*
D03*
X14368781Y3863340D02*
D03*
X14277341Y3982720D02*
D03*
X14249400Y4163060D02*
D03*
X14526260Y4097020D02*
D03*
X14376401Y4010660D02*
D03*
X14521181Y3804920D02*
D03*
X14244772Y3789414D02*
D03*
X14180820Y3931920D02*
D03*
X14066521Y3830320D02*
D03*
X14386560Y2463800D02*
D03*
X13901421Y2438400D02*
D03*
X14155420Y2463800D02*
D03*
X14013181Y2534920D02*
D03*
X14241780Y2867660D02*
D03*
X14412560Y2727341D02*
D03*
X14569440Y2639060D02*
D03*
X14490700Y2842260D02*
D03*
X14320520Y2801620D02*
D03*
X14234160Y2578100D02*
D03*
X14130020Y2631440D02*
D03*
X14046201Y1168400D02*
D03*
X13963844Y1239492D02*
D03*
X14063980Y1336040D02*
D03*
X14208760Y1450340D02*
D03*
X14185899Y1244600D02*
D03*
X14333220Y1348740D02*
D03*
X14508479Y1216660D02*
D03*
X14384019Y1508760D02*
D03*
X14551660Y1384300D02*
D03*
X12473940Y3677920D02*
D03*
X12595860Y3581400D02*
D03*
X12730480Y3634740D02*
D03*
X12854619Y3772175D02*
D03*
X12959081Y3746500D02*
D03*
X12491720Y2319020D02*
D03*
X12623800Y2298700D02*
D03*
X12776200Y2275840D02*
D03*
X12920979Y2382520D02*
D03*
X12786360Y2405380D02*
D03*
X12542520Y1018540D02*
D03*
X12613640Y1016000D02*
D03*
X12484100Y1054100D02*
D03*
X12946381Y1188720D02*
D03*
X12878683Y1204140D02*
D03*
X12133580Y1488440D02*
D03*
X12581573Y1756939D02*
D03*
X12663984Y1725255D02*
D03*
X12131040Y2700020D02*
D03*
X12811760Y3007360D02*
D03*
X12830833Y3050337D02*
D03*
X15052040Y3025140D02*
D03*
X15357060Y4419380D02*
D03*
X15057060Y4429820D02*
D03*
Y3754060D02*
D03*
X15357060Y3187480D02*
D03*
X15057060Y2220020D02*
D03*
X15357060Y1925100D02*
D03*
X15059660Y1795040D02*
D03*
X11442700Y599440D02*
D03*
X11496040D02*
D03*
X11549380D02*
D03*
Y652780D02*
D03*
X11496040D02*
D03*
X11442700D02*
D03*
X16844479Y1653676D02*
D03*
X16782480D02*
D03*
X16276060Y1646736D02*
D03*
X16338060D02*
D03*
X16664259Y707627D02*
D03*
X16726260D02*
D03*
X20344321Y3428646D02*
D03*
X20444460Y3479800D02*
D03*
X20544321Y3428646D02*
D03*
X20637500Y3477260D02*
D03*
X20744321Y3428646D02*
D03*
X20843240Y3482340D02*
D03*
X20944319Y3428646D02*
D03*
X21037318Y3482340D02*
D03*
X20351320Y4023360D02*
D03*
X20543520Y4028440D02*
D03*
X20737259Y4026098D02*
D03*
X20942300Y4030980D02*
D03*
X21137253Y4026223D02*
D03*
X16164259Y707627D02*
D03*
X16226260D02*
D03*
X9801034Y2159000D02*
D03*
X9739034D02*
D03*
X15826260Y707627D02*
D03*
X15764259D02*
D03*
X9939033Y2159000D02*
D03*
X10001033D02*
D03*
X15426260Y707627D02*
D03*
X10139033Y2159000D02*
D03*
X15364259Y707627D02*
D03*
X10201033Y2159000D02*
D03*
X10239033Y2219960D02*
D03*
X10301033D02*
D03*
X15026260Y707627D02*
D03*
X10339033Y2159000D02*
D03*
X14964259Y707627D02*
D03*
X10401033Y2159000D02*
D03*
X9770034Y2105306D02*
D03*
X9970033D02*
D03*
X10170033D02*
D03*
X9867847Y2165062D02*
D03*
X10070033Y2166266D02*
D03*
X10270033D02*
D03*
X14426260Y707627D02*
D03*
X14364259D02*
D03*
X9744294Y1030121D02*
D03*
X9806291Y1029493D02*
D03*
X9844380Y911860D02*
D03*
X9906380D02*
D03*
X14026260Y707627D02*
D03*
X13964259D02*
D03*
X9944293Y1030121D02*
D03*
X10006290Y1029493D02*
D03*
X10106380Y911860D02*
D03*
X10044380D02*
D03*
X13626260Y707627D02*
D03*
X13564259D02*
D03*
X10144293Y1030121D02*
D03*
X10206290Y1029493D02*
D03*
X10244380Y911860D02*
D03*
X10306379D02*
D03*
X13126260Y707627D02*
D03*
X13064259D02*
D03*
X10344292Y1030121D02*
D03*
X10406289Y1029493D02*
D03*
X9682604Y1036320D02*
D03*
X9782491Y915557D02*
D03*
X9940473Y860075D02*
D03*
X9930823Y968838D02*
D03*
X10020886Y969236D02*
D03*
X10075380Y858166D02*
D03*
X10213423Y965578D02*
D03*
X10204600Y864304D02*
D03*
X10135374Y966663D02*
D03*
X10347633Y865577D02*
D03*
X10340837Y963403D02*
D03*
X10407801Y961920D02*
D03*
X10402260Y866363D02*
D03*
X10547977Y865886D02*
D03*
X10543978Y961158D02*
D03*
X13188242Y706120D02*
D03*
X13002280D02*
D03*
X20375320Y3482340D02*
D03*
X16538060Y3773624D02*
D03*
X20313321Y3482340D02*
D03*
X16476060Y3773624D02*
D03*
X20213321Y3375660D02*
D03*
X20275320D02*
D03*
X16253172Y3415722D02*
D03*
X16191338Y3411220D02*
D03*
X21075319Y4023360D02*
D03*
X17576060Y4191816D02*
D03*
X21013319Y4023360D02*
D03*
X17638060Y4191816D02*
D03*
X20775320Y3482340D02*
D03*
X17438060Y3773624D02*
D03*
X20713319Y3482340D02*
D03*
X17376060Y3773624D02*
D03*
X20975319Y3482340D02*
D03*
X17838060Y3773624D02*
D03*
X20913319Y3482340D02*
D03*
X17776060Y3773624D02*
D03*
X16976060D02*
D03*
X17038060D02*
D03*
X20413319Y4023360D02*
D03*
X20475320D02*
D03*
X20675320D02*
D03*
X20613319D02*
D03*
X20875319D02*
D03*
X20813319D02*
D03*
X9901034Y2219960D02*
D03*
X9839034D02*
D03*
X10039033D02*
D03*
X10101033D02*
D03*
X10439032D02*
D03*
X10501032D02*
D03*
X10444379Y911860D02*
D03*
X10506379D02*
D03*
X11348720Y896620D02*
D03*
X20513319Y3482340D02*
D03*
X20575320D02*
D03*
X17176060Y4191816D02*
D03*
X17238060D02*
D03*
X16900035Y4193540D02*
D03*
X16714084D02*
D03*
X16776060Y4191816D02*
D03*
X16838060D02*
D03*
X17300037Y4193540D02*
D03*
X17114084D02*
D03*
X18664259Y707627D02*
D03*
X18726260D02*
D03*
X19064259D02*
D03*
X19126260D02*
D03*
X16714084Y2921000D02*
D03*
X16776060Y2919276D02*
D03*
X17300037Y2921000D02*
D03*
X17114084D02*
D03*
X17176060Y2919276D02*
D03*
X17238060D02*
D03*
X16838060D02*
D03*
X16900035Y2921000D02*
D03*
X17926260Y707627D02*
D03*
X17864259D02*
D03*
X17526260D02*
D03*
X17464259D02*
D03*
X17238060Y1646736D02*
D03*
X17176060D02*
D03*
X17126260Y707627D02*
D03*
X17064259D02*
D03*
X16906454Y1655400D02*
D03*
X16720505D02*
D03*
X16400035Y1648460D02*
D03*
X16214084D02*
D03*
X17114084D02*
D03*
X17300037D02*
D03*
X17838060Y2501084D02*
D03*
X17776060D02*
D03*
X17438060D02*
D03*
X17376060D02*
D03*
X18326260Y707627D02*
D03*
X16338060Y2919276D02*
D03*
X16276060D02*
D03*
X18264259Y707627D02*
D03*
X19464259D02*
D03*
X19526260D02*
D03*
X17900037Y3771900D02*
D03*
X17714084D02*
D03*
X17314084D02*
D03*
X17500037D02*
D03*
X16914084D02*
D03*
X17100035D02*
D03*
X16414084D02*
D03*
X16600035D02*
D03*
X17514084Y4193540D02*
D03*
X17700035D02*
D03*
X16400035D02*
D03*
X16214084D02*
D03*
X16276060Y4191816D02*
D03*
X16338060D02*
D03*
X17900037Y2499360D02*
D03*
X17714084D02*
D03*
X17314084D02*
D03*
X17500037D02*
D03*
X16914084D02*
D03*
X17100035D02*
D03*
X17038060Y2501084D02*
D03*
X16976060D02*
D03*
X16414084Y2499360D02*
D03*
X16600035D02*
D03*
X16538060Y2501084D02*
D03*
X16476060D02*
D03*
X17638060Y2919276D02*
D03*
X17576060D02*
D03*
X17514084Y2921000D02*
D03*
X17700035D02*
D03*
X16400035D02*
D03*
X16214084D02*
D03*
X17700035Y1648460D02*
D03*
X17514084D02*
D03*
X17576060Y1646736D02*
D03*
X17638060D02*
D03*
X16476060Y1228544D02*
D03*
X16538060D02*
D03*
X16600035Y1226820D02*
D03*
X16414084D02*
D03*
X16976060Y1228544D02*
D03*
X17038060D02*
D03*
X17100035Y1226820D02*
D03*
X16914084D02*
D03*
X17376060Y1228544D02*
D03*
X17438060D02*
D03*
X17500037Y1226820D02*
D03*
X17314084D02*
D03*
X17714084D02*
D03*
X17900037D02*
D03*
X17838060Y1228544D02*
D03*
X17776060D02*
D03*
X18788242Y706120D02*
D03*
X19588242D02*
D03*
X19402278D02*
D03*
X19188242D02*
D03*
X19002278D02*
D03*
X18602278D02*
D03*
X18388242D02*
D03*
X18202278D02*
D03*
X17988242D02*
D03*
X17802278D02*
D03*
X17588242D02*
D03*
X17402278D02*
D03*
X17188242D02*
D03*
X17002278D02*
D03*
X16788242D02*
D03*
X16602278D02*
D03*
X16288242D02*
D03*
X16102278D02*
D03*
X15888242D02*
D03*
X15702278D02*
D03*
X15488242D02*
D03*
X15302280D02*
D03*
X15088242D02*
D03*
X14902280D02*
D03*
X14488242D02*
D03*
X14302278D02*
D03*
X14088242D02*
D03*
X13902280D02*
D03*
X13688242D02*
D03*
X13502278D02*
D03*
X19611340Y1056640D02*
D03*
D26*
X11570435Y993875D02*
G03*
X11496040Y814270I179605J-179605D01*
G01*
X11977170Y1295400D02*
G03*
X11797565Y1221005I0J-254000D01*
G01*
X11570435Y2281655D02*
G03*
X11496040Y2102050I179605J-179605D01*
G01*
X11972090Y2578100D02*
G03*
X11792485Y2503705I0J-254000D01*
G01*
X11570435Y3566895D02*
G03*
X11496040Y3387290I179605J-179605D01*
G01*
X11972090Y3863340D02*
G03*
X11792485Y3788945I0J-254000D01*
G01*
X11496040Y599440D02*
Y652780D01*
Y814270D01*
Y2102050D01*
X11570435Y993875D02*
X11797565Y1221005D01*
X11977170Y1295400D02*
X12603480D01*
X11496040Y2102050D02*
Y3387290D01*
X11570435Y2281655D02*
X11792485Y2503705D01*
X11972090Y2578100D02*
X12603480D01*
X11570435Y3566895D02*
X11792485Y3788945D01*
X11972090Y3863340D02*
X12603480D01*
D27*
X9445445Y3653536D02*
D03*
X9530445D02*
D03*
X9445445Y3759708D02*
D03*
X9530445D02*
D03*
X9532620Y3865880D02*
D03*
X9442620D02*
D03*
X9445445Y3258820D02*
D03*
X9530445D02*
D03*
X9532620Y3509264D02*
D03*
X9442620D02*
D03*
X10441125Y3865880D02*
D03*
X10531125D02*
D03*
X10441125Y3507740D02*
D03*
X10531125D02*
D03*
X12309700Y4145280D02*
D03*
X12219700D02*
D03*
X13795457Y1303020D02*
D03*
X13885458D02*
D03*
X12307517Y1684020D02*
D03*
X12222517D02*
D03*
X12578798Y1836420D02*
D03*
X12668798D02*
D03*
X12221875Y1470660D02*
D03*
X12306875D02*
D03*
X12309700Y1577340D02*
D03*
X12219700D02*
D03*
X12221875Y2753360D02*
D03*
X12306875D02*
D03*
X12307517Y2966720D02*
D03*
X12222517D02*
D03*
X12309700Y2860040D02*
D03*
X12219700D02*
D03*
X12578798Y3119120D02*
D03*
X12668798D02*
D03*
X13795457Y2585720D02*
D03*
X13885458D02*
D03*
X18357060Y2710180D02*
D03*
X12222517Y4251960D02*
D03*
X12307517D02*
D03*
X13885458Y3870960D02*
D03*
X13795457D02*
D03*
X12668798Y4404360D02*
D03*
X12578798D02*
D03*
X12306875Y4038600D02*
D03*
X12221875D02*
D03*
X18357060Y1437640D02*
D03*
Y3982720D02*
D03*
X10443300Y3759200D02*
D03*
X10528300D02*
D03*
X10443300Y3256280D02*
D03*
X10528300D02*
D03*
X10443300Y3652520D02*
D03*
X10528300D02*
D03*
X9530445Y3364992D02*
D03*
X9445445D02*
D03*
X10443300Y3362960D02*
D03*
X10528300D02*
D03*
D28*
X9455048Y2321585D02*
D03*
X10585044D02*
D03*
X9460395Y1184935D02*
D03*
X10590390D02*
D03*
X20029335Y3869715D02*
D03*
X21159331D02*
D03*
D29*
X9235034Y2039595D02*
D03*
X10805033D02*
D03*
X9240380Y902945D02*
D03*
X10810380D02*
D03*
X19809320Y3587725D02*
D03*
X21379320D02*
D03*
D30*
X10495026Y2321560D02*
D03*
X10445039D02*
D03*
X10395026D02*
D03*
X10345039D02*
D03*
X10295026D02*
D03*
X10245039D02*
D03*
X10195027D02*
D03*
X10145039D02*
D03*
X10095027D02*
D03*
X10045040D02*
D03*
X9995027D02*
D03*
X9945040D02*
D03*
X9895027D02*
D03*
X9845040D02*
D03*
X9795027D02*
D03*
X9745040D02*
D03*
X9695028D02*
D03*
X9645040D02*
D03*
X9595028D02*
D03*
X9545041D02*
D03*
X10500373Y1184910D02*
D03*
X10450385D02*
D03*
X10400373D02*
D03*
X10350386D02*
D03*
X10300373D02*
D03*
X10250386D02*
D03*
X10200373D02*
D03*
X10150386D02*
D03*
X10100373D02*
D03*
X10050386D02*
D03*
X10000374D02*
D03*
X9950386D02*
D03*
X9900374D02*
D03*
X9850387D02*
D03*
X9800374D02*
D03*
X9750387D02*
D03*
X9700374D02*
D03*
X9650387D02*
D03*
X9600374D02*
D03*
X9550387D02*
D03*
X21069313Y3869690D02*
D03*
X21019325D02*
D03*
X20969313D02*
D03*
X20919325D02*
D03*
X20869313D02*
D03*
X20819325D02*
D03*
X20769313D02*
D03*
X20719325D02*
D03*
X20669313D02*
D03*
X20619325D02*
D03*
X20569315D02*
D03*
X20519325D02*
D03*
X20469315D02*
D03*
X20419327D02*
D03*
X20369315D02*
D03*
X20319327D02*
D03*
X20269315D02*
D03*
X20219327D02*
D03*
X20169315D02*
D03*
X20119327D02*
D03*
D31*
X12999451Y1422400D02*
D03*
X13599451D02*
D03*
X12999451Y2705100D02*
D03*
X13599451D02*
D03*
X12999451Y3990340D02*
D03*
X13599451D02*
D03*
D32*
X13848088Y1677428D02*
D03*
Y1487428D02*
D03*
X12603480Y1105400D02*
D03*
Y1295400D02*
D03*
X14053819Y1676400D02*
D03*
Y1486400D02*
D03*
X13848088Y2960128D02*
D03*
Y2770128D02*
D03*
X14053819Y2959100D02*
D03*
Y2769100D02*
D03*
X12603480Y2388100D02*
D03*
Y2578100D02*
D03*
Y3863340D02*
D03*
Y3673340D02*
D03*
X14053819Y4054340D02*
D03*
Y4244340D02*
D03*
X13848088Y4055368D02*
D03*
Y4245368D02*
D03*
D33*
X12479020Y1669800D02*
D03*
Y1574800D02*
D03*
Y1479800D02*
D03*
X12758420D02*
D03*
Y1574800D02*
D03*
Y1669800D02*
D03*
X12479020Y2952500D02*
D03*
Y2857500D02*
D03*
Y2762500D02*
D03*
X12758420D02*
D03*
Y2857500D02*
D03*
Y2952500D02*
D03*
Y4237740D02*
D03*
Y4142740D02*
D03*
Y4047740D02*
D03*
X12479020D02*
D03*
Y4142740D02*
D03*
Y4237740D02*
D03*
D34*
X17557060Y3070180D02*
D03*
X17657060D02*
D03*
X18057060D02*
D03*
X17757060D02*
D03*
X17957060D02*
D03*
X17857060D02*
D03*
X16757060D02*
D03*
X16957060D02*
D03*
X16857060D02*
D03*
X17457060D02*
D03*
X17357060D02*
D03*
X17057060D02*
D03*
X17257060D02*
D03*
X17157060D02*
D03*
X18057060Y2350180D02*
D03*
X17757060D02*
D03*
X17957060D02*
D03*
X17857060D02*
D03*
X17057060D02*
D03*
X17157060D02*
D03*
X16757060D02*
D03*
X16957060D02*
D03*
X16857060D02*
D03*
X17557060D02*
D03*
X17657060D02*
D03*
X17257060D02*
D03*
X17457060D02*
D03*
X17357060D02*
D03*
X15757060Y3070180D02*
D03*
X16057060D02*
D03*
X15457060D02*
D03*
X15657060D02*
D03*
X15557060D02*
D03*
X16457060D02*
D03*
X16657060D02*
D03*
X16557060D02*
D03*
X16157060D02*
D03*
X16357060D02*
D03*
X16257060D02*
D03*
X14757060D02*
D03*
X14957060D02*
D03*
X14857060D02*
D03*
X15157060D02*
D03*
X15357060D02*
D03*
X15257060D02*
D03*
X15057060D02*
D03*
X16057060Y2350180D02*
D03*
X15757060D02*
D03*
X15457060D02*
D03*
X15657060D02*
D03*
X15557060D02*
D03*
X16457060D02*
D03*
X16657060D02*
D03*
X16557060D02*
D03*
X16157060D02*
D03*
X16357060D02*
D03*
X16257060D02*
D03*
X14757060D02*
D03*
X14957060D02*
D03*
X14857060D02*
D03*
X15157060D02*
D03*
X15357060D02*
D03*
X15257060D02*
D03*
X15057060D02*
D03*
X18057060Y1797640D02*
D03*
Y1077640D02*
D03*
X17957060Y1797640D02*
D03*
Y1077640D02*
D03*
X17857060Y1797640D02*
D03*
Y1077640D02*
D03*
X17757060Y1797640D02*
D03*
Y1077640D02*
D03*
X17657060Y1797640D02*
D03*
Y1077640D02*
D03*
X17557060Y1797640D02*
D03*
Y1077640D02*
D03*
X17457060Y1797640D02*
D03*
Y1077640D02*
D03*
X17357060Y1797640D02*
D03*
Y1077640D02*
D03*
X17257060Y1797640D02*
D03*
Y1077640D02*
D03*
X17157060Y1797640D02*
D03*
Y1077640D02*
D03*
X17057060Y1797640D02*
D03*
Y1077640D02*
D03*
X16957060Y1797640D02*
D03*
Y1077640D02*
D03*
X16857060Y1797640D02*
D03*
Y1077640D02*
D03*
X16757060Y1797640D02*
D03*
Y1077640D02*
D03*
X16657060Y1797640D02*
D03*
Y1077640D02*
D03*
X16557060Y1797640D02*
D03*
Y1077640D02*
D03*
X16457060Y1797640D02*
D03*
Y1077640D02*
D03*
X16357060Y1797640D02*
D03*
Y1077640D02*
D03*
X16257060Y1797640D02*
D03*
Y1077640D02*
D03*
X16157060Y1797640D02*
D03*
Y1077640D02*
D03*
X16057060Y1797640D02*
D03*
Y1077640D02*
D03*
X15757060Y1797640D02*
D03*
Y1077640D02*
D03*
X15657060Y1797640D02*
D03*
Y1077640D02*
D03*
X15557060Y1797640D02*
D03*
Y1077640D02*
D03*
X15457060Y1797640D02*
D03*
Y1077640D02*
D03*
X15357060Y1797640D02*
D03*
Y1077640D02*
D03*
X15257060Y1797640D02*
D03*
Y1077640D02*
D03*
X15157060Y1797640D02*
D03*
Y1077640D02*
D03*
X15057060Y1797640D02*
D03*
Y1077640D02*
D03*
X14957060Y1797640D02*
D03*
Y1077640D02*
D03*
X14857060Y1797640D02*
D03*
Y1077640D02*
D03*
X14757060Y1797640D02*
D03*
Y1077640D02*
D03*
D35*
X14457060Y2710180D02*
D03*
Y1437640D02*
D03*
D36*
X17557060Y4342720D02*
D03*
X17657060D02*
D03*
X18057060D02*
D03*
X17757060D02*
D03*
X17957060D02*
D03*
X17857060D02*
D03*
X16757060D02*
D03*
X16957060D02*
D03*
X16857060D02*
D03*
X17457060D02*
D03*
X17357060D02*
D03*
X17057060D02*
D03*
X17257060D02*
D03*
X17157060D02*
D03*
X18057060Y3622720D02*
D03*
X17757060D02*
D03*
X17957060D02*
D03*
X17857060D02*
D03*
X17057060D02*
D03*
X17157060D02*
D03*
X16757060D02*
D03*
X16957060D02*
D03*
X16857060D02*
D03*
X17557060D02*
D03*
X17657060D02*
D03*
X17257060D02*
D03*
X17457060D02*
D03*
X17357060D02*
D03*
X15757060Y4342720D02*
D03*
X16057060D02*
D03*
X15457060D02*
D03*
X15657060D02*
D03*
X15557060D02*
D03*
X16457060D02*
D03*
X16657060D02*
D03*
X16557060D02*
D03*
X16157060D02*
D03*
X16357060D02*
D03*
X16257060D02*
D03*
X14757060D02*
D03*
X14957060D02*
D03*
X14857060D02*
D03*
X15157060D02*
D03*
X15357060D02*
D03*
X15257060D02*
D03*
X15057060D02*
D03*
X16057060Y3622720D02*
D03*
X15757060D02*
D03*
X15457060D02*
D03*
X15657060D02*
D03*
X15557060D02*
D03*
X16457060D02*
D03*
X16657060D02*
D03*
X16557060D02*
D03*
X16157060D02*
D03*
X16357060D02*
D03*
X16257060D02*
D03*
X14757060D02*
D03*
X14957060D02*
D03*
X14857060D02*
D03*
X15157060D02*
D03*
X15357060D02*
D03*
X15257060D02*
D03*
X15057060D02*
D03*
D37*
X14457060Y3982720D02*
D03*
D38*
X9742170Y3358096D02*
D03*
Y3458121D02*
D03*
Y3408108D02*
D03*
Y3558146D02*
D03*
Y3508134D02*
D03*
X10232390D02*
D03*
Y3558146D02*
D03*
Y3408108D02*
D03*
Y3358096D02*
D03*
Y3458121D02*
D03*
X9742170Y3658171D02*
D03*
Y3608159D02*
D03*
Y3708184D02*
D03*
X10232390Y3658171D02*
D03*
Y3608159D02*
D03*
D39*
X9812236Y3288030D02*
D03*
X9962274D02*
D03*
X10012286D02*
D03*
X9862248D02*
D03*
X9912261D02*
D03*
X10162324D02*
D03*
X10062299D02*
D03*
X10112311D02*
D03*
X10062299Y3778250D02*
D03*
X10112311D02*
D03*
X9812236D02*
D03*
X9862248D02*
D03*
X9962274D02*
D03*
X10012286D02*
D03*
X9912261D02*
D03*
X10162324D02*
D03*
D40*
X9987280Y3533140D02*
D03*
D41*
X10232390Y3708197D02*
D03*
D42*
X10426285Y3522580D02*
X10441125Y3507740D01*
X10426285Y3508134D02*
X10441125Y3507740D01*
X10232390Y3508134D02*
X10426285D01*
X10398760Y3568700D02*
X10426285Y3522580D01*
X9664700Y3241040D02*
X9754713Y3059956D01*
X9756192Y3056981D02*
X9761915Y3051258D01*
X9930118Y2994757D02*
X9938211D01*
X9942484Y2996881D02*
X10111740Y3081020D01*
X9754713Y3059956D02*
X9756192Y3056981D01*
X9761915Y3051258D02*
X9930118Y2994757D01*
X9938211D02*
X9942484Y2996881D01*
X12146280Y4053840D02*
X12207035Y4053440D01*
X12221875Y4038600D01*
X9547460Y3880720D02*
X9598660Y3906520D01*
X9532620Y3865880D02*
X9547460Y3880720D01*
X9955372Y3878442D02*
X9962274Y3807000D01*
X9946240Y3972960D02*
X9955372Y3878442D01*
X9931400Y3987800D02*
X9946240Y3972960D01*
X10058119Y3880961D02*
X10062299Y3807000D01*
X10052920Y3972960D02*
X10058119Y3880961D01*
X10038080Y3987800D02*
X10052920Y3972960D01*
X10161108Y3881096D02*
X10162324Y3807000D01*
X10159600Y3972960D02*
X10161108Y3881096D01*
X10144760Y3987800D02*
X10159600Y3972960D01*
X10322560Y3886200D02*
X10426285Y3880720D01*
X10441125Y3865880D01*
X9532620Y3509264D02*
X9583420Y3560064D01*
X10111740Y3081020D02*
X10112311Y3095860D01*
X10647280Y3859040D02*
X10688320Y3898900D01*
X10632440Y3844200D02*
X10647280Y3859040D01*
X10545965Y3880720D02*
X10568940Y3937000D01*
X10531125Y3865880D02*
X10545965Y3880720D01*
X9916560Y4092640D02*
X9931400Y4077800D01*
X9890760Y4122420D02*
X9916560Y4092640D01*
X10038080Y4077800D02*
X10052920Y4092640D01*
X10086340Y4130040D01*
X10159600Y4086860D02*
X10215880D01*
X10144760Y4077800D02*
X10159600Y4086860D01*
X10283307Y3674127D02*
X10295210Y3686030D01*
X10426285Y3851040D01*
X10441125Y3865880D01*
X10232390Y3658171D02*
X10261140D01*
X10283307Y3674127D01*
X10162324Y3778250D02*
Y3807000D01*
X10062299Y3778250D02*
Y3807000D01*
X9962274Y3778250D02*
Y3807000D01*
X9408160Y3931920D02*
X9427780Y3880720D01*
X9442620Y3865880D01*
X9547460Y3851040D02*
X9679350Y3694072D01*
X9713420Y3658171D02*
X9742170D01*
X9532620Y3865880D02*
X9547460Y3851040D01*
X9679350Y3694072D02*
X9713420Y3658171D01*
X9271000Y3817620D02*
X9324740Y3831900D01*
X9339580Y3846740D01*
X9288780Y3492500D02*
X9324740Y3465340D01*
X9339580Y3450500D01*
X9324740Y3555220D02*
X9339580Y3570060D01*
X9278620Y3553460D02*
X9324740Y3555220D01*
X9547460Y3508134D02*
X9742170D01*
X9532620Y3509264D02*
X9547460Y3508134D01*
X9456420Y3524104D02*
Y3566160D01*
X9442620Y3509264D02*
X9456420Y3524104D01*
X10068560Y2933700D02*
X10096900Y2976180D01*
X10111740Y2991020D01*
X10112311Y3095860D02*
Y3288030D01*
X10584065Y3146700D02*
X10617600Y3156440D01*
X10576560Y3144520D02*
X10584065Y3146700D01*
X10617600Y3156440D02*
X10632440Y3171280D01*
X10531125Y3507740D02*
X10579100D01*
X10632440Y3447960D02*
X10676800D01*
X10632440Y3567520D02*
X10679520D01*
X9811346Y3708184D02*
X9831450Y3688080D01*
X9742170Y3708184D02*
X9811346D01*
X9831450Y3688080D02*
X9832340D01*
X9962274Y3288030D02*
Y3508134D01*
X9987280Y3533140D01*
X9811346Y3358096D02*
X9831450Y3378200D01*
X9742170Y3358096D02*
X9811346D01*
X9831450Y3378200D02*
X9832340D01*
X9812236Y3288030D02*
Y3357206D01*
X10143110Y3378200D02*
X10163214Y3358096D01*
X10232390D01*
X10142220Y3378200D02*
X10143110D01*
X10162324Y3288030D02*
Y3357206D01*
X10112311Y3639249D02*
Y3778250D01*
X10143097Y3688080D02*
X10163214Y3708197D01*
X10232390D01*
X10142220Y3688080D02*
X10143097D01*
D43*
X12473940Y3677920D02*
X12559030D01*
X12603480Y3673340D01*
X12595860Y3581400D02*
Y3647940D01*
X12603480Y3673340D01*
X12647930Y3647940D02*
X12730480Y3634740D01*
X12603480Y3673340D02*
X12647930Y3647940D01*
X12763500Y3808900D02*
X12769450Y3802950D01*
X12854619Y3772175D01*
X12959081Y3746500D01*
X12491720Y2319020D02*
X12559030Y2362700D01*
X12603480Y2388100D01*
X12623800Y2298700D02*
Y2362700D01*
X12603480Y2388100D02*
X12623800Y2362700D01*
X12603480Y2388100D02*
X12647930Y2362700D01*
X12776200Y2275840D01*
X12786360Y2405380D02*
X12920979Y2382520D01*
X12769450Y2517710D02*
X12786360Y2405380D01*
X12763500Y2523660D02*
X12769450Y2517710D01*
X12542520Y1018540D02*
X12559030Y1080000D01*
X12613640Y1016000D02*
Y1080000D01*
X12603480Y1105400D02*
X12613640Y1080000D01*
X12484100Y1054100D02*
X12559030Y1080000D01*
X12603480Y1105400D01*
X12769450Y1235010D02*
X12878683Y1204140D01*
X12763500Y1240960D02*
X12769450Y1235010D01*
X12944785Y1189083D02*
X12946381Y1188720D01*
X12883957Y1202939D02*
X12944785Y1189083D01*
X12880280Y1203777D02*
X12883957Y1202939D01*
X12879350Y1203988D02*
X12880280Y1203777D01*
X12878683Y1204140D02*
X12879350Y1203988D01*
X12133580Y1488440D02*
X12215925Y1476610D01*
X12221875Y1470660D01*
X12811397Y3006525D02*
X12811760Y3007360D01*
X12789370Y2955950D02*
X12811397Y3006525D01*
X12758420Y2952500D02*
X12789370Y2955950D01*
X12830470Y3049518D02*
X12830833Y3050337D01*
X12812170Y3008284D02*
X12830470Y3049518D01*
X12811760Y3007360D02*
X12812170Y3008284D01*
X12663038Y1725619D02*
X12663984Y1725255D01*
X12582408Y1756618D02*
X12663038Y1725619D01*
X12581573Y1756939D02*
X12582408Y1756618D01*
X12663984Y1725255D02*
X12741054Y1673250D01*
X12758420Y1669800D01*
X12215925Y2747410D02*
X12221875Y2753360D01*
X12131040Y2700020D02*
X12215925Y2747410D01*
D44*
X12668798Y4404360D02*
X12928600D01*
X12479020Y4351020D02*
X12528760Y4400760D01*
X12992101Y3997691D02*
Y4340860D01*
X12928600Y4404360D02*
X12992101Y4340860D01*
X12479020Y4237740D02*
Y4351020D01*
X12992101Y3997691D02*
X12999451Y3990340D01*
X12575198Y4400760D02*
X12578798Y4404360D01*
X12528760Y4400760D02*
X12575198D01*
X12730920Y4142740D02*
X12758420D01*
X12668798Y3119120D02*
X12928600D01*
X12479020Y3065780D02*
X12528760Y3115520D01*
X12992101Y2712451D02*
Y3055620D01*
X12928600Y3119120D02*
X12992101Y3055620D01*
X12479020Y2952500D02*
Y3065780D01*
X12992101Y2712451D02*
X12999451Y2705100D01*
X12575198Y3115520D02*
X12578798Y3119120D01*
X12528760Y3115520D02*
X12575198D01*
X12730920Y2857500D02*
X12758420D01*
X12730920Y1574800D02*
X12758420D01*
X12528760Y1832820D02*
X12575198D01*
X12578798Y1836420D01*
X12992101Y1429751D02*
X12999451Y1422400D01*
X12479020Y1669800D02*
Y1783080D01*
X12928600Y1836420D02*
X12992101Y1772920D01*
Y1429751D02*
Y1772920D01*
X12479020Y1783080D02*
X12528760Y1832820D01*
X12668798Y1836420D02*
X12928600D01*
%TF.MD5,b829de3291c3f055b6c611f78d5ac5cb*%
M02*
