%TF.GenerationSoftware,Altium Limited,Altium Designer,24.0.1 (36)*%
G04 Layer_Color=128*
%FSLAX45Y45*%
%MOMM*%
%TF.SameCoordinates,79EBFB85-6253-4421-BC9D-CD6C48D828FA*%
%TF.FilePolarity,Positive*%
%TF.FileFunction,Paste,Bot*%
%TF.Part,Single*%
G01*
G75*
%TA.AperFunction,SMDPad,CuDef*%
%ADD17R,0.50000X0.50000*%
%ADD27R,0.50000X0.50000*%
%ADD32R,1.27000X0.88900*%
%ADD33R,1.00000X0.45000*%
%ADD34R,0.70000X2.00000*%
%ADD35R,3.00000X5.00000*%
%TA.AperFunction,ConnectorPad*%
%ADD36R,0.70000X2.00000*%
%ADD37R,3.00000X5.00000*%
%TA.AperFunction,SMDPad,CuDef*%
%ADD38O,0.85000X0.27500*%
%ADD39O,0.27500X0.85000*%
%ADD40R,1.00000X1.00000*%
%ADD41R,0.85000X0.27500*%
G36*
X18507060Y1687640D02*
X18207060D01*
Y1500140D01*
X18237061D01*
X18243559Y1499840D01*
X18250060Y1498740D01*
X18256360Y1497040D01*
X18262460Y1494740D01*
X18268260Y1491740D01*
X18273759Y1488240D01*
X18278860Y1484040D01*
X18283459Y1479440D01*
X18287660Y1474340D01*
X18291161Y1468840D01*
X18294160Y1463040D01*
X18296460Y1456940D01*
X18298160Y1450640D01*
X18299260Y1444140D01*
X18299561Y1437640D01*
X18299260Y1431140D01*
X18298160Y1424640D01*
X18296460Y1418340D01*
X18294160Y1412240D01*
X18291161Y1406440D01*
X18287660Y1400940D01*
X18283459Y1395840D01*
X18278860Y1391240D01*
X18273759Y1387040D01*
X18268260Y1383540D01*
X18262460Y1380540D01*
X18256360Y1378240D01*
X18250060Y1376540D01*
X18243559Y1375440D01*
X18237061Y1375140D01*
X18207060D01*
Y1187640D01*
X18507060D01*
Y1687640D01*
D02*
G37*
G36*
Y2960180D02*
X18207060D01*
Y2772680D01*
X18237061D01*
X18243559Y2772380D01*
X18250060Y2771280D01*
X18256360Y2769580D01*
X18262460Y2767280D01*
X18268260Y2764280D01*
X18273759Y2760780D01*
X18278860Y2756580D01*
X18283459Y2751980D01*
X18287660Y2746880D01*
X18291161Y2741380D01*
X18294160Y2735580D01*
X18296460Y2729480D01*
X18298160Y2723180D01*
X18299260Y2716680D01*
X18299561Y2710180D01*
X18299260Y2703680D01*
X18298160Y2697180D01*
X18296460Y2690880D01*
X18294160Y2684780D01*
X18291161Y2678980D01*
X18287660Y2673480D01*
X18283459Y2668380D01*
X18278860Y2663780D01*
X18273759Y2659580D01*
X18268260Y2656080D01*
X18262460Y2653080D01*
X18256360Y2650780D01*
X18250060Y2649080D01*
X18243559Y2647980D01*
X18237061Y2647680D01*
X18207060D01*
Y2460180D01*
X18507060D01*
Y2960180D01*
D02*
G37*
G36*
Y4232720D02*
X18207060D01*
Y4045220D01*
X18237061D01*
X18243559Y4044920D01*
X18250060Y4043820D01*
X18256360Y4042120D01*
X18262460Y4039820D01*
X18268260Y4036820D01*
X18273759Y4033320D01*
X18278860Y4029120D01*
X18283459Y4024520D01*
X18287660Y4019420D01*
X18291161Y4013920D01*
X18294160Y4008120D01*
X18296460Y4002020D01*
X18298160Y3995720D01*
X18299260Y3989220D01*
X18299561Y3982720D01*
X18299260Y3976220D01*
X18298160Y3969720D01*
X18296460Y3963420D01*
X18294160Y3957320D01*
X18291161Y3951520D01*
X18287660Y3946020D01*
X18283459Y3940920D01*
X18278860Y3936320D01*
X18273759Y3932120D01*
X18268260Y3928620D01*
X18262460Y3925620D01*
X18256360Y3923320D01*
X18250060Y3921620D01*
X18243559Y3920520D01*
X18237061Y3920220D01*
X18207060D01*
Y3732720D01*
X18507060D01*
Y4232720D01*
D02*
G37*
D17*
X10038080Y3987800D02*
D03*
Y4077800D02*
D03*
X10111740Y3081020D02*
D03*
Y2991020D02*
D03*
X10144760Y3987800D02*
D03*
Y4077800D02*
D03*
X9931400Y3987800D02*
D03*
Y4077800D02*
D03*
X12763500Y1240960D02*
D03*
Y1330960D02*
D03*
Y2523660D02*
D03*
Y2613660D02*
D03*
X11346180Y742360D02*
D03*
Y827360D02*
D03*
X12763500Y3898900D02*
D03*
Y3808900D02*
D03*
X10632440Y3171280D02*
D03*
Y3256280D02*
D03*
X9339580Y3450500D02*
D03*
Y3365500D02*
D03*
X10632440Y3567520D02*
D03*
Y3652520D02*
D03*
X9339580Y3846740D02*
D03*
Y3761740D02*
D03*
Y3570060D02*
D03*
Y3655060D02*
D03*
X10632440Y3447960D02*
D03*
Y3362960D02*
D03*
Y3844200D02*
D03*
Y3759200D02*
D03*
X9339580Y3173820D02*
D03*
Y3258820D02*
D03*
D27*
X9445445Y3653536D02*
D03*
X9530445D02*
D03*
X9445445Y3759708D02*
D03*
X9530445D02*
D03*
X9532620Y3865880D02*
D03*
X9442620D02*
D03*
X9445445Y3258820D02*
D03*
X9530445D02*
D03*
X9532620Y3509264D02*
D03*
X9442620D02*
D03*
X10441125Y3865880D02*
D03*
X10531125D02*
D03*
X10441125Y3507740D02*
D03*
X10531125D02*
D03*
X12309700Y4145280D02*
D03*
X12219700D02*
D03*
X13795457Y1303020D02*
D03*
X13885458D02*
D03*
X12307517Y1684020D02*
D03*
X12222517D02*
D03*
X12578798Y1836420D02*
D03*
X12668798D02*
D03*
X12221875Y1470660D02*
D03*
X12306875D02*
D03*
X12309700Y1577340D02*
D03*
X12219700D02*
D03*
X12221875Y2753360D02*
D03*
X12306875D02*
D03*
X12307517Y2966720D02*
D03*
X12222517D02*
D03*
X12309700Y2860040D02*
D03*
X12219700D02*
D03*
X12578798Y3119120D02*
D03*
X12668798D02*
D03*
X13795457Y2585720D02*
D03*
X13885458D02*
D03*
X12222517Y4251960D02*
D03*
X12307517D02*
D03*
X13885458Y3870960D02*
D03*
X13795457D02*
D03*
X12668798Y4404360D02*
D03*
X12578798D02*
D03*
X12306875Y4038600D02*
D03*
X12221875D02*
D03*
X10443300Y3759200D02*
D03*
X10528300D02*
D03*
X10443300Y3256280D02*
D03*
X10528300D02*
D03*
X10443300Y3652520D02*
D03*
X10528300D02*
D03*
X9530445Y3364992D02*
D03*
X9445445D02*
D03*
X10443300Y3362960D02*
D03*
X10528300D02*
D03*
D32*
X13848088Y1677428D02*
D03*
Y1487428D02*
D03*
X12603480Y1105400D02*
D03*
Y1295400D02*
D03*
X14053819Y1676400D02*
D03*
Y1486400D02*
D03*
X13848088Y2960128D02*
D03*
Y2770128D02*
D03*
X14053819Y2959100D02*
D03*
Y2769100D02*
D03*
X12603480Y2388100D02*
D03*
Y2578100D02*
D03*
Y3863340D02*
D03*
Y3673340D02*
D03*
X14053819Y4054340D02*
D03*
Y4244340D02*
D03*
X13848088Y4055368D02*
D03*
Y4245368D02*
D03*
D33*
X12479020Y1669800D02*
D03*
Y1574800D02*
D03*
Y1479800D02*
D03*
X12758420D02*
D03*
Y1574800D02*
D03*
Y1669800D02*
D03*
X12479020Y2952500D02*
D03*
Y2857500D02*
D03*
Y2762500D02*
D03*
X12758420D02*
D03*
Y2857500D02*
D03*
Y2952500D02*
D03*
Y4237740D02*
D03*
Y4142740D02*
D03*
Y4047740D02*
D03*
X12479020D02*
D03*
Y4142740D02*
D03*
Y4237740D02*
D03*
D34*
X17557060Y3070180D02*
D03*
X17657060D02*
D03*
X18057060D02*
D03*
X17757060D02*
D03*
X17957060D02*
D03*
X17857060D02*
D03*
X16757060D02*
D03*
X16957060D02*
D03*
X16857060D02*
D03*
X17457060D02*
D03*
X17357060D02*
D03*
X17057060D02*
D03*
X17257060D02*
D03*
X17157060D02*
D03*
X18057060Y2350180D02*
D03*
X17757060D02*
D03*
X17957060D02*
D03*
X17857060D02*
D03*
X17057060D02*
D03*
X17157060D02*
D03*
X16757060D02*
D03*
X16957060D02*
D03*
X16857060D02*
D03*
X17557060D02*
D03*
X17657060D02*
D03*
X17257060D02*
D03*
X17457060D02*
D03*
X17357060D02*
D03*
X15757060Y3070180D02*
D03*
X16057060D02*
D03*
X15457060D02*
D03*
X15657060D02*
D03*
X15557060D02*
D03*
X16457060D02*
D03*
X16657060D02*
D03*
X16557060D02*
D03*
X16157060D02*
D03*
X16357060D02*
D03*
X16257060D02*
D03*
X14757060D02*
D03*
X14957060D02*
D03*
X14857060D02*
D03*
X15157060D02*
D03*
X15357060D02*
D03*
X15257060D02*
D03*
X15057060D02*
D03*
X16057060Y2350180D02*
D03*
X15757060D02*
D03*
X15457060D02*
D03*
X15657060D02*
D03*
X15557060D02*
D03*
X16457060D02*
D03*
X16657060D02*
D03*
X16557060D02*
D03*
X16157060D02*
D03*
X16357060D02*
D03*
X16257060D02*
D03*
X14757060D02*
D03*
X14957060D02*
D03*
X14857060D02*
D03*
X15157060D02*
D03*
X15357060D02*
D03*
X15257060D02*
D03*
X15057060D02*
D03*
X18057060Y1797640D02*
D03*
Y1077640D02*
D03*
X17957060Y1797640D02*
D03*
Y1077640D02*
D03*
X17857060Y1797640D02*
D03*
Y1077640D02*
D03*
X17757060Y1797640D02*
D03*
Y1077640D02*
D03*
X17657060Y1797640D02*
D03*
Y1077640D02*
D03*
X17557060Y1797640D02*
D03*
Y1077640D02*
D03*
X17457060Y1797640D02*
D03*
Y1077640D02*
D03*
X17357060Y1797640D02*
D03*
Y1077640D02*
D03*
X17257060Y1797640D02*
D03*
Y1077640D02*
D03*
X17157060Y1797640D02*
D03*
Y1077640D02*
D03*
X17057060Y1797640D02*
D03*
Y1077640D02*
D03*
X16957060Y1797640D02*
D03*
Y1077640D02*
D03*
X16857060Y1797640D02*
D03*
Y1077640D02*
D03*
X16757060Y1797640D02*
D03*
Y1077640D02*
D03*
X16657060Y1797640D02*
D03*
Y1077640D02*
D03*
X16557060Y1797640D02*
D03*
Y1077640D02*
D03*
X16457060Y1797640D02*
D03*
Y1077640D02*
D03*
X16357060Y1797640D02*
D03*
Y1077640D02*
D03*
X16257060Y1797640D02*
D03*
Y1077640D02*
D03*
X16157060Y1797640D02*
D03*
Y1077640D02*
D03*
X16057060Y1797640D02*
D03*
Y1077640D02*
D03*
X15757060Y1797640D02*
D03*
Y1077640D02*
D03*
X15657060Y1797640D02*
D03*
Y1077640D02*
D03*
X15557060Y1797640D02*
D03*
Y1077640D02*
D03*
X15457060Y1797640D02*
D03*
Y1077640D02*
D03*
X15357060Y1797640D02*
D03*
Y1077640D02*
D03*
X15257060Y1797640D02*
D03*
Y1077640D02*
D03*
X15157060Y1797640D02*
D03*
Y1077640D02*
D03*
X15057060Y1797640D02*
D03*
Y1077640D02*
D03*
X14957060Y1797640D02*
D03*
Y1077640D02*
D03*
X14857060Y1797640D02*
D03*
Y1077640D02*
D03*
X14757060Y1797640D02*
D03*
Y1077640D02*
D03*
D35*
X14457060Y2710180D02*
D03*
Y1437640D02*
D03*
D36*
X17557060Y4342720D02*
D03*
X17657060D02*
D03*
X18057060D02*
D03*
X17757060D02*
D03*
X17957060D02*
D03*
X17857060D02*
D03*
X16757060D02*
D03*
X16957060D02*
D03*
X16857060D02*
D03*
X17457060D02*
D03*
X17357060D02*
D03*
X17057060D02*
D03*
X17257060D02*
D03*
X17157060D02*
D03*
X18057060Y3622720D02*
D03*
X17757060D02*
D03*
X17957060D02*
D03*
X17857060D02*
D03*
X17057060D02*
D03*
X17157060D02*
D03*
X16757060D02*
D03*
X16957060D02*
D03*
X16857060D02*
D03*
X17557060D02*
D03*
X17657060D02*
D03*
X17257060D02*
D03*
X17457060D02*
D03*
X17357060D02*
D03*
X15757060Y4342720D02*
D03*
X16057060D02*
D03*
X15457060D02*
D03*
X15657060D02*
D03*
X15557060D02*
D03*
X16457060D02*
D03*
X16657060D02*
D03*
X16557060D02*
D03*
X16157060D02*
D03*
X16357060D02*
D03*
X16257060D02*
D03*
X14757060D02*
D03*
X14957060D02*
D03*
X14857060D02*
D03*
X15157060D02*
D03*
X15357060D02*
D03*
X15257060D02*
D03*
X15057060D02*
D03*
X16057060Y3622720D02*
D03*
X15757060D02*
D03*
X15457060D02*
D03*
X15657060D02*
D03*
X15557060D02*
D03*
X16457060D02*
D03*
X16657060D02*
D03*
X16557060D02*
D03*
X16157060D02*
D03*
X16357060D02*
D03*
X16257060D02*
D03*
X14757060D02*
D03*
X14957060D02*
D03*
X14857060D02*
D03*
X15157060D02*
D03*
X15357060D02*
D03*
X15257060D02*
D03*
X15057060D02*
D03*
D37*
X14457060Y3982720D02*
D03*
D38*
X9742170Y3358096D02*
D03*
Y3458121D02*
D03*
Y3408108D02*
D03*
Y3558146D02*
D03*
Y3508134D02*
D03*
X10232390D02*
D03*
Y3558146D02*
D03*
Y3408108D02*
D03*
Y3358096D02*
D03*
Y3458121D02*
D03*
X9742170Y3658171D02*
D03*
Y3608159D02*
D03*
Y3708184D02*
D03*
X10232390Y3658171D02*
D03*
Y3608159D02*
D03*
D39*
X9812236Y3288030D02*
D03*
X9962274D02*
D03*
X10012286D02*
D03*
X9862248D02*
D03*
X9912261D02*
D03*
X10162324D02*
D03*
X10062299D02*
D03*
X10112311D02*
D03*
X10062299Y3778250D02*
D03*
X10112311D02*
D03*
X9812236D02*
D03*
X9862248D02*
D03*
X9962274D02*
D03*
X10012286D02*
D03*
X9912261D02*
D03*
X10162324D02*
D03*
D40*
X9987280Y3533140D02*
D03*
D41*
X10232390Y3708197D02*
D03*
%TF.MD5,5387723910e8435636a8f8c64da49350*%
M02*
