%TF.GenerationSoftware,Altium Limited,Altium Designer,24.0.1 (36)*%
G04 Layer_Color=16711935*
%FSLAX45Y45*%
%MOMM*%
%TF.SameCoordinates,79EBFB85-6253-4421-BC9D-CD6C48D828FA*%
%TF.FilePolarity,Positive*%
%TF.FileFunction,Other,Mechanical_1*%
%TF.Part,Single*%
G01*
G75*
%TA.AperFunction,NonConductor*%
%ADD75C,0.01270*%
D75*
X21725475Y4380815D02*
G03*
X21598476Y4507815I-127000J0D01*
G01*
X6756175D02*
G03*
X6629175Y4380815I-0J-127000D01*
G01*
X12590300Y745635D02*
G03*
X12400300Y745635I-95000J0D01*
G01*
X19985306Y840711D02*
G03*
X19710300Y840635I-137503J1D01*
G01*
X11280318Y1106022D02*
G03*
X10920203Y1104230I-180065J620D01*
G01*
X20709476Y967660D02*
G03*
X20836475Y840660I127000J-0D01*
G01*
Y1323260D02*
G03*
X20709476Y1196260I-0J-127000D01*
G01*
X21598476Y1323260D02*
G03*
X21725475Y1450260I0J127000D01*
G01*
X21598476Y1323260D02*
G03*
X21725475Y1450260I0J127000D01*
G01*
X20836475Y1323260D02*
G03*
X20709476Y1196260I-0J-127000D01*
G01*
Y967660D02*
G03*
X20836475Y840660I127000J-0D01*
G01*
X11280318Y1106022D02*
G03*
X10920203Y1104230I-180065J620D01*
G01*
X19985306Y840711D02*
G03*
X19710300Y840635I-137503J1D01*
G01*
X12590300Y745635D02*
G03*
X12400300Y745635I-95000J0D01*
G01*
X6628320Y598755D02*
G03*
X6755320Y471755I127000J-0D01*
G01*
X21598476Y1323260D02*
G03*
X21725475Y1450260I0J127000D01*
G01*
X6755320Y471755D02*
X10743123Y471755D01*
X12590300Y50635D02*
X12640300Y635D01*
X12590300Y50635D02*
Y745635D01*
X12640300Y635D02*
X19660300D01*
X19710300Y50635D01*
X12400300D02*
Y745635D01*
X19710300Y50635D02*
Y840635D01*
X12350300Y635D02*
X12400300Y50635D01*
X11330300Y635D02*
X12350300D01*
X19985306Y840711D02*
X19985574Y396160D01*
X11280300Y50635D02*
X11330300Y635D01*
X19985574Y396160D02*
X20036375Y345360D01*
X11280300Y50635D02*
Y840635D01*
X20036375Y345360D02*
X21115875D01*
X11280300Y840635D02*
X11280318Y1106022D01*
X21115875Y345360D02*
X21255576Y599360D01*
Y840660D01*
X20836475D02*
X21255576D01*
X20709476Y967660D02*
Y1196260D01*
X20836475Y1323260D02*
X21598476D01*
X10743123Y471755D02*
X10920202Y648835D01*
Y1104230D01*
Y648835D02*
Y1104230D01*
X10743123Y471755D02*
X10920202Y648835D01*
X20836475Y1323260D02*
X21598476D01*
X20709476Y967660D02*
Y1196260D01*
X20836475Y840660D02*
X21255576D01*
Y599360D02*
Y840660D01*
X21115875Y345360D02*
X21255576Y599360D01*
X11280300Y840635D02*
X11280318Y1106022D01*
X20036375Y345360D02*
X21115875D01*
X11280300Y50635D02*
Y840635D01*
X19985574Y396160D02*
X20036375Y345360D01*
X11280300Y50635D02*
X11330300Y635D01*
X19985306Y840711D02*
X19985574Y396160D01*
X11330300Y635D02*
X12350300D01*
X12400300Y50635D01*
X19710300D02*
Y840635D01*
X12400300Y50635D02*
Y745635D01*
X19660300Y635D02*
X19710300Y50635D01*
X12640300Y635D02*
X19660300D01*
X12590300Y50635D02*
Y745635D01*
Y50635D02*
X12640300Y635D01*
X6628320Y598755D02*
X6629175Y4380815D01*
X6756175Y4507814D02*
X21598476Y4507815D01*
X21725475Y1450260D02*
Y4380815D01*
%TF.MD5,21ae980b02eaa03ee266f2f7bf281e77*%
M02*
