%TF.GenerationSoftware,Altium Limited,Altium Designer,24.0.1 (36)*%
G04 Layer_Color=0*
%FSLAX45Y45*%
%MOMM*%
%TF.SameCoordinates,79EBFB85-6253-4421-BC9D-CD6C48D828FA*%
%TF.FilePolarity,Positive*%
%TF.FileFunction,Profile,NP*%
%TF.Part,Single*%
G01*
G75*
%TA.AperFunction,Profile*%
%ADD76C,0.02540*%
D76*
X11280300Y50635D02*
X11330300Y635D01*
X12350300D01*
X12400300Y50635D01*
Y745635D01*
D02*
G02*
X12590300Y745635I95000J0D01*
G01*
Y50635D01*
X12640300Y635D01*
X19660300D01*
X19710300Y50635D01*
Y840635D01*
D02*
G02*
X19985306Y840711I137503J77D01*
G01*
X19985574Y396160D01*
X20036375Y345360D01*
X21115875D01*
X21255576Y599360D01*
Y840660D01*
X20836475D01*
D02*
G02*
X20709476Y967660I-0J126999D01*
G01*
X20709476Y1196260D01*
D02*
G02*
X20836475Y1323260I127000J0D01*
G01*
X21598476D01*
D02*
G03*
X21725475Y1450260I0J127000D01*
G01*
Y4380815D01*
D02*
G03*
X21598476Y4507815I-127000J0D01*
G01*
X6756175Y4507814D01*
D02*
G03*
X6629175Y4380815I-1J-126999D01*
G01*
X6628320Y598755D01*
D02*
G03*
X6755320Y471755I126999J-1D01*
G01*
X10743123D01*
X10920202Y648835D01*
Y1104230D01*
D02*
G02*
X11280318Y1106022I180050J2411D01*
G01*
X11280300Y840635D01*
Y50635D01*
%TF.MD5,7914fe927369075cfbe739141abc855e*%
M02*
