M48
;Layer_Color=9474304
;FILE_FORMAT=4:4
METRIC,LZ
;TYPE=PLATED
T01F00S00C0.3000
;TYPE=NON_PLATED
T03F00S00C1.0000
T04F00S00C1.2500
%
T01
X0071755Y00308102
X0072009Y00323088
X00718566Y00338328
X0071882Y00352552
X00719582Y00369824
X00718058Y0038227
X00716026Y00394716
X00740156Y00393954
Y00387754
Y00378954
Y00372754
X00764794Y00368046
X00767334Y00358902
X00765302Y00350266
X00763816Y00327838
X00761746Y0031115
X00740156Y00312754
Y00318954
Y00327754
Y00333954
X00781558Y0038989
X0085344Y00377176
Y00370976
X00861314Y00367176
Y00360976
Y00347176
Y00340976
X0085344Y00337176
Y00330976
X00865156Y00292608
X00891286Y00291338
X00905256Y00303022
X00934466Y00311404
X00928878Y0034925
X00927862Y00355346
X00945642Y00356616
X00958342Y00356006
X00959866Y00390652
X00940816Y00393192
X009271Y00381762
X00983234Y00368808
X00993728Y00358314
Y00348314
X01003728
Y00358314
X00998728Y00353314
X01014222Y00368808
X01016111Y0038811
X01005812Y00388096
X00995537Y00387844
X01032256Y0038862
X01056894Y003937
X01068832Y0038989
X01067952Y00356752
X0106768Y00344796
X0105791Y00350774
X01039876Y0035687
X01014222Y0033782
X00983234
X00983284Y00314781
X00978154Y00318262
X0096647Y00324104
X01006856Y0029337
X01057656Y00314452
X01062666Y00243239
X01064006Y00223266
X01050103Y00221996
X01043903
X01040103Y002159
X01033903
X01027003Y00216627
X01020103Y002159
X01013903
X01007003Y00216627
X01000103Y002159
X00993903
X00986785Y00216506
X00980103Y002159
X00973903
X00977003Y00210531
X00983903Y00221996
X00990103
X01003903
X01010103
X01023903
X01030103
X01017003Y00210531
X00997003
X00956056Y0021971
X00945896Y00210058
X00933196Y00220472
X00930656Y0023368
X00937006Y00243586
X0091948Y00262382
X0089789Y00266446
X00917194Y00219202
X0090932Y00206248
X00909574Y00192024
X00926084Y0018796
X00934974Y00124206
X009398Y00111506
X00934974Y00103886
X00912876Y00102362
X0091186Y00077978
X0093853Y00075946
X00954278Y00110236
X00951484Y00127508
X00957834Y00138176
X00956229Y00144165
X0096826Y00103632
X00974429Y00103012
X00980629Y00102949
X00978249Y00091556
X00984438Y00091186
X00990638
X00993082Y00096884
X00994429Y00103012
X01000629Y00102949
X01002089Y00096924
X01004438Y00091186
X01010638
X01013537Y00096666
X01014429Y00103012
X01020629Y00102949
X01021342Y00096558
X01024438Y00091186
X01030638
X01034084Y0009634
X0104078Y00096192
X01040629Y00102949
X01034429Y00103012
X01034763Y00086558
X01040226Y00086636
X01044438Y00091186
X01050638
X01054398Y00096116
X01054798Y00086589
X0106934Y00089662
X01070102Y00102362
X0107061Y00115316
X01063244Y00126746
X01048483Y00129083
X0102046Y0008643
X01007538Y00085817
X00994047Y00086007
X01069594Y00076454
X01134872Y00089662
X01136142Y00117602
X01126744Y00127254
X0114427Y00065278
Y00059944
X01149604
X01154938
Y00065278
X01149604
X01164844Y0006096
X01184402Y00064262
X0105954Y00191767
X01064514Y00205486
X01084326Y00225806
X01154762Y0038647
X01151382Y00391668
X01247394Y00367792
X01259586Y0035814
X01273048Y00363474
X01285462Y00377217
X01295908Y0037465
X01283083Y00305034
X01281176Y00300736
X01278636Y00240538
X0127762Y00227584
X0126238Y0022987
X01249172Y00231902
X01292098Y00238252
X01266398Y00172526
X01258157Y00175694
X01213358Y00148844
X0124841Y0010541
X01254252Y00101854
X01261364Y001016
X01273556Y00079756
X01279743Y00080148
X01268984Y00069596
X01300228Y00070612
X01306426Y00070763
X01312626
X01318824Y00070612
X01350228
X01356426Y00070763
X01362626
X01368824Y00070612
X01390228
X01396426Y00070763
X01402626
X01408824Y00070612
X01430228
X01436426Y00070763
X01442626
X01448824Y00070612
X01490228
X01496426Y00070763
X01502626
X01508824Y00070612
X01530228
X01536426Y00070763
X01542626
X01548824Y00070612
X01570228
X01576426Y00070763
X01582626
X01499588Y00122419
X01450848Y00121666
X01455166Y0013843
X01433322Y00134874
X01438402Y00150876
X01420876Y00145034
X0141859Y0012446
X01406398Y00133604
X0140462Y0011684
X01396384Y00123949
X01294638Y00118872
X01287868Y00120414
X0123485Y00076962
X01220724Y00062992
X0121412
X0120777
X0120269
X01213104Y00270002
X01390142Y0024384
X01401318Y00253492
X01415542Y0024638
X01423416Y0025781
X01413002Y00263144
X01424178Y00286766
X01432052Y00280162
X01441256Y00272734
X0144907Y00284226
X01456944Y00263906
X01438656Y0024638
X01505706Y00222002
X01505966Y00179504
X01535706Y0019251
Y00318748
X01505204Y00302514
X01505706Y00375406
X01452118Y00380492
X014478Y00393954
X01436878Y00386334
X01424477Y00378941
X01418082Y00393192
X01399252Y00393547
X01406652Y00383032
X01607058Y0038227
X01641408Y0037719
X01647606Y00377362
X01653806
X01660004Y0037719
X01691408
X01697606Y00377362
X01703806
X01710004Y0037719
X01731408
X01737606Y00377362
X01743806
X01750004Y0037719
X01771408
X01777606Y00377362
X01783806
X01790004Y0037719
X01800352Y00290068
X01770004Y002921
X01763806Y00291928
X01757606
X01751408Y002921
X01730004
X01723806Y00291928
X01717606
X01711408Y002921
X01690004
X01683806Y00291928
X01677606
X01671408Y002921
X01640004
X01633806Y00291928
X01627606
X01621408Y002921
X01623806Y00256032
X01617606
X0160147Y0024638
X01641408Y00249936
X01647606Y00250108
X01653806
X01660004Y00249936
X01691408
X01697606Y00250108
X01703806
X01710004Y00249936
X01731408
X01737606Y00250108
X01743806
X01750004Y00249936
X01771408
X01777606Y00250108
X01783806
X01790004Y00249936
X01804162Y0016256
X01770004Y00164846
X01763806Y00164674
X01757606
X01751408Y00164846
X01730004
X01723806Y00164674
X01717606
X01711408Y00164846
X01690645Y0016554
X01684448Y00165368
X01678248
X0167205Y0016554
X01640004Y00164846
X01633806Y00164674
X01627606
X01621408Y00164846
X01623806Y00128778
X01617606
X0160655Y00122174
X01641408Y00122682
X01647606Y00122854
X01653806
X01660004Y00122682
X01691408
X01697606Y00122854
X01703806
X01710004Y00122682
X01731408
X01737606Y00122854
X01743806
X01750004Y00122682
X01771408
X01777606Y00122854
X01783806
X01790004Y00122682
X01792626Y00070763
X01786426
X01780228Y00070612
X01798824
X01820228
X01826426Y00070763
X01832626
X01838824Y00070612
X01860228
X01866426Y00070763
X01872626
X01878824Y00070612
X01900228
X01906426Y00070763
X01912626
X01918824Y00070612
X01940228
X01946426Y00070763
X01952626
X01958824Y00070612
X01961134Y00105664
X01758824Y00070612
X01752626Y00070763
X01746426
X01740228Y00070612
X01718824
X01712626Y00070763
X01706426
X01700228Y00070612
X01678824
X01672626Y00070763
X01666426
X01660228Y00070612
X01628824
X01622626Y00070763
X01616426
X01610228Y00070612
X01588824
X01619134Y00341122
X01625317Y00341572
X01971548Y00342392
X01968246Y00359918
X0199009Y00375666
X0199517Y00343408
X02021332Y00337566
X02027532
X02034432Y00342865
X02037532Y00348234
X02031332
X02044446Y0034798
X02051332Y00348234
X02057532
X0206375Y00347726
X02071332Y00348234
X02077532
X02084324
X02091332
X02097532
X02103732
X02094432Y00342865
X02074432
X02054432
X02128012Y00347726
X02150364Y0034798
X02149856Y00373634
X02126234Y00371602
X02122424Y00379984
X02115312Y00386334
X02110232Y00377698
X02121916Y00395224
X02113725Y00402622
X02107532Y00402336
X02101332
X0209423Y00403098
X02087532Y00402336
X02081332
X02073726Y0040261
X02067532Y00402336
X02061332
X02054352Y00402844
X02047532Y00402336
X02041332
X02035132
X02008886Y0040132
X01992122Y00399796
X01806448Y00413766
X01770004Y00419354
X01763806Y00419182
X01757606
X01751408Y00419354
X01730004
X01723806Y00419182
X01717606
X01711408Y00419354
X01690004
X01683806Y00419182
X01677606
X01671408Y00419354
X01640004
X01633806Y00419182
X01627606
X01621408Y00419354
X01535706Y00441938
X01505706Y00442982
X01452626Y00409702
X0143764Y00401066
X01427734Y00398272
X0142494Y00416306
X01288542Y00433324
X0128143Y0043053
X01214628Y00405384
X0114427Y00406146
X01146568Y00400388
X01021588Y00408686
X01008634Y00413004
X00989076Y00412242
X00944372Y00413766
X00940054Y00413512
X00935736
X00922528Y0042418
X00922274Y0044196
X0089662Y0044069
X00899414Y00422148
X00888492Y00418084
X00875284Y00416052
X0087376Y00407162
X00767842Y00405638
T03
X00723646Y00296454
Y00409954
T04
X01592206Y00143764
Y00271018
X01823706
Y00143764
Y00398272
X01592206
M30
