%TF.GenerationSoftware,Altium Limited,Altium Designer,24.0.1 (36)*%
G04 Layer_Physical_Order=3*
G04 Layer_Color=16440176*
%FSLAX45Y45*%
%MOMM*%
%TF.SameCoordinates,79EBFB85-6253-4421-BC9D-CD6C48D828FA*%
%TF.FilePolarity,Positive*%
%TF.FileFunction,Copper,L3,Inr,Signal*%
%TF.Part,Single*%
G01*
G75*
%TA.AperFunction,Conductor*%
%ADD10C,0.16205*%
%TA.AperFunction,ComponentPad*%
%ADD22C,1.25000*%
%ADD23O,1.95000X1.25000*%
%ADD24C,1.00000*%
%TA.AperFunction,ViaPad*%
%ADD25C,0.40000*%
G36*
X21609900Y4496819D02*
X21632312Y4492361D01*
X21653423Y4483616D01*
X21672421Y4470921D01*
X21688580Y4454763D01*
X21701276Y4435763D01*
X21710020Y4414652D01*
X21714479Y4392240D01*
X21714479Y4380815D01*
X21714479Y1450261D01*
X21714479Y1438835D01*
X21710020Y1416423D01*
X21701276Y1395312D01*
X21688580Y1376312D01*
X21672423Y1360154D01*
X21653423Y1347458D01*
X21632312Y1338714D01*
X21609900Y1334256D01*
X21598476Y1334256D01*
X20836475D01*
X20836208Y1334145D01*
X20835934Y1334243D01*
X20823486Y1333631D01*
X20822717Y1333267D01*
X20821881Y1333433D01*
X20797462Y1328576D01*
X20796527Y1327950D01*
X20795401D01*
X20772400Y1318423D01*
X20771603Y1317627D01*
X20770499Y1317407D01*
X20749799Y1303575D01*
X20749171Y1302638D01*
X20748132Y1302207D01*
X20730527Y1284603D01*
X20730096Y1283563D01*
X20729160Y1282937D01*
X20715327Y1262237D01*
X20715108Y1261132D01*
X20714313Y1260336D01*
X20704785Y1237335D01*
Y1236208D01*
X20704160Y1235271D01*
X20699303Y1210854D01*
X20699467Y1210018D01*
X20699104Y1209248D01*
X20698492Y1196799D01*
X20698590Y1196527D01*
X20698479Y1196260D01*
X20698479Y967660D01*
X20698590Y967393D01*
X20698492Y967121D01*
X20699104Y954673D01*
X20699467Y953902D01*
X20699303Y953067D01*
X20704160Y928649D01*
X20704785Y927712D01*
Y926586D01*
X20714313Y903585D01*
X20715108Y902788D01*
X20715327Y901683D01*
X20729160Y880983D01*
X20730096Y880357D01*
X20730527Y879317D01*
X20748131Y861713D01*
X20749171Y861281D01*
X20749799Y860345D01*
X20770499Y846513D01*
X20771603Y846294D01*
X20772398Y845497D01*
X20795399Y835970D01*
X20796527D01*
X20797464Y835344D01*
X20821881Y830487D01*
X20822717Y830653D01*
X20823486Y830289D01*
X20835934Y829678D01*
X20836208Y829775D01*
X20836475Y829664D01*
X21244579D01*
Y602184D01*
X21109373Y356356D01*
X20040930D01*
X19996568Y400718D01*
X19996301Y840718D01*
X19996156Y841070D01*
X19996278Y841431D01*
X19995100Y859381D01*
X19994603Y860392D01*
X19994749Y861508D01*
X19985455Y896186D01*
X19984552Y897365D01*
X19984358Y898839D01*
X19966405Y929929D01*
X19965225Y930834D01*
X19964656Y932207D01*
X19939265Y957590D01*
X19937894Y958159D01*
X19936987Y959337D01*
X19905893Y977283D01*
X19904419Y977476D01*
X19903239Y978381D01*
X19868559Y987665D01*
X19867085Y987471D01*
X19865712Y988039D01*
X19829811Y988029D01*
X19828438Y987460D01*
X19826964Y987654D01*
X19792290Y978350D01*
X19791110Y977445D01*
X19789638Y977250D01*
X19758551Y959288D01*
X19757648Y958109D01*
X19756274Y957539D01*
X19730898Y932142D01*
X19730330Y930769D01*
X19729150Y929864D01*
X19711215Y898763D01*
X19711021Y897290D01*
X19710118Y896110D01*
X19700844Y861427D01*
X19700990Y860310D01*
X19700493Y859300D01*
X19699327Y841348D01*
X19699451Y840987D01*
X19699304Y840635D01*
X19699304Y55190D01*
X19655745Y11631D01*
X12644855D01*
X12601296Y55190D01*
Y745635D01*
X12601149Y745990D01*
X12601272Y746355D01*
X12600459Y758754D01*
X12599961Y759764D01*
X12600108Y760881D01*
X12593689Y784836D01*
X12592785Y786015D01*
X12592591Y787488D01*
X12580191Y808965D01*
X12579012Y809870D01*
X12578443Y811242D01*
X12560907Y828779D01*
X12559534Y829347D01*
X12558629Y830526D01*
X12537153Y842926D01*
X12535679Y843120D01*
X12534500Y844024D01*
X12510546Y850443D01*
X12509072Y850249D01*
X12507699Y850818D01*
X12482900D01*
X12481527Y850249D01*
X12480054Y850443D01*
X12456099Y844024D01*
X12454920Y843120D01*
X12453447Y842926D01*
X12431970Y830526D01*
X12431065Y829347D01*
X12429692Y828779D01*
X12412156Y811242D01*
X12411587Y809869D01*
X12410408Y808965D01*
X12399979Y790900D01*
X12387925Y790258D01*
X12386315Y790700D01*
X12384958Y793978D01*
X12372862Y806074D01*
X12357057Y812620D01*
X12339951D01*
X12324147Y806074D01*
X12312051Y793978D01*
X12305504Y778173D01*
Y761067D01*
X12312051Y745262D01*
X12324147Y733166D01*
X12339951Y726620D01*
X12357057D01*
X12372862Y733166D01*
X12376604Y736909D01*
X12389304Y731648D01*
Y55190D01*
X12345745Y11631D01*
X11334855D01*
X11291296Y55190D01*
Y840634D01*
X11291314Y1106021D01*
X11291210Y1106272D01*
X11291303Y1106527D01*
X11290487Y1124274D01*
X11290123Y1125049D01*
X11290292Y1125888D01*
X11283452Y1160710D01*
X11282825Y1161654D01*
X11282827Y1162786D01*
X11269290Y1195590D01*
X11268491Y1196392D01*
X11268270Y1197502D01*
X11254712Y1217807D01*
X11256032Y1221517D01*
X11262148Y1229540D01*
X11275993D01*
X11291798Y1236086D01*
X11303894Y1248182D01*
X11310440Y1263987D01*
Y1281093D01*
X11303894Y1296898D01*
X11291798Y1308994D01*
X11275993Y1315540D01*
X11258887D01*
X11243082Y1308994D01*
X11230986Y1296898D01*
X11224440Y1281093D01*
Y1267702D01*
X11215416Y1261117D01*
X11212707Y1260255D01*
X11190855Y1274799D01*
X11189744Y1275018D01*
X11188941Y1275816D01*
X11156116Y1289302D01*
X11154984Y1289299D01*
X11154040Y1289924D01*
X11119208Y1296711D01*
X11118098Y1296485D01*
X11117050Y1296913D01*
X11081563Y1296737D01*
X11080519Y1296298D01*
X11079407Y1296513D01*
X11044644Y1289379D01*
X11043706Y1288745D01*
X11042574Y1288737D01*
X11009885Y1274925D01*
X11009090Y1274119D01*
X11007981Y1273889D01*
X10978636Y1253933D01*
X10978014Y1252987D01*
X10976972Y1252544D01*
X10952110Y1227222D01*
X10951687Y1226171D01*
X10950752Y1225533D01*
X10931339Y1195826D01*
X10931129Y1194713D01*
X10930338Y1193903D01*
X10917129Y1160966D01*
X10917141Y1159834D01*
X10916524Y1158885D01*
X10910031Y1123996D01*
X10910208Y1123159D01*
X10909852Y1122380D01*
X10909213Y1104626D01*
X10909288Y1104427D01*
X10909206Y1104230D01*
X10909207Y653390D01*
X10738568Y482751D01*
X6755320D01*
X6743894Y482751D01*
X6721482Y487209D01*
X6700371Y495953D01*
X6681372Y508648D01*
X6665213Y524806D01*
X6652518Y543806D01*
X6643774Y564918D01*
X6639316Y587329D01*
X6639316Y598752D01*
X6640171Y4380812D01*
X6640171Y4380814D01*
X6640171Y4380815D01*
Y4392240D01*
X6644629Y4414652D01*
X6653374Y4435763D01*
X6666069Y4454762D01*
X6682227Y4470920D01*
X6701227Y4483616D01*
X6722338Y4492360D01*
X6744749Y4496818D01*
X6756174Y4496818D01*
X21598474Y4496819D01*
X21609900Y4496819D01*
D02*
G37*
%LPC*%
G36*
X9452273Y4180660D02*
X9435167D01*
X9419362Y4174114D01*
X9419188Y4173939D01*
X9409093Y4178120D01*
X9391987D01*
X9378950Y4172720D01*
X9365913Y4178120D01*
X9348807D01*
X9333002Y4171574D01*
X9320906Y4159478D01*
X9314360Y4143673D01*
Y4126567D01*
X9320906Y4110762D01*
X9333002Y4098666D01*
X9348807Y4092120D01*
X9365913D01*
X9378950Y4097520D01*
X9391987Y4092120D01*
X9409093D01*
X9424898Y4098666D01*
X9425072Y4098841D01*
X9435167Y4094660D01*
X9452273D01*
X9468078Y4101206D01*
X9480174Y4113302D01*
X9486720Y4129107D01*
Y4146213D01*
X9480174Y4162018D01*
X9468078Y4174114D01*
X9452273Y4180660D01*
D02*
G37*
G36*
X17692059Y4442720D02*
X17522060D01*
Y4242720D01*
X17553401D01*
X17555927Y4230020D01*
X17551701Y4228270D01*
X17539606Y4216174D01*
X17533060Y4200370D01*
Y4183263D01*
X17539606Y4167459D01*
X17551701Y4155363D01*
X17567506Y4148816D01*
X17584613D01*
X17600417Y4155363D01*
X17607060Y4162005D01*
X17613702Y4155363D01*
X17629507Y4148816D01*
X17646613D01*
X17662418Y4155363D01*
X17674513Y4167459D01*
X17681059Y4183263D01*
Y4200370D01*
X17674513Y4216174D01*
X17662418Y4228270D01*
X17658192Y4230020D01*
X17660719Y4242720D01*
X17692059D01*
Y4442720D01*
D02*
G37*
G36*
X17292059D02*
X17122060D01*
Y4242720D01*
X17153401D01*
X17155927Y4230020D01*
X17151701Y4228270D01*
X17139606Y4216174D01*
X17133060Y4200370D01*
Y4183263D01*
X17139606Y4167459D01*
X17151701Y4155363D01*
X17167506Y4148816D01*
X17184613D01*
X17200417Y4155363D01*
X17207060Y4162005D01*
X17213702Y4155363D01*
X17229507Y4148816D01*
X17246613D01*
X17262418Y4155363D01*
X17274513Y4167459D01*
X17281059Y4183263D01*
Y4200370D01*
X17274513Y4216174D01*
X17262418Y4228270D01*
X17258192Y4230020D01*
X17260719Y4242720D01*
X17292059D01*
Y4442720D01*
D02*
G37*
G36*
X16892059D02*
X16722060D01*
Y4242720D01*
X16753401D01*
X16755927Y4230020D01*
X16751701Y4228270D01*
X16739606Y4216174D01*
X16733060Y4200370D01*
Y4183263D01*
X16739606Y4167459D01*
X16751701Y4155363D01*
X16767506Y4148816D01*
X16784613D01*
X16800417Y4155363D01*
X16807060Y4162005D01*
X16813702Y4155363D01*
X16829506Y4148816D01*
X16846613D01*
X16862418Y4155363D01*
X16874513Y4167459D01*
X16881059Y4183263D01*
Y4200370D01*
X16874513Y4216174D01*
X16862418Y4228270D01*
X16858192Y4230020D01*
X16860718Y4242720D01*
X16892059D01*
Y4442720D01*
D02*
G37*
G36*
X16392059D02*
X16222060D01*
Y4242720D01*
X16253401D01*
X16255927Y4230020D01*
X16251701Y4228270D01*
X16239606Y4216174D01*
X16233060Y4200370D01*
Y4183263D01*
X16239606Y4167459D01*
X16251701Y4155363D01*
X16267506Y4148816D01*
X16284613D01*
X16300417Y4155363D01*
X16307060Y4162005D01*
X16313702Y4155363D01*
X16329506Y4148816D01*
X16346613D01*
X16362418Y4155363D01*
X16374513Y4167459D01*
X16381059Y4183263D01*
Y4200370D01*
X16374513Y4216174D01*
X16362418Y4228270D01*
X16358192Y4230020D01*
X16360718Y4242720D01*
X16392059D01*
Y4442720D01*
D02*
G37*
G36*
X7530460Y4289827D02*
X7460460D01*
X7441492Y4287330D01*
X7423816Y4280008D01*
X7408638Y4268362D01*
X7396992Y4253183D01*
X7389670Y4235508D01*
X7387173Y4216540D01*
X7389670Y4197572D01*
X7396992Y4179897D01*
X7408638Y4164718D01*
X7423816Y4153072D01*
X7441492Y4145750D01*
X7460460Y4143253D01*
X7530460D01*
X7549428Y4145750D01*
X7567103Y4153072D01*
X7582282Y4164718D01*
X7593928Y4179897D01*
X7601250Y4197572D01*
X7603747Y4216540D01*
X7601250Y4235508D01*
X7593928Y4253183D01*
X7582282Y4268362D01*
X7567103Y4280008D01*
X7549428Y4287330D01*
X7530460Y4289827D01*
D02*
G37*
G36*
X7051460D02*
X6981460D01*
X6962492Y4287330D01*
X6944817Y4280008D01*
X6929638Y4268362D01*
X6917992Y4253183D01*
X6910670Y4235508D01*
X6908173Y4216540D01*
X6910670Y4197572D01*
X6917992Y4179897D01*
X6929638Y4164718D01*
X6944817Y4153072D01*
X6962492Y4145750D01*
X6981460Y4143253D01*
X7051460D01*
X7070428Y4145750D01*
X7088103Y4153072D01*
X7103281Y4164718D01*
X7114928Y4179897D01*
X7122250Y4197572D01*
X7124747Y4216540D01*
X7122250Y4235508D01*
X7114928Y4253183D01*
X7103281Y4268362D01*
X7088103Y4280008D01*
X7070428Y4287330D01*
X7051460Y4289827D01*
D02*
G37*
G36*
X21083871Y4066360D02*
X21066766D01*
X21050961Y4059814D01*
X21044319Y4053171D01*
X21037677Y4059814D01*
X21021872Y4066360D01*
X21004765D01*
X20988962Y4059814D01*
X20976866Y4047718D01*
X20970319Y4031913D01*
Y4014807D01*
X20976866Y3999002D01*
X20988962Y3986906D01*
X21004765Y3980360D01*
X21021872D01*
X21037677Y3986906D01*
X21044319Y3993549D01*
X21050961Y3986906D01*
X21066766Y3980360D01*
X21083871D01*
X21099677Y3986906D01*
X21111774Y3999002D01*
X21118320Y4014807D01*
Y4031913D01*
X21111774Y4047718D01*
X21099677Y4059814D01*
X21083871Y4066360D01*
D02*
G37*
G36*
X20883873D02*
X20866766D01*
X20850961Y4059814D01*
X20844321Y4053171D01*
X20837677Y4059814D01*
X20821873Y4066360D01*
X20804765D01*
X20788962Y4059814D01*
X20776866Y4047718D01*
X20770320Y4031913D01*
Y4014807D01*
X20776866Y3999002D01*
X20788962Y3986906D01*
X20804765Y3980360D01*
X20821873D01*
X20837677Y3986906D01*
X20844321Y3993549D01*
X20850961Y3986906D01*
X20866766Y3980360D01*
X20883873D01*
X20899677Y3986906D01*
X20911774Y3999002D01*
X20918320Y4014807D01*
Y4031913D01*
X20911774Y4047718D01*
X20899677Y4059814D01*
X20883873Y4066360D01*
D02*
G37*
G36*
X20683873D02*
X20666766D01*
X20650961Y4059814D01*
X20644321Y4053171D01*
X20637679Y4059814D01*
X20621873Y4066360D01*
X20604767D01*
X20588962Y4059814D01*
X20576866Y4047718D01*
X20570320Y4031913D01*
Y4014807D01*
X20576866Y3999002D01*
X20588962Y3986906D01*
X20604767Y3980360D01*
X20621873D01*
X20637679Y3986906D01*
X20644321Y3993549D01*
X20650961Y3986906D01*
X20666766Y3980360D01*
X20683873D01*
X20699677Y3986906D01*
X20711774Y3999002D01*
X20718320Y4014807D01*
Y4031913D01*
X20711774Y4047718D01*
X20699677Y4059814D01*
X20683873Y4066360D01*
D02*
G37*
G36*
X20483873D02*
X20466766D01*
X20450963Y4059814D01*
X20444321Y4053171D01*
X20437679Y4059814D01*
X20421873Y4066360D01*
X20404767D01*
X20388963Y4059814D01*
X20376868Y4047718D01*
X20370320Y4031913D01*
Y4014807D01*
X20376868Y3999002D01*
X20388963Y3986906D01*
X20404767Y3980360D01*
X20421873D01*
X20437679Y3986906D01*
X20444321Y3993549D01*
X20450963Y3986906D01*
X20466766Y3980360D01*
X20483873D01*
X20499678Y3986906D01*
X20511774Y3999002D01*
X20518320Y4014807D01*
Y4031913D01*
X20511774Y4047718D01*
X20499678Y4059814D01*
X20483873Y4066360D01*
D02*
G37*
G36*
X7248426Y4159700D02*
X7224494D01*
X7202382Y4150541D01*
X7185459Y4133618D01*
X7176300Y4111506D01*
Y4087573D01*
X7185459Y4065462D01*
X7202382Y4048539D01*
X7224494Y4039380D01*
X7248426D01*
X7270538Y4048539D01*
X7287461Y4065462D01*
X7296620Y4087573D01*
Y4111506D01*
X7287461Y4133618D01*
X7270538Y4150541D01*
X7248426Y4159700D01*
D02*
G37*
G36*
X11451253Y4104460D02*
X11434147D01*
X11418342Y4097914D01*
X11406246Y4085818D01*
X11399700Y4070013D01*
Y4052907D01*
X11406246Y4037102D01*
X11418342Y4025006D01*
X11426495Y4021630D01*
X11422685Y4012431D01*
Y3995324D01*
X11429231Y3979520D01*
X11441327Y3967424D01*
X11457131Y3960878D01*
X11474238D01*
X11490042Y3967424D01*
X11502138Y3979520D01*
X11508684Y3995324D01*
Y4012431D01*
X11502138Y4028235D01*
X11490042Y4040331D01*
X11481890Y4043708D01*
X11485700Y4052907D01*
Y4070013D01*
X11479154Y4085818D01*
X11467058Y4097914D01*
X11451253Y4104460D01*
D02*
G37*
G36*
X18246626Y4055380D02*
X18227493D01*
X18209013Y4050428D01*
X18192445Y4040862D01*
X18178917Y4027334D01*
X18169353Y4010766D01*
X18164400Y3992286D01*
Y3973154D01*
X18169353Y3954674D01*
X18178917Y3938106D01*
X18192445Y3924578D01*
X18209013Y3915012D01*
X18227493Y3910060D01*
X18246626D01*
X18265105Y3915012D01*
X18281674Y3924578D01*
X18295203Y3938106D01*
X18304768Y3954674D01*
X18309720Y3973154D01*
Y3992286D01*
X18304768Y4010766D01*
X18295203Y4027334D01*
X18281674Y4040862D01*
X18265105Y4050428D01*
X18246626Y4055380D01*
D02*
G37*
G36*
X15931625D02*
X15912494D01*
X15894014Y4050428D01*
X15877446Y4040862D01*
X15863918Y4027334D01*
X15854352Y4010766D01*
X15849400Y3992286D01*
Y3973154D01*
X15854352Y3954674D01*
X15863918Y3938106D01*
X15877446Y3924578D01*
X15894014Y3915012D01*
X15912494Y3910060D01*
X15931625D01*
X15950105Y3915012D01*
X15966673Y3924578D01*
X15980202Y3938106D01*
X15989767Y3954674D01*
X15994720Y3973154D01*
Y3992286D01*
X15989767Y4010766D01*
X15980202Y4027334D01*
X15966673Y4040862D01*
X15950105Y4050428D01*
X15931625Y4055380D01*
D02*
G37*
G36*
X9607213Y3949520D02*
X9590107D01*
X9574302Y3942974D01*
X9562206Y3930878D01*
X9555660Y3915073D01*
Y3897967D01*
X9562206Y3882162D01*
X9574302Y3870066D01*
X9590107Y3863520D01*
X9607213D01*
X9623018Y3870066D01*
X9635114Y3882162D01*
X9641660Y3897967D01*
Y3915073D01*
X9635114Y3930878D01*
X9623018Y3942974D01*
X9607213Y3949520D01*
D02*
G37*
G36*
X10331113Y3929200D02*
X10314007D01*
X10298202Y3922654D01*
X10286106Y3910558D01*
X10279560Y3894753D01*
Y3877647D01*
X10286106Y3861842D01*
X10298202Y3849746D01*
X10314007Y3843200D01*
X10331113D01*
X10346918Y3849746D01*
X10359014Y3861842D01*
X10365560Y3877647D01*
Y3894753D01*
X10359014Y3910558D01*
X10346918Y3922654D01*
X10331113Y3929200D01*
D02*
G37*
G36*
X10169661Y3924096D02*
X10152555D01*
X10136750Y3917550D01*
X10124654Y3905454D01*
X10118108Y3889650D01*
Y3872543D01*
X10124654Y3856739D01*
X10136750Y3844643D01*
X10152555Y3838096D01*
X10169661D01*
X10185466Y3844643D01*
X10197562Y3856739D01*
X10204108Y3872543D01*
Y3889650D01*
X10197562Y3905454D01*
X10185466Y3917550D01*
X10169661Y3924096D01*
D02*
G37*
G36*
X10066672Y3923961D02*
X10049566D01*
X10033761Y3917414D01*
X10021666Y3905318D01*
X10015119Y3889514D01*
Y3872408D01*
X10021666Y3856603D01*
X10033761Y3844507D01*
X10049566Y3837961D01*
X10066672D01*
X10082477Y3844507D01*
X10094573Y3856603D01*
X10101119Y3872408D01*
Y3889514D01*
X10094573Y3905318D01*
X10082477Y3917414D01*
X10066672Y3923961D01*
D02*
G37*
G36*
X9963925Y3921442D02*
X9946818D01*
X9931014Y3914895D01*
X9918918Y3902799D01*
X9912372Y3886995D01*
Y3869889D01*
X9918918Y3854084D01*
X9931014Y3841988D01*
X9946818Y3835442D01*
X9963925D01*
X9979729Y3841988D01*
X9991825Y3854084D01*
X9998371Y3869889D01*
Y3886995D01*
X9991825Y3902799D01*
X9979729Y3914895D01*
X9963925Y3921442D01*
D02*
G37*
G36*
X21081813Y3914690D02*
X21006825D01*
Y3824690D01*
X21081813D01*
Y3914690D01*
D02*
G37*
G36*
X20981815D02*
X20906825D01*
Y3824690D01*
X20981815D01*
Y3914690D01*
D02*
G37*
G36*
X20881815D02*
X20806825D01*
Y3824690D01*
X20881815D01*
Y3914690D01*
D02*
G37*
G36*
X20781815D02*
X20706825D01*
Y3824690D01*
X20781815D01*
Y3914690D01*
D02*
G37*
G36*
X20681815D02*
X20606825D01*
Y3824690D01*
X20681815D01*
Y3914690D01*
D02*
G37*
G36*
X20581815D02*
X20506825D01*
Y3824690D01*
X20581815D01*
Y3914690D01*
D02*
G37*
G36*
X20481815D02*
X20406825D01*
Y3824690D01*
X20481815D01*
Y3914690D01*
D02*
G37*
G36*
X20381815D02*
X20306825D01*
Y3824690D01*
X20381815D01*
Y3914690D01*
D02*
G37*
G36*
X20281815D02*
X20206825D01*
Y3824690D01*
X20281815D01*
Y3914690D01*
D02*
G37*
G36*
X20181815D02*
X20106827D01*
Y3824690D01*
X20181815D01*
Y3914690D01*
D02*
G37*
G36*
X11522373Y3959680D02*
X11505267D01*
X11489462Y3953134D01*
X11477366Y3941038D01*
X11470820Y3925233D01*
Y3908127D01*
X11477366Y3892322D01*
X11489462Y3880226D01*
X11504863Y3873847D01*
X11504618Y3873255D01*
Y3856149D01*
X11511164Y3840344D01*
X11523260Y3828248D01*
X11539065Y3821702D01*
X11556171D01*
X11571975Y3828248D01*
X11584071Y3840344D01*
X11590618Y3856149D01*
Y3873255D01*
X11584071Y3889060D01*
X11571975Y3901156D01*
X11556575Y3907535D01*
X11556820Y3908127D01*
Y3925233D01*
X11550274Y3941038D01*
X11538178Y3953134D01*
X11522373Y3959680D01*
D02*
G37*
G36*
X17846613Y3816624D02*
X17829507D01*
X17813702Y3810077D01*
X17807060Y3803435D01*
X17800418Y3810077D01*
X17784613Y3816624D01*
X17767506D01*
X17751701Y3810077D01*
X17739606Y3797981D01*
X17733060Y3782177D01*
Y3765070D01*
X17739606Y3749266D01*
X17751701Y3737170D01*
X17755927Y3735420D01*
X17753401Y3722720D01*
X17722060D01*
Y3522720D01*
X17892059D01*
Y3722720D01*
X17860719D01*
X17858192Y3735420D01*
X17862418Y3737170D01*
X17874513Y3749266D01*
X17881059Y3765070D01*
Y3782177D01*
X17874513Y3797981D01*
X17862418Y3810077D01*
X17846613Y3816624D01*
D02*
G37*
G36*
X17446613D02*
X17429507D01*
X17413702Y3810077D01*
X17407060Y3803435D01*
X17400418Y3810077D01*
X17384613Y3816624D01*
X17367506D01*
X17351701Y3810077D01*
X17339606Y3797981D01*
X17333060Y3782177D01*
Y3765070D01*
X17339606Y3749266D01*
X17351701Y3737170D01*
X17355927Y3735420D01*
X17353401Y3722720D01*
X17322060D01*
Y3522720D01*
X17492059D01*
Y3722720D01*
X17460719D01*
X17458192Y3735420D01*
X17462418Y3737170D01*
X17474513Y3749266D01*
X17481059Y3765070D01*
Y3782177D01*
X17474513Y3797981D01*
X17462418Y3810077D01*
X17446613Y3816624D01*
D02*
G37*
G36*
X17046613D02*
X17029506D01*
X17013702Y3810077D01*
X17007060Y3803435D01*
X17000417Y3810077D01*
X16984613Y3816624D01*
X16967506D01*
X16951701Y3810077D01*
X16939606Y3797981D01*
X16933060Y3782177D01*
Y3765070D01*
X16939606Y3749266D01*
X16951701Y3737170D01*
X16955927Y3735420D01*
X16953401Y3722720D01*
X16922060D01*
Y3522720D01*
X17092059D01*
Y3722720D01*
X17060718D01*
X17058192Y3735420D01*
X17062418Y3737170D01*
X17074513Y3749266D01*
X17081059Y3765070D01*
Y3782177D01*
X17074513Y3797981D01*
X17062418Y3810077D01*
X17046613Y3816624D01*
D02*
G37*
G36*
X16546613D02*
X16529506D01*
X16513702Y3810077D01*
X16507060Y3803435D01*
X16500417Y3810077D01*
X16484613Y3816624D01*
X16467506D01*
X16451701Y3810077D01*
X16439606Y3797981D01*
X16433060Y3782177D01*
Y3765070D01*
X16439606Y3749266D01*
X16451701Y3737170D01*
X16455927Y3735420D01*
X16453401Y3722720D01*
X16422060D01*
Y3522720D01*
X16592059D01*
Y3722720D01*
X16560718D01*
X16558192Y3735420D01*
X16562418Y3737170D01*
X16574513Y3749266D01*
X16581059Y3765070D01*
Y3782177D01*
X16574513Y3797981D01*
X16562418Y3810077D01*
X16546613Y3816624D01*
D02*
G37*
G36*
X7410113Y3982540D02*
X7393007D01*
X7377202Y3975994D01*
X7365106Y3963898D01*
X7358560Y3948093D01*
Y3930987D01*
X7365106Y3915182D01*
X7371749Y3908540D01*
X7365106Y3901898D01*
X7358560Y3886093D01*
Y3868987D01*
X7365106Y3853183D01*
X7377202Y3841087D01*
X7378828Y3840413D01*
Y3826667D01*
X7377202Y3825993D01*
X7365106Y3813897D01*
X7358560Y3798093D01*
Y3780987D01*
X7365106Y3765182D01*
X7371749Y3758540D01*
X7365106Y3751897D01*
X7358560Y3736093D01*
Y3718987D01*
X7365106Y3703182D01*
X7377202Y3691086D01*
X7393007Y3684540D01*
X7410113D01*
X7425918Y3691086D01*
X7438014Y3703182D01*
X7444560Y3718987D01*
Y3736093D01*
X7438014Y3751897D01*
X7431371Y3758540D01*
X7438014Y3765182D01*
X7444560Y3780987D01*
Y3798093D01*
X7438014Y3813897D01*
X7425918Y3825993D01*
X7424292Y3826667D01*
Y3840413D01*
X7425918Y3841087D01*
X7438014Y3853183D01*
X7444560Y3868987D01*
Y3886093D01*
X7438014Y3901898D01*
X7431371Y3908540D01*
X7438014Y3915182D01*
X7444560Y3930987D01*
Y3948093D01*
X7438014Y3963898D01*
X7425918Y3975994D01*
X7410113Y3982540D01*
D02*
G37*
G36*
X8542953Y3814759D02*
X8525847D01*
X8510042Y3808213D01*
X8497946Y3796117D01*
X8491400Y3780313D01*
Y3763206D01*
X8497946Y3747402D01*
X8504589Y3740760D01*
X8497946Y3734117D01*
X8491400Y3718313D01*
Y3701206D01*
X8497946Y3685402D01*
X8510042Y3673306D01*
X8525847Y3666760D01*
X8542953D01*
X8557440Y3672760D01*
X8563647Y3670480D01*
X8570140Y3666728D01*
Y3663207D01*
X8576686Y3647402D01*
X8583329Y3640760D01*
X8576686Y3634117D01*
X8570140Y3618313D01*
Y3601207D01*
X8576686Y3585402D01*
X8588782Y3573306D01*
X8604587Y3566760D01*
X8621693D01*
X8637498Y3573306D01*
X8649594Y3585402D01*
X8656140Y3601207D01*
Y3618313D01*
X8649594Y3634117D01*
X8642951Y3640760D01*
X8649594Y3647402D01*
X8656140Y3663207D01*
Y3680313D01*
X8649594Y3696117D01*
X8637498Y3708213D01*
X8621693Y3714760D01*
X8604587D01*
X8590100Y3708759D01*
X8583893Y3711039D01*
X8577400Y3714791D01*
Y3718313D01*
X8570854Y3734117D01*
X8564211Y3740760D01*
X8570854Y3747402D01*
X8577400Y3763206D01*
Y3780313D01*
X8570854Y3796117D01*
X8558758Y3808213D01*
X8542953Y3814759D01*
D02*
G37*
G36*
X10407313Y3611700D02*
X10390207D01*
X10374402Y3605154D01*
X10362306Y3593058D01*
X10355760Y3577253D01*
Y3560147D01*
X10362306Y3544342D01*
X10374402Y3532246D01*
X10390207Y3525700D01*
X10407313D01*
X10423118Y3532246D01*
X10435214Y3544342D01*
X10441760Y3560147D01*
Y3577253D01*
X10435214Y3593058D01*
X10423118Y3605154D01*
X10407313Y3611700D01*
D02*
G37*
G36*
X16292059Y3722720D02*
X16122060D01*
Y3522720D01*
X16292059D01*
Y3722720D01*
D02*
G37*
G36*
X9591973Y3603064D02*
X9574867D01*
X9559062Y3596518D01*
X9546966Y3584422D01*
X9540420Y3568617D01*
Y3551511D01*
X9546966Y3535706D01*
X9559062Y3523610D01*
X9574867Y3517064D01*
X9591973D01*
X9607778Y3523610D01*
X9619874Y3535706D01*
X9626420Y3551511D01*
Y3568617D01*
X9619874Y3584422D01*
X9607778Y3596518D01*
X9591973Y3603064D01*
D02*
G37*
G36*
X20983871Y3525340D02*
X20966766D01*
X20950961Y3518794D01*
X20944319Y3512151D01*
X20937677Y3518794D01*
X20921873Y3525340D01*
X20904765D01*
X20888962Y3518794D01*
X20876866Y3506698D01*
X20870319Y3490893D01*
Y3473787D01*
X20876866Y3457982D01*
X20888962Y3445886D01*
X20904765Y3439340D01*
X20921873D01*
X20937677Y3445886D01*
X20944319Y3452529D01*
X20950961Y3445886D01*
X20966766Y3439340D01*
X20983871D01*
X20999677Y3445886D01*
X21011774Y3457982D01*
X21018320Y3473787D01*
Y3490893D01*
X21011774Y3506698D01*
X20999677Y3518794D01*
X20983871Y3525340D01*
D02*
G37*
G36*
X20783873D02*
X20766766D01*
X20750961Y3518794D01*
X20744321Y3512151D01*
X20737677Y3518794D01*
X20721873Y3525340D01*
X20704767D01*
X20688962Y3518794D01*
X20676866Y3506698D01*
X20670320Y3490893D01*
Y3473787D01*
X20676866Y3457982D01*
X20688962Y3445886D01*
X20704767Y3439340D01*
X20721873D01*
X20737677Y3445886D01*
X20744321Y3452529D01*
X20750961Y3445886D01*
X20766766Y3439340D01*
X20783873D01*
X20799677Y3445886D01*
X20811774Y3457982D01*
X20818320Y3473787D01*
Y3490893D01*
X20811774Y3506698D01*
X20799677Y3518794D01*
X20783873Y3525340D01*
D02*
G37*
G36*
X20583873D02*
X20566766D01*
X20550961Y3518794D01*
X20544321Y3512151D01*
X20537679Y3518794D01*
X20521873Y3525340D01*
X20504767D01*
X20488963Y3518794D01*
X20476868Y3506698D01*
X20470320Y3490893D01*
Y3473787D01*
X20476868Y3457982D01*
X20488963Y3445886D01*
X20504767Y3439340D01*
X20521873D01*
X20537679Y3445886D01*
X20544321Y3452529D01*
X20550961Y3445886D01*
X20566766Y3439340D01*
X20583873D01*
X20599678Y3445886D01*
X20611774Y3457982D01*
X20618320Y3473787D01*
Y3490893D01*
X20611774Y3506698D01*
X20599678Y3518794D01*
X20583873Y3525340D01*
D02*
G37*
G36*
X20383875D02*
X20366766D01*
X20350963Y3518794D01*
X20344321Y3512151D01*
X20337679Y3518794D01*
X20321873Y3525340D01*
X20304767D01*
X20288963Y3518794D01*
X20276868Y3506698D01*
X20270322Y3490893D01*
Y3473787D01*
X20276868Y3457982D01*
X20288963Y3445886D01*
X20304767Y3439340D01*
X20321873D01*
X20337679Y3445886D01*
X20344321Y3452529D01*
X20350963Y3445886D01*
X20366766Y3439340D01*
X20383875D01*
X20399678Y3445886D01*
X20411774Y3457982D01*
X20418320Y3473787D01*
Y3490893D01*
X20411774Y3506698D01*
X20399678Y3518794D01*
X20383875Y3525340D01*
D02*
G37*
G36*
X16261726Y3458722D02*
X16244620D01*
X16228816Y3452176D01*
X16220004Y3443364D01*
X16215695Y3447674D01*
X16199892Y3454220D01*
X16182784D01*
X16166980Y3447674D01*
X16154884Y3435578D01*
X16148338Y3419773D01*
Y3402667D01*
X16154884Y3386862D01*
X16166980Y3374766D01*
X16182784Y3368220D01*
X16199892D01*
X16215695Y3374766D01*
X16224507Y3383578D01*
X16228816Y3379269D01*
X16244620Y3372722D01*
X16261726D01*
X16277531Y3379269D01*
X16289627Y3391365D01*
X16296173Y3407169D01*
Y3424276D01*
X16289627Y3440080D01*
X16277531Y3452176D01*
X16261726Y3458722D01*
D02*
G37*
G36*
X8621693Y3514760D02*
X8604587D01*
X8588782Y3508214D01*
X8576686Y3496118D01*
X8570140Y3480313D01*
Y3463207D01*
X8576686Y3447403D01*
X8583329Y3440760D01*
X8576686Y3434118D01*
X8570140Y3418313D01*
Y3414792D01*
X8563647Y3411040D01*
X8557440Y3408760D01*
X8542953Y3414760D01*
X8525847D01*
X8510042Y3408214D01*
X8497946Y3396118D01*
X8491400Y3380314D01*
Y3363207D01*
X8497946Y3347403D01*
X8504589Y3340760D01*
X8497946Y3334118D01*
X8491400Y3318314D01*
Y3301207D01*
X8497946Y3285403D01*
X8510042Y3273307D01*
X8525847Y3266761D01*
X8542953D01*
X8558758Y3273307D01*
X8570854Y3285403D01*
X8577400Y3301207D01*
Y3318314D01*
X8570854Y3334118D01*
X8564211Y3340760D01*
X8570854Y3347403D01*
X8577400Y3363207D01*
Y3366729D01*
X8583893Y3370481D01*
X8590100Y3372761D01*
X8604587Y3366760D01*
X8621693D01*
X8637498Y3373307D01*
X8649594Y3385403D01*
X8656140Y3401207D01*
Y3418313D01*
X8649594Y3434118D01*
X8642951Y3440760D01*
X8649594Y3447403D01*
X8656140Y3463207D01*
Y3480313D01*
X8649594Y3496118D01*
X8637498Y3508214D01*
X8621693Y3514760D01*
D02*
G37*
G36*
X20283875Y3418660D02*
X20266766D01*
X20250963Y3412114D01*
X20244321Y3405471D01*
X20237679Y3412114D01*
X20221873Y3418660D01*
X20204768D01*
X20188963Y3412114D01*
X20176868Y3400018D01*
X20170322Y3384213D01*
Y3367107D01*
X20176868Y3351302D01*
X20188963Y3339206D01*
X20204768Y3332660D01*
X20221873D01*
X20237679Y3339206D01*
X20244321Y3345849D01*
X20250963Y3339206D01*
X20266766Y3332660D01*
X20283875D01*
X20299678Y3339206D01*
X20311774Y3351302D01*
X20318321Y3367107D01*
Y3384213D01*
X20311774Y3400018D01*
X20299678Y3412114D01*
X20283875Y3418660D01*
D02*
G37*
G36*
X9673253Y3284040D02*
X9656147D01*
X9640342Y3277494D01*
X9628246Y3265398D01*
X9621700Y3249593D01*
Y3232487D01*
X9628246Y3216682D01*
X9640342Y3204586D01*
X9656147Y3198040D01*
X9673253D01*
X9689058Y3204586D01*
X9701154Y3216682D01*
X9707700Y3232487D01*
Y3249593D01*
X9701154Y3265398D01*
X9689058Y3277494D01*
X9673253Y3284040D01*
D02*
G37*
G36*
X9790093Y3225620D02*
X9772987D01*
X9757182Y3219074D01*
X9745086Y3206978D01*
X9738540Y3191173D01*
Y3174067D01*
X9745086Y3158262D01*
X9757182Y3146166D01*
X9772987Y3139620D01*
X9789843D01*
Y3139253D01*
X9796389Y3123449D01*
X9808485Y3111353D01*
X9824290Y3104806D01*
X9841396D01*
X9857201Y3111353D01*
X9869296Y3123449D01*
X9875843Y3139253D01*
Y3156359D01*
X9869296Y3172164D01*
X9857201Y3184260D01*
X9841396Y3190806D01*
X9824540D01*
Y3191173D01*
X9817994Y3206978D01*
X9805898Y3219074D01*
X9790093Y3225620D01*
D02*
G37*
G36*
X7410113Y3382540D02*
X7393007D01*
X7377202Y3375994D01*
X7365106Y3363898D01*
X7358560Y3348093D01*
Y3330987D01*
X7365106Y3315182D01*
X7371749Y3308540D01*
X7365106Y3301898D01*
X7358560Y3286093D01*
Y3268987D01*
X7365106Y3253182D01*
X7377202Y3241086D01*
X7378828Y3240413D01*
Y3226667D01*
X7377202Y3225994D01*
X7365106Y3213898D01*
X7358560Y3198093D01*
Y3180987D01*
X7365106Y3165182D01*
X7371749Y3158540D01*
X7365106Y3151898D01*
X7358560Y3136093D01*
Y3118987D01*
X7365106Y3103183D01*
X7377202Y3091087D01*
X7393007Y3084540D01*
X7410113D01*
X7425918Y3091087D01*
X7438014Y3103183D01*
X7444560Y3118987D01*
Y3136093D01*
X7438014Y3151898D01*
X7431371Y3158540D01*
X7438014Y3165182D01*
X7444560Y3180987D01*
Y3198093D01*
X7438014Y3213898D01*
X7425918Y3225994D01*
X7424292Y3226667D01*
Y3240413D01*
X7425918Y3241086D01*
X7438014Y3253182D01*
X7444560Y3268987D01*
Y3286093D01*
X7438014Y3301898D01*
X7431371Y3308540D01*
X7438014Y3315182D01*
X7444560Y3330987D01*
Y3348093D01*
X7438014Y3363898D01*
X7425918Y3375994D01*
X7410113Y3382540D01*
D02*
G37*
G36*
X7248426Y3024700D02*
X7224494D01*
X7202382Y3015541D01*
X7185459Y2998618D01*
X7176300Y2976506D01*
Y2952573D01*
X7185459Y2930462D01*
X7202382Y2913539D01*
X7224494Y2904380D01*
X7248426D01*
X7270538Y2913539D01*
X7287461Y2930462D01*
X7296620Y2952573D01*
Y2976506D01*
X7287461Y2998618D01*
X7270538Y3015541D01*
X7248426Y3024700D01*
D02*
G37*
G36*
X17692059Y3170180D02*
X17522060D01*
Y2970180D01*
X17553401D01*
X17555927Y2957480D01*
X17551701Y2955730D01*
X17539606Y2943634D01*
X17533060Y2927830D01*
Y2910723D01*
X17539606Y2894919D01*
X17551701Y2882823D01*
X17567506Y2876276D01*
X17584613D01*
X17600417Y2882823D01*
X17607060Y2889465D01*
X17613702Y2882823D01*
X17629507Y2876276D01*
X17646613D01*
X17662418Y2882823D01*
X17674513Y2894919D01*
X17681059Y2910723D01*
Y2927830D01*
X17674513Y2943634D01*
X17662418Y2955730D01*
X17658192Y2957480D01*
X17660719Y2970180D01*
X17692059D01*
Y3170180D01*
D02*
G37*
G36*
X17292059D02*
X17122060D01*
Y2970180D01*
X17153401D01*
X17155927Y2957480D01*
X17151701Y2955730D01*
X17139606Y2943634D01*
X17133060Y2927830D01*
Y2910723D01*
X17139606Y2894919D01*
X17151701Y2882823D01*
X17167506Y2876276D01*
X17184613D01*
X17200417Y2882823D01*
X17207060Y2889465D01*
X17213702Y2882823D01*
X17229507Y2876276D01*
X17246613D01*
X17262418Y2882823D01*
X17274513Y2894919D01*
X17281059Y2910723D01*
Y2927830D01*
X17274513Y2943634D01*
X17262418Y2955730D01*
X17258192Y2957480D01*
X17260719Y2970180D01*
X17292059D01*
Y3170180D01*
D02*
G37*
G36*
X16892059D02*
X16722060D01*
Y2970180D01*
X16753401D01*
X16755927Y2957480D01*
X16751701Y2955730D01*
X16739606Y2943634D01*
X16733060Y2927830D01*
Y2910723D01*
X16739606Y2894919D01*
X16751701Y2882823D01*
X16767506Y2876276D01*
X16784613D01*
X16800417Y2882823D01*
X16807060Y2889465D01*
X16813702Y2882823D01*
X16829506Y2876276D01*
X16846613D01*
X16862418Y2882823D01*
X16874513Y2894919D01*
X16881059Y2910723D01*
Y2927830D01*
X16874513Y2943634D01*
X16862418Y2955730D01*
X16858192Y2957480D01*
X16860718Y2970180D01*
X16892059D01*
Y3170180D01*
D02*
G37*
G36*
X16392059D02*
X16222060D01*
Y2970180D01*
X16253401D01*
X16255927Y2957480D01*
X16251701Y2955730D01*
X16239606Y2943634D01*
X16233060Y2927830D01*
Y2910723D01*
X16239606Y2894919D01*
X16251701Y2882823D01*
X16267506Y2876276D01*
X16284613D01*
X16300417Y2882823D01*
X16307060Y2889465D01*
X16313702Y2882823D01*
X16329506Y2876276D01*
X16346613D01*
X16362418Y2882823D01*
X16374513Y2894919D01*
X16381059Y2910723D01*
Y2927830D01*
X16374513Y2943634D01*
X16362418Y2955730D01*
X16358192Y2957480D01*
X16360718Y2970180D01*
X16392059D01*
Y3170180D01*
D02*
G37*
G36*
X7530460Y2973827D02*
X7460460D01*
X7441492Y2971330D01*
X7423816Y2964008D01*
X7408638Y2952362D01*
X7396992Y2937183D01*
X7389670Y2919508D01*
X7387173Y2900540D01*
X7389670Y2881572D01*
X7396992Y2863897D01*
X7408638Y2848718D01*
X7423816Y2837072D01*
X7441492Y2829750D01*
X7460460Y2827253D01*
X7530460D01*
X7549428Y2829750D01*
X7567103Y2837072D01*
X7582282Y2848718D01*
X7593928Y2863897D01*
X7601250Y2881572D01*
X7603747Y2900540D01*
X7601250Y2919508D01*
X7593928Y2937183D01*
X7582282Y2952362D01*
X7567103Y2964008D01*
X7549428Y2971330D01*
X7530460Y2973827D01*
D02*
G37*
G36*
X7051460D02*
X6981460D01*
X6962492Y2971330D01*
X6944817Y2964008D01*
X6929638Y2952362D01*
X6917992Y2937183D01*
X6910670Y2919508D01*
X6908173Y2900540D01*
X6910670Y2881572D01*
X6917992Y2863897D01*
X6929638Y2848718D01*
X6944817Y2837072D01*
X6962492Y2829750D01*
X6981460Y2827253D01*
X7051460D01*
X7070428Y2829750D01*
X7088103Y2837072D01*
X7103281Y2848718D01*
X7114928Y2863897D01*
X7122250Y2881572D01*
X7124747Y2900540D01*
X7122250Y2919508D01*
X7114928Y2937183D01*
X7103281Y2952362D01*
X7088103Y2964008D01*
X7070428Y2971330D01*
X7051460Y2973827D01*
D02*
G37*
G36*
X18246626Y2782840D02*
X18227493D01*
X18209013Y2777888D01*
X18192445Y2768322D01*
X18178917Y2754794D01*
X18169353Y2738226D01*
X18164400Y2719746D01*
Y2700614D01*
X18169353Y2682134D01*
X18178917Y2665566D01*
X18192445Y2652038D01*
X18209013Y2642472D01*
X18227493Y2637520D01*
X18246626D01*
X18265105Y2642472D01*
X18281674Y2652038D01*
X18295203Y2665566D01*
X18304768Y2682134D01*
X18309720Y2700614D01*
Y2719746D01*
X18304768Y2738226D01*
X18295203Y2754794D01*
X18281674Y2768322D01*
X18265105Y2777888D01*
X18246626Y2782840D01*
D02*
G37*
G36*
X15931625D02*
X15912494D01*
X15894014Y2777888D01*
X15877446Y2768322D01*
X15863918Y2754794D01*
X15854352Y2738226D01*
X15849400Y2719746D01*
Y2700614D01*
X15854352Y2682134D01*
X15863918Y2665566D01*
X15877446Y2652038D01*
X15894014Y2642472D01*
X15912494Y2637520D01*
X15931625D01*
X15950105Y2642472D01*
X15966673Y2652038D01*
X15980202Y2665566D01*
X15989767Y2682134D01*
X15994720Y2700614D01*
Y2719746D01*
X15989767Y2738226D01*
X15980202Y2754794D01*
X15966673Y2768322D01*
X15950105Y2777888D01*
X15931625Y2782840D01*
D02*
G37*
G36*
X16246613Y2603320D02*
X16229507D01*
X16213702Y2596774D01*
X16207060Y2590131D01*
X16200418Y2596774D01*
X16184613Y2603320D01*
X16167506D01*
X16151703Y2596774D01*
X16139607Y2584678D01*
X16133060Y2568873D01*
Y2551767D01*
X16139607Y2535962D01*
X16151703Y2523866D01*
X16167506Y2517320D01*
X16184613D01*
X16200418Y2523866D01*
X16207060Y2530509D01*
X16213702Y2523866D01*
X16229507Y2517320D01*
X16246613D01*
X16262418Y2523866D01*
X16274513Y2535962D01*
X16281059Y2551767D01*
Y2568873D01*
X16274513Y2584678D01*
X16262418Y2596774D01*
X16246613Y2603320D01*
D02*
G37*
G36*
X17846613Y2544084D02*
X17829507D01*
X17813702Y2537537D01*
X17807060Y2530895D01*
X17800418Y2537537D01*
X17784613Y2544084D01*
X17767506D01*
X17751701Y2537537D01*
X17739606Y2525441D01*
X17733060Y2509637D01*
Y2492530D01*
X17739606Y2476726D01*
X17751701Y2464630D01*
X17755927Y2462880D01*
X17753401Y2450180D01*
X17722060D01*
Y2250180D01*
X17892059D01*
Y2450180D01*
X17860719D01*
X17858192Y2462880D01*
X17862418Y2464630D01*
X17874513Y2476726D01*
X17881059Y2492530D01*
Y2509637D01*
X17874513Y2525441D01*
X17862418Y2537537D01*
X17846613Y2544084D01*
D02*
G37*
G36*
X17446613D02*
X17429507D01*
X17413702Y2537537D01*
X17407060Y2530895D01*
X17400418Y2537537D01*
X17384613Y2544084D01*
X17367506D01*
X17351701Y2537537D01*
X17339606Y2525441D01*
X17333060Y2509637D01*
Y2492530D01*
X17339606Y2476726D01*
X17351701Y2464630D01*
X17355927Y2462880D01*
X17353401Y2450180D01*
X17322060D01*
Y2250180D01*
X17492059D01*
Y2450180D01*
X17460719D01*
X17458192Y2462880D01*
X17462418Y2464630D01*
X17474513Y2476726D01*
X17481059Y2492530D01*
Y2509637D01*
X17474513Y2525441D01*
X17462418Y2537537D01*
X17446613Y2544084D01*
D02*
G37*
G36*
X17046613D02*
X17029506D01*
X17013702Y2537537D01*
X17007060Y2530895D01*
X17000417Y2537537D01*
X16984613Y2544084D01*
X16967506D01*
X16951701Y2537537D01*
X16939606Y2525441D01*
X16933060Y2509637D01*
Y2492530D01*
X16939606Y2476726D01*
X16951701Y2464630D01*
X16955927Y2462880D01*
X16953401Y2450180D01*
X16922060D01*
Y2250180D01*
X17092059D01*
Y2450180D01*
X17060718D01*
X17058192Y2462880D01*
X17062418Y2464630D01*
X17074513Y2476726D01*
X17081059Y2492530D01*
Y2509637D01*
X17074513Y2525441D01*
X17062418Y2537537D01*
X17046613Y2544084D01*
D02*
G37*
G36*
X16546613D02*
X16529506D01*
X16513702Y2537537D01*
X16507060Y2530895D01*
X16500417Y2537537D01*
X16484613Y2544084D01*
X16467506D01*
X16451701Y2537537D01*
X16439606Y2525441D01*
X16433060Y2509637D01*
Y2492530D01*
X16439606Y2476726D01*
X16451701Y2464630D01*
X16455927Y2462880D01*
X16453401Y2450180D01*
X16422060D01*
Y2250180D01*
X16592059D01*
Y2450180D01*
X16560718D01*
X16558192Y2462880D01*
X16562418Y2464630D01*
X16574513Y2476726D01*
X16581059Y2492530D01*
Y2509637D01*
X16574513Y2525441D01*
X16562418Y2537537D01*
X16546613Y2544084D01*
D02*
G37*
G36*
X10507527Y2366560D02*
X10432538D01*
Y2276560D01*
X10507527D01*
Y2366560D01*
D02*
G37*
G36*
X10407527D02*
X10332538D01*
Y2276560D01*
X10407527D01*
Y2366560D01*
D02*
G37*
G36*
X10307527D02*
X10232539D01*
Y2276560D01*
X10307527D01*
Y2366560D01*
D02*
G37*
G36*
X10207527D02*
X10132539D01*
Y2276560D01*
X10207527D01*
Y2366560D01*
D02*
G37*
G36*
X10107527D02*
X10032539D01*
Y2276560D01*
X10107527D01*
Y2366560D01*
D02*
G37*
G36*
X10007528D02*
X9932539D01*
Y2276560D01*
X10007528D01*
Y2366560D01*
D02*
G37*
G36*
X9907528D02*
X9832539D01*
Y2276560D01*
X9907528D01*
Y2366560D01*
D02*
G37*
G36*
X9807528D02*
X9732540D01*
Y2276560D01*
X9807528D01*
Y2366560D01*
D02*
G37*
G36*
X9707528D02*
X9632540D01*
Y2276560D01*
X9707528D01*
Y2366560D01*
D02*
G37*
G36*
X9607528D02*
X9532540D01*
Y2276560D01*
X9607528D01*
Y2366560D01*
D02*
G37*
G36*
X16292059Y2450180D02*
X16122060D01*
Y2250180D01*
X16292059D01*
Y2450180D01*
D02*
G37*
G36*
X10509586Y2262960D02*
X10492479D01*
X10476675Y2256414D01*
X10470032Y2249771D01*
X10463390Y2256414D01*
X10447586Y2262960D01*
X10430479D01*
X10414675Y2256414D01*
X10402579Y2244318D01*
X10396033Y2228513D01*
Y2211407D01*
X10387105Y2199774D01*
X10376675Y2195454D01*
X10370033Y2188811D01*
X10363390Y2195454D01*
X10352960Y2199774D01*
X10344033Y2211407D01*
Y2228513D01*
X10337486Y2244318D01*
X10325390Y2256414D01*
X10309586Y2262960D01*
X10292480D01*
X10276675Y2256414D01*
X10270033Y2249771D01*
X10263390Y2256414D01*
X10247586Y2262960D01*
X10230480D01*
X10214675Y2256414D01*
X10202579Y2244318D01*
X10196033Y2228513D01*
Y2211407D01*
X10187105Y2199774D01*
X10176675Y2195454D01*
X10170033Y2188811D01*
X10163391Y2195454D01*
X10152961Y2199774D01*
X10144033Y2211407D01*
Y2228513D01*
X10137487Y2244318D01*
X10125391Y2256414D01*
X10109586Y2262960D01*
X10092480D01*
X10076676Y2256414D01*
X10070033Y2249771D01*
X10063391Y2256414D01*
X10047586Y2262960D01*
X10030480D01*
X10014676Y2256414D01*
X10002580Y2244318D01*
X9996033Y2228513D01*
Y2211407D01*
X9987106Y2199774D01*
X9976676Y2195454D01*
X9970033Y2188811D01*
X9963391Y2195454D01*
X9952961Y2199774D01*
X9944033Y2211407D01*
Y2228513D01*
X9937487Y2244318D01*
X9925391Y2256414D01*
X9909587Y2262960D01*
X9892480D01*
X9876676Y2256414D01*
X9870034Y2249771D01*
X9863391Y2256414D01*
X9847587Y2262960D01*
X9830480D01*
X9814676Y2256414D01*
X9802580Y2244318D01*
X9796034Y2228513D01*
Y2211407D01*
X9787106Y2199774D01*
X9776676Y2195454D01*
X9770034Y2188811D01*
X9763391Y2195454D01*
X9747587Y2202000D01*
X9730481D01*
X9714676Y2195454D01*
X9702580Y2183358D01*
X9696034Y2167553D01*
Y2150447D01*
X9702580Y2134642D01*
X9714676Y2122546D01*
X9730481Y2116000D01*
X9747587D01*
X9763391Y2122546D01*
X9770034Y2129189D01*
X9776676Y2122546D01*
X9792481Y2116000D01*
X9809587D01*
X9825391Y2122546D01*
X9837487Y2134642D01*
X9844034Y2150447D01*
Y2167553D01*
X9852961Y2179186D01*
X9863391Y2183506D01*
X9870034Y2190149D01*
X9876676Y2183506D01*
X9887106Y2179186D01*
X9896034Y2167553D01*
Y2150447D01*
X9902580Y2134642D01*
X9914676Y2122546D01*
X9930480Y2116000D01*
X9947587D01*
X9963391Y2122546D01*
X9970033Y2129189D01*
X9976676Y2122546D01*
X9992480Y2116000D01*
X10009587D01*
X10025391Y2122546D01*
X10037487Y2134642D01*
X10044033Y2150447D01*
Y2167553D01*
X10052961Y2179186D01*
X10063391Y2183506D01*
X10070033Y2190149D01*
X10076676Y2183506D01*
X10087105Y2179186D01*
X10096033Y2167553D01*
Y2150447D01*
X10102579Y2134642D01*
X10114675Y2122546D01*
X10130480Y2116000D01*
X10147586D01*
X10163391Y2122546D01*
X10170033Y2129189D01*
X10176675Y2122546D01*
X10192480Y2116000D01*
X10209586D01*
X10225391Y2122546D01*
X10237487Y2134642D01*
X10244033Y2150447D01*
Y2167553D01*
X10252961Y2179186D01*
X10263390Y2183506D01*
X10270033Y2190149D01*
X10276675Y2183506D01*
X10287105Y2179186D01*
X10296033Y2167553D01*
Y2150447D01*
X10302579Y2134642D01*
X10314675Y2122546D01*
X10330479Y2116000D01*
X10347586D01*
X10363390Y2122546D01*
X10370033Y2129189D01*
X10376675Y2122546D01*
X10392479Y2116000D01*
X10409586D01*
X10425390Y2122546D01*
X10437486Y2134642D01*
X10444032Y2150447D01*
Y2167553D01*
X10452960Y2179186D01*
X10463390Y2183506D01*
X10470032Y2190149D01*
X10476675Y2183506D01*
X10492479Y2176960D01*
X10509586D01*
X10525390Y2183506D01*
X10537486Y2195602D01*
X10544032Y2211407D01*
Y2228513D01*
X10537486Y2244318D01*
X10525390Y2256414D01*
X10509586Y2262960D01*
D02*
G37*
G36*
X16892059Y1897640D02*
X16722060D01*
Y1697640D01*
X16747672D01*
X16752933Y1684940D01*
X16746027Y1678034D01*
X16739481Y1662230D01*
Y1645123D01*
X16746027Y1629319D01*
X16758122Y1617223D01*
X16773926Y1610676D01*
X16791032D01*
X16806837Y1617223D01*
X16813480Y1623865D01*
X16820122Y1617223D01*
X16835925Y1610676D01*
X16853033D01*
X16868837Y1617223D01*
X16880933Y1629319D01*
X16887479Y1645123D01*
Y1662230D01*
X16880933Y1678034D01*
X16874026Y1684940D01*
X16879288Y1697640D01*
X16892059D01*
Y1897640D01*
D02*
G37*
G36*
X17692059D02*
X17522060D01*
Y1697640D01*
X17553401D01*
X17555927Y1684940D01*
X17551701Y1683190D01*
X17539606Y1671094D01*
X17533060Y1655290D01*
Y1638183D01*
X17539606Y1622379D01*
X17551701Y1610283D01*
X17567506Y1603736D01*
X17584613D01*
X17600417Y1610283D01*
X17607060Y1616925D01*
X17613702Y1610283D01*
X17629507Y1603736D01*
X17646613D01*
X17662418Y1610283D01*
X17674513Y1622379D01*
X17681059Y1638183D01*
Y1655290D01*
X17674513Y1671094D01*
X17662418Y1683190D01*
X17658192Y1684940D01*
X17660719Y1697640D01*
X17692059D01*
Y1897640D01*
D02*
G37*
G36*
X17292059Y1894322D02*
X17122060D01*
Y1694322D01*
X17146242D01*
X17148843Y1689017D01*
X17150134Y1681622D01*
X17139606Y1671094D01*
X17133060Y1655290D01*
Y1638183D01*
X17139606Y1622379D01*
X17151701Y1610283D01*
X17167506Y1603736D01*
X17184613D01*
X17200417Y1610283D01*
X17207060Y1616925D01*
X17213702Y1610283D01*
X17229507Y1603736D01*
X17246613D01*
X17262418Y1610283D01*
X17274513Y1622379D01*
X17281059Y1638183D01*
Y1655290D01*
X17274513Y1671094D01*
X17263985Y1681622D01*
X17265276Y1689017D01*
X17267879Y1694322D01*
X17292059D01*
Y1894322D01*
D02*
G37*
G36*
X16392059Y1897640D02*
X16222060D01*
Y1697640D01*
X16253401D01*
X16255927Y1684940D01*
X16251701Y1683190D01*
X16239606Y1671094D01*
X16233060Y1655290D01*
Y1638183D01*
X16239606Y1622379D01*
X16251701Y1610283D01*
X16267506Y1603736D01*
X16284613D01*
X16300417Y1610283D01*
X16307060Y1616925D01*
X16313702Y1610283D01*
X16329506Y1603736D01*
X16346613D01*
X16362418Y1610283D01*
X16374513Y1622379D01*
X16381059Y1638183D01*
Y1655290D01*
X16374513Y1671094D01*
X16362418Y1683190D01*
X16358192Y1684940D01*
X16360718Y1697640D01*
X16392059D01*
Y1897640D01*
D02*
G37*
G36*
X18246626Y1510300D02*
X18227493D01*
X18209013Y1505348D01*
X18192445Y1495782D01*
X18178917Y1482254D01*
X18169353Y1465686D01*
X18164400Y1447206D01*
Y1428074D01*
X18169353Y1409594D01*
X18178917Y1393026D01*
X18192445Y1379498D01*
X18209013Y1369932D01*
X18227493Y1364980D01*
X18246626D01*
X18265105Y1369932D01*
X18281674Y1379498D01*
X18295203Y1393026D01*
X18304768Y1409594D01*
X18309720Y1428074D01*
Y1447206D01*
X18304768Y1465686D01*
X18295203Y1482254D01*
X18281674Y1495782D01*
X18265105Y1505348D01*
X18246626Y1510300D01*
D02*
G37*
G36*
X15931625D02*
X15912494D01*
X15894014Y1505348D01*
X15877446Y1495782D01*
X15863918Y1482254D01*
X15854352Y1465686D01*
X15849400Y1447206D01*
Y1428074D01*
X15854352Y1409594D01*
X15863918Y1393026D01*
X15877446Y1379498D01*
X15894014Y1369932D01*
X15912494Y1364980D01*
X15931625D01*
X15950105Y1369932D01*
X15966673Y1379498D01*
X15980202Y1393026D01*
X15989767Y1409594D01*
X15994720Y1428074D01*
Y1447206D01*
X15989767Y1465686D01*
X15980202Y1482254D01*
X15966673Y1495782D01*
X15950105Y1505348D01*
X15931625Y1510300D01*
D02*
G37*
G36*
X16246613Y1330780D02*
X16229507D01*
X16213702Y1324234D01*
X16207060Y1317591D01*
X16200418Y1324234D01*
X16184613Y1330780D01*
X16167506D01*
X16151703Y1324234D01*
X16139607Y1312138D01*
X16133060Y1296333D01*
Y1279227D01*
X16139607Y1263422D01*
X16151703Y1251326D01*
X16167506Y1244780D01*
X16184613D01*
X16200418Y1251326D01*
X16207060Y1257969D01*
X16213702Y1251326D01*
X16229507Y1244780D01*
X16246613D01*
X16262418Y1251326D01*
X16274513Y1263422D01*
X16281059Y1279227D01*
Y1296333D01*
X16274513Y1312138D01*
X16262418Y1324234D01*
X16246613Y1330780D01*
D02*
G37*
G36*
X17846613Y1271544D02*
X17829507D01*
X17813702Y1264997D01*
X17807060Y1258355D01*
X17800418Y1264997D01*
X17784613Y1271544D01*
X17767506D01*
X17751701Y1264997D01*
X17739606Y1252901D01*
X17733060Y1237097D01*
Y1219990D01*
X17739606Y1204186D01*
X17751701Y1192090D01*
X17755927Y1190340D01*
X17753401Y1177640D01*
X17722060D01*
Y977640D01*
X17892059D01*
Y1177640D01*
X17860719D01*
X17858192Y1190340D01*
X17862418Y1192090D01*
X17874513Y1204186D01*
X17881059Y1219990D01*
Y1237097D01*
X17874513Y1252901D01*
X17862418Y1264997D01*
X17846613Y1271544D01*
D02*
G37*
G36*
X17446613D02*
X17429507D01*
X17413702Y1264997D01*
X17407060Y1258355D01*
X17400418Y1264997D01*
X17384613Y1271544D01*
X17367506D01*
X17351701Y1264997D01*
X17339606Y1252901D01*
X17333060Y1237097D01*
Y1219990D01*
X17339606Y1204186D01*
X17351701Y1192090D01*
X17355927Y1190340D01*
X17353401Y1177640D01*
X17322060D01*
Y977640D01*
X17492059D01*
Y1177640D01*
X17460719D01*
X17458192Y1190340D01*
X17462418Y1192090D01*
X17474513Y1204186D01*
X17481059Y1219990D01*
Y1237097D01*
X17474513Y1252901D01*
X17462418Y1264997D01*
X17446613Y1271544D01*
D02*
G37*
G36*
X17046613D02*
X17029506D01*
X17013702Y1264997D01*
X17007060Y1258355D01*
X17000417Y1264997D01*
X16984613Y1271544D01*
X16967506D01*
X16951701Y1264997D01*
X16939606Y1252901D01*
X16933060Y1237097D01*
Y1219990D01*
X16939606Y1204186D01*
X16951701Y1192090D01*
X16955927Y1190340D01*
X16953401Y1177640D01*
X16922060D01*
Y977640D01*
X17092059D01*
Y1177640D01*
X17060718D01*
X17058192Y1190340D01*
X17062418Y1192090D01*
X17074513Y1204186D01*
X17081059Y1219990D01*
Y1237097D01*
X17074513Y1252901D01*
X17062418Y1264997D01*
X17046613Y1271544D01*
D02*
G37*
G36*
X16546613D02*
X16529506D01*
X16513702Y1264997D01*
X16507060Y1258355D01*
X16500417Y1264997D01*
X16484613Y1271544D01*
X16467506D01*
X16451701Y1264997D01*
X16439606Y1252901D01*
X16433060Y1237097D01*
Y1219990D01*
X16439606Y1204186D01*
X16451701Y1192090D01*
X16455927Y1190340D01*
X16453401Y1177640D01*
X16422060D01*
Y977640D01*
X16592059D01*
Y1177640D01*
X16560718D01*
X16558192Y1190340D01*
X16562418Y1192090D01*
X16574513Y1204186D01*
X16581059Y1219990D01*
Y1237097D01*
X16574513Y1252901D01*
X16562418Y1264997D01*
X16546613Y1271544D01*
D02*
G37*
G36*
X10512873Y1229910D02*
X10437885D01*
Y1139910D01*
X10512873D01*
Y1229910D01*
D02*
G37*
G36*
X10412874D02*
X10337885D01*
Y1139910D01*
X10412874D01*
Y1229910D01*
D02*
G37*
G36*
X10312874D02*
X10237885D01*
Y1139910D01*
X10312874D01*
Y1229910D01*
D02*
G37*
G36*
X10212874D02*
X10137885D01*
Y1139910D01*
X10212874D01*
Y1229910D01*
D02*
G37*
G36*
X10112874D02*
X10037886D01*
Y1139910D01*
X10112874D01*
Y1229910D01*
D02*
G37*
G36*
X10012874D02*
X9937886D01*
Y1139910D01*
X10012874D01*
Y1229910D01*
D02*
G37*
G36*
X9912875D02*
X9837886D01*
Y1139910D01*
X9912875D01*
Y1229910D01*
D02*
G37*
G36*
X9812875D02*
X9737886D01*
Y1139910D01*
X9812875D01*
Y1229910D01*
D02*
G37*
G36*
X9712875D02*
X9637886D01*
Y1139910D01*
X9712875D01*
Y1229910D01*
D02*
G37*
G36*
X9612875D02*
X9537887D01*
Y1139910D01*
X9612875D01*
Y1229910D01*
D02*
G37*
G36*
X11369973Y1219020D02*
X11352867D01*
X11337062Y1212474D01*
X11324966Y1200378D01*
X11318420Y1184573D01*
Y1167467D01*
X11324966Y1151662D01*
X11337062Y1139566D01*
X11352867Y1133020D01*
X11369973D01*
X11385778Y1139566D01*
X11397874Y1151662D01*
X11404420Y1167467D01*
Y1184573D01*
X11397874Y1200378D01*
X11385778Y1212474D01*
X11369973Y1219020D01*
D02*
G37*
G36*
X10352846Y1073121D02*
X10335739D01*
X10319935Y1066574D01*
X10307839Y1054478D01*
X10301293Y1038674D01*
Y1021567D01*
X10307839Y1005763D01*
X10319935Y993667D01*
X10335739Y987121D01*
X10352846D01*
X10368650Y993667D01*
X10374977Y999994D01*
X10381932Y993040D01*
X10397736Y986494D01*
X10414843D01*
X10430647Y993040D01*
X10442743Y1005136D01*
X10449289Y1020940D01*
Y1038047D01*
X10442743Y1053851D01*
X10430647Y1065947D01*
X10414843Y1072493D01*
X10397736D01*
X10381932Y1065947D01*
X10375604Y1059620D01*
X10368650Y1066574D01*
X10352846Y1073121D01*
D02*
G37*
G36*
X10152846D02*
X10135740D01*
X10119935Y1066574D01*
X10107839Y1054478D01*
X10101293Y1038674D01*
Y1021567D01*
X10107839Y1005763D01*
X10119935Y993667D01*
X10135740Y987121D01*
X10152846D01*
X10168650Y993667D01*
X10174978Y999994D01*
X10181932Y993040D01*
X10197737Y986494D01*
X10214843D01*
X10230647Y993040D01*
X10242743Y1005136D01*
X10249290Y1020940D01*
Y1038047D01*
X10242743Y1053851D01*
X10230647Y1065947D01*
X10214843Y1072493D01*
X10197737D01*
X10181932Y1065947D01*
X10175605Y1059620D01*
X10168650Y1066574D01*
X10152846Y1073121D01*
D02*
G37*
G36*
X9952846D02*
X9935740D01*
X9919936Y1066574D01*
X9907840Y1054478D01*
X9901293Y1038674D01*
Y1021567D01*
X9907840Y1005763D01*
X9919936Y993667D01*
X9935740Y987121D01*
X9952846D01*
X9968651Y993667D01*
X9974978Y999994D01*
X9981933Y993040D01*
X9997737Y986494D01*
X10014843D01*
X10030648Y993040D01*
X10042744Y1005136D01*
X10049290Y1020940D01*
Y1038047D01*
X10042744Y1053851D01*
X10030648Y1065947D01*
X10014843Y1072493D01*
X9997737D01*
X9981933Y1065947D01*
X9975605Y1059620D01*
X9968651Y1066574D01*
X9952846Y1073121D01*
D02*
G37*
G36*
X9752847D02*
X9735740D01*
X9719936Y1066574D01*
X9707840Y1054478D01*
X9701294Y1038674D01*
Y1021567D01*
X9707840Y1005763D01*
X9719936Y993667D01*
X9735740Y987121D01*
X9752847D01*
X9768651Y993667D01*
X9774979Y999994D01*
X9781933Y993040D01*
X9797737Y986494D01*
X9814844D01*
X9830648Y993040D01*
X9842744Y1005136D01*
X9849290Y1020940D01*
Y1038047D01*
X9842744Y1053851D01*
X9830648Y1065947D01*
X9814844Y1072493D01*
X9797737D01*
X9781933Y1065947D01*
X9775606Y1059620D01*
X9768651Y1066574D01*
X9752847Y1073121D01*
D02*
G37*
G36*
X16292059Y1177640D02*
X16122060D01*
Y977640D01*
X16292059D01*
Y1177640D01*
D02*
G37*
G36*
X10514932Y954860D02*
X10497826D01*
X10482021Y948314D01*
X10475379Y941671D01*
X10468737Y948314D01*
X10452932Y954860D01*
X10435826D01*
X10420022Y948314D01*
X10407926Y936218D01*
X10401379Y920413D01*
Y903307D01*
X10407926Y887502D01*
X10420022Y875406D01*
X10435826Y868860D01*
X10452932D01*
X10468737Y875406D01*
X10475379Y882049D01*
X10482021Y875406D01*
X10497826Y868860D01*
X10514932D01*
X10530737Y875406D01*
X10542833Y887502D01*
X10549379Y903307D01*
Y920413D01*
X10542833Y936218D01*
X10530737Y948314D01*
X10514932Y954860D01*
D02*
G37*
G36*
X10314933D02*
X10297826D01*
X10282022Y948314D01*
X10275379Y941671D01*
X10268737Y948314D01*
X10252933Y954860D01*
X10235826D01*
X10220022Y948314D01*
X10207926Y936218D01*
X10201380Y920413D01*
Y903307D01*
X10207926Y887502D01*
X10220022Y875406D01*
X10235826Y868860D01*
X10252933D01*
X10268737Y875406D01*
X10275379Y882049D01*
X10282022Y875406D01*
X10297826Y868860D01*
X10314933D01*
X10330737Y875406D01*
X10342833Y887502D01*
X10349379Y903307D01*
Y920413D01*
X10342833Y936218D01*
X10330737Y948314D01*
X10314933Y954860D01*
D02*
G37*
G36*
X10114933D02*
X10097827D01*
X10082022Y948314D01*
X10075380Y941671D01*
X10068738Y948314D01*
X10052933Y954860D01*
X10035827D01*
X10020022Y948314D01*
X10007926Y936218D01*
X10001380Y920413D01*
Y903307D01*
X10007926Y887502D01*
X10020022Y875406D01*
X10035827Y868860D01*
X10052933D01*
X10068738Y875406D01*
X10075380Y882049D01*
X10082022Y875406D01*
X10097827Y868860D01*
X10114933D01*
X10130737Y875406D01*
X10142833Y887502D01*
X10149380Y903307D01*
Y920413D01*
X10142833Y936218D01*
X10130737Y948314D01*
X10114933Y954860D01*
D02*
G37*
G36*
X9914933D02*
X9897827D01*
X9882023Y948314D01*
X9875380Y941671D01*
X9868738Y948314D01*
X9852934Y954860D01*
X9835827D01*
X9820023Y948314D01*
X9807927Y936218D01*
X9801380Y920413D01*
Y903307D01*
X9807927Y887502D01*
X9820023Y875406D01*
X9835827Y868860D01*
X9852934D01*
X9868738Y875406D01*
X9875380Y882049D01*
X9882023Y875406D01*
X9897827Y868860D01*
X9914933D01*
X9930738Y875406D01*
X9942834Y887502D01*
X9949380Y903307D01*
Y920413D01*
X9942834Y936218D01*
X9930738Y948314D01*
X9914933Y954860D01*
D02*
G37*
G36*
X10346383Y1609633D02*
X10334589Y1608080D01*
X10333073Y1608071D01*
X10127374Y1565896D01*
X9650872Y1468195D01*
X9642421Y1466463D01*
X9638636Y1465782D01*
X9638690Y1465578D01*
X9629578Y1463136D01*
X9602891Y1455987D01*
X9598742Y1466004D01*
X9586646Y1478100D01*
X9570842Y1484646D01*
X9553736D01*
X9537931Y1478100D01*
X9525835Y1466004D01*
X9519289Y1450199D01*
Y1433093D01*
X9525835Y1417289D01*
X9537931Y1405193D01*
X9540980Y1403930D01*
X9535340Y1390313D01*
Y1373207D01*
X9541886Y1357402D01*
X9553982Y1345306D01*
X9569787Y1338760D01*
X9586893D01*
X9602698Y1345306D01*
X9614794Y1357402D01*
X9621340Y1373207D01*
Y1389821D01*
X9644180Y1395940D01*
X9656543Y1398253D01*
X9656710Y1398323D01*
X9668855Y1401768D01*
X10138062Y1497972D01*
X10334477Y1538244D01*
X10334823Y1538312D01*
X10346031Y1539703D01*
X10346047Y1539689D01*
X10346047D01*
X10346384Y1539549D01*
X10347065Y1539832D01*
X10358920Y1539346D01*
X10719294Y1499790D01*
X11294085Y1436699D01*
X11558511Y1205325D01*
X11558917Y1205091D01*
X11568696Y1197799D01*
X11579779Y1191594D01*
X11975015Y962327D01*
X11975023Y962306D01*
X11974929Y962144D01*
X11974988Y962098D01*
X11991023Y955458D01*
X11998081Y954528D01*
X11999854Y953935D01*
X12577800Y880310D01*
X12580129Y879855D01*
X12590378Y877666D01*
X12601664Y873764D01*
X12697087Y832497D01*
X12699106Y821917D01*
X12692560Y806113D01*
Y789007D01*
X12699106Y773202D01*
X12711202Y761106D01*
X12727007Y754560D01*
X12744113D01*
X12759918Y761106D01*
X12768460Y769649D01*
X12773078Y765031D01*
X12788882Y758485D01*
X12805989D01*
X12821793Y765031D01*
X12833888Y777127D01*
X12840434Y792932D01*
Y810038D01*
X12833888Y825842D01*
X12821793Y837938D01*
X12805989Y844485D01*
X12794231D01*
X12790814Y852735D01*
X12780248Y866504D01*
X12766479Y877070D01*
X12760911Y879376D01*
X12759543Y880321D01*
X12627816Y937288D01*
X12617018Y941957D01*
X12617204Y942386D01*
X12616541Y942829D01*
X12616459Y942845D01*
X12608050Y945295D01*
X12608022Y945304D01*
X12605340Y945656D01*
X12600962Y946233D01*
X12599189Y946826D01*
X12021460Y1020423D01*
X12009910Y1022580D01*
X12008678Y1023090D01*
X11998146Y1028315D01*
X11614378Y1250930D01*
X11604346Y1257940D01*
X11603745Y1258188D01*
X11594008Y1265533D01*
X11334907Y1492248D01*
X11334948Y1492295D01*
X11321333Y1501393D01*
X11308870Y1503872D01*
X11307400Y1504336D01*
X10725005Y1568261D01*
X10364606Y1607820D01*
X10353414Y1609048D01*
X10352013Y1609156D01*
X10346383Y1609633D01*
D02*
G37*
G36*
X19534813Y750627D02*
X19517706D01*
X19501901Y744081D01*
X19495261Y737438D01*
X19488618Y744081D01*
X19472813Y750627D01*
X19455707D01*
X19439902Y744081D01*
X19427806Y731985D01*
X19421260Y716180D01*
Y699074D01*
X19427806Y683269D01*
X19439902Y671173D01*
X19455707Y664627D01*
X19472813D01*
X19488618Y671173D01*
X19495261Y677816D01*
X19501901Y671173D01*
X19517706Y664627D01*
X19534813D01*
X19550616Y671173D01*
X19562714Y683269D01*
X19569260Y699074D01*
Y716180D01*
X19562714Y731985D01*
X19550616Y744081D01*
X19534813Y750627D01*
D02*
G37*
G36*
X19134813D02*
X19117706D01*
X19101901Y744081D01*
X19095261Y737438D01*
X19088618Y744081D01*
X19072813Y750627D01*
X19055707D01*
X19039902Y744081D01*
X19027806Y731985D01*
X19021260Y716180D01*
Y699074D01*
X19027806Y683269D01*
X19039902Y671173D01*
X19055707Y664627D01*
X19072813D01*
X19088618Y671173D01*
X19095261Y677816D01*
X19101901Y671173D01*
X19117706Y664627D01*
X19134813D01*
X19150618Y671173D01*
X19162714Y683269D01*
X19169260Y699074D01*
Y716180D01*
X19162714Y731985D01*
X19150618Y744081D01*
X19134813Y750627D01*
D02*
G37*
G36*
X18734813D02*
X18717706D01*
X18701901Y744081D01*
X18695261Y737438D01*
X18688617Y744081D01*
X18672813Y750627D01*
X18655707D01*
X18639902Y744081D01*
X18627806Y731985D01*
X18621260Y716180D01*
Y699074D01*
X18627806Y683269D01*
X18639902Y671173D01*
X18655707Y664627D01*
X18672813D01*
X18688617Y671173D01*
X18695261Y677816D01*
X18701901Y671173D01*
X18717706Y664627D01*
X18734813D01*
X18750616Y671173D01*
X18762714Y683269D01*
X18769260Y699074D01*
Y716180D01*
X18762714Y731985D01*
X18750616Y744081D01*
X18734813Y750627D01*
D02*
G37*
G36*
X18334813D02*
X18317706D01*
X18301901Y744081D01*
X18295261Y737438D01*
X18288617Y744081D01*
X18272813Y750627D01*
X18255707D01*
X18239902Y744081D01*
X18227806Y731985D01*
X18221260Y716180D01*
Y699074D01*
X18227806Y683269D01*
X18239902Y671173D01*
X18255707Y664627D01*
X18272813D01*
X18288617Y671173D01*
X18295261Y677816D01*
X18301901Y671173D01*
X18317706Y664627D01*
X18334813D01*
X18350616Y671173D01*
X18362714Y683269D01*
X18369260Y699074D01*
Y716180D01*
X18362714Y731985D01*
X18350616Y744081D01*
X18334813Y750627D01*
D02*
G37*
G36*
X17934813D02*
X17917706D01*
X17901901Y744081D01*
X17895261Y737438D01*
X17888618Y744081D01*
X17872813Y750627D01*
X17855707D01*
X17839902Y744081D01*
X17827806Y731985D01*
X17821260Y716180D01*
Y699074D01*
X17827806Y683269D01*
X17839902Y671173D01*
X17855707Y664627D01*
X17872813D01*
X17888618Y671173D01*
X17895261Y677816D01*
X17901901Y671173D01*
X17917706Y664627D01*
X17934813D01*
X17950616Y671173D01*
X17962714Y683269D01*
X17969260Y699074D01*
Y716180D01*
X17962714Y731985D01*
X17950616Y744081D01*
X17934813Y750627D01*
D02*
G37*
G36*
X17534813D02*
X17517706D01*
X17501901Y744081D01*
X17495261Y737438D01*
X17488618Y744081D01*
X17472813Y750627D01*
X17455707D01*
X17439902Y744081D01*
X17427806Y731985D01*
X17421260Y716180D01*
Y699074D01*
X17427806Y683269D01*
X17439902Y671173D01*
X17455707Y664627D01*
X17472813D01*
X17488618Y671173D01*
X17495261Y677816D01*
X17501901Y671173D01*
X17517706Y664627D01*
X17534813D01*
X17550616Y671173D01*
X17562714Y683269D01*
X17569260Y699074D01*
Y716180D01*
X17562714Y731985D01*
X17550616Y744081D01*
X17534813Y750627D01*
D02*
G37*
G36*
X17134813D02*
X17117706D01*
X17101901Y744081D01*
X17095261Y737438D01*
X17088618Y744081D01*
X17072813Y750627D01*
X17055707D01*
X17039902Y744081D01*
X17027806Y731985D01*
X17021260Y716180D01*
Y699074D01*
X17027806Y683269D01*
X17039902Y671173D01*
X17055707Y664627D01*
X17072813D01*
X17088618Y671173D01*
X17095261Y677816D01*
X17101901Y671173D01*
X17117706Y664627D01*
X17134813D01*
X17150616Y671173D01*
X17162714Y683269D01*
X17169260Y699074D01*
Y716180D01*
X17162714Y731985D01*
X17150616Y744081D01*
X17134813Y750627D01*
D02*
G37*
G36*
X16734813D02*
X16717706D01*
X16701901Y744081D01*
X16695261Y737438D01*
X16688618Y744081D01*
X16672813Y750627D01*
X16655707D01*
X16639902Y744081D01*
X16627806Y731985D01*
X16621260Y716180D01*
Y699074D01*
X16627806Y683269D01*
X16639902Y671173D01*
X16655707Y664627D01*
X16672813D01*
X16688618Y671173D01*
X16695261Y677816D01*
X16701901Y671173D01*
X16717706Y664627D01*
X16734813D01*
X16750618Y671173D01*
X16762714Y683269D01*
X16769260Y699074D01*
Y716180D01*
X16762714Y731985D01*
X16750618Y744081D01*
X16734813Y750627D01*
D02*
G37*
G36*
X16234813D02*
X16217706D01*
X16201901Y744081D01*
X16195261Y737438D01*
X16188618Y744081D01*
X16172813Y750627D01*
X16155707D01*
X16139902Y744081D01*
X16127806Y731985D01*
X16121260Y716180D01*
Y699074D01*
X16127806Y683269D01*
X16139902Y671173D01*
X16155707Y664627D01*
X16172813D01*
X16188618Y671173D01*
X16195261Y677816D01*
X16201901Y671173D01*
X16217706Y664627D01*
X16234813D01*
X16250616Y671173D01*
X16262714Y683269D01*
X16269260Y699074D01*
Y716180D01*
X16262714Y731985D01*
X16250616Y744081D01*
X16234813Y750627D01*
D02*
G37*
G36*
X15834813D02*
X15817706D01*
X15801901Y744081D01*
X15795261Y737438D01*
X15788618Y744081D01*
X15772813Y750627D01*
X15755707D01*
X15739902Y744081D01*
X15727806Y731985D01*
X15721260Y716180D01*
Y699074D01*
X15727806Y683269D01*
X15739902Y671173D01*
X15755707Y664627D01*
X15772813D01*
X15788618Y671173D01*
X15795261Y677816D01*
X15801901Y671173D01*
X15817706Y664627D01*
X15834813D01*
X15850618Y671173D01*
X15862714Y683269D01*
X15869260Y699074D01*
Y716180D01*
X15862714Y731985D01*
X15850618Y744081D01*
X15834813Y750627D01*
D02*
G37*
G36*
X15434813D02*
X15417706D01*
X15401901Y744081D01*
X15395261Y737438D01*
X15388618Y744081D01*
X15372813Y750627D01*
X15355707D01*
X15339903Y744081D01*
X15327808Y731985D01*
X15321260Y716180D01*
Y699074D01*
X15327808Y683269D01*
X15339903Y671173D01*
X15355707Y664627D01*
X15372813D01*
X15388618Y671173D01*
X15395261Y677816D01*
X15401901Y671173D01*
X15417706Y664627D01*
X15434813D01*
X15450618Y671173D01*
X15462714Y683269D01*
X15469260Y699074D01*
Y716180D01*
X15462714Y731985D01*
X15450618Y744081D01*
X15434813Y750627D01*
D02*
G37*
G36*
X15034813D02*
X15017706D01*
X15001901Y744081D01*
X14995261Y737438D01*
X14988618Y744081D01*
X14972813Y750627D01*
X14955707D01*
X14939903Y744081D01*
X14927808Y731985D01*
X14921260Y716180D01*
Y699074D01*
X14927808Y683269D01*
X14939903Y671173D01*
X14955707Y664627D01*
X14972813D01*
X14988618Y671173D01*
X14995261Y677816D01*
X15001901Y671173D01*
X15017706Y664627D01*
X15034813D01*
X15050618Y671173D01*
X15062714Y683269D01*
X15069260Y699074D01*
Y716180D01*
X15062714Y731985D01*
X15050618Y744081D01*
X15034813Y750627D01*
D02*
G37*
G36*
X14434813D02*
X14417706D01*
X14401901Y744081D01*
X14395261Y737438D01*
X14388618Y744081D01*
X14372813Y750627D01*
X14355707D01*
X14339902Y744081D01*
X14327806Y731985D01*
X14321260Y716180D01*
Y699074D01*
X14327806Y683269D01*
X14339902Y671173D01*
X14355707Y664627D01*
X14372813D01*
X14388618Y671173D01*
X14395261Y677816D01*
X14401901Y671173D01*
X14417706Y664627D01*
X14434813D01*
X14450618Y671173D01*
X14462714Y683269D01*
X14469260Y699074D01*
Y716180D01*
X14462714Y731985D01*
X14450618Y744081D01*
X14434813Y750627D01*
D02*
G37*
G36*
X14034813D02*
X14017706D01*
X14001901Y744081D01*
X13995261Y737438D01*
X13988618Y744081D01*
X13972813Y750627D01*
X13955707D01*
X13939903Y744081D01*
X13927808Y731985D01*
X13921260Y716180D01*
Y699074D01*
X13927808Y683269D01*
X13939903Y671173D01*
X13955707Y664627D01*
X13972813D01*
X13988618Y671173D01*
X13995261Y677816D01*
X14001901Y671173D01*
X14017706Y664627D01*
X14034813D01*
X14050618Y671173D01*
X14062714Y683269D01*
X14069260Y699074D01*
Y716180D01*
X14062714Y731985D01*
X14050618Y744081D01*
X14034813Y750627D01*
D02*
G37*
G36*
X13634813D02*
X13617706D01*
X13601901Y744081D01*
X13595261Y737438D01*
X13588617Y744081D01*
X13572813Y750627D01*
X13555707D01*
X13539902Y744081D01*
X13527806Y731985D01*
X13521260Y716180D01*
Y699074D01*
X13527806Y683269D01*
X13539902Y671173D01*
X13555707Y664627D01*
X13572813D01*
X13588617Y671173D01*
X13595261Y677816D01*
X13601901Y671173D01*
X13617706Y664627D01*
X13634813D01*
X13650616Y671173D01*
X13662714Y683269D01*
X13669260Y699074D01*
Y716180D01*
X13662714Y731985D01*
X13650616Y744081D01*
X13634813Y750627D01*
D02*
G37*
G36*
X13134813D02*
X13117706D01*
X13101901Y744081D01*
X13095261Y737438D01*
X13088618Y744081D01*
X13072813Y750627D01*
X13055707D01*
X13039903Y744081D01*
X13027808Y731985D01*
X13021260Y716180D01*
Y699074D01*
X13027808Y683269D01*
X13039903Y671173D01*
X13055707Y664627D01*
X13072813D01*
X13088618Y671173D01*
X13095261Y677816D01*
X13101901Y671173D01*
X13117706Y664627D01*
X13134813D01*
X13150618Y671173D01*
X13162714Y683269D01*
X13169260Y699074D01*
Y716180D01*
X13162714Y731985D01*
X13150618Y744081D01*
X13134813Y750627D01*
D02*
G37*
G36*
X11557933Y695780D02*
X11540827D01*
X11525022Y689234D01*
X11522710Y686921D01*
X11520398Y689234D01*
X11504593Y695780D01*
X11487487D01*
X11471682Y689234D01*
X11469370Y686921D01*
X11467058Y689234D01*
X11451253Y695780D01*
X11434147D01*
X11418342Y689234D01*
X11406246Y677138D01*
X11399700Y661333D01*
Y644227D01*
X11406246Y628422D01*
X11408559Y626110D01*
X11406246Y623798D01*
X11399700Y607993D01*
Y590887D01*
X11406246Y575082D01*
X11418342Y562986D01*
X11434147Y556440D01*
X11451253D01*
X11467058Y562986D01*
X11469370Y565299D01*
X11471682Y562986D01*
X11487487Y556440D01*
X11504593D01*
X11520398Y562986D01*
X11522710Y565299D01*
X11525022Y562986D01*
X11540827Y556440D01*
X11557933D01*
X11573738Y562986D01*
X11585834Y575082D01*
X11592380Y590887D01*
Y607993D01*
X11585834Y623798D01*
X11583521Y626110D01*
X11585834Y628422D01*
X11592380Y644227D01*
Y661333D01*
X11585834Y677138D01*
X11573738Y689234D01*
X11557933Y695780D01*
D02*
G37*
G36*
X12215793Y672920D02*
X12198687D01*
X12182882Y666374D01*
X12174220Y657711D01*
X12165558Y666374D01*
X12149753Y672920D01*
X12132647D01*
X12116842Y666374D01*
X12109450Y658981D01*
X12102058Y666374D01*
X12086253Y672920D01*
X12069147D01*
X12053342Y666374D01*
X12052300Y665331D01*
X12051258Y666374D01*
X12035453Y672920D01*
X12018347D01*
X12002542Y666374D01*
X11990446Y654278D01*
X11983900Y638473D01*
Y621367D01*
X11990446Y605562D01*
X12002542Y593466D01*
X12018347Y586920D01*
X12035453D01*
X12051258Y593466D01*
X12052300Y594509D01*
X12053342Y593466D01*
X12069147Y586920D01*
X12086253D01*
X12102058Y593466D01*
X12109450Y600859D01*
X12116842Y593466D01*
X12132647Y586920D01*
X12149753D01*
X12165558Y593466D01*
X12174220Y602129D01*
X12182882Y593466D01*
X12198687Y586920D01*
X12215793D01*
X12231598Y593466D01*
X12243694Y605562D01*
X12250240Y621367D01*
Y638473D01*
X12243694Y654278D01*
X12231598Y666374D01*
X12215793Y672920D01*
D02*
G37*
%LPD*%
D10*
X12597145Y896005D02*
G03*
X12592862Y897162I-6330J-14918D01*
G01*
X11984359Y978434D02*
G03*
X12002207Y972405I23871J41240D01*
G01*
X11570773Y1219339D02*
G03*
X11578137Y1214073I31274J35951D01*
G01*
X10347951Y1559281D02*
G03*
X10343129Y1559026I-1567J-16129D01*
G01*
X9652477Y1417417D02*
G03*
X9651647Y1417218I3364J-15852D01*
G01*
X9595706Y1402231D02*
G03*
X9595711Y1402232I-4105J15177D01*
G01*
X9595671Y1402221D02*
G03*
X9595706Y1402231I-4070J15187D01*
G01*
X9595671Y1402222D02*
G03*
X9585850Y1394702I4196J-15653D01*
G01*
X12000118Y1005645D02*
G03*
X12006122Y1003606I8112J14029D01*
G01*
X11322645Y1478234D02*
G03*
X11305369Y1485827I-20707J-23665D01*
G01*
X12780793Y822511D02*
G03*
X12786228Y811400I16173J1026D01*
G01*
X9646161Y1448222D02*
G03*
X9645689Y1448121I6316J-30804D01*
G01*
X9575265Y1434194D02*
G03*
X9587530Y1432595I8070J14053D01*
G01*
X9587566Y1432604D02*
G03*
X9587530Y1432595I12301J-46035D01*
G01*
X12749405Y820617D02*
G03*
X12739671Y834369I-16166J-1122D01*
G01*
X12749405Y820617D02*
G03*
X12749411Y820520I31388J1894D01*
G01*
X12745424Y808812D02*
G03*
X12749411Y820520I-12185J10683D01*
G01*
X12006181Y1003599D02*
G03*
X12006122Y1003606I-3974J-31193D01*
G01*
X12609627Y924867D02*
G03*
X12609132Y925076I-12482J-28862D01*
G01*
D02*
G03*
X12596836Y928355I-18317J-43989D01*
G01*
X11593915Y1241273D02*
G03*
X11593854Y1241308I-15778J-27200D01*
G01*
X11591429Y1243048D02*
G03*
X11593854Y1241308I10618J12242D01*
G01*
X12780794Y822511D02*
G03*
X12752153Y863230I-47555J-3017D01*
G01*
X10351382Y1590539D02*
G03*
X10350504Y1590623I-3431J-31257D01*
G01*
D02*
G03*
X10336812Y1589831I-4120J-47472D01*
G01*
X9645689Y1448121D02*
G03*
X9643510Y1447592I10152J-46556D01*
G01*
X9587639Y1432624D02*
G03*
X9587566Y1432604I8032J-30403D01*
G01*
X12597145Y896004D02*
X12597145Y896005D01*
X12739671Y834368D01*
X10347951Y1559282D02*
X10721326Y1518299D01*
X10347951Y1559280D02*
X10347951Y1559282D01*
X11578137Y1214073D02*
X11984359Y978434D01*
X11301938Y1454569D02*
X11570773Y1219338D01*
X9652477Y1417417D02*
X10134321Y1516213D01*
X9595711Y1402232D02*
X9651647Y1417218D01*
X9595706Y1402231D02*
X9595711Y1402232D01*
X9578340Y1381760D02*
X9585850Y1394702D01*
X11322645Y1478234D02*
X11591429Y1243048D01*
X11593915Y1241273D02*
X12000118Y1005645D01*
X12786228Y811400D02*
X12797435Y801485D01*
X9646161Y1448222D02*
X10131114Y1547655D01*
X9562289Y1441646D02*
X9575265Y1434194D01*
X12002207Y972406D02*
X12592862Y897162D01*
X10721326Y1518299D02*
X11301938Y1454569D01*
X12735560Y797560D02*
X12745424Y808812D01*
X10134321Y1516213D02*
X10343129Y1559026D01*
X12006181Y1003599D02*
X12596836Y928355D01*
X12609627Y924867D02*
X12752152Y863230D01*
X10722974Y1549752D02*
X11305369Y1485826D01*
X10351382Y1590539D02*
X10722974Y1549752D01*
X10131114Y1547655D02*
X10336812Y1589830D01*
X9587639Y1432624D02*
X9643510Y1447592D01*
D22*
X18237061Y2710180D02*
D03*
X15922060D02*
D03*
X18237061Y1437640D02*
D03*
X15922060D02*
D03*
X18237061Y3982720D02*
D03*
X15922060D02*
D03*
D23*
X7495460Y4216540D02*
D03*
Y2900540D02*
D03*
X7016460Y4216540D02*
D03*
Y2900540D02*
D03*
D24*
X7236460Y4099540D02*
D03*
Y2964540D02*
D03*
D25*
X18003520Y2900680D02*
D03*
X18041620Y1625600D02*
D03*
X7815580Y3898900D02*
D03*
X11648440Y609600D02*
D03*
X7678420Y4056380D02*
D03*
X7160260Y3947160D02*
D03*
X7180580Y3822700D02*
D03*
X7195820Y3698240D02*
D03*
X7188200Y3525520D02*
D03*
X7185660Y3383280D02*
D03*
X7200900Y3230880D02*
D03*
X7175500Y3081020D02*
D03*
X7617460Y3111500D02*
D03*
X7638155Y3278376D02*
D03*
X7653020Y3502660D02*
D03*
X7673340Y3589020D02*
D03*
X7647940Y3680460D02*
D03*
X7401560Y3727540D02*
D03*
Y3789540D02*
D03*
Y3877540D02*
D03*
Y3939540D02*
D03*
Y3277540D02*
D03*
Y3339540D02*
D03*
Y3189540D02*
D03*
Y3127540D02*
D03*
X8534400Y3771760D02*
D03*
Y3709760D02*
D03*
X8613140Y3671760D02*
D03*
Y3609760D02*
D03*
Y3471760D02*
D03*
Y3409760D02*
D03*
X8534400Y3371760D02*
D03*
Y3309760D02*
D03*
X16014700Y2463800D02*
D03*
X9222740Y4419600D02*
D03*
X8994140Y4221480D02*
D03*
X8966200Y4406900D02*
D03*
X9225280Y4241800D02*
D03*
X8737600Y4071620D02*
D03*
X8884920Y4180840D02*
D03*
X8752840Y4160520D02*
D03*
X9194800Y2623820D02*
D03*
X9052560Y3030220D02*
D03*
X8978900Y2664460D02*
D03*
X8651560Y2926080D02*
D03*
X8912860Y2913380D02*
D03*
X18064481Y4137660D02*
D03*
X19715480Y3423920D02*
D03*
X19682460Y3599180D02*
D03*
X19951700Y3434080D02*
D03*
X19900900Y3756660D02*
D03*
X20088860Y4013200D02*
D03*
X19921220Y3997960D02*
D03*
X21280119Y3477260D02*
D03*
X21503641Y3479800D02*
D03*
X21498560Y3736340D02*
D03*
X21262340Y3716020D02*
D03*
X21102319Y3776980D02*
D03*
X21224240Y3799840D02*
D03*
X21219160Y3952240D02*
D03*
X21153120Y3863340D02*
D03*
X16070580Y3822700D02*
D03*
X16065500Y1221740D02*
D03*
X14995885Y1224186D02*
D03*
X10484829Y1290834D02*
D03*
X10632440Y1267460D02*
D03*
X10706100Y1153160D02*
D03*
X10693400Y896620D02*
D03*
X10701020Y1023620D02*
D03*
X10695940Y764540D02*
D03*
X9118600Y779780D02*
D03*
X9385300Y759460D02*
D03*
X9128760Y1023620D02*
D03*
X9349740Y1038860D02*
D03*
X9398000Y1115060D02*
D03*
X9349740Y1242060D02*
D03*
X9514840Y1275080D02*
D03*
X9542780Y1102360D02*
D03*
X9093200Y2062480D02*
D03*
X9260840Y1879600D02*
D03*
X9458960Y2100580D02*
D03*
X9095740Y1920240D02*
D03*
X9171940Y2192020D02*
D03*
X9370060Y2435860D02*
D03*
X9331960Y2204720D02*
D03*
X9306560Y2336800D02*
D03*
X9560560Y2197100D02*
D03*
X10595401Y1917669D02*
D03*
X10843260Y2258060D02*
D03*
X10645140Y2054860D02*
D03*
X10626656Y2432387D02*
D03*
X10640060Y2232660D02*
D03*
X9344660Y3114040D02*
D03*
X12735560Y797560D02*
D03*
X12797435Y801485D02*
D03*
X9578340Y1381760D02*
D03*
X9562289Y1441646D02*
D03*
X9832843Y3147806D02*
D03*
X9781540Y3182620D02*
D03*
X9664700Y3241040D02*
D03*
X12689840Y695960D02*
D03*
X9400540Y4135120D02*
D03*
X9443720Y4137660D02*
D03*
X11844020Y642620D02*
D03*
X11267440Y1272540D02*
D03*
X12348504Y769620D02*
D03*
X11361420Y1176020D02*
D03*
X12885420Y4333240D02*
D03*
X12814301Y4305300D02*
D03*
X12146280Y4053840D02*
D03*
X9357360Y4135120D02*
D03*
X9598660Y3906520D02*
D03*
X9955372Y3878442D02*
D03*
X10058119Y3880961D02*
D03*
X10161108Y3881096D02*
D03*
X10322560Y3886200D02*
D03*
X10398760Y3568700D02*
D03*
X9583420Y3560064D02*
D03*
X12207240Y629920D02*
D03*
X12141200D02*
D03*
X12077700D02*
D03*
X12026900D02*
D03*
X16238060Y1287780D02*
D03*
X11513820Y3916680D02*
D03*
X16176060Y1287780D02*
D03*
X11547618Y3864702D02*
D03*
X16176060Y2560320D02*
D03*
X11465684Y4003878D02*
D03*
X16238060Y2560320D02*
D03*
X11442700Y4061460D02*
D03*
X10688320Y3898900D02*
D03*
X10568940Y3937000D02*
D03*
X9890760Y4122420D02*
D03*
X10086340Y4130040D02*
D03*
X10215880Y4086860D02*
D03*
X9408160Y3931920D02*
D03*
X9271000Y3817620D02*
D03*
X9288780Y3492500D02*
D03*
X9278620Y3553460D02*
D03*
X9456420Y3566160D02*
D03*
X10068560Y2933700D02*
D03*
X10576560Y3144520D02*
D03*
X10579100Y3507740D02*
D03*
X10676800Y3447960D02*
D03*
X10679520Y3567520D02*
D03*
X9937280Y3483140D02*
D03*
X10037280D02*
D03*
Y3583140D02*
D03*
X9937280D02*
D03*
X10142220Y3688080D02*
D03*
Y3378200D02*
D03*
X9832340D02*
D03*
Y3688080D02*
D03*
X9987280Y3533140D02*
D03*
X13992525Y3935473D02*
D03*
X14478000Y3939540D02*
D03*
X14368781Y3863340D02*
D03*
X14277341Y3982720D02*
D03*
X14249400Y4163060D02*
D03*
X14526260Y4097020D02*
D03*
X14376401Y4010660D02*
D03*
X14521181Y3804920D02*
D03*
X14244772Y3789414D02*
D03*
X14180820Y3931920D02*
D03*
X14066521Y3830320D02*
D03*
X14386560Y2463800D02*
D03*
X13901421Y2438400D02*
D03*
X14155420Y2463800D02*
D03*
X14013181Y2534920D02*
D03*
X14241780Y2867660D02*
D03*
X14412560Y2727341D02*
D03*
X14569440Y2639060D02*
D03*
X14490700Y2842260D02*
D03*
X14320520Y2801620D02*
D03*
X14234160Y2578100D02*
D03*
X14130020Y2631440D02*
D03*
X14046201Y1168400D02*
D03*
X13963844Y1239492D02*
D03*
X14063980Y1336040D02*
D03*
X14208760Y1450340D02*
D03*
X14185899Y1244600D02*
D03*
X14333220Y1348740D02*
D03*
X14508479Y1216660D02*
D03*
X14384019Y1508760D02*
D03*
X14551660Y1384300D02*
D03*
X12473940Y3677920D02*
D03*
X12595860Y3581400D02*
D03*
X12730480Y3634740D02*
D03*
X12854619Y3772175D02*
D03*
X12959081Y3746500D02*
D03*
X12491720Y2319020D02*
D03*
X12623800Y2298700D02*
D03*
X12776200Y2275840D02*
D03*
X12920979Y2382520D02*
D03*
X12786360Y2405380D02*
D03*
X12542520Y1018540D02*
D03*
X12613640Y1016000D02*
D03*
X12484100Y1054100D02*
D03*
X12946381Y1188720D02*
D03*
X12878683Y1204140D02*
D03*
X12133580Y1488440D02*
D03*
X12581573Y1756939D02*
D03*
X12663984Y1725255D02*
D03*
X12131040Y2700020D02*
D03*
X12811760Y3007360D02*
D03*
X12830833Y3050337D02*
D03*
X15052040Y3025140D02*
D03*
X15357060Y4419380D02*
D03*
X15057060Y4429820D02*
D03*
Y3754060D02*
D03*
X15357060Y3187480D02*
D03*
X15057060Y2220020D02*
D03*
X15357060Y1925100D02*
D03*
X15059660Y1795040D02*
D03*
X11442700Y599440D02*
D03*
X11496040D02*
D03*
X11549380D02*
D03*
Y652780D02*
D03*
X11496040D02*
D03*
X11442700D02*
D03*
X16844479Y1653676D02*
D03*
X16782480D02*
D03*
X16276060Y1646736D02*
D03*
X16338060D02*
D03*
X16664259Y707627D02*
D03*
X16726260D02*
D03*
X20344321Y3428646D02*
D03*
X20444460Y3479800D02*
D03*
X20544321Y3428646D02*
D03*
X20637500Y3477260D02*
D03*
X20744321Y3428646D02*
D03*
X20843240Y3482340D02*
D03*
X20944319Y3428646D02*
D03*
X21037318Y3482340D02*
D03*
X20351320Y4023360D02*
D03*
X20543520Y4028440D02*
D03*
X20737259Y4026098D02*
D03*
X20942300Y4030980D02*
D03*
X21137253Y4026223D02*
D03*
X16164259Y707627D02*
D03*
X16226260D02*
D03*
X9801034Y2159000D02*
D03*
X9739034D02*
D03*
X15826260Y707627D02*
D03*
X15764259D02*
D03*
X9939033Y2159000D02*
D03*
X10001033D02*
D03*
X15426260Y707627D02*
D03*
X10139033Y2159000D02*
D03*
X15364259Y707627D02*
D03*
X10201033Y2159000D02*
D03*
X10239033Y2219960D02*
D03*
X10301033D02*
D03*
X15026260Y707627D02*
D03*
X10339033Y2159000D02*
D03*
X14964259Y707627D02*
D03*
X10401033Y2159000D02*
D03*
X9770034Y2105306D02*
D03*
X9970033D02*
D03*
X10170033D02*
D03*
X9867847Y2165062D02*
D03*
X10070033Y2166266D02*
D03*
X10270033D02*
D03*
X14426260Y707627D02*
D03*
X14364259D02*
D03*
X9744294Y1030121D02*
D03*
X9806291Y1029493D02*
D03*
X9844380Y911860D02*
D03*
X9906380D02*
D03*
X14026260Y707627D02*
D03*
X13964259D02*
D03*
X9944293Y1030121D02*
D03*
X10006290Y1029493D02*
D03*
X10106380Y911860D02*
D03*
X10044380D02*
D03*
X13626260Y707627D02*
D03*
X13564259D02*
D03*
X10144293Y1030121D02*
D03*
X10206290Y1029493D02*
D03*
X10244380Y911860D02*
D03*
X10306379D02*
D03*
X13126260Y707627D02*
D03*
X13064259D02*
D03*
X10344292Y1030121D02*
D03*
X10406289Y1029493D02*
D03*
X9682604Y1036320D02*
D03*
X9782491Y915557D02*
D03*
X9940473Y860075D02*
D03*
X9930823Y968838D02*
D03*
X10020886Y969236D02*
D03*
X10075380Y858166D02*
D03*
X10213423Y965578D02*
D03*
X10204600Y864304D02*
D03*
X10135374Y966663D02*
D03*
X10347633Y865577D02*
D03*
X10340837Y963403D02*
D03*
X10407801Y961920D02*
D03*
X10402260Y866363D02*
D03*
X10547977Y865886D02*
D03*
X10543978Y961158D02*
D03*
X13188242Y706120D02*
D03*
X13002280D02*
D03*
X20375320Y3482340D02*
D03*
X16538060Y3773624D02*
D03*
X20313321Y3482340D02*
D03*
X16476060Y3773624D02*
D03*
X20213321Y3375660D02*
D03*
X20275320D02*
D03*
X16253172Y3415722D02*
D03*
X16191338Y3411220D02*
D03*
X21075319Y4023360D02*
D03*
X17576060Y4191816D02*
D03*
X21013319Y4023360D02*
D03*
X17638060Y4191816D02*
D03*
X20775320Y3482340D02*
D03*
X17438060Y3773624D02*
D03*
X20713319Y3482340D02*
D03*
X17376060Y3773624D02*
D03*
X20975319Y3482340D02*
D03*
X17838060Y3773624D02*
D03*
X20913319Y3482340D02*
D03*
X17776060Y3773624D02*
D03*
X16976060D02*
D03*
X17038060D02*
D03*
X20413319Y4023360D02*
D03*
X20475320D02*
D03*
X20675320D02*
D03*
X20613319D02*
D03*
X20875319D02*
D03*
X20813319D02*
D03*
X9901034Y2219960D02*
D03*
X9839034D02*
D03*
X10039033D02*
D03*
X10101033D02*
D03*
X10439032D02*
D03*
X10501032D02*
D03*
X10444379Y911860D02*
D03*
X10506379D02*
D03*
X11348720Y896620D02*
D03*
X20513319Y3482340D02*
D03*
X20575320D02*
D03*
X17176060Y4191816D02*
D03*
X17238060D02*
D03*
X16900035Y4193540D02*
D03*
X16714084D02*
D03*
X16776060Y4191816D02*
D03*
X16838060D02*
D03*
X17300037Y4193540D02*
D03*
X17114084D02*
D03*
X18664259Y707627D02*
D03*
X18726260D02*
D03*
X19064259D02*
D03*
X19126260D02*
D03*
X16714084Y2921000D02*
D03*
X16776060Y2919276D02*
D03*
X17300037Y2921000D02*
D03*
X17114084D02*
D03*
X17176060Y2919276D02*
D03*
X17238060D02*
D03*
X16838060D02*
D03*
X16900035Y2921000D02*
D03*
X17926260Y707627D02*
D03*
X17864259D02*
D03*
X17526260D02*
D03*
X17464259D02*
D03*
X17238060Y1646736D02*
D03*
X17176060D02*
D03*
X17126260Y707627D02*
D03*
X17064259D02*
D03*
X16906454Y1655400D02*
D03*
X16720505D02*
D03*
X16400035Y1648460D02*
D03*
X16214084D02*
D03*
X17114084D02*
D03*
X17300037D02*
D03*
X17838060Y2501084D02*
D03*
X17776060D02*
D03*
X17438060D02*
D03*
X17376060D02*
D03*
X18326260Y707627D02*
D03*
X16338060Y2919276D02*
D03*
X16276060D02*
D03*
X18264259Y707627D02*
D03*
X19464259D02*
D03*
X19526260D02*
D03*
X17900037Y3771900D02*
D03*
X17714084D02*
D03*
X17314084D02*
D03*
X17500037D02*
D03*
X16914084D02*
D03*
X17100035D02*
D03*
X16414084D02*
D03*
X16600035D02*
D03*
X17514084Y4193540D02*
D03*
X17700035D02*
D03*
X16400035D02*
D03*
X16214084D02*
D03*
X16276060Y4191816D02*
D03*
X16338060D02*
D03*
X17900037Y2499360D02*
D03*
X17714084D02*
D03*
X17314084D02*
D03*
X17500037D02*
D03*
X16914084D02*
D03*
X17100035D02*
D03*
X17038060Y2501084D02*
D03*
X16976060D02*
D03*
X16414084Y2499360D02*
D03*
X16600035D02*
D03*
X16538060Y2501084D02*
D03*
X16476060D02*
D03*
X17638060Y2919276D02*
D03*
X17576060D02*
D03*
X17514084Y2921000D02*
D03*
X17700035D02*
D03*
X16400035D02*
D03*
X16214084D02*
D03*
X17700035Y1648460D02*
D03*
X17514084D02*
D03*
X17576060Y1646736D02*
D03*
X17638060D02*
D03*
X16476060Y1228544D02*
D03*
X16538060D02*
D03*
X16600035Y1226820D02*
D03*
X16414084D02*
D03*
X16976060Y1228544D02*
D03*
X17038060D02*
D03*
X17100035Y1226820D02*
D03*
X16914084D02*
D03*
X17376060Y1228544D02*
D03*
X17438060D02*
D03*
X17500037Y1226820D02*
D03*
X17314084D02*
D03*
X17714084D02*
D03*
X17900037D02*
D03*
X17838060Y1228544D02*
D03*
X17776060D02*
D03*
X18788242Y706120D02*
D03*
X19588242D02*
D03*
X19402278D02*
D03*
X19188242D02*
D03*
X19002278D02*
D03*
X18602278D02*
D03*
X18388242D02*
D03*
X18202278D02*
D03*
X17988242D02*
D03*
X17802278D02*
D03*
X17588242D02*
D03*
X17402278D02*
D03*
X17188242D02*
D03*
X17002278D02*
D03*
X16788242D02*
D03*
X16602278D02*
D03*
X16288242D02*
D03*
X16102278D02*
D03*
X15888242D02*
D03*
X15702278D02*
D03*
X15488242D02*
D03*
X15302280D02*
D03*
X15088242D02*
D03*
X14902280D02*
D03*
X14488242D02*
D03*
X14302278D02*
D03*
X14088242D02*
D03*
X13902280D02*
D03*
X13688242D02*
D03*
X13502278D02*
D03*
X19611340Y1056640D02*
D03*
%TF.MD5,223587521f72e4689129edf1567b7c76*%
M02*
