%TF.GenerationSoftware,Altium Limited,Altium Designer,24.0.1 (36)*%
G04 Layer_Color=8388736*
%FSLAX45Y45*%
%MOMM*%
%TF.SameCoordinates,79EBFB85-6253-4421-BC9D-CD6C48D828FA*%
%TF.FilePolarity,Negative*%
%TF.FileFunction,Soldermask,Top*%
%TF.Part,Single*%
G01*
G75*
%TA.AperFunction,ConnectorPad*%
%ADD16O,0.91000X0.31000*%
%TA.AperFunction,SMDPad,CuDef*%
%ADD53R,1.10320X0.75321*%
%ADD54R,2.10320X1.60320*%
%ADD55R,1.10320X0.45321*%
%ADD56R,0.70320X0.70320*%
%TA.AperFunction,ComponentPad*%
%ADD57C,1.45320*%
%ADD58O,2.15320X1.45320*%
%ADD59C,1.20320*%
G36*
X7358860Y3031440D02*
X7358660Y3030340D01*
X7358560Y3029240D01*
X7358260Y3028240D01*
X7357960Y3027240D01*
X7357560Y3026240D01*
X7357160Y3025240D01*
X7356760Y3024240D01*
X7356260Y3023240D01*
X7355660Y3022340D01*
X7355060Y3021540D01*
X7354360Y3020640D01*
X7353660Y3019840D01*
X7352960Y3019040D01*
X7352160Y3018340D01*
X7351360Y3017640D01*
X7350460Y3016940D01*
X7349660Y3016340D01*
X7348760Y3015740D01*
X7347760Y3015240D01*
X7346760Y3014840D01*
X7345760Y3014440D01*
X7344760Y3014040D01*
X7343760Y3013740D01*
X7342760Y3013440D01*
X7341660Y3013340D01*
X7340560Y3013140D01*
X7339560Y3013040D01*
X7338460D01*
X7278460D01*
X7277360D01*
X7276360Y3013140D01*
X7275260Y3013340D01*
X7274160Y3013440D01*
X7273160Y3013740D01*
X7272160Y3014040D01*
X7271160Y3014440D01*
X7270160Y3014840D01*
X7269160Y3015240D01*
X7268260Y3015740D01*
X7267260Y3016340D01*
X7266460Y3016940D01*
X7265560Y3017640D01*
X7264760Y3018340D01*
X7263960Y3019040D01*
X7263260Y3019840D01*
X7262560Y3020640D01*
X7261860Y3021540D01*
X7261260Y3022340D01*
X7260660Y3023240D01*
X7260160Y3024240D01*
X7259760Y3025240D01*
X7259360Y3026240D01*
X7258960Y3027240D01*
X7258660Y3028240D01*
X7258360Y3029240D01*
X7258260Y3030340D01*
X7258060Y3031440D01*
X7257960Y3032440D01*
Y3034640D01*
X7258060Y3035640D01*
X7258260Y3036740D01*
X7258360Y3037840D01*
X7258660Y3038840D01*
X7258960Y3039840D01*
X7259360Y3040840D01*
X7259760Y3041840D01*
X7260160Y3042840D01*
X7260660Y3043840D01*
X7261260Y3044740D01*
X7261860Y3045540D01*
X7262560Y3046440D01*
X7263260Y3047240D01*
X7263960Y3048040D01*
X7264760Y3048740D01*
X7265560Y3049440D01*
X7266460Y3050140D01*
X7267260Y3050740D01*
X7268260Y3051340D01*
X7269160Y3051840D01*
X7270160Y3052240D01*
X7271160Y3052640D01*
X7272160Y3053040D01*
X7273160Y3053340D01*
X7274160Y3053640D01*
X7275260Y3053740D01*
X7276360Y3053940D01*
X7277360Y3054040D01*
X7278460D01*
X7338460D01*
X7339560D01*
X7340560Y3053940D01*
X7341660Y3053740D01*
X7342760Y3053640D01*
X7343760Y3053340D01*
X7344760Y3053040D01*
X7345760Y3052640D01*
X7346760Y3052240D01*
X7347760Y3051840D01*
X7348760Y3051340D01*
X7349660Y3050740D01*
X7350460Y3050140D01*
X7351360Y3049440D01*
X7352160Y3048740D01*
X7352960Y3048040D01*
X7353660Y3047240D01*
X7354360Y3046440D01*
X7355060Y3045540D01*
X7355660Y3044740D01*
X7356260Y3043840D01*
X7356760Y3042840D01*
X7357160Y3041840D01*
X7357560Y3040840D01*
X7357960Y3039840D01*
X7358260Y3038840D01*
X7358560Y3037840D01*
X7358660Y3036740D01*
X7358860Y3035640D01*
X7358960Y3034640D01*
Y3032440D01*
X7358860Y3031440D01*
D02*
G37*
G36*
Y3081440D02*
X7358660Y3080340D01*
X7358560Y3079240D01*
X7358260Y3078240D01*
X7357960Y3077240D01*
X7357560Y3076240D01*
X7357160Y3075240D01*
X7356760Y3074240D01*
X7356260Y3073240D01*
X7355660Y3072340D01*
X7355060Y3071540D01*
X7354360Y3070640D01*
X7353660Y3069840D01*
X7352960Y3069040D01*
X7352160Y3068340D01*
X7351360Y3067640D01*
X7350460Y3066940D01*
X7349660Y3066340D01*
X7348760Y3065740D01*
X7347760Y3065240D01*
X7346760Y3064840D01*
X7345760Y3064440D01*
X7344760Y3064040D01*
X7343760Y3063740D01*
X7342760Y3063440D01*
X7341660Y3063340D01*
X7340560Y3063140D01*
X7339560Y3063040D01*
X7338460D01*
X7278460D01*
X7277360D01*
X7276360Y3063140D01*
X7275260Y3063340D01*
X7274160Y3063440D01*
X7273160Y3063740D01*
X7272160Y3064040D01*
X7271160Y3064440D01*
X7270160Y3064840D01*
X7269160Y3065240D01*
X7268260Y3065740D01*
X7267260Y3066340D01*
X7266460Y3066940D01*
X7265560Y3067640D01*
X7264760Y3068340D01*
X7263960Y3069040D01*
X7263260Y3069840D01*
X7262560Y3070640D01*
X7261860Y3071540D01*
X7261260Y3072340D01*
X7260660Y3073240D01*
X7260160Y3074240D01*
X7259760Y3075240D01*
X7259360Y3076240D01*
X7258960Y3077240D01*
X7258660Y3078240D01*
X7258360Y3079240D01*
X7258260Y3080340D01*
X7258060Y3081440D01*
X7257960Y3082440D01*
Y3084640D01*
X7258060Y3085640D01*
X7258260Y3086740D01*
X7258360Y3087840D01*
X7258660Y3088840D01*
X7258960Y3089840D01*
X7259360Y3090840D01*
X7259760Y3091840D01*
X7260160Y3092840D01*
X7260660Y3093840D01*
X7261260Y3094740D01*
X7261860Y3095540D01*
X7262560Y3096440D01*
X7263260Y3097240D01*
X7263960Y3098040D01*
X7264760Y3098740D01*
X7265560Y3099440D01*
X7266460Y3100140D01*
X7267260Y3100740D01*
X7268260Y3101340D01*
X7269160Y3101840D01*
X7270160Y3102240D01*
X7271160Y3102640D01*
X7272160Y3103040D01*
X7273160Y3103340D01*
X7274160Y3103640D01*
X7275260Y3103740D01*
X7276360Y3103940D01*
X7277360Y3104040D01*
X7278460D01*
X7338460D01*
X7339560D01*
X7340560Y3103940D01*
X7341660Y3103740D01*
X7342760Y3103640D01*
X7343760Y3103340D01*
X7344760Y3103040D01*
X7345760Y3102640D01*
X7346760Y3102240D01*
X7347760Y3101840D01*
X7348760Y3101340D01*
X7349660Y3100740D01*
X7350460Y3100140D01*
X7351360Y3099440D01*
X7352160Y3098740D01*
X7352960Y3098040D01*
X7353660Y3097240D01*
X7354360Y3096440D01*
X7355060Y3095540D01*
X7355660Y3094740D01*
X7356260Y3093840D01*
X7356760Y3092840D01*
X7357160Y3091840D01*
X7357560Y3090840D01*
X7357960Y3089840D01*
X7358260Y3088840D01*
X7358560Y3087840D01*
X7358660Y3086740D01*
X7358860Y3085640D01*
X7358960Y3084640D01*
Y3082440D01*
X7358860Y3081440D01*
D02*
G37*
G36*
Y3131440D02*
X7358660Y3130340D01*
X7358560Y3129240D01*
X7358260Y3128240D01*
X7357960Y3127240D01*
X7357560Y3126240D01*
X7357160Y3125240D01*
X7356760Y3124240D01*
X7356260Y3123240D01*
X7355660Y3122340D01*
X7355060Y3121540D01*
X7354360Y3120640D01*
X7353660Y3119840D01*
X7352960Y3119040D01*
X7352160Y3118340D01*
X7351360Y3117640D01*
X7350460Y3116940D01*
X7349660Y3116340D01*
X7348760Y3115740D01*
X7347760Y3115240D01*
X7346760Y3114840D01*
X7345760Y3114440D01*
X7344760Y3114040D01*
X7343760Y3113740D01*
X7342760Y3113440D01*
X7341660Y3113340D01*
X7340560Y3113140D01*
X7339560Y3113040D01*
X7338460D01*
X7278460D01*
X7277360D01*
X7276360Y3113140D01*
X7275260Y3113340D01*
X7274160Y3113440D01*
X7273160Y3113740D01*
X7272160Y3114040D01*
X7271160Y3114440D01*
X7270160Y3114840D01*
X7269160Y3115240D01*
X7268260Y3115740D01*
X7267260Y3116340D01*
X7266460Y3116940D01*
X7265560Y3117640D01*
X7264760Y3118340D01*
X7263960Y3119040D01*
X7263260Y3119840D01*
X7262560Y3120640D01*
X7261860Y3121540D01*
X7261260Y3122340D01*
X7260660Y3123240D01*
X7260160Y3124240D01*
X7259760Y3125240D01*
X7259360Y3126240D01*
X7258960Y3127240D01*
X7258660Y3128240D01*
X7258360Y3129240D01*
X7258260Y3130340D01*
X7258060Y3131440D01*
X7257960Y3132440D01*
Y3134640D01*
X7258060Y3135640D01*
X7258260Y3136740D01*
X7258360Y3137840D01*
X7258660Y3138840D01*
X7258960Y3139840D01*
X7259360Y3140840D01*
X7259760Y3141840D01*
X7260160Y3142840D01*
X7260660Y3143840D01*
X7261260Y3144740D01*
X7261860Y3145540D01*
X7262560Y3146440D01*
X7263260Y3147240D01*
X7263960Y3148040D01*
X7264760Y3148740D01*
X7265560Y3149440D01*
X7266460Y3150140D01*
X7267260Y3150740D01*
X7268260Y3151340D01*
X7269160Y3151840D01*
X7270160Y3152240D01*
X7271160Y3152640D01*
X7272160Y3153040D01*
X7273160Y3153340D01*
X7274160Y3153640D01*
X7275260Y3153740D01*
X7276360Y3153940D01*
X7277360Y3154040D01*
X7278460D01*
X7338460D01*
X7339560D01*
X7340560Y3153940D01*
X7341660Y3153740D01*
X7342760Y3153640D01*
X7343760Y3153340D01*
X7344760Y3153040D01*
X7345760Y3152640D01*
X7346760Y3152240D01*
X7347760Y3151840D01*
X7348760Y3151340D01*
X7349660Y3150740D01*
X7350460Y3150140D01*
X7351360Y3149440D01*
X7352160Y3148740D01*
X7352960Y3148040D01*
X7353660Y3147240D01*
X7354360Y3146440D01*
X7355060Y3145540D01*
X7355660Y3144740D01*
X7356260Y3143840D01*
X7356760Y3142840D01*
X7357160Y3141840D01*
X7357560Y3140840D01*
X7357960Y3139840D01*
X7358260Y3138840D01*
X7358560Y3137840D01*
X7358660Y3136740D01*
X7358860Y3135640D01*
X7358960Y3134640D01*
Y3132440D01*
X7358860Y3131440D01*
D02*
G37*
G36*
Y3181440D02*
X7358660Y3180340D01*
X7358560Y3179240D01*
X7358260Y3178240D01*
X7357960Y3177240D01*
X7357560Y3176240D01*
X7357160Y3175240D01*
X7356760Y3174240D01*
X7356260Y3173240D01*
X7355660Y3172340D01*
X7355060Y3171540D01*
X7354360Y3170640D01*
X7353660Y3169840D01*
X7352960Y3169040D01*
X7352160Y3168340D01*
X7351360Y3167640D01*
X7350460Y3166940D01*
X7349660Y3166340D01*
X7348760Y3165740D01*
X7347760Y3165240D01*
X7346760Y3164840D01*
X7345760Y3164440D01*
X7344760Y3164040D01*
X7343760Y3163740D01*
X7342760Y3163440D01*
X7341660Y3163340D01*
X7340560Y3163140D01*
X7339560Y3163040D01*
X7338460D01*
X7278460D01*
X7277360D01*
X7276360Y3163140D01*
X7275260Y3163340D01*
X7274160Y3163440D01*
X7273160Y3163740D01*
X7272160Y3164040D01*
X7271160Y3164440D01*
X7270160Y3164840D01*
X7269160Y3165240D01*
X7268260Y3165740D01*
X7267260Y3166340D01*
X7266460Y3166940D01*
X7265560Y3167640D01*
X7264760Y3168340D01*
X7263960Y3169040D01*
X7263260Y3169840D01*
X7262560Y3170640D01*
X7261860Y3171540D01*
X7261260Y3172340D01*
X7260660Y3173240D01*
X7260160Y3174240D01*
X7259760Y3175240D01*
X7259360Y3176240D01*
X7258960Y3177240D01*
X7258660Y3178240D01*
X7258360Y3179240D01*
X7258260Y3180340D01*
X7258060Y3181440D01*
X7257960Y3182440D01*
Y3184640D01*
X7258060Y3185640D01*
X7258260Y3186740D01*
X7258360Y3187840D01*
X7258660Y3188840D01*
X7258960Y3189840D01*
X7259360Y3190840D01*
X7259760Y3191840D01*
X7260160Y3192840D01*
X7260660Y3193840D01*
X7261260Y3194740D01*
X7261860Y3195540D01*
X7262560Y3196440D01*
X7263260Y3197240D01*
X7263960Y3198040D01*
X7264760Y3198740D01*
X7265560Y3199440D01*
X7266460Y3200140D01*
X7267260Y3200740D01*
X7268260Y3201340D01*
X7269160Y3201840D01*
X7270160Y3202240D01*
X7271160Y3202640D01*
X7272160Y3203040D01*
X7273160Y3203340D01*
X7274160Y3203640D01*
X7275260Y3203740D01*
X7276360Y3203940D01*
X7277360Y3204040D01*
X7278460D01*
X7338460D01*
X7339560D01*
X7340560Y3203940D01*
X7341660Y3203740D01*
X7342760Y3203640D01*
X7343760Y3203340D01*
X7344760Y3203040D01*
X7345760Y3202640D01*
X7346760Y3202240D01*
X7347760Y3201840D01*
X7348760Y3201340D01*
X7349660Y3200740D01*
X7350460Y3200140D01*
X7351360Y3199440D01*
X7352160Y3198740D01*
X7352960Y3198040D01*
X7353660Y3197240D01*
X7354360Y3196440D01*
X7355060Y3195540D01*
X7355660Y3194740D01*
X7356260Y3193840D01*
X7356760Y3192840D01*
X7357160Y3191840D01*
X7357560Y3190840D01*
X7357960Y3189840D01*
X7358260Y3188840D01*
X7358560Y3187840D01*
X7358660Y3186740D01*
X7358860Y3185640D01*
X7358960Y3184640D01*
Y3182440D01*
X7358860Y3181440D01*
D02*
G37*
G36*
Y3231440D02*
X7358660Y3230340D01*
X7358560Y3229240D01*
X7358260Y3228240D01*
X7357960Y3227240D01*
X7357560Y3226240D01*
X7357160Y3225240D01*
X7356760Y3224240D01*
X7356260Y3223240D01*
X7355660Y3222340D01*
X7355060Y3221540D01*
X7354360Y3220640D01*
X7353660Y3219840D01*
X7352960Y3219040D01*
X7352160Y3218340D01*
X7351360Y3217640D01*
X7350460Y3216940D01*
X7349660Y3216340D01*
X7348760Y3215740D01*
X7347760Y3215240D01*
X7346760Y3214840D01*
X7345760Y3214440D01*
X7344760Y3214040D01*
X7343760Y3213740D01*
X7342760Y3213440D01*
X7341660Y3213340D01*
X7340560Y3213140D01*
X7339560Y3213040D01*
X7338460D01*
X7278460D01*
X7277360D01*
X7276360Y3213140D01*
X7275260Y3213340D01*
X7274160Y3213440D01*
X7273160Y3213740D01*
X7272160Y3214040D01*
X7271160Y3214440D01*
X7270160Y3214840D01*
X7269160Y3215240D01*
X7268260Y3215740D01*
X7267260Y3216340D01*
X7266460Y3216940D01*
X7265560Y3217640D01*
X7264760Y3218340D01*
X7263960Y3219040D01*
X7263260Y3219840D01*
X7262560Y3220640D01*
X7261860Y3221540D01*
X7261260Y3222340D01*
X7260660Y3223240D01*
X7260160Y3224240D01*
X7259760Y3225240D01*
X7259360Y3226240D01*
X7258960Y3227240D01*
X7258660Y3228240D01*
X7258360Y3229240D01*
X7258260Y3230340D01*
X7258060Y3231440D01*
X7257960Y3232440D01*
Y3234640D01*
X7258060Y3235640D01*
X7258260Y3236740D01*
X7258360Y3237840D01*
X7258660Y3238840D01*
X7258960Y3239840D01*
X7259360Y3240840D01*
X7259760Y3241840D01*
X7260160Y3242840D01*
X7260660Y3243840D01*
X7261260Y3244740D01*
X7261860Y3245540D01*
X7262560Y3246440D01*
X7263260Y3247240D01*
X7263960Y3248040D01*
X7264760Y3248740D01*
X7265560Y3249440D01*
X7266460Y3250140D01*
X7267260Y3250740D01*
X7268260Y3251340D01*
X7269160Y3251840D01*
X7270160Y3252240D01*
X7271160Y3252640D01*
X7272160Y3253040D01*
X7273160Y3253340D01*
X7274160Y3253640D01*
X7275260Y3253740D01*
X7276360Y3253940D01*
X7277360Y3254040D01*
X7278460D01*
X7338460D01*
X7339560D01*
X7340560Y3253940D01*
X7341660Y3253740D01*
X7342760Y3253640D01*
X7343760Y3253340D01*
X7344760Y3253040D01*
X7345760Y3252640D01*
X7346760Y3252240D01*
X7347760Y3251840D01*
X7348760Y3251340D01*
X7349660Y3250740D01*
X7350460Y3250140D01*
X7351360Y3249440D01*
X7352160Y3248740D01*
X7352960Y3248040D01*
X7353660Y3247240D01*
X7354360Y3246440D01*
X7355060Y3245540D01*
X7355660Y3244740D01*
X7356260Y3243840D01*
X7356760Y3242840D01*
X7357160Y3241840D01*
X7357560Y3240840D01*
X7357960Y3239840D01*
X7358260Y3238840D01*
X7358560Y3237840D01*
X7358660Y3236740D01*
X7358860Y3235640D01*
X7358960Y3234640D01*
Y3232440D01*
X7358860Y3231440D01*
D02*
G37*
G36*
Y3281440D02*
X7358660Y3280340D01*
X7358560Y3279240D01*
X7358260Y3278240D01*
X7357960Y3277240D01*
X7357560Y3276240D01*
X7357160Y3275240D01*
X7356760Y3274240D01*
X7356260Y3273240D01*
X7355660Y3272340D01*
X7355060Y3271540D01*
X7354360Y3270640D01*
X7353660Y3269840D01*
X7352960Y3269040D01*
X7352160Y3268340D01*
X7351360Y3267640D01*
X7350460Y3266940D01*
X7349660Y3266340D01*
X7348760Y3265740D01*
X7347760Y3265240D01*
X7346760Y3264840D01*
X7345760Y3264440D01*
X7344760Y3264040D01*
X7343760Y3263740D01*
X7342760Y3263440D01*
X7341660Y3263340D01*
X7340560Y3263140D01*
X7339560Y3263040D01*
X7338460D01*
X7278460D01*
X7277360D01*
X7276360Y3263140D01*
X7275260Y3263340D01*
X7274160Y3263440D01*
X7273160Y3263740D01*
X7272160Y3264040D01*
X7271160Y3264440D01*
X7270160Y3264840D01*
X7269160Y3265240D01*
X7268260Y3265740D01*
X7267260Y3266340D01*
X7266460Y3266940D01*
X7265560Y3267640D01*
X7264760Y3268340D01*
X7263960Y3269040D01*
X7263260Y3269840D01*
X7262560Y3270640D01*
X7261860Y3271540D01*
X7261260Y3272340D01*
X7260660Y3273240D01*
X7260160Y3274240D01*
X7259760Y3275240D01*
X7259360Y3276240D01*
X7258960Y3277240D01*
X7258660Y3278240D01*
X7258360Y3279240D01*
X7258260Y3280340D01*
X7258060Y3281440D01*
X7257960Y3282440D01*
Y3284640D01*
X7258060Y3285640D01*
X7258260Y3286740D01*
X7258360Y3287840D01*
X7258660Y3288840D01*
X7258960Y3289840D01*
X7259360Y3290840D01*
X7259760Y3291840D01*
X7260160Y3292840D01*
X7260660Y3293840D01*
X7261260Y3294740D01*
X7261860Y3295540D01*
X7262560Y3296440D01*
X7263260Y3297240D01*
X7263960Y3298040D01*
X7264760Y3298740D01*
X7265560Y3299440D01*
X7266460Y3300140D01*
X7267260Y3300740D01*
X7268260Y3301340D01*
X7269160Y3301840D01*
X7270160Y3302240D01*
X7271160Y3302640D01*
X7272160Y3303040D01*
X7273160Y3303340D01*
X7274160Y3303640D01*
X7275260Y3303740D01*
X7276360Y3303940D01*
X7277360Y3304040D01*
X7278460D01*
X7338460D01*
X7339560D01*
X7340560Y3303940D01*
X7341660Y3303740D01*
X7342760Y3303640D01*
X7343760Y3303340D01*
X7344760Y3303040D01*
X7345760Y3302640D01*
X7346760Y3302240D01*
X7347760Y3301840D01*
X7348760Y3301340D01*
X7349660Y3300740D01*
X7350460Y3300140D01*
X7351360Y3299440D01*
X7352160Y3298740D01*
X7352960Y3298040D01*
X7353660Y3297240D01*
X7354360Y3296440D01*
X7355060Y3295540D01*
X7355660Y3294740D01*
X7356260Y3293840D01*
X7356760Y3292840D01*
X7357160Y3291840D01*
X7357560Y3290840D01*
X7357960Y3289840D01*
X7358260Y3288840D01*
X7358560Y3287840D01*
X7358660Y3286740D01*
X7358860Y3285640D01*
X7358960Y3284640D01*
Y3282440D01*
X7358860Y3281440D01*
D02*
G37*
G36*
Y3331440D02*
X7358660Y3330340D01*
X7358560Y3329240D01*
X7358260Y3328240D01*
X7357960Y3327240D01*
X7357560Y3326240D01*
X7357160Y3325240D01*
X7356760Y3324240D01*
X7356260Y3323240D01*
X7355660Y3322340D01*
X7355060Y3321540D01*
X7354360Y3320640D01*
X7353660Y3319840D01*
X7352960Y3319040D01*
X7352160Y3318340D01*
X7351360Y3317640D01*
X7350460Y3316940D01*
X7349660Y3316340D01*
X7348760Y3315740D01*
X7347760Y3315240D01*
X7346760Y3314840D01*
X7345760Y3314440D01*
X7344760Y3314040D01*
X7343760Y3313740D01*
X7342760Y3313440D01*
X7341660Y3313340D01*
X7340560Y3313140D01*
X7339560Y3313040D01*
X7338460D01*
X7278460D01*
X7277360D01*
X7276360Y3313140D01*
X7275260Y3313340D01*
X7274160Y3313440D01*
X7273160Y3313740D01*
X7272160Y3314040D01*
X7271160Y3314440D01*
X7270160Y3314840D01*
X7269160Y3315240D01*
X7268260Y3315740D01*
X7267260Y3316340D01*
X7266460Y3316940D01*
X7265560Y3317640D01*
X7264760Y3318340D01*
X7263960Y3319040D01*
X7263260Y3319840D01*
X7262560Y3320640D01*
X7261860Y3321540D01*
X7261260Y3322340D01*
X7260660Y3323240D01*
X7260160Y3324240D01*
X7259760Y3325240D01*
X7259360Y3326240D01*
X7258960Y3327240D01*
X7258660Y3328240D01*
X7258360Y3329240D01*
X7258260Y3330340D01*
X7258060Y3331440D01*
X7257960Y3332440D01*
Y3334640D01*
X7258060Y3335640D01*
X7258260Y3336740D01*
X7258360Y3337840D01*
X7258660Y3338840D01*
X7258960Y3339840D01*
X7259360Y3340840D01*
X7259760Y3341840D01*
X7260160Y3342840D01*
X7260660Y3343840D01*
X7261260Y3344740D01*
X7261860Y3345540D01*
X7262560Y3346440D01*
X7263260Y3347240D01*
X7263960Y3348040D01*
X7264760Y3348740D01*
X7265560Y3349440D01*
X7266460Y3350140D01*
X7267260Y3350740D01*
X7268260Y3351340D01*
X7269160Y3351840D01*
X7270160Y3352240D01*
X7271160Y3352640D01*
X7272160Y3353040D01*
X7273160Y3353340D01*
X7274160Y3353640D01*
X7275260Y3353740D01*
X7276360Y3353940D01*
X7277360Y3354040D01*
X7278460D01*
X7338460D01*
X7339560D01*
X7340560Y3353940D01*
X7341660Y3353740D01*
X7342760Y3353640D01*
X7343760Y3353340D01*
X7344760Y3353040D01*
X7345760Y3352640D01*
X7346760Y3352240D01*
X7347760Y3351840D01*
X7348760Y3351340D01*
X7349660Y3350740D01*
X7350460Y3350140D01*
X7351360Y3349440D01*
X7352160Y3348740D01*
X7352960Y3348040D01*
X7353660Y3347240D01*
X7354360Y3346440D01*
X7355060Y3345540D01*
X7355660Y3344740D01*
X7356260Y3343840D01*
X7356760Y3342840D01*
X7357160Y3341840D01*
X7357560Y3340840D01*
X7357960Y3339840D01*
X7358260Y3338840D01*
X7358560Y3337840D01*
X7358660Y3336740D01*
X7358860Y3335640D01*
X7358960Y3334640D01*
Y3332440D01*
X7358860Y3331440D01*
D02*
G37*
G36*
Y3381440D02*
X7358660Y3380340D01*
X7358560Y3379240D01*
X7358260Y3378240D01*
X7357960Y3377240D01*
X7357560Y3376240D01*
X7357160Y3375240D01*
X7356760Y3374240D01*
X7356260Y3373240D01*
X7355660Y3372340D01*
X7355060Y3371540D01*
X7354360Y3370640D01*
X7353660Y3369840D01*
X7352960Y3369040D01*
X7352160Y3368340D01*
X7351360Y3367640D01*
X7350460Y3366940D01*
X7349660Y3366340D01*
X7348760Y3365740D01*
X7347760Y3365240D01*
X7346760Y3364840D01*
X7345760Y3364440D01*
X7344760Y3364040D01*
X7343760Y3363740D01*
X7342760Y3363440D01*
X7341660Y3363340D01*
X7340560Y3363140D01*
X7339560Y3363040D01*
X7338460D01*
X7278460D01*
X7277360D01*
X7276360Y3363140D01*
X7275260Y3363340D01*
X7274160Y3363440D01*
X7273160Y3363740D01*
X7272160Y3364040D01*
X7271160Y3364440D01*
X7270160Y3364840D01*
X7269160Y3365240D01*
X7268260Y3365740D01*
X7267260Y3366340D01*
X7266460Y3366940D01*
X7265560Y3367640D01*
X7264760Y3368340D01*
X7263960Y3369040D01*
X7263260Y3369840D01*
X7262560Y3370640D01*
X7261860Y3371540D01*
X7261260Y3372340D01*
X7260660Y3373240D01*
X7260160Y3374240D01*
X7259760Y3375240D01*
X7259360Y3376240D01*
X7258960Y3377240D01*
X7258660Y3378240D01*
X7258360Y3379240D01*
X7258260Y3380340D01*
X7258060Y3381440D01*
X7257960Y3382440D01*
Y3384640D01*
X7258060Y3385640D01*
X7258260Y3386740D01*
X7258360Y3387840D01*
X7258660Y3388840D01*
X7258960Y3389840D01*
X7259360Y3390840D01*
X7259760Y3391840D01*
X7260160Y3392840D01*
X7260660Y3393840D01*
X7261260Y3394740D01*
X7261860Y3395540D01*
X7262560Y3396440D01*
X7263260Y3397240D01*
X7263960Y3398040D01*
X7264760Y3398740D01*
X7265560Y3399440D01*
X7266460Y3400140D01*
X7267260Y3400740D01*
X7268260Y3401340D01*
X7269160Y3401840D01*
X7270160Y3402240D01*
X7271160Y3402640D01*
X7272160Y3403040D01*
X7273160Y3403340D01*
X7274160Y3403640D01*
X7275260Y3403740D01*
X7276360Y3403940D01*
X7277360Y3404040D01*
X7278460D01*
X7338460D01*
X7339560D01*
X7340560Y3403940D01*
X7341660Y3403740D01*
X7342760Y3403640D01*
X7343760Y3403340D01*
X7344760Y3403040D01*
X7345760Y3402640D01*
X7346760Y3402240D01*
X7347760Y3401840D01*
X7348760Y3401340D01*
X7349660Y3400740D01*
X7350460Y3400140D01*
X7351360Y3399440D01*
X7352160Y3398740D01*
X7352960Y3398040D01*
X7353660Y3397240D01*
X7354360Y3396440D01*
X7355060Y3395540D01*
X7355660Y3394740D01*
X7356260Y3393840D01*
X7356760Y3392840D01*
X7357160Y3391840D01*
X7357560Y3390840D01*
X7357960Y3389840D01*
X7358260Y3388840D01*
X7358560Y3387840D01*
X7358660Y3386740D01*
X7358860Y3385640D01*
X7358960Y3384640D01*
Y3382440D01*
X7358860Y3381440D01*
D02*
G37*
G36*
Y3431440D02*
X7358660Y3430340D01*
X7358560Y3429240D01*
X7358260Y3428240D01*
X7357960Y3427240D01*
X7357560Y3426240D01*
X7357160Y3425240D01*
X7356760Y3424240D01*
X7356260Y3423240D01*
X7355660Y3422340D01*
X7355060Y3421540D01*
X7354360Y3420640D01*
X7353660Y3419840D01*
X7352960Y3419040D01*
X7352160Y3418340D01*
X7351360Y3417640D01*
X7350460Y3416940D01*
X7349660Y3416340D01*
X7348760Y3415740D01*
X7347760Y3415240D01*
X7346760Y3414840D01*
X7345760Y3414440D01*
X7344760Y3414040D01*
X7343760Y3413740D01*
X7342760Y3413440D01*
X7341660Y3413340D01*
X7340560Y3413140D01*
X7339560Y3413040D01*
X7338460D01*
X7278460D01*
X7277360D01*
X7276360Y3413140D01*
X7275260Y3413340D01*
X7274160Y3413440D01*
X7273160Y3413740D01*
X7272160Y3414040D01*
X7271160Y3414440D01*
X7270160Y3414840D01*
X7269160Y3415240D01*
X7268260Y3415740D01*
X7267260Y3416340D01*
X7266460Y3416940D01*
X7265560Y3417640D01*
X7264760Y3418340D01*
X7263960Y3419040D01*
X7263260Y3419840D01*
X7262560Y3420640D01*
X7261860Y3421540D01*
X7261260Y3422340D01*
X7260660Y3423240D01*
X7260160Y3424240D01*
X7259760Y3425240D01*
X7259360Y3426240D01*
X7258960Y3427240D01*
X7258660Y3428240D01*
X7258360Y3429240D01*
X7258260Y3430340D01*
X7258060Y3431440D01*
X7257960Y3432440D01*
Y3434640D01*
X7258060Y3435640D01*
X7258260Y3436740D01*
X7258360Y3437840D01*
X7258660Y3438840D01*
X7258960Y3439840D01*
X7259360Y3440840D01*
X7259760Y3441840D01*
X7260160Y3442840D01*
X7260660Y3443840D01*
X7261260Y3444740D01*
X7261860Y3445540D01*
X7262560Y3446440D01*
X7263260Y3447240D01*
X7263960Y3448040D01*
X7264760Y3448740D01*
X7265560Y3449440D01*
X7266460Y3450140D01*
X7267260Y3450740D01*
X7268260Y3451340D01*
X7269160Y3451840D01*
X7270160Y3452240D01*
X7271160Y3452640D01*
X7272160Y3453040D01*
X7273160Y3453340D01*
X7274160Y3453640D01*
X7275260Y3453740D01*
X7276360Y3453940D01*
X7277360Y3454040D01*
X7278460D01*
X7338460D01*
X7339560D01*
X7340560Y3453940D01*
X7341660Y3453740D01*
X7342760Y3453640D01*
X7343760Y3453340D01*
X7344760Y3453040D01*
X7345760Y3452640D01*
X7346760Y3452240D01*
X7347760Y3451840D01*
X7348760Y3451340D01*
X7349660Y3450740D01*
X7350460Y3450140D01*
X7351360Y3449440D01*
X7352160Y3448740D01*
X7352960Y3448040D01*
X7353660Y3447240D01*
X7354360Y3446440D01*
X7355060Y3445540D01*
X7355660Y3444740D01*
X7356260Y3443840D01*
X7356760Y3442840D01*
X7357160Y3441840D01*
X7357560Y3440840D01*
X7357960Y3439840D01*
X7358260Y3438840D01*
X7358560Y3437840D01*
X7358660Y3436740D01*
X7358860Y3435640D01*
X7358960Y3434640D01*
Y3432440D01*
X7358860Y3431440D01*
D02*
G37*
G36*
Y3481440D02*
X7358660Y3480340D01*
X7358560Y3479240D01*
X7358260Y3478240D01*
X7357960Y3477240D01*
X7357560Y3476240D01*
X7357160Y3475240D01*
X7356760Y3474240D01*
X7356260Y3473240D01*
X7355660Y3472340D01*
X7355060Y3471540D01*
X7354360Y3470640D01*
X7353660Y3469840D01*
X7352960Y3469040D01*
X7352160Y3468340D01*
X7351360Y3467640D01*
X7350460Y3466940D01*
X7349660Y3466340D01*
X7348760Y3465740D01*
X7347760Y3465240D01*
X7346760Y3464840D01*
X7345760Y3464440D01*
X7344760Y3464040D01*
X7343760Y3463740D01*
X7342760Y3463440D01*
X7341660Y3463340D01*
X7340560Y3463140D01*
X7339560Y3463040D01*
X7338460D01*
X7278460D01*
X7277360D01*
X7276360Y3463140D01*
X7275260Y3463340D01*
X7274160Y3463440D01*
X7273160Y3463740D01*
X7272160Y3464040D01*
X7271160Y3464440D01*
X7270160Y3464840D01*
X7269160Y3465240D01*
X7268260Y3465740D01*
X7267260Y3466340D01*
X7266460Y3466940D01*
X7265560Y3467640D01*
X7264760Y3468340D01*
X7263960Y3469040D01*
X7263260Y3469840D01*
X7262560Y3470640D01*
X7261860Y3471540D01*
X7261260Y3472340D01*
X7260660Y3473240D01*
X7260160Y3474240D01*
X7259760Y3475240D01*
X7259360Y3476240D01*
X7258960Y3477240D01*
X7258660Y3478240D01*
X7258360Y3479240D01*
X7258260Y3480340D01*
X7258060Y3481440D01*
X7257960Y3482440D01*
Y3484640D01*
X7258060Y3485640D01*
X7258260Y3486740D01*
X7258360Y3487840D01*
X7258660Y3488840D01*
X7258960Y3489840D01*
X7259360Y3490840D01*
X7259760Y3491840D01*
X7260160Y3492840D01*
X7260660Y3493840D01*
X7261260Y3494740D01*
X7261860Y3495540D01*
X7262560Y3496440D01*
X7263260Y3497240D01*
X7263960Y3498040D01*
X7264760Y3498740D01*
X7265560Y3499440D01*
X7266460Y3500140D01*
X7267260Y3500740D01*
X7268160Y3501340D01*
X7269160Y3501840D01*
X7270160Y3502240D01*
X7271160Y3502640D01*
X7272160Y3503040D01*
X7273160Y3503340D01*
X7274160Y3503640D01*
X7275260Y3503740D01*
X7276360Y3503940D01*
X7277360Y3504040D01*
X7278460D01*
X7338460D01*
X7339560D01*
X7340560Y3503940D01*
X7341660Y3503740D01*
X7342760Y3503640D01*
X7343760Y3503340D01*
X7344760Y3503040D01*
X7345760Y3502640D01*
X7346760Y3502240D01*
X7347760Y3501840D01*
X7348760Y3501340D01*
X7349660Y3500740D01*
X7350460Y3500140D01*
X7351360Y3499440D01*
X7352160Y3498740D01*
X7352960Y3498040D01*
X7353660Y3497240D01*
X7354360Y3496440D01*
X7355060Y3495540D01*
X7355660Y3494740D01*
X7356260Y3493840D01*
X7356760Y3492840D01*
X7357160Y3491840D01*
X7357560Y3490840D01*
X7357960Y3489840D01*
X7358260Y3488840D01*
X7358560Y3487840D01*
X7358660Y3486740D01*
X7358860Y3485640D01*
X7358960Y3484640D01*
Y3482440D01*
X7358860Y3481440D01*
D02*
G37*
G36*
Y3531440D02*
X7358660Y3530340D01*
X7358560Y3529240D01*
X7358260Y3528240D01*
X7357960Y3527240D01*
X7357560Y3526240D01*
X7357160Y3525240D01*
X7356760Y3524240D01*
X7356260Y3523240D01*
X7355660Y3522340D01*
X7355060Y3521540D01*
X7354360Y3520640D01*
X7353660Y3519840D01*
X7352960Y3519040D01*
X7352160Y3518340D01*
X7351360Y3517640D01*
X7350460Y3516940D01*
X7349660Y3516340D01*
X7348760Y3515740D01*
X7347760Y3515240D01*
X7346760Y3514840D01*
X7345760Y3514440D01*
X7344760Y3514040D01*
X7343760Y3513740D01*
X7342760Y3513440D01*
X7341660Y3513340D01*
X7340560Y3513140D01*
X7339560Y3513040D01*
X7338460D01*
X7278460D01*
X7277360D01*
X7276360Y3513140D01*
X7275260Y3513340D01*
X7274160Y3513440D01*
X7273160Y3513740D01*
X7272160Y3514040D01*
X7271160Y3514440D01*
X7270160Y3514840D01*
X7269160Y3515240D01*
X7268260Y3515740D01*
X7267260Y3516340D01*
X7266460Y3516940D01*
X7265560Y3517640D01*
X7264760Y3518340D01*
X7263960Y3519040D01*
X7263260Y3519840D01*
X7262560Y3520640D01*
X7261860Y3521540D01*
X7261260Y3522340D01*
X7260660Y3523240D01*
X7260160Y3524240D01*
X7259760Y3525240D01*
X7259360Y3526240D01*
X7258960Y3527240D01*
X7258660Y3528240D01*
X7258360Y3529240D01*
X7258260Y3530340D01*
X7258060Y3531440D01*
X7257960Y3532440D01*
Y3534640D01*
X7258060Y3535640D01*
X7258260Y3536740D01*
X7258360Y3537840D01*
X7258660Y3538840D01*
X7258960Y3539840D01*
X7259360Y3540840D01*
X7259760Y3541840D01*
X7260160Y3542840D01*
X7260660Y3543740D01*
X7261260Y3544740D01*
X7261860Y3545540D01*
X7262560Y3546440D01*
X7263260Y3547240D01*
X7263960Y3548040D01*
X7264760Y3548740D01*
X7265560Y3549440D01*
X7266460Y3550140D01*
X7267260Y3550740D01*
X7268260Y3551340D01*
X7269160Y3551840D01*
X7270160Y3552240D01*
X7271160Y3552640D01*
X7272160Y3553040D01*
X7273160Y3553340D01*
X7274160Y3553640D01*
X7275260Y3553740D01*
X7276360Y3553940D01*
X7277360Y3554040D01*
X7278460D01*
X7338460D01*
X7339560D01*
X7340560Y3553940D01*
X7341660Y3553740D01*
X7342760Y3553640D01*
X7343760Y3553340D01*
X7344760Y3553040D01*
X7345760Y3552640D01*
X7346760Y3552240D01*
X7347760Y3551840D01*
X7348760Y3551340D01*
X7349660Y3550740D01*
X7350460Y3550140D01*
X7351360Y3549440D01*
X7352160Y3548740D01*
X7352960Y3548040D01*
X7353660Y3547240D01*
X7354360Y3546440D01*
X7355060Y3545540D01*
X7355660Y3544740D01*
X7356260Y3543740D01*
X7356760Y3542840D01*
X7357160Y3541840D01*
X7357560Y3540840D01*
X7357960Y3539840D01*
X7358260Y3538840D01*
X7358560Y3537840D01*
X7358660Y3536740D01*
X7358860Y3535640D01*
X7358960Y3534640D01*
Y3532440D01*
X7358860Y3531440D01*
D02*
G37*
G36*
Y3581440D02*
X7358660Y3580340D01*
X7358560Y3579240D01*
X7358260Y3578240D01*
X7357960Y3577240D01*
X7357560Y3576240D01*
X7357160Y3575240D01*
X7356760Y3574240D01*
X7356260Y3573240D01*
X7355660Y3572340D01*
X7355060Y3571540D01*
X7354360Y3570640D01*
X7353660Y3569840D01*
X7352960Y3569040D01*
X7352160Y3568340D01*
X7351360Y3567640D01*
X7350460Y3566940D01*
X7349660Y3566340D01*
X7348760Y3565740D01*
X7347760Y3565240D01*
X7346760Y3564840D01*
X7345760Y3564440D01*
X7344760Y3564040D01*
X7343760Y3563740D01*
X7342760Y3563440D01*
X7341660Y3563340D01*
X7340560Y3563140D01*
X7339560Y3563040D01*
X7338460D01*
X7278460D01*
X7277360D01*
X7276360Y3563140D01*
X7275260Y3563340D01*
X7274160Y3563440D01*
X7273160Y3563740D01*
X7272160Y3564040D01*
X7271160Y3564440D01*
X7270160Y3564840D01*
X7269160Y3565240D01*
X7268260Y3565740D01*
X7267260Y3566340D01*
X7266460Y3566940D01*
X7265560Y3567640D01*
X7264760Y3568340D01*
X7263960Y3569040D01*
X7263260Y3569840D01*
X7262560Y3570640D01*
X7261860Y3571540D01*
X7261260Y3572340D01*
X7260660Y3573240D01*
X7260160Y3574240D01*
X7259760Y3575240D01*
X7259360Y3576240D01*
X7258960Y3577240D01*
X7258660Y3578240D01*
X7258360Y3579240D01*
X7258260Y3580340D01*
X7258060Y3581440D01*
X7257960Y3582440D01*
Y3584640D01*
X7258060Y3585640D01*
X7258260Y3586740D01*
X7258360Y3587840D01*
X7258660Y3588840D01*
X7258960Y3589840D01*
X7259360Y3590840D01*
X7259760Y3591840D01*
X7260160Y3592840D01*
X7260660Y3593840D01*
X7261260Y3594740D01*
X7261860Y3595540D01*
X7262560Y3596440D01*
X7263260Y3597240D01*
X7263960Y3598040D01*
X7264760Y3598740D01*
X7265560Y3599440D01*
X7266460Y3600140D01*
X7267260Y3600740D01*
X7268260Y3601340D01*
X7269160Y3601840D01*
X7270160Y3602240D01*
X7271160Y3602640D01*
X7272160Y3603040D01*
X7273160Y3603340D01*
X7274160Y3603640D01*
X7275260Y3603740D01*
X7276360Y3603940D01*
X7277360Y3604040D01*
X7278460D01*
X7338460D01*
X7339560D01*
X7340560Y3603940D01*
X7341660Y3603740D01*
X7342760Y3603640D01*
X7343760Y3603340D01*
X7344760Y3603040D01*
X7345760Y3602640D01*
X7346760Y3602240D01*
X7347760Y3601840D01*
X7348760Y3601340D01*
X7349660Y3600740D01*
X7350460Y3600140D01*
X7351360Y3599440D01*
X7352160Y3598740D01*
X7352960Y3598040D01*
X7353660Y3597240D01*
X7354360Y3596440D01*
X7355060Y3595540D01*
X7355660Y3594740D01*
X7356260Y3593740D01*
X7356760Y3592840D01*
X7357160Y3591840D01*
X7357560Y3590840D01*
X7357960Y3589840D01*
X7358260Y3588840D01*
X7358560Y3587840D01*
X7358660Y3586740D01*
X7358860Y3585640D01*
X7358960Y3584640D01*
Y3582440D01*
X7358860Y3581440D01*
D02*
G37*
G36*
Y3631440D02*
X7358660Y3630340D01*
X7358560Y3629240D01*
X7358260Y3628240D01*
X7357960Y3627240D01*
X7357560Y3626240D01*
X7357160Y3625240D01*
X7356760Y3624240D01*
X7356260Y3623240D01*
X7355660Y3622340D01*
X7355060Y3621540D01*
X7354360Y3620640D01*
X7353660Y3619840D01*
X7352960Y3619040D01*
X7352160Y3618340D01*
X7351360Y3617640D01*
X7350460Y3616940D01*
X7349660Y3616340D01*
X7348760Y3615740D01*
X7347760Y3615240D01*
X7346760Y3614840D01*
X7345760Y3614440D01*
X7344760Y3614040D01*
X7343760Y3613740D01*
X7342760Y3613440D01*
X7341660Y3613340D01*
X7340560Y3613140D01*
X7339560Y3613040D01*
X7338460D01*
X7278460D01*
X7277360D01*
X7276360Y3613140D01*
X7275260Y3613340D01*
X7274160Y3613440D01*
X7273160Y3613740D01*
X7272160Y3614040D01*
X7271160Y3614440D01*
X7270160Y3614840D01*
X7269160Y3615240D01*
X7268260Y3615740D01*
X7267260Y3616340D01*
X7266460Y3616940D01*
X7265560Y3617640D01*
X7264760Y3618340D01*
X7263960Y3619040D01*
X7263260Y3619840D01*
X7262560Y3620640D01*
X7261860Y3621540D01*
X7261260Y3622340D01*
X7260660Y3623240D01*
X7260160Y3624240D01*
X7259760Y3625240D01*
X7259360Y3626240D01*
X7258960Y3627240D01*
X7258660Y3628240D01*
X7258360Y3629240D01*
X7258260Y3630340D01*
X7258060Y3631440D01*
X7257960Y3632440D01*
Y3634640D01*
X7258060Y3635640D01*
X7258260Y3636740D01*
X7258360Y3637840D01*
X7258660Y3638840D01*
X7258960Y3639840D01*
X7259360Y3640840D01*
X7259760Y3641840D01*
X7260160Y3642840D01*
X7260660Y3643840D01*
X7261260Y3644740D01*
X7261860Y3645540D01*
X7262560Y3646440D01*
X7263260Y3647240D01*
X7263960Y3648040D01*
X7264760Y3648740D01*
X7265560Y3649440D01*
X7266460Y3650140D01*
X7267260Y3650740D01*
X7268160Y3651340D01*
X7269160Y3651840D01*
X7270160Y3652240D01*
X7271160Y3652640D01*
X7272160Y3653040D01*
X7273160Y3653340D01*
X7274160Y3653640D01*
X7275260Y3653740D01*
X7276360Y3653940D01*
X7277360Y3654040D01*
X7278460D01*
X7338460D01*
X7339560D01*
X7340560Y3653940D01*
X7341660Y3653740D01*
X7342760Y3653640D01*
X7343760Y3653340D01*
X7344760Y3653040D01*
X7345760Y3652640D01*
X7346760Y3652240D01*
X7347760Y3651840D01*
X7348760Y3651340D01*
X7349660Y3650740D01*
X7350460Y3650140D01*
X7351360Y3649440D01*
X7352160Y3648740D01*
X7352960Y3648040D01*
X7353660Y3647240D01*
X7354360Y3646440D01*
X7355060Y3645540D01*
X7355660Y3644740D01*
X7356260Y3643840D01*
X7356760Y3642840D01*
X7357160Y3641840D01*
X7357560Y3640840D01*
X7357960Y3639840D01*
X7358260Y3638840D01*
X7358560Y3637840D01*
X7358660Y3636740D01*
X7358860Y3635640D01*
X7358960Y3634640D01*
Y3632440D01*
X7358860Y3631440D01*
D02*
G37*
G36*
Y3681440D02*
X7358660Y3680340D01*
X7358560Y3679240D01*
X7358260Y3678240D01*
X7357960Y3677240D01*
X7357560Y3676240D01*
X7357160Y3675240D01*
X7356760Y3674240D01*
X7356260Y3673240D01*
X7355660Y3672340D01*
X7355060Y3671540D01*
X7354360Y3670640D01*
X7353660Y3669840D01*
X7352960Y3669040D01*
X7352160Y3668340D01*
X7351360Y3667640D01*
X7350460Y3666940D01*
X7349660Y3666340D01*
X7348760Y3665740D01*
X7347760Y3665240D01*
X7346760Y3664840D01*
X7345760Y3664440D01*
X7344760Y3664040D01*
X7343760Y3663740D01*
X7342760Y3663440D01*
X7341660Y3663340D01*
X7340560Y3663140D01*
X7339560Y3663040D01*
X7338460D01*
X7278460D01*
X7277360D01*
X7276360Y3663140D01*
X7275260Y3663340D01*
X7274160Y3663440D01*
X7273160Y3663740D01*
X7272160Y3664040D01*
X7271160Y3664440D01*
X7270160Y3664840D01*
X7269160Y3665240D01*
X7268260Y3665740D01*
X7267260Y3666340D01*
X7266460Y3666940D01*
X7265560Y3667640D01*
X7264760Y3668340D01*
X7263960Y3669040D01*
X7263260Y3669840D01*
X7262560Y3670640D01*
X7261860Y3671540D01*
X7261260Y3672340D01*
X7260660Y3673240D01*
X7260160Y3674240D01*
X7259760Y3675240D01*
X7259360Y3676240D01*
X7258960Y3677240D01*
X7258660Y3678240D01*
X7258360Y3679240D01*
X7258260Y3680340D01*
X7258060Y3681440D01*
X7257960Y3682440D01*
Y3684640D01*
X7258060Y3685640D01*
X7258260Y3686740D01*
X7258360Y3687840D01*
X7258660Y3688840D01*
X7258960Y3689840D01*
X7259360Y3690840D01*
X7259760Y3691840D01*
X7260160Y3692840D01*
X7260660Y3693840D01*
X7261260Y3694740D01*
X7261860Y3695540D01*
X7262560Y3696440D01*
X7263260Y3697240D01*
X7263960Y3698040D01*
X7264760Y3698740D01*
X7265560Y3699440D01*
X7266460Y3700140D01*
X7267260Y3700740D01*
X7268260Y3701340D01*
X7269160Y3701840D01*
X7270160Y3702240D01*
X7271160Y3702640D01*
X7272160Y3703040D01*
X7273160Y3703340D01*
X7274160Y3703640D01*
X7275260Y3703740D01*
X7276360Y3703940D01*
X7277360Y3704040D01*
X7278460D01*
X7338460D01*
X7339560D01*
X7340560Y3703940D01*
X7341660Y3703740D01*
X7342760Y3703640D01*
X7343760Y3703340D01*
X7344760Y3703040D01*
X7345760Y3702640D01*
X7346760Y3702240D01*
X7347760Y3701840D01*
X7348760Y3701340D01*
X7349660Y3700740D01*
X7350460Y3700140D01*
X7351360Y3699440D01*
X7352160Y3698740D01*
X7352960Y3698040D01*
X7353660Y3697240D01*
X7354360Y3696440D01*
X7355060Y3695540D01*
X7355660Y3694740D01*
X7356260Y3693840D01*
X7356760Y3692840D01*
X7357160Y3691840D01*
X7357560Y3690840D01*
X7357960Y3689840D01*
X7358260Y3688840D01*
X7358560Y3687840D01*
X7358660Y3686740D01*
X7358860Y3685640D01*
X7358960Y3684640D01*
Y3682440D01*
X7358860Y3681440D01*
D02*
G37*
G36*
Y3731440D02*
X7358660Y3730340D01*
X7358560Y3729240D01*
X7358260Y3728240D01*
X7357960Y3727240D01*
X7357560Y3726240D01*
X7357160Y3725240D01*
X7356760Y3724240D01*
X7356260Y3723240D01*
X7355660Y3722340D01*
X7355060Y3721540D01*
X7354360Y3720640D01*
X7353660Y3719840D01*
X7352960Y3719040D01*
X7352160Y3718340D01*
X7351360Y3717640D01*
X7350460Y3716940D01*
X7349660Y3716340D01*
X7348760Y3715740D01*
X7347760Y3715240D01*
X7346760Y3714840D01*
X7345760Y3714440D01*
X7344760Y3714040D01*
X7343760Y3713740D01*
X7342760Y3713440D01*
X7341660Y3713340D01*
X7340560Y3713140D01*
X7339560Y3713040D01*
X7338460D01*
X7278460D01*
X7277360D01*
X7276360Y3713140D01*
X7275260Y3713340D01*
X7274160Y3713440D01*
X7273160Y3713740D01*
X7272160Y3714040D01*
X7271160Y3714440D01*
X7270160Y3714840D01*
X7269160Y3715240D01*
X7268260Y3715740D01*
X7267260Y3716340D01*
X7266460Y3716940D01*
X7265560Y3717640D01*
X7264760Y3718340D01*
X7263960Y3719040D01*
X7263260Y3719840D01*
X7262560Y3720640D01*
X7261860Y3721540D01*
X7261260Y3722340D01*
X7260660Y3723240D01*
X7260160Y3724240D01*
X7259760Y3725240D01*
X7259360Y3726240D01*
X7258960Y3727240D01*
X7258660Y3728240D01*
X7258360Y3729240D01*
X7258260Y3730340D01*
X7258060Y3731440D01*
X7257960Y3732440D01*
Y3734640D01*
X7258060Y3735640D01*
X7258260Y3736740D01*
X7258360Y3737840D01*
X7258660Y3738840D01*
X7258960Y3739840D01*
X7259360Y3740840D01*
X7259760Y3741840D01*
X7260160Y3742840D01*
X7260660Y3743840D01*
X7261260Y3744740D01*
X7261860Y3745540D01*
X7262560Y3746440D01*
X7263260Y3747240D01*
X7263960Y3748040D01*
X7264760Y3748740D01*
X7265560Y3749440D01*
X7266460Y3750140D01*
X7267260Y3750740D01*
X7268260Y3751340D01*
X7269160Y3751840D01*
X7270160Y3752240D01*
X7271160Y3752640D01*
X7272160Y3753040D01*
X7273160Y3753340D01*
X7274160Y3753640D01*
X7275260Y3753740D01*
X7276360Y3753940D01*
X7277360Y3754040D01*
X7278460D01*
X7338460D01*
X7339560D01*
X7340560Y3753940D01*
X7341660Y3753740D01*
X7342760Y3753640D01*
X7343760Y3753340D01*
X7344760Y3753040D01*
X7345760Y3752640D01*
X7346760Y3752240D01*
X7347760Y3751840D01*
X7348760Y3751340D01*
X7349660Y3750740D01*
X7350460Y3750140D01*
X7351360Y3749440D01*
X7352160Y3748740D01*
X7352960Y3748040D01*
X7353660Y3747240D01*
X7354360Y3746440D01*
X7355060Y3745540D01*
X7355660Y3744740D01*
X7356260Y3743840D01*
X7356760Y3742840D01*
X7357160Y3741840D01*
X7357560Y3740840D01*
X7357960Y3739840D01*
X7358260Y3738840D01*
X7358560Y3737840D01*
X7358660Y3736740D01*
X7358860Y3735640D01*
X7358960Y3734640D01*
Y3732440D01*
X7358860Y3731440D01*
D02*
G37*
G36*
Y3781440D02*
X7358660Y3780340D01*
X7358560Y3779240D01*
X7358260Y3778240D01*
X7357960Y3777240D01*
X7357560Y3776240D01*
X7357160Y3775240D01*
X7356760Y3774240D01*
X7356260Y3773240D01*
X7355660Y3772340D01*
X7355060Y3771540D01*
X7354360Y3770640D01*
X7353660Y3769840D01*
X7352960Y3769040D01*
X7352160Y3768340D01*
X7351360Y3767640D01*
X7350460Y3766940D01*
X7349660Y3766340D01*
X7348760Y3765740D01*
X7347760Y3765240D01*
X7346760Y3764840D01*
X7345760Y3764440D01*
X7344760Y3764040D01*
X7343760Y3763740D01*
X7342760Y3763440D01*
X7341660Y3763340D01*
X7340560Y3763140D01*
X7339560Y3763040D01*
X7338460D01*
X7278460D01*
X7277360D01*
X7276360Y3763140D01*
X7275260Y3763340D01*
X7274160Y3763440D01*
X7273160Y3763740D01*
X7272160Y3764040D01*
X7271160Y3764440D01*
X7270160Y3764840D01*
X7269160Y3765240D01*
X7268260Y3765740D01*
X7267260Y3766340D01*
X7266460Y3766940D01*
X7265560Y3767640D01*
X7264760Y3768340D01*
X7263960Y3769040D01*
X7263260Y3769840D01*
X7262560Y3770640D01*
X7261860Y3771540D01*
X7261260Y3772340D01*
X7260660Y3773240D01*
X7260160Y3774240D01*
X7259760Y3775240D01*
X7259360Y3776240D01*
X7258960Y3777240D01*
X7258660Y3778240D01*
X7258360Y3779240D01*
X7258260Y3780340D01*
X7258060Y3781440D01*
X7257960Y3782440D01*
Y3784640D01*
X7258060Y3785640D01*
X7258260Y3786740D01*
X7258360Y3787840D01*
X7258660Y3788840D01*
X7258960Y3789840D01*
X7259360Y3790840D01*
X7259760Y3791840D01*
X7260160Y3792840D01*
X7260660Y3793840D01*
X7261260Y3794740D01*
X7261860Y3795540D01*
X7262560Y3796440D01*
X7263260Y3797240D01*
X7263960Y3798040D01*
X7264760Y3798740D01*
X7265560Y3799440D01*
X7266460Y3800140D01*
X7267260Y3800740D01*
X7268260Y3801340D01*
X7269160Y3801840D01*
X7270160Y3802240D01*
X7271160Y3802640D01*
X7272160Y3803040D01*
X7273160Y3803340D01*
X7274160Y3803640D01*
X7275260Y3803740D01*
X7276360Y3803940D01*
X7277360Y3804040D01*
X7278460D01*
X7338460D01*
X7339560D01*
X7340560Y3803940D01*
X7341660Y3803740D01*
X7342760Y3803640D01*
X7343760Y3803340D01*
X7344760Y3803040D01*
X7345760Y3802640D01*
X7346760Y3802240D01*
X7347760Y3801840D01*
X7348760Y3801340D01*
X7349660Y3800740D01*
X7350460Y3800140D01*
X7351360Y3799440D01*
X7352160Y3798740D01*
X7352960Y3798040D01*
X7353660Y3797240D01*
X7354360Y3796440D01*
X7355060Y3795540D01*
X7355660Y3794740D01*
X7356260Y3793840D01*
X7356760Y3792840D01*
X7357160Y3791840D01*
X7357560Y3790840D01*
X7357960Y3789840D01*
X7358260Y3788840D01*
X7358560Y3787840D01*
X7358660Y3786740D01*
X7358860Y3785640D01*
X7358960Y3784640D01*
Y3782440D01*
X7358860Y3781440D01*
D02*
G37*
G36*
Y3831440D02*
X7358660Y3830340D01*
X7358560Y3829240D01*
X7358260Y3828240D01*
X7357960Y3827240D01*
X7357560Y3826240D01*
X7357160Y3825240D01*
X7356760Y3824240D01*
X7356260Y3823240D01*
X7355660Y3822340D01*
X7355060Y3821540D01*
X7354360Y3820640D01*
X7353660Y3819840D01*
X7352960Y3819040D01*
X7352160Y3818340D01*
X7351360Y3817640D01*
X7350460Y3816940D01*
X7349660Y3816340D01*
X7348760Y3815740D01*
X7347760Y3815240D01*
X7346760Y3814840D01*
X7345760Y3814440D01*
X7344760Y3814040D01*
X7343760Y3813740D01*
X7342760Y3813440D01*
X7341660Y3813340D01*
X7340560Y3813140D01*
X7339560Y3813040D01*
X7338460D01*
X7278460D01*
X7277360D01*
X7276360Y3813140D01*
X7275260Y3813340D01*
X7274160Y3813440D01*
X7273160Y3813740D01*
X7272160Y3814040D01*
X7271160Y3814440D01*
X7270160Y3814840D01*
X7269160Y3815240D01*
X7268260Y3815740D01*
X7267260Y3816340D01*
X7266460Y3816940D01*
X7265560Y3817640D01*
X7264760Y3818340D01*
X7263960Y3819040D01*
X7263260Y3819840D01*
X7262560Y3820640D01*
X7261860Y3821540D01*
X7261260Y3822340D01*
X7260660Y3823240D01*
X7260160Y3824240D01*
X7259760Y3825240D01*
X7259360Y3826240D01*
X7258960Y3827240D01*
X7258660Y3828240D01*
X7258360Y3829240D01*
X7258260Y3830340D01*
X7258060Y3831440D01*
X7257960Y3832440D01*
Y3834640D01*
X7258060Y3835640D01*
X7258260Y3836740D01*
X7258360Y3837840D01*
X7258660Y3838840D01*
X7258960Y3839840D01*
X7259360Y3840840D01*
X7259760Y3841840D01*
X7260160Y3842840D01*
X7260660Y3843840D01*
X7261260Y3844740D01*
X7261860Y3845540D01*
X7262560Y3846440D01*
X7263260Y3847240D01*
X7263960Y3848040D01*
X7264760Y3848740D01*
X7265560Y3849440D01*
X7266460Y3850140D01*
X7267260Y3850740D01*
X7268260Y3851340D01*
X7269160Y3851840D01*
X7270160Y3852240D01*
X7271160Y3852640D01*
X7272160Y3853040D01*
X7273160Y3853340D01*
X7274160Y3853640D01*
X7275260Y3853740D01*
X7276360Y3853940D01*
X7277360Y3854040D01*
X7278460D01*
X7338460D01*
X7339560D01*
X7340560Y3853940D01*
X7341660Y3853740D01*
X7342760Y3853640D01*
X7343760Y3853340D01*
X7344760Y3853040D01*
X7345760Y3852640D01*
X7346760Y3852240D01*
X7347760Y3851840D01*
X7348760Y3851340D01*
X7349660Y3850740D01*
X7350460Y3850140D01*
X7351360Y3849440D01*
X7352160Y3848740D01*
X7352960Y3848040D01*
X7353660Y3847240D01*
X7354360Y3846440D01*
X7355060Y3845540D01*
X7355660Y3844740D01*
X7356260Y3843840D01*
X7356760Y3842840D01*
X7357160Y3841840D01*
X7357560Y3840840D01*
X7357960Y3839840D01*
X7358260Y3838840D01*
X7358560Y3837840D01*
X7358660Y3836740D01*
X7358860Y3835640D01*
X7358960Y3834640D01*
Y3832440D01*
X7358860Y3831440D01*
D02*
G37*
G36*
Y3881440D02*
X7358660Y3880340D01*
X7358560Y3879240D01*
X7358260Y3878240D01*
X7357960Y3877240D01*
X7357560Y3876240D01*
X7357160Y3875240D01*
X7356760Y3874240D01*
X7356260Y3873240D01*
X7355660Y3872340D01*
X7355060Y3871540D01*
X7354360Y3870640D01*
X7353660Y3869840D01*
X7352960Y3869040D01*
X7352160Y3868340D01*
X7351360Y3867640D01*
X7350460Y3866940D01*
X7349660Y3866340D01*
X7348760Y3865740D01*
X7347760Y3865240D01*
X7346760Y3864840D01*
X7345760Y3864440D01*
X7344760Y3864040D01*
X7343760Y3863740D01*
X7342760Y3863440D01*
X7341660Y3863340D01*
X7340560Y3863140D01*
X7339560Y3863040D01*
X7338460D01*
X7278460D01*
X7277360D01*
X7276360Y3863140D01*
X7275260Y3863340D01*
X7274160Y3863440D01*
X7273160Y3863740D01*
X7272160Y3864040D01*
X7271160Y3864440D01*
X7270160Y3864840D01*
X7269160Y3865240D01*
X7268260Y3865740D01*
X7267260Y3866340D01*
X7266460Y3866940D01*
X7265560Y3867640D01*
X7264760Y3868340D01*
X7263960Y3869040D01*
X7263260Y3869840D01*
X7262560Y3870640D01*
X7261860Y3871540D01*
X7261260Y3872340D01*
X7260660Y3873240D01*
X7260160Y3874240D01*
X7259760Y3875240D01*
X7259360Y3876240D01*
X7258960Y3877240D01*
X7258660Y3878240D01*
X7258360Y3879240D01*
X7258260Y3880340D01*
X7258060Y3881440D01*
X7257960Y3882440D01*
Y3884640D01*
X7258060Y3885640D01*
X7258260Y3886740D01*
X7258360Y3887840D01*
X7258660Y3888840D01*
X7258960Y3889840D01*
X7259360Y3890840D01*
X7259760Y3891840D01*
X7260160Y3892840D01*
X7260660Y3893840D01*
X7261260Y3894740D01*
X7261860Y3895540D01*
X7262560Y3896440D01*
X7263260Y3897240D01*
X7263960Y3898040D01*
X7264760Y3898740D01*
X7265560Y3899440D01*
X7266460Y3900140D01*
X7267260Y3900740D01*
X7268260Y3901340D01*
X7269160Y3901840D01*
X7270160Y3902240D01*
X7271160Y3902640D01*
X7272160Y3903040D01*
X7273160Y3903340D01*
X7274160Y3903640D01*
X7275260Y3903740D01*
X7276360Y3903940D01*
X7277360Y3904040D01*
X7278460D01*
X7338460D01*
X7339560D01*
X7340560Y3903940D01*
X7341660Y3903740D01*
X7342760Y3903640D01*
X7343760Y3903340D01*
X7344760Y3903040D01*
X7345760Y3902640D01*
X7346760Y3902240D01*
X7347760Y3901840D01*
X7348760Y3901340D01*
X7349660Y3900740D01*
X7350460Y3900140D01*
X7351360Y3899440D01*
X7352160Y3898740D01*
X7352960Y3898040D01*
X7353660Y3897240D01*
X7354360Y3896440D01*
X7355060Y3895540D01*
X7355660Y3894740D01*
X7356260Y3893840D01*
X7356760Y3892840D01*
X7357160Y3891840D01*
X7357560Y3890840D01*
X7357960Y3889840D01*
X7358260Y3888840D01*
X7358560Y3887840D01*
X7358660Y3886740D01*
X7358860Y3885640D01*
X7358960Y3884640D01*
Y3882440D01*
X7358860Y3881440D01*
D02*
G37*
G36*
Y3931440D02*
X7358660Y3930340D01*
X7358560Y3929240D01*
X7358260Y3928240D01*
X7357960Y3927240D01*
X7357560Y3926240D01*
X7357160Y3925240D01*
X7356760Y3924240D01*
X7356260Y3923240D01*
X7355660Y3922340D01*
X7355060Y3921540D01*
X7354360Y3920640D01*
X7353660Y3919840D01*
X7352960Y3919040D01*
X7352160Y3918340D01*
X7351360Y3917640D01*
X7350460Y3916940D01*
X7349660Y3916340D01*
X7348760Y3915740D01*
X7347760Y3915240D01*
X7346760Y3914840D01*
X7345760Y3914440D01*
X7344760Y3914040D01*
X7343760Y3913740D01*
X7342760Y3913440D01*
X7341660Y3913340D01*
X7340560Y3913140D01*
X7339560Y3913040D01*
X7338460D01*
X7278460D01*
X7277360D01*
X7276360Y3913140D01*
X7275260Y3913340D01*
X7274160Y3913440D01*
X7273160Y3913740D01*
X7272160Y3914040D01*
X7271160Y3914440D01*
X7270160Y3914840D01*
X7269160Y3915240D01*
X7268260Y3915740D01*
X7267260Y3916340D01*
X7266460Y3916940D01*
X7265560Y3917640D01*
X7264760Y3918340D01*
X7263960Y3919040D01*
X7263260Y3919840D01*
X7262560Y3920640D01*
X7261860Y3921540D01*
X7261260Y3922340D01*
X7260660Y3923240D01*
X7260160Y3924240D01*
X7259760Y3925240D01*
X7259360Y3926240D01*
X7258960Y3927240D01*
X7258660Y3928240D01*
X7258360Y3929240D01*
X7258260Y3930340D01*
X7258060Y3931440D01*
X7257960Y3932440D01*
Y3934640D01*
X7258060Y3935640D01*
X7258260Y3936740D01*
X7258360Y3937840D01*
X7258660Y3938840D01*
X7258960Y3939840D01*
X7259360Y3940840D01*
X7259760Y3941840D01*
X7260160Y3942840D01*
X7260660Y3943840D01*
X7261260Y3944740D01*
X7261860Y3945540D01*
X7262560Y3946440D01*
X7263260Y3947240D01*
X7263960Y3948040D01*
X7264760Y3948740D01*
X7265560Y3949440D01*
X7266460Y3950140D01*
X7267260Y3950740D01*
X7268260Y3951340D01*
X7269160Y3951840D01*
X7270160Y3952240D01*
X7271160Y3952640D01*
X7272160Y3953040D01*
X7273160Y3953340D01*
X7274160Y3953640D01*
X7275260Y3953740D01*
X7276360Y3953940D01*
X7277360Y3954040D01*
X7278460D01*
X7338460D01*
X7339560D01*
X7340560Y3953940D01*
X7341660Y3953740D01*
X7342760Y3953640D01*
X7343760Y3953340D01*
X7344760Y3953040D01*
X7345760Y3952640D01*
X7346760Y3952240D01*
X7347760Y3951840D01*
X7348760Y3951340D01*
X7349660Y3950740D01*
X7350460Y3950140D01*
X7351360Y3949440D01*
X7352160Y3948740D01*
X7352960Y3948040D01*
X7353660Y3947240D01*
X7354360Y3946440D01*
X7355060Y3945540D01*
X7355660Y3944740D01*
X7356260Y3943840D01*
X7356760Y3942840D01*
X7357160Y3941840D01*
X7357560Y3940840D01*
X7357960Y3939840D01*
X7358260Y3938840D01*
X7358560Y3937840D01*
X7358660Y3936740D01*
X7358860Y3935640D01*
X7358960Y3934640D01*
Y3932440D01*
X7358860Y3931440D01*
D02*
G37*
G36*
Y3981440D02*
X7358660Y3980340D01*
X7358560Y3979240D01*
X7358260Y3978240D01*
X7357960Y3977240D01*
X7357560Y3976240D01*
X7357160Y3975240D01*
X7356760Y3974240D01*
X7356260Y3973240D01*
X7355660Y3972340D01*
X7355060Y3971540D01*
X7354360Y3970640D01*
X7353660Y3969840D01*
X7352960Y3969040D01*
X7352160Y3968340D01*
X7351360Y3967640D01*
X7350460Y3966940D01*
X7349660Y3966340D01*
X7348760Y3965740D01*
X7347760Y3965240D01*
X7346760Y3964840D01*
X7345760Y3964440D01*
X7344760Y3964040D01*
X7343760Y3963740D01*
X7342760Y3963440D01*
X7341660Y3963340D01*
X7340560Y3963140D01*
X7339560Y3963040D01*
X7338460D01*
X7278460D01*
X7277360D01*
X7276360Y3963140D01*
X7275260Y3963340D01*
X7274160Y3963440D01*
X7273160Y3963740D01*
X7272160Y3964040D01*
X7271160Y3964440D01*
X7270160Y3964840D01*
X7269160Y3965240D01*
X7268260Y3965740D01*
X7267260Y3966340D01*
X7266460Y3966940D01*
X7265560Y3967640D01*
X7264760Y3968340D01*
X7263960Y3969040D01*
X7263260Y3969840D01*
X7262560Y3970640D01*
X7261860Y3971540D01*
X7261260Y3972340D01*
X7260660Y3973240D01*
X7260160Y3974240D01*
X7259760Y3975240D01*
X7259360Y3976240D01*
X7258960Y3977240D01*
X7258660Y3978240D01*
X7258360Y3979240D01*
X7258260Y3980340D01*
X7258060Y3981440D01*
X7257960Y3982440D01*
Y3984640D01*
X7258060Y3985640D01*
X7258260Y3986740D01*
X7258360Y3987840D01*
X7258660Y3988840D01*
X7258960Y3989840D01*
X7259360Y3990840D01*
X7259760Y3991840D01*
X7260160Y3992840D01*
X7260660Y3993840D01*
X7261260Y3994740D01*
X7261860Y3995540D01*
X7262560Y3996440D01*
X7263260Y3997240D01*
X7263960Y3998040D01*
X7264760Y3998740D01*
X7265560Y3999440D01*
X7266460Y4000140D01*
X7267260Y4000740D01*
X7268260Y4001340D01*
X7269160Y4001840D01*
X7270160Y4002240D01*
X7271160Y4002640D01*
X7272160Y4003040D01*
X7273160Y4003340D01*
X7274160Y4003640D01*
X7275260Y4003740D01*
X7276360Y4003940D01*
X7277360Y4004040D01*
X7278460D01*
X7338460D01*
X7339560D01*
X7340560Y4003940D01*
X7341660Y4003740D01*
X7342760Y4003640D01*
X7343760Y4003340D01*
X7344760Y4003040D01*
X7345760Y4002640D01*
X7346760Y4002240D01*
X7347760Y4001840D01*
X7348760Y4001340D01*
X7349660Y4000740D01*
X7350460Y4000140D01*
X7351360Y3999440D01*
X7352160Y3998740D01*
X7352960Y3998040D01*
X7353660Y3997240D01*
X7354360Y3996440D01*
X7355060Y3995540D01*
X7355660Y3994740D01*
X7356260Y3993840D01*
X7356760Y3992840D01*
X7357160Y3991840D01*
X7357560Y3990840D01*
X7357960Y3989840D01*
X7358260Y3988840D01*
X7358560Y3987840D01*
X7358660Y3986740D01*
X7358860Y3985640D01*
X7358960Y3984640D01*
Y3982440D01*
X7358860Y3981440D01*
D02*
G37*
G36*
Y4031440D02*
X7358660Y4030340D01*
X7358560Y4029240D01*
X7358260Y4028240D01*
X7357960Y4027240D01*
X7357560Y4026240D01*
X7357160Y4025240D01*
X7356760Y4024240D01*
X7356260Y4023240D01*
X7355660Y4022340D01*
X7355060Y4021540D01*
X7354360Y4020640D01*
X7353660Y4019840D01*
X7352960Y4019040D01*
X7352160Y4018340D01*
X7351360Y4017640D01*
X7350460Y4016940D01*
X7349660Y4016340D01*
X7348760Y4015740D01*
X7347760Y4015240D01*
X7346760Y4014840D01*
X7345760Y4014440D01*
X7344760Y4014040D01*
X7343760Y4013740D01*
X7342760Y4013440D01*
X7341660Y4013340D01*
X7340560Y4013140D01*
X7339560Y4013040D01*
X7338460D01*
X7278460D01*
X7277360D01*
X7276360Y4013140D01*
X7275260Y4013340D01*
X7274160Y4013440D01*
X7273160Y4013740D01*
X7272160Y4014040D01*
X7271160Y4014440D01*
X7270160Y4014840D01*
X7269160Y4015240D01*
X7268260Y4015740D01*
X7267260Y4016340D01*
X7266460Y4016940D01*
X7265560Y4017640D01*
X7264760Y4018340D01*
X7263960Y4019040D01*
X7263260Y4019840D01*
X7262560Y4020640D01*
X7261860Y4021540D01*
X7261260Y4022340D01*
X7260660Y4023240D01*
X7260160Y4024240D01*
X7259760Y4025240D01*
X7259360Y4026240D01*
X7258960Y4027240D01*
X7258660Y4028240D01*
X7258360Y4029240D01*
X7258260Y4030340D01*
X7258060Y4031440D01*
X7257960Y4032440D01*
Y4034640D01*
X7258060Y4035640D01*
X7258260Y4036740D01*
X7258360Y4037840D01*
X7258660Y4038840D01*
X7258960Y4039840D01*
X7259360Y4040840D01*
X7259760Y4041840D01*
X7260160Y4042840D01*
X7260660Y4043840D01*
X7261260Y4044740D01*
X7261860Y4045540D01*
X7262560Y4046440D01*
X7263260Y4047240D01*
X7263960Y4048040D01*
X7264760Y4048740D01*
X7265560Y4049440D01*
X7266460Y4050140D01*
X7267260Y4050740D01*
X7268260Y4051340D01*
X7269160Y4051840D01*
X7270160Y4052240D01*
X7271160Y4052640D01*
X7272160Y4053040D01*
X7273160Y4053340D01*
X7274160Y4053640D01*
X7275260Y4053740D01*
X7276360Y4053940D01*
X7277360Y4054040D01*
X7278460D01*
X7338460D01*
X7339560D01*
X7340560Y4053940D01*
X7341660Y4053740D01*
X7342760Y4053640D01*
X7343760Y4053340D01*
X7344760Y4053040D01*
X7345760Y4052640D01*
X7346760Y4052240D01*
X7347760Y4051840D01*
X7348760Y4051340D01*
X7349660Y4050740D01*
X7350460Y4050140D01*
X7351360Y4049440D01*
X7352160Y4048740D01*
X7352960Y4048040D01*
X7353660Y4047240D01*
X7354360Y4046440D01*
X7355060Y4045540D01*
X7355660Y4044740D01*
X7356260Y4043840D01*
X7356760Y4042840D01*
X7357160Y4041840D01*
X7357560Y4040840D01*
X7357960Y4039840D01*
X7358260Y4038840D01*
X7358560Y4037840D01*
X7358660Y4036740D01*
X7358860Y4035640D01*
X7358960Y4034640D01*
Y4032440D01*
X7358860Y4031440D01*
D02*
G37*
G36*
X7559560Y4103940D02*
X7560660Y4103740D01*
X7561760Y4103640D01*
X7562760Y4103340D01*
X7563760Y4103040D01*
X7564760Y4102640D01*
X7565760Y4102240D01*
X7566760Y4101840D01*
X7567760Y4101340D01*
X7568660Y4100740D01*
X7569460Y4100140D01*
X7570360Y4099440D01*
X7571160Y4098740D01*
X7571960Y4098040D01*
X7572660Y4097240D01*
X7573360Y4096440D01*
X7574060Y4095540D01*
X7574660Y4094740D01*
X7575260Y4093840D01*
X7575760Y4092840D01*
X7576160Y4091840D01*
X7576560Y4090840D01*
X7576960Y4089840D01*
X7577260Y4088840D01*
X7577560Y4087840D01*
X7577660Y4086740D01*
X7577860Y4085640D01*
X7577960Y4084640D01*
Y4082440D01*
X7577860Y4081440D01*
X7577660Y4080340D01*
X7577560Y4079240D01*
X7577260Y4078240D01*
X7576960Y4077240D01*
X7576560Y4076240D01*
X7576160Y4075240D01*
X7575760Y4074240D01*
X7575260Y4073240D01*
X7574660Y4072340D01*
X7574060Y4071540D01*
X7573360Y4070640D01*
X7572660Y4069840D01*
X7571960Y4069040D01*
X7571160Y4068340D01*
X7570360Y4067640D01*
X7569460Y4066940D01*
X7568660Y4066340D01*
X7567760Y4065740D01*
X7566760Y4065240D01*
X7565760Y4064840D01*
X7564760Y4064440D01*
X7563760Y4064040D01*
X7562760Y4063740D01*
X7561760Y4063440D01*
X7560660Y4063340D01*
X7559560Y4063140D01*
X7558560Y4063040D01*
X7496360D01*
X7495360Y4063140D01*
X7494260Y4063340D01*
X7493160Y4063440D01*
X7492160Y4063740D01*
X7491160Y4064040D01*
X7490160Y4064440D01*
X7489160Y4064840D01*
X7488160Y4065240D01*
X7487160Y4065740D01*
X7486260Y4066340D01*
X7485460Y4066940D01*
X7484560Y4067640D01*
X7483760Y4068340D01*
X7482960Y4069040D01*
X7482260Y4069840D01*
X7481560Y4070640D01*
X7480860Y4071540D01*
X7480260Y4072340D01*
X7479660Y4073240D01*
X7479160Y4074240D01*
X7478760Y4075240D01*
X7478360Y4076240D01*
X7477960Y4077240D01*
X7477660Y4078240D01*
X7477360Y4079240D01*
X7477260Y4080340D01*
X7477060Y4081440D01*
X7476960Y4082440D01*
Y4084640D01*
X7477060Y4085640D01*
X7477260Y4086740D01*
X7477360Y4087840D01*
X7477660Y4088840D01*
X7477960Y4089840D01*
X7478360Y4090840D01*
X7478760Y4091840D01*
X7479160Y4092840D01*
X7479660Y4093840D01*
X7480260Y4094740D01*
X7480860Y4095540D01*
X7481560Y4096440D01*
X7482260Y4097240D01*
X7482960Y4098040D01*
X7483760Y4098740D01*
X7484560Y4099440D01*
X7485460Y4100140D01*
X7486260Y4100740D01*
X7487160Y4101340D01*
X7488160Y4101840D01*
X7489160Y4102240D01*
X7490160Y4102640D01*
X7491160Y4103040D01*
X7492160Y4103340D01*
X7493160Y4103640D01*
X7494260Y4103740D01*
X7495360Y4103940D01*
X7496360Y4104040D01*
X7558560D01*
X7559560Y4103940D01*
D02*
G37*
G36*
Y4053940D02*
X7560660Y4053740D01*
X7561760Y4053640D01*
X7562760Y4053340D01*
X7563760Y4053040D01*
X7564760Y4052640D01*
X7565760Y4052240D01*
X7566760Y4051840D01*
X7567760Y4051340D01*
X7568660Y4050740D01*
X7569460Y4050140D01*
X7570360Y4049440D01*
X7571160Y4048740D01*
X7571960Y4048040D01*
X7572660Y4047240D01*
X7573360Y4046440D01*
X7574060Y4045540D01*
X7574660Y4044740D01*
X7575260Y4043840D01*
X7575760Y4042840D01*
X7576160Y4041840D01*
X7576560Y4040840D01*
X7576960Y4039840D01*
X7577260Y4038840D01*
X7577560Y4037840D01*
X7577660Y4036740D01*
X7577860Y4035640D01*
X7577960Y4034640D01*
Y4032440D01*
X7577860Y4031440D01*
X7577660Y4030340D01*
X7577560Y4029240D01*
X7577260Y4028240D01*
X7576960Y4027240D01*
X7576560Y4026240D01*
X7576160Y4025240D01*
X7575760Y4024240D01*
X7575260Y4023240D01*
X7574660Y4022340D01*
X7574060Y4021540D01*
X7573360Y4020640D01*
X7572660Y4019840D01*
X7571960Y4019040D01*
X7571160Y4018340D01*
X7570360Y4017640D01*
X7569460Y4016940D01*
X7568660Y4016340D01*
X7567760Y4015740D01*
X7566760Y4015240D01*
X7565760Y4014840D01*
X7564760Y4014440D01*
X7563760Y4014040D01*
X7562760Y4013740D01*
X7561760Y4013440D01*
X7560660Y4013340D01*
X7559560Y4013140D01*
X7558560Y4013040D01*
X7496360D01*
X7495360Y4013140D01*
X7494260Y4013340D01*
X7493160Y4013440D01*
X7492160Y4013740D01*
X7491160Y4014040D01*
X7490160Y4014440D01*
X7489160Y4014840D01*
X7488160Y4015240D01*
X7487160Y4015740D01*
X7486260Y4016340D01*
X7485460Y4016940D01*
X7484560Y4017640D01*
X7483760Y4018340D01*
X7482960Y4019040D01*
X7482260Y4019840D01*
X7481560Y4020640D01*
X7480860Y4021540D01*
X7480260Y4022340D01*
X7479660Y4023240D01*
X7479160Y4024240D01*
X7478760Y4025240D01*
X7478360Y4026240D01*
X7477960Y4027240D01*
X7477660Y4028240D01*
X7477360Y4029240D01*
X7477260Y4030340D01*
X7477060Y4031440D01*
X7476960Y4032440D01*
Y4034640D01*
X7477060Y4035640D01*
X7477260Y4036740D01*
X7477360Y4037840D01*
X7477660Y4038840D01*
X7477960Y4039840D01*
X7478360Y4040840D01*
X7478760Y4041840D01*
X7479160Y4042840D01*
X7479660Y4043840D01*
X7480260Y4044740D01*
X7480860Y4045540D01*
X7481560Y4046440D01*
X7482260Y4047240D01*
X7482960Y4048040D01*
X7483760Y4048740D01*
X7484560Y4049440D01*
X7485460Y4050140D01*
X7486260Y4050740D01*
X7487160Y4051340D01*
X7488160Y4051840D01*
X7489160Y4052240D01*
X7490160Y4052640D01*
X7491160Y4053040D01*
X7492160Y4053340D01*
X7493160Y4053640D01*
X7494260Y4053740D01*
X7495360Y4053940D01*
X7496360Y4054040D01*
X7558560D01*
X7559560Y4053940D01*
D02*
G37*
G36*
Y4003940D02*
X7560660Y4003740D01*
X7561760Y4003640D01*
X7562760Y4003340D01*
X7563760Y4003040D01*
X7564760Y4002640D01*
X7565760Y4002240D01*
X7566760Y4001840D01*
X7567760Y4001340D01*
X7568660Y4000740D01*
X7569460Y4000140D01*
X7570360Y3999440D01*
X7571160Y3998740D01*
X7571960Y3998040D01*
X7572660Y3997240D01*
X7573360Y3996440D01*
X7574060Y3995540D01*
X7574660Y3994740D01*
X7575260Y3993840D01*
X7575760Y3992840D01*
X7576160Y3991840D01*
X7576560Y3990840D01*
X7576960Y3989840D01*
X7577260Y3988840D01*
X7577560Y3987840D01*
X7577660Y3986740D01*
X7577860Y3985640D01*
X7577960Y3984640D01*
Y3982440D01*
X7577860Y3981440D01*
X7577660Y3980340D01*
X7577560Y3979240D01*
X7577260Y3978240D01*
X7576960Y3977240D01*
X7576560Y3976240D01*
X7576160Y3975240D01*
X7575760Y3974240D01*
X7575260Y3973240D01*
X7574660Y3972340D01*
X7574060Y3971540D01*
X7573360Y3970640D01*
X7572660Y3969840D01*
X7571960Y3969040D01*
X7571160Y3968340D01*
X7570360Y3967640D01*
X7569460Y3966940D01*
X7568660Y3966340D01*
X7567760Y3965740D01*
X7566760Y3965240D01*
X7565760Y3964840D01*
X7564760Y3964440D01*
X7563760Y3964040D01*
X7562760Y3963740D01*
X7561760Y3963440D01*
X7560660Y3963340D01*
X7559560Y3963140D01*
X7558560Y3963040D01*
X7496360D01*
X7495360Y3963140D01*
X7494260Y3963340D01*
X7493160Y3963440D01*
X7492160Y3963740D01*
X7491160Y3964040D01*
X7490160Y3964440D01*
X7489160Y3964840D01*
X7488160Y3965240D01*
X7487160Y3965740D01*
X7486260Y3966340D01*
X7485460Y3966940D01*
X7484560Y3967640D01*
X7483760Y3968340D01*
X7482960Y3969040D01*
X7482260Y3969840D01*
X7481560Y3970640D01*
X7480860Y3971540D01*
X7480260Y3972340D01*
X7479660Y3973240D01*
X7479160Y3974240D01*
X7478760Y3975240D01*
X7478360Y3976240D01*
X7477960Y3977240D01*
X7477660Y3978240D01*
X7477360Y3979240D01*
X7477260Y3980340D01*
X7477060Y3981440D01*
X7476960Y3982440D01*
Y3984640D01*
X7477060Y3985640D01*
X7477260Y3986740D01*
X7477360Y3987840D01*
X7477660Y3988840D01*
X7477960Y3989840D01*
X7478360Y3990840D01*
X7478760Y3991840D01*
X7479160Y3992840D01*
X7479660Y3993840D01*
X7480260Y3994740D01*
X7480860Y3995540D01*
X7481560Y3996440D01*
X7482260Y3997240D01*
X7482960Y3998040D01*
X7483760Y3998740D01*
X7484560Y3999440D01*
X7485460Y4000140D01*
X7486260Y4000740D01*
X7487160Y4001340D01*
X7488160Y4001840D01*
X7489160Y4002240D01*
X7490160Y4002640D01*
X7491160Y4003040D01*
X7492160Y4003340D01*
X7493160Y4003640D01*
X7494260Y4003740D01*
X7495360Y4003940D01*
X7496360Y4004040D01*
X7558560D01*
X7559560Y4003940D01*
D02*
G37*
G36*
Y3953940D02*
X7560660Y3953740D01*
X7561760Y3953640D01*
X7562760Y3953340D01*
X7563760Y3953040D01*
X7564760Y3952640D01*
X7565760Y3952240D01*
X7566760Y3951840D01*
X7567760Y3951340D01*
X7568660Y3950740D01*
X7569460Y3950140D01*
X7570360Y3949440D01*
X7571160Y3948740D01*
X7571960Y3948040D01*
X7572660Y3947240D01*
X7573360Y3946440D01*
X7574060Y3945540D01*
X7574660Y3944740D01*
X7575260Y3943840D01*
X7575760Y3942840D01*
X7576160Y3941840D01*
X7576560Y3940840D01*
X7576960Y3939840D01*
X7577260Y3938840D01*
X7577560Y3937840D01*
X7577660Y3936740D01*
X7577860Y3935640D01*
X7577960Y3934640D01*
Y3932440D01*
X7577860Y3931440D01*
X7577660Y3930340D01*
X7577560Y3929240D01*
X7577260Y3928240D01*
X7576960Y3927240D01*
X7576560Y3926240D01*
X7576160Y3925240D01*
X7575760Y3924240D01*
X7575260Y3923240D01*
X7574660Y3922340D01*
X7574060Y3921540D01*
X7573360Y3920640D01*
X7572660Y3919840D01*
X7571960Y3919040D01*
X7571160Y3918340D01*
X7570360Y3917640D01*
X7569460Y3916940D01*
X7568660Y3916340D01*
X7567760Y3915740D01*
X7566760Y3915240D01*
X7565760Y3914840D01*
X7564760Y3914440D01*
X7563760Y3914040D01*
X7562760Y3913740D01*
X7561760Y3913440D01*
X7560660Y3913340D01*
X7559560Y3913140D01*
X7558560Y3913040D01*
X7496360D01*
X7495360Y3913140D01*
X7494260Y3913340D01*
X7493160Y3913440D01*
X7492160Y3913740D01*
X7491160Y3914040D01*
X7490160Y3914440D01*
X7489160Y3914840D01*
X7488160Y3915240D01*
X7487160Y3915740D01*
X7486260Y3916340D01*
X7485460Y3916940D01*
X7484560Y3917640D01*
X7483760Y3918340D01*
X7482960Y3919040D01*
X7482260Y3919840D01*
X7481560Y3920640D01*
X7480860Y3921540D01*
X7480260Y3922340D01*
X7479660Y3923240D01*
X7479160Y3924240D01*
X7478760Y3925240D01*
X7478360Y3926240D01*
X7477960Y3927240D01*
X7477660Y3928240D01*
X7477360Y3929240D01*
X7477260Y3930340D01*
X7477060Y3931440D01*
X7476960Y3932440D01*
Y3934640D01*
X7477060Y3935640D01*
X7477260Y3936740D01*
X7477360Y3937840D01*
X7477660Y3938840D01*
X7477960Y3939840D01*
X7478360Y3940840D01*
X7478760Y3941840D01*
X7479160Y3942840D01*
X7479660Y3943840D01*
X7480260Y3944740D01*
X7480860Y3945540D01*
X7481560Y3946440D01*
X7482260Y3947240D01*
X7482960Y3948040D01*
X7483760Y3948740D01*
X7484560Y3949440D01*
X7485460Y3950140D01*
X7486260Y3950740D01*
X7487160Y3951340D01*
X7488160Y3951840D01*
X7489160Y3952240D01*
X7490160Y3952640D01*
X7491160Y3953040D01*
X7492160Y3953340D01*
X7493160Y3953640D01*
X7494260Y3953740D01*
X7495360Y3953940D01*
X7496360Y3954040D01*
X7558560D01*
X7559560Y3953940D01*
D02*
G37*
G36*
Y3903940D02*
X7560660Y3903740D01*
X7561760Y3903640D01*
X7562760Y3903340D01*
X7563760Y3903040D01*
X7564760Y3902640D01*
X7565760Y3902240D01*
X7566760Y3901840D01*
X7567760Y3901340D01*
X7568660Y3900740D01*
X7569460Y3900140D01*
X7570360Y3899440D01*
X7571160Y3898740D01*
X7571960Y3898040D01*
X7572660Y3897240D01*
X7573360Y3896440D01*
X7574060Y3895540D01*
X7574660Y3894740D01*
X7575260Y3893840D01*
X7575760Y3892840D01*
X7576160Y3891840D01*
X7576560Y3890840D01*
X7576960Y3889840D01*
X7577260Y3888840D01*
X7577560Y3887840D01*
X7577660Y3886740D01*
X7577860Y3885640D01*
X7577960Y3884640D01*
Y3882440D01*
X7577860Y3881440D01*
X7577660Y3880340D01*
X7577560Y3879240D01*
X7577260Y3878240D01*
X7576960Y3877240D01*
X7576560Y3876240D01*
X7576160Y3875240D01*
X7575760Y3874240D01*
X7575260Y3873240D01*
X7574660Y3872340D01*
X7574060Y3871540D01*
X7573360Y3870640D01*
X7572660Y3869840D01*
X7571960Y3869040D01*
X7571160Y3868340D01*
X7570360Y3867640D01*
X7569460Y3866940D01*
X7568660Y3866340D01*
X7567760Y3865740D01*
X7566760Y3865240D01*
X7565760Y3864840D01*
X7564760Y3864440D01*
X7563760Y3864040D01*
X7562760Y3863740D01*
X7561760Y3863440D01*
X7560660Y3863340D01*
X7559560Y3863140D01*
X7558560Y3863040D01*
X7496360D01*
X7495360Y3863140D01*
X7494260Y3863340D01*
X7493160Y3863440D01*
X7492160Y3863740D01*
X7491160Y3864040D01*
X7490160Y3864440D01*
X7489160Y3864840D01*
X7488160Y3865240D01*
X7487160Y3865740D01*
X7486260Y3866340D01*
X7485460Y3866940D01*
X7484560Y3867640D01*
X7483760Y3868340D01*
X7482960Y3869040D01*
X7482260Y3869840D01*
X7481560Y3870640D01*
X7480860Y3871540D01*
X7480260Y3872340D01*
X7479660Y3873240D01*
X7479160Y3874240D01*
X7478760Y3875240D01*
X7478360Y3876240D01*
X7477960Y3877240D01*
X7477660Y3878240D01*
X7477360Y3879240D01*
X7477260Y3880340D01*
X7477060Y3881440D01*
X7476960Y3882440D01*
Y3884640D01*
X7477060Y3885640D01*
X7477260Y3886740D01*
X7477360Y3887840D01*
X7477660Y3888840D01*
X7477960Y3889840D01*
X7478360Y3890840D01*
X7478760Y3891840D01*
X7479160Y3892840D01*
X7479660Y3893840D01*
X7480260Y3894740D01*
X7480860Y3895540D01*
X7481560Y3896440D01*
X7482260Y3897240D01*
X7482960Y3898040D01*
X7483760Y3898740D01*
X7484560Y3899440D01*
X7485460Y3900140D01*
X7486260Y3900740D01*
X7487160Y3901340D01*
X7488160Y3901840D01*
X7489160Y3902240D01*
X7490160Y3902640D01*
X7491160Y3903040D01*
X7492160Y3903340D01*
X7493160Y3903640D01*
X7494260Y3903740D01*
X7495360Y3903940D01*
X7496360Y3904040D01*
X7558560D01*
X7559560Y3903940D01*
D02*
G37*
G36*
Y3853940D02*
X7560660Y3853740D01*
X7561760Y3853640D01*
X7562760Y3853340D01*
X7563760Y3853040D01*
X7564760Y3852640D01*
X7565760Y3852240D01*
X7566760Y3851840D01*
X7567760Y3851340D01*
X7568660Y3850740D01*
X7569460Y3850140D01*
X7570360Y3849440D01*
X7571160Y3848740D01*
X7571960Y3848040D01*
X7572660Y3847240D01*
X7573360Y3846440D01*
X7574060Y3845540D01*
X7574660Y3844740D01*
X7575260Y3843840D01*
X7575760Y3842840D01*
X7576160Y3841840D01*
X7576560Y3840840D01*
X7576960Y3839840D01*
X7577260Y3838840D01*
X7577560Y3837840D01*
X7577660Y3836740D01*
X7577860Y3835640D01*
X7577960Y3834640D01*
Y3832440D01*
X7577860Y3831440D01*
X7577660Y3830340D01*
X7577560Y3829240D01*
X7577260Y3828240D01*
X7576960Y3827240D01*
X7576560Y3826240D01*
X7576160Y3825240D01*
X7575760Y3824240D01*
X7575260Y3823240D01*
X7574660Y3822340D01*
X7574060Y3821540D01*
X7573360Y3820640D01*
X7572660Y3819840D01*
X7571960Y3819040D01*
X7571160Y3818340D01*
X7570360Y3817640D01*
X7569460Y3816940D01*
X7568660Y3816340D01*
X7567760Y3815740D01*
X7566760Y3815240D01*
X7565760Y3814840D01*
X7564760Y3814440D01*
X7563760Y3814040D01*
X7562760Y3813740D01*
X7561760Y3813440D01*
X7560660Y3813340D01*
X7559560Y3813140D01*
X7558560Y3813040D01*
X7496360D01*
X7495360Y3813140D01*
X7494260Y3813340D01*
X7493160Y3813440D01*
X7492160Y3813740D01*
X7491160Y3814040D01*
X7490160Y3814440D01*
X7489160Y3814840D01*
X7488160Y3815240D01*
X7487160Y3815740D01*
X7486260Y3816340D01*
X7485460Y3816940D01*
X7484560Y3817640D01*
X7483760Y3818340D01*
X7482960Y3819040D01*
X7482260Y3819840D01*
X7481560Y3820640D01*
X7480860Y3821540D01*
X7480260Y3822340D01*
X7479660Y3823240D01*
X7479160Y3824240D01*
X7478760Y3825240D01*
X7478360Y3826240D01*
X7477960Y3827240D01*
X7477660Y3828240D01*
X7477360Y3829240D01*
X7477260Y3830340D01*
X7477060Y3831440D01*
X7476960Y3832440D01*
Y3834640D01*
X7477060Y3835640D01*
X7477260Y3836740D01*
X7477360Y3837840D01*
X7477660Y3838840D01*
X7477960Y3839840D01*
X7478360Y3840840D01*
X7478760Y3841840D01*
X7479160Y3842840D01*
X7479660Y3843840D01*
X7480260Y3844740D01*
X7480860Y3845540D01*
X7481560Y3846440D01*
X7482260Y3847240D01*
X7482960Y3848040D01*
X7483760Y3848740D01*
X7484560Y3849440D01*
X7485460Y3850140D01*
X7486260Y3850740D01*
X7487160Y3851340D01*
X7488160Y3851840D01*
X7489160Y3852240D01*
X7490160Y3852640D01*
X7491160Y3853040D01*
X7492160Y3853340D01*
X7493160Y3853640D01*
X7494260Y3853740D01*
X7495360Y3853940D01*
X7496360Y3854040D01*
X7558560D01*
X7559560Y3853940D01*
D02*
G37*
G36*
Y3803940D02*
X7560660Y3803740D01*
X7561760Y3803640D01*
X7562760Y3803340D01*
X7563760Y3803040D01*
X7564760Y3802640D01*
X7565760Y3802240D01*
X7566760Y3801840D01*
X7567760Y3801340D01*
X7568660Y3800740D01*
X7569460Y3800140D01*
X7570360Y3799440D01*
X7571160Y3798740D01*
X7571960Y3798040D01*
X7572660Y3797240D01*
X7573360Y3796440D01*
X7574060Y3795540D01*
X7574660Y3794740D01*
X7575260Y3793840D01*
X7575760Y3792840D01*
X7576160Y3791840D01*
X7576560Y3790840D01*
X7576960Y3789840D01*
X7577260Y3788840D01*
X7577560Y3787840D01*
X7577660Y3786740D01*
X7577860Y3785640D01*
X7577960Y3784640D01*
Y3782440D01*
X7577860Y3781440D01*
X7577660Y3780340D01*
X7577560Y3779240D01*
X7577260Y3778240D01*
X7576960Y3777240D01*
X7576560Y3776240D01*
X7576160Y3775240D01*
X7575760Y3774240D01*
X7575260Y3773240D01*
X7574660Y3772340D01*
X7574060Y3771540D01*
X7573360Y3770640D01*
X7572660Y3769840D01*
X7571960Y3769040D01*
X7571160Y3768340D01*
X7570360Y3767640D01*
X7569460Y3766940D01*
X7568660Y3766340D01*
X7567760Y3765740D01*
X7566760Y3765240D01*
X7565760Y3764840D01*
X7564760Y3764440D01*
X7563760Y3764040D01*
X7562760Y3763740D01*
X7561760Y3763440D01*
X7560660Y3763340D01*
X7559560Y3763140D01*
X7558560Y3763040D01*
X7496360D01*
X7495360Y3763140D01*
X7494260Y3763340D01*
X7493160Y3763440D01*
X7492160Y3763740D01*
X7491160Y3764040D01*
X7490160Y3764440D01*
X7489160Y3764840D01*
X7488160Y3765240D01*
X7487160Y3765740D01*
X7486260Y3766340D01*
X7485460Y3766940D01*
X7484560Y3767640D01*
X7483760Y3768340D01*
X7482960Y3769040D01*
X7482260Y3769840D01*
X7481560Y3770640D01*
X7480860Y3771540D01*
X7480260Y3772340D01*
X7479660Y3773240D01*
X7479160Y3774240D01*
X7478760Y3775240D01*
X7478360Y3776240D01*
X7477960Y3777240D01*
X7477660Y3778240D01*
X7477360Y3779240D01*
X7477260Y3780340D01*
X7477060Y3781440D01*
X7476960Y3782440D01*
Y3784640D01*
X7477060Y3785640D01*
X7477260Y3786740D01*
X7477360Y3787840D01*
X7477660Y3788840D01*
X7477960Y3789840D01*
X7478360Y3790840D01*
X7478760Y3791840D01*
X7479160Y3792840D01*
X7479660Y3793840D01*
X7480260Y3794740D01*
X7480860Y3795540D01*
X7481560Y3796440D01*
X7482260Y3797240D01*
X7482960Y3798040D01*
X7483760Y3798740D01*
X7484560Y3799440D01*
X7485460Y3800140D01*
X7486260Y3800740D01*
X7487160Y3801340D01*
X7488160Y3801840D01*
X7489160Y3802240D01*
X7490160Y3802640D01*
X7491160Y3803040D01*
X7492160Y3803340D01*
X7493160Y3803640D01*
X7494260Y3803740D01*
X7495360Y3803940D01*
X7496360Y3804040D01*
X7558560D01*
X7559560Y3803940D01*
D02*
G37*
G36*
Y3753940D02*
X7560660Y3753740D01*
X7561760Y3753640D01*
X7562760Y3753340D01*
X7563760Y3753040D01*
X7564760Y3752640D01*
X7565760Y3752240D01*
X7566760Y3751840D01*
X7567760Y3751340D01*
X7568660Y3750740D01*
X7569460Y3750140D01*
X7570360Y3749440D01*
X7571160Y3748740D01*
X7571960Y3748040D01*
X7572660Y3747240D01*
X7573360Y3746440D01*
X7574060Y3745540D01*
X7574660Y3744740D01*
X7575260Y3743840D01*
X7575760Y3742840D01*
X7576160Y3741840D01*
X7576560Y3740840D01*
X7576960Y3739840D01*
X7577260Y3738840D01*
X7577560Y3737840D01*
X7577660Y3736740D01*
X7577860Y3735640D01*
X7577960Y3734640D01*
Y3732440D01*
X7577860Y3731440D01*
X7577660Y3730340D01*
X7577560Y3729240D01*
X7577260Y3728240D01*
X7576960Y3727240D01*
X7576560Y3726240D01*
X7576160Y3725240D01*
X7575760Y3724240D01*
X7575260Y3723240D01*
X7574660Y3722340D01*
X7574060Y3721540D01*
X7573360Y3720640D01*
X7572660Y3719840D01*
X7571960Y3719040D01*
X7571160Y3718340D01*
X7570360Y3717640D01*
X7569460Y3716940D01*
X7568660Y3716340D01*
X7567760Y3715740D01*
X7566760Y3715240D01*
X7565760Y3714840D01*
X7564760Y3714440D01*
X7563760Y3714040D01*
X7562760Y3713740D01*
X7561760Y3713440D01*
X7560660Y3713340D01*
X7559560Y3713140D01*
X7558560Y3713040D01*
X7496360D01*
X7495360Y3713140D01*
X7494260Y3713340D01*
X7493160Y3713440D01*
X7492160Y3713740D01*
X7491160Y3714040D01*
X7490160Y3714440D01*
X7489160Y3714840D01*
X7488160Y3715240D01*
X7487160Y3715740D01*
X7486260Y3716340D01*
X7485460Y3716940D01*
X7484560Y3717640D01*
X7483760Y3718340D01*
X7482960Y3719040D01*
X7482260Y3719840D01*
X7481560Y3720640D01*
X7480860Y3721540D01*
X7480260Y3722340D01*
X7479660Y3723240D01*
X7479160Y3724240D01*
X7478760Y3725240D01*
X7478360Y3726240D01*
X7477960Y3727240D01*
X7477660Y3728240D01*
X7477360Y3729240D01*
X7477260Y3730340D01*
X7477060Y3731440D01*
X7476960Y3732440D01*
Y3734640D01*
X7477060Y3735640D01*
X7477260Y3736740D01*
X7477360Y3737840D01*
X7477660Y3738840D01*
X7477960Y3739840D01*
X7478360Y3740840D01*
X7478760Y3741840D01*
X7479160Y3742840D01*
X7479660Y3743840D01*
X7480260Y3744740D01*
X7480860Y3745540D01*
X7481560Y3746440D01*
X7482260Y3747240D01*
X7482960Y3748040D01*
X7483760Y3748740D01*
X7484560Y3749440D01*
X7485460Y3750140D01*
X7486260Y3750740D01*
X7487160Y3751340D01*
X7488160Y3751840D01*
X7489160Y3752240D01*
X7490160Y3752640D01*
X7491160Y3753040D01*
X7492160Y3753340D01*
X7493160Y3753640D01*
X7494260Y3753740D01*
X7495360Y3753940D01*
X7496360Y3754040D01*
X7558560D01*
X7559560Y3753940D01*
D02*
G37*
G36*
Y3703940D02*
X7560660Y3703740D01*
X7561760Y3703640D01*
X7562760Y3703340D01*
X7563760Y3703040D01*
X7564760Y3702640D01*
X7565760Y3702240D01*
X7566760Y3701840D01*
X7567760Y3701340D01*
X7568660Y3700740D01*
X7569460Y3700140D01*
X7570360Y3699440D01*
X7571160Y3698740D01*
X7571960Y3698040D01*
X7572660Y3697240D01*
X7573360Y3696440D01*
X7574060Y3695540D01*
X7574660Y3694740D01*
X7575260Y3693840D01*
X7575760Y3692840D01*
X7576160Y3691840D01*
X7576560Y3690840D01*
X7576960Y3689840D01*
X7577260Y3688840D01*
X7577560Y3687840D01*
X7577660Y3686740D01*
X7577860Y3685640D01*
X7577960Y3684640D01*
Y3682440D01*
X7577860Y3681440D01*
X7577660Y3680340D01*
X7577560Y3679240D01*
X7577260Y3678240D01*
X7576960Y3677240D01*
X7576560Y3676240D01*
X7576160Y3675240D01*
X7575760Y3674240D01*
X7575260Y3673240D01*
X7574660Y3672340D01*
X7574060Y3671540D01*
X7573360Y3670640D01*
X7572660Y3669840D01*
X7571960Y3669040D01*
X7571160Y3668340D01*
X7570360Y3667640D01*
X7569460Y3666940D01*
X7568660Y3666340D01*
X7567760Y3665740D01*
X7566760Y3665240D01*
X7565760Y3664840D01*
X7564760Y3664440D01*
X7563760Y3664040D01*
X7562760Y3663740D01*
X7561760Y3663440D01*
X7560660Y3663340D01*
X7559560Y3663140D01*
X7558560Y3663040D01*
X7496360D01*
X7495360Y3663140D01*
X7494260Y3663340D01*
X7493160Y3663440D01*
X7492160Y3663740D01*
X7491160Y3664040D01*
X7490160Y3664440D01*
X7489160Y3664840D01*
X7488160Y3665240D01*
X7487160Y3665740D01*
X7486260Y3666340D01*
X7485460Y3666940D01*
X7484560Y3667640D01*
X7483760Y3668340D01*
X7482960Y3669040D01*
X7482260Y3669840D01*
X7481560Y3670640D01*
X7480860Y3671540D01*
X7480260Y3672340D01*
X7479660Y3673240D01*
X7479160Y3674240D01*
X7478760Y3675240D01*
X7478360Y3676240D01*
X7477960Y3677240D01*
X7477660Y3678240D01*
X7477360Y3679240D01*
X7477260Y3680340D01*
X7477060Y3681440D01*
X7476960Y3682440D01*
Y3684640D01*
X7477060Y3685640D01*
X7477260Y3686740D01*
X7477360Y3687840D01*
X7477660Y3688840D01*
X7477960Y3689840D01*
X7478360Y3690840D01*
X7478760Y3691840D01*
X7479160Y3692840D01*
X7479660Y3693840D01*
X7480260Y3694740D01*
X7480860Y3695540D01*
X7481560Y3696440D01*
X7482260Y3697240D01*
X7482960Y3698040D01*
X7483760Y3698740D01*
X7484560Y3699440D01*
X7485460Y3700140D01*
X7486260Y3700740D01*
X7487160Y3701340D01*
X7488160Y3701840D01*
X7489160Y3702240D01*
X7490160Y3702640D01*
X7491160Y3703040D01*
X7492160Y3703340D01*
X7493160Y3703640D01*
X7494260Y3703740D01*
X7495360Y3703940D01*
X7496360Y3704040D01*
X7558560D01*
X7559560Y3703940D01*
D02*
G37*
G36*
Y3653940D02*
X7560660Y3653740D01*
X7561760Y3653640D01*
X7562760Y3653340D01*
X7563760Y3653040D01*
X7564760Y3652640D01*
X7565760Y3652240D01*
X7566760Y3651840D01*
X7567760Y3651340D01*
X7568660Y3650740D01*
X7569460Y3650140D01*
X7570360Y3649440D01*
X7571160Y3648740D01*
X7571960Y3648040D01*
X7572660Y3647240D01*
X7573360Y3646440D01*
X7574060Y3645540D01*
X7574660Y3644740D01*
X7575260Y3643840D01*
X7575760Y3642840D01*
X7576160Y3641840D01*
X7576560Y3640840D01*
X7576960Y3639840D01*
X7577260Y3638840D01*
X7577560Y3637840D01*
X7577660Y3636740D01*
X7577860Y3635640D01*
X7577960Y3634640D01*
Y3632440D01*
X7577860Y3631440D01*
X7577660Y3630340D01*
X7577560Y3629240D01*
X7577260Y3628240D01*
X7576960Y3627240D01*
X7576560Y3626240D01*
X7576160Y3625240D01*
X7575760Y3624240D01*
X7575260Y3623240D01*
X7574660Y3622340D01*
X7574060Y3621540D01*
X7573360Y3620640D01*
X7572660Y3619840D01*
X7571960Y3619040D01*
X7571160Y3618340D01*
X7570360Y3617640D01*
X7569460Y3616940D01*
X7568660Y3616340D01*
X7567760Y3615740D01*
X7566760Y3615240D01*
X7565760Y3614840D01*
X7564760Y3614440D01*
X7563760Y3614040D01*
X7562760Y3613740D01*
X7561760Y3613440D01*
X7560660Y3613340D01*
X7559560Y3613140D01*
X7558560Y3613040D01*
X7496360D01*
X7495360Y3613140D01*
X7494260Y3613340D01*
X7493160Y3613440D01*
X7492160Y3613740D01*
X7491160Y3614040D01*
X7490160Y3614440D01*
X7489160Y3614840D01*
X7488160Y3615240D01*
X7487160Y3615740D01*
X7486260Y3616340D01*
X7485460Y3616940D01*
X7484560Y3617640D01*
X7483760Y3618340D01*
X7482960Y3619040D01*
X7482260Y3619840D01*
X7481560Y3620640D01*
X7480860Y3621540D01*
X7480260Y3622340D01*
X7479660Y3623240D01*
X7479160Y3624240D01*
X7478760Y3625240D01*
X7478360Y3626240D01*
X7477960Y3627240D01*
X7477660Y3628240D01*
X7477360Y3629240D01*
X7477260Y3630340D01*
X7477060Y3631440D01*
X7476960Y3632440D01*
Y3634640D01*
X7477060Y3635640D01*
X7477260Y3636740D01*
X7477360Y3637840D01*
X7477660Y3638840D01*
X7477960Y3639840D01*
X7478360Y3640840D01*
X7478760Y3641840D01*
X7479160Y3642840D01*
X7479660Y3643840D01*
X7480260Y3644740D01*
X7480860Y3645540D01*
X7481560Y3646440D01*
X7482260Y3647240D01*
X7482960Y3648040D01*
X7483760Y3648740D01*
X7484560Y3649440D01*
X7485460Y3650140D01*
X7486260Y3650740D01*
X7487160Y3651340D01*
X7488160Y3651840D01*
X7489160Y3652240D01*
X7490160Y3652640D01*
X7491160Y3653040D01*
X7492160Y3653340D01*
X7493160Y3653640D01*
X7494260Y3653740D01*
X7495360Y3653940D01*
X7496360Y3654040D01*
X7558560D01*
X7559560Y3653940D01*
D02*
G37*
G36*
Y3603940D02*
X7560660Y3603740D01*
X7561760Y3603640D01*
X7562760Y3603340D01*
X7563760Y3603040D01*
X7564760Y3602640D01*
X7565760Y3602240D01*
X7566760Y3601840D01*
X7567760Y3601340D01*
X7568660Y3600740D01*
X7569460Y3600140D01*
X7570360Y3599440D01*
X7571160Y3598740D01*
X7571960Y3598040D01*
X7572660Y3597240D01*
X7573360Y3596440D01*
X7574060Y3595540D01*
X7574660Y3594740D01*
X7575260Y3593740D01*
X7575760Y3592840D01*
X7576160Y3591840D01*
X7576560Y3590840D01*
X7576960Y3589840D01*
X7577260Y3588840D01*
X7577560Y3587840D01*
X7577660Y3586740D01*
X7577860Y3585640D01*
X7577960Y3584640D01*
Y3582440D01*
X7577860Y3581440D01*
X7577660Y3580340D01*
X7577560Y3579240D01*
X7577260Y3578240D01*
X7576960Y3577240D01*
X7576560Y3576240D01*
X7576160Y3575240D01*
X7575760Y3574240D01*
X7575260Y3573240D01*
X7574660Y3572340D01*
X7574060Y3571540D01*
X7573360Y3570640D01*
X7572660Y3569840D01*
X7571960Y3569040D01*
X7571160Y3568340D01*
X7570360Y3567640D01*
X7569460Y3566940D01*
X7568660Y3566340D01*
X7567760Y3565740D01*
X7566760Y3565240D01*
X7565760Y3564840D01*
X7564760Y3564440D01*
X7563760Y3564040D01*
X7562760Y3563740D01*
X7561760Y3563440D01*
X7560660Y3563340D01*
X7559560Y3563140D01*
X7558560Y3563040D01*
X7496360D01*
X7495360Y3563140D01*
X7494260Y3563340D01*
X7493160Y3563440D01*
X7492160Y3563740D01*
X7491160Y3564040D01*
X7490160Y3564440D01*
X7489160Y3564840D01*
X7488160Y3565240D01*
X7487160Y3565740D01*
X7486260Y3566340D01*
X7485460Y3566940D01*
X7484560Y3567640D01*
X7483760Y3568340D01*
X7482960Y3569040D01*
X7482260Y3569840D01*
X7481560Y3570640D01*
X7480860Y3571540D01*
X7480260Y3572340D01*
X7479660Y3573240D01*
X7479160Y3574240D01*
X7478760Y3575240D01*
X7478360Y3576240D01*
X7477960Y3577240D01*
X7477660Y3578240D01*
X7477360Y3579240D01*
X7477260Y3580340D01*
X7477060Y3581440D01*
X7476960Y3582440D01*
Y3584640D01*
X7477060Y3585640D01*
X7477260Y3586740D01*
X7477360Y3587840D01*
X7477660Y3588840D01*
X7477960Y3589840D01*
X7478360Y3590840D01*
X7478760Y3591840D01*
X7479160Y3592840D01*
X7479660Y3593840D01*
X7480260Y3594740D01*
X7480860Y3595540D01*
X7481560Y3596440D01*
X7482260Y3597240D01*
X7482960Y3598040D01*
X7483760Y3598740D01*
X7484560Y3599440D01*
X7485460Y3600140D01*
X7486260Y3600740D01*
X7487160Y3601340D01*
X7488160Y3601840D01*
X7489160Y3602240D01*
X7490160Y3602640D01*
X7491160Y3603040D01*
X7492160Y3603340D01*
X7493160Y3603640D01*
X7494260Y3603740D01*
X7495360Y3603940D01*
X7496360Y3604040D01*
X7558560D01*
X7559560Y3603940D01*
D02*
G37*
G36*
Y3553940D02*
X7560660Y3553740D01*
X7561760Y3553640D01*
X7562760Y3553340D01*
X7563760Y3553040D01*
X7564760Y3552640D01*
X7565760Y3552240D01*
X7566760Y3551840D01*
X7567760Y3551340D01*
X7568660Y3550740D01*
X7569460Y3550140D01*
X7570360Y3549440D01*
X7571160Y3548740D01*
X7571960Y3548040D01*
X7572660Y3547240D01*
X7573360Y3546440D01*
X7574060Y3545540D01*
X7574660Y3544740D01*
X7575260Y3543740D01*
X7575760Y3542840D01*
X7576160Y3541840D01*
X7576560Y3540840D01*
X7576960Y3539840D01*
X7577260Y3538840D01*
X7577560Y3537840D01*
X7577660Y3536740D01*
X7577860Y3535640D01*
X7577960Y3534640D01*
Y3532440D01*
X7577860Y3531440D01*
X7577660Y3530340D01*
X7577560Y3529240D01*
X7577260Y3528240D01*
X7576960Y3527240D01*
X7576560Y3526240D01*
X7576160Y3525240D01*
X7575760Y3524240D01*
X7575260Y3523240D01*
X7574660Y3522340D01*
X7574060Y3521540D01*
X7573360Y3520640D01*
X7572660Y3519840D01*
X7571960Y3519040D01*
X7571160Y3518340D01*
X7570360Y3517640D01*
X7569460Y3516940D01*
X7568660Y3516340D01*
X7567760Y3515740D01*
X7566760Y3515240D01*
X7565760Y3514840D01*
X7564760Y3514440D01*
X7563760Y3514040D01*
X7562760Y3513740D01*
X7561760Y3513440D01*
X7560660Y3513340D01*
X7559560Y3513140D01*
X7558560Y3513040D01*
X7496360D01*
X7495360Y3513140D01*
X7494260Y3513340D01*
X7493160Y3513440D01*
X7492160Y3513740D01*
X7491160Y3514040D01*
X7490160Y3514440D01*
X7489160Y3514840D01*
X7488160Y3515240D01*
X7487160Y3515740D01*
X7486260Y3516340D01*
X7485460Y3516940D01*
X7484560Y3517640D01*
X7483760Y3518340D01*
X7482960Y3519040D01*
X7482260Y3519840D01*
X7481560Y3520640D01*
X7480860Y3521540D01*
X7480260Y3522340D01*
X7479660Y3523240D01*
X7479160Y3524240D01*
X7478760Y3525240D01*
X7478360Y3526240D01*
X7477960Y3527240D01*
X7477660Y3528240D01*
X7477360Y3529240D01*
X7477260Y3530340D01*
X7477060Y3531440D01*
X7476960Y3532440D01*
Y3534640D01*
X7477060Y3535640D01*
X7477260Y3536740D01*
X7477360Y3537840D01*
X7477660Y3538840D01*
X7477960Y3539840D01*
X7478360Y3540840D01*
X7478760Y3541840D01*
X7479160Y3542840D01*
X7479660Y3543840D01*
X7480260Y3544740D01*
X7480860Y3545540D01*
X7481560Y3546440D01*
X7482260Y3547240D01*
X7482960Y3548040D01*
X7483760Y3548740D01*
X7484560Y3549440D01*
X7485460Y3550140D01*
X7486260Y3550740D01*
X7487160Y3551340D01*
X7488160Y3551840D01*
X7489160Y3552240D01*
X7490160Y3552640D01*
X7491160Y3553040D01*
X7492160Y3553340D01*
X7493160Y3553640D01*
X7494260Y3553740D01*
X7495360Y3553940D01*
X7496360Y3554040D01*
X7558560D01*
X7559560Y3553940D01*
D02*
G37*
G36*
Y3503940D02*
X7560660Y3503740D01*
X7561760Y3503640D01*
X7562760Y3503340D01*
X7563760Y3503040D01*
X7564760Y3502640D01*
X7565760Y3502240D01*
X7566760Y3501840D01*
X7567760Y3501340D01*
X7568660Y3500740D01*
X7569460Y3500140D01*
X7570360Y3499440D01*
X7571160Y3498740D01*
X7571960Y3498040D01*
X7572660Y3497240D01*
X7573360Y3496440D01*
X7574060Y3495540D01*
X7574660Y3494740D01*
X7575260Y3493840D01*
X7575760Y3492840D01*
X7576160Y3491840D01*
X7576560Y3490840D01*
X7576960Y3489840D01*
X7577260Y3488840D01*
X7577560Y3487840D01*
X7577660Y3486740D01*
X7577860Y3485640D01*
X7577960Y3484640D01*
Y3482440D01*
X7577860Y3481440D01*
X7577660Y3480340D01*
X7577560Y3479240D01*
X7577260Y3478240D01*
X7576960Y3477240D01*
X7576560Y3476240D01*
X7576160Y3475240D01*
X7575760Y3474240D01*
X7575260Y3473240D01*
X7574660Y3472340D01*
X7574060Y3471540D01*
X7573360Y3470640D01*
X7572660Y3469840D01*
X7571960Y3469040D01*
X7571160Y3468340D01*
X7570360Y3467640D01*
X7569460Y3466940D01*
X7568660Y3466340D01*
X7567760Y3465740D01*
X7566760Y3465240D01*
X7565760Y3464840D01*
X7564760Y3464440D01*
X7563760Y3464040D01*
X7562760Y3463740D01*
X7561760Y3463440D01*
X7560660Y3463340D01*
X7559560Y3463140D01*
X7558560Y3463040D01*
X7496360D01*
X7495360Y3463140D01*
X7494260Y3463340D01*
X7493160Y3463440D01*
X7492160Y3463740D01*
X7491160Y3464040D01*
X7490160Y3464440D01*
X7489160Y3464840D01*
X7488160Y3465240D01*
X7487160Y3465740D01*
X7486260Y3466340D01*
X7485460Y3466940D01*
X7484560Y3467640D01*
X7483760Y3468340D01*
X7482960Y3469040D01*
X7482260Y3469840D01*
X7481560Y3470640D01*
X7480860Y3471540D01*
X7480260Y3472340D01*
X7479660Y3473240D01*
X7479160Y3474240D01*
X7478760Y3475240D01*
X7478360Y3476240D01*
X7477960Y3477240D01*
X7477660Y3478240D01*
X7477360Y3479240D01*
X7477260Y3480340D01*
X7477060Y3481440D01*
X7476960Y3482440D01*
Y3484640D01*
X7477060Y3485640D01*
X7477260Y3486740D01*
X7477360Y3487840D01*
X7477660Y3488840D01*
X7477960Y3489840D01*
X7478360Y3490840D01*
X7478760Y3491840D01*
X7479160Y3492840D01*
X7479660Y3493840D01*
X7480260Y3494740D01*
X7480860Y3495540D01*
X7481560Y3496440D01*
X7482260Y3497240D01*
X7482960Y3498040D01*
X7483760Y3498740D01*
X7484560Y3499440D01*
X7485460Y3500140D01*
X7486260Y3500740D01*
X7487160Y3501340D01*
X7488160Y3501840D01*
X7489160Y3502240D01*
X7490160Y3502640D01*
X7491160Y3503040D01*
X7492160Y3503340D01*
X7493160Y3503640D01*
X7494260Y3503740D01*
X7495360Y3503940D01*
X7496360Y3504040D01*
X7558560D01*
X7559560Y3503940D01*
D02*
G37*
G36*
Y3453940D02*
X7560660Y3453740D01*
X7561760Y3453640D01*
X7562760Y3453340D01*
X7563760Y3453040D01*
X7564760Y3452640D01*
X7565760Y3452240D01*
X7566760Y3451840D01*
X7567760Y3451340D01*
X7568660Y3450740D01*
X7569460Y3450140D01*
X7570360Y3449440D01*
X7571160Y3448740D01*
X7571960Y3448040D01*
X7572660Y3447240D01*
X7573360Y3446440D01*
X7574060Y3445540D01*
X7574660Y3444740D01*
X7575260Y3443840D01*
X7575760Y3442840D01*
X7576160Y3441840D01*
X7576560Y3440840D01*
X7576960Y3439840D01*
X7577260Y3438840D01*
X7577560Y3437840D01*
X7577660Y3436740D01*
X7577860Y3435640D01*
X7577960Y3434640D01*
Y3432440D01*
X7577860Y3431440D01*
X7577660Y3430340D01*
X7577560Y3429240D01*
X7577260Y3428240D01*
X7576960Y3427240D01*
X7576560Y3426240D01*
X7576160Y3425240D01*
X7575760Y3424240D01*
X7575260Y3423240D01*
X7574660Y3422340D01*
X7574060Y3421540D01*
X7573360Y3420640D01*
X7572660Y3419840D01*
X7571960Y3419040D01*
X7571160Y3418340D01*
X7570360Y3417640D01*
X7569460Y3416940D01*
X7568660Y3416340D01*
X7567760Y3415740D01*
X7566760Y3415240D01*
X7565760Y3414840D01*
X7564760Y3414440D01*
X7563760Y3414040D01*
X7562760Y3413740D01*
X7561760Y3413440D01*
X7560660Y3413340D01*
X7559560Y3413140D01*
X7558560Y3413040D01*
X7496360D01*
X7495360Y3413140D01*
X7494260Y3413340D01*
X7493160Y3413440D01*
X7492160Y3413740D01*
X7491160Y3414040D01*
X7490160Y3414440D01*
X7489160Y3414840D01*
X7488160Y3415240D01*
X7487160Y3415740D01*
X7486260Y3416340D01*
X7485460Y3416940D01*
X7484560Y3417640D01*
X7483760Y3418340D01*
X7482960Y3419040D01*
X7482260Y3419840D01*
X7481560Y3420640D01*
X7480860Y3421540D01*
X7480260Y3422340D01*
X7479660Y3423240D01*
X7479160Y3424240D01*
X7478760Y3425240D01*
X7478360Y3426240D01*
X7477960Y3427240D01*
X7477660Y3428240D01*
X7477360Y3429240D01*
X7477260Y3430340D01*
X7477060Y3431440D01*
X7476960Y3432440D01*
Y3434640D01*
X7477060Y3435640D01*
X7477260Y3436740D01*
X7477360Y3437840D01*
X7477660Y3438840D01*
X7477960Y3439840D01*
X7478360Y3440840D01*
X7478760Y3441840D01*
X7479160Y3442840D01*
X7479660Y3443840D01*
X7480260Y3444740D01*
X7480860Y3445540D01*
X7481560Y3446440D01*
X7482260Y3447240D01*
X7482960Y3448040D01*
X7483760Y3448740D01*
X7484560Y3449440D01*
X7485460Y3450140D01*
X7486260Y3450740D01*
X7487160Y3451340D01*
X7488160Y3451840D01*
X7489160Y3452240D01*
X7490160Y3452640D01*
X7491160Y3453040D01*
X7492160Y3453340D01*
X7493160Y3453640D01*
X7494260Y3453740D01*
X7495360Y3453940D01*
X7496360Y3454040D01*
X7558560D01*
X7559560Y3453940D01*
D02*
G37*
G36*
Y3403940D02*
X7560660Y3403740D01*
X7561760Y3403640D01*
X7562760Y3403340D01*
X7563760Y3403040D01*
X7564760Y3402640D01*
X7565760Y3402240D01*
X7566760Y3401840D01*
X7567760Y3401340D01*
X7568660Y3400740D01*
X7569460Y3400140D01*
X7570360Y3399440D01*
X7571160Y3398740D01*
X7571960Y3398040D01*
X7572660Y3397240D01*
X7573360Y3396440D01*
X7574060Y3395540D01*
X7574660Y3394740D01*
X7575260Y3393840D01*
X7575760Y3392840D01*
X7576160Y3391840D01*
X7576560Y3390840D01*
X7576960Y3389840D01*
X7577260Y3388840D01*
X7577560Y3387840D01*
X7577660Y3386740D01*
X7577860Y3385640D01*
X7577960Y3384640D01*
Y3382440D01*
X7577860Y3381440D01*
X7577660Y3380340D01*
X7577560Y3379240D01*
X7577260Y3378240D01*
X7576960Y3377240D01*
X7576560Y3376240D01*
X7576160Y3375240D01*
X7575760Y3374240D01*
X7575260Y3373240D01*
X7574660Y3372340D01*
X7574060Y3371540D01*
X7573360Y3370640D01*
X7572660Y3369840D01*
X7571960Y3369040D01*
X7571160Y3368340D01*
X7570360Y3367640D01*
X7569460Y3366940D01*
X7568660Y3366340D01*
X7567760Y3365740D01*
X7566760Y3365240D01*
X7565760Y3364840D01*
X7564760Y3364440D01*
X7563760Y3364040D01*
X7562760Y3363740D01*
X7561760Y3363440D01*
X7560660Y3363340D01*
X7559560Y3363140D01*
X7558560Y3363040D01*
X7496360D01*
X7495360Y3363140D01*
X7494260Y3363340D01*
X7493160Y3363440D01*
X7492160Y3363740D01*
X7491160Y3364040D01*
X7490160Y3364440D01*
X7489160Y3364840D01*
X7488160Y3365240D01*
X7487160Y3365740D01*
X7486260Y3366340D01*
X7485460Y3366940D01*
X7484560Y3367640D01*
X7483760Y3368340D01*
X7482960Y3369040D01*
X7482260Y3369840D01*
X7481560Y3370640D01*
X7480860Y3371540D01*
X7480260Y3372340D01*
X7479660Y3373240D01*
X7479160Y3374240D01*
X7478760Y3375240D01*
X7478360Y3376240D01*
X7477960Y3377240D01*
X7477660Y3378240D01*
X7477360Y3379240D01*
X7477260Y3380340D01*
X7477060Y3381440D01*
X7476960Y3382440D01*
Y3384640D01*
X7477060Y3385640D01*
X7477260Y3386740D01*
X7477360Y3387840D01*
X7477660Y3388840D01*
X7477960Y3389840D01*
X7478360Y3390840D01*
X7478760Y3391840D01*
X7479160Y3392840D01*
X7479660Y3393840D01*
X7480260Y3394740D01*
X7480860Y3395540D01*
X7481560Y3396440D01*
X7482260Y3397240D01*
X7482960Y3398040D01*
X7483760Y3398740D01*
X7484560Y3399440D01*
X7485460Y3400140D01*
X7486260Y3400740D01*
X7487160Y3401340D01*
X7488160Y3401840D01*
X7489160Y3402240D01*
X7490160Y3402640D01*
X7491160Y3403040D01*
X7492160Y3403340D01*
X7493160Y3403640D01*
X7494260Y3403740D01*
X7495360Y3403940D01*
X7496360Y3404040D01*
X7558560D01*
X7559560Y3403940D01*
D02*
G37*
G36*
Y3353940D02*
X7560660Y3353740D01*
X7561760Y3353640D01*
X7562760Y3353340D01*
X7563760Y3353040D01*
X7564760Y3352640D01*
X7565760Y3352240D01*
X7566760Y3351840D01*
X7567760Y3351340D01*
X7568660Y3350740D01*
X7569460Y3350140D01*
X7570360Y3349440D01*
X7571160Y3348740D01*
X7571960Y3348040D01*
X7572660Y3347240D01*
X7573360Y3346440D01*
X7574060Y3345540D01*
X7574660Y3344740D01*
X7575260Y3343840D01*
X7575760Y3342840D01*
X7576160Y3341840D01*
X7576560Y3340840D01*
X7576960Y3339840D01*
X7577260Y3338840D01*
X7577560Y3337840D01*
X7577660Y3336740D01*
X7577860Y3335640D01*
X7577960Y3334640D01*
Y3332440D01*
X7577860Y3331440D01*
X7577660Y3330340D01*
X7577560Y3329240D01*
X7577260Y3328240D01*
X7576960Y3327240D01*
X7576560Y3326240D01*
X7576160Y3325240D01*
X7575760Y3324240D01*
X7575260Y3323240D01*
X7574660Y3322340D01*
X7574060Y3321540D01*
X7573360Y3320640D01*
X7572660Y3319840D01*
X7571960Y3319040D01*
X7571160Y3318340D01*
X7570360Y3317640D01*
X7569460Y3316940D01*
X7568660Y3316340D01*
X7567760Y3315740D01*
X7566760Y3315240D01*
X7565760Y3314840D01*
X7564760Y3314440D01*
X7563760Y3314040D01*
X7562760Y3313740D01*
X7561760Y3313440D01*
X7560660Y3313340D01*
X7559560Y3313140D01*
X7558560Y3313040D01*
X7496360D01*
X7495360Y3313140D01*
X7494260Y3313340D01*
X7493160Y3313440D01*
X7492160Y3313740D01*
X7491160Y3314040D01*
X7490160Y3314440D01*
X7489160Y3314840D01*
X7488160Y3315240D01*
X7487160Y3315740D01*
X7486260Y3316340D01*
X7485460Y3316940D01*
X7484560Y3317640D01*
X7483760Y3318340D01*
X7482960Y3319040D01*
X7482260Y3319840D01*
X7481560Y3320640D01*
X7480860Y3321540D01*
X7480260Y3322340D01*
X7479660Y3323240D01*
X7479160Y3324240D01*
X7478760Y3325240D01*
X7478360Y3326240D01*
X7477960Y3327240D01*
X7477660Y3328240D01*
X7477360Y3329240D01*
X7477260Y3330340D01*
X7477060Y3331440D01*
X7476960Y3332440D01*
Y3334640D01*
X7477060Y3335640D01*
X7477260Y3336740D01*
X7477360Y3337840D01*
X7477660Y3338840D01*
X7477960Y3339840D01*
X7478360Y3340840D01*
X7478760Y3341840D01*
X7479160Y3342840D01*
X7479660Y3343840D01*
X7480260Y3344740D01*
X7480860Y3345540D01*
X7481560Y3346440D01*
X7482260Y3347240D01*
X7482960Y3348040D01*
X7483760Y3348740D01*
X7484560Y3349440D01*
X7485460Y3350140D01*
X7486260Y3350740D01*
X7487160Y3351340D01*
X7488160Y3351840D01*
X7489160Y3352240D01*
X7490160Y3352640D01*
X7491160Y3353040D01*
X7492160Y3353340D01*
X7493160Y3353640D01*
X7494260Y3353740D01*
X7495360Y3353940D01*
X7496360Y3354040D01*
X7558560D01*
X7559560Y3353940D01*
D02*
G37*
G36*
Y3303940D02*
X7560660Y3303740D01*
X7561760Y3303640D01*
X7562760Y3303340D01*
X7563760Y3303040D01*
X7564760Y3302640D01*
X7565760Y3302240D01*
X7566760Y3301840D01*
X7567760Y3301340D01*
X7568660Y3300740D01*
X7569460Y3300140D01*
X7570360Y3299440D01*
X7571160Y3298740D01*
X7571960Y3298040D01*
X7572660Y3297240D01*
X7573360Y3296440D01*
X7574060Y3295540D01*
X7574660Y3294740D01*
X7575260Y3293840D01*
X7575760Y3292840D01*
X7576160Y3291840D01*
X7576560Y3290840D01*
X7576960Y3289840D01*
X7577260Y3288840D01*
X7577560Y3287840D01*
X7577660Y3286740D01*
X7577860Y3285640D01*
X7577960Y3284640D01*
Y3282440D01*
X7577860Y3281440D01*
X7577660Y3280340D01*
X7577560Y3279240D01*
X7577260Y3278240D01*
X7576960Y3277240D01*
X7576560Y3276240D01*
X7576160Y3275240D01*
X7575760Y3274240D01*
X7575260Y3273240D01*
X7574660Y3272340D01*
X7574060Y3271540D01*
X7573360Y3270640D01*
X7572660Y3269840D01*
X7571960Y3269040D01*
X7571160Y3268340D01*
X7570360Y3267640D01*
X7569460Y3266940D01*
X7568660Y3266340D01*
X7567760Y3265740D01*
X7566760Y3265240D01*
X7565760Y3264840D01*
X7564760Y3264440D01*
X7563760Y3264040D01*
X7562760Y3263740D01*
X7561760Y3263440D01*
X7560660Y3263340D01*
X7559560Y3263140D01*
X7558560Y3263040D01*
X7496360D01*
X7495360Y3263140D01*
X7494260Y3263340D01*
X7493160Y3263440D01*
X7492160Y3263740D01*
X7491160Y3264040D01*
X7490160Y3264440D01*
X7489160Y3264840D01*
X7488160Y3265240D01*
X7487160Y3265740D01*
X7486260Y3266340D01*
X7485460Y3266940D01*
X7484560Y3267640D01*
X7483760Y3268340D01*
X7482960Y3269040D01*
X7482260Y3269840D01*
X7481560Y3270640D01*
X7480860Y3271540D01*
X7480260Y3272340D01*
X7479660Y3273240D01*
X7479160Y3274240D01*
X7478760Y3275240D01*
X7478360Y3276240D01*
X7477960Y3277240D01*
X7477660Y3278240D01*
X7477360Y3279240D01*
X7477260Y3280340D01*
X7477060Y3281440D01*
X7476960Y3282440D01*
Y3284640D01*
X7477060Y3285640D01*
X7477260Y3286740D01*
X7477360Y3287840D01*
X7477660Y3288840D01*
X7477960Y3289840D01*
X7478360Y3290840D01*
X7478760Y3291840D01*
X7479160Y3292840D01*
X7479660Y3293840D01*
X7480260Y3294740D01*
X7480860Y3295540D01*
X7481560Y3296440D01*
X7482260Y3297240D01*
X7482960Y3298040D01*
X7483760Y3298740D01*
X7484560Y3299440D01*
X7485460Y3300140D01*
X7486260Y3300740D01*
X7487160Y3301340D01*
X7488160Y3301840D01*
X7489160Y3302240D01*
X7490160Y3302640D01*
X7491160Y3303040D01*
X7492160Y3303340D01*
X7493160Y3303640D01*
X7494260Y3303740D01*
X7495360Y3303940D01*
X7496360Y3304040D01*
X7558560D01*
X7559560Y3303940D01*
D02*
G37*
G36*
Y3253940D02*
X7560660Y3253740D01*
X7561760Y3253640D01*
X7562760Y3253340D01*
X7563760Y3253040D01*
X7564760Y3252640D01*
X7565760Y3252240D01*
X7566760Y3251840D01*
X7567760Y3251340D01*
X7568660Y3250740D01*
X7569460Y3250140D01*
X7570360Y3249440D01*
X7571160Y3248740D01*
X7571960Y3248040D01*
X7572660Y3247240D01*
X7573360Y3246440D01*
X7574060Y3245540D01*
X7574660Y3244740D01*
X7575260Y3243840D01*
X7575760Y3242840D01*
X7576160Y3241840D01*
X7576560Y3240840D01*
X7576960Y3239840D01*
X7577260Y3238840D01*
X7577560Y3237840D01*
X7577660Y3236740D01*
X7577860Y3235640D01*
X7577960Y3234640D01*
Y3232440D01*
X7577860Y3231440D01*
X7577660Y3230340D01*
X7577560Y3229240D01*
X7577260Y3228240D01*
X7576960Y3227240D01*
X7576560Y3226240D01*
X7576160Y3225240D01*
X7575760Y3224240D01*
X7575260Y3223240D01*
X7574660Y3222340D01*
X7574060Y3221540D01*
X7573360Y3220640D01*
X7572660Y3219840D01*
X7571960Y3219040D01*
X7571160Y3218340D01*
X7570360Y3217640D01*
X7569460Y3216940D01*
X7568660Y3216340D01*
X7567760Y3215740D01*
X7566760Y3215240D01*
X7565760Y3214840D01*
X7564760Y3214440D01*
X7563760Y3214040D01*
X7562760Y3213740D01*
X7561760Y3213440D01*
X7560660Y3213340D01*
X7559560Y3213140D01*
X7558560Y3213040D01*
X7496360D01*
X7495360Y3213140D01*
X7494260Y3213340D01*
X7493160Y3213440D01*
X7492160Y3213740D01*
X7491160Y3214040D01*
X7490160Y3214440D01*
X7489160Y3214840D01*
X7488160Y3215240D01*
X7487160Y3215740D01*
X7486260Y3216340D01*
X7485460Y3216940D01*
X7484560Y3217640D01*
X7483760Y3218340D01*
X7482960Y3219040D01*
X7482260Y3219840D01*
X7481560Y3220640D01*
X7480860Y3221540D01*
X7480260Y3222340D01*
X7479660Y3223240D01*
X7479160Y3224240D01*
X7478760Y3225240D01*
X7478360Y3226240D01*
X7477960Y3227240D01*
X7477660Y3228240D01*
X7477360Y3229240D01*
X7477260Y3230340D01*
X7477060Y3231440D01*
X7476960Y3232440D01*
Y3234640D01*
X7477060Y3235640D01*
X7477260Y3236740D01*
X7477360Y3237840D01*
X7477660Y3238840D01*
X7477960Y3239840D01*
X7478360Y3240840D01*
X7478760Y3241840D01*
X7479160Y3242840D01*
X7479660Y3243840D01*
X7480260Y3244740D01*
X7480860Y3245540D01*
X7481560Y3246440D01*
X7482260Y3247240D01*
X7482960Y3248040D01*
X7483760Y3248740D01*
X7484560Y3249440D01*
X7485460Y3250140D01*
X7486260Y3250740D01*
X7487160Y3251340D01*
X7488160Y3251840D01*
X7489160Y3252240D01*
X7490160Y3252640D01*
X7491160Y3253040D01*
X7492160Y3253340D01*
X7493160Y3253640D01*
X7494260Y3253740D01*
X7495360Y3253940D01*
X7496360Y3254040D01*
X7558560D01*
X7559560Y3253940D01*
D02*
G37*
G36*
Y3203940D02*
X7560660Y3203740D01*
X7561760Y3203640D01*
X7562760Y3203340D01*
X7563760Y3203040D01*
X7564760Y3202640D01*
X7565760Y3202240D01*
X7566760Y3201840D01*
X7567760Y3201340D01*
X7568660Y3200740D01*
X7569460Y3200140D01*
X7570360Y3199440D01*
X7571160Y3198740D01*
X7571960Y3198040D01*
X7572660Y3197240D01*
X7573360Y3196440D01*
X7574060Y3195540D01*
X7574660Y3194740D01*
X7575260Y3193840D01*
X7575760Y3192840D01*
X7576160Y3191840D01*
X7576560Y3190840D01*
X7576960Y3189840D01*
X7577260Y3188840D01*
X7577560Y3187840D01*
X7577660Y3186740D01*
X7577860Y3185640D01*
X7577960Y3184640D01*
Y3182440D01*
X7577860Y3181440D01*
X7577660Y3180340D01*
X7577560Y3179240D01*
X7577260Y3178240D01*
X7576960Y3177240D01*
X7576560Y3176240D01*
X7576160Y3175240D01*
X7575760Y3174240D01*
X7575260Y3173240D01*
X7574660Y3172340D01*
X7574060Y3171540D01*
X7573360Y3170640D01*
X7572660Y3169840D01*
X7571960Y3169040D01*
X7571160Y3168340D01*
X7570360Y3167640D01*
X7569460Y3166940D01*
X7568660Y3166340D01*
X7567760Y3165740D01*
X7566760Y3165240D01*
X7565760Y3164840D01*
X7564760Y3164440D01*
X7563760Y3164040D01*
X7562760Y3163740D01*
X7561760Y3163440D01*
X7560660Y3163340D01*
X7559560Y3163140D01*
X7558560Y3163040D01*
X7496360D01*
X7495360Y3163140D01*
X7494260Y3163340D01*
X7493160Y3163440D01*
X7492160Y3163740D01*
X7491160Y3164040D01*
X7490160Y3164440D01*
X7489160Y3164840D01*
X7488160Y3165240D01*
X7487160Y3165740D01*
X7486260Y3166340D01*
X7485460Y3166940D01*
X7484560Y3167640D01*
X7483760Y3168340D01*
X7482960Y3169040D01*
X7482260Y3169840D01*
X7481560Y3170640D01*
X7480860Y3171540D01*
X7480260Y3172340D01*
X7479660Y3173240D01*
X7479160Y3174240D01*
X7478760Y3175240D01*
X7478360Y3176240D01*
X7477960Y3177240D01*
X7477660Y3178240D01*
X7477360Y3179240D01*
X7477260Y3180340D01*
X7477060Y3181440D01*
X7476960Y3182440D01*
Y3184640D01*
X7477060Y3185640D01*
X7477260Y3186740D01*
X7477360Y3187840D01*
X7477660Y3188840D01*
X7477960Y3189840D01*
X7478360Y3190840D01*
X7478760Y3191840D01*
X7479160Y3192840D01*
X7479660Y3193840D01*
X7480260Y3194740D01*
X7480860Y3195540D01*
X7481560Y3196440D01*
X7482260Y3197240D01*
X7482960Y3198040D01*
X7483760Y3198740D01*
X7484560Y3199440D01*
X7485460Y3200140D01*
X7486260Y3200740D01*
X7487160Y3201340D01*
X7488160Y3201840D01*
X7489160Y3202240D01*
X7490160Y3202640D01*
X7491160Y3203040D01*
X7492160Y3203340D01*
X7493160Y3203640D01*
X7494260Y3203740D01*
X7495360Y3203940D01*
X7496360Y3204040D01*
X7558560D01*
X7559560Y3203940D01*
D02*
G37*
G36*
Y3153940D02*
X7560660Y3153740D01*
X7561760Y3153640D01*
X7562760Y3153340D01*
X7563760Y3153040D01*
X7564760Y3152640D01*
X7565760Y3152240D01*
X7566760Y3151840D01*
X7567760Y3151340D01*
X7568660Y3150740D01*
X7569460Y3150140D01*
X7570360Y3149440D01*
X7571160Y3148740D01*
X7571960Y3148040D01*
X7572660Y3147240D01*
X7573360Y3146440D01*
X7574060Y3145540D01*
X7574660Y3144740D01*
X7575260Y3143840D01*
X7575760Y3142840D01*
X7576160Y3141840D01*
X7576560Y3140840D01*
X7576960Y3139840D01*
X7577260Y3138840D01*
X7577560Y3137840D01*
X7577660Y3136740D01*
X7577860Y3135640D01*
X7577960Y3134640D01*
Y3132440D01*
X7577860Y3131440D01*
X7577660Y3130340D01*
X7577560Y3129240D01*
X7577260Y3128240D01*
X7576960Y3127240D01*
X7576560Y3126240D01*
X7576160Y3125240D01*
X7575760Y3124240D01*
X7575260Y3123240D01*
X7574660Y3122340D01*
X7574060Y3121540D01*
X7573360Y3120640D01*
X7572660Y3119840D01*
X7571960Y3119040D01*
X7571160Y3118340D01*
X7570360Y3117640D01*
X7569460Y3116940D01*
X7568660Y3116340D01*
X7567760Y3115740D01*
X7566760Y3115240D01*
X7565760Y3114840D01*
X7564760Y3114440D01*
X7563760Y3114040D01*
X7562760Y3113740D01*
X7561760Y3113440D01*
X7560660Y3113340D01*
X7559560Y3113140D01*
X7558560Y3113040D01*
X7496360D01*
X7495360Y3113140D01*
X7494260Y3113340D01*
X7493160Y3113440D01*
X7492160Y3113740D01*
X7491160Y3114040D01*
X7490160Y3114440D01*
X7489160Y3114840D01*
X7488160Y3115240D01*
X7487160Y3115740D01*
X7486260Y3116340D01*
X7485460Y3116940D01*
X7484560Y3117640D01*
X7483760Y3118340D01*
X7482960Y3119040D01*
X7482260Y3119840D01*
X7481560Y3120640D01*
X7480860Y3121540D01*
X7480260Y3122340D01*
X7479660Y3123240D01*
X7479160Y3124240D01*
X7478760Y3125240D01*
X7478360Y3126240D01*
X7477960Y3127240D01*
X7477660Y3128240D01*
X7477360Y3129240D01*
X7477260Y3130340D01*
X7477060Y3131440D01*
X7476960Y3132440D01*
Y3134640D01*
X7477060Y3135640D01*
X7477260Y3136740D01*
X7477360Y3137840D01*
X7477660Y3138840D01*
X7477960Y3139840D01*
X7478360Y3140840D01*
X7478760Y3141840D01*
X7479160Y3142840D01*
X7479660Y3143840D01*
X7480260Y3144740D01*
X7480860Y3145540D01*
X7481560Y3146440D01*
X7482260Y3147240D01*
X7482960Y3148040D01*
X7483760Y3148740D01*
X7484560Y3149440D01*
X7485460Y3150140D01*
X7486260Y3150740D01*
X7487160Y3151340D01*
X7488160Y3151840D01*
X7489160Y3152240D01*
X7490160Y3152640D01*
X7491160Y3153040D01*
X7492160Y3153340D01*
X7493160Y3153640D01*
X7494260Y3153740D01*
X7495360Y3153940D01*
X7496360Y3154040D01*
X7558560D01*
X7559560Y3153940D01*
D02*
G37*
G36*
Y3103940D02*
X7560660Y3103740D01*
X7561760Y3103640D01*
X7562760Y3103340D01*
X7563760Y3103040D01*
X7564760Y3102640D01*
X7565760Y3102240D01*
X7566760Y3101840D01*
X7567760Y3101340D01*
X7568660Y3100740D01*
X7569460Y3100140D01*
X7570360Y3099440D01*
X7571160Y3098740D01*
X7571960Y3098040D01*
X7572660Y3097240D01*
X7573360Y3096440D01*
X7574060Y3095540D01*
X7574660Y3094740D01*
X7575260Y3093840D01*
X7575760Y3092840D01*
X7576160Y3091840D01*
X7576560Y3090840D01*
X7576960Y3089840D01*
X7577260Y3088840D01*
X7577560Y3087840D01*
X7577660Y3086740D01*
X7577860Y3085640D01*
X7577960Y3084640D01*
Y3082440D01*
X7577860Y3081440D01*
X7577660Y3080340D01*
X7577560Y3079240D01*
X7577260Y3078240D01*
X7576960Y3077240D01*
X7576560Y3076240D01*
X7576160Y3075240D01*
X7575760Y3074240D01*
X7575260Y3073240D01*
X7574660Y3072340D01*
X7574060Y3071540D01*
X7573360Y3070640D01*
X7572660Y3069840D01*
X7571960Y3069040D01*
X7571160Y3068340D01*
X7570360Y3067640D01*
X7569460Y3066940D01*
X7568660Y3066340D01*
X7567760Y3065740D01*
X7566760Y3065240D01*
X7565760Y3064840D01*
X7564760Y3064440D01*
X7563760Y3064040D01*
X7562760Y3063740D01*
X7561760Y3063440D01*
X7560660Y3063340D01*
X7559560Y3063140D01*
X7558560Y3063040D01*
X7496360D01*
X7495360Y3063140D01*
X7494260Y3063340D01*
X7493160Y3063440D01*
X7492160Y3063740D01*
X7491160Y3064040D01*
X7490160Y3064440D01*
X7489160Y3064840D01*
X7488160Y3065240D01*
X7487160Y3065740D01*
X7486260Y3066340D01*
X7485460Y3066940D01*
X7484560Y3067640D01*
X7483760Y3068340D01*
X7482960Y3069040D01*
X7482260Y3069840D01*
X7481560Y3070640D01*
X7480860Y3071540D01*
X7480260Y3072340D01*
X7479660Y3073240D01*
X7479160Y3074240D01*
X7478760Y3075240D01*
X7478360Y3076240D01*
X7477960Y3077240D01*
X7477660Y3078240D01*
X7477360Y3079240D01*
X7477260Y3080340D01*
X7477060Y3081440D01*
X7476960Y3082440D01*
Y3084640D01*
X7477060Y3085640D01*
X7477260Y3086740D01*
X7477360Y3087840D01*
X7477660Y3088840D01*
X7477960Y3089840D01*
X7478360Y3090840D01*
X7478760Y3091840D01*
X7479160Y3092840D01*
X7479660Y3093840D01*
X7480260Y3094740D01*
X7480860Y3095540D01*
X7481560Y3096440D01*
X7482260Y3097240D01*
X7482960Y3098040D01*
X7483760Y3098740D01*
X7484560Y3099440D01*
X7485460Y3100140D01*
X7486260Y3100740D01*
X7487160Y3101340D01*
X7488160Y3101840D01*
X7489160Y3102240D01*
X7490160Y3102640D01*
X7491160Y3103040D01*
X7492160Y3103340D01*
X7493160Y3103640D01*
X7494260Y3103740D01*
X7495360Y3103940D01*
X7496360Y3104040D01*
X7558560D01*
X7559560Y3103940D01*
D02*
G37*
G36*
X19710400Y561340D02*
Y50800D01*
X19659599Y0D01*
X11330940D01*
X11280140Y50800D01*
Y576580D01*
X19695160D01*
X19710400Y561340D01*
D02*
G37*
D16*
X7308460Y3283540D02*
D03*
X7527460Y3933540D02*
D03*
Y3833540D02*
D03*
Y3883540D02*
D03*
Y4083540D02*
D03*
Y3983540D02*
D03*
Y4033540D02*
D03*
Y3633540D02*
D03*
Y3783540D02*
D03*
Y3683540D02*
D03*
Y3733540D02*
D03*
Y3383540D02*
D03*
Y3283540D02*
D03*
Y3333540D02*
D03*
Y3533540D02*
D03*
Y3583540D02*
D03*
Y3433540D02*
D03*
Y3483540D02*
D03*
Y3083540D02*
D03*
Y3183540D02*
D03*
Y3233540D02*
D03*
Y3133540D02*
D03*
X7308460Y3983540D02*
D03*
Y3883540D02*
D03*
Y3933540D02*
D03*
Y4033540D02*
D03*
Y3783540D02*
D03*
Y3833540D02*
D03*
Y3683540D02*
D03*
Y3733540D02*
D03*
Y3433540D02*
D03*
Y3333540D02*
D03*
Y3383540D02*
D03*
Y3583540D02*
D03*
Y3633540D02*
D03*
Y3483540D02*
D03*
Y3533540D02*
D03*
Y3083540D02*
D03*
Y3033540D02*
D03*
Y3233540D02*
D03*
Y3133540D02*
D03*
Y3183540D02*
D03*
D53*
X8812505Y2975750D02*
D03*
Y4105745D02*
D03*
D54*
X9094495Y2755760D02*
D03*
Y4325760D02*
D03*
D55*
X8812530Y4015753D02*
D03*
Y3965765D02*
D03*
Y3915753D02*
D03*
Y3865766D02*
D03*
Y3815753D02*
D03*
Y3765766D02*
D03*
Y3715753D02*
D03*
Y3665766D02*
D03*
Y3615753D02*
D03*
Y3565766D02*
D03*
Y3515754D02*
D03*
Y3465766D02*
D03*
Y3415754D02*
D03*
Y3365767D02*
D03*
Y3315754D02*
D03*
Y3265767D02*
D03*
Y3215754D02*
D03*
Y3165767D02*
D03*
Y3115755D02*
D03*
Y3065767D02*
D03*
D56*
X12644120Y816020D02*
D03*
Y901020D02*
D03*
X19616420Y887140D02*
D03*
Y972140D02*
D03*
D57*
X18237061Y2710180D02*
D03*
X15922060D02*
D03*
X18237061Y1437640D02*
D03*
X15922060D02*
D03*
X18237061Y3982720D02*
D03*
X15922060D02*
D03*
D58*
X7495460Y4216540D02*
D03*
Y2900540D02*
D03*
X7016460Y4216540D02*
D03*
Y2900540D02*
D03*
D59*
X7236460Y4099540D02*
D03*
Y2964540D02*
D03*
%TF.MD5,c6ddc27084e69496781675b4c4f5331a*%
M02*
