%TF.GenerationSoftware,Altium Limited,Altium Designer,24.0.1 (36)*%
G04 Layer_Color=65535*
%FSLAX45Y45*%
%MOMM*%
%TF.SameCoordinates,79EBFB85-6253-4421-BC9D-CD6C48D828FA*%
%TF.FilePolarity,Positive*%
%TF.FileFunction,Legend,Top*%
%TF.Part,Single*%
G01*
G75*
%TA.AperFunction,NonConductor*%
%ADD45C,0.25400*%
%ADD46C,0.20000*%
%ADD47C,0.15240*%
%ADD48C,0.12700*%
%ADD49C,0.08001*%
G36*
X9163995Y3049748D02*
Y3083745D01*
X9139994Y3067746D01*
X9163995Y3049748D01*
D01*
D02*
G37*
D45*
X8731199Y3062770D02*
G03*
X8731199Y3062770I-12700J0D01*
G01*
X9196499Y2847762D02*
Y4233733D01*
X8800501Y2726746D02*
Y2925130D01*
Y2726746D02*
X8967991D01*
X8800501Y3026359D02*
Y3030154D01*
Y4051366D02*
Y4055133D01*
Y4352757D02*
X8976383D01*
X8800501Y4156362D02*
Y4352757D01*
D46*
X7318460Y4308540D02*
G03*
X7318460Y4308540I-10000J0D01*
G01*
X8967991Y2726746D02*
X8979080D01*
D47*
X12598400Y770699D02*
Y945699D01*
X12689840Y770699D02*
Y945699D01*
X12598400Y770699D02*
X12689840D01*
X12598400Y945699D02*
X12689840D01*
X19570700Y841819D02*
Y1016819D01*
X19662140Y841819D02*
Y1016819D01*
X19570700Y841819D02*
X19662140D01*
X19570700Y1016819D02*
X19662140D01*
D48*
X7148460Y4231040D02*
X7362460D01*
X7539460Y2996040D02*
Y3036040D01*
X7305960Y2886040D02*
X7362460D01*
X6790460Y4231040D02*
X6884460D01*
X7151960Y2886040D02*
X7163960D01*
X6790460D02*
X6884460D01*
D49*
X9086022Y3856749D02*
Y3883407D01*
Y3870078D01*
X9165996D01*
Y3856749D01*
Y3883407D01*
X9126009Y3923394D02*
Y3976710D01*
X9165996Y4003368D02*
X9086022D01*
Y4043355D01*
X9099351Y4056684D01*
X9126009D01*
X9139338Y4043355D01*
Y4003368D01*
X9086022Y4136657D02*
Y4083342D01*
X9165996D01*
Y4136657D01*
X9126009Y4083342D02*
Y4110000D01*
X9086022Y4163316D02*
X9165996Y4216631D01*
X9086022D02*
X9165996Y4163316D01*
%TF.MD5,e2203c9651ee3b2f4d8a64e7966d1347*%
M02*
