M48
;Layer_Color=9474304
;FILE_FORMAT=4:4
METRIC,LZ
;TYPE=PLATED
T01F00S00C0.3000
T02F00S00C1.0160
T03F00S00C3.1750
%
T01
X00065532Y0008711
X00078994Y00110427
X00065532Y00133744
X00645414Y00129286
X0064516Y00141986
X00646684Y00157734
X00648594Y0016692
X00646938Y00175006
X00648414Y00192607
X00644906Y00208534
X00638302Y00212852
X0065913Y00202184
X00672846Y00203708
X00677164Y0019383
Y00189004
Y00184178
X0068466Y00184096
Y00188922
Y00193748
X0069215Y0019383
Y0018875
Y00184178
X00687578Y0020701
X0070231Y00203708
X00722122
X00714248Y00189484
X00740918Y00188214
X00754126Y00192786
X00744982Y00202946
X00767334Y00202438
X00774954Y00204724
X0066548Y00179578
X00664391Y0016692
X00644906Y00111252
X00644652Y00104394
X0064516Y00089662
X00644906Y0007874
X00645851Y00071221
X00648594Y00053921
X00645668Y00042164
X0064747Y00032168
X00658876Y00030734
X00662686Y00042418
X00673862Y00042926
X00677164Y0003683
Y00032004
Y00027178
X0068466Y00027096
Y00031922
Y00036748
X0069215Y0003683
Y0003175
Y00027178
X00694182Y0001143
X00679196Y00011176
X00664972Y00016256
X0065024Y00018288
X00655458Y00008256
X00638302Y00006604
X00664391Y00053921
X00665734Y00068072
X00673354Y00062992
X00682244Y00050038
X00743966Y0004699
X00733594Y00010625
X0072009Y00010414
X0081026Y00018034
X00819281Y00018063
Y00023062
Y00028063
X00808736Y00039116
X00819281Y00063062
X00824062Y00076448
X00828545Y00079676
X00819281Y00093062
Y00108063
Y00123062
Y00138063
Y00153061
Y00168063
Y00183061
Y00198065
X00819284Y00203069
X00794004Y00200152
T02
X00038608Y0008711
X00065532
X00078994Y00110427
X00065532Y00133744
X00038608
X00025146Y00110427
T03
X0005207Y00110427
M30
