%TF.GenerationSoftware,Altium Limited,Altium Designer,24.0.1 (36)*%
G04 Layer_Color=8388736*
%FSLAX45Y45*%
%MOMM*%
%TF.SameCoordinates,C7918CCB-1B96-425F-A431-112FFD946441*%
%TF.FilePolarity,Negative*%
%TF.FileFunction,Soldermask,Top*%
%TF.Part,Single*%
G01*
G75*
%TA.AperFunction,SMDPad,CuDef*%
%ADD23R,1.10320X0.75321*%
%ADD24R,1.10320X0.45321*%
%ADD25R,2.10320X1.60320*%
%TA.AperFunction,ComponentPad*%
%ADD26C,1.21920*%
%ADD27C,7.82320*%
G36*
X8520699Y2098685D02*
Y112710D01*
X8220710D01*
X8220700Y112700D01*
Y2098695D01*
X8520699Y2098685D01*
D02*
G37*
D23*
X6564605Y539209D02*
D03*
Y1669204D02*
D03*
D24*
X6564630Y929226D02*
D03*
Y629227D02*
D03*
Y679214D02*
D03*
Y829226D02*
D03*
Y879213D02*
D03*
Y729226D02*
D03*
Y779214D02*
D03*
Y1479212D02*
D03*
Y1529225D02*
D03*
Y1379212D02*
D03*
Y1429225D02*
D03*
Y1579212D02*
D03*
Y1079213D02*
D03*
Y1129226D02*
D03*
Y979213D02*
D03*
Y1029226D02*
D03*
Y1279213D02*
D03*
Y1329225D02*
D03*
Y1179213D02*
D03*
Y1229225D02*
D03*
D25*
X6846595Y319220D02*
D03*
Y1889219D02*
D03*
D26*
X386080Y1337440D02*
D03*
X655320D02*
D03*
X789940Y1104271D02*
D03*
X655320Y871103D02*
D03*
X386080D02*
D03*
X251460Y1104271D02*
D03*
D27*
X520700D02*
D03*
%TF.MD5,c5075b17d7060a5da50a66329064c9f2*%
M02*
