%TF.GenerationSoftware,Altium Limited,Altium Designer,24.0.1 (36)*%
G04 Layer_Color=16711935*
%FSLAX45Y45*%
%MOMM*%
%TF.SameCoordinates,C7918CCB-1B96-425F-A431-112FFD946441*%
%TF.FilePolarity,Positive*%
%TF.FileFunction,Other,Mechanical_1*%
%TF.Part,Single*%
G01*
G75*
%TA.AperFunction,NonConductor*%
%ADD20C,0.20000*%
%ADD28C,0.01270*%
D20*
X573786Y913300D02*
G03*
X573786Y1295138I0J190919D01*
G01*
X8120700Y2198695D02*
G03*
X8220700Y2098695I100000J0D01*
G01*
Y112700D02*
G03*
X8120700Y12700I0J-100000D01*
G01*
X8230700Y557698D02*
G03*
X8230700Y427698I-3122J-65000D01*
G01*
X520715Y1295182D02*
Y2051624D01*
X667786Y2198695D01*
X8120700D01*
X520715Y158916D02*
X666931Y12700D01*
X8120700D01*
X520715Y158916D02*
Y913420D01*
X520700Y913300D02*
X573786D01*
X520700Y1295243D02*
X573786D01*
X8220700Y2098685D02*
X8520699D01*
Y557693D02*
Y2098685D01*
X8230707Y557693D02*
X8520699D01*
X8230707Y427695D02*
X8520699D01*
Y112710D02*
Y427695D01*
X8220700Y112710D02*
X8520699D01*
D28*
X2243005Y1405434D02*
G03*
X2030873Y1617566I-106066J106066D01*
G01*
X1656473Y1243166D02*
G03*
X1868605Y1031034I106066J-106066D01*
G01*
X1527987Y1468234D02*
G03*
X1740119Y1680366I106066J106066D01*
G01*
X1365719Y2054766D02*
G03*
X1153587Y1842634I-106066J-106066D01*
G01*
X1527987Y593834D02*
G03*
X1740119Y805966I106066J106066D01*
G01*
X1365719Y1180366D02*
G03*
X1153587Y968234I-106066J-106066D01*
G01*
X1656473Y368766D02*
G03*
X1868605Y156634I106066J-106066D01*
G01*
X2243005Y531034D02*
G03*
X2030873Y743166I-106066J106066D01*
G01*
X3249005Y1405434D02*
G03*
X3036873Y1617566I-106066J106066D01*
G01*
X2662473Y1243166D02*
G03*
X2874605Y1031034I106066J-106066D01*
G01*
X2533987Y1468234D02*
G03*
X2746119Y1680366I106066J106066D01*
G01*
X2371719Y2054766D02*
G03*
X2159587Y1842634I-106066J-106066D01*
G01*
X2533987Y593834D02*
G03*
X2746119Y805966I106066J106066D01*
G01*
X2371719Y1180366D02*
G03*
X2159587Y968234I-106066J-106066D01*
G01*
X2662473Y368766D02*
G03*
X2874605Y156634I106066J-106066D01*
G01*
X3249005Y531034D02*
G03*
X3036873Y743166I-106066J106066D01*
G01*
X4255005Y1405434D02*
G03*
X4042873Y1617566I-106066J106066D01*
G01*
X3668473Y1243166D02*
G03*
X3880605Y1031034I106066J-106066D01*
G01*
X3539987Y1468234D02*
G03*
X3752119Y1680366I106066J106066D01*
G01*
X3377719Y2054766D02*
G03*
X3165587Y1842634I-106066J-106066D01*
G01*
X3539987Y593834D02*
G03*
X3752119Y805966I106066J106066D01*
G01*
X3377719Y1180366D02*
G03*
X3165587Y968234I-106066J-106066D01*
G01*
X3668473Y368766D02*
G03*
X3880605Y156634I106066J-106066D01*
G01*
X4255005Y531034D02*
G03*
X4042873Y743166I-106066J106066D01*
G01*
X5261005Y1405434D02*
G03*
X5048873Y1617566I-106066J106066D01*
G01*
X4674473Y1243166D02*
G03*
X4886605Y1031034I106066J-106066D01*
G01*
X4545987Y1468234D02*
G03*
X4758119Y1680366I106066J106066D01*
G01*
X4383719Y2054766D02*
G03*
X4171587Y1842634I-106066J-106066D01*
G01*
X4545987Y593834D02*
G03*
X4758119Y805966I106066J106066D01*
G01*
X4383719Y1180366D02*
G03*
X4171587Y968234I-106066J-106066D01*
G01*
X4674473Y368766D02*
G03*
X4886605Y156634I106066J-106066D01*
G01*
X5261005Y531034D02*
G03*
X5048873Y743166I-106066J106066D01*
G01*
X6267005Y1405434D02*
G03*
X6054873Y1617566I-106066J106066D01*
G01*
X5680473Y1243166D02*
G03*
X5892605Y1031034I106066J-106066D01*
G01*
X5389719Y2054766D02*
G03*
X5177587Y1842634I-106066J-106066D01*
G01*
X5551987Y1468234D02*
G03*
X5764119Y1680366I106066J106066D01*
G01*
X5389719Y1180366D02*
G03*
X5177587Y968234I-106066J-106066D01*
G01*
X5551987Y593834D02*
G03*
X5764119Y805966I106066J106066D01*
G01*
X6267005Y531034D02*
G03*
X6054873Y743166I-106066J106066D01*
G01*
X5680473Y368766D02*
G03*
X5892605Y156634I106066J-106066D01*
G01*
X3377719Y2054766D02*
X3752119Y1680366D01*
X1656473Y1243166D02*
X2030873Y1617566D01*
X1868605Y1031034D02*
X2243005Y1405434D01*
X1365719Y2054766D02*
X1740119Y1680366D01*
X1153587Y1842634D02*
X1527987Y1468234D01*
X1153587Y968234D02*
X1527987Y593834D01*
X1365719Y1180366D02*
X1740119Y805966D01*
X1656473Y368766D02*
X2030873Y743166D01*
X1868605Y156634D02*
X2243005Y531034D01*
X2662473Y1243166D02*
X3036873Y1617566D01*
X2874605Y1031034D02*
X3249005Y1405434D01*
X2159587Y1842634D02*
X2533987Y1468234D01*
X2371719Y2054766D02*
X2746119Y1680366D01*
X2159587Y968234D02*
X2533987Y593834D01*
X2371719Y1180366D02*
X2746119Y805966D01*
X2874605Y156634D02*
X3249005Y531034D01*
X2662473Y368766D02*
X3036873Y743166D01*
X3668473Y1243166D02*
X4042873Y1617566D01*
X3880605Y1031034D02*
X4255005Y1405434D01*
X3165587Y1842634D02*
X3539987Y1468234D01*
X3165587Y968234D02*
X3539987Y593834D01*
X3377719Y1180366D02*
X3752119Y805966D01*
X3668473Y368766D02*
X4042873Y743166D01*
X3880605Y156634D02*
X4255005Y531034D01*
X4886605Y1031034D02*
X5261005Y1405434D01*
X4674473Y1243166D02*
X5048873Y1617566D01*
X4171587Y1842634D02*
X4545987Y1468234D01*
X4383719Y2054766D02*
X4758119Y1680366D01*
X4171587Y968234D02*
X4545987Y593834D01*
X4383719Y1180366D02*
X4758119Y805966D01*
X4674473Y368766D02*
X5048873Y743166D01*
X4886605Y156634D02*
X5261005Y531034D01*
X5892605Y1031034D02*
X6267005Y1405434D01*
X5680473Y1243166D02*
X6054873Y1617566D01*
X5177587Y1842634D02*
X5551987Y1468234D01*
X5389719Y2054766D02*
X5764119Y1680366D01*
X5177587Y968234D02*
X5551987Y593834D01*
X5389719Y1180366D02*
X5764119Y805966D01*
X5680473Y368766D02*
X6054873Y743166D01*
X5892605Y156634D02*
X6267005Y531034D01*
%TF.MD5,e51b76b0ca3b55aede1b328c406e9223*%
M02*
